# ProBuilder 5.0.6
# https://unity3d.com/unity/features/worldbuilding/probuilder
# 2024-06-24 오전 11:54:37

mtllib ./JapaneseBuildingModel07Propane.mtl
o JapaneseBuildingModel07Propane

g JapaneseBuildingModel07Propane
v -0.3900375 -0.02499998 0
v -0.1499987 0.1249998 0
v -0.3660879 -0.02499998 0.1332446
v -0.140955 0.1249998 0.05130291
v -0.2984352 -0.02499998 0.2504181
v -0.1149054 0.1249998 0.09641838
v -0.1947908 -0.02499998 0.3373871
v -0.07499981 0.1249998 0.1299037
v -0.06764984 -0.02499998 0.3836622
v -0.02604771 0.1249998 0.1477209
v 0.06764984 -0.02499998 0.3836622
v 0.02604771 0.1249998 0.1477209
v 0.1947908 -0.02499998 0.337387
v 0.07499981 0.1249998 0.1299037
v 0.2984352 -0.02499998 0.2504182
v 0.1149054 0.1249998 0.09641838
v 0.3660879 -0.02499998 0.1332448
v 0.140955 0.1249998 0.05130339
v 0.3892574 -0.02499998 0
v 0.1499987 0.1249998 0
v 0.3660879 -0.02499998 -0.1332448
v 0.140955 0.1249998 -0.05130315
v 0.2984352 -0.02499998 -0.2504182
v 0.1149054 0.1249998 -0.09641838
v 0.1947908 -0.02499998 -0.3373871
v 0.07499981 0.1249998 -0.1299038
v 0.06764984 -0.02499998 -0.3836622
v 0.02604675 0.1249998 -0.1477211
v -0.06764984 -0.02499998 -0.3836622
v -0.02604675 0.1249998 -0.1477211
v -0.1947908 -0.02499998 -0.3373871
v -0.07499981 0.1249998 -0.1299038
v -0.2984352 -0.02499998 -0.2504182
v -0.1149054 0.1249998 -0.09641838
v -0.366087 -0.02499998 -0.133245
v -0.140955 0.1249998 -0.05130339
v 0 0.1251955 0
v -0.4000006 -1.725 0
v -0.4000006 -0.05499983 0
v -0.3758764 -1.725 0.1368079
v -0.3758764 -0.05499983 0.1368079
v -0.3064184 -1.725 0.2571149
v -0.3064184 -0.05499983 0.2571149
v -0.1999998 -1.725 0.3464103
v -0.1999998 -0.05499983 0.3464103
v -0.06945896 -1.725 0.3939233
v -0.06945896 -0.05499983 0.3939233
v 0.06945896 -1.725 0.3939233
v 0.06945896 -0.05499983 0.3939233
v 0.1999998 -1.725 0.3464103
v 0.1999998 -0.05499983 0.3464103
v 0.3064184 -1.725 0.2571149
v 0.3064184 -0.05499983 0.2571149
v 0.3758764 -1.725 0.1368079
v 0.3758764 -0.05499983 0.1368079
v 0.4000006 -1.725 0
v 0.4000006 -0.05499983 0
v 0.3758764 -1.725 -0.1368079
v 0.3758764 -0.05499983 -0.1368079
v 0.3064184 -1.725 -0.2571149
v 0.3064184 -0.05499983 -0.2571149
v 0.1999998 -1.725 -0.3464103
v 0.1999998 -0.05499983 -0.3464103
v 0.06945896 -1.725 -0.3939233
v 0.06945896 -0.05499983 -0.3939233
v -0.06945896 -1.725 -0.3939233
v -0.06945896 -0.05499983 -0.3939233
v -0.1999998 -1.725 -0.3464103
v -0.1999998 -0.05499983 -0.3464103
v -0.3064184 -1.725 -0.2571149
v -0.3064184 -0.05499983 -0.2571149
v -0.3758764 -1.725 -0.1368079
v -0.3758764 -0.05499983 -0.1368079
v -0.3432417 -1.825 0.1249299
v -0.2798128 -1.825 0.2347913
v -0.1826353 -1.825 0.3163333
v -0.06342793 -1.825 0.3597212
v 0.06342793 -1.825 0.3597212
v 0.1826353 -1.825 0.3163333
v 0.2798128 -1.825 0.2347913
v 0.3432417 -1.825 0.1249299
v 0.3652697 -1.825 0
v 0.3432417 -1.825 -0.1249299
v 0.2798128 -1.825 -0.2347913
v 0.1826353 -1.825 -0.3163333
v 0.06342793 -1.825 -0.3597207
v -0.06342793 -1.825 -0.3597207
v -0.1826353 -1.825 -0.3163333
v -0.2798128 -1.825 -0.2347913
v -0.3432417 -1.825 -0.1249299
v 0 -1.825 0
v -0.3652697 -1.825 0
v -0.3895807 -0.02499986 0
v 0.3895807 -0.02499986 0
v -0.05000019 0.1249998 0.00287056
v -0.05000019 0.1449997 0.00287056
v -0.04330158 0.1249998 0.02787066
v -0.04330158 0.1449997 0.02787066
v -0.02500057 0.1249998 0.04617167
v -0.02500057 0.1449997 0.04617167
v 0 0.1249998 0.05287075
v 0 0.1449997 0.05287075
v 0.02500057 0.1249998 0.04617167
v 0.02500057 0.1449997 0.04617167
v 0.04330158 0.1249998 0.02787066
v 0.04330158 0.1449997 0.02787066
v 0.05000019 0.1249998 0.00287056
v 0.05000019 0.1449997 0.00287056
v 0.04330158 0.1249998 -0.02212954
v 0.04330158 0.1449997 -0.02212954
v 0.02500057 0.1249998 -0.04043055
v 0.02500057 0.1449997 -0.04043055
v 0 0.1249998 -0.04712963
v 0 0.1449997 -0.04712963
v -0.02500057 0.1249998 -0.04043055
v -0.02500057 0.1449997 -0.04043055
v -0.04330158 0.1249998 -0.02212954
v -0.04330158 0.1449997 -0.02212954
v 0 0.1449997 0.00287056
v -0.05000019 0.2249994 0.00287056
v -0.05000019 0.2449994 0.00287056
v -0.04330158 0.2249994 0.02787066
v -0.04330158 0.2449994 0.02787066
v -0.02500057 0.2249994 0.04617167
v -0.02500057 0.2449994 0.04617167
v 0 0.2249994 0.05287075
v 0 0.2449994 0.05287075
v 0.02500057 0.2249994 0.04617167
v 0.02500057 0.2449994 0.04617167
v 0.04330158 0.2249994 0.02787066
v 0.04330158 0.2449994 0.02787066
v 0.05000019 0.2249994 0.00287056
v 0.05000019 0.2449994 0.00287056
v 0.04330158 0.2249994 -0.02212954
v 0.04330158 0.2449994 -0.02212954
v 0.02500057 0.2249994 -0.04043055
v 0.02500057 0.2449994 -0.04043055
v 0 0.2249994 -0.04712963
v 0 0.2449994 -0.04712963
v -0.02500057 0.2249994 -0.04043055
v -0.02500057 0.2449994 -0.04043055
v -0.04330158 0.2249994 -0.02212954
v -0.04330158 0.2449994 -0.02212954
v 0 0.2249994 0.00287056
v 0 0.2449994 0.00287056
v -0.02500057 0.1449995 0.00287056
v -0.02500057 0.2249997 0.00287056
v -0.02165127 0.1449995 0.01537037
v -0.02165127 0.2249997 0.01537037
v -0.01249981 0.1449995 0.02452135
v -0.01249981 0.2249997 0.02452135
v 0 0.1449995 0.02787066
v 0 0.2249997 0.02787066
v 0.01249981 0.1449995 0.02452135
v 0.01249981 0.2249997 0.02452135
v 0.02165127 0.1449995 0.01537037
v 0.02165127 0.2249997 0.01537037
v 0.02500057 0.1449995 0.00287056
v 0.02500057 0.2249997 0.00287056
v 0.02165127 0.1449995 -0.00962925
v 0.02165127 0.2249997 -0.00962925
v 0.01249981 0.1449995 -0.01878023
v 0.01249981 0.2249997 -0.01878023
v 0 0.1449995 -0.02212954
v 0 0.2249997 -0.02212954
v -0.01249981 0.1449995 -0.01878023
v -0.01249981 0.2249997 -0.01878023
v -0.02165127 0.1449995 -0.00962925
v -0.02165127 0.2249997 -0.00962925
v -0.0199995 0.1853857 0.003070831
v -0.0199995 0.1853857 0.08307076
v -0.01732063 0.1753857 0.003070831
v -0.01732063 0.1753857 0.08307076
v -0.01000023 0.1680651 0.003070831
v -0.01000023 0.1680651 0.08307076
v 0 0.1653857 0.003070831
v 0 0.1653857 0.08307076
v 0.01000023 0.1680651 0.003070831
v 0.01000023 0.1680651 0.08307076
v 0.01732063 0.1753857 0.003070831
v 0.01732063 0.1753857 0.08307076
v 0.0199995 0.1853857 0.003070831
v 0.0199995 0.1853857 0.08307076
v 0.01732063 0.1953857 0.003070831
v 0.01732063 0.1953857 0.08307076
v 0.01000023 0.2027061 0.003070831
v 0.01000023 0.2027061 0.08307076
v 0 0.2053857 0.003070831
v 0 0.2053857 0.08307076
v -0.01000023 0.2027061 0.003070831
v -0.01000023 0.2027061 0.08307076
v -0.01732063 0.1953857 0.003070831
v -0.01732063 0.1953857 0.08307076
v 0 0.1853857 0.08307076

vt 0.3440148 -0.01758903
vt 0.06096254 -0.01758903
vt 0.3237046 0.1162587
vt 0.05329315 0.03393716
vt 0.3327522 0.08687001
vt 0.06318945 0.00181053
vt 0.2734882 0.2085017
vt 0.04036986 0.04864273
vt 0.2857152 0.1914048
vt 0.05908077 0.02247912
vt 0.1897728 0.286803
vt 0.02214066 0.05920985
vt 0.195655 0.2828228
vt 0.04672828 0.04257293
vt 0.071417 0.3364059
vt -0.001106095 0.06320386
vt 0.06764984 0.3371836
vt 0.02604771 0.05759783
vt -0.06764984 0.3371836
vt -0.02604771 0.05759783
vt -0.07141701 0.3364058
vt 0.001106189 0.06320378
vt -0.195655 0.2828225
vt -0.04672818 0.04257283
vt -0.1897728 0.2868028
vt -0.02214071 0.05920971
vt -0.2857152 0.1914048
vt -0.05908082 0.02247899
vt -0.2734884 0.2085021
vt -0.04037019 0.04864292
vt -0.3327525 0.08687047
vt -0.0631898 0.00181119
vt -0.3234912 0.1167563
vt -0.05307023 0.0344664
vt -0.3431247 -0.0170552
vt -0.06073371 -0.01706119
vt -0.3430819 0.01706871
vt -0.0606909 0.01706871
vt -0.3234513 -0.1167432
vt -0.05302854 -0.03445881
vt -0.3327522 -0.08687011
vt -0.06318942 -0.001810747
vt -0.2734881 -0.2085018
vt -0.04036985 -0.04864272
vt -0.2857152 -0.1914049
vt -0.05908082 -0.02247909
vt -0.1897728 -0.286803
vt -0.02214071 -0.05920992
vt -0.195655 -0.2828228
vt -0.04672827 -0.04257299
vt -0.071417 -0.3364059
vt 0.001107038 -0.06320403
vt -0.06764984 -0.3371836
vt -0.02604675 -0.05759789
vt 0.06764984 -0.3371836
vt 0.02604675 -0.05759789
vt 0.071417 -0.3364059
vt -0.001107036 -0.06320403
vt 0.195655 -0.2828228
vt 0.04672827 -0.04257299
vt 0.1897728 -0.2868029
vt 0.02214066 -0.05920987
vt 0.2857152 -0.1914048
vt 0.05908077 -0.02247903
vt 0.2734882 -0.2085024
vt 0.04036991 -0.04864332
vt 0.3327514 -0.0868711
vt 0.06318948 -0.001811587
vt 0.3236462 -0.1162389
vt 0.05323287 -0.033926
vt 0.3439529 0.01760986
vt 0.06090067 0.01760091
vt 0.1498354 -2.879968E-05
vt -0.0001633745 -2.879968E-05
vt 0.1407917 0.05127411
vt 0.1147618 0.09633545
vt 0.07489331 0.1297767
vt 0.02599105 0.1475652
vt 0.02604771 0.1475552
vt -0.02604771 0.1475552
vt -0.02599105 0.1475652
vt -0.07494315 0.1297479
vt -0.1147988 0.09629135
vt -0.1408114 0.05122044
vt -0.1498354 -2.879941E-05
vt -0.1407917 -0.05127435
vt -0.1147618 -0.09633545
vt -0.07489331 -0.1297768
vt -0.0259901 -0.1475653
vt -0.02604675 -0.1475553
vt 0.02604675 -0.1475553
vt 0.0259901 -0.1475653
vt 0.07494315 -0.129748
vt 0.1147988 -0.09629135
vt 0.1408114 -0.05122044
vt -0.06945928 -0.8
vt -0.06945928 0.87
vt 0.06945926 -0.8
vt 0.06945926 0.87
vt -0.3432419 0.1249298
vt -0.2798133 0.2347913
vt -0.1826352 0.3163334
vt -0.06342856 0.3597211
vt 0.06342854 0.3597211
vt 0.1826352 0.3163334
vt 0.2798133 0.2347913
vt 0.3432419 0.1249298
vt 0.3652704 -3.72529E-08
vt 0.3432419 -0.1249298
vt 0.2798133 -0.2347912
vt 0.1826352 -0.3163334
vt 0.06342851 -0.3597211
vt -0.06342852 -0.3597211
vt -0.1826351 -0.3163334
vt -0.2798133 -0.2347913
vt -0.3432418 -0.1249299
vt -0.3652703 7.450581E-09
vt 0.06945932 -0.6294711
vt -0.06945932 -0.6294711
vt 0.06342805 -0.7351583
vt -0.06342904 -0.7351578
vt -0.06945932 0.695704
vt 0.06945933 0.695704
vt -0.06765023 0.7274098
vt 0.06764985 0.7274101
vt -0.01294095 -0.009999998
vt -0.01294095 0.01000001
vt 0.01294095 -0.009999998
vt 0.01294095 0.01000001
vt 0.05 0
vt 0.04330142 0.025
vt 0.04330127 0.02500019
vt 0.0250004 0.04330128
vt 1.862645E-09 0.05
vt 7.450581E-09 0.05
vt -0.025 0.04330094
vt -0.04330127 0.02500019
vt -0.05 -4.656613E-09
vt -0.05 8.381903E-09
vt -0.04330143 -0.025
vt -0.04330127 -0.02500019
vt -0.0250004 -0.04330128
vt -3.72529E-09 -0.05
vt -7.450581E-09 -0.05
vt 0.02499999 -0.04330094
vt 0.02500039 -0.04330127
vt 0.04330127 -0.02500019
vt -0.01294095 -0.01000001
vt 0.01294095 -0.01000001
vt -0.04330142 0.025
vt -0.025 0.04330095
vt 0.04330142 -0.025
vt -0.006470477 -0.04000001
vt -0.006470477 0.04000001
vt 0.006470476 -0.04000001
vt 0.006470476 0.04000001
vt -0.005176395 -0.03999999
vt -0.005176395 0.04000001
vt 0.00517638 -0.03999999
vt 0.00517638 0.04000001
vt -0.005176388 -0.04000001
vt 0.005176388 -0.04000001
vt 0.02 0
vt 0.01732106 0.00999999
vt 0.01000016 0.01732051
vt 0.01 0.01732065
vt 0 0.02000001
vt -0.01 0.01732065
vt -0.01732051 0.009999916
vt -0.02 0
vt -0.01732106 -0.00999999
vt -0.01732051 -0.01000006
vt -0.01000016 -0.01732051
vt -0.009999998 -0.01732041
vt -9.313226E-10 -0.02000001
vt 0.009999998 -0.01732041
vt 0.01000016 -0.01732051
vt 0.01732051 -0.01000006
vt 0.01732106 -0.00999999

vn -0.5300071 0.8479931 0.0004413048
vn -0.4984373 0.8476266 0.1819049
vn -0.4986615 0.8475832 0.1814923
vn -0.4065091 0.8475819 0.3411088
vn -0.2653328 0.8475825 0.4595676
vn -0.0921489 0.8475821 0.5226024
vn 0.09214842 0.847582 0.5226025
vn 0.2653331 0.8475823 0.4595678
vn 0.4065105 0.8475822 0.3411064
vn 0.4988773 0.8475826 0.1809012
vn 0.4988958 0.8475029 0.1812229
vn 0.5311286 0.8472912 0.0003064536
vn 0.49882 0.8475519 -0.1812028
vn 0.4065087 0.847582 -0.3411091
vn 0.265333 0.8475825 -0.4595676
vn 0.09214804 0.847582 -0.5226026
vn -0.09214814 0.847582 -0.5226026
vn -0.2653324 0.8475824 -0.4595681
vn -0.4065117 0.8475822 -0.3411051
vn -0.4983513 0.8475817 -0.1823492
vn -0.4983231 0.8476965 -0.1818923
vn -0.001304955 0.9999991 0.0002300379
vn -0.001147524 0.9999991 0.000662579
vn -0.0008517521 0.9999991 0.001015062
vn -0.0004532058 0.9999991 0.001245162
vn 0.0008517521 0.9999991 0.001015062
vn 0.00114752 0.9999991 0.0006625837
vn 0.001304955 0.9999991 0.0002300357
vn 0.001147522 0.9999991 -0.0006625814
vn 0.0008517536 0.9999991 -0.00101506
vn 0.0004531981 0.9999991 -0.001245165
vn -0.0008517536 0.9999991 -0.00101506
vn -0.00114752 0.9999991 -0.0006625837
vn -1 0 0
vn -0.9396925 0 0.3420205
vn -0.7660462 0 0.6427855
vn -0.499999 0 0.866026
vn -0.1736483 0 0.9848077
vn 0.1736483 0 0.9848077
vn 0.499999 0 0.866026
vn 0.7660462 0 0.6427855
vn 0.9396925 0 0.3420205
vn 1 0 0
vn 0.9396925 0 -0.3420205
vn 0.7660462 0 -0.6427855
vn 0.499999 0 -0.866026
vn 0.1736483 0 -0.9848077
vn -0.1736483 0 -0.9848077
vn -0.499999 0 -0.866026
vn -0.7660462 0 -0.6427855
vn -0.9396925 0 -0.3420205
vn 0 -1 0
vn -0.9318092 -0.3236254 -0.1643114
vn -0.8194284 -0.3236113 -0.4730887
vn -0.9318139 -0.3236116 0.1643122
vn -0.819425 -0.3236226 0.4730867
vn -0.6081967 -0.3236151 0.7248241
vn -0.3236156 -0.3236167 0.8891261
vn 0 -0.3236159 0.9461886
vn 0.3236156 -0.3236161 0.8891263
vn 0.6081956 -0.3236202 0.7248228
vn 0.8194284 -0.3236113 0.4730887
vn 0.9318092 -0.3236254 0.1643114
vn 0.9318139 -0.3236116 -0.1643122
vn 0.819425 -0.3236226 -0.4730867
vn 0.6081967 -0.3236151 -0.7248241
vn 0.3236151 -0.3236205 -0.8891249
vn -0.3236156 -0.3236161 -0.8891263
vn -0.6081956 -0.3236202 -0.7248228
vn 0 -0.3236199 -0.9461872
vn -0.9318137 0.3236122 -0.1643122
vn -0.8194223 0.3236319 -0.4730852
vn -0.6082 0.3236006 -0.7248279
vn -0.3236158 0.3236143 -0.8891268
vn 0.3236172 0.323603 -0.8891305
vn 0 0.3236152 -0.9461888
vn 0.8194281 0.323612 -0.4730885
vn 0.6081927 0.3236334 -0.7248194
vn 0.9318036 0.323642 -0.1643104
vn 0.9318137 0.3236122 0.1643122
vn 0.8194203 0.3236386 0.473084
vn 0.6081976 0.3236109 0.7248252
vn 0.3236158 0.3236143 0.8891268
vn 0 0.3236152 0.9461888
vn -0.3236157 0.3236157 0.8891264
vn -0.6081927 0.3236334 0.7248194
vn -0.8194281 0.323612 0.4730885
vn -0.9318036 0.323642 0.1643104
vn -0.9659272 0 0.2588137
vn -0.7071068 0 0.7071068
vn -0.2588263 0 0.9659239
vn 0.2588263 0 0.9659239
vn 0.7071068 0 0.7071068
vn 0.9659272 0 0.2588137
vn 0.9659272 0 -0.2588137
vn 0.7071068 0 -0.7071068
vn 0.2588263 0 -0.9659239
vn -0.2588263 0 -0.9659239
vn -0.7071068 0 -0.7071068
vn -0.9659272 0 -0.2588137
vn 0 1 0
vn -0.9659408 -0.2587633 0
vn -0.7071183 -0.7070953 0
vn -0.2588005 -0.9659308 0
vn 0.2588005 -0.9659308 0
vn 0.7071183 -0.7070953 0
vn 0.9659408 -0.2587633 0
vn 0.9659408 0.2587633 0
vn 0.7071068 0.7071068 0
vn 0.2588221 0.965925 0
vn -0.2588221 0.965925 0
vn -0.7071068 0.7071068 0
vn -0.9659408 0.2587633 0
vn 0 0 1

usemtl JPBM7Metal041A_1
f 4/75/22 37/74/22 2/73/22
f 6/76/23 37/74/23 4/75/23
f 8/77/24 37/74/24 6/76/24
f 10/78/25 37/74/25 8/77/25
f 12/80/25 37/74/25 10/79/25
f 14/82/25 37/74/25 12/81/25
f 16/83/26 37/74/26 14/82/26
f 18/84/27 37/74/27 16/83/27
f 20/85/28 37/74/28 18/84/28
f 22/86/28 37/74/28 20/85/28
f 24/87/29 37/74/29 22/86/29
f 26/88/30 37/74/30 24/87/30
f 28/89/31 37/74/31 26/88/31
f 30/91/31 37/74/31 28/90/31
f 32/93/31 37/74/31 30/92/31
f 34/94/32 37/74/32 32/93/32
f 36/95/33 37/74/33 34/94/33
f 2/73/22 37/74/22 36/95/22
f 90/116/52 91/74/52 92/117/52
f 89/115/52 91/74/52 90/116/52
f 92/117/52 91/74/52 74/100/52
f 74/100/52 91/74/52 75/101/52
f 75/101/52 91/74/52 76/102/52
f 76/102/52 91/74/52 77/103/52
f 77/103/52 91/74/52 78/104/52
f 78/104/52 91/74/52 79/105/52
f 79/105/52 91/74/52 80/106/52
f 80/106/52 91/74/52 81/107/52
f 81/107/52 91/74/52 82/108/52
f 82/108/52 91/74/52 83/109/52
f 83/109/52 91/74/52 84/110/52
f 84/110/52 91/74/52 85/111/52
f 85/111/52 91/74/52 86/112/52
f 87/113/52 91/74/52 88/114/52
f 88/114/52 91/74/52 89/115/52
f 86/112/52 91/74/52 87/113/52
f 4/4/3 2/2/1 1/1/1
f 1/1/1 3/3/2 4/4/3
f 6/8/4 4/6/3 3/5/2
f 3/5/2 5/7/4 6/8/4
f 8/12/5 6/10/4 5/9/4
f 5/9/4 7/11/5 8/12/5
f 10/16/6 8/14/5 7/13/5
f 7/13/5 9/15/6 10/16/6
f 12/20/7 10/18/6 9/17/6
f 9/17/6 11/19/7 12/20/7
f 14/24/8 12/22/7 11/21/7
f 11/21/7 13/23/8 14/24/8
f 16/28/9 14/26/8 13/25/8
f 13/25/8 15/27/9 16/28/9
f 18/32/11 16/30/9 15/29/9
f 15/29/9 17/31/10 18/32/11
f 20/36/12 18/34/11 17/33/10
f 17/33/10 19/35/12 20/36/12
f 22/40/13 20/38/12 19/37/12
f 19/37/12 21/39/13 22/40/13
f 24/44/14 22/42/13 21/41/13
f 21/41/13 23/43/14 24/44/14
f 26/48/15 24/46/14 23/45/14
f 23/45/14 25/47/15 26/48/15
f 28/52/16 26/50/15 25/49/15
f 25/49/15 27/51/16 28/52/16
f 30/56/17 28/54/16 27/53/16
f 27/53/16 29/55/17 30/56/17
f 32/60/18 30/58/17 29/57/17
f 29/57/17 31/59/18 32/60/18
f 34/64/19 32/62/18 31/61/18
f 31/61/18 33/63/19 34/64/19
f 36/68/21 34/66/19 33/65/19
f 33/65/19 35/67/20 36/68/21
f 2/72/1 36/70/21 35/69/20
f 35/69/20 1/71/1 2/72/1
f 41/99/35 39/97/34 38/96/34
f 38/96/34 40/98/35 41/99/35
f 43/99/36 41/97/35 40/96/35
f 40/96/35 42/98/36 43/99/36
f 45/99/37 43/97/36 42/96/36
f 42/96/36 44/98/37 45/99/37
f 47/99/38 45/97/37 44/96/37
f 44/96/37 46/98/38 47/99/38
f 49/99/39 47/97/38 46/96/38
f 46/96/38 48/98/39 49/99/39
f 51/99/40 49/97/39 48/96/39
f 48/96/39 50/98/40 51/99/40
f 53/99/41 51/97/40 50/96/40
f 50/96/40 52/98/41 53/99/41
f 55/99/42 53/97/41 52/96/41
f 52/96/41 54/98/42 55/99/42
f 57/99/43 55/97/42 54/96/42
f 54/96/42 56/98/43 57/99/43
f 59/99/44 57/97/43 56/96/43
f 56/96/43 58/98/44 59/99/44
f 61/99/45 59/97/44 58/96/44
f 58/96/44 60/98/45 61/99/45
f 63/99/46 61/97/45 60/96/45
f 60/96/45 62/98/46 63/99/46
f 65/99/47 63/97/46 62/96/46
f 62/96/46 64/98/47 65/99/47
f 67/99/48 65/97/47 64/96/47
f 64/96/47 66/98/48 67/99/48
f 69/99/49 67/97/48 66/96/48
f 66/96/48 68/98/49 69/99/49
f 71/99/50 69/97/49 68/96/49
f 68/96/49 70/98/50 71/99/50
f 73/99/51 71/97/50 70/96/50
f 70/96/50 72/98/51 73/99/51
f 39/99/34 73/97/51 72/96/51
f 72/96/51 38/98/34 39/99/34
f 92/120/53 38/118/53 72/119/53
f 72/119/53 90/121/53 92/120/53
f 90/120/54 72/118/54 70/119/54
f 70/119/54 89/121/54 90/120/54
f 74/120/55 40/118/55 38/119/55
f 38/119/55 92/121/55 74/120/55
f 75/120/56 42/118/56 40/119/56
f 40/119/56 74/121/56 75/120/56
f 76/120/57 44/118/57 42/119/57
f 42/119/57 75/121/57 76/120/57
f 77/120/58 46/118/58 44/119/58
f 44/119/58 76/121/58 77/120/58
f 78/120/59 48/118/59 46/119/59
f 46/119/59 77/121/59 78/120/59
f 79/120/60 50/118/60 48/119/60
f 48/119/60 78/121/60 79/120/60
f 80/120/61 52/118/61 50/119/61
f 50/119/61 79/121/61 80/120/61
f 81/120/62 54/118/62 52/119/62
f 52/119/62 80/121/62 81/120/62
f 82/120/63 56/118/63 54/119/63
f 54/119/63 81/121/63 82/120/63
f 83/120/64 58/118/64 56/119/64
f 56/119/64 82/121/64 83/120/64
f 84/120/65 60/118/65 58/119/65
f 58/119/65 83/121/65 84/120/65
f 85/120/66 62/118/66 60/119/66
f 60/119/66 84/121/66 85/120/66
f 86/120/67 64/118/67 62/119/67
f 62/119/67 85/121/67 86/120/67
f 88/120/68 68/118/68 66/119/68
f 66/119/68 87/121/68 88/120/68
f 89/120/69 70/118/69 68/119/69
f 68/119/69 88/121/69 89/120/69
f 87/120/70 66/118/70 64/119/70
f 64/119/70 86/121/70 87/120/70
f 35/124/71 73/122/71 39/123/71
f 39/123/71 93/125/71 35/124/71
f 33/124/72 71/122/72 73/123/72
f 73/123/72 35/125/72 33/124/72
f 31/124/73 69/122/73 71/123/73
f 71/123/73 33/125/73 31/124/73
f 29/124/74 67/122/74 69/123/74
f 69/123/74 31/125/74 29/124/74
f 25/124/75 63/122/75 65/123/75
f 65/123/75 27/125/75 25/124/75
f 27/124/76 65/122/76 67/123/76
f 67/123/76 29/125/76 27/124/76
f 21/124/77 59/122/77 61/123/77
f 61/123/77 23/125/77 21/124/77
f 23/124/78 61/122/78 63/123/78
f 63/123/78 25/125/78 23/124/78
f 94/124/79 57/122/79 59/123/79
f 59/123/79 21/125/79 94/124/79
f 17/124/80 55/122/80 57/123/80
f 57/123/80 94/125/80 17/124/80
f 15/124/81 53/122/81 55/123/81
f 55/123/81 17/125/81 15/124/81
f 13/124/82 51/122/82 53/123/82
f 53/123/82 15/125/82 13/124/82
f 11/124/83 49/122/83 51/123/83
f 51/123/83 13/125/83 11/124/83
f 9/124/84 47/122/84 49/123/84
f 49/123/84 11/125/84 9/124/84
f 7/124/85 45/122/85 47/123/85
f 47/123/85 9/125/85 7/124/85
f 5/124/86 43/122/86 45/123/86
f 45/123/86 7/125/86 5/124/86
f 3/124/87 41/122/87 43/123/87
f 43/123/87 5/125/87 3/124/87
f 93/124/88 39/122/88 41/123/88
f 41/123/88 3/125/88 93/124/88

usemtl JPBM6Metal003_2KMat
f 98/131/101 119/74/101 96/130/101
f 100/133/101 119/74/101 98/132/101
f 102/134/101 119/74/101 100/133/101
f 104/136/101 119/74/101 102/135/101
f 106/137/101 119/74/101 104/136/101
f 108/138/101 119/74/101 106/137/101
f 110/140/101 119/74/101 108/139/101
f 112/142/101 119/74/101 110/141/101
f 114/143/101 119/74/101 112/142/101
f 116/145/101 119/74/101 114/144/101
f 118/147/101 119/74/101 116/146/101
f 96/130/101 119/74/101 118/147/101
f 120/138/52 144/74/52 122/150/52
f 122/137/52 144/74/52 124/136/52
f 124/151/52 144/74/52 126/134/52
f 126/134/52 144/74/52 128/133/52
f 128/133/52 144/74/52 130/132/52
f 130/132/52 144/74/52 132/130/52
f 132/130/52 144/74/52 134/152/52
f 134/147/52 144/74/52 136/146/52
f 136/145/52 144/74/52 138/143/52
f 138/143/52 144/74/52 140/142/52
f 140/142/52 144/74/52 142/141/52
f 142/141/52 144/74/52 120/138/52
f 123/131/101 145/74/101 121/130/101
f 125/133/101 145/74/101 123/132/101
f 127/134/101 145/74/101 125/133/101
f 129/136/101 145/74/101 127/135/101
f 131/137/101 145/74/101 129/136/101
f 133/138/101 145/74/101 131/137/101
f 135/140/101 145/74/101 133/139/101
f 137/142/101 145/74/101 135/141/101
f 139/143/101 145/74/101 137/142/101
f 141/145/101 145/74/101 139/144/101
f 143/147/101 145/74/101 141/146/101
f 121/130/101 145/74/101 143/147/101
f 173/164/114 194/74/114 171/163/114
f 175/165/114 194/74/114 173/164/114
f 177/167/114 194/74/114 175/166/114
f 179/168/114 194/74/114 177/167/114
f 181/169/114 194/74/114 179/168/114
f 183/170/114 194/74/114 181/169/114
f 185/171/114 194/74/114 183/170/114
f 187/173/114 194/74/114 185/172/114
f 189/175/114 194/74/114 187/174/114
f 191/176/114 194/74/114 189/175/114
f 193/178/114 194/74/114 191/177/114
f 171/163/114 194/74/114 193/179/114
f 98/129/89 96/127/89 95/126/89
f 95/126/89 97/128/89 98/129/89
f 100/129/90 98/127/90 97/126/90
f 97/126/90 99/128/90 100/129/90
f 102/129/91 100/127/91 99/126/91
f 99/126/91 101/128/91 102/129/91
f 104/129/92 102/127/92 101/126/92
f 101/126/92 103/128/92 104/129/92
f 106/129/93 104/127/93 103/126/93
f 103/126/93 105/128/93 106/129/93
f 108/129/94 106/127/94 105/126/94
f 105/126/94 107/128/94 108/129/94
f 110/129/95 108/127/95 107/126/95
f 107/126/95 109/128/95 110/129/95
f 112/129/96 110/127/96 109/126/96
f 109/126/96 111/128/96 112/129/96
f 114/129/97 112/127/97 111/126/97
f 111/126/97 113/128/97 114/129/97
f 116/129/98 114/127/98 113/126/98
f 113/126/98 115/128/98 116/129/98
f 118/129/99 116/127/99 115/126/99
f 115/126/99 117/128/99 118/129/99
f 96/129/100 118/127/100 117/126/100
f 117/126/100 95/128/100 96/129/100
f 123/129/89 121/127/89 120/148/89
f 120/148/89 122/149/89 123/129/89
f 125/129/90 123/127/90 122/148/90
f 122/148/90 124/149/90 125/129/90
f 127/129/91 125/127/91 124/148/91
f 124/148/91 126/149/91 127/129/91
f 129/129/92 127/127/92 126/148/92
f 126/148/92 128/149/92 129/129/92
f 131/129/93 129/127/93 128/148/93
f 128/148/93 130/149/93 131/129/93
f 133/129/94 131/127/94 130/148/94
f 130/148/94 132/149/94 133/129/94
f 135/129/95 133/127/95 132/148/95
f 132/148/95 134/149/95 135/129/95
f 137/129/96 135/127/96 134/148/96
f 134/148/96 136/149/96 137/129/96
f 139/129/97 137/127/97 136/148/97
f 136/148/97 138/149/97 139/129/97
f 141/129/98 139/127/98 138/148/98
f 138/148/98 140/149/98 141/129/98
f 143/129/99 141/127/99 140/148/99
f 140/148/99 142/149/99 143/129/99
f 121/129/100 143/127/100 142/148/100
f 142/148/100 120/149/100 121/129/100
f 149/156/89 147/154/89 146/153/89
f 146/153/89 148/155/89 149/156/89
f 151/156/90 149/154/90 148/153/90
f 148/153/90 150/155/90 151/156/90
f 153/156/91 151/154/91 150/153/91
f 150/153/91 152/155/91 153/156/91
f 155/156/92 153/154/92 152/153/92
f 152/153/92 154/155/92 155/156/92
f 157/156/93 155/154/93 154/153/93
f 154/153/93 156/155/93 157/156/93
f 159/156/94 157/154/94 156/153/94
f 156/153/94 158/155/94 159/156/94
f 161/156/95 159/154/95 158/153/95
f 158/153/95 160/155/95 161/156/95
f 163/156/96 161/154/96 160/153/96
f 160/153/96 162/155/96 163/156/96
f 165/156/97 163/154/97 162/153/97
f 162/153/97 164/155/97 165/156/97
f 167/156/98 165/154/98 164/153/98
f 164/153/98 166/155/98 167/156/98
f 169/156/99 167/154/99 166/153/99
f 166/153/99 168/155/99 169/156/99
f 147/156/100 169/154/100 168/153/100
f 168/153/100 146/155/100 147/156/100
f 173/160/102 171/158/102 170/157/102
f 170/157/102 172/159/102 173/160/102
f 175/160/103 173/158/103 172/157/103
f 172/157/103 174/159/103 175/160/103
f 177/160/104 175/158/104 174/157/104
f 174/157/104 176/159/104 177/160/104
f 179/160/105 177/158/105 176/157/105
f 176/157/105 178/159/105 179/160/105
f 181/160/106 179/158/106 178/157/106
f 178/157/106 180/159/106 181/160/106
f 183/160/107 181/158/107 180/161/107
f 180/161/107 182/162/107 183/160/107
f 185/160/108 183/158/108 182/161/108
f 182/161/108 184/162/108 185/160/108
f 187/160/109 185/158/109 184/157/109
f 184/157/109 186/159/109 187/160/109
f 189/160/110 187/158/110 186/157/110
f 186/157/110 188/159/110 189/160/110
f 191/160/111 189/158/111 188/157/111
f 188/157/111 190/159/111 191/160/111
f 193/160/112 191/158/112 190/157/112
f 190/157/112 192/159/112 193/160/112
f 171/160/113 193/158/113 192/161/113
f 192/161/113 170/162/113 171/160/113

