# ProBuilder 5.0.6
# https://unity3d.com/unity/features/worldbuilding/probuilder
# 2024-06-24 오후 6:56:33

mtllib ./JapaneseBuildingModel07Base.mtl
o JapaneseBuildingModel07Base

g JapaneseBuildingModel07Base
v 0.2046871 -0.05000019 0.07499981
v -0.2044926 -0.05000019 0.07499981
v 0.3047776 0.05 0.075
v -0.3047776 0.05 0.075
v -0.2044926 -0.05000019 -0.07499981
v -0.3047776 0.05 -0.075
v 0.2046871 -0.05000019 -0.07499981
v 0.3047776 0.05 -0.075
v -3.445222 0.55 0.8882999
v -3.695222 0.55 0.8882999
v -3.445222 2.55 0.8882999
v -3.695222 2.55 0.8882999
v -3.695222 0.55 -1.6117
v -3.695222 2.55 -1.6117
v -3.445222 0.55 -1.6117
v -3.445222 2.55 -1.6117
v 18.70478 0.55 0.8882999
v 18.45478 0.55 0.8882999
v 18.70478 2.55 0.8882999
v 18.45478 2.55 0.8882999
v 18.45478 0.55 -1.6117
v 18.45478 2.55 -1.6117
v 18.70478 0.55 -1.6117
v 18.70478 2.55 -1.6117
v 12.80478 0.55 0.8882999
v 12.80478 2.55 0.8882999
v 12.80478 0.55 0.6382999
v 18.45478 0.55 0.6382999
v 12.80478 2.55 0.6382999
v 18.45478 2.55 0.6382999
v 12.80478 0.04999995 2.6383
v 10.30478 0.04999995 2.6383
v 12.80478 0.55 2.6383
v 10.30478 0.55 2.6383
v 12.80478 0.04999995 0.8882999
v 10.30478 0.55 0.8882999
v 10.30478 0.04999995 0.8882999
v 4.704777 -3.95 2.638382
v 4.704777 -3.95 0.8882999
v 10.30478 2.55 0.8882999
v -3.445222 0.55 0.6382999
v 10.30478 0.55 0.6382999
v -3.445222 2.55 0.6382999
v 10.30478 2.55 0.6382999
v 12.55478 0.55 2.6383
v 12.80478 2.55 2.6383
v 12.55478 2.55 2.6383
v 12.55478 0.55 0.6382999
v 12.55478 2.55 0.6382999
v 10.30478 2.55 2.6383
v 4.704777 -3.95 2.3883
v 4.708206 -1.679038 2.6383
v 4.708206 -1.679038 2.3883
v 10.30478 0.55 2.3883
v 12.55478 0.55 2.3883
v 10.30478 2.55 2.3883
v 12.55478 2.55 2.3883
v 4.704777 -3.575 2.3883
v 4.704777 -3.575 0.8882995
v 5.171444 -3.575 2.3883
v 5.171444 -3.575 0.8882995
v 5.171444 -3.2 2.3883
v 5.171444 -3.2 0.8882995
v 5.638111 -3.2 2.3883
v 5.638111 -3.2 0.8882995
v 5.638111 -2.825 2.3883
v 5.638111 -2.825 0.8882995
v 6.104777 -2.825 2.3883
v 6.104777 -2.825 0.8882995
v 6.104777 -2.45 2.3883
v 6.104777 -2.45 0.8882995
v 6.571444 -2.45 2.3883
v 6.571444 -2.45 0.8882995
v 6.571444 -2.075 2.3883
v 6.571444 -2.075 0.8882995
v 7.038111 -2.075 2.3883
v 7.038111 -2.075 0.8882995
v 7.038111 -1.7 2.3883
v 7.038111 -1.7 0.8882995
v 7.504777 -1.7 2.388299
v 7.504777 -1.7 0.8882995
v 7.504777 -1.325 2.388299
v 7.504777 -1.325 0.8882995
v 7.971444 -1.325 2.388299
v 7.971444 -1.325 0.8882995
v 7.971444 -0.95 2.388299
v 7.971444 -0.95 0.8882995
v 8.438111 -0.95 2.388299
v 8.438111 -0.95 0.888299
v 8.438111 -0.575 2.388299
v 8.438111 -0.575 0.888299
v 8.904778 -0.575 2.388299
v 8.904778 -0.575 0.888299
v 8.904778 -0.2 2.388299
v 8.904778 -0.2 0.888299
v 9.371445 -0.2 2.388299
v 9.371445 -0.2 0.888299
v 9.371445 0.175 2.388299
v 9.371445 0.175 0.888299
v 9.838112 0.175 2.388299
v 9.838111 0.175 0.888299
v 9.838112 0.55 2.388299
v 9.838111 0.55 0.888299
v 18.70478 -3.95 -1.6117
v -3.695222 -3.95 -1.6117
v 18.70478 4.55 -1.6117
v -3.695222 4.55 -1.6117
v -3.695222 -3.95 -13.6117
v -3.695222 4.55 -13.6117
v 18.70478 -3.95 -13.6117
v 18.70478 4.55 -13.6117
v 18.70478 0.04999995 0.8882999
v -3.695222 0.04999995 0.8882999
v -3.695222 0.04999995 -1.6117
v 18.70478 0.04999995 -1.6117
v 18.70478 -4.45 2.8883
v -3.695222 -4.45 2.8883
v 18.70478 -3.95 2.8883
v -3.695222 -3.95 2.8883
v -3.695222 -4.45 -13.6117
v 18.70478 -4.45 -13.6117
v 19.00478 4.55 -13.9117
v -3.995222 4.55 -13.9117
v 19.00478 4.55 1.1883
v -3.995222 4.55 1.1883
v -3.995222 5.05 1.1883
v 19.00478 5.05 1.1883
v -3.995222 5.05 -13.9117
v -3.995222 5.970337 -6.3617
v 19.00478 5.05 -13.9117
v 19.00478 5.970337 -6.3617
v -1.445223 -1.9 -1.4117
v -1.745223 -1.9 -1.4117
v -1.445223 -1.4 -1.4117
v -1.745223 -1.4 -1.4117
v -1.795222 -1.95 -1.4617
v -1.795222 -1.95 -1.6117
v -1.795222 -1.35 -1.4617
v -1.795222 -1.35 -1.6117
v -1.395223 -1.95 -1.6117
v -1.395223 -1.95 -1.4617
v -1.395223 -1.35 -1.6117
v -1.395223 -1.35 -1.4617
v -1.520223 -1.53057 -1.403001
v -1.670222 -1.53057 -1.403001
v -1.520223 -1.48057 -1.403001
v -1.670222 -1.48057 -1.403001
v -1.670222 -1.53057 -1.423001
v -1.670222 -1.48057 -1.423001
v -1.520223 -1.53057 -1.423001
v -1.520223 -1.48057 -1.423001
v -3.695222 -2.917 -12.215
v -3.995221 -2.917 -12.215
v -3.695222 -0.937 -12.215
v -3.995221 -0.937 -12.215
v -3.995221 -2.917 -13.015
v -3.995221 -0.937 -13.015
v -3.695222 -2.917 -13.015
v -3.695222 -0.937 -13.015
v -3.715221 -0.9060321 -12.235
v -4.035632 -0.9060321 -12.235
v -3.715221 -0.9060321 -12.995
v -4.035632 -0.9060321 -12.995
v -3.995221 -2.897 -12.235
v -4.015222 -2.897 -12.235
v -3.995221 -0.937 -12.235
v -4.015222 -0.937 -12.235
v -4.015222 -2.897 -12.995
v -4.015222 -0.937 -12.995
v -3.995221 -2.897 -12.995
v -3.995221 -0.937 -12.995
v -4.012746 -1.97157 -12.896
v -4.022746 -1.97157 -12.896
v -4.012746 -1.87157 -12.896
v -4.022746 -1.87157 -12.896
v -4.022746 -1.97157 -12.946
v -4.022746 -1.87157 -12.946
v -4.012746 -1.97157 -12.946
v -4.012746 -1.87157 -12.946
v 4.154778 -1.9 -1.4117
v 3.854778 -1.9 -1.4117
v 4.154778 -1.4 -1.4117
v 3.854778 -1.4 -1.4117
v 3.804778 -1.95 -1.4617
v 3.804778 -1.95 -1.6117
v 3.804778 -1.35 -1.4617
v 3.804778 -1.35 -1.6117
v 4.204778 -1.95 -1.6117
v 4.204778 -1.95 -1.4617
v 4.204778 -1.35 -1.6117
v 4.204778 -1.35 -1.4617
v 4.079778 -1.53057 -1.403001
v 3.929778 -1.53057 -1.403001
v 4.079778 -1.48057 -1.403001
v 3.929778 -1.48057 -1.403001
v 3.929778 -1.53057 -1.423001
v 3.929778 -1.48057 -1.423001
v 4.079778 -1.53057 -1.423001
v 4.079778 -1.48057 -1.423001
v 9.754779 -1.9 -1.4117
v 9.45478 -1.9 -1.4117
v 9.754779 -1.4 -1.4117
v 9.45478 -1.4 -1.4117
v 9.404779 -1.95 -1.4617
v 9.404779 -1.95 -1.6117
v 9.404779 -1.35 -1.4617
v 9.404779 -1.35 -1.6117
v 9.804779 -1.95 -1.6117
v 9.804779 -1.95 -1.4617
v 9.804779 -1.35 -1.6117
v 9.804779 -1.35 -1.4617
v 9.679779 -1.53057 -1.403001
v 9.529779 -1.53057 -1.403001
v 9.679779 -1.48057 -1.403001
v 9.529779 -1.48057 -1.403001
v 9.529779 -1.53057 -1.423001
v 9.529779 -1.48057 -1.423001
v 9.679779 -1.53057 -1.423001
v 9.679779 -1.48057 -1.423001
v 15.35478 -1.9 -1.4117
v 15.05478 -1.9 -1.4117
v 15.35478 -1.4 -1.4117
v 15.05478 -1.4 -1.4117
v 15.00478 -1.95 -1.4617
v 15.00478 -1.95 -1.6117
v 15.00478 -1.35 -1.4617
v 15.00478 -1.35 -1.6117
v 15.40478 -1.95 -1.6117
v 15.40478 -1.95 -1.4617
v 15.40478 -1.35 -1.6117
v 15.40478 -1.35 -1.4617
v 15.27978 -1.53057 -1.403001
v 15.12978 -1.53057 -1.403001
v 15.27978 -1.48057 -1.403001
v 15.12978 -1.48057 -1.403001
v 15.12978 -1.53057 -1.423001
v 15.12978 -1.48057 -1.423001
v 15.27978 -1.53057 -1.423001
v 15.27978 -1.48057 -1.423001
v -1.44522 2.6 -1.4117
v -1.745219 2.6 -1.4117
v -1.44522 3.1 -1.4117
v -1.745219 3.1 -1.4117
v -1.795219 2.55 -1.4617
v -1.795219 2.55 -1.6117
v -1.795219 3.150001 -1.4617
v -1.795219 3.150001 -1.6117
v -1.39522 2.55 -1.6117
v -1.39522 2.55 -1.4617
v -1.39522 3.150001 -1.6117
v -1.39522 3.150001 -1.4617
v -1.52022 2.96943 -1.403001
v -1.670219 2.96943 -1.403001
v -1.52022 3.01943 -1.403001
v -1.670219 3.01943 -1.403001
v -1.670219 2.96943 -1.423001
v -1.670219 3.01943 -1.423001
v -1.52022 2.96943 -1.423001
v -1.52022 3.01943 -1.423001
v 4.15478 2.6 -1.4117
v 3.85478 2.6 -1.4117
v 4.15478 3.1 -1.4117
v 3.85478 3.1 -1.4117
v 3.80478 2.55 -1.4617
v 3.80478 2.55 -1.6117
v 3.80478 3.150001 -1.4617
v 3.80478 3.150001 -1.6117
v 4.204781 2.55 -1.6117
v 4.204781 2.55 -1.4617
v 4.204781 3.150001 -1.6117
v 4.204781 3.150001 -1.4617
v 4.079781 2.96943 -1.403001
v 3.92978 2.96943 -1.403001
v 4.079781 3.01943 -1.403001
v 3.92978 3.01943 -1.403001
v 3.92978 2.96943 -1.423001
v 3.92978 3.01943 -1.423001
v 4.079781 2.96943 -1.423001
v 4.079781 3.01943 -1.423001
v 9.75478 2.6 -1.4117
v 9.454781 2.6 -1.4117
v 9.75478 3.1 -1.4117
v 9.454781 3.1 -1.4117
v 9.40478 2.55 -1.4617
v 9.40478 2.55 -1.6117
v 9.40478 3.150001 -1.4617
v 9.40478 3.150001 -1.6117
v 9.80478 2.55 -1.6117
v 9.80478 2.55 -1.4617
v 9.80478 3.150001 -1.6117
v 9.80478 3.150001 -1.4617
v 9.67978 2.96943 -1.403001
v 9.52978 2.96943 -1.403001
v 9.67978 3.01943 -1.403001
v 9.52978 3.01943 -1.403001
v 9.52978 2.96943 -1.423001
v 9.52978 3.01943 -1.423001
v 9.67978 2.96943 -1.423001
v 9.67978 3.01943 -1.423001
v 15.35478 2.6 -1.4117
v 15.05478 2.6 -1.4117
v 15.35478 3.1 -1.4117
v 15.05478 3.1 -1.4117
v 15.00478 2.55 -1.4617
v 15.00478 2.55 -1.6117
v 15.00478 3.150001 -1.4617
v 15.00478 3.150001 -1.6117
v 15.40478 2.55 -1.6117
v 15.40478 2.55 -1.4617
v 15.40478 3.150001 -1.6117
v 15.40478 3.150001 -1.4617
v 15.27978 2.96943 -1.403001
v 15.12978 2.96943 -1.403001
v 15.27978 3.01943 -1.403001
v 15.12978 3.01943 -1.403001
v 15.12978 2.96943 -1.423001
v 15.12978 3.01943 -1.423001
v 15.27978 2.96943 -1.423001
v 15.27978 3.01943 -1.423001
v -3.695222 -2.02 -10.835
v -3.975223 -2.02 -10.835
v -3.695222 -1.22 -10.835
v -3.975223 -1.22 -10.835
v -3.975223 -2.02 -11.635
v -3.975223 -1.22 -11.635
v -3.695222 -2.02 -11.635
v -3.695222 -1.22 -11.635
v -3.975223 -2.02 -11.615
v -3.995223 -2.02 -11.615
v -3.975223 -1.22 -11.615
v -3.995223 -1.22 -11.615
v -3.995223 -2.02 -11.635
v -3.995223 -1.22 -11.635
v -3.995223 -2.02 -10.835
v -3.995223 -1.22 -10.835
v -3.995223 -2.02 -10.855
v -3.995223 -1.22 -10.855
v -3.975223 -2.02 -10.855
v -3.975223 -1.22 -10.855
v -3.995223 -2 -10.855
v -3.995223 -2 -11.615
v -3.975223 -2 -10.855
v -3.975223 -2 -11.615
v -3.995223 -1.24 -10.855
v -3.995223 -1.24 -11.615
v -3.975223 -1.24 -11.615
v -3.975223 -1.24 -10.855
v -3.980069 -1.995 -10.86
v -4.00007 -1.995 -10.86
v -3.980069 -1.245 -10.86
v -4.00007 -1.245 -10.86
v -4.00007 -1.995 -11.61
v -4.00007 -1.245 -11.61
v -3.980069 -1.995 -11.61
v -3.980069 -1.245 -11.61
v -3.997869 -1.67 -11.5
v -4.00787 -1.67 -11.5
v -3.997869 -1.57 -11.5
v -4.00787 -1.57 -11.5
v -4.00787 -1.67 -11.55
v -4.00787 -1.57 -11.55
v -3.997869 -1.67 -11.55
v -3.997869 -1.57 -11.55
v -3.914069 -4.282404 -1.994001
v -3.914069 4.217596 -1.994001
v -3.904021 -4.282404 -1.956501
v -3.904021 4.217596 -1.956501
v -3.876569 -4.282404 -1.929049
v -3.876569 4.217596 -1.929049
v -3.839069 -4.282404 -1.919001
v -3.839069 4.217596 -1.919001
v -3.80157 -4.282404 -1.929049
v -3.80157 4.217596 -1.929049
v -3.774117 -4.282404 -1.956501
v -3.774117 4.217596 -1.956501
v -3.76407 -4.282404 -1.994001
v -3.76407 4.217596 -1.994001
v -3.774117 -4.282404 -2.031501
v -3.774117 4.217596 -2.031501
v -3.80157 -4.282404 -2.058953
v -3.80157 4.217596 -2.058953
v -3.839069 -4.282404 -2.069001
v -3.839069 4.217596 -2.069001
v -3.876569 -4.282404 -2.058953
v -3.876569 4.217596 -2.058953
v -3.904021 -4.282404 -2.031501
v -3.904021 4.217596 -2.031501
v -3.839069 -4.282404 -1.994001
v -3.774117 4.264251 -1.938715
v -3.801569 4.249835 -1.915353
v -3.839069 4.244559 -1.906801
v -3.87657 4.249835 -1.915353
v -3.904021 4.264251 -1.938715
v -3.914069 4.283942 -1.970629
v -3.904021 4.303634 -2.002543
v -3.87657 4.318049 -2.025905
v -3.839069 4.323325 -2.034457
v -3.801569 4.318049 -2.025905
v -3.774117 4.303634 -2.002543
v -3.76407 4.283942 -1.970629
v -3.774117 4.337647 -1.846569
v -3.801569 4.314662 -1.831559
v -3.839069 4.30625 -1.826065
v -3.87657 4.314662 -1.831559
v -3.904021 4.337647 -1.846569
v -3.914069 4.369046 -1.867072
v -3.904021 4.400445 -1.887575
v -3.87657 4.42343 -1.902585
v -3.839069 4.431843 -1.908079
v -3.801569 4.42343 -1.902585
v -3.774117 4.400445 -1.887575
v -3.76407 4.369046 -1.867072
v -3.774117 4.386603 0.8795075
v -3.801569 4.359431 0.8834171
v -3.839069 4.349486 0.8848495
v -3.87657 4.359431 0.8834171
v -3.904021 4.386603 0.8795075
v -3.914069 4.423721 0.874167
v -3.904021 4.460839 0.8688259
v -3.87657 4.488011 0.8649158
v -3.839069 4.497956 0.8634844
v -3.801569 4.488011 0.8649158
v -3.774117 4.460839 0.8688259
v -3.76407 4.423721 0.874167
v -3.774117 4.447681 0.9954505
v -3.801569 4.425611 1.011777
v -3.839069 4.417536 1.017754
v -3.87657 4.425611 1.011777
v -3.904021 4.447681 0.9954505
v -3.914069 4.477828 0.9731474
v -3.904021 4.507975 0.9508443
v -3.87657 4.530044 0.9345169
v -3.839069 4.53812 0.9285407
v -3.801569 4.530044 0.9345169
v -3.774117 4.507975 0.9508443
v -3.76407 4.477828 0.9731474
v -3.774117 4.833302 1.061009
v -3.801569 4.835487 1.088375
v -3.839069 4.83629 1.09839
v -3.87657 4.835487 1.088375
v -3.904021 4.833302 1.061009
v -3.914069 4.830314 1.023629
v -3.904021 4.827326 0.986248
v -3.87657 4.825138 0.9588833
v -3.839069 4.824337 0.9488678
v -3.801569 4.825138 0.9588833
v -3.774117 4.827326 0.986248
v -3.76407 4.830314 1.023629
v 18.79293 -4.282404 -1.994001
v 18.79293 4.217596 -1.994001
v 18.80298 -4.282404 -1.956501
v 18.80298 4.217596 -1.956501
v 18.83043 -4.282404 -1.929049
v 18.83043 4.217596 -1.929049
v 18.86793 -4.282404 -1.919001
v 18.86793 4.217596 -1.919001
v 18.90543 -4.282404 -1.929049
v 18.90543 4.217596 -1.929049
v 18.93288 -4.282404 -1.956501
v 18.93288 4.217596 -1.956501
v 18.94293 -4.282404 -1.994001
v 18.94293 4.217596 -1.994001
v 18.93288 -4.282404 -2.031501
v 18.93288 4.217596 -2.031501
v 18.90543 -4.282404 -2.058953
v 18.90543 4.217596 -2.058953
v 18.86793 -4.282404 -2.069001
v 18.86793 4.217596 -2.069001
v 18.83043 -4.282404 -2.058953
v 18.83043 4.217596 -2.058953
v 18.80298 -4.282404 -2.031501
v 18.80298 4.217596 -2.031501
v 18.86793 -4.282404 -1.994001
v 18.93288 4.264251 -1.938715
v 18.90543 4.249835 -1.915353
v 18.86793 4.244559 -1.906801
v 18.83043 4.249835 -1.915353
v 18.80298 4.264251 -1.938715
v 18.79293 4.283942 -1.970629
v 18.80298 4.303634 -2.002543
v 18.83043 4.318049 -2.025905
v 18.86793 4.323325 -2.034457
v 18.90543 4.318049 -2.025905
v 18.93288 4.303634 -2.002543
v 18.94293 4.283942 -1.970629
v 18.93288 4.337647 -1.846569
v 18.90543 4.314662 -1.831559
v 18.86793 4.30625 -1.826065
v 18.83043 4.314662 -1.831559
v 18.80298 4.337647 -1.846569
v 18.79293 4.369046 -1.867072
v 18.80298 4.400445 -1.887575
v 18.83043 4.42343 -1.902585
v 18.86793 4.431843 -1.908079
v 18.90543 4.42343 -1.902585
v 18.93288 4.400445 -1.887575
v 18.94293 4.369046 -1.867072
v 18.93288 4.386603 0.8795075
v 18.90543 4.359431 0.8834171
v 18.86793 4.349486 0.8848495
v 18.83043 4.359431 0.8834171
v 18.80298 4.386603 0.8795075
v 18.79293 4.423721 0.874167
v 18.80298 4.460839 0.8688259
v 18.83043 4.488011 0.8649158
v 18.86793 4.497956 0.8634844
v 18.90543 4.488011 0.8649158
v 18.93288 4.460839 0.8688259
v 18.94293 4.423721 0.874167
v 18.93288 4.447681 0.9954505
v 18.90543 4.425611 1.011777
v 18.86793 4.417536 1.017754
v 18.83043 4.425611 1.011777
v 18.80298 4.447681 0.9954505
v 18.79293 4.477828 0.9731474
v 18.80298 4.507975 0.9508443
v 18.83043 4.530044 0.9345169
v 18.86793 4.53812 0.9285407
v 18.90543 4.530044 0.9345169
v 18.93288 4.507975 0.9508443
v 18.94293 4.477828 0.9731474
v 18.93288 4.833302 1.061009
v 18.90543 4.835487 1.088375
v 18.86793 4.83629 1.09839
v 18.83043 4.835487 1.088375
v 18.80298 4.833302 1.061009
v 18.79293 4.830314 1.023629
v 18.80298 4.827326 0.986248
v 18.83043 4.825138 0.9588833
v 18.86793 4.824337 0.9488678
v 18.90543 4.825138 0.9588833
v 18.93288 4.827326 0.986248
v 18.94293 4.830314 1.023629
v 0.2046872 4.45 0.07499984
v -0.2044935 4.45 0.07499984
v 0.3047772 4.55 0.07499984
v -0.304778 4.55 0.07499984
v -0.2044935 4.45 -0.07499978
v -0.304778 4.55 -0.07499978
v 0.2046872 4.45 -0.07499978
v 0.3047772 4.55 -0.07499978
v 5.804688 4.45 0.07499984
v 5.395509 4.45 0.07499984
v 5.904779 4.55 0.07499984
v 5.295224 4.55 0.07499984
v 5.395509 4.45 -0.07499978
v 5.295224 4.55 -0.07499978
v 5.804688 4.45 -0.07499978
v 5.904779 4.55 -0.07499978
v 11.40469 4.45 0.07499984
v 10.99551 4.45 0.07499984
v 11.50478 4.55 0.07499984
v 10.89523 4.55 0.07499984
v 10.99551 4.45 -0.07499978
v 10.89523 4.55 -0.07499978
v 11.40469 4.45 -0.07499978
v 11.50478 4.55 -0.07499978
v 17.00469 4.45 0.07499984
v 16.59551 4.45 0.07499984
v 17.10478 4.55 0.07499984
v 16.49523 4.55 0.07499984
v 16.59551 4.45 -0.07499978
v 16.49523 4.55 -0.07499978
v 17.00469 4.45 -0.07499978
v 17.10478 4.55 -0.07499978
v 17.00468 -0.05000019 0.07499984
v 16.5955 -0.05000019 0.07499984
v 17.10477 0.04999995 0.07499984
v 16.49522 0.04999995 0.07499984
v 16.5955 -0.05000019 -0.07499978
v 16.49522 0.04999995 -0.07499978
v 17.00468 -0.05000019 -0.07499978
v 17.10477 0.04999995 -0.07499978
v 11.40469 -0.05000019 0.07499984
v 10.99551 -0.05000019 0.07499984
v 11.50478 0.04999995 0.07499984
v 10.89523 0.04999995 0.07499984
v 10.99551 -0.05000019 -0.07499978
v 10.89523 0.04999995 -0.07499978
v 11.40469 -0.05000019 -0.07499978
v 11.50478 0.04999995 -0.07499978
v 5.804688 -0.05000019 0.07499984
v 5.395509 -0.05000019 0.07499984
v 5.904779 0.04999995 0.07499984
v 5.295224 0.04999995 0.07499984
v 5.395509 -0.05000019 -0.07499978
v 5.295224 0.04999995 -0.07499978
v 5.804688 -0.05000019 -0.07499978
v 5.904779 0.04999995 -0.07499978

vt 0.2046871 -0.05000005
vt -0.2044926 -0.05000005
vt 0.3047776 0.05000015
vt -0.3047776 0.05000015
vt -0.1094984 0.07499981
vt -0.1094984 -0.07499981
vt -0.2511216 0.075
vt -0.2511216 -0.075
vt 0.2044926 -0.05000005
vt -0.2046871 -0.05000005
vt 0.1094615 -0.07499981
vt 0.1094615 0.07499981
vt 0.250947 -0.075
vt 0.250947 0.075
vt 0.2046871 -0.07499981
vt -0.2044926 -0.07499981
vt 0.2046871 0.07499981
vt -0.2044926 0.07499981
vt 0.125 -1
vt -0.125 -1
vt 0.125 0.9999999
vt -0.125 0.9999999
vt 1.25 -1
vt -1.25 -1
vt 1.25 0.9999999
vt -1.25 0.9999999
vt -0.125 1.25
vt 0.125 1.25
vt -0.125 -1.25
vt 0.125 -1.25
vt 2.824999 -1
vt -2.825001 -1
vt 2.824999 0.9999999
vt -2.825001 0.9999999
vt 2.825001 -1
vt -2.824999 -1
vt 2.825001 0.9999999
vt -2.824999 0.9999999
vt -2.824999 0.125
vt 2.825001 0.125
vt -2.824999 -0.125
vt 2.825001 -0.125
vt 1.25 -0.25
vt -1.25 -0.25
vt 1.25 0.25
vt -1.25 0.25
vt 0.875 -0.25
vt -0.875 -0.25
vt 0.875 0.25
vt -0.875 0.25
vt -1.25 0.875
vt 1.25 0.875
vt -1.25 -0.875
vt 1.25 -0.875
vt -1.162477 0.875
vt -1.162477 -0.875
vt -8.044337 0.875082
vt -8.044337 -0.875
vt -6.85 -4.25
vt 6.85 -4.25
vt 6.875 -1
vt -6.875 -1
vt 6.875 0.9999999
vt -6.875 0.9999999
vt -6.875 0.125
vt 6.875 0.125
vt -6.875 -0.125
vt 6.875 -0.125
vt 1 -1
vt -1 -1
vt 1 0.9999999
vt -1 0.9999999
vt -0.125 1
vt 0.125 1
vt 1.125 -1
vt -1.125 -1
vt 1.125 0.9999999
vt -1.125 0.9999999
vt 0.125 -5.510146
vt -0.125 -5.510146
vt 0.125 -3.239182
vt -0.125 -3.239182
vt -1.125 0.125
vt 1.125 0.125
vt -1.125 -0.125
vt 1.125 -0.125
vt -1.125 1
vt -6.721572 -3.229038
vt -6.725 -5.5
vt 1.125 1
vt 6.725 -5.5
vt 6.721572 -3.229038
vt 0.2946815 -0.125
vt 0.2946815 0.125
vt 7.309407 -0.125
vt 7.309407 0.125
vt 0.75 -2.25
vt -0.75 -2.25
vt 0.75 -1.875
vt -0.75 -1.875
vt 0.75 -2.799999
vt -0.75 -2.799999
vt 0.75 -2.333333
vt -0.75 -2.333333
vt 0.75 -1.5
vt -0.75 -1.5
vt 0.75 -1.866667
vt -0.75 -1.866667
vt 0.75 -1.125
vt -0.75 -1.125
vt 0.75 -1.4
vt -0.75 -1.4
vt 0.75 -0.75
vt -0.75 -0.75
vt 0.75 -1.4
vt -0.75 -1.4
vt 0.75 -0.9333336
vt -0.75 -0.9333336
vt 0.75 -0.375
vt -0.75 -0.375
vt 0.75 -0.4666665
vt -0.75 -0.4666665
vt 0.75 0
vt -0.75 0
vt 0.7499995 -2.384186E-07
vt 0.75 0.375
vt -0.75 0.375
vt 0.75 0.4666668
vt -0.7500005 0.4666668
vt 0.75 0.3749999
vt -0.75 0.3749999
vt 0.75 0.7500001
vt -0.75 0.7500001
vt -0.749999 0.4666664
vt 0.75 0.9333336
vt -0.75 0.9333336
vt 0.75 1.125
vt -0.75 1.125
vt 0.75 1.4
vt -0.75 1.399999
vt 0.75 1.5
vt -0.7500001 1.5
vt -0.75 1.4
vt 0.75 1.866666
vt -0.75 1.866667
vt 0.75 1.5
vt -0.75 1.5
vt 0.75 1.875
vt -0.75 1.875
vt 0.75 2.333333
vt -0.75 2.333333
vt -0.7499999 1.875
vt 0.75 2.25
vt -0.7499999 2.25
vt 0.75 2.8
vt -0.75 2.800001
vt 2.333333 -1.875
vt 2.333333 -1.5
vt 1.866667 -1.5
vt 1.866666 -1.125
vt 1.4 -1.125
vt 1.4 -1.125
vt 1.4 -0.75
vt 0.9333334 -0.75
vt 0.9333329 -0.375
vt 0.4666662 -0.375
vt 0.4666672 0
vt 4.768372E-07 0
vt 0 0.375
vt -0.4666662 0.375
vt -0.4666662 0.75
vt -0.9333334 0.75
vt -0.9333339 1.125
vt -1.4 1.125
vt -1.4 1.125
vt -1.4 1.5
vt -1.866667 1.5
vt -1.866666 1.875
vt -2.333333 1.875
vt -2.333333 2.25
vt -2.8 2.25
vt 2.799999 -2.25
vt 2.799999 -1.875
vt 11.2 -4.25
vt -11.2 -4.25
vt 11.2 4.25
vt -11.2 4.25
vt 6 -4.25
vt -6 -4.25
vt 6 4.25
vt -6 4.25
vt 11.2 -4.25
vt -11.2 -4.25
vt 11.2 4.25
vt -11.2 4.25
vt 11.2 -0.25
vt -11.2 -0.25
vt 11.2 0.25
vt -11.2 0.25
vt -11.2 1.25
vt 11.2 1.25
vt -11.2 -1.25
vt 11.2 -1.25
vt 11.2 -1.25
vt -11.2 -1.25
vt 11.2 1.25
vt -11.2 1.25
vt 8.25 -0.25
vt -8.25 -0.25
vt 8.25 0.25
vt -8.25 0.25
vt 11.2 -0.25
vt -11.2 -0.25
vt 11.2 0.25
vt -11.2 0.25
vt -11.2 8.25
vt 11.2 8.25
vt -11.2 -8.25
vt 11.2 -8.25
vt 11.5 -7.55
vt -11.5 -7.55
vt 11.5 7.55
vt -11.5 7.55
vt 11.5 -0.25
vt -11.5 -0.25
vt -11.5 0.25
vt 11.5 0.25
vt 7.55 -0.25
vt -7.55 -0.25
vt -7.55 0.25
vt 0 1.170337
vt 7.55 0.25
vt -11.5 0
vt 11.5 0
vt 0.15 -0.25
vt -0.15 -0.25
vt 0.15 0.25
vt -0.15 0.25
vt 0.05 -0.3
vt -0.1 -0.3
vt 0.05 0.3
vt -0.1 0.3
vt 0.1 -0.3
vt -0.05 -0.3
vt 0.1 0.3
vt -0.05 0.3
vt -0.2 0.05
vt 0.2 0.05
vt -0.2 -0.1
vt 0.2 -0.1
vt 0.1499997 -0.106066
vt -0.1500007 -0.106066
vt 0.2 -0.1767766
vt -0.2 -0.1767766
vt 0.03535534 0.2500001
vt 0.03535525 -0.2500001
vt 0.1060661 0.3000001
vt 0.106066 -0.3000001
vt -0.03535509 -0.2500001
vt -0.03535509 0.2500001
vt -0.106066 -0.3000001
vt -0.106066 0.3000001
vt -0.1500007 0.1060661
vt 0.1499997 0.106066
vt -0.2 0.1767768
vt 0.2 0.1767768
vt 0.07500005 -0.02499998
vt -0.07500005 -0.02499998
vt 0.07500005 0.02499998
vt -0.07500005 0.02499998
vt 0.00999999 -0.02499998
vt -0.00999999 -0.02499998
vt 0.00999999 0.02499998
vt -0.00999999 0.02499998
vt -0.07500005 0.00999999
vt 0.07500005 0.00999999
vt -0.07500005 -0.00999999
vt 0.07500005 -0.00999999
vt 0.15 -1
vt -0.15 -1
vt 0.15 0.98
vt -0.15 0.98
vt 0.4 -1
vt -0.4 -1
vt 0.4 0.98
vt -0.4 0.98
vt -0.13 0.38
vt 0.13 0.38
vt -0.13 -0.38
vt 0.13 -0.38
vt 0.1500001 -0.3999996
vt -0.1500001 -0.3999996
vt 0.1500001 0.3999996
vt -0.1500001 0.3999996
vt -0.1499996 0.6062331
vt 0.1500001 0.6062331
vt -0.1904106 0.6430984
vt 0.1300006 0.6430984
vt -0.3999996 0.7418634
vt 0.3999996 0.7418634
vt -0.3800001 0.7787281
vt 0.3800001 0.7787281
vt -0.7151591 -0.3999996
vt -0.7151591 0.3999996
vt -0.7660714 -0.3800001
vt -0.7660714 0.3800001
vt -0.1500001 0.6062326
vt 0.1499996 0.6062326
vt -0.1300006 0.6430979
vt 0.1904106 0.6430979
vt 0.00999999 -0.98
vt -0.01000023 -0.98
vt 0.00999999 0.98
vt -0.01000023 0.98
vt 0.3800001 -0.98
vt -0.3800001 -0.98
vt 0.3800001 0.98
vt -0.3800001 0.98
vt 0.01000023 -0.98
vt -0.00999999 -0.98
vt 0.01000023 0.98
vt -0.00999999 0.98
vt -0.00999999 0.3800001
vt 0.01000023 0.3800001
vt -0.00999999 -0.3800001
vt 0.01000023 -0.3800001
vt 0.00999999 -0.3800001
vt -0.01000023 -0.3800001
vt 0.00999999 0.3800001
vt -0.01000023 0.3800001
vt 0.005000114 -0.05000007
vt -0.005000114 -0.05000007
vt 0.005000114 0.04999995
vt -0.005000114 0.04999995
vt 0.02499962 -0.05000007
vt -0.02499962 -0.05000007
vt 0.02499962 0.04999995
vt -0.02499962 0.04999995
vt -0.005000114 0.02499962
vt 0.005000114 0.02499962
vt -0.005000114 -0.02499962
vt 0.005000114 -0.02499962
vt 0.1500001 -0.106066
vt 0.1999998 -0.1767766
vt 0.1500001 0.1060661
vt 0.1999998 0.1767768
vt 0.07499981 -0.02499998
vt 0.07499981 0.02499998
vt -0.07499981 0.00999999
vt -0.07499981 -0.00999999
vt 0.07499981 -0.00999999
vt 0.07499981 0.00999999
vt -0.1499996 -0.106066
vt -0.1999998 -0.1767766
vt -0.1499996 0.1060661
vt -0.1999998 0.1767768
vt -0.07499981 -0.02499998
vt -0.07499981 0.02499998
vt 0.03535533 0.2499998
vt 0.03535524 -0.2499998
vt 0.1060661 0.3
vt 0.106066 -0.3
vt -0.03535509 -0.2499998
vt -0.03535509 0.2499998
vt -0.106066 -0.3
vt -0.106066 0.3
vt 0.07500005 -0.0250001
vt -0.07500005 -0.0250001
vt 0.07500005 0.0250001
vt -0.07500005 0.0250001
vt 0.00999999 -0.0250001
vt -0.00999999 -0.0250001
vt 0.00999999 0.0250001
vt -0.00999999 0.0250001
vt 0.07499981 -0.0250001
vt 0.07499981 0.0250001
vt -0.07499981 -0.0250001
vt -0.07499981 0.0250001
vt 0.1400001 -0.4
vt -0.1400001 -0.4
vt 0.1400001 0.4
vt -0.1400001 0.4
vt 0.3999996 -0.4
vt -0.3999996 -0.4
vt 0.3999996 0.4
vt -0.3999996 0.4
vt 0.00999999 -0.4
vt -0.00999999 -0.4
vt 0.00999999 0.4
vt -0.00999999 0.4
vt 0.01000023 -0.4
vt -0.01000023 -0.4
vt 0.01000023 0.4
vt -0.01000023 0.4
vt -0.00999999 0.01000023
vt 0.00999999 0.01000023
vt -0.00999999 -0.01000023
vt 0.00999999 -0.01000023
vt 0.3800001 -0.00999999
vt -0.3800001 -0.00999999
vt 0.3800001 0.00999999
vt -0.3800001 0.00999999
vt 0.00999999 -0.375
vt -0.00999999 -0.375
vt 0.00999999 0.375
vt -0.00999999 0.375
vt 0.375 -0.375
vt -0.375 -0.375
vt 0.375 0.375
vt -0.375 0.375
vt 0.005000114 -0.04999995
vt -0.005000114 -0.04999995
vt 0.02499962 -0.04999995
vt -0.02499962 -0.04999995
vt -0.01941133 -4.25
vt -0.01941133 4.25
vt 0.01941156 -4.25
vt 0.01941156 4.25
vt -0.07499981 0
vt -0.0649519 0.0374999
vt -0.03749943 0.0649519
vt 0 0.07500005
vt 0.0374999 0.0649519
vt 0.0649519 0.0374999
vt 0.07499981 0
vt 0.0649519 -0.0374999
vt 0.03749943 -0.0649519
vt 0 -0.07500017
vt -0.0374999 -0.06495202
vt -0.0649519 -0.0374999
vt 0.01941144 4.122379
vt -0.01941192 4.122379
vt 0.006835103 4.1707
vt -0.02909601 4.156028
vt 0.01941133 3.959316
vt -0.01941156 3.959316
vt 0.01586723 3.994164
vt -0.02256894 3.988734
vt 0.01941204 3.923339
vt -0.01941156 3.923339
vt 0.02256918 3.952765
vt -0.01586676 3.958178
vt 0.01941204 4.091138
vt -0.01941156 4.091138
vt 0.02909613 4.124801
vt -0.006834984 4.139439
vt 0.01941133 4.236577
vt -0.01941156 4.236577
vt 0.03659105 4.283458
vt 0.003164053 4.303195
vt 0.01941133 4.225865
vt -0.01941144 4.225865
vt 0.04198694 4.292486
vt 0.008560002 4.312228
vt 0.01941192 4.117747
vt -0.01941133 4.117747
vt 0.03988802 4.206188
vt 0.003957152 4.220881
vt 0.01941085 4.028474
vt -0.01941133 4.028474
vt 0.02796507 4.133878
vt -0.01047063 4.139343
vt 0.01941156 4.12306
vt -0.01941156 4.12306
vt -0.003956795 4.226196
vt -0.03988791 4.2115
vt 0.01941133 4.227678
vt -0.01941133 4.227678
vt -0.008560181 4.314042
vt -0.04198694 4.294299
vt 0.01941144 4.239023
vt -0.01941133 4.239023
vt -0.003164172 4.305645
vt -0.03659105 4.285903
vt 0.01941156 4.031155
vt -0.01941061 4.031155
vt 0.01047087 4.142024
vt -0.02796507 4.136558
vt -0.01023978 3.579612
vt -0.04487455 3.562073
vt -0.08707178 3.668915
vt -0.1147417 3.641705
vt 1.330139 2.479285
vt 1.292799 2.489911
vt 1.349735 2.5834
vt 1.311446 2.58979
vt -1.28472 2.473203
vt -1.322073 2.462621
vt -1.303251 2.573106
vt -1.341547 2.566757
vt 0.0453136 3.539211
vt 0.01073813 3.556868
vt 0.1154518 3.618612
vt 0.08786845 3.645905
vt 0.04308963 4.212679
vt 0.009911299 4.232839
vt 0.1338193 4.28782
vt 0.111876 4.319842
vt 0.03627717 4.204927
vt 0.003088832 4.22507
vt 0.1381993 4.291982
vt 0.1162413 4.323995
vt 0.0293842 3.575603
vt -0.005358875 3.592928
vt 0.1245372 3.691947
vt 0.09670758 3.719003
vt -1.348392 2.579006
vt -1.385623 2.568001
vt -1.381915 2.737718
vt -1.420144 2.73096
vt 0.005218267 3.60469
vt -0.02955246 3.587421
vt -0.09664893 3.730929
vt -0.1245196 3.703913
vt -0.003207684 4.227913
vt -0.03640366 4.207782
vt -0.116323 4.326882
vt -0.1382923 4.294876
vt -0.009728789 4.23601
vt -0.04291701 4.215866
vt -0.1116509 4.323065
vt -0.1336089 4.291052
vt 1.389131 2.574461
vt 1.351907 2.585486
vt 1.42374 2.737401
vt 1.385515 2.744179
vt 2.874257 0.1925292
vt 2.838454 0.20754
vt 2.905901 2.918861
vt 2.867391 2.922729
vt 0.997839 0.2304555
vt 0.9594066 0.2359504
vt 1.007739 2.945783
vt 0.9689677 2.947192
vt -0.9590881 0.233724
vt -0.9975207 0.2282292
vt -0.9686458 2.944967
vt -1.007417 2.943556
vt -2.836914 0.2038867
vt -2.872717 0.1888762
vt -2.865836 2.919078
vt -2.904344 2.915206
vt 0.147061 4.18644
vt 0.126501 4.219371
vt 2.873093 4.237786
vt 2.867696 4.276196
vt 0.1273991 4.174676
vt 0.1068329 4.207604
vt 2.868584 4.232015
vt 2.863179 4.270425
vt -2.82003 0.1635315
vt -2.855833 0.14852
vt -2.859125 2.920317
vt -2.897638 2.916456
vt -0.9528987 0.1904082
vt -0.9913309 0.1849127
vt -0.9672396 2.958625
vt -1.006012 2.957225
vt 2.85738 0.1521852
vt 2.821577 0.167197
vt 2.899208 2.920123
vt 2.860693 2.92398
vt -0.1068724 4.208134
vt -0.1274446 4.175209
vt -2.863208 4.271462
vt -2.868618 4.233052
vt -0.1264539 4.219858
vt -0.1470201 4.18693
vt -2.867638 4.277196
vt -2.873042 4.238786
vt 0.9916453 0.1871084
vt 0.9532132 0.1926039
vt 1.006331 2.959421
vt 0.9675589 2.96082
vt -2.546766 4.238785
vt -2.562443 4.203268
vt -2.650687 4.318621
vt -2.677494 4.290553
vt 1.239372 4.449706
vt 1.200582 4.451304
vt 1.257505 4.592978
vt 1.219227 4.599448
vt -1.200051 4.444508
vt -1.238841 4.44291
vt -1.218687 4.592652
vt -1.256966 4.586185
vt 2.572713 4.185307
vt 2.557218 4.220903
vt 2.68821 4.272005
vt 2.661542 4.300207
vt 2.840055 4.394598
vt 2.833441 4.432854
vt 2.954993 4.457548
vt 2.931563 4.4885
vt 2.851747 4.400594
vt 2.84509 4.438842
vt 2.949809 4.456347
vt 2.926347 4.487274
vt 2.553652 4.293478
vt 2.537233 4.328658
vt 2.625933 4.354505
vt 2.598571 4.382015
vt -1.215989 4.657993
vt -1.254776 4.656338
vt -1.22763 4.738464
vt -1.265901 4.731977
vt -2.511361 4.372303
vt -2.528208 4.337326
vt -2.572054 4.426408
vt -2.599729 4.399222
vt -2.842961 4.444028
vt -2.849677 4.405791
vt -2.924146 4.492586
vt -2.947651 4.461695
vt -2.831359 4.436451
vt -2.838016 4.398203
vt -2.929421 4.492205
vt -2.952883 4.461278
vt 1.256842 4.678125
vt 1.218055 4.679789
vt 1.267985 4.753764
vt 1.229716 4.760253
vt -1.71242 4.771735
vt -1.744216 4.749458
vt -1.751123 5.160968
vt -1.789436 5.163933
vt -0.5516689 4.917654
vt -0.5896137 4.909443
vt -0.5666645 5.334355
vt -0.6053998 5.335592
vt 0.593087 4.920475
vt 0.5551438 4.928694
vt 0.6089661 5.346627
vt 0.5702279 5.345387
vt 1.765642 4.769348
vt 1.733874 4.791664
vt 1.811403 5.183801
vt 1.773041 5.180818
vt 2.784685 4.536037
vt 2.760287 4.566235
vt 2.846243 4.922316
vt 2.807687 4.919133
vt 2.80247 4.553855
vt 2.778056 4.58404
vt 2.849699 4.906791
vt 2.811179 4.903615
vt 1.715999 4.739655
vt 1.684123 4.761816
vt 1.735985 5.06034
vt 1.697878 5.057516
vt 0.5477521 4.780595
vt 0.5097842 4.788698
vt 0.5520024 5.076663
vt 0.51333 5.075596
vt -1.646394 4.718105
vt -1.678298 4.695984
vt -1.659833 5.013899
vt -1.697824 5.01661
vt -2.765594 4.577639
vt -2.790026 4.547467
vt -2.798558 4.897251
vt -2.837028 4.900409
vt -2.749501 4.560943
vt -2.773915 4.530757
vt -2.79673 4.913879
vt -2.83525 4.917055
vt -0.5028377 4.760303
vt -0.540807 4.752207
vt -0.506335 5.04722
vt -0.5449994 5.048257
vt -0.07500076 0
vt -0.03750038 0.0649519
vt 0.03750038 0.0649519
vt 0.07500076 0
vt 0.03750038 -0.0649519
vt -0.03750038 -0.0649519
vt -0.03988838 4.2115
vt 1.716001 4.739655
vt -0.5450001 5.048257
vt -0.1094985 0.075
vt -0.1094985 -0.075
vt 0.1094613 -0.075
vt 0.1094613 0.075

vn 0 -1.937147E-06 1
vn -0.7061003 -0.7081118 0
vn 0 -1.937147E-06 -1
vn 0.7067876 -0.7074259 0
vn 0 -1 0
vn -1 0 0
vn 1 0 0
vn 0 1 0
vn 0.5812382 -0.8137335 0
vn -0.9999989 0.001509693 0
vn -0.6028801 0.7978319 0
vn 0 0.9926521 0.1210032
vn 0 0.9926521 -0.1210032
vn 0 -0.7071068 0.7071068
vn 0.7071051 0 0.7071085
vn -0.7071118 0 0.7071017
vn 0 0.7071068 0.7071068
vn 0 0.5425134 0.8400472
vn 0.8400472 0.5425133 0
vn -0.6082607 -0.7937374 0
vn 0 0.5425134 -0.8400472
vn -0.9659268 0 0.2588153
vn -0.2588241 0 0.9659245
vn 0.2588241 0 0.9659245
vn 0.9659268 0 0.2588153
vn 0.9659268 0 -0.2588153
vn 0.7071006 0 -0.7071129
vn 0.2588241 0 -0.9659245
vn -0.2588241 0 -0.9659245
vn -0.7071006 0 -0.7071129
vn -0.9659268 0 -0.2588153
vn 0.6827299 -0.260276 0.6827418
vn 0.6928918 -0.26918 0.6686264
vn 0.7030538 -0.2780839 0.6545111
vn 0.2394462 -0.3796479 0.8936068
vn 0.2481414 -0.3890217 0.8870635
vn 0.2568366 -0.3983955 0.8805203
vn -0.2371639 -0.4004627 0.8850892
vn -0.2466109 -0.3892249 0.8873929
vn -0.256058 -0.3779872 0.8896966
vn -0.6771991 -0.287727 0.6772109
vn -0.6889796 -0.2709249 0.6719059
vn -0.7007601 -0.2541228 0.666601
vn -0.9612592 -0.09818923 0.2575646
vn -0.9628298 -0.09302704 0.2534938
vn -0.9644004 -0.08786485 0.2494229
vn -0.961937 0.09079693 -0.2577462
vn -0.9630619 0.08770046 -0.254557
vn -0.9641869 0.084604 -0.2513677
vn -0.6878873 0.2315294 -0.6878992
vn -0.6925399 0.2277769 -0.6844402
vn -0.6971927 0.2240245 -0.6809812
vn -0.2466694 0.3028473 -0.9205638
vn -0.2493556 0.3016945 -0.9202139
vn -0.2520418 0.3005416 -0.919864
vn 0.6887121 0.2265719 -0.6887241
vn 0.6932415 0.227536 -0.6838114
vn 0.6977708 0.2285001 -0.6788988
vn 0.9622827 0.08678202 -0.2578389
vn 0.9633415 0.08732343 -0.2536309
vn 0.9644004 0.08786485 -0.2494229
vn 0.961937 -0.09079693 0.2577462
vn 0.9633435 -0.09227067 0.2518257
vn 0.9647501 -0.09374441 0.2459052
vn 0.2468243 0.300959 -0.9211414
vn 0.2494908 0.3016823 -0.9201813
vn 0.2521574 0.3024056 -0.9192212
vn 0.6852932 -0.5696468 0.4537354
vn 0.6956366 -0.5649046 0.4435531
vn 0.7059801 -0.5601623 0.4333709
vn 0.2432723 -0.7671698 0.5935227
vn 0.2507081 -0.7674146 0.5900449
vn 0.2581439 -0.7676594 0.5865669
vn -0.2427515 -0.7708235 0.5889846
vn -0.250392 -0.7674853 0.5900844
vn -0.2580324 -0.764147 0.5911841
vn -0.6834 -0.5774144 0.446718
vn -0.6944714 -0.5658652 0.444121
vn -0.7055427 -0.5543159 0.441524
vn -0.9617668 -0.2142195 0.1706302
vn -0.963652 -0.2076479 0.1679381
vn -0.9655373 -0.2010763 0.165246
vn -0.9621521 0.210539 -0.1730225
vn -0.9637992 0.2049398 -0.170441
vn -0.9654463 0.1993405 -0.1678596
vn -0.6886992 0.5546051 -0.4670189
vn -0.6964365 0.5471976 -0.4641421
vn -0.7041739 0.5397901 -0.4612654
vn -0.2471791 0.7366479 -0.6294858
vn -0.2519566 0.7349502 -0.6295556
vn -0.256734 0.7332526 -0.6296255
vn 0.6895515 0.5505925 -0.4704963
vn 0.6970242 0.5467318 -0.4638171
vn 0.7044969 0.5428711 -0.457138
vn 0.9624385 0.2076764 -0.174879
vn 0.9639879 0.2043763 -0.1700625
vn 0.9655373 0.2010763 -0.165246
vn 0.9621521 -0.210539 0.1730225
vn 0.9638956 -0.2069105 0.1674704
vn 0.9656392 -0.2032819 0.1619182
vn 0.2473568 0.7351056 -0.6312166
vn 0.2520829 0.7349236 -0.6295366
vn 0.2568089 0.7347416 -0.6278567
vn 0.6463156 -0.7629473 0.0137013
vn 0.6752946 -0.7363896 0.01270313
vn 0.7042738 -0.709832 0.01170495
vn 0.2211015 -0.9751182 0.01607946
vn 0.2389777 -0.9707228 0.01574577
vn 0.2568539 -0.9663273 0.01541208
vn -0.2210298 -0.9751431 0.01555268
vn -0.2389502 -0.9707288 0.01574348
vn -0.2568705 -0.9663145 0.01593429
vn -0.6459681 -0.7632607 0.01258598
vn -0.6751539 -0.7365047 0.01266596
vn -0.7043396 -0.7097487 0.01274594
vn -0.9534287 -0.30157 0.00541571
vn -0.9594312 -0.2810836 0.005306712
vn -0.9654337 -0.2605972 0.005197715
vn -0.9535365 0.3012178 -0.006007909
vn -0.9594929 0.2808728 -0.00585811
vn -0.9654495 0.2605279 -0.005708312
vn -0.6472443 0.7620997 -0.01669803
vn -0.6759092 0.7357685 -0.01662654
vn -0.704574 0.7094373 -0.01655505
vn -0.2220026 0.9747807 -0.02274697
vn -0.2395454 0.9704469 -0.02289642
vn -0.2570881 0.9661132 -0.02304587
vn 0.647577 0.7617926 -0.01777679
vn 0.676045 0.7356567 -0.01666139
vn 0.704513 0.7095209 -0.015546
vn 0.9536424 0.3008701 -0.006592232
vn 0.959538 0.2807336 -0.005894973
vn 0.9654337 0.2605971 -0.005197713
vn 0.9535365 -0.3012178 0.006007909
vn 0.9594769 -0.2809424 0.005344534
vn 0.9654174 -0.2606671 0.004681159
vn 0.2220704 0.9747533 -0.02325198
vn 0.2395718 0.9704411 -0.02289852
vn 0.2570732 0.9661289 -0.02254507
vn 0.6857272 -0.6439684 0.3392388
vn 0.6941177 -0.6382593 0.3326857
vn 0.7025083 -0.6325501 0.3261326
vn 0.2454674 -0.8616245 0.4442396
vn 0.2505086 -0.8610885 0.4424287
vn 0.2555498 -0.8605524 0.4406178
vn -0.2456916 -0.862824 0.4417809
vn -0.2506759 -0.8610519 0.4424058
vn -0.2556603 -0.8592797 0.4430307
vn -0.6868505 -0.6459919 0.3330629
vn -0.6949267 -0.637605 0.3322657
vn -0.703003 -0.6292182 0.3314685
vn -0.9618547 -0.2420312 0.1275007
vn -0.963585 -0.2355619 0.1263659
vn -0.9653154 -0.2290925 0.1252312
vn -0.9614487 0.241287 -0.1318973
vn -0.9634708 0.2335425 -0.1308308
vn -0.9654929 0.2257979 -0.1297644
vn -0.6806856 0.6351589 -0.3650211
vn -0.693123 0.6208872 -0.3656788
vn -0.7055603 0.6066154 -0.3663365
vn -0.2395594 0.83109 -0.5018972
vn -0.2487529 0.8265986 -0.5047219
vn -0.2579463 0.8221072 -0.5075465
vn 0.6774287 0.6296753 -0.3802624
vn 0.6910913 0.6223927 -0.3668808
vn 0.7047539 0.61511 -0.3534991
vn 0.960846 0.2402368 -0.1380623
vn 0.9630807 0.2346646 -0.1316468
vn 0.9653154 0.2290925 -0.1252312
vn 0.9614483 -0.2412885 0.1318981
vn 0.963308 -0.236383 0.1269195
vn 0.9651676 -0.2314774 0.121941
vn 0.2386106 0.8263243 -0.51015
vn 0.2481733 0.8267099 -0.5048175
vn 0.257736 0.8270955 -0.4994849
vn 0.5848767 -0.1359475 0.7996483
vn 0.6396886 -0.1340591 0.7534482
vn 0.6945005 -0.1321707 0.7072482
vn 0.1925639 -0.1802619 0.9645853
vn 0.2212813 -0.1816722 0.9576824
vn 0.2499988 -0.1830824 0.9507794
vn -0.1935058 -0.1855128 0.9634005
vn -0.2219285 -0.1816814 0.9575399
vn -0.2503513 -0.1778501 0.9516794
vn -0.5908231 -0.1482093 0.7930713
vn -0.6434313 -0.1342749 0.7504591
vn -0.6960394 -0.1203404 0.707847
vn -0.9373758 -0.05837983 0.3433924
vn -0.9508293 -0.04796544 0.3027963
vn -0.9642826 -0.03755106 0.2622002
vn -0.9343795 0.05050929 -0.352681
vn -0.9495549 0.03975739 -0.3071592
vn -0.9647303 0.0290055 -0.2616374
vn -0.5621583 0.09112741 -0.8219939
vn -0.6322938 0.0748493 -0.7656667
vn -0.7024293 0.05857119 -0.7093396
vn -0.1738581 0.08103815 -0.9814307
vn -0.2149597 0.07475892 -0.9728313
vn -0.2560613 0.06847969 -0.9642319
vn 0.5502084 0.06871557 -0.8321953
vn 0.62543 0.07366697 -0.7706771
vn 0.7006516 0.07861838 -0.709159
vn 0.9303241 0.04040959 -0.3645054
vn 0.9473034 0.03898033 -0.3133528
vn 0.9642826 0.03755106 -0.2622002
vn 0.9343795 -0.05050929 0.352681
vn 0.949118 -0.04758137 0.3076671
vn 0.9638565 -0.04465345 0.2626533
vn 0.1716355 0.06979024 -0.9826854
vn 0.2136318 0.07467376 -0.9730908
vn 0.2556281 0.07955728 -0.9634962
vn 0.6895389 0.5506015 -0.4705041
vn 0.7024959 -0.632561 0.3261382
vn -0.6868379 -0.6460025 0.3330684
vn -0.7029907 -0.629229 0.3314742
vn 0.7047416 0.6151206 -0.3535052
vn 0.694488 -0.1321729 0.70726
vn -0.5621449 0.09112841 -0.8220029

usemtl JPBM6Metal003_2KMat
f 3/3/1 4/4/1 2/2/1 1/1/1
f 4/7/2 6/8/2 5/6/2 2/5/2
f 6/3/3 8/4/3 7/10/3 5/9/3
f 8/13/4 3/14/4 1/12/4 7/11/4
f 174/333/1 175/334/1 173/332/1 172/331/1
f 175/337/6 177/338/6 176/336/6 173/335/6
f 177/333/3 179/334/3 178/332/3 176/331/3
f 179/341/8 177/342/8 175/340/8 174/339/8
f 172/340/5 173/339/5 176/341/5 178/342/5
f 358/333/1 359/334/1 357/412/1 356/411/1
f 359/337/6 361/338/6 360/414/6 357/413/6
f 361/333/3 363/334/3 362/412/3 360/411/3
f 363/341/8 361/342/8 359/340/8 358/339/8
f 356/340/5 357/339/5 360/341/5 362/342/5
f 536/3/1 537/4/1 535/2/1 534/1/1
f 537/7/2 539/8/2 538/681/2 535/680/2
f 539/3/3 541/4/3 540/10/3 538/9/3
f 541/13/4 536/14/4 534/683/4 540/682/4
f 544/3/1 545/4/1 543/2/1 542/1/1
f 545/7/2 547/8/2 546/681/2 543/680/2
f 547/3/3 549/4/3 548/10/3 546/9/3
f 549/13/4 544/14/4 542/683/4 548/682/4
f 552/3/1 553/4/1 551/2/1 550/1/1
f 553/7/2 555/8/2 554/681/2 551/680/2
f 555/3/3 557/4/3 556/10/3 554/9/3
f 557/13/4 552/14/4 550/683/4 556/682/4
f 560/3/1 561/4/1 559/2/1 558/1/1
f 561/7/2 563/8/2 562/681/2 559/680/2
f 563/3/3 565/4/3 564/10/3 562/9/3
f 565/13/4 560/14/4 558/683/4 564/682/4
f 568/3/1 569/4/1 567/2/1 566/1/1
f 569/7/2 571/8/2 570/681/2 567/680/2
f 571/3/3 573/4/3 572/10/3 570/9/3
f 573/13/4 568/14/4 566/683/4 572/682/4
f 576/3/1 577/4/1 575/2/1 574/1/1
f 577/7/2 579/8/2 578/681/2 575/680/2
f 579/3/3 581/4/3 580/10/3 578/9/3
f 581/13/4 576/14/4 574/683/4 580/682/4
f 584/3/1 585/4/1 583/2/1 582/1/1
f 585/7/2 587/8/2 586/681/2 583/680/2
f 587/3/3 589/4/3 588/10/3 586/9/3
f 589/13/4 584/14/4 582/683/4 588/682/4

usemtl JPBM7LampMatOff
f 1/17/5 2/18/5 5/16/5 7/15/5
f 534/17/5 535/18/5 538/16/5 540/15/5
f 542/17/5 543/18/5 546/16/5 548/15/5
f 550/17/5 551/18/5 554/16/5 556/15/5
f 558/17/5 559/18/5 562/16/5 564/15/5
f 566/17/5 567/18/5 570/16/5 572/15/5
f 574/17/5 575/18/5 578/16/5 580/15/5
f 582/17/5 583/18/5 586/16/5 588/15/5

usemtl JPBM7Plaster001_2KMatY
f 11/21/1 12/22/1 10/20/1 9/19/1
f 12/25/6 14/26/6 13/24/6 10/23/6
f 16/25/7 11/26/7 9/24/7 15/23/7
f 16/29/8 14/30/8 12/28/8 11/27/8
f 19/21/1 20/22/1 18/20/1 17/19/1
f 20/25/6 22/26/6 21/24/6 18/23/6
f 24/25/7 19/26/7 17/24/7 23/23/7
f 24/29/8 22/30/8 20/28/8 19/27/8
f 20/33/1 26/34/1 25/32/1 18/31/1
f 29/37/3 30/38/3 28/36/3 27/35/3
f 30/41/8 29/42/8 26/40/8 20/39/8
f 33/45/1 34/46/1 32/44/1 31/43/1
f 25/49/7 33/50/7 31/48/7 35/47/7
f 31/52/5 32/51/5 37/53/5 35/54/5
f 38/57/9 39/58/9 37/56/9 32/55/9
f 34/46/1 38/59/1 32/44/1 34/46/1
f 36/54/8 34/52/8 34/52/8 36/54/8
f 40/63/1 11/64/1 9/62/1 36/61/1
f 43/63/3 44/64/3 42/62/3 41/61/3
f 44/21/7 40/22/7 36/20/7 42/19/7
f 44/67/8 43/68/8 11/66/8 40/65/8
f 46/21/1 47/22/1 45/20/1 33/19/1
f 47/71/6 49/72/6 48/70/6 45/69/6
f 49/21/3 29/22/3 27/20/3 48/19/3
f 29/71/7 46/72/7 33/70/7 27/69/7
f 29/20/8 49/19/8 47/74/8 46/73/8
f 47/77/1 50/78/1 34/76/1 45/75/1
f 52/81/10 53/82/10 51/80/10 38/79/10
f 56/77/3 57/78/3 55/76/3 54/75/3
f 57/85/8 56/86/8 50/84/8 47/83/8
f 52/88/1 38/89/1 34/76/1 50/87/1
f 51/91/3 53/92/3 56/90/3 54/75/3
f 53/95/11 52/96/11 50/94/11 56/93/11
f 106/186/1 107/187/1 105/185/1 104/184/1
f 107/190/6 109/191/6 108/189/6 105/188/6
f 109/194/3 111/195/3 110/193/3 108/192/3
f 111/190/7 106/191/7 104/189/7 110/188/7
f 17/198/1 10/199/1 113/197/1 112/196/1
f 10/45/6 13/46/6 114/44/6 113/43/6
f 23/45/7 17/46/7 112/44/7 115/43/7
f 112/206/5 113/207/5 114/205/5 115/204/5
f 124/222/5 125/223/5 123/221/5 122/220/5

usemtl JPBM7concrete03Mat
f 61/157/3 63/158/3 65/159/3
f 65/159/3 67/160/3 69/161/3
f 69/162/3 71/163/3 73/164/3
f 73/164/3 75/165/3 77/166/3
f 77/166/3 79/167/3 81/168/3
f 81/168/3 83/169/3 85/170/3
f 85/170/3 87/171/3 89/172/3
f 89/172/3 91/173/3 93/174/3
f 93/175/3 95/176/3 97/177/3
f 97/177/3 99/178/3 101/179/3
f 101/179/3 103/180/3 36/181/3
f 39/182/3 59/183/3 61/157/3
f 36/54/8 34/52/8 33/51/8
f 33/51/8 25/53/8 36/54/8
f 36/45/3 36/45/3 37/43/3
f 37/43/3 39/60/3 36/45/3
f 59/100/6 39/98/6 51/97/6
f 51/97/6 58/99/6 59/100/6
f 61/104/8 59/102/8 58/101/8
f 58/101/8 60/103/8 61/104/8
f 63/106/6 61/100/6 60/99/6
f 60/99/6 62/105/6 63/106/6
f 65/108/8 63/104/8 62/103/8
f 62/103/8 64/107/8 65/108/8
f 67/110/6 65/106/6 64/105/6
f 64/105/6 66/109/6 67/110/6
f 69/112/8 67/108/8 66/107/8
f 66/107/8 68/111/8 69/112/8
f 71/114/6 69/110/6 68/109/6
f 68/109/6 70/113/6 71/114/6
f 73/118/8 71/116/8 70/115/8
f 70/115/8 72/117/8 73/118/8
f 75/120/6 73/114/6 72/113/6
f 72/113/6 74/119/6 75/120/6
f 77/122/8 75/118/8 74/117/8
f 74/117/8 76/121/8 77/122/8
f 79/124/6 77/120/6 76/119/6
f 76/119/6 78/123/6 79/124/6
f 81/124/8 79/122/8 78/121/8
f 78/121/8 80/125/8 81/124/8
f 83/127/6 81/124/6 80/123/6
f 80/123/6 82/126/6 83/127/6
f 85/129/8 83/124/8 82/123/8
f 82/123/8 84/128/8 85/129/8
f 87/133/6 85/131/6 84/130/6
f 84/130/6 86/132/6 87/133/6
f 89/136/8 87/134/8 86/128/8
f 86/128/8 88/135/8 89/136/8
f 91/138/6 89/133/6 88/132/6
f 88/132/6 90/137/6 91/138/6
f 93/140/8 91/136/8 90/135/8
f 90/135/8 92/139/8 93/140/8
f 95/142/6 93/138/6 92/137/6
f 92/137/6 94/141/6 95/142/6
f 97/145/8 95/143/8 94/139/8
f 94/139/8 96/144/8 97/145/8
f 99/149/6 97/147/6 96/146/6
f 96/146/6 98/148/6 99/149/6
f 101/151/8 99/145/8 98/144/8
f 98/144/8 100/150/8 101/151/8
f 103/154/6 101/152/6 100/148/6
f 100/148/6 102/153/6 103/154/6
f 36/156/8 103/151/8 102/150/8
f 102/150/8 54/155/8 36/156/8
f 13/203/8 10/201/8 17/200/8
f 17/200/8 23/202/8 13/203/8
f 119/199/1 117/197/1 116/196/1
f 116/196/1 118/198/1 119/199/1
f 108/211/6 120/209/6 117/208/6
f 117/208/6 119/210/6 108/211/6
f 110/215/3 121/213/3 120/212/3
f 120/212/3 108/214/3 110/215/3
f 118/211/7 116/209/7 121/208/7
f 121/208/7 110/210/7 118/211/7
f 108/219/8 119/217/8 118/216/8
f 118/216/8 110/218/8 108/219/8

usemtl RoofingTiles015B_1K
f 129/231/6 125/228/6 126/232/6
f 125/228/6 129/231/6 123/229/6
f 129/231/6 128/230/6 123/229/6
f 122/228/7 130/232/7 131/231/7
f 122/228/7 131/231/7 124/229/7
f 127/230/7 124/229/7 131/231/7
f 125/225/1 124/224/1 127/227/1
f 127/227/1 126/226/1 125/225/1
f 123/224/3 128/227/3 130/226/3
f 130/226/3 122/225/3 123/224/3
f 131/233/13 130/221/13 128/220/13
f 128/220/13 129/234/13 131/233/13
f 127/223/12 131/233/12 129/234/12
f 129/234/12 126/222/12 127/223/12

usemtl Plastic013B_1K
f 134/237/1 135/238/1 133/236/1 132/235/1
f 138/241/6 139/242/6 137/240/6 136/239/6
f 142/245/7 143/246/7 141/244/7 140/243/7
f 142/249/8 139/250/8 138/248/8 143/247/8
f 141/248/5 136/247/5 137/249/5 140/250/5
f 136/254/14 141/253/14 132/251/14 133/252/14
f 141/258/15 143/257/15 134/255/15 132/256/15
f 138/262/16 136/261/16 133/259/16 135/260/16
f 143/266/17 138/265/17 135/263/17 134/264/17
f 154/281/1 155/282/1 153/280/1 152/279/1
f 155/285/6 157/286/6 156/284/6 153/283/6
f 157/281/3 159/282/3 158/280/3 156/279/3
f 162/289/8 163/290/8 161/288/8 160/287/8
f 152/293/5 153/294/5 156/292/5 158/291/5
f 160/298/18 161/297/18 155/295/18 154/296/18
f 162/302/19 160/301/19 154/299/19 159/300/19
f 161/306/20 163/305/20 157/303/20 155/304/20
f 163/310/21 162/309/21 159/307/21 157/308/21
f 166/313/1 167/314/1 165/312/1 164/311/1
f 167/317/6 169/318/6 168/316/6 165/315/6
f 169/321/3 171/322/3 170/320/3 168/319/3
f 171/325/8 169/326/8 167/324/8 166/323/8
f 164/329/5 165/330/5 168/328/5 170/327/5
f 182/237/1 183/238/1 181/236/1 180/235/1
f 186/241/6 187/242/6 185/240/6 184/239/6
f 190/245/7 191/246/7 189/244/7 188/243/7
f 190/249/8 187/250/8 186/248/8 191/247/8
f 189/248/5 184/247/5 185/249/5 188/250/5
f 184/254/14 189/344/14 180/343/14 181/252/14
f 189/258/15 191/257/15 182/255/15 180/256/15
f 186/262/16 184/261/16 181/259/16 183/260/16
f 191/346/17 186/265/17 183/263/17 182/345/17
f 202/237/1 203/238/1 201/236/1 200/235/1
f 206/241/6 207/242/6 205/240/6 204/239/6
f 210/245/7 211/246/7 209/244/7 208/243/7
f 210/249/8 207/250/8 206/248/8 211/247/8
f 209/248/5 204/247/5 205/249/5 208/250/5
f 204/354/14 209/344/14 200/251/14 201/353/14
f 209/258/15 211/257/15 202/255/15 200/256/15
f 206/262/16 204/261/16 201/259/16 203/260/16
f 211/346/17 206/356/17 203/355/17 202/264/17
f 222/237/1 223/238/1 221/236/1 220/235/1
f 226/241/6 227/242/6 225/240/6 224/239/6
f 230/245/7 231/246/7 229/244/7 228/243/7
f 230/249/8 227/250/8 226/248/8 231/247/8
f 229/248/5 224/247/5 225/249/5 228/250/5
f 224/354/14 229/344/14 220/251/14 221/353/14
f 229/258/15 231/257/15 222/255/15 220/256/15
f 226/262/16 224/261/16 221/259/16 223/260/16
f 231/346/17 226/356/17 223/355/17 222/264/17
f 242/237/1 243/238/1 241/236/1 240/235/1
f 246/241/6 247/242/6 245/240/6 244/239/6
f 250/245/7 251/246/7 249/244/7 248/243/7
f 250/249/8 247/250/8 246/248/8 251/247/8
f 249/248/5 244/247/5 245/249/5 248/250/5
f 244/254/14 249/253/14 240/251/14 241/353/14
f 249/362/15 251/361/15 242/359/15 240/360/15
f 246/366/16 244/365/16 241/363/16 243/364/16
f 251/266/17 246/265/17 243/355/17 242/264/17
f 262/237/1 263/238/1 261/236/1 260/235/1
f 266/241/6 267/242/6 265/240/6 264/239/6
f 270/245/7 271/246/7 269/244/7 268/243/7
f 270/249/8 267/250/8 266/248/8 271/247/8
f 269/248/5 264/247/5 265/249/5 268/250/5
f 264/254/14 269/344/14 260/343/14 261/353/14
f 269/362/15 271/361/15 262/359/15 260/360/15
f 266/366/16 264/365/16 261/363/16 263/364/16
f 271/346/17 266/265/17 263/355/17 262/345/17
f 282/237/1 283/238/1 281/236/1 280/235/1
f 286/241/6 287/242/6 285/240/6 284/239/6
f 290/245/7 291/246/7 289/244/7 288/243/7
f 290/249/8 287/250/8 286/248/8 291/247/8
f 289/248/5 284/247/5 285/249/5 288/250/5
f 284/354/14 289/344/14 280/251/14 281/353/14
f 289/362/15 291/361/15 282/359/15 280/360/15
f 286/366/16 284/365/16 281/363/16 283/364/16
f 291/346/17 286/356/17 283/355/17 282/264/17
f 302/237/1 303/238/1 301/236/1 300/235/1
f 306/241/6 307/242/6 305/240/6 304/239/6
f 310/245/7 311/246/7 309/244/7 308/243/7
f 310/249/8 307/250/8 306/248/8 311/247/8
f 309/248/5 304/247/5 305/249/5 308/250/5
f 304/354/14 309/344/14 300/251/14 301/353/14
f 309/362/15 311/361/15 302/359/15 300/360/15
f 306/366/16 304/365/16 301/363/16 303/364/16
f 311/346/17 306/356/17 303/355/17 302/264/17
f 322/381/1 323/382/1 321/380/1 320/379/1
f 323/385/6 325/386/6 324/384/6 321/383/6
f 325/381/3 327/382/3 326/380/3 324/379/3
f 327/380/8 325/379/8 323/381/8 322/382/8
f 320/381/5 321/382/5 324/380/5 326/379/5
f 330/389/1 331/390/1 329/388/1 328/387/1
f 331/393/6 333/394/6 332/392/6 329/391/6
f 333/389/3 325/390/3 324/388/3 332/387/3
f 325/397/8 333/398/8 331/396/8 330/395/8
f 328/396/5 329/395/5 332/397/5 324/398/5
f 323/389/1 335/390/1 334/388/1 321/387/1
f 335/393/6 337/394/6 336/392/6 334/391/6
f 337/389/3 339/390/3 338/388/3 336/387/3
f 339/397/8 337/398/8 335/396/8 323/395/8
f 321/396/5 334/395/5 336/397/5 338/398/5
f 340/401/6 341/402/6 329/400/6 336/399/6
f 343/325/8 341/327/8 340/329/8 342/323/8
f 338/329/5 336/323/5 329/325/5 328/327/5
f 337/401/6 331/402/6 345/400/6 344/399/6
f 330/325/8 331/327/8 337/329/8 339/323/8
f 347/329/5 344/323/5 345/325/5 346/327/5
f 350/405/1 351/406/1 349/404/1 348/403/1
f 351/409/6 353/410/6 352/408/6 349/407/6
f 353/405/3 355/406/3 354/404/3 352/403/3
f 355/404/8 353/403/8 351/405/8 350/406/8
f 348/405/5 349/406/5 352/404/5 354/403/5

usemtl JPBM7Metal041A_1
f 364/419/5 388/168/5 366/420/5
f 366/420/5 388/168/5 368/421/5
f 368/421/5 388/168/5 370/422/5
f 370/422/5 388/168/5 372/423/5
f 372/423/5 388/168/5 374/424/5
f 374/424/5 388/168/5 376/425/5
f 376/425/5 388/168/5 378/426/5
f 378/426/5 388/168/5 380/427/5
f 380/427/5 388/168/5 382/428/5
f 382/428/5 388/168/5 384/429/5
f 384/429/5 388/168/5 386/430/5
f 386/430/5 388/168/5 364/419/5
f 449/671/5 473/168/5 451/420/5
f 451/420/5 473/168/5 453/672/5
f 453/421/5 473/168/5 455/422/5
f 455/422/5 473/168/5 457/423/5
f 457/673/5 473/168/5 459/424/5
f 459/424/5 473/168/5 461/674/5
f 461/674/5 473/168/5 463/426/5
f 463/426/5 473/168/5 465/675/5
f 465/427/5 473/168/5 467/428/5
f 467/428/5 473/168/5 469/429/5
f 469/676/5 473/168/5 471/430/5
f 471/430/5 473/168/5 449/671/5
f 147/270/1 145/268/1 144/267/1
f 144/267/1 146/269/1 147/270/1
f 149/274/6 148/272/6 145/271/6
f 145/271/6 147/273/6 149/274/6
f 146/274/7 144/272/7 150/271/7
f 150/271/7 151/273/7 146/274/7
f 149/278/8 147/276/8 146/275/8
f 146/275/8 151/277/8 149/278/8
f 145/275/5 148/277/5 150/278/5
f 150/278/5 144/276/5 145/275/5
f 195/270/1 193/268/1 192/347/1
f 192/347/1 194/348/1 195/270/1
f 197/274/6 196/272/6 193/271/6
f 193/271/6 195/273/6 197/274/6
f 194/274/7 192/272/7 198/271/7
f 198/271/7 199/273/7 194/274/7
f 197/278/8 195/276/8 194/349/8
f 194/349/8 199/350/8 197/278/8
f 193/275/5 196/277/5 198/351/5
f 198/351/5 192/352/5 193/275/5
f 215/358/1 213/357/1 212/347/1
f 212/347/1 214/348/1 215/358/1
f 217/274/6 216/272/6 213/271/6
f 213/271/6 215/273/6 217/274/6
f 214/274/7 212/272/7 218/271/7
f 218/271/7 219/273/7 214/274/7
f 217/351/8 215/352/8 214/349/8
f 214/349/8 219/350/8 217/351/8
f 213/349/5 216/350/5 218/351/5
f 218/351/5 212/352/5 213/349/5
f 235/358/1 233/357/1 232/347/1
f 232/347/1 234/348/1 235/358/1
f 237/274/6 236/272/6 233/271/6
f 233/271/6 235/273/6 237/274/6
f 234/274/7 232/272/7 238/271/7
f 238/271/7 239/273/7 234/274/7
f 237/351/8 235/352/8 234/349/8
f 234/349/8 239/350/8 237/351/8
f 233/349/5 236/350/5 238/351/5
f 238/351/5 232/352/5 233/349/5
f 255/370/1 253/368/1 252/367/1
f 252/367/1 254/369/1 255/370/1
f 257/374/6 256/372/6 253/371/6
f 253/371/6 255/373/6 257/374/6
f 254/374/7 252/372/7 258/371/7
f 258/371/7 259/373/7 254/374/7
f 257/278/8 255/276/8 254/275/8
f 254/275/8 259/277/8 257/278/8
f 253/275/5 256/277/5 258/278/5
f 258/278/5 252/276/5 253/275/5
f 275/370/1 273/368/1 272/375/1
f 272/375/1 274/376/1 275/370/1
f 277/374/6 276/372/6 273/371/6
f 273/371/6 275/373/6 277/374/6
f 274/374/7 272/372/7 278/371/7
f 278/371/7 279/373/7 274/374/7
f 277/278/8 275/276/8 274/349/8
f 274/349/8 279/350/8 277/278/8
f 273/275/5 276/277/5 278/351/5
f 278/351/5 272/352/5 273/275/5
f 295/378/1 293/377/1 292/375/1
f 292/375/1 294/376/1 295/378/1
f 297/374/6 296/372/6 293/371/6
f 293/371/6 295/373/6 297/374/6
f 294/374/7 292/372/7 298/371/7
f 298/371/7 299/373/7 294/374/7
f 297/351/8 295/352/8 294/349/8
f 294/349/8 299/350/8 297/351/8
f 293/349/5 296/350/5 298/351/5
f 298/351/5 292/352/5 293/349/5
f 315/378/1 313/377/1 312/375/1
f 312/375/1 314/376/1 315/378/1
f 317/374/6 316/372/6 313/371/6
f 313/371/6 315/373/6 317/374/6
f 314/374/7 312/372/7 318/371/7
f 318/371/7 319/373/7 314/374/7
f 317/351/8 315/352/8 314/349/8
f 314/349/8 319/350/8 317/351/8
f 313/349/5 316/350/5 318/351/5
f 318/351/5 312/352/5 313/349/5
f 367/418/22 365/416/22 364/415/22
f 364/415/22 366/417/22 367/418/22
f 369/418/16 367/416/16 366/415/16
f 366/415/16 368/417/16 369/418/16
f 371/418/23 369/416/23 368/415/23
f 368/415/23 370/417/23 371/418/23
f 373/418/24 371/416/24 370/415/24
f 370/415/24 372/417/24 373/418/24
f 375/418/15 373/416/15 372/415/15
f 372/415/15 374/417/15 375/418/15
f 377/418/25 375/416/25 374/415/25
f 374/415/25 376/417/25 377/418/25
f 379/418/26 377/416/26 376/415/26
f 376/415/26 378/417/26 379/418/26
f 381/418/27 379/416/27 378/415/27
f 378/415/27 380/417/27 381/418/27
f 383/418/28 381/416/28 380/415/28
f 380/415/28 382/417/28 383/418/28
f 385/418/29 383/416/29 382/415/29
f 382/415/29 384/417/29 385/418/29
f 387/418/30 385/416/30 384/415/30
f 384/415/30 386/417/30 387/418/30
f 365/418/31 387/416/31 386/415/31
f 386/415/31 364/417/31 365/418/31
f 390/434/34 373/432/33 375/431/32
f 375/431/32 389/433/33 390/434/34
f 391/438/37 371/436/36 373/435/35
f 373/435/35 390/437/36 391/438/37
f 392/442/40 369/440/39 371/439/38
f 371/439/38 391/441/39 392/442/40
f 393/446/43 367/444/42 369/443/41
f 369/443/41 392/445/42 393/446/43
f 394/450/46 365/448/45 367/447/44
f 367/447/44 393/449/45 394/450/46
f 395/454/49 387/452/48 365/451/47
f 365/451/47 394/453/48 395/454/49
f 396/458/52 385/456/51 387/455/50
f 387/455/50 395/457/51 396/458/52
f 397/462/55 383/460/54 385/459/53
f 385/459/53 396/461/54 397/462/55
f 399/466/58 379/464/57 381/463/56
f 381/463/56 398/465/57 399/466/58
f 400/470/61 377/468/60 379/467/59
f 379/467/59 399/469/60 400/470/61
f 389/474/64 375/472/63 377/471/62
f 377/471/62 400/473/63 389/474/64
f 398/478/67 381/476/66 383/475/65
f 383/475/65 397/477/66 398/478/67
f 402/482/70 390/480/69 389/479/68
f 389/479/68 401/481/69 402/482/70
f 403/486/73 391/484/72 390/483/71
f 390/483/71 402/485/72 403/486/73
f 404/490/76 392/488/75 391/487/74
f 391/487/74 403/489/75 404/490/76
f 405/494/79 393/492/78 392/491/77
f 392/491/77 404/493/78 405/494/79
f 406/498/82 394/496/81 393/495/80
f 393/495/80 405/497/81 406/498/82
f 407/502/85 395/500/84 394/499/83
f 394/499/83 406/501/84 407/502/85
f 408/506/88 396/504/87 395/503/86
f 395/503/86 407/505/87 408/506/88
f 409/510/91 397/508/90 396/507/89
f 396/507/89 408/509/90 409/510/91
f 411/514/94 399/512/93 398/511/92
f 398/511/92 410/513/93 411/514/94
f 412/518/97 400/516/96 399/515/95
f 399/515/95 411/517/96 412/518/97
f 401/522/100 389/520/99 400/519/98
f 400/519/98 412/521/99 401/522/100
f 410/526/103 398/524/102 397/523/101
f 397/523/101 409/525/102 410/526/103
f 414/530/106 402/528/105 401/527/104
f 401/527/104 413/529/105 414/530/106
f 415/534/109 403/532/108 402/531/107
f 402/531/107 414/533/108 415/534/109
f 416/538/112 404/536/111 403/535/110
f 403/535/110 415/537/111 416/538/112
f 417/542/115 405/540/114 404/539/113
f 404/539/113 416/541/114 417/542/115
f 418/546/118 406/544/117 405/543/116
f 405/543/116 417/545/117 418/546/118
f 419/550/121 407/548/120 406/547/119
f 406/547/119 418/549/120 419/550/121
f 420/554/124 408/552/123 407/551/122
f 407/551/122 419/553/123 420/554/124
f 421/558/127 409/556/126 408/555/125
f 408/555/125 420/557/126 421/558/127
f 423/562/130 411/560/129 410/559/128
f 410/559/128 422/561/129 423/562/130
f 424/566/133 412/564/132 411/563/131
f 411/563/131 423/565/132 424/566/133
f 413/570/136 401/568/135 412/567/134
f 412/567/134 424/569/135 413/570/136
f 422/574/139 410/572/138 409/571/137
f 409/571/137 421/573/138 422/574/139
f 426/578/142 414/576/141 413/575/140
f 413/575/140 425/577/141 426/578/142
f 427/582/145 415/580/144 414/579/143
f 414/579/143 426/581/144 427/582/145
f 428/586/148 416/584/147 415/583/146
f 415/583/146 427/585/147 428/586/148
f 429/590/151 417/588/150 416/587/149
f 416/587/149 428/589/150 429/590/151
f 430/594/154 418/592/153 417/591/152
f 417/591/152 429/593/153 430/594/154
f 431/598/157 419/596/156 418/595/155
f 418/595/155 430/597/156 431/598/157
f 432/602/160 420/600/159 419/599/158
f 419/599/158 431/601/159 432/602/160
f 433/606/163 421/604/162 420/603/161
f 420/603/161 432/605/162 433/606/163
f 435/610/166 423/608/165 422/607/164
f 422/607/164 434/609/165 435/610/166
f 436/614/169 424/612/168 423/611/167
f 423/611/167 435/613/168 436/614/169
f 425/618/172 413/616/171 424/615/170
f 424/615/170 436/617/171 425/618/172
f 434/622/175 422/620/174 421/619/173
f 421/619/173 433/621/174 434/622/175
f 438/626/178 426/624/177 425/623/176
f 425/623/176 437/625/177 438/626/178
f 439/630/181 427/628/180 426/627/179
f 426/627/179 438/629/180 439/630/181
f 440/634/184 428/632/183 427/631/182
f 427/631/182 439/633/183 440/634/184
f 441/638/187 429/636/186 428/635/185
f 428/635/185 440/637/186 441/638/187
f 442/642/190 430/640/189 429/639/188
f 429/639/188 441/641/189 442/642/190
f 443/646/193 431/644/192 430/643/191
f 430/643/191 442/645/192 443/646/193
f 444/650/196 432/648/195 431/647/194
f 431/647/194 443/649/195 444/650/196
f 445/654/199 433/652/198 432/651/197
f 432/651/197 444/653/198 445/654/199
f 447/658/202 435/656/201 434/655/200
f 434/655/200 446/657/201 447/658/202
f 448/662/205 436/660/204 435/659/203
f 435/659/203 447/661/204 448/662/205
f 437/666/208 425/664/207 436/663/206
f 436/663/206 448/665/207 437/666/208
f 446/670/211 434/668/210 433/667/209
f 433/667/209 445/669/210 446/670/211
f 452/418/22 450/416/22 449/415/22
f 449/415/22 451/417/22 452/418/22
f 454/418/16 452/416/16 451/415/16
f 451/415/16 453/417/16 454/418/16
f 456/418/23 454/416/23 453/415/23
f 453/415/23 455/417/23 456/418/23
f 458/418/24 456/416/24 455/415/24
f 455/415/24 457/417/24 458/418/24
f 460/418/15 458/416/15 457/415/15
f 457/415/15 459/417/15 460/418/15
f 462/418/25 460/416/25 459/415/25
f 459/415/25 461/417/25 462/418/25
f 464/418/26 462/416/26 461/415/26
f 461/415/26 463/417/26 464/418/26
f 466/418/27 464/416/27 463/415/27
f 463/415/27 465/417/27 466/418/27
f 468/418/28 466/416/28 465/415/28
f 465/415/28 467/417/28 468/418/28
f 470/418/29 468/416/29 467/415/29
f 467/415/29 469/417/29 470/418/29
f 472/418/30 470/416/30 469/415/30
f 469/415/30 471/417/30 472/418/30
f 450/418/31 472/416/31 471/415/31
f 471/415/31 449/417/31 450/418/31
f 475/434/34 458/432/33 460/431/32
f 460/431/32 474/433/33 475/434/34
f 476/438/37 456/436/36 458/435/35
f 458/435/35 475/437/36 476/438/37
f 477/442/40 454/440/39 456/439/38
f 456/439/38 476/441/39 477/442/40
f 478/446/43 452/444/42 454/443/41
f 454/443/41 477/445/42 478/446/43
f 479/450/46 450/448/45 452/447/44
f 452/447/44 478/449/45 479/450/46
f 480/454/49 472/452/48 450/451/47
f 450/451/47 479/453/48 480/454/49
f 481/458/52 470/456/51 472/455/50
f 472/455/50 480/457/51 481/458/52
f 482/462/55 468/460/54 470/459/53
f 470/459/53 481/461/54 482/462/55
f 484/677/58 464/464/57 466/463/56
f 466/463/56 483/465/57 484/677/58
f 485/470/61 462/468/60 464/467/59
f 464/467/59 484/469/60 485/470/61
f 474/474/64 460/472/63 462/471/62
f 462/471/62 485/473/63 474/474/64
f 483/478/67 466/476/66 468/475/65
f 468/475/65 482/477/66 483/478/67
f 487/482/70 475/480/69 474/479/68
f 474/479/68 486/481/69 487/482/70
f 488/486/73 476/484/72 475/483/71
f 475/483/71 487/485/72 488/486/73
f 489/490/76 477/488/75 476/487/74
f 476/487/74 488/489/75 489/490/76
f 490/494/79 478/492/78 477/491/77
f 477/491/77 489/493/78 490/494/79
f 491/498/82 479/496/81 478/495/80
f 478/495/80 490/497/81 491/498/82
f 492/502/85 480/500/84 479/499/83
f 479/499/83 491/501/84 492/502/85
f 493/506/88 481/504/87 480/503/86
f 480/503/86 492/505/87 493/506/88
f 494/510/91 482/508/90 481/507/89
f 481/507/89 493/509/90 494/510/91
f 496/514/94 484/512/93 483/511/212
f 483/511/212 495/513/93 496/514/94
f 497/518/97 485/516/96 484/515/95
f 484/515/95 496/517/96 497/518/97
f 486/522/100 474/520/99 485/519/98
f 485/519/98 497/521/99 486/522/100
f 495/526/103 483/524/102 482/523/101
f 482/523/101 494/525/102 495/526/103
f 499/530/106 487/528/105 486/527/104
f 486/527/104 498/529/105 499/530/106
f 500/534/109 488/532/108 487/531/107
f 487/531/107 499/533/108 500/534/109
f 501/538/112 489/536/111 488/535/110
f 488/535/110 500/537/111 501/538/112
f 502/542/115 490/540/114 489/539/113
f 489/539/113 501/541/114 502/542/115
f 503/546/118 491/544/117 490/543/116
f 490/543/116 502/545/117 503/546/118
f 504/550/121 492/548/120 491/547/119
f 491/547/119 503/549/120 504/550/121
f 505/554/124 493/552/123 492/551/122
f 492/551/122 504/553/123 505/554/124
f 506/558/127 494/556/126 493/555/125
f 493/555/125 505/557/126 506/558/127
f 508/562/130 496/560/129 495/559/128
f 495/559/128 507/561/129 508/562/130
f 509/566/133 497/564/132 496/563/131
f 496/563/131 508/565/132 509/566/133
f 498/570/136 486/568/135 497/567/134
f 497/567/134 509/569/135 498/570/136
f 507/574/139 495/572/138 494/571/137
f 494/571/137 506/573/138 507/574/139
f 511/578/213 499/576/141 498/575/140
f 498/575/140 510/577/141 511/578/213
f 512/582/145 500/580/144 499/579/143
f 499/579/143 511/581/144 512/582/145
f 513/586/148 501/584/147 500/583/146
f 500/583/146 512/585/147 513/586/148
f 514/590/215 502/588/150 501/587/214
f 501/587/214 513/589/150 514/590/215
f 515/594/154 503/592/153 502/591/152
f 502/591/152 514/593/153 515/594/154
f 516/598/157 504/596/156 503/595/155
f 503/595/155 515/597/156 516/598/157
f 517/602/160 505/600/159 504/599/158
f 504/599/158 516/601/159 517/602/160
f 518/606/163 506/604/162 505/603/161
f 505/603/161 517/605/162 518/606/163
f 520/610/216 508/608/165 507/607/164
f 507/607/164 519/609/165 520/610/216
f 521/614/169 509/612/168 508/611/167
f 508/611/167 520/613/168 521/614/169
f 510/618/172 498/616/171 509/615/170
f 509/615/170 521/617/171 510/618/172
f 519/622/175 507/620/174 506/619/173
f 506/619/173 518/621/174 519/622/175
f 523/626/217 511/624/177 510/623/176
f 510/623/176 522/625/177 523/626/217
f 524/630/181 512/628/180 511/627/179
f 511/627/179 523/629/180 524/630/181
f 525/634/184 513/632/183 512/631/182
f 512/631/182 524/633/183 525/634/184
f 526/638/187 514/636/186 513/635/185
f 513/635/185 525/637/186 526/638/187
f 527/642/190 515/640/189 514/639/188
f 514/639/188 526/641/189 527/642/190
f 528/646/193 516/644/192 515/643/191
f 515/643/191 527/645/192 528/646/193
f 529/650/196 517/648/195 516/678/218
f 516/678/218 528/649/195 529/650/196
f 530/654/199 518/652/198 517/651/197
f 517/651/197 529/653/198 530/654/199
f 532/658/202 520/656/201 519/655/200
f 519/655/200 531/657/201 532/658/202
f 533/662/205 521/660/204 520/659/203
f 520/659/203 532/661/204 533/662/205
f 522/666/208 510/664/207 521/663/206
f 521/663/206 533/665/207 522/666/208
f 531/679/211 519/668/210 518/667/209
f 518/667/209 530/669/210 531/679/211

