# ProBuilder 5.0.6
# https://unity3d.com/unity/features/worldbuilding/probuilder
# 2025-11-07 오후 7:01:04

mtllib ./JapaneseBuildingModel12Door2.mtl
o JapaneseBuildingModel12Door2

g JapaneseBuildingModel12Door2
v -1.475 1.625 0.07000024
v -1.325 1.625 0.07000024
v -1.325 1.275 0.07000024
v -1.475 1.275 0.07000024
v -1.475 1.625 0.05000024
v -1.475 1.275 0.05000024
v -1.325 1.625 0.05000024
v -1.325 1.275 0.05000024
v -1.5 2.9 0
v -1.4 2.9 0
v -1.4 0 0
v -1.5 0 0
v -1.5 2.9 -0.15
v -1.5 0 -0.15
v -1.4 2.9 -0.15
v -1.4 0 -0.15
v -0.1 2.9 0
v 0 2.9 0
v 0 0 0
v -0.1 0 0
v -0.1 2.9 -0.15
v -0.1 0 -0.15
v 0 2.9 -0.15
v 0 0 -0.15
v -1.39 0.1900001 0
v -0.11 0.1900001 0
v -0.11 0.00999999 0
v -1.39 0.00999999 0
v -0.11 0.1900001 -0.15
v -1.39 0.1900001 -0.15
v -1.39 0.00999999 -0.15
v -0.11 0.00999999 -0.15
v -1.4 0.2 -0.14
v -0.1 0.2 -0.14
v -0.1 0.2 -0.00999999
v -1.4 0.2 -0.00999999
v -1.4 0 -0.00999999
v -0.1 0 -0.00999999
v -0.1 0 -0.14
v -1.4 0 -0.14
v -1.39 2.89 0
v -0.1100001 2.89 0
v -0.1100001 2.71 0
v -1.39 2.71 0
v -0.1100001 2.89 -0.15
v -1.39 2.89 -0.15
v -1.39 2.71 -0.15
v -0.1100001 2.71 -0.15
v -1.4 2.9 -0.14
v -0.1000001 2.9 -0.14
v -0.1000001 2.9 -0.00999999
v -1.4 2.9 -0.00999999
v -1.4 2.7 -0.00999999
v -0.1000001 2.7 -0.00999999
v -0.1000001 2.7 -0.14
v -1.4 2.7 -0.14
v -1.465 1.5 -5.960464E-08
v -1.465 1.5 0.04999989
v -1.465 1.4 0.04999989
v -1.465 1.4 -5.960464E-08
v -1.435 1.5 0.04999989
v -1.435 1.5 -5.960464E-08
v -1.435 1.4 -5.960464E-08
v -1.435 1.4 0.04999989
v -1.325 1.625 -0.2200002
v -1.475 1.625 -0.2200002
v -1.475 1.275 -0.2200002
v -1.325 1.275 -0.2200002
v -1.475 1.625 -0.2000002
v -1.475 1.275 -0.2000002
v -1.325 1.625 -0.2000002
v -1.325 1.275 -0.2000002
v -1.465 1.5 -0.1999999
v -1.465 1.5 -0.1499999
v -1.465 1.4 -0.1499999
v -1.465 1.4 -0.1999999
v -1.435 1.5 -0.1499999
v -1.435 1.5 -0.1999999
v -1.435 1.4 -0.1999999
v -1.435 1.4 -0.1499999
v -1.4 2.7 -0.02499998
v -0.1 2.7 -0.02499998
v -0.1 0.2 -0.02499998
v -1.4 0.2 -0.02499998
v -0.1 2.7 -0.125
v -1.4 2.7 -0.125
v -1.4 0.2 -0.125
v -0.1 0.2 -0.125

vt -1.475 1.625
vt -1.325 1.625
vt -1.325 1.275
vt -1.475 1.275
vt 0.05000024 1.625
vt 0.07000024 1.625
vt 0.07000024 1.275
vt 0.05000024 1.275
vt 1.325 1.625
vt 1.475 1.625
vt 1.475 1.275
vt 1.325 1.275
vt -0.07000024 1.625
vt -0.05000024 1.625
vt -0.05000024 1.275
vt -0.07000024 1.275
vt 1.475 0.05000024
vt 1.325 0.05000024
vt 1.325 0.07000024
vt 1.475 0.07000024
vt -1.475 0.07000024
vt -1.325 0.07000024
vt -1.325 0.05000024
vt -1.475 0.05000024
vt -1.45 2.9
vt -1.35 2.9
vt -1.35 0
vt -1.45 0
vt -0.01499975 2.9
vt 0.1350003 2.9
vt 0.1350003 0
vt -0.01499975 0
vt 1.35 2.9
vt 1.45 2.9
vt 1.45 0
vt 1.35 0
vt -0.1350003 2.9
vt 0.01499975 2.9
vt 0.01499975 0
vt -0.1350003 0
vt 1.45 -0.01499975
vt 1.35 -0.01499975
vt 1.35 0.1350003
vt 1.45 0.1350003
vt -1.45 0.1350003
vt -1.35 0.1350003
vt -1.35 -0.01499975
vt -1.45 -0.01499975
vt -0.64 0.09
vt 0.64 0.09
vt 0.64 -0.09
vt -0.64 -0.09
vt 0.65 -0.06500001
vt -0.65 -0.06500001
vt -0.65 0.06500001
vt 0.65 0.06500001
vt 2.05 0.9581436
vt 0.75 0.9581438
vt 0.76 0.9722861
vt 2.04 0.9722859
vt 1.431891 1.36
vt 1.431891 1.54
vt 1.446033 1.55
vt 1.446033 1.35
vt 0.5338677 1.35
vt 0.5338677 1.55
vt 0.5480098 1.54
vt 0.5480098 1.36
vt 0.75 1.092496
vt 2.05 1.092496
vt 2.04 1.078353
vt 0.76 1.078354
vt -0.75 1.04299
vt -2.05 1.04299
vt -2.04 1.057132
vt -0.76 1.057132
vt -0.6187209 1.55
vt -0.6187209 1.35
vt -0.6328631 1.36
vt -0.6328631 1.54
vt -1.36118 1.35
vt -1.36118 1.55
vt -1.347038 1.54
vt -1.347038 1.36
vt -2.05 1.007642
vt -0.75 1.007641
vt -0.76 0.9934989
vt -2.04 0.9934992
vt 0.0350003 1.5
vt 0.08500029 1.5
vt 0.08500029 1.4
vt 0.0350003 1.4
vt -0.08500029 1.5
vt -0.0350003 1.5
vt -0.0350003 1.4
vt -0.08500029 1.4
vt 1.415001 0.0350003
vt 1.385001 0.0350003
vt 1.385001 0.08500029
vt 1.415001 0.08500029
vt -1.415001 0.08500029
vt -1.385001 0.08500029
vt -1.385001 0.0350003
vt -1.415001 0.0350003
vt -2.05 1.171669
vt -0.75 1.171669
vt -0.75 -1.328331
vt -2.05 -1.328331
vt 0.75 1.171669
vt 2.05 1.171669
vt 2.05 -1.328331
vt 0.75 -1.328331

vn 0 0 1
vn -1 0 0
vn 0 0 -1
vn 1 0 0
vn 0 1 0
vn 0 -1 0
vn 0 0.3826855 0.9238787
vn 0 0.3826859 -0.9238786
vn 0 0.9238805 -0.382681
vn 0 0.9238804 0.3826814
vn 0 -0.7071073 -0.7071062
vn -0.7071073 0 -0.7071063
vn 0.7071071 0 -0.7071065
vn 0 -0.7071068 0.7071068
vn 0.7071065 0 0.7071071
vn -0.7071068 0 0.7071068
vn 0 -0.3826834 0.9238795
vn 0 -0.3826838 -0.9238794
vn 0 -0.9238795 0.3826834
vn 0 -0.9238797 -0.3826831
vn 0 0.7071068 0.7071068
vn 0 0.7071073 -0.7071062

usemtl JPBM12Metal001Mat
f 4/4/1 3/3/1 2/2/1 1/1/1
f 6/8/2 4/7/2 1/6/2 5/5/2
f 8/12/3 6/11/3 5/10/3 7/9/3
f 3/16/4 8/15/4 7/14/4 2/13/4
f 1/20/5 2/19/5 7/18/5 5/17/5
f 6/24/6 8/23/6 3/22/6 4/21/6
f 12/28/1 11/27/1 10/26/1 9/25/1
f 14/32/2 12/31/2 9/30/2 13/29/2
f 16/36/3 14/35/3 13/34/3 15/33/3
f 11/40/4 16/39/4 15/38/4 10/37/4
f 9/44/5 10/43/5 15/42/5 13/41/5
f 14/48/6 16/47/6 11/46/6 12/45/6
f 20/28/1 19/27/1 18/26/1 17/25/1
f 22/32/2 20/31/2 17/30/2 21/29/2
f 24/36/3 22/35/3 21/34/3 23/33/3
f 19/40/4 24/39/4 23/38/4 18/37/4
f 17/44/5 18/43/5 23/42/5 21/41/5
f 22/48/6 24/47/6 19/46/6 20/45/6
f 28/52/1 27/51/1 26/50/7 25/49/7
f 32/52/3 31/51/3 30/50/8 29/49/8
f 36/56/10 35/55/10 34/54/9 33/53/9
f 40/54/6 39/53/6 38/56/6 37/55/6
f 31/60/11 32/59/11 39/58/11 40/57/11
f 40/64/12 33/63/12 30/62/12 31/61/12
f 32/68/13 29/67/13 34/66/13 39/65/13
f 29/72/8 30/71/8 33/70/9 34/69/9
f 27/76/14 28/75/14 37/74/14 38/73/14
f 26/80/15 27/79/15 38/78/15 35/77/15
f 28/84/16 25/83/16 36/82/16 37/81/16
f 25/88/7 26/87/7 35/86/10 36/85/10
f 44/52/17 43/51/17 42/50/1 41/49/1
f 48/52/18 47/51/18 46/50/3 45/49/3
f 52/56/5 51/55/5 50/54/5 49/53/5
f 56/54/20 55/53/20 54/56/19 53/55/19
f 43/76/17 44/75/17 53/74/19 54/73/19
f 42/80/15 43/79/15 54/78/15 51/77/15
f 44/84/16 41/83/16 52/82/16 53/81/16
f 41/88/21 42/87/21 51/86/21 52/85/21
f 47/60/18 48/59/18 55/58/20 56/57/20
f 56/64/12 49/63/12 46/62/12 47/61/12
f 48/68/13 45/67/13 50/66/13 55/65/13
f 45/72/22 46/71/22 49/70/22 50/69/22
f 60/92/2 59/91/2 58/90/2 57/89/2
f 64/96/4 63/95/4 62/94/4 61/93/4
f 58/100/5 61/99/5 62/98/5 57/97/5
f 60/104/6 63/103/6 64/102/6 59/101/6
f 68/3/3 67/4/3 66/1/3 65/2/3
f 67/7/2 70/8/2 69/5/2 66/6/2
f 70/11/1 72/12/1 71/9/1 69/10/1
f 72/15/4 68/16/4 65/13/4 71/14/4
f 65/19/5 66/20/5 69/17/5 71/18/5
f 72/23/6 70/24/6 67/21/6 68/22/6
f 76/91/2 75/92/2 74/89/2 73/90/2
f 80/95/4 79/96/4 78/93/4 77/94/4
f 78/99/5 73/100/5 74/97/5 77/98/5
f 80/103/6 75/104/6 76/101/6 79/102/6

usemtl JPBM12MosaicGlassMatOnlyN
f 84/108/1 83/107/1 82/106/1 81/105/1
f 88/112/3 87/111/3 86/110/3 85/109/3

