# ProBuilder 5.0.6
# https://unity3d.com/unity/features/worldbuilding/probuilder
# 2024-05-27 오후 9:01:11

mtllib ./JapaneseBuildingModel06SlidingWindow.mtl
o JapaneseBuildingModel06SlidingWindow

g JapaneseBuildingModel06SlidingWindow
v 0.9 -1.15 0.025
v -0.9 -1.15 0.025
v 0.9 1.15 0.025
v -0.9 1.15 0.025
v -0.9 -1.15 -0.025
v 0.9 -1.15 -0.025
v -0.9 1.15 -0.025
v 0.9 1.15 -0.025
v -0.8999815 -1.250001 0.05006104
v -0.9999819 -1.250001 0.05006104
v -0.8999815 1.249999 0.05006104
v -0.9999819 1.249999 0.05006104
v -0.9999819 -1.250001 -0.04993896
v -0.9999819 1.249999 -0.04993896
v -0.8999815 -1.250001 -0.04993896
v -0.8999815 1.249999 -0.04993896
v 0.9999819 -1.250001 0.05006104
v 0.8999815 -1.250001 0.05006104
v 0.9999819 1.249999 0.05006104
v 0.8999815 1.249999 0.05006104
v 0.8999815 -1.250001 -0.04993896
v 0.8999815 1.249999 -0.04993896
v 0.9999819 -1.250001 -0.04993896
v 0.9999819 1.249999 -0.04993896
v 0.8999996 -1.150001 0.05006104
v -0.8999996 -1.150001 0.05006104
v -0.8999996 -1.150001 -0.04993896
v 0.8999996 -1.150001 -0.04993896
v 0.8999996 1.149999 0.05006104
v -0.8999996 1.149999 0.05006104
v -0.8999996 1.149999 -0.04993896
v 0.8999996 1.149999 -0.04993896

vt 0.9 -1.15
vt -0.9 -1.15
vt 0.9 1.15
vt -0.9 1.15
vt 0.05000001 -1.25
vt -0.05000001 -1.25
vt 0.05000001 1.25
vt -0.05000001 1.25
vt 0.8999999 -0.04999995
vt -0.8999999 -0.04999995
vt 0.8999999 0.04999995
vt -0.8999999 0.04999995
vt -0.8999999 0.05
vt 0.8999999 0.05
vt -0.8999999 -0.05000001
vt 0.8999999 -0.05000001

vn 0 0 1
vn 0 0 -1
vn -1 0 0
vn 1 0 0
vn 0 1 0
vn 0 -1 0

usemtl JPBM6Facade001_2KMat
f 3/3/1 4/4/1 2/2/1 1/1/1
f 7/3/2 8/4/2 6/2/2 5/1/2

usemtl JPBM6Metal041A_1KB
f 11/7/1 12/8/1 10/6/1 9/5/1
f 12/7/3 14/8/3 13/6/3 10/5/3
f 14/7/2 16/8/2 15/6/2 13/5/2
f 16/7/4 11/8/4 9/6/4 15/5/4
f 19/7/1 20/8/1 18/6/1 17/5/1
f 20/7/3 22/8/3 21/6/3 18/5/3
f 22/7/2 24/8/2 23/6/2 21/5/2
f 24/7/4 19/8/4 17/6/4 23/5/4
f 25/11/1 26/12/1 9/10/1 18/9/1
f 27/11/2 28/12/2 21/10/2 15/9/2
f 28/15/5 27/16/5 26/14/5 25/13/5
f 20/11/1 11/12/1 30/10/1 29/9/1
f 16/11/2 22/12/2 32/10/2 31/9/2
f 29/14/6 30/13/6 31/15/6 32/16/6

