# ProBuilder 5.0.6
# https://unity3d.com/unity/features/worldbuilding/probuilder
# 2025-11-07 오후 6:25:46

mtllib ./JapaneseBuildingModel12Door1.mtl
o JapaneseBuildingModel12Door1

g JapaneseBuildingModel12Door1
v 1.39 2.89 1.490116E-08
v 1.39 2.71 1.490116E-08
v 0.1099999 2.71 1.490116E-08
v 0.1099999 2.89 1.490116E-08
v 0.1099999 2.89 -0.15
v 0.1099999 2.71 -0.15
v 1.39 2.71 -0.15
v 1.39 2.89 -0.15
v 1.4 2.9 -0.14
v 1.4 2.9 -0.009999983
v 0.0999999 2.9 -0.009999983
v 0.0999999 2.9 -0.14
v 1.4 2.7 -0.009999983
v 1.4 2.7 -0.14
v 0.0999999 2.7 -0.14
v 0.0999999 2.7 -0.009999983
v 0.1 2.9 0
v 0.1 0 0
v 0 0 0
v 0 2.9 0
v 0 0 -0.15
v 0 2.9 -0.15
v 0.1 0 -0.15
v 0.1 2.9 -0.15
v 1.5 2.9 0
v 1.5 0 0
v 1.4 0 0
v 1.4 2.9 0
v 1.4 0 -0.15
v 1.4 2.9 -0.15
v 1.5 0 -0.15
v 1.5 2.9 -0.15
v 1.435 1.5 0.04999989
v 1.435 1.4 0.04999989
v 1.435 1.4 -5.960464E-08
v 1.435 1.5 -5.960464E-08
v 1.465 1.5 -5.960464E-08
v 1.465 1.4 -5.960464E-08
v 1.465 1.4 0.04999989
v 1.465 1.5 0.04999989
v 1.475 1.625 0.07000023
v 1.475 1.275 0.07000023
v 1.325 1.275 0.07000023
v 1.325 1.625 0.07000023
v 1.325 1.275 0.05000025
v 1.325 1.625 0.05000025
v 1.475 1.275 0.05000025
v 1.475 1.625 0.05000025
v 1.39 0.1900001 0
v 1.39 0.00999999 0
v 0.11 0.00999999 0
v 0.11 0.1900001 0
v 0.11 0.1900001 -0.15
v 0.11 0.00999999 -0.15
v 1.39 0.00999999 -0.15
v 1.39 0.1900001 -0.15
v 1.4 0.2 -0.14
v 1.4 0.2 -0.00999999
v 0.1 0.2 -0.00999999
v 0.1 0.2 -0.14
v 1.4 0 -0.00999999
v 1.4 0 -0.14
v 0.1 0 -0.14
v 0.1 0 -0.00999999
v 1.4 2.7 -0.02499998
v 1.4 0.2 -0.02499998
v 0.1 0.2 -0.02499998
v 0.1 2.7 -0.02499998
v 0.1 2.7 -0.125
v 0.1 0.2 -0.125
v 1.4 0.2 -0.125
v 1.4 2.7 -0.125
v 1.435 1.5 -0.1999999
v 1.435 1.4 -0.1999999
v 1.435 1.4 -0.1499999
v 1.435 1.5 -0.1499999
v 1.465 1.5 -0.1499999
v 1.465 1.4 -0.1499999
v 1.465 1.4 -0.1999999
v 1.465 1.5 -0.1999999
v 1.475 1.625 -0.2200002
v 1.475 1.275 -0.2200002
v 1.325 1.275 -0.2200002
v 1.325 1.625 -0.2200002
v 1.325 1.275 -0.2000003
v 1.325 1.625 -0.2000003
v 1.475 1.275 -0.2000003
v 1.475 1.625 -0.2000003

vt 0.64 0.09
vt 0.64 -0.09
vt -0.64 -0.09
vt -0.64 0.09
vt -0.65 -0.06500001
vt -0.65 0.06500001
vt 0.65 0.06500001
vt 0.65 -0.06500001
vt 0.0999999 1.902094
vt 0.1099999 1.916236
vt 1.39 1.916236
vt 1.4 1.902094
vt 0.9970201 2.7
vt 0.982878 2.71
vt 0.982878 2.89
vt 0.9970201 2.9
vt 0.06363953 2.9
vt 0.07778165 2.89
vt 0.07778165 2.71
vt 0.06363953 2.7
vt 1.4 2.057656
vt 1.39 2.043514
vt 0.1099999 2.043514
vt 0.0999999 2.057656
vt -1.4 2.008161
vt -1.39 2.022302
vt -0.1099999 2.022302
vt -0.0999999 2.008161
vt -0.1838477 2.89
vt -0.1697056 2.9
vt -0.1697056 2.7
vt -0.1838477 2.71
vt -0.8909537 2.9
vt -0.8768116 2.89
vt -0.8768116 2.71
vt -0.8909537 2.7
vt -0.0999999 1.951588
vt -0.1099999 1.937446
vt -1.39 1.937446
vt -1.4 1.951588
vt 0.7999997 4.25
vt 0.7999997 1.35
vt 0.6999997 1.35
vt 0.6999997 4.25
vt 0 4.25
vt 0 1.35
vt -0.15 1.35
vt -0.15 4.25
vt -0.6999997 4.25
vt -0.6999997 1.35
vt -0.7999997 1.35
vt -0.7999997 4.25
vt 0.15 4.25
vt 0.15 1.35
vt -0.7999997 -0.15
vt -0.7999997 0
vt -0.6999997 0
vt -0.6999997 -0.15
vt 0.7999997 0
vt 0.7999997 -0.15
vt 0.6999997 -0.15
vt 0.6999997 0
vt -0.05000006 2.850003
vt -0.05000006 2.750003
vt -0.1000001 2.750003
vt -0.1000001 2.850003
vt 0.1000001 2.850003
vt 0.1000001 2.750003
vt 0.05000006 2.750003
vt 0.05000006 2.850003
vt -0.7650006 -0.1000001
vt -0.7650006 -0.05000006
vt -0.7350006 -0.05000006
vt -0.7350006 -0.1000001
vt 0.7650006 -0.05000006
vt 0.7650006 -0.1000001
vt 0.7350006 -0.1000001
vt 0.7350006 -0.05000006
vt 0.825 2.975001
vt 0.825 2.625001
vt 0.6750001 2.625001
vt 0.6750001 2.975001
vt -0.06500006 2.975001
vt -0.06500006 2.625001
vt -0.08500007 2.625001
vt -0.08500007 2.975001
vt -0.6750001 2.975001
vt -0.6750001 2.625001
vt -0.825 2.625001
vt -0.825 2.975001
vt 0.08500007 2.975001
vt 0.08500007 2.625001
vt 0.06500006 2.625001
vt 0.06500006 2.975001
vt -0.825 -0.08500007
vt -0.825 -0.06500006
vt -0.6750001 -0.06500006
vt -0.6750001 -0.08500007
vt 0.825 -0.06500006
vt 0.825 -0.08500007
vt 0.6750001 -0.08500007
vt 0.6750001 -0.06500006
vt 1.4 4.05
vt 1.4 1.55
vt 0.0999999 1.55
vt 0.0999999 4.05
vt -0.0999999 4.05
vt -0.0999999 1.55
vt -1.4 1.55
vt -1.4 4.05

vn 0 0 1
vn 0 -0.3826836 0.9238794
vn 0 0 -1
vn 0 -0.3826838 -0.9238794
vn 0 1 0
vn 0 -0.9238796 0.3826832
vn 0 -0.9238797 -0.3826831
vn 0.7071071 0 0.7071065
vn -0.7071065 0 0.707107
vn 0 0.7071071 0.7071065
vn -0.7071068 0 -0.7071068
vn 0.7071073 0 -0.7071062
vn 0 0.7071073 -0.7071062
vn -1 0 0
vn 1 0 0
vn 0 -1 0
vn 0 0.3826855 0.9238787
vn 0 0.3826859 -0.9238786
vn 0 0.9238805 -0.382681
vn 0 0.9238804 0.3826814
vn 0 -0.7071068 0.7071068
vn 0 -0.7071073 -0.7071062

usemtl JPBM12Metal001Mat
f 4/4/1 3/3/2 2/2/2 1/1/1
f 8/4/3 7/3/4 6/2/4 5/1/3
f 12/8/5 11/7/5 10/6/5 9/5/5
f 16/6/6 15/5/7 14/8/7 13/7/6
f 13/12/6 2/11/2 3/10/2 16/9/6
f 10/16/8 1/15/8 2/14/8 13/13/8
f 16/20/9 3/19/9 4/18/9 11/17/9
f 11/24/10 4/23/10 1/22/10 10/21/10
f 15/28/7 6/27/4 7/26/4 14/25/7
f 6/32/11 15/31/11 12/30/11 5/29/11
f 14/36/12 7/35/12 8/34/12 9/33/12
f 9/40/13 8/39/13 5/38/13 12/37/13
f 20/44/1 19/43/1 18/42/1 17/41/1
f 22/48/14 21/47/14 19/46/14 20/45/14
f 24/52/3 23/51/3 21/50/3 22/49/3
f 17/45/15 18/46/15 23/54/15 24/53/15
f 22/58/5 20/57/5 17/56/5 24/55/5
f 19/62/16 21/61/16 23/60/16 18/59/16
f 28/44/1 27/43/1 26/42/1 25/41/1
f 30/48/14 29/47/14 27/46/14 28/45/14
f 32/52/3 31/51/3 29/50/3 30/49/3
f 25/45/15 26/46/15 31/54/15 32/53/15
f 30/58/5 28/57/5 25/56/5 32/55/5
f 27/62/16 29/61/16 31/60/16 26/59/16
f 36/66/14 35/65/14 34/64/14 33/63/14
f 40/70/15 39/69/15 38/68/15 37/67/15
f 36/74/5 33/73/5 40/72/5 37/71/5
f 34/78/16 35/77/16 38/76/16 39/75/16
f 44/82/1 43/81/1 42/80/1 41/79/1
f 46/86/14 45/85/14 43/84/14 44/83/14
f 48/90/3 47/89/3 45/88/3 46/87/3
f 41/94/15 42/93/15 47/92/15 48/91/15
f 46/98/5 44/97/5 41/96/5 48/95/5
f 43/102/16 45/101/16 47/100/16 42/99/16
f 52/4/17 51/3/1 50/2/1 49/1/17
f 56/4/18 55/3/3 54/2/3 53/1/18
f 60/8/19 59/7/20 58/6/20 57/5/19
f 64/6/16 63/5/16 62/8/16 61/7/16
f 61/12/21 50/11/21 51/10/21 64/9/21
f 58/16/8 49/15/8 50/14/8 61/13/8
f 64/20/9 51/19/9 52/18/9 59/17/9
f 59/24/20 52/23/17 49/22/17 58/21/20
f 63/28/22 54/27/22 55/26/22 62/25/22
f 54/32/11 63/31/11 60/30/11 53/29/11
f 62/36/12 55/35/12 56/34/12 57/33/12
f 57/40/19 56/39/18 53/38/18 60/37/19
f 73/63/14 74/64/14 75/65/14 76/66/14
f 77/67/15 78/68/15 79/69/15 80/70/15
f 77/71/5 80/72/5 73/73/5 76/74/5
f 79/75/16 78/76/16 75/77/16 74/78/16
f 81/79/3 82/80/3 83/81/3 84/82/3
f 84/83/14 83/84/14 85/85/14 86/86/14
f 86/87/1 85/88/1 87/89/1 88/90/1
f 88/91/15 87/92/15 82/93/15 81/94/15
f 88/95/5 81/96/5 84/97/5 86/98/5
f 82/99/16 87/100/16 85/101/16 83/102/16

usemtl JPBM12MosaicGlassMatOnlyN
f 68/106/1 67/105/1 66/104/1 65/103/1
f 72/110/3 71/109/3 70/108/3 69/107/3

