# ProBuilder 5.0.6
# https://unity3d.com/unity/features/worldbuilding/probuilder
# 2025-11-13 오후 2:31:42

mtllib ./JapaneseBuildingModel12Base.mtl
o JapaneseBuildingModel12Base

g JapaneseBuildingModel12Base
v -0.3 0.125 0.025
v 0.3 0.125 0.025
v -0.3 -0.125 0.025
v 0.3 -0.125 0.025
v 0.3 0.125 -0.025
v -0.3 0.125 -0.025
v 0.3 -0.125 -0.025
v -0.3 -0.125 -0.025
v 4.36921 -5.275 4.025026
v -2.53079 -5.275 4.025026
v 4.36921 -4.991666 4.025026
v -2.53079 -4.991666 4.025026
v 4.36921 -4.991666 3.691692
v -2.53079 -4.991666 3.691692
v 4.36921 -4.708333 3.691692
v -2.53079 -4.708333 3.691692
v 4.36921 -4.708333 3.358359
v -2.53079 -4.708333 3.358359
v 4.36921 -4.425 3.358359
v -2.53079 -4.425 3.358359
v 4.36921 -4.425 3.025026
v -2.53079 -4.425 3.025026
v 4.36921 -4.141666 3.025026
v -2.53079 -4.141666 3.025026
v 4.36921 -4.141666 2.691692
v -2.53079 -4.141666 2.691692
v 4.36921 -3.858333 2.691692
v -2.53079 -3.858333 2.691692
v 4.36921 -3.858333 2.358359
v -2.53079 -3.858333 2.358359
v 4.36921 -3.575 2.358359
v -2.53079 -3.575 2.358359
v 4.36921 -3.575 2.025026
v -2.53079 -3.575 2.025026
v 4.569211 -5.275 -16.47497
v -2.730789 -5.275 -16.47497
v 4.569211 -5.275 4.025026
v -2.730789 -5.275 4.025026
v 4.569211 -3.574999 4.025026
v 4.369211 -3.574999 4.025026
v 4.569211 -1.87501 2.025026
v 4.36921 -1.87501 2.025026
v 4.369211 -4.974663 4.025026
v 4.369211 -5.275 2.025026
v 4.369211 -3.287338 2.025026
v 4.569211 -4.974984 4.025026
v 4.569211 -4.970344 2.025026
v 4.569211 -5.275 2.025026
v -2.53079 -3.574999 4.025026
v -2.730789 -3.574999 4.025026
v -2.530789 -1.87501 2.025026
v -2.73079 -1.87501 2.025026
v -2.530789 -3.277501 2.025026
v -2.53079 -5.275 2.025026
v -2.53079 -4.957923 4.025026
v -2.730789 -4.962731 4.025026
v -2.730789 -5.275 2.025026
v -2.730789 -4.959132 2.025026
v -0.530791 -3.375 -0.4990001
v -1.030791 -3.375 -0.4990001
v -0.530791 -0.8749998 -0.4990001
v -1.030791 -0.8749998 -0.4990001
v -1.030791 -3.375 -0.6489997
v -0.530791 -3.375 -0.6489997
v -1.030791 -0.8749998 -0.6489997
v -0.530791 -0.8749998 -0.6489997
v -1.13079 -3.2774 -0.5289998
v -1.13079 -3.575 -0.5289998
v -2.53079 -3.575 -0.5289998
v -2.53079 -3.267878 -0.5289998
v -2.53079 -0.6749997 -0.5289998
v -1.13079 -0.6749997 -0.5289998
v -1.13079 -3.275457 -1.529
v -1.13079 -3.575 -1.529
v -1.13079 -0.6749997 -1.529
v -2.730789 -3.275472 2.025026
v -2.730789 0.1250005 2.025026
v -2.130789 0.1250005 2.025026
v -2.130789 -3.274007 2.025026
v -2.130789 -5.275 2.025026
v -2.130789 -3.273681 1.825026
v -2.130789 -5.275 1.825026
v -2.130789 0.1250005 1.825026
v -2.730789 -5.275 1.825026
v -2.730789 -3.268423 1.825026
v -2.730789 0.1250005 1.825026
v -2.730789 -5.275 1.025026
v -2.730789 -5.275 -10.17497
v -2.730789 0.1250005 1.025026
v -2.730789 0.1250005 -10.17497
v -2.430789 -5.275 -10.17497
v -2.430789 -3.27596 -10.17497
v -2.430789 0.1250005 -10.17497
v -2.430789 -3.266254 1.025026
v -2.430789 0.1250005 1.025026
v -2.430789 -5.275 1.025026
v -2.430789 -5.275 1.825027
v -2.430789 -3.271594 1.825027
v -2.430789 0.1250005 1.825027
v 4.36921 -3.575 -0.9749742
v -2.53079 -3.575 -0.9749742
v 4.569211 0.1250005 2.025026
v 4.569211 2.125 2.025026
v -2.730789 2.125 2.025026
v -2.730789 2.125 1.025026
v 4.569211 0.1250005 1.025026
v 4.569211 2.125 1.025026
v 1.769254 2.125 2.025026
v 1.769254 3.625 2.025026
v -2.73079 3.625 2.025026
v -2.73079 3.625 1.025026
v 1.769254 2.125 1.025026
v 1.769254 3.625 1.025026
v 4.56921 3.625 2.025026
v 4.56921 5.125 2.025026
v -2.73079 5.125 2.025026
v -2.73079 5.125 1.025026
v 4.56921 3.625 1.025026
v 4.56921 5.125 1.025026
v 4.169211 2.125 2.025026
v 4.169211 3.625 2.025026
v 4.169211 2.125 1.025026
v 4.169211 3.625 1.025026
v 4.36921 -0.675 0.677
v 1.36921 -0.675 0.677
v 4.36921 -0.4750001 0.677
v 1.36921 -0.4750001 0.677
v 1.36921 -0.675 0.4770002
v 4.36921 -0.675 0.4770002
v 1.36921 -0.4750001 0.4770002
v 4.36921 -0.4750001 0.4770002
v 1.45921 -0.4650002 0.677
v 1.37921 -0.4650002 0.677
v 1.45921 0.01499987 0.677
v 1.37921 0.01499987 0.677
v 1.37921 -0.4650002 0.4770002
v 1.45921 -0.4650002 0.4770002
v 1.37921 0.01499987 0.4770002
v 1.45921 0.01499987 0.4770002
v 1.46921 -0.4750001 0.487
v 1.46921 -0.4750001 0.6670003
v 1.46921 0.02499986 0.487
v 1.46921 0.02499986 0.6670003
v 1.36921 -0.4750001 0.6670003
v 1.36921 0.02499986 0.6670003
v 1.36921 -0.4750001 0.487
v 1.36921 0.02499986 0.487
v 4.36921 0.02499986 0.677
v 1.36921 0.02499986 0.677
v 4.36921 0.1249998 0.677
v 1.36921 0.1249998 0.677
v 1.36921 0.02499986 0.4770002
v 4.36921 0.02499986 0.4770002
v 1.36921 0.1249998 0.4770002
v 4.36921 0.1249998 0.4770002
v 4.35921 -0.4650002 0.677
v 4.279211 -0.4650002 0.677
v 4.35921 0.01499987 0.677
v 4.279211 0.01499987 0.677
v 4.269211 -0.4750001 0.6670003
v 4.269211 -0.4750001 0.487
v 4.269211 0.02499986 0.6670003
v 4.269211 0.02499986 0.487
v 4.279211 -0.4650002 0.4770002
v 4.35921 -0.4650002 0.4770002
v 4.279211 0.01499987 0.4770002
v 4.35921 0.01499987 0.4770002
v 4.36921 -0.4750001 0.487
v 4.36921 0.02499986 0.487
v 4.36921 -0.4750001 0.6670003
v 4.36921 0.02499986 0.6670003
v 4.269211 -0.4750001 0.652
v 1.469211 -0.4750001 0.652
v 4.269211 0.02499986 0.652
v 1.469211 0.02499986 0.652
v 1.469211 -0.4750001 0.5020003
v 4.269211 -0.4750001 0.5020003
v 1.469211 0.02499986 0.5020003
v 4.269211 0.02499986 0.5020003
v 1.069207 -0.6749997 -0.5009999
v -2.430793 -0.6749997 -0.5009999
v 1.069207 -0.4749999 -0.5009999
v -2.430793 -0.4749999 -0.5009999
v -2.430793 -0.6749997 -0.7009997
v 1.069207 -0.6749997 -0.7009997
v -2.430793 -0.4749999 -0.7009997
v 1.069207 -0.4749999 -0.7009997
v -2.340793 -0.4649999 -0.5009999
v -2.420793 -0.4649999 -0.5009999
v -2.340793 0.0150001 -0.5009999
v -2.420793 0.0150001 -0.5009999
v -2.420793 -0.4649999 -0.7009997
v -2.340793 -0.4649999 -0.7009997
v -2.420793 0.0150001 -0.7009997
v -2.340793 0.0150001 -0.7009997
v -2.330793 -0.4749999 -0.691
v -2.330793 -0.4749999 -0.5109997
v -2.330793 0.0250001 -0.691
v -2.330793 0.0250001 -0.5109997
v -2.430793 -0.4749999 -0.5109997
v -2.430793 0.0250001 -0.5109997
v -2.430793 -0.4749999 -0.691
v -2.430793 0.0250001 -0.691
v 1.069207 0.0250001 -0.5009999
v -2.430793 0.0250001 -0.5009999
v 1.069207 0.125 -0.5009999
v -2.430793 0.125 -0.5009999
v -2.430793 0.0250001 -0.7009997
v 1.069207 0.0250001 -0.7009997
v -2.430793 0.125 -0.7009997
v 1.069207 0.125 -0.7009997
v 1.059207 -0.4649999 -0.5009999
v 0.9792075 -0.4649999 -0.5009999
v 1.059207 0.0150001 -0.5009999
v 0.9792075 0.0150001 -0.5009999
v 0.9692075 -0.4749999 -0.5109997
v 0.9692075 -0.4749999 -0.691
v 0.9692075 0.0250001 -0.5109997
v 0.9692075 0.0250001 -0.691
v 0.9792075 -0.4649999 -0.7009997
v 1.059207 -0.4649999 -0.7009997
v 0.9792075 0.0150001 -0.7009997
v 1.059207 0.0150001 -0.7009997
v 1.069207 -0.4749999 -0.691
v 1.069207 0.0250001 -0.691
v 1.069207 -0.4749999 -0.5109997
v 1.069207 0.0250001 -0.5109997
v 0.9692069 -0.4749999 -0.526
v -2.330793 -0.4749999 -0.526
v 0.9692069 0.0250001 -0.526
v -2.330793 0.0250001 -0.526
v -2.330793 -0.4749999 -0.6759996
v 0.9692069 -0.4749999 -0.6759996
v -2.330793 0.0250001 -0.6759996
v 0.9692069 0.0250001 -0.6759996
v 4.569211 -5.275 -2.974974
v 4.569211 -5.275 1.025026
v 4.569211 0.1250005 -2.974974
v 4.369211 -3.29922 -2.974974
v 4.369211 0.1250005 -2.974974
v 4.369211 0.1250005 1.025026
v 4.369211 -3.297289 1.025026
v 4.369211 -5.275 1.025026
v 4.369211 -5.275 -2.974974
v -2.730789 0.1250005 -15.97497
v -2.730789 5.125 -15.97497
v -2.53079 0.1250005 -15.97497
v -2.53079 0.1250005 1.025026
v -2.53079 5.125 -15.97497
v -2.53079 5.125 1.025026
v 4.369211 0.1250005 -2.674974
v 4.369211 5.125 1.025026
v 4.369211 5.125 -2.674974
v 4.569211 0.1250005 -2.674974
v 4.569211 5.125 -2.674974
v 4.369211 0.1250005 -0.9749742
v -2.53079 0.1250005 -0.9749742
v 4.369211 -3.290438 2.025026
v 4.369211 0.1250005 2.025026
v -0.4307911 -3.575 -0.474
v -1.130791 -3.575 -0.474
v -0.4307911 -3.375 -0.474
v -1.130791 -3.375 -0.474
v -1.130791 -3.575 -0.6739998
v -1.130791 -3.375 -0.6739998
v -0.4307911 -3.575 -0.6739998
v -0.4307911 -3.375 -0.6739998
v -1.040791 -3.365 -0.474
v -1.120791 -3.365 -0.474
v -1.040791 -0.8849998 -0.474
v -1.120791 -0.8849998 -0.474
v -1.130791 -3.375 -0.4839997
v -1.130791 -3.375 -0.664
v -1.130791 -0.8749998 -0.4839997
v -1.130791 -0.8749998 -0.664
v -1.120791 -3.365 -0.6739998
v -1.040791 -3.365 -0.6739998
v -1.120791 -0.8849998 -0.6739998
v -1.040791 -0.8849998 -0.6739998
v -1.030791 -3.375 -0.664
v -1.030791 -3.375 -0.4839997
v -1.030791 -0.8749998 -0.664
v -1.030791 -0.8749998 -0.4839997
v -0.4407911 -3.365 -0.474
v -0.5207911 -3.365 -0.474
v -0.4407911 -0.8849998 -0.474
v -0.5207911 -0.8849998 -0.474
v -0.530791 -3.375 -0.4839997
v -0.530791 -3.375 -0.664
v -0.530791 -0.8749998 -0.4839997
v -0.530791 -0.8749998 -0.664
v -0.5207911 -3.365 -0.6739998
v -0.4407911 -3.365 -0.6739998
v -0.5207911 -0.8849998 -0.6739998
v -0.4407911 -0.8849998 -0.6739998
v -0.4307911 -3.375 -0.664
v -0.4307911 -3.375 -0.4839997
v -0.4307911 -0.8749998 -0.664
v -0.4307911 -0.8749998 -0.4839997
v -0.4307911 -0.8749998 -0.474
v -1.130791 -0.8749998 -0.474
v -0.4307911 -0.675 -0.474
v -1.130791 -0.675 -0.474
v -1.130791 -0.8749998 -0.6739998
v -1.130791 -0.675 -0.6739998
v -0.4307911 -0.8749998 -0.6739998
v -0.4307911 -0.675 -0.6739998
v 4.369211 0.1250005 -5.674929
v 4.369211 0.1250005 -15.97497
v 4.369211 3.625 -5.674929
v 4.369211 3.625 -15.97497
v 4.569211 0.1250005 -15.97497
v 4.569211 0.1250005 -5.674929
v 4.569211 3.625 -15.97497
v 4.569211 3.625 -5.674929
v 4.269211 0.1250005 -2.974974
v 4.269211 0.1250005 -5.37493
v 4.269211 1.125 -2.974974
v 4.269211 1.125 -5.37493
v 4.569211 0.1250005 -5.37493
v 4.569211 1.125 -5.37493
v 4.569211 1.125 -2.974974
v 4.269211 2.625 -2.974974
v 4.269211 2.625 -5.37493
v 4.269211 3.625 -2.974974
v 4.269211 3.625 -5.37493
v 4.569211 2.625 -5.37493
v 4.569211 2.625 -2.974974
v 4.569211 3.625 -5.37493
v 4.569211 3.625 -2.974974
v 4.269211 0.1250005 -5.674929
v 4.269211 3.625 -5.674929
v 4.269211 0.1250005 -2.674974
v 4.269211 3.625 -2.674974
v 4.569211 3.625 -2.674974
v 1.369209 -3.335056 0.7219467
v 1.369209 -3.575 0.7219467
v 1.069209 -3.575 0.7219467
v 1.069209 -3.328724 0.7219467
v 1.069209 0.125 0.7219467
v 1.369209 0.125 0.7219467
v 1.369209 0.125 -1.278053
v 1.369209 -3.347503 -1.278053
v 1.369209 -3.575 -1.278053
v 1.069209 -3.575 -1.278053
v 1.069209 -3.32326 -1.278053
v 1.069209 0.125 -1.278053
v 4.369211 -5.275 -10.77489
v 4.369211 -5.275 -15.97497
v 4.369211 0.1250005 -10.77489
v 4.569211 -5.275 -15.97497
v 4.569211 -5.275 -10.77489
v 4.569211 0.1250005 -10.77489
v 4.569211 -5.275 -6.37493
v 4.269211 -5.275 -6.37493
v 4.569211 0.1250005 -6.37493
v 4.269211 0.1250005 -6.37493
v 4.269211 -5.275 -7.37493
v 4.269211 0.1250005 -7.37493
v 4.569211 -5.275 -7.37493
v 4.569211 0.1250005 -7.37493
v 4.269211 -5.275 -9.774885
v 4.269211 -2.275 -7.37493
v 4.269211 -2.275 -9.774885
v 4.569211 -5.275 -9.774885
v 4.569211 -2.275 -9.774885
v 4.569211 -2.275 -7.37493
v 4.269211 -5.275 -3.974974
v 4.269211 -2.275 -3.974974
v 4.269211 -2.275 -6.37493
v 4.569211 -5.275 -3.974974
v 4.569211 -2.275 -6.37493
v 4.569211 -2.275 -3.974974
v 4.269211 -0.7749996 -3.974974
v 4.269211 -0.7749996 -6.37493
v 4.269211 0.1250005 -3.974974
v 4.569211 -0.7749996 -6.37493
v 4.569211 -0.7749996 -3.974974
v 4.569211 0.1250005 -3.974974
v 4.269211 -0.7749996 -7.37493
v 4.269211 -0.7749996 -9.774885
v 4.269211 0.1250005 -9.774885
v 4.569211 -0.7749996 -9.774885
v 4.569211 -0.7749996 -7.37493
v 4.569211 0.1250005 -9.774885
v 4.369211 3.625 -2.674973
v 4.369211 5.125 -15.97497
v 4.569211 5.125 -15.97497
v 4.269211 -5.275 -10.77489
v 4.269211 0.1250005 -10.77489
v 4.269211 -5.275 -2.974974
v -2.430789 -5.275 -12.57493
v -2.730789 -5.275 -12.57493
v -2.430789 0.1250005 -12.57493
v -2.730789 0.1250005 -12.57493
v -2.730789 -5.275 -15.97497
v -2.430789 -5.275 -15.97497
v -2.430789 0.1250005 -15.97497
v -2.730789 -2.275 -10.17497
v -2.730789 -2.275 -12.57493
v -2.430789 -2.275 -12.57493
v -2.430789 -2.275 -10.17497
v -2.730789 -0.7749996 -10.17497
v -2.730789 -0.7749996 -12.57493
v -2.430789 -0.7749996 -12.57493
v -2.430789 -0.7749996 -10.17497
v 4.569211 3.125 -15.97497
v -2.730789 3.125 -15.97497
v -2.730789 3.125 -16.47497
v -2.730789 5.125 -16.47497
v 4.569211 3.125 -16.47497
v 4.569211 5.125 -16.47497
v -2.730789 -1.675 -15.97497
v -2.730789 -1.675 -16.47497
v -2.730789 1.625 -15.97497
v -2.730789 1.625 -16.47497
v 4.569211 -1.675 -16.47497
v 4.569211 1.625 -16.47497
v 4.569211 -1.675 -15.97497
v 4.569211 1.625 -15.97497
v 3.869211 1.625 -15.97497
v 3.869211 1.625 -16.47497
v 3.869211 3.125 -15.97497
v 3.869211 3.125 -16.47497
v -2.03079 1.625 -16.47497
v -2.03079 3.125 -16.47497
v -2.03079 1.625 -15.97497
v -2.03079 3.125 -15.97497
v 0.3691661 1.625 -15.97497
v 0.3691661 1.625 -16.47497
v 0.3691661 3.125 -15.97497
v 0.3691661 3.125 -16.47497
v 1.469254 1.625 -16.47497
v 1.469254 3.125 -16.47497
v 1.469254 1.625 -15.97497
v 1.469254 3.125 -15.97497
v 4.369211 -1.675 -15.97497
v -2.430789 -1.675 -15.97497
v 4.369211 -1.675 -13.97497
v -2.430789 -1.675 -13.97497
v -2.430789 -4.775 -14.47497
v -1.430789 -4.775 -14.47497
v -2.430789 -1.675 -14.47497
v -1.430789 -1.675 -14.47497
v -1.430789 -4.775 -13.97497
v -1.430789 -1.675 -13.97497
v -2.430789 -5.275 -16.47497
v 4.369211 -5.275 -16.47497
v -2.430789 -4.875 -16.47497
v 4.369211 -4.875 -16.47497
v 4.369211 -4.875 -12.97497
v -2.430789 -4.875 -12.97497
v 4.369211 4.28312 1.025026
v -2.530789 4.28312 1.025026
v 4.369211 4.28312 -15.97497
v -2.530789 4.28312 -15.97497
v -1.430789 -1.875 -14.47497
v 0.06921077 -1.875 -14.47497
v 0.06921077 -1.675 -14.47497
v 0.06921077 -1.875 -13.97497
v -1.430789 -1.875 -13.97497
v 0.06921077 -4.775 -13.97497
v 0.06921077 -4.775 -14.47497
v 0.06921077 -1.675 -13.97497
v 0.8692108 -4.775 -14.47497
v 0.8692108 -1.675 -14.47497
v 0.8692108 -4.775 -15.47497
v 0.8692108 -1.675 -15.47497
v 4.369211 -4.775 -15.47497
v 4.369211 -1.675 -15.47497
v 4.369211 -1.675 -15.97497
v 4.369211 -1.675 -16.47497
v 4.569211 -1.675 -16.47497
v 4.569211 -1.675 -15.97497
v -2.730789 -1.675 -15.97497
v -2.730789 -1.675 -16.47497
v -2.430789 -1.675 -16.47497
v -2.430789 -1.675 -15.97497
v -2.430789 -4.875 -16.399
v 4.369211 -4.875 -16.399
v -2.430789 -4.775 -16.399
v 4.369211 -4.775 -16.399
v 4.369211 -4.775 -12.699
v -2.430789 -4.775 -12.699
v 2.869211 -4.875 -15.47497
v 2.869211 -4.875 -16.42497
v 2.869211 -1.675 -15.47497
v 2.869211 -1.675 -16.42497
v 4.369211 -4.875 -16.42497
v 4.369211 -1.675 -16.42497
v 0.8692108 -4.775 -16.07497
v 0.8692108 -1.675 -16.07497
v 1.069211 -4.775 -16.07497
v 1.069211 -1.675 -16.07497
v 1.069211 -4.775 -15.47497
v 1.069211 -1.675 -15.47497
v -3.04 -5.08388 0.9949999
v -3.04 3.91612 0.9949999
v -2.99 -5.08388 1.081603
v -2.99 3.91612 1.081603
v -2.89 -5.08388 1.081603
v -2.89 3.91612 1.081603
v -2.84 -5.08388 0.9949999
v -2.84 3.91612 0.9949999
v -2.89 -5.08388 0.9083972
v -2.89 3.91612 0.9083972
v -2.99 -5.08388 0.9083972
v -2.99 3.91612 0.9083972
v -2.94 -5.08388 0.9949999
v -2.863935 4.06698 0.9083972
v -2.824507 4.036232 0.9949999
v -2.942792 4.128475 0.9083972
v -2.98222 4.159222 0.9949999
v -2.863935 4.06698 1.081603
v -2.942792 4.128475 1.081603
v -2.702977 4.151625 0.9083972
v -2.701258 4.101655 0.9949999
v -2.706417 4.251566 0.9083972
v -2.708136 4.301536 0.9949999
v -2.702977 4.151625 1.081603
v -2.706417 4.251566 1.081603
v 4.84 -5.08388 -15.245
v 4.84 3.91612 -15.245
v 4.79 -5.08388 -15.3316
v 4.79 3.91612 -15.3316
v 4.69 -5.08388 -15.3316
v 4.69 3.91612 -15.3316
v 4.64 -5.08388 -15.245
v 4.64 3.91612 -15.245
v 4.69 -5.08388 -15.1584
v 4.69 3.91612 -15.1584
v 4.79 -5.08388 -15.1584
v 4.79 3.91612 -15.1584
v 4.74 -5.08388 -15.245
v 4.663935 4.06698 -15.1584
v 4.624507 4.036232 -15.245
v 4.742792 4.128475 -15.1584
v 4.78222 4.159222 -15.245
v 4.663935 4.06698 -15.3316
v 4.742792 4.128475 -15.3316
v 4.502977 4.151625 -15.1584
v 4.501259 4.101655 -15.245
v 4.506417 4.251566 -15.1584
v 4.508137 4.301536 -15.245
v 4.502977 4.151625 -15.3316
v 4.506417 4.251566 -15.3316
v 3.516 0.49612 -16.4716
v 3.516 0.49612 -16.5716
v 3.591 0.6260238 -16.4716
v 3.591 0.6260238 -16.5716
v 3.741 0.6260238 -16.4716
v 3.741 0.6260238 -16.5716
v 3.816 0.49612 -16.4716
v 3.816 0.49612 -16.5716
v 3.741 0.3662162 -16.4716
v 3.741 0.3662162 -16.5716
v 3.591 0.3662162 -16.4716
v 3.591 0.3662162 -16.5716
v 3.516521 0.3057125 -16.71539
v 3.592322 0.3203068 -16.844
v 3.742318 0.320976 -16.84299
v 3.666516 0.3063805 -16.71438
v 3.816511 0.3070469 -16.71337
v 3.740709 0.2924509 -16.58476
v 3.590714 0.2917845 -16.58577
v 3.815995 0.4431469 -16.6721
v 3.741802 0.5380759 -16.76145
v 3.591806 0.5382249 -16.76265
v 3.516005 0.4434457 -16.6745
v 3.590198 0.3485169 -16.58514
v 3.740193 0.3483675 -16.58395
v -1.894 0.49612 -16.4716
v -1.894 0.49612 -16.5716
v -1.819 0.6260238 -16.4716
v -1.819 0.6260238 -16.5716
v -1.669 0.6260238 -16.4716
v -1.669 0.6260238 -16.5716
v -1.594 0.49612 -16.4716
v -1.594 0.49612 -16.5716
v -1.669 0.3662162 -16.4716
v -1.669 0.3662162 -16.5716
v -1.819 0.3662162 -16.4716
v -1.819 0.3662162 -16.5716
v -1.89348 0.3057125 -16.71539
v -1.817678 0.3203068 -16.844
v -1.667682 0.320976 -16.84299
v -1.743484 0.3063805 -16.71438
v -1.593489 0.3070469 -16.71337
v -1.669291 0.2924509 -16.58476
v -1.819286 0.2917845 -16.58577
v -1.594005 0.4431469 -16.6721
v -1.668198 0.5380759 -16.76145
v -1.818194 0.5382249 -16.76265
v -1.893996 0.4434457 -16.6745
v -1.819802 0.3485169 -16.58514
v -1.669807 0.3483675 -16.58395
v 2.536 -0.09987998 1.728
v 3.136 -0.09987998 1.728
v 2.536 -0.09987998 1.128
v 3.136 -0.09987998 1.128
v 2.486 0.125 1.778
v 2.536 0.125 1.778
v 2.486 -0.125 1.778
v 2.536 -0.125 1.778
v 2.536 0.125 1.078
v 2.536 -0.125 1.078
v 2.486 0.125 1.078
v 2.486 -0.125 1.078
v 3.136 0.125 1.778
v 3.186 0.125 1.778
v 3.136 -0.125 1.778
v 3.186 -0.125 1.778
v 3.186 0.125 1.078
v 3.186 -0.125 1.078
v 3.136 0.125 1.078
v 3.136 -0.125 1.078
v 3.136 0.125 1.728
v 2.536 0.125 1.728
v 3.136 -0.125 1.728
v 2.536 -0.125 1.728
v 2.536 0.125 1.128
v 3.136 0.125 1.128
v 2.536 -0.125 1.128
v 3.136 -0.125 1.128
v 3.136 0.125 1.078
v 3.136 -0.125 1.078
v -0.3 -0.09987998 0.625
v 0.3 -0.09987998 0.625
v -0.3 -0.09987998 0.02499962
v 0.3 -0.09987998 0.02499962
v -0.3500001 0.125 0.6749997
v -0.3 0.125 0.6749997
v -0.3500001 -0.125 0.6749997
v -0.3 -0.125 0.6749997
v -0.3 0.125 -0.0250001
v -0.3 -0.125 -0.0250001
v -0.3500001 0.125 -0.0250001
v -0.3500001 -0.125 -0.0250001
v 0.3 0.125 0.6749997
v 0.3500001 0.125 0.6749997
v 0.3 -0.125 0.6749997
v 0.3500001 -0.125 0.6749997
v 0.3500001 0.125 -0.0250001
v 0.3500001 -0.125 -0.0250001
v 0.3 0.125 -0.0250001
v 0.3 -0.125 -0.0250001
v 0.3 0.125 0.6249995
v -0.3 0.125 0.6249995
v 0.3 -0.125 0.6249995
v -0.3 -0.125 0.6249995

vt 5.09 5
vt 4.49 5
vt 5.09 5.25
vt 4.49 5.25
vt 3.29 5
vt 2.69 5
vt 3.29 5.25
vt 2.69 5.25
vt 2.74 16.869
vt 3.34 16.869
vt 2.74 16.819
vt 3.34 16.819
vt 1.725 -0.4250002
vt -1.725 -0.4249997
vt 1.725 -0.2833331
vt -1.725 -0.2833326
vt 1.725 -0.5000004
vt -1.725 -0.5000001
vt 1.725 -0.3333333
vt -1.725 -0.333333
vt 1.725 -0.1416671
vt -1.725 -0.1416667
vt 1.725 -0.1666666
vt -1.725 -0.1666664
vt 1.725 0
vt -1.725 4.768372E-07
vt 1.725 0.1416664
vt -1.725 0.1416669
vt 1.725 0.1666667
vt -1.725 0.166667
vt 1.725 0.2833333
vt -1.725 0.2833338
vt 1.725 0.3333334
vt -1.725 0.3333336
vt 1.725 0.4250001
vt -1.725 0.4250003
vt 1.725 0.5
vt -1.725 0.5000002
vt 7.609211 0.3690262
vt 0.3092103 0.3690262
vt 7.609211 20.86903
vt 0.3092103 20.86903
vt 0.2130089 20.78768
vt 0.4130092 20.78768
vt 0.2130089 18.78768
vt 0.4130096 18.78768
vt 0 10.09966
vt 0 10.4
vt 2 10.4
vt 2 8.412338
vt 2 7.00001
vt 0 8.699999
vt 0.220789 10.09998
vt 0.220789 10.4
vt 0.4207892 10.4
vt 0.4207892 10.09966
vt 0.4207892 8.699999
vt 0.220789 8.699999
vt 18.86802 10.09534
vt 18.86802 10.4
vt 20.86802 10.4
vt 20.86802 10.09998
vt 20.86802 8.699999
vt 18.86802 7.00001
vt 7.313009 20.78768
vt 7.513009 20.78768
vt 7.313009 18.78768
vt 7.51301 18.78768
vt 18.86802 8.402501
vt 20.86802 10.08292
vt 7.520789 10.08773
vt 7.520789 8.699999
vt 7.320789 8.699999
vt 7.320789 10.08292
vt 7.320789 10.4
vt 7.520789 10.4
vt 0 10.08773
vt 2 10.08413
vt 0.25 -1.25
vt -0.2500002 -1.25
vt 0.2500002 1.25
vt -0.25 1.25
vt 5.92079 8.4024
vt 5.92079 8.7
vt 7.32079 8.392878
vt 7.32079 5.8
vt 5.92079 5.8
vt 15.31399 8.400456
vt 15.31399 8.7
vt 16.31399 8.7
vt 16.31399 8.4024
vt 16.31399 5.8
vt 15.31399 5.8
vt 7.520789 8.400473
vt 7.520789 5
vt 6.920789 5
vt 6.920789 8.399007
vt 6.920789 10.4
vt 18.66801 8.398682
vt 18.66801 10.4
vt 18.86802 8.399007
vt 18.86802 5
vt 18.66801 5
vt 2.2 10.4
vt 2.2 8.393423
vt 2.2 5
vt 2 5
vt 2 8.400473
vt 0.2592106 8.393423
vt 0.2592106 10.4
vt 0.859211 10.4
vt 0.859211 8.398682
vt 0.859211 5
vt 0.2592106 5
vt 3 10.4
vt 14.2 10.4
vt 3 5
vt 14.2 5
vt 0.5592108 10.4
vt 0.5592108 8.40096
vt 0.5592108 5
vt 17.86802 8.391254
vt 17.86802 5
vt 6.668016 5
vt 6.668016 8.40096
vt 6.668016 10.4
vt 17.86802 10.4
vt 18.66801 8.396593
vt 0.4130101 15.78768
vt 7.31301 15.78768
vt 0.220789 5
vt 0.220789 3
vt 7.520789 3
vt 3 5
vt 2 3
vt 3 3
vt 17.86802 3
vt 18.86802 3
vt 0.2130089 17.78768
vt 7.513009 17.78768
vt 7.609211 17.86903
vt 0.3092103 17.86903
vt 7.609211 18.86903
vt 0.3092103 18.86903
vt 3.020746 3
vt 3.020746 1.5
vt 7.52079 1.5
vt 2 1.5
vt 3 1.5
vt 17.86802 1.5
vt 18.86802 1.5
vt 0.2207899 1.5
vt 0.2207899 0
vt 7.52079 0
vt 2 0
vt 3 0
vt 0.2592101 1.5
vt 7.55921 1.5
vt 0.2592101 0
vt 7.55921 0
vt 17.86802 0
vt 18.86802 0
vt 0.6207891 3
vt 0.6207891 1.5
vt 0.4207897 5.8
vt 3.420789 5.8
vt 0.4207897 5.6
vt 3.420789 5.6
vt 4.35921 5.8
vt 7.35921 5.8
vt 4.35921 5.6
vt 7.35921 5.6
vt 0.4130096 17.43965
vt 3.413009 17.43965
vt 0.4130096 17.23965
vt 3.413009 17.23965
vt 7.40921 17.321
vt 4.40921 17.321
vt 7.40921 17.521
vt 4.40921 17.521
vt 3.33079 5.59
vt 3.410789 5.59
vt 3.33079 5.11
vt 3.410789 5.11
vt 4.36921 5.59
vt 4.44921 5.59
vt 4.36921 5.11
vt 4.44921 5.11
vt 17.32999 5.6
vt 17.50999 5.6
vt 17.32999 5.1
vt 17.50999 5.1
vt 3.32079 5.6
vt 3.32079 5.1
vt 3.420789 5.1
vt 4.45921 5.6
vt 4.35921 5.1
vt 4.45921 5.1
vt 0.4207897 5.1
vt 0.4207897 5
vt 3.420789 5
vt 7.35921 5.1
vt 4.35921 5
vt 7.35921 5
vt 0.4307895 5.59
vt 0.5107894 5.59
vt 0.4307895 5.11
vt 0.5107894 5.11
vt 3.358026 5.6
vt 3.538026 5.6
vt 3.358026 5.1
vt 3.538026 5.1
vt 7.269211 5.59
vt 7.349211 5.59
vt 7.269211 5.11
vt 7.349211 5.11
vt 7.259211 5.6
vt 7.259211 5.1
vt 0.5207891 5.6
vt 0.5207891 5.1
vt 1.4 -0.2500002
vt -1.4 -0.25
vt 1.4 0.25
vt -1.4 0.2500002
vt 1.4 -0.2500002
vt -1.4 -0.25
vt 1.4 0.25
vt -1.4 0.2500002
vt 3.720793 5.8
vt 7.220793 5.8
vt 3.720793 5.6
vt 7.220793 5.6
vt 0.559207 5.8
vt 4.059207 5.8
vt 0.559207 5.6
vt 4.059207 5.6
vt 3.713013 16.26165
vt 7.213013 16.26165
vt 3.713013 16.06165
vt 7.213013 16.06165
vt 4.109207 16.143
vt 0.6092067 16.143
vt 4.109207 16.343
vt 0.6092067 16.343
vt 7.130793 5.59
vt 7.210793 5.59
vt 7.130793 5.11
vt 7.210793 5.11
vt 0.5692072 5.59
vt 0.6492071 5.59
vt 0.5692072 5.11
vt 0.6492071 5.11
vt 16.15199 5.6
vt 16.33199 5.6
vt 16.15199 5.1
vt 16.33199 5.1
vt 7.120792 5.6
vt 7.120792 5.1
vt 7.220793 5.1
vt 0.6592073 5.6
vt 0.559207 5.1
vt 0.6592073 5.1
vt 3.720793 5.1
vt 3.720793 5
vt 7.220793 5
vt 4.059207 5.1
vt 0.559207 5
vt 4.059207 5
vt 3.730793 5.59
vt 3.810792 5.59
vt 3.730793 5.11
vt 3.810792 5.11
vt 4.536026 5.6
vt 4.716026 5.6
vt 4.536026 5.1
vt 4.716026 5.1
vt 3.969208 5.59
vt 4.049208 5.59
vt 3.969208 5.11
vt 4.049208 5.11
vt 3.959208 5.6
vt 3.959208 5.1
vt 3.820792 5.6
vt 3.820792 5.1
vt 1.65 -0.2500003
vt -1.65 -0.25
vt 1.65 0.25
vt -1.65 0.2500003
vt 13.86802 10.4
vt 13.86802 5
vt 7 8.42422
vt 7 5
vt 3 8.422289
vt 3 10.4
vt 7 10.4
vt 20 5
vt 20 0
vt 0.8680153 5
vt 0.8680153 0
vt 7.313009 17.78768
vt 7.313009 0.7876778
vt 7.513009 0.7876778
vt 6.7 5
vt 6.7 0
vt 14.16801 5
vt 14.16801 0
vt 0.4130092 17.78768
vt 0.2130089 14.08768
vt 0.4130092 14.08768
vt 7.40921 15.86903
vt 0.5092101 15.86903
vt 7.40921 17.86903
vt 0.5092101 17.86903
vt 0.4207892 8.415438
vt 0.4207892 5
vt 2 8.415438
vt 5.220791 8.7
vt 5.220791 8.5
vt 5.920791 8.5
vt 4.499026 8.7
vt 4.699026 8.7
vt 4.499026 8.5
vt 4.699026 8.5
vt 1.859209 8.7
vt 2.559209 8.7
vt 1.859209 8.5
vt 2.559209 8.5
vt 16.16899 8.7
vt 16.36899 8.7
vt 16.16899 8.5
vt 16.36899 8.5
vt 5.213011 16.28865
vt 5.913011 16.28865
vt 5.213011 16.08865
vt 5.913011 16.08865
vt 5.830791 8.49
vt 5.910791 8.49
vt 5.830791 6.01
vt 5.910791 6.01
vt 4.509026 8.5
vt 4.689026 8.5
vt 4.509026 6
vt 4.689026 6
vt 1.869209 8.49
vt 1.949209 8.49
vt 1.869209 6.01
vt 1.949209 6.01
vt 16.17899 8.5
vt 16.35899 8.5
vt 16.17899 6
vt 16.35899 6
vt 5.820791 8.5
vt 5.820791 6
vt 5.920791 6
vt 1.959209 8.5
vt 1.859209 6
vt 1.959209 6
vt 5.230791 8.49
vt 5.310791 8.49
vt 5.230791 6.01
vt 5.310791 6.01
vt 2.469209 8.49
vt 2.549209 8.49
vt 2.469209 6.01
vt 2.549209 6.01
vt 2.459209 8.5
vt 2.459209 6
vt 2.559209 6
vt 5.320791 8.5
vt 5.220791 6
vt 5.320791 6
vt 5.220791 5.8
vt 5.920791 5.8
vt 4.499026 6
vt 4.699026 6
vt 4.499026 5.8
vt 4.699026 5.8
vt 1.859209 5.8
vt 2.559209 5.8
vt 16.16899 6
vt 16.36899 6
vt 16.16899 5.8
vt 16.36899 5.8
vt 2.609209 16.17
vt 1.909209 16.17
vt 2.609209 16.37
vt 1.909209 16.37
vt 9.699955 5
vt 20 5
vt 9.699955 1.5
vt 20 1.5
vt 11.16806 5
vt 0.8680191 1.5
vt 11.16806 1.5
vt 9.399956 5
vt 7 4
vt 9.399956 4
vt 11.46806 5
vt 11.46806 4
vt 13.86802 4
vt 0.2130089 13.78768
vt 0.5130091 13.78768
vt 0.2130089 11.38772
vt 0.5130091 11.38772
vt 7 2.5
vt 9.399956 2.5
vt 7 1.5
vt 9.399956 1.5
vt 11.46806 2.5
vt 13.86802 2.5
vt 11.46806 1.5
vt 13.86802 1.5
vt 7.609211 11.46907
vt 7.309211 11.46907
vt 7.609211 13.86903
vt 7.309211 13.86903
vt 0.5207891 5
vt 0.5207891 1.5
vt 6.999999 5
vt 6.7 1.5
vt 6.999999 1.5
vt 7.259211 5
vt 7.559211 5
vt 7.259211 1.5
vt 14.16801 1.5
vt 3.420791 8.460056
vt 3.420791 8.7
vt 3.720791 8.7
vt 3.720791 8.453724
vt 17.56494 8.460056
vt 17.56494 5
vt 15.56494 5
vt 15.56494 8.472503
vt 15.56494 8.7
vt 17.56494 8.7
vt 3.303079 8.453724
vt 3.303079 8.7
vt 5.303079 8.7
vt 5.303079 8.448259
vt 5.303079 5
vt 3.303079 5
vt 14.79991 10.4
vt 20 10.4
vt 14.79991 5
vt 0.8680153 10.4
vt 6.068104 10.4
vt 6.068104 5
vt 0.5207891 10.4
vt 10.39996 10.4
vt 11.39996 10.4
vt 10.39996 5
vt 11.39996 5
vt 7.259211 10.4
vt 7.559211 10.4
vt 9.46806 10.4
vt 10.46806 10.4
vt 9.46806 5
vt 10.46806 5
vt 13.79991 10.4
vt 11.39996 7.4
vt 13.79991 7.4
vt 7.068104 10.4
vt 7.068104 7.4
vt 9.46806 7.4
vt 0.2130089 9.387722
vt 0.5130091 9.387722
vt 0.2130089 6.987766
vt 0.5130091 6.987766
vt 8 10.4
vt 8 7.4
vt 10.39996 7.4
vt 12.86802 10.4
vt 10.46806 7.4
vt 12.86802 7.4
vt 0.2130089 12.78768
vt 0.5130091 12.78768
vt 0.2130089 10.38772
vt 0.5130091 10.38772
vt 8 5.9
vt 10.39996 5.9
vt 8 5
vt 10.46806 5.9
vt 12.86802 5.9
vt 12.86802 5
vt 7.609211 10.46907
vt 7.309211 10.46907
vt 7.609211 12.86903
vt 7.309211 12.86903
vt 11.39996 5.9
vt 13.79991 5.9
vt 13.79991 5
vt 7.068104 5.9
vt 9.46806 5.9
vt 7.068104 5
vt 7.609211 7.069115
vt 7.309211 7.069115
vt 7.609211 9.46907
vt 7.309211 9.46907
vt 6.699999 1.5
vt 20 1.5
vt 0.8680153 1.5
vt 14.16802 1.5
vt 0.2130089 0.7876778
vt 0.4130092 0.7876778
vt 7.220789 10.4
vt 7.220789 5
vt 16.59995 10.4
vt 20 10.4
vt 16.59995 5
vt 4.268061 10.4
vt 4.268061 5
vt 14.2 7.4
vt 16.59995 7.4
vt 4.268061 7.4
vt 6.668016 7.4
vt 7.213009 6.587679
vt 7.513009 6.587679
vt 7.213009 4.187723
vt 7.513009 4.187723
vt 14.2 5.9
vt 16.59995 5.9
vt 4.268061 5.9
vt 6.668016 5.9
vt 0.6092105 4.269072
vt 0.3092103 4.269072
vt 0.6092105 6.669027
vt 0.3092103 6.669027
vt 0.220789 2
vt 7.520789 2
vt 20 2
vt 20.5 2
vt 20 0
vt 20.5 0
vt 0.2592106 2
vt 7.559211 2
vt 0.3680191 2
vt 0.8680191 2
vt 0.3680191 0
vt 0.2130089 0.2876816
vt 7.513009 0.2876816
vt 7.609211 0.86903
vt 0.3092103 0.86903
vt 20 6.8
vt 20.5 6.8
vt 20 3.5
vt 20.5 3.5
vt 0.2592106 6.8
vt 7.559211 6.8
vt 0.2592106 3.5
vt 7.559211 3.5
vt 0.3680191 6.8
vt 0.8680191 6.8
vt 0.3680191 3.5
vt 0.8680191 3.5
vt 6.859211 3.5
vt 6.859211 2
vt 0.9592104 3.5
vt 0.9592104 2
vt 3.359166 3.5
vt 4.459254 3.5
vt 3.359166 2
vt 4.459254 2
vt 7.409211 0.86903
vt 0.6092105 0.86903
vt 7.409211 2.86903
vt 0.6092105 2.86903
vt 0.5592108 9.9
vt 1.559211 9.9
vt 0.5592108 6.8
vt 1.559211 6.8
vt 2.368019 9.9
vt 2.868019 9.9
vt 2.368019 6.8
vt 2.868019 6.8
vt 7.359211 10.4
vt 0.5592108 10
vt 7.359211 10
vt 0.4130092 3.78768
vt 7.213009 3.78768
vt 0.4130092 0.2876797
vt 7.213009 0.2876797
vt 1.559211 7
vt 3.059211 7
vt 1.559211 6.8
vt 3.059211 6.8
vt 3.10921 2.36903
vt 1.60921 2.36903
vt 3.10921 2.86903
vt 1.60921 2.86903
vt 18 9.9
vt 18.5 9.9
vt 18 6.8
vt 18.5 6.8
vt 3.059211 9.9
vt 3.859211 9.9
vt 3.859211 6.8
vt 19.5 9.9
vt 19.5 6.8
vt 7.359211 9.9
vt 7.359211 6.8
vt 20.5 10.4
vt 20 6.8
vt 20.5 6.8
vt 7.359211 6.8
vt 7.559211 6.8
vt 0.3680172 10.4
vt 0.3680172 6.8
vt 0.8680172 6.8
vt 0.2592106 6.8
vt 1.7 -0.0250001
vt -1.7 -0.02499962
vt 1.7 0.02500033
vt -1.7 0.02500081
vt -1.7 0.9250002
vt 1.7 0.9250002
vt -1.7 -0.9250002
vt 1.7 -0.9250002
vt 19.5 10
vt 20.45 10
vt 20.45 6.8
vt 5.859211 10
vt 5.859211 6.8
vt 20.1 9.9
vt 20.1 6.8
vt 4.059211 9.9
vt 4.059211 6.8
vt 0.7680168 9.9
vt 1.368015 9.9
vt 0.7680168 6.8
vt 1.368015 6.8
vt 3.030026 10.20888
vt 3.030026 1.20888
vt 2.943423 10.20888
vt 2.943423 1.20888
vt 7.78 10.20888
vt 7.78 1.20888
vt 7.679999 10.20888
vt 7.679999 1.20888
vt 17.92459 10.20888
vt 17.92459 1.20888
vt 17.83799 10.20888
vt 17.83799 1.20888
vt 17.75139 10.20888
vt 17.75139 1.20888
vt 0.1000004 10.20888
vt 0.1000004 1.20888
vt 0 10.20888
vt 0 1.20888
vt 3.116629 10.20888
vt 3.116629 1.20888
vt 0 17.839
vt 0.04999971 17.9256
vt 0.1500001 17.9256
vt 0.1999998 17.839
vt 0.0999999 17.839
vt 0.1500001 17.7524
vt 0.04999971 17.7524
vt 17.75139 1.05802
vt 17.83799 1.088768
vt 0.04720783 0.9965253
vt 0.1260653 1.05802
vt 3.030026 0.9657779
vt 3.116629 0.9965253
vt 17.92459 1.05802
vt 7.653934 1.05802
vt 7.732792 0.9965253
vt 2.943423 0.9965253
vt 0.176065 17.7524
vt 0.2154927 17.839
vt 0.3370223 17.7524
vt 0.3387413 17.839
vt 0.2835827 0.8734341
vt 0.2870226 0.9733753
vt 7.76444 17.75765
vt 7.725012 17.67105
vt 7.490356 17.75765
vt 7.488637 17.67105
vt 0.176065 17.9256
vt 0.3370223 17.9256
vt 7.492977 0.9733753
vt 7.496417 0.8734341
vt 7.725012 17.84425
vt 7.488637 17.84425
vt 1.59799 10.20888
vt 1.59799 1.20888
vt 1.511387 10.20888
vt 1.511387 1.20888
vt 7.68 10.20888
vt 7.68 1.20888
vt 19.35663 10.20888
vt 19.35663 1.20888
vt 19.27003 10.20888
vt 19.27003 1.20888
vt 19.18342 10.20888
vt 19.18342 1.20888
vt 0.0999999 10.20888
vt 0.0999999 1.20888
vt 1.684593 10.20888
vt 1.684593 1.20888
vt 7.88 1.599001
vt 7.83 1.512398
vt 7.73 1.512398
vt 7.679999 1.599001
vt 7.78 1.599001
vt 7.73 1.685604
vt 7.83 1.685604
vt 19.18342 1.05802
vt 19.27003 1.088768
vt 1.59799 0.9657779
vt 1.684593 0.9965253
vt 19.35663 1.05802
vt 1.511387 0.9965253
vt 7.703935 1.685604
vt 7.664507 1.599001
vt 7.542977 1.685604
vt 7.541259 1.599001
vt 0 1.517653
vt 0.03942776 1.604256
vt 0.2740831 1.517653
vt 0.2758026 1.604256
vt 7.703935 1.512398
vt 7.542977 1.512398
vt 0.03942776 1.431049
vt 0.2758026 1.431049
vt 20.49663 4.62888
vt 20.59662 4.62888
vt 20.49663 4.498976
vt 20.59662 4.498976
vt 1.19122 0.2910519
vt 1.19122 0.1910534
vt 1.04122 0.2910519
vt 1.04122 0.1910534
vt 0.3713894 4.498976
vt 0.2713909 4.498976
vt 0.3713894 4.62888
vt 0.2713909 4.62888
vt 0.3713894 4.758784
vt 0.2713909 4.758784
vt 6.781 0.3724003
vt 6.781 0.2724018
vt 6.631 0.3724003
vt 6.631 0.2724018
vt 20.49663 4.758784
vt 20.59662 4.758784
vt 6.55652 0.1286144
vt 6.632322 0
vt 6.782317 0.001010895
vt 6.706515 0.1296215
vt 6.856511 0.1306286
vt 6.780709 0.2592411
vt 6.630714 0.258234
vt 0.1708908 4.681853
vt 0.08153915 4.586924
vt 1.040418 0.00120163
vt 1.190413 0
vt 20.78768 4.586775
vt 20.69952 4.681554
vt 20.61017 4.776483
vt 1.199 4.758784
vt 1.049 4.758784
vt 1.199802 4.776483
vt 1.049807 4.776632
vt 0.2590427 4.776632
vt 0.1296177 4.817953
vt 0 4.804024
vt 6.731802 4.586924
vt 6.581806 4.586775
vt 6.732318 4.804024
vt 6.582322 4.804693
vt 20.86903 4.804693
vt 20.74041 4.819287
vt 20.61079 4.833216
vt 1.199286 4.833216
vt 1.049291 4.832549
vt 0.2582302 4.832549
vt 6.60122 0.2910519
vt 6.60122 0.1910534
vt 6.451221 0.2910519
vt 6.451221 0.1910534
vt 1.370999 0.3724003
vt 1.370999 0.2724018
vt 1.221 0.3724003
vt 1.221 0.2724018
vt 1.14652 0.1286144
vt 1.222322 0
vt 1.372317 0.001010895
vt 1.296515 0.1296215
vt 1.446511 0.1306286
vt 1.370709 0.2592411
vt 1.220714 0.258234
vt 6.450418 0.00120163
vt 6.600413 0
vt 6.609 4.758784
vt 6.459001 4.758784
vt 6.609802 4.776483
vt 6.459806 4.776632
vt 1.321802 4.586924
vt 1.171806 4.586775
vt 1.322318 4.804024
vt 1.172322 4.804693
vt 6.609285 4.833216
vt 6.459291 4.832549
vt 5.576 18.572
vt 6.176 18.572
vt 5.576 17.972
vt 6.176 17.972
vt 2.304 5
vt 2.254 5
vt 2.304 5.25
vt 2.254 5.25
vt 18.62099 5
vt 17.92099 5
vt 18.62099 5.25
vt 17.92099 5.25
vt 5.526 5
vt 5.476 5
vt 5.526 5.25
vt 5.476 5.25
vt 2.947026 5
vt 2.247026 5
vt 2.947026 5.25
vt 2.247026 5.25
vt 5.526 18.622
vt 5.576 18.622
vt 5.526 17.922
vt 5.576 17.922
vt 1.654 5
vt 1.604 5
vt 1.654 5.25
vt 1.604 5.25
vt 6.176 5
vt 6.126 5
vt 6.176 5.25
vt 6.126 5.25
vt 6.176 18.622
vt 6.226 18.622
vt 6.176 17.922
vt 6.226 17.922
vt 5.576 18.572
vt 6.176 18.572
vt 1.654 5
vt 1.654 5.25
vt 6.126 5
vt 6.126 5.25
vt 2.74 17.469
vt 3.34 17.469
vt 5.14 5
vt 5.14 5.25
vt 17.51799 5
vt 16.81799 5
vt 17.51799 5.25
vt 16.81799 5.25
vt 2.64 5
vt 2.64 5.25
vt 4.050026 5
vt 3.350026 5
vt 4.050026 5.25
vt 3.350026 5.25
vt 2.69 17.519
vt 2.74 17.519
vt 2.69 16.819
vt 4.44 5
vt 4.44 5.25
vt 3.34 5
vt 3.34 5.25
vt 3.34 17.519
vt 3.39 17.519
vt 3.39 16.819

vn 0 0 1
vn 0 0 -1
vn 0 -1 0
vn 0 1 0
vn 0 0.7619413 0.6476462
vn -1 0 0
vn 1 0 0
vn 0 -0.7070984 0.7071152
vn 0.7070984 0 0.7071152
vn -0.7070984 0 0.7071152
vn 0 0.7070984 0.7071152
vn 0 -0.7070984 -0.7071152
vn -0.7070984 0 -0.7071152
vn 0.7070984 0 -0.7071152
vn 0 0.7070984 -0.7071152
vn -0.8660258 -0.4999993 0
vn -0.9933366 0.1151986 -0.003414718
vn -0.4330138 -0.5000004 0.7499991
vn -0.4969891 0.05473934 0.8660285
vn 0.4330138 -0.5000004 0.7499991
vn 0.5034747 -0.03811213 0.863169
vn 0.8660258 -0.4999993 0
vn 0.9975339 -0.06975039 0.007815103
vn 0.4330138 -0.5000004 -0.7499991
vn 0.4981639 -0.04279702 -0.866026
vn -0.4330138 -0.5000004 -0.7499991
vn -0.5002049 0.05719744 -0.864016
vn 0.3854266 -0.2744747 -0.8809711
vn 0.8191137 -0.5735336 0.01057548
vn -0.3817856 0.2931848 -0.8765172
vn -0.789052 0.6143143 -0.003850982
vn 0.3885873 -0.2812257 0.8774463
vn -0.3775162 0.2931436 0.8783782
vn 0.2420355 -0.4580972 -0.8553162
vn 0.4680022 -0.8837255 0.001779076
vn -0.2395497 0.4600127 -0.8549879
vn -0.4610824 0.8873571 -0.0006596966
vn 0.2415608 -0.4593429 0.8547821
vn -0.2389245 0.4594792 0.8554496
vn 0.9933366 0.1151993 0.003415142
vn 0.4969884 0.05473927 -0.866029
vn -0.5034743 -0.03811252 -0.8631693
vn -0.9975338 -0.06975079 -0.007815632
vn -0.4981631 -0.04279774 0.8660265
vn 0.5002044 0.05719766 0.8640162
vn -0.3854269 -0.2744755 0.8809707
vn -0.8191137 -0.5735337 -0.01057652
vn 0.3817864 0.2931851 0.8765168
vn 0.7890517 0.6143147 0.003851181
vn -0.388588 -0.281227 -0.8774456
vn 0.3775164 0.2931443 -0.8783779
vn -0.2420366 -0.4580983 0.8553153
vn -0.4680033 -0.8837249 -0.001779845
vn 0.2395497 0.4600128 0.8549879
vn 0.4610828 0.8873568 0.0006593265
vn -0.2415617 -0.4593445 -0.854781
vn 0.238925 0.4594797 -0.8554491
vn -0.9999855 -0.002789534 0.00461619
vn -0.4999993 0.8660258 0
vn -0.4988444 0.8458704 -0.1888323
vn 0.4999999 0.8660255 0
vn 0.5013404 0.8437837 -0.1915384
vn 0.9989976 0.01368572 0.04262009
vn 0.4999999 -0.8660255 0
vn 0.4854678 -0.7679287 0.4178595
vn -0.4999993 -0.8660258 0
vn -0.5319416 -0.7714361 0.3491769
vn 0.005163714 -0.9939458 -0.1097503
vn 0.999373 0.03138968 0.0163759
vn 0.5216436 0.5772486 -0.6282293
vn -0.5066969 0.5823298 -0.6357281
vn -0.999055 0.02571584 0.03504036
vn -0.511394 -0.2861546 0.8103035
vn 0.4493864 -0.299448 0.8416548
vn 0.9998759 0.01496136 -0.004937436
vn 0.4991904 0.3051613 -0.8109781
vn -0.4828717 0.2955007 -0.8243266
vn -0.999394 0.03281603 0.01161082
vn -0.5052536 -0.0150841 0.8628391
vn 0.4546883 -0.05011633 0.8892394

usemtl JPBM12Metal003_2KMat
f 3/3/1 4/4/1 2/2/1 1/1/1
f 7/7/2 8/8/2 6/6/2 5/5/2
f 8/11/3 7/12/3 4/10/3 3/9/3
f 603/809/1 604/810/1 602/808/1 601/807/1
f 604/813/7 606/814/7 605/812/7 602/811/7
f 606/817/2 608/818/2 607/816/2 605/815/2
f 608/821/6 603/822/6 601/820/6 607/819/6
f 608/825/3 606/826/3 604/824/3 603/823/3
f 611/829/1 612/830/1 610/828/1 609/827/1
f 612/813/7 614/814/7 613/812/7 610/811/7
f 614/833/2 616/834/2 615/832/2 613/831/2
f 616/821/6 611/822/6 609/820/6 615/819/6
f 616/837/3 614/838/3 612/836/3 611/835/3
f 604/810/1 611/829/1 609/827/1 602/808/1
f 619/834/2 620/817/2 618/815/2 617/832/2
f 620/839/3 619/840/3 611/835/3 604/824/3
f 623/810/1 624/842/1 622/841/1 621/808/1
f 626/844/2 606/817/2 605/815/2 625/843/2
f 606/826/3 626/837/3 624/806/3 623/805/3
f 633/848/1 634/3/1 632/1/1 631/847/1
f 634/851/7 636/852/7 635/850/7 632/849/7
f 636/8/2 638/854/2 637/853/2 635/6/2
f 638/857/6 633/858/6 631/856/6 637/855/6
f 638/861/3 636/11/3 634/860/3 633/859/3
f 641/4/1 642/863/1 640/862/1 639/2/1
f 642/851/7 644/852/7 643/850/7 640/849/7
f 644/865/2 646/7/2 645/5/2 643/864/2
f 646/857/6 641/858/6 639/856/6 645/855/6
f 646/12/3 644/868/3 642/867/3 641/866/3
f 634/3/1 641/4/1 639/2/1 632/1/1
f 649/7/2 650/8/2 648/6/2 647/5/2
f 650/845/3 649/846/3 641/866/3 634/860/3

usemtl JPBM12Tiles133C
f 11/15/1 12/16/1 10/14/1 9/13/1
f 13/19/4 14/20/4 12/18/4 11/17/4
f 15/21/1 16/22/1 14/16/1 13/15/1
f 17/23/4 18/24/4 16/20/4 15/19/4
f 19/25/1 20/26/1 18/22/1 17/21/1
f 21/25/4 22/26/4 20/24/4 19/23/4
f 23/27/1 24/28/1 22/26/1 21/25/1
f 25/29/4 26/30/4 24/26/4 23/25/4
f 27/31/1 28/32/1 26/28/1 25/27/1
f 29/33/4 30/34/4 28/30/4 27/29/4
f 31/35/1 32/36/1 30/32/1 29/31/1
f 33/37/4 34/38/4 32/34/4 31/33/4
f 481/612/2 482/613/2 480/611/2 479/610/2
f 482/616/4 481/617/4 484/615/4 483/614/4

usemtl JPBM12Concrete035_1K
f 37/41/3 38/42/3 36/40/3 35/39/3
f 100/129/4 101/130/4 34/67/4 33/46/4
f 449/576/2 450/577/2 448/575/2 447/119/2
f 450/580/4 449/581/4 452/579/4 451/578/4

usemtl JPBM12Plaster001_2KMatYellow
f 258/314/1 44/55/1 48/54/1
f 258/314/1 48/54/1 102/131/1
f 259/315/1 258/314/1 102/131/1
f 42/46/5 40/44/5 39/43/5
f 39/43/5 41/45/5 42/46/5
f 42/51/6 45/50/6 43/47/6
f 43/47/6 40/52/6 42/51/6
f 40/57/1 43/56/1 46/53/1
f 46/53/1 39/58/1 40/57/1
f 46/62/7 47/59/7 41/64/7
f 41/64/7 39/63/7 46/62/7
f 52/68/5 50/66/5 49/65/5
f 49/65/5 51/67/5 52/68/5
f 55/70/7 53/69/7 51/64/7
f 51/64/7 49/63/7 55/70/7
f 50/72/1 56/71/1 55/74/1
f 55/74/1 49/73/1 50/72/1
f 58/78/6 56/77/6 50/52/6
f 50/52/6 52/51/6 58/78/6
f 70/85/1 67/83/1 72/87/1
f 72/87/1 71/86/1 70/85/1
f 73/88/7 75/93/7 72/92/7
f 72/92/7 67/91/7 73/88/7
f 77/95/1 76/94/1 79/97/1
f 79/97/1 78/96/1 77/95/1
f 81/99/7 83/103/7 78/102/7
f 78/102/7 79/101/7 81/99/7
f 85/109/2 86/114/2 83/113/2
f 83/113/2 81/112/2 85/109/2
f 93/124/7 95/123/7 94/122/7
f 94/122/7 92/125/7 93/124/7
f 94/122/7 95/123/7 99/103/7
f 99/103/7 98/128/7 94/122/7
f 77/144/3 89/142/3 106/141/3
f 106/141/3 102/143/3 77/144/3
f 240/292/6 239/291/6 242/293/6
f 242/293/6 241/134/6 240/292/6
f 248/313/3 257/311/3 256/310/3
f 256/310/3 241/312/3 248/313/3
f 241/134/6 242/293/6 258/316/6
f 258/316/6 259/107/6 241/134/6
f 340/264/1 339/429/1 336/426/1
f 336/426/1 341/201/1 340/264/1
f 342/432/7 341/431/7 336/430/7
f 336/430/7 343/433/7 342/432/7
f 347/440/6 346/439/6 339/436/6
f 339/436/6 340/441/6 347/440/6
f 394/511/7 392/510/7 397/445/7
f 397/445/7 398/298/7 394/511/7
f 413/542/3 414/40/3 417/39/3
f 417/39/3 419/541/3 413/542/3
f 440/566/3 438/564/3 437/563/3
f 437/563/3 439/565/3 440/566/3
f 444/570/2 442/568/2 441/567/2
f 441/567/2 443/569/2 444/570/2
f 446/574/7 445/572/7 442/571/7
f 442/571/7 444/573/7 446/574/7
f 456/301/4 454/300/4 453/307/4
f 453/307/4 455/504/4 456/301/4
f 459/585/2 458/583/2 457/582/2
f 457/582/2 444/584/2 459/585/2
f 461/589/3 457/587/3 458/586/3
f 458/586/3 460/588/3 461/589/3
f 459/593/6 463/591/6 462/590/6
f 462/590/6 464/592/6 459/593/6
f 466/596/2 465/595/2 463/594/2
f 463/594/2 459/585/2 466/596/2
f 468/598/6 467/597/6 465/591/6
f 465/591/6 466/593/6 468/598/6
f 470/600/2 469/599/2 467/595/2
f 467/595/2 468/596/2 470/600/2
f 478/608/7 397/445/7 447/606/7
f 447/606/7 477/607/7 478/608/7
f 488/620/6 486/619/6 485/618/6
f 485/618/6 487/598/6 488/620/6
f 490/600/2 489/577/2 486/621/2
f 486/621/2 488/622/2 490/600/2
f 492/624/6 491/623/6 467/597/6
f 467/597/6 468/598/6 492/624/6
f 494/626/2 493/625/2 491/595/2
f 491/595/2 492/596/2 494/626/2
f 496/630/7 495/628/7 493/627/7
f 493/627/7 494/629/7 496/630/7

usemtl JPBM12Plaster001_2KMatBlack
f 45/50/6 44/49/6 9/48/6 43/47/6
f 43/56/1 9/55/1 37/54/1 46/53/1
f 46/62/7 37/61/7 48/60/7 47/59/7
f 55/70/7 10/61/7 54/60/7 53/69/7
f 55/74/1 56/71/1 38/76/1 10/75/1
f 58/78/6 57/49/6 38/48/6 56/77/6
f 70/85/1 69/73/1 68/84/1 67/83/1
f 67/91/7 68/90/7 74/89/7 73/88/7
f 79/97/1 76/94/1 57/76/1 80/98/1
f 79/101/7 80/60/7 82/100/7 81/99/7
f 81/112/2 82/111/2 84/110/2 85/109/2
f 91/126/7 92/125/7 94/122/7 96/127/7
f 97/100/7 96/127/7 94/122/7 98/128/7
f 242/293/6 239/291/6 244/295/6 243/294/6
f 258/316/6 242/293/6 243/294/6 44/49/6
f 339/429/1 338/428/1 337/427/1 336/426/1
f 344/434/7 343/433/7 336/430/7 337/435/7
f 346/439/6 345/438/6 338/437/6 339/436/6

usemtl JPBM12MosaicGlassMatOnlyN
f 61/81/1 62/82/1 60/80/1 59/79/1
f 65/81/2 66/82/2 64/80/2 63/79/2
f 174/223/1 175/224/1 173/222/1 172/221/1
f 178/227/2 179/228/2 177/226/2 176/225/2
f 230/287/1 231/288/1 229/286/1 228/285/1
f 234/287/2 235/288/2 233/286/2 232/285/2

usemtl JPBM12Concrete029_2KMatYellow
f 76/108/6 84/104/6 57/49/6
f 85/105/6 84/104/6 76/108/6
f 77/107/6 85/105/6 76/108/6
f 77/107/6 86/106/6 85/105/6
f 93/121/2 92/120/2 90/114/2
f 92/120/2 88/110/2 90/114/2
f 92/120/2 91/119/2 88/110/2
f 89/117/6 87/115/6 84/104/6
f 84/104/6 86/106/6 89/117/6
f 104/133/1 77/95/1 102/131/1
f 102/131/1 103/132/1 104/133/1
f 105/136/6 89/134/6 77/107/6
f 77/107/6 104/135/6 105/136/6
f 103/138/7 102/102/7 106/123/7
f 106/123/7 107/137/7 103/138/7
f 105/140/4 104/68/4 103/45/4
f 103/45/4 107/139/4 105/140/4
f 110/147/1 104/133/1 108/145/1
f 108/145/1 109/146/1 110/147/1
f 111/149/6 105/136/6 104/135/6
f 104/135/6 110/148/6 111/149/6
f 109/151/7 108/138/7 112/137/7
f 112/137/7 113/150/7 109/151/7
f 116/154/1 110/147/1 114/152/1
f 114/152/1 115/153/1 116/154/1
f 117/156/6 111/149/6 110/148/6
f 110/148/6 116/155/6 117/156/6
f 119/160/2 118/158/2 111/157/2
f 111/157/2 117/159/2 119/160/2
f 115/162/7 114/151/7 118/150/7
f 118/150/7 119/161/7 115/162/7
f 117/140/4 116/68/4 115/45/4
f 115/45/4 119/139/4 117/140/4
f 110/144/3 111/142/3 118/141/3
f 118/141/3 114/143/3 110/144/3
f 121/164/1 120/163/1 103/132/1
f 103/132/1 114/152/1 121/164/1
f 123/149/6 122/136/6 120/135/6
f 120/135/6 121/148/6 123/149/6
f 114/151/7 103/138/7 107/137/7
f 107/137/7 118/150/7 114/151/7
f 102/102/7 48/60/7 237/127/7
f 237/127/7 106/123/7 102/102/7
f 246/154/1 408/529/1 407/528/1
f 407/528/1 388/153/1 246/154/1
f 410/533/6 409/531/6 408/530/6
f 408/530/6 246/532/6 410/533/6
f 412/160/2 411/535/2 409/534/2
f 409/534/2 410/159/2 412/160/2
f 388/299/7 407/537/7 411/536/7
f 411/536/7 412/538/7 388/299/7
f 410/540/4 246/302/4 388/503/4
f 388/503/4 412/539/4 410/540/4
f 408/542/3 409/40/3 411/39/3
f 411/39/3 407/541/3 408/542/3
f 416/546/6 414/544/6 413/543/6
f 413/543/6 415/545/6 416/546/6
f 418/550/2 417/548/2 414/547/2
f 414/547/2 416/549/2 418/550/2
f 420/554/7 419/552/7 417/551/7
f 417/551/7 418/553/7 420/554/7
f 416/540/4 415/302/4 420/503/4
f 420/503/4 418/539/4 416/540/4
f 424/531/6 422/546/6 421/545/6
f 421/545/6 423/530/6 424/531/6
f 411/535/2 418/550/2 422/555/2
f 422/555/2 424/556/2 411/535/2
f 407/537/7 420/554/7 418/553/7
f 418/553/7 411/536/7 407/537/7
f 409/531/6 416/546/6 415/545/6
f 415/545/6 408/530/6 409/531/6
f 426/558/2 425/557/2 416/549/2
f 416/549/2 409/534/2 426/558/2
f 428/537/7 427/554/7 425/553/7
f 425/553/7 426/536/7 428/537/7
f 432/531/6 430/546/6 429/545/6
f 429/545/6 431/530/6 432/531/6
f 434/562/2 433/560/2 430/559/2
f 430/559/2 432/561/2 434/562/2
f 436/537/7 435/554/7 433/553/7
f 433/553/7 434/536/7 436/537/7
f 472/603/6 448/601/6 349/508/6
f 349/508/6 471/602/6 472/603/6
f 473/605/2 35/454/2 448/575/2
f 448/575/2 472/604/2 473/605/2
f 474/608/7 351/445/7 35/606/7
f 35/606/7 473/607/7 474/608/7
f 476/603/6 36/601/6 396/508/6
f 396/508/6 475/602/6 476/603/6
f 477/569/2 447/119/2 36/110/2
f 36/110/2 476/609/2 477/569/2

usemtl JPBM12Concrete029_2KMatDark
f 89/117/6 90/118/6 88/116/6 87/115/6
f 238/290/7 106/123/7 237/127/7 236/289/7
f 117/156/6 246/297/6 245/296/6 89/134/6
f 249/299/7 250/161/7 248/123/7 247/298/7
f 249/301/4 246/302/4 117/140/4 250/300/4
f 252/156/6 253/304/6 251/303/6 241/134/6
f 255/306/7 119/161/7 106/123/7 254/305/7
f 255/308/4 253/309/4 252/307/4 119/139/4
f 310/390/6 311/391/6 309/389/6 308/388/6
f 314/393/7 315/394/7 313/392/7 312/298/7
f 318/396/6 319/397/6 317/395/6 316/292/6
f 321/399/7 322/400/7 238/290/7 320/398/7
f 321/403/4 319/404/4 318/402/4 322/401/4
f 325/407/6 326/408/6 324/406/6 323/405/6
f 329/411/7 330/412/7 328/410/7 327/409/7
f 328/415/3 323/416/3 324/414/3 327/413/3
f 329/152/1 326/418/1 317/417/1 320/131/1
f 326/408/6 332/390/6 331/388/6 317/395/6
f 315/394/7 329/411/7 320/398/7 313/392/7
f 334/420/6 325/421/6 316/419/6 333/303/6
f 325/424/2 330/158/2 238/423/2 316/422/2
f 330/412/7 335/425/7 254/305/7 238/290/7
f 350/444/6 309/296/6 349/443/6 348/442/6
f 312/298/7 353/447/7 352/446/7 351/445/7
f 356/131/1 357/417/1 355/448/1 354/54/1
f 357/451/6 359/452/6 358/450/6 355/449/6
f 359/422/2 361/423/2 360/454/2 358/453/2
f 361/457/7 356/458/7 354/456/7 360/455/7
f 363/460/6 364/461/6 362/459/6 358/450/6
f 366/463/7 367/464/7 360/455/7 365/462/7
f 366/467/4 364/468/4 363/466/4 367/465/4
f 369/470/6 370/471/6 355/449/6 368/469/6
f 372/473/7 373/474/7 371/472/7 354/456/7
f 372/477/4 370/478/4 369/476/4 373/475/4
f 376/481/6 357/451/6 375/480/6 374/479/6
f 356/458/7 379/484/7 378/483/7 377/482/7
f 378/487/3 374/488/3 375/486/3 377/485/3
f 359/452/6 382/491/6 381/490/6 380/489/6
f 385/494/7 361/457/7 384/493/7 383/492/7
f 384/497/3 380/498/3 381/496/3 383/495/3
f 253/304/6 387/297/6 311/500/6 386/499/6
f 388/299/7 255/306/7 335/502/7 314/501/7
f 388/503/4 387/504/4 253/309/4 255/308/4
f 385/131/1 382/417/1 362/448/1 365/54/1
f 382/491/6 390/444/6 389/442/6 362/459/6
f 353/447/7 385/494/7 365/462/7 352/446/7
f 316/292/6 376/481/6 368/469/6 391/295/6
f 376/422/2 379/423/2 371/454/2 368/453/2
f 379/484/7 238/290/7 236/289/7 371/472/7
f 394/506/1 395/95/1 393/76/1 392/505/1
f 395/509/6 245/389/6 396/508/6 393/507/6
f 399/512/6 400/513/6 393/507/6 88/116/6
f 401/514/7 402/515/7 91/126/7 392/510/7
f 401/518/4 400/519/4 399/517/4 402/516/4
f 90/118/6 395/509/6 404/521/6 403/520/6
f 394/511/7 93/124/7 406/523/7 405/522/7
f 406/526/3 403/527/3 404/525/3 405/524/3

usemtl JPBM12Metal001Mat
f 126/167/1 127/168/1 125/166/1 124/165/1
f 130/171/2 131/172/2 129/170/2 128/169/2
f 131/175/4 130/176/4 127/174/4 126/173/4
f 124/179/3 125/180/3 128/178/3 129/177/3
f 134/183/1 135/184/1 133/182/1 132/181/1
f 138/187/2 139/188/2 137/186/2 136/185/2
f 142/191/7 143/192/7 141/190/7 140/189/7
f 144/168/8 141/193/8 132/181/8 133/182/8
f 141/193/9 143/194/9 134/183/9 132/181/9
f 145/195/10 144/168/10 133/182/10 135/184/10
f 143/194/11 145/195/11 135/184/11 134/183/11
f 140/196/12 146/171/12 136/185/12 137/186/12
f 138/187/13 136/185/13 146/171/13 147/197/13
f 142/198/14 140/196/14 137/186/14 139/188/14
f 147/197/15 142/198/15 139/188/15 138/187/15
f 150/200/1 151/201/1 149/195/1 148/199/1
f 154/203/2 155/204/2 153/202/2 152/197/2
f 148/179/3 149/180/3 152/178/3 153/177/3
f 158/207/1 159/208/1 157/206/1 156/205/1
f 162/211/6 163/212/6 161/210/6 160/209/6
f 166/215/2 167/216/2 165/214/2 164/213/2
f 168/172/12 161/217/12 164/213/12 165/214/12
f 166/215/13 164/213/13 161/217/13 163/218/13
f 169/202/14 168/172/14 165/214/14 167/216/14
f 163/218/15 169/202/15 167/216/15 166/215/15
f 160/219/8 170/167/8 156/205/8 157/206/8
f 170/167/9 171/199/9 158/207/9 156/205/9
f 162/220/10 160/219/10 157/206/10 159/208/10
f 171/199/11 162/220/11 159/208/11 158/207/11
f 182/231/1 183/232/1 181/230/1 180/229/1
f 186/235/2 187/236/2 185/234/2 184/233/2
f 187/239/4 186/240/4 183/238/4 182/237/4
f 180/243/3 181/244/3 184/242/3 185/241/3
f 190/247/1 191/248/1 189/246/1 188/245/1
f 194/251/2 195/252/2 193/250/2 192/249/2
f 198/255/7 199/256/7 197/254/7 196/253/7
f 200/232/8 197/257/8 188/245/8 189/246/8
f 197/257/9 199/258/9 190/247/9 188/245/9
f 201/259/10 200/232/10 189/246/10 191/248/10
f 199/258/11 201/259/11 191/248/11 190/247/11
f 196/260/12 202/235/12 192/249/12 193/250/12
f 194/251/13 192/249/13 202/235/13 203/261/13
f 198/262/14 196/260/14 193/250/14 195/252/14
f 203/261/15 198/262/15 195/252/15 194/251/15
f 206/264/1 207/265/1 205/259/1 204/263/1
f 210/267/2 211/268/2 209/266/2 208/261/2
f 204/243/3 205/244/3 208/242/3 209/241/3
f 214/271/1 215/272/1 213/270/1 212/269/1
f 218/275/6 219/276/6 217/274/6 216/273/6
f 222/279/2 223/280/2 221/278/2 220/277/2
f 224/236/12 217/281/12 220/277/12 221/278/12
f 222/279/13 220/277/13 217/281/13 219/282/13
f 225/266/14 224/236/14 221/278/14 223/280/14
f 219/282/15 225/266/15 223/280/15 222/279/15
f 216/283/8 226/231/8 212/269/8 213/270/8
f 226/231/9 227/263/9 214/271/9 212/269/9
f 218/284/10 216/283/10 213/270/10 215/272/10
f 227/263/11 218/284/11 215/272/11 214/271/11
f 262/318/1 263/319/1 261/84/1 260/317/1
f 263/322/6 265/323/6 264/321/6 261/320/6
f 265/326/2 267/327/2 266/325/2 264/324/2
f 267/330/7 262/331/7 260/329/7 266/328/7
f 267/334/4 265/335/4 263/333/4 262/332/4
f 270/338/1 271/339/1 269/337/1 268/336/1
f 274/342/6 275/343/6 273/341/6 272/340/6
f 278/346/2 279/347/2 277/345/2 276/344/2
f 282/350/7 283/351/7 281/349/7 280/348/7
f 272/319/8 281/352/8 268/336/8 269/337/8
f 281/352/9 283/353/9 270/338/9 268/336/9
f 274/354/10 272/319/10 269/337/10 271/339/10
f 283/353/11 274/354/11 271/339/11 270/338/11
f 280/355/12 273/326/12 276/344/12 277/345/12
f 278/346/13 276/344/13 273/326/13 275/356/13
f 282/357/14 280/355/14 277/345/14 279/347/14
f 275/356/15 282/357/15 279/347/15 278/346/15
f 286/360/1 287/361/1 285/359/1 284/358/1
f 290/342/6 291/343/6 289/341/6 288/340/6
f 294/364/2 295/365/2 293/363/2 292/362/2
f 298/350/7 299/351/7 297/349/7 296/348/7
f 296/327/12 289/366/12 292/362/12 293/363/12
f 294/364/13 292/362/13 289/366/13 291/367/13
f 298/368/14 296/327/14 293/363/14 295/365/14
f 291/367/15 298/368/15 295/365/15 294/364/15
f 288/369/8 297/318/8 284/358/8 285/359/8
f 297/318/9 299/370/9 286/360/9 284/358/9
f 290/371/10 288/369/10 285/359/10 287/361/10
f 299/370/11 290/371/11 287/361/11 286/360/11
f 302/372/1 303/373/1 301/354/1 300/370/1
f 303/376/6 305/377/6 304/375/6 301/374/6
f 305/378/2 307/379/2 306/368/2 304/356/2
f 307/382/7 302/383/7 300/381/7 306/380/7
f 307/334/4 305/335/4 303/333/4 302/332/4
f 300/386/3 301/387/3 304/385/3 306/384/3

usemtl JPBM12Plastic013B_1KGray
f 499/633/18 500/634/19 498/632/17 497/631/16
f 501/637/20 502/638/21 500/636/19 499/635/18
f 503/641/22 504/642/23 502/640/21 501/639/20
f 505/643/24 506/644/25 504/642/23 503/641/22
f 507/647/26 508/648/27 506/646/25 505/645/24
f 497/631/16 498/632/17 508/650/27 507/649/26
f 510/658/28 511/659/29 504/642/23 506/644/25
f 512/660/30 510/661/28 506/646/25 508/648/27
f 513/662/31 512/663/30 508/650/27 498/632/17
f 511/659/29 514/664/32 502/640/21 504/642/23
f 514/665/32 515/666/33 500/636/19 502/638/21
f 515/667/33 513/662/31 498/632/17 500/634/19
f 516/670/34 517/671/35 511/669/29 510/668/28
f 518/672/36 516/673/34 510/661/28 512/660/30
f 519/676/37 518/677/36 512/675/30 513/674/31
f 517/671/35 520/679/38 514/678/32 511/669/29
f 520/680/38 521/681/39 515/666/33 514/665/32
f 521/683/39 519/676/37 513/674/31 515/682/33
f 524/686/24 525/687/41 523/685/40 522/684/22
f 526/688/26 527/689/42 525/636/41 524/635/24
f 528/692/16 529/693/43 527/691/42 526/690/26
f 530/694/18 531/695/44 529/693/43 528/692/16
f 532/647/20 533/648/45 531/697/44 530/696/18
f 522/684/22 523/685/40 533/699/45 532/698/20
f 535/707/46 536/708/47 529/693/43 531/695/44
f 537/660/48 535/661/46 531/697/44 533/648/45
f 538/709/49 537/710/48 533/699/45 523/685/40
f 536/708/47 539/711/50 527/691/42 529/693/43
f 539/665/50 540/666/51 525/636/41 527/689/42
f 540/712/51 538/709/49 523/685/40 525/687/41
f 541/715/52 542/716/53 536/714/47 535/713/46
f 543/672/54 541/673/52 535/661/46 537/660/48
f 544/719/55 543/720/54 537/718/48 538/717/49
f 542/716/53 545/722/56 539/721/50 536/714/47
f 545/680/56 546/681/57 540/666/51 539/665/50
f 546/724/57 544/719/55 538/717/49 540/723/51
f 549/727/59 550/728/60 548/726/58 547/725/6
f 551/731/61 552/732/62 550/730/60 549/729/59
f 553/735/7 554/736/63 552/734/62 551/733/61
f 555/737/64 556/738/65 554/736/63 553/735/7
f 557/741/66 558/742/67 556/740/65 555/739/64
f 547/725/6 548/726/58 558/744/67 557/743/66
f 566/752/69 567/753/70 552/734/62 554/736/63
f 567/754/70 568/755/71 550/730/60 552/732/62
f 568/756/71 569/757/72 548/726/58 550/728/60
f 569/757/72 570/758/73 558/744/67 548/726/58
f 570/761/73 571/762/74 556/760/65 558/759/67
f 571/763/74 566/752/69 554/736/63 556/738/65
f 563/764/75 561/765/76 567/753/70 566/752/69
f 561/768/76 560/769/77 568/767/71 567/766/70
f 560/770/77 559/771/78 569/757/72 568/756/71
f 559/771/78 565/772/79 570/758/73 569/757/72
f 565/773/79 564/774/80 571/762/74 570/761/73
f 564/775/80 563/764/75 566/752/69 571/763/74
f 574/727/59 575/728/60 573/726/58 572/725/6
f 576/778/61 577/779/62 575/777/60 574/776/59
f 578/735/7 579/736/63 577/734/62 576/733/61
f 580/737/64 581/738/65 579/736/63 578/735/7
f 582/782/66 583/783/67 581/781/65 580/780/64
f 572/725/6 573/726/58 583/744/67 582/743/66
f 591/752/69 592/753/70 577/734/62 579/736/63
f 592/791/70 593/792/71 575/777/60 577/779/62
f 593/756/71 594/757/72 573/726/58 575/728/60
f 594/757/72 595/758/73 583/744/67 573/726/58
f 595/795/73 596/796/74 581/794/65 583/793/67
f 596/763/74 591/752/69 579/736/63 581/738/65
f 588/764/75 586/765/76 592/753/70 591/752/69
f 586/799/76 585/800/77 593/798/71 592/797/70
f 585/770/77 584/771/78 594/757/72 593/756/71
f 584/771/78 590/772/79 595/758/73 594/757/72
f 590/801/79 589/802/80 596/796/74 595/795/73
f 589/775/80 588/764/75 591/752/69 596/763/74

usemtl Black
f 503/654/22 509/655/3 505/656/24
f 499/652/18 509/655/3 501/653/20
f 501/653/20 509/655/3 503/654/22
f 497/651/16 509/655/3 499/652/18
f 507/657/26 509/655/3 497/651/16
f 505/656/24 509/655/3 507/657/26
f 528/703/16 534/704/3 530/705/18
f 524/701/24 534/704/3 526/702/26
f 526/702/26 534/704/3 528/703/16
f 522/700/22 534/704/3 524/701/24
f 532/706/20 534/704/3 522/700/22
f 530/705/18 534/704/3 532/706/20
f 563/749/68 562/748/68 561/747/68
f 561/747/68 562/748/68 560/746/68
f 560/746/68 562/748/68 559/745/68
f 559/745/68 562/748/68 565/751/68
f 565/751/68 562/748/68 564/750/68
f 564/750/68 562/748/68 563/749/68
f 588/788/68 587/787/68 586/786/68
f 586/786/68 587/787/68 585/785/68
f 585/785/68 587/787/68 584/784/68
f 584/784/68 587/787/68 590/790/68
f 590/790/68 587/787/68 589/789/68
f 589/789/68 587/787/68 588/788/68

usemtl JPBM7LampMatOff
f 599/805/3 600/806/3 598/804/3 597/803/3
f 629/9/3 630/10/3 628/846/3 627/845/3

