# ProBuilder 5.0.6
# https://unity3d.com/unity/features/worldbuilding/probuilder
# 2025-11-13 오후 12:40:07

mtllib ./JPBM12OutdoorUnitFanBlades.mtl
o JPBM12OutdoorUnitFanBlades

g JPBM12OutdoorUnitFanBlades
v 0.103792 0.2260352 0.09999117
v 0.1037908 0.05818092 0.07418822
v 0.05380297 0.04999871 0.08660895
v 0.053804 0.2260357 -1.485329E-05
v 0.05380316 0.09999813 1.425683E-07
v 0.103791 0.0999978 5.914182E-08
v 0.1037898 -0.1215755 0.2047573
v 0.1037899 -0.0752152 0.04170197
v 0.05380197 -0.08652534 0.03204321
v 0.05380271 -0.02234349 0.2171477
v 0.0538026 -0.006771632 0.09239191
v 0.1037904 -0.006771966 0.09239183
v 0.1037896 -0.04837821 -0.2310489
v 0.1037904 0.03450724 -0.08357248
v 0.05380268 0.04933149 -0.08480833
v 0.05380136 -0.1270561 -0.1693272
v 0.05380204 -0.04967903 -0.0706789
v 0.1037899 -0.04967936 -0.07067898
v 0.1499946 0.08660017 0.05000302
v 6.601116E-07 0.09999849 2.323613E-07
v 0.1499946 0.09999749 -1.79691E-08
v 6.541268E-07 0.08660117 0.05000327
v 0.1499944 0.04999807 0.08660878
v 4.708741E-07 0.04999907 0.08660904
v 0.1499941 -1.209947E-06 0.1000059
v 1.59452E-07 -2.086296E-07 0.1000062
v 0.1499937 -0.05000423 0.08660857
v -1.967134E-07 -0.05000323 0.08660883
v 0.1499934 -0.08660622 0.05000266
v -5.02151E-07 -0.08660522 0.05000291
v 0.1499932 -0.1000033 -4.352022E-07
v -6.750382E-07 -0.1000023 -1.848718E-07
v 0.1499933 -0.08660601 -0.05000347
v -6.690535E-07 -0.08660501 -0.05000322
v 0.1499934 -0.05000387 -0.08660924
v -4.858006E-07 -0.05000287 -0.08660899
v 0.1499937 -7.926876E-07 -0.1000064
v -1.743531E-07 2.086296E-07 -0.1000061
v 0.1499941 0.04999843 -0.08660904
v 1.817869E-07 0.04999943 -0.08660878
v 0.1499944 0.08660038 -0.05000311
v 4.872242E-07 0.08660138 -0.05000286
v -7.450541E-09 1.941459E-16 2.374874E-08

vt 0.06087012 0.08777352
vt 0.06768029 -0.0819158
vt 0.01618679 -0.09018777
vt 0.02122193 0.1055689
vt 0.02122193 -0.0204687
vt -0.02877808 -0.0204687
vt 0.01929277 0.01083466
vt 0.02610119 -0.1585495
vt -0.02539226 -0.1668219
vt 0.02122193 0.003778145
vt 0.02122193 -0.1219485
vt -0.02877808 -0.1219485
vt -0.03028286 0.00893379
vt -0.02345551 -0.1600932
vt -0.07496257 -0.1683685
vt 0.07877808 0.0140056
vt 0.07877807 -0.1113627
vt 0.02877807 -0.1113627
vt -0.2260285 0.1055727
vt -0.14045 -0.0679196
vt -0.2260134 -0.01614662
vt -0.1194742 0.1143622
vt 0.1287141 0.0981737
vt 0.2263057 -0.01148987
vt 0.1538976 -0.05632983
vt 0.2154131 0.12366
vt -0.002895776 -0.04089328
vt -0.0546596 -0.1908933
vt -0.05465959 -0.04089328
vt -0.002895784 -0.1908933
vt 0.05466108 0.1492175
vt 0.002897259 -0.0007825419
vt 0.002897259 0.1492175
vt 0.05466108 -0.0007825419
vt 0.05466146 0.08766794
vt 0.002897644 -0.06233206
vt 0.002897644 0.08766794
vt 0.05466146 -0.06233206
vt 0.05466145 0.02272861
vt 0.002897646 -0.1272714
vt 0.002897646 0.02272861
vt 0.05466145 -0.1272714
vt 0.05466105 -0.02821585
vt 0.002897244 -0.1782159
vt 0.002897244 -0.02821585
vt 0.05466105 -0.1782159
vt 0.05466039 -0.05149825
vt 0.002896566 -0.2014983
vt 0.002896566 -0.05149825
vt 0.05466039 -0.2014983
vt 0.05465956 -0.04089329
vt 0.002895761 -0.1908933
vt 0.002895761 -0.04089329
vt 0.05465956 -0.1908933
vt -0.002897218 0.1492175
vt -0.05466106 -0.0007825494
vt -0.05466105 0.1492175
vt -0.002897225 -0.0007825494
vt -0.002897644 0.08766553
vt -0.05466145 -0.06233447
vt -0.05466145 0.08766553
vt -0.002897652 -0.06233447
vt -0.002897641 0.0227264
vt -0.05466145 -0.1272736
vt -0.05466145 0.0227264
vt -0.002897648 -0.1272736
vt -0.002897255 -0.02821585
vt -0.05466107 -0.1782159
vt -0.05466106 -0.02821585
vt -0.002897263 -0.1782159
vt -0.002896545 -0.05149825
vt -0.05466039 -0.2014983
vt -0.05466039 -0.05149825
vt -0.002896553 -0.2014983
vt -0.2236223 0.08515612
vt -0.1380403 -0.08802605
vt -0.2236131 -0.03624749
vt -0.1170589 0.09395694
vt 0.1280577 0.09307714
vt 0.2256332 -0.01622882
vt 0.1532292 -0.06108319
vt 0.2147115 0.1186283
vt -0.2433472 0.07313664
vt -0.1577955 -0.09970064
vt -0.2433602 -0.04791315
vt -0.1367843 0.0819331
vt 0.1029644 0.09211715
vt 0.2005331 -0.01677606
vt 0.128143 -0.06164472
vt 0.1895702 0.117746
vt -0.0754581 -0.107094
vt -0.1254614 -0.1204887
vt -0.1254582 -0.02048874
vt -0.03885503 -0.07049155
vt -0.17546 -0.1070907
vt -0.02545625 -0.02049198
vt -0.2120607 -0.07048593
vt -0.03885178 0.02950845
vt -0.2254562 -0.02048549
vt -0.07545248 0.06611323
vt -0.2120575 0.02951407
vt -0.1254549 0.07951126
vt -0.1754544 0.06611648

vn 0.2610799 -0.1466698 0.9541097
vn -1.669731E-06 -0.0001189792 -1
vn 0.2610932 -0.9285127 -0.2639972
vn 6.831026E-06 0.9923 0.1238576
vn 0.2612398 0.8414792 -0.4729339
vn -4.222643E-06 -0.7868306 0.617169
vn -0.9678802 0.1110073 0.2255776
vn -1 6.675718E-06 1.668937E-06
vn -0.8735865 0.214877 0.436663
vn 0.9599538 0.1741167 -0.2194814
vn 1 -6.675718E-06 -1.668937E-06
vn 0.8430211 0.3342944 -0.4213819
vn 6.880204E-06 0.9659304 0.2588019
vn 5.900739E-06 0.7071421 0.7070714
vn 3.339858E-06 0.2588167 0.9659265
vn -1.15615E-07 -0.2588024 0.9659303
vn -3.540645E-06 -0.7071447 0.7070689
vn -6.016371E-06 -0.9659316 0.2587976
vn -6.880204E-06 -0.9659305 -0.2588017
vn -5.900738E-06 -0.7071418 -0.7070717
vn -3.339741E-06 -0.2587979 -0.9659315
vn 1.157429E-07 0.2588204 -0.9659255
vn 3.54065E-06 0.7071452 -0.7070683
vn 6.016369E-06 0.9659315 -0.2587979
vn -0.9678626 -0.237601 0.08238797
vn -0.8735132 -0.4599362 0.1594785
vn 0.9598895 0.1961162 0.2003764
vn 0.8427724 0.3765057 0.3846793
vn -0.9678389 0.1087145 -0.226868
vn -0.8734249 0.2104297 -0.4391451
vn 0.9598125 -0.2806328 -0.00227845
vn 0.8424838 -0.5387041 -0.004372111

usemtl Plastic013B_1K
f 3/3/1 2/2/1 1/1/1
f 6/6/2 5/5/2 4/4/2
f 9/9/3 8/8/3 7/7/3
f 12/12/4 11/11/4 10/10/4
f 15/15/5 14/14/5 13/13/5
f 18/18/6 17/17/6 16/16/6
f 5/21/8 3/20/7 4/19/7
f 1/22/9 4/19/7 3/20/7
f 2/25/11 6/24/10 1/23/10
f 4/26/12 1/23/10 6/24/10
f 11/77/8 9/76/25 10/75/25
f 7/78/26 10/75/25 9/76/25
f 8/81/11 12/80/27 7/79/27
f 10/82/28 7/79/27 12/80/27
f 17/85/8 15/84/29 16/83/29
f 13/86/30 16/83/29 15/84/29
f 14/89/11 18/88/31 13/87/31
f 16/90/32 13/87/31 18/88/31
f 19/27/13 21/29/13 20/28/13
f 20/28/13 22/30/13 19/27/13
f 23/31/14 19/33/14 22/32/14
f 22/32/14 24/34/14 23/31/14
f 25/35/15 23/37/15 24/36/15
f 24/36/15 26/38/15 25/35/15
f 27/39/16 25/41/16 26/40/16
f 26/40/16 28/42/16 27/39/16
f 29/43/17 27/45/17 28/44/17
f 28/44/17 30/46/17 29/43/17
f 31/47/18 29/49/18 30/48/18
f 30/48/18 32/50/18 31/47/18
f 33/51/19 31/53/19 32/52/19
f 32/52/19 34/54/19 33/51/19
f 35/55/20 33/57/20 34/56/20
f 34/56/20 36/58/20 35/55/20
f 37/59/21 35/61/21 36/60/21
f 36/60/21 38/62/21 37/59/21
f 39/63/22 37/65/22 38/64/22
f 38/64/22 40/66/22 39/63/22
f 41/67/23 39/69/23 40/68/23
f 40/68/23 42/70/23 41/67/23
f 21/71/24 41/73/24 42/72/24
f 42/72/24 20/74/24 21/71/24
f 43/93/8 38/92/8 36/91/8
f 36/91/8 34/94/8 43/93/8
f 42/97/8 40/95/8 38/92/8
f 38/92/8 43/93/8 42/97/8
f 43/93/8 34/94/8 32/96/8
f 32/96/8 30/98/8 43/93/8
f 22/101/8 20/99/8 42/97/8
f 42/97/8 43/93/8 22/101/8
f 43/93/8 30/98/8 28/100/8
f 28/100/8 26/102/8 43/93/8
f 26/102/8 24/103/8 22/101/8
f 22/101/8 43/93/8 26/102/8

