# ProBuilder 4.1.0
# https://unity3d.com/unity/features/worldbuilding/probuilder
# 2024-04-13 PM 6:14:31

mtllib ./JPBM12OutdoorUnit.mtl
o JPBM12OutdoorUnit

g JPBM12OutdoorUnit
v -0.418396 -0.650959 -1.077011
v -0.4620056 -0.6121826 -1.077011
v -0.4187927 -0.6459732 -1.068344
v -0.4570007 -0.6121826 -1.068344
v -0.4195862 -0.635994 -1.068344
v -0.446991 -0.6121826 -1.068344
v -0.4199829 -0.6310387 -1.077011
v -0.4420166 -0.6121826 -1.077011
v -0.4195862 -0.635994 -1.085678
v -0.446991 -0.6121826 -1.085678
v -0.4187927 -0.6459732 -1.085678
v -0.4570007 -0.6121826 -1.085678
v -0.4620056 -0.0005187988 -1.077011
v -0.4570007 -0.0005187988 -1.068344
v -0.446991 -0.0005187988 -1.068344
v -0.4420166 -0.0005187988 -1.077011
v -0.446991 -0.0005187988 -1.085678
v -0.4570007 -0.0005187988 -1.085678
v -0.4221497 0.02833176 -1.077011
v -0.4224548 0.0233345 -1.068344
v -0.4230042 0.01334 -1.068344
v -0.4233093 0.00837326 -1.077011
v -0.4230042 0.01334 -1.085678
v -0.4224548 0.0233345 -1.085678
v -0.418396 -0.650959 -1.327011
v -0.4620056 -0.6121826 -1.327011
v -0.4187927 -0.6459732 -1.318344
v -0.4570007 -0.6121826 -1.318344
v -0.4195862 -0.635994 -1.318344
v -0.446991 -0.6121826 -1.318344
v -0.4199829 -0.6310387 -1.327011
v -0.4420166 -0.6121826 -1.327011
v -0.4195862 -0.635994 -1.335678
v -0.446991 -0.6121826 -1.335678
v -0.4187927 -0.6459732 -1.335678
v -0.4570007 -0.6121826 -1.335678
v -0.4620056 -0.0005187988 -1.327011
v -0.4570007 -0.0005187988 -1.318344
v -0.446991 -0.0005187988 -1.318344
v -0.4420166 -0.0005187988 -1.327011
v -0.446991 -0.0005187988 -1.335678
v -0.4570007 -0.0005187988 -1.335678
v -0.4221497 0.02833176 -1.327011
v -0.4224548 0.0233345 -1.318344
v -0.4230042 0.01334 -1.318344
v -0.4233093 0.00837326 -1.327011
v -0.4230042 0.01334 -1.335678
v -0.4224548 0.0233345 -1.335678
v -0.418396 -0.650959 -1.126999
v -0.4620056 -0.6121826 -1.126999
v -0.4187927 -0.6459732 -1.118332
v -0.4570007 -0.6121826 -1.118332
v -0.4195862 -0.635994 -1.118332
v -0.446991 -0.6121826 -1.118332
v -0.4199829 -0.6310387 -1.126999
v -0.4420166 -0.6121826 -1.126999
v -0.4195862 -0.635994 -1.135666
v -0.446991 -0.6121826 -1.135666
v -0.4187927 -0.6459732 -1.135666
v -0.4570007 -0.6121826 -1.135666
v -0.4620056 -0.0005187988 -1.126999
v -0.4570007 -0.0005187988 -1.118332
v -0.446991 -0.0005187988 -1.118332
v -0.4420166 -0.0005187988 -1.126999
v -0.446991 -0.0005187988 -1.135666
v -0.4570007 -0.0005187988 -1.135666
v -0.4221497 0.02833176 -1.126999
v -0.4224548 0.0233345 -1.118332
v -0.4230042 0.01334 -1.118332
v -0.4233093 0.00837326 -1.126999
v -0.4230042 0.01334 -1.135666
v -0.4224548 0.0233345 -1.135666
v -0.418396 -0.650959 -0.8769989
v -0.4620056 -0.6121826 -0.8769989
v -0.4187927 -0.6459732 -0.8683319
v -0.4570007 -0.6121826 -0.8683319
v -0.4195862 -0.635994 -0.8683319
v -0.446991 -0.6121826 -0.8683319
v -0.4199829 -0.6310387 -0.8769989
v -0.4420166 -0.6121826 -0.8769989
v -0.4195862 -0.635994 -0.8856659
v -0.446991 -0.6121826 -0.8856659
v -0.4187927 -0.6459732 -0.8856659
v -0.4570007 -0.6121826 -0.8856659
v -0.4620056 -0.0005187988 -0.8769989
v -0.4570007 -0.0005187988 -0.8683319
v -0.446991 -0.0005187988 -0.8683319
v -0.4420166 -0.0005187988 -0.8769989
v -0.446991 -0.0005187988 -0.8856659
v -0.4570007 -0.0005187988 -0.8856659
v -0.4221497 0.02833176 -0.8769989
v -0.4224548 0.0233345 -0.8683319
v -0.4230042 0.01334 -0.8683319
v -0.4233093 0.00837326 -0.8769989
v -0.4230042 0.01334 -0.8856659
v -0.4224548 0.0233345 -0.8856659
v -0.418396 -0.650959 -1.177002
v -0.4620056 -0.6121826 -1.177002
v -0.4187927 -0.6459732 -1.168335
v -0.4570007 -0.6121826 -1.168335
v -0.4195862 -0.635994 -1.168335
v -0.446991 -0.6121826 -1.168335
v -0.4199829 -0.6310387 -1.177002
v -0.4420166 -0.6121826 -1.177002
v -0.4195862 -0.635994 -1.185669
v -0.446991 -0.6121826 -1.185669
v -0.4187927 -0.6459732 -1.185669
v -0.4570007 -0.6121826 -1.185669
v -0.4620056 -0.0005187988 -1.177002
v -0.4570007 -0.0005187988 -1.168335
v -0.446991 -0.0005187988 -1.168335
v -0.4420166 -0.0005187988 -1.177002
v -0.446991 -0.0005187988 -1.185669
v -0.4570007 -0.0005187988 -1.185669
v -0.4221497 0.02833176 -1.177002
v -0.4224548 0.0233345 -1.168335
v -0.4230042 0.01334 -1.168335
v -0.4233093 0.00837326 -1.177002
v -0.4230042 0.01334 -1.185669
v -0.4224548 0.0233345 -1.185669
v -0.418396 -0.650959 -1.277008
v -0.4620056 -0.6121826 -1.277008
v -0.4187927 -0.6459732 -1.268341
v -0.4570007 -0.6121826 -1.268341
v -0.4195862 -0.635994 -1.268341
v -0.446991 -0.6121826 -1.268341
v -0.4199829 -0.6310387 -1.277008
v -0.4420166 -0.6121826 -1.277008
v -0.4195862 -0.635994 -1.285675
v -0.446991 -0.6121826 -1.285675
v -0.4187927 -0.6459732 -1.285675
v -0.4570007 -0.6121826 -1.285675
v -0.4620056 -0.0005187988 -1.277008
v -0.4570007 -0.0005187988 -1.268341
v -0.446991 -0.0005187988 -1.268341
v -0.4420166 -0.0005187988 -1.277008
v -0.446991 -0.0005187988 -1.285675
v -0.4570007 -0.0005187988 -1.285675
v -0.4221497 0.02833176 -1.277008
v -0.4224548 0.0233345 -1.268341
v -0.4230042 0.01334 -1.268341
v -0.4233093 0.00837326 -1.277008
v -0.4230042 0.01334 -1.285675
v -0.4224548 0.0233345 -1.285675
v -0.418396 -0.650959 -1.227005
v -0.4620056 -0.6121826 -1.227005
v -0.4187927 -0.6459732 -1.218338
v -0.4570007 -0.6121826 -1.218338
v -0.4195862 -0.635994 -1.218338
v -0.446991 -0.6121826 -1.218338
v -0.4199829 -0.6310387 -1.227005
v -0.4420166 -0.6121826 -1.227005
v -0.4195862 -0.635994 -1.235672
v -0.446991 -0.6121826 -1.235672
v -0.4187927 -0.6459732 -1.235672
v -0.4570007 -0.6121826 -1.235672
v -0.4620056 -0.0005187988 -1.227005
v -0.4570007 -0.0005187988 -1.218338
v -0.446991 -0.0005187988 -1.218338
v -0.4420166 -0.0005187988 -1.227005
v -0.446991 -0.0005187988 -1.235672
v -0.4570007 -0.0005187988 -1.235672
v -0.4221497 0.02833176 -1.227005
v -0.4224548 0.0233345 -1.218338
v -0.4230042 0.01334 -1.218338
v -0.4233093 0.00837326 -1.227005
v -0.4230042 0.01334 -1.235672
v -0.4224548 0.0233345 -1.235672
v -0.418396 -0.650959 -1.376999
v -0.4620056 -0.6121826 -1.376999
v -0.4187927 -0.6459732 -1.368332
v -0.4570007 -0.6121826 -1.368332
v -0.4195862 -0.635994 -1.368332
v -0.446991 -0.6121826 -1.368332
v -0.4199829 -0.6310387 -1.376999
v -0.4420166 -0.6121826 -1.376999
v -0.4195862 -0.635994 -1.385666
v -0.446991 -0.6121826 -1.385666
v -0.4187927 -0.6459732 -1.385666
v -0.4570007 -0.6121826 -1.385666
v -0.4620056 -0.0005187988 -1.376999
v -0.4570007 -0.0005187988 -1.368332
v -0.446991 -0.0005187988 -1.368332
v -0.4420166 -0.0005187988 -1.376999
v -0.446991 -0.0005187988 -1.385666
v -0.4570007 -0.0005187988 -1.385666
v -0.4221497 0.02833176 -1.376999
v -0.4224548 0.0233345 -1.368332
v -0.4230042 0.01334 -1.368332
v -0.4233093 0.00837326 -1.376999
v -0.4230042 0.01334 -1.385666
v -0.4224548 0.0233345 -1.385666
v -0.418396 -0.650959 -0.927002
v -0.4620056 -0.6121826 -0.927002
v -0.4187927 -0.6459732 -0.918335
v -0.4570007 -0.6121826 -0.918335
v -0.4195862 -0.635994 -0.918335
v -0.446991 -0.6121826 -0.918335
v -0.4199829 -0.6310387 -0.927002
v -0.4420166 -0.6121826 -0.927002
v -0.4195862 -0.635994 -0.9356689
v -0.446991 -0.6121826 -0.9356689
v -0.4187927 -0.6459732 -0.9356689
v -0.4570007 -0.6121826 -0.9356689
v -0.4620056 -0.0005187988 -0.927002
v -0.4570007 -0.0005187988 -0.918335
v -0.446991 -0.0005187988 -0.918335
v -0.4420166 -0.0005187988 -0.927002
v -0.446991 -0.0005187988 -0.9356689
v -0.4570007 -0.0005187988 -0.9356689
v -0.4221497 0.02833176 -0.927002
v -0.4224548 0.0233345 -0.918335
v -0.4230042 0.01334 -0.918335
v -0.4233093 0.00837326 -0.927002
v -0.4230042 0.01334 -0.9356689
v -0.4224548 0.0233345 -0.9356689
v -0.418396 -0.650959 -1.027008
v -0.4620056 -0.6121826 -1.027008
v -0.4187927 -0.6459732 -1.018341
v -0.4570007 -0.6121826 -1.018341
v -0.4195862 -0.635994 -1.018341
v -0.446991 -0.6121826 -1.018341
v -0.4199829 -0.6310387 -1.027008
v -0.4420166 -0.6121826 -1.027008
v -0.4195862 -0.635994 -1.035675
v -0.446991 -0.6121826 -1.035675
v -0.4187927 -0.6459732 -1.035675
v -0.4570007 -0.6121826 -1.035675
v -0.4620056 -0.0005187988 -1.027008
v -0.4570007 -0.0005187988 -1.018341
v -0.446991 -0.0005187988 -1.018341
v -0.4420166 -0.0005187988 -1.027008
v -0.446991 -0.0005187988 -1.035675
v -0.4570007 -0.0005187988 -1.035675
v -0.4221497 0.02833176 -1.027008
v -0.4224548 0.0233345 -1.018341
v -0.4230042 0.01334 -1.018341
v -0.4233093 0.00837326 -1.027008
v -0.4230042 0.01334 -1.035675
v -0.4224548 0.0233345 -1.035675
v -0.418396 -0.650959 -0.977005
v -0.4620056 -0.6121826 -0.977005
v -0.4187927 -0.6459732 -0.968338
v -0.4570007 -0.6121826 -0.968338
v -0.4195862 -0.635994 -0.968338
v -0.446991 -0.6121826 -0.968338
v -0.4199829 -0.6310387 -0.977005
v -0.4420166 -0.6121826 -0.977005
v -0.4195862 -0.635994 -0.985672
v -0.446991 -0.6121826 -0.985672
v -0.4187927 -0.6459732 -0.985672
v -0.4570007 -0.6121826 -0.985672
v -0.4620056 -0.0005187988 -0.977005
v -0.4570007 -0.0005187988 -0.968338
v -0.446991 -0.0005187988 -0.968338
v -0.4420166 -0.0005187988 -0.977005
v -0.446991 -0.0005187988 -0.985672
v -0.4570007 -0.0005187988 -0.985672
v -0.4221497 0.02833176 -0.977005
v -0.4224548 0.0233345 -0.968338
v -0.4230042 0.01334 -0.968338
v -0.4233093 0.00837326 -0.977005
v -0.4230042 0.01334 -0.985672
v -0.4224548 0.0233345 -0.985672
v -0.418396 -0.650959 -0.8270111
v -0.4620056 -0.6121826 -0.8270111
v -0.4187927 -0.6459732 -0.8183441
v -0.4570007 -0.6121826 -0.8183441
v -0.4195862 -0.635994 -0.8183441
v -0.446991 -0.6121826 -0.8183441
v -0.4199829 -0.6310387 -0.8270111
v -0.4420166 -0.6121826 -0.8270111
v -0.4195862 -0.635994 -0.8356781
v -0.446991 -0.6121826 -0.8356781
v -0.4187927 -0.6459732 -0.8356781
v -0.4570007 -0.6121826 -0.8356781
v -0.4620056 -0.0005187988 -0.8270111
v -0.4570007 -0.0005187988 -0.8183441
v -0.446991 -0.0005187988 -0.8183441
v -0.4420166 -0.0005187988 -0.8270111
v -0.446991 -0.0005187988 -0.8356781
v -0.4570007 -0.0005187988 -0.8356781
v -0.4221497 0.02833176 -0.8270111
v -0.4224548 0.0233345 -0.8183441
v -0.4230042 0.01334 -0.8183441
v -0.4233093 0.00837326 -0.8270111
v -0.4230042 0.01334 -0.8356781
v -0.4224548 0.0233345 -0.8356781
v -0.418396 -0.650959 -1.427002
v -0.4620056 -0.6121826 -1.427002
v -0.4187927 -0.6459732 -1.418335
v -0.4570007 -0.6121826 -1.418335
v -0.4195862 -0.635994 -1.418335
v -0.446991 -0.6121826 -1.418335
v -0.4199829 -0.6310387 -1.427002
v -0.4420166 -0.6121826 -1.427002
v -0.4195862 -0.635994 -1.435669
v -0.446991 -0.6121826 -1.435669
v -0.4187927 -0.6459732 -1.435669
v -0.4570007 -0.6121826 -1.435669
v -0.4620056 -0.0005187988 -1.427002
v -0.4570007 -0.0005187988 -1.418335
v -0.446991 -0.0005187988 -1.418335
v -0.4420166 -0.0005187988 -1.427002
v -0.446991 -0.0005187988 -1.435669
v -0.4570007 -0.0005187988 -1.435669
v -0.4221497 0.02833176 -1.427002
v -0.4224548 0.0233345 -1.418335
v -0.4230042 0.01334 -1.418335
v -0.4233093 0.00837326 -1.427002
v -0.4230042 0.01334 -1.435669
v -0.4224548 0.0233345 -1.435669
v -0.125 -0.7845078 -1.449997
v -0.125 -0.7845078 -1.550003
v -0.125 0.2154922 -1.449997
v -0.125 0.2154922 -1.550003
v -0.0249939 -0.7845078 -1.550003
v -0.0249939 0.2154922 -1.550003
v -0.0249939 -0.7845078 -1.449997
v -0.0249939 0.2154922 -1.449997
v -0.0249939 -0.3599968 -1.449997
v 0.1750183 -0.3599968 -1.449997
v -0.0249939 -0.2099953 -1.449997
v 0.1750183 -0.2099953 -1.449997
v 0.2749939 -0.7845078 -1.550003
v 0.2749939 -0.7845078 -0.05000305
v 0.2749939 0.2154922 -1.550003
v 0.2749939 0.2154922 -0.05000305
v -0.4249878 -0.7845078 -0.05000305
v -0.4249878 0.2154922 -0.05000305
v -0.4249878 -0.7845078 -1.550003
v -0.4249878 0.2154922 -1.550003
v 0.1749878 -0.7845078 -1.449997
v 0.1749878 -0.7845078 -1.550003
v 0.1749878 0.2154922 -1.449997
v 0.1749878 0.2154922 -1.550003
v 0.1750183 -0.7845078 -1.550003
v -0.0249939 -0.584507 -1.550003
v 0.1750183 -0.584507 -1.550003
v 0.1750183 -0.584507 -1.449997
v -0.0249939 -0.584507 -1.449997
v -0.3249817 -0.7845078 -1.550003
v -0.3249817 0.2154922 -1.550003
v -0.3249817 -0.7845078 -1.449997
v -0.3249817 0.2154922 -1.449997
v -0.0249939 -0.4349976 -1.550003
v 0.1750183 -0.4349976 -1.550003
v -0.0249939 -0.3599968 -1.550003
v 0.1750183 -0.3599968 -1.550003
v 0.1750183 -0.4349976 -1.449997
v -0.0249939 -0.4349976 -1.449997
v -0.0249939 -0.2099953 -1.550003
v 0.1750183 -0.2099953 -1.550003
v -0.0249939 -0.1349945 -1.550003
v 0.1750183 -0.1349945 -1.550003
v 0.1750183 -0.1349945 -1.449997
v -0.0249939 -0.1349945 -1.449997
v -0.0249939 0.0150032 -1.550003
v 0.1750183 0.0150032 -1.550003
v 0.1750183 0.215004 -1.550003
v 0.1750183 0.0150032 -1.449997
v -0.0249939 0.0150032 -1.449997
v -0.3249817 -0.584507 -1.550003
v -0.125 -0.584507 -1.550003
v -0.125 -0.584507 -1.449997
v -0.3249817 -0.584507 -1.449997
v -0.3249817 -0.4349976 -1.550003
v -0.125 -0.4349976 -1.550003
v -0.3249817 -0.3599968 -1.550003
v -0.125 -0.3599968 -1.550003
v -0.125 -0.3599968 -1.449997
v -0.3249817 -0.3599968 -1.449997
v -0.125 -0.4349976 -1.449997
v -0.3249817 -0.4349976 -1.449997
v -0.3249817 -0.2099953 -1.550003
v -0.125 -0.2099953 -1.550003
v -0.3249817 -0.1349945 -1.550003
v -0.125 -0.1349945 -1.550003
v -0.125 -0.1349945 -1.449997
v -0.3249817 -0.1349945 -1.449997
v -0.125 -0.2099953 -1.449997
v -0.3249817 -0.2099953 -1.449997
v -0.3249817 0.0150032 -1.550003
v -0.125 0.0150032 -1.550003
v -0.125 0.0150032 -1.449997
v -0.3249817 0.0150032 -1.449997
v -0.4249878 0.1078415 -1.550003
v -0.4249878 -0.2940979 -0.05000305
v -0.4249573 -0.04570007 -0.977005
v -0.4249878 -0.1555252 -0.8671875
v -0.4249878 -0.7845078 -0.6986542
v -0.4249573 -0.3055077 -0.8270111
v -0.4249878 -0.3055077 -0.8269958
v -0.4249878 -0.7845078 -0.9553528
v -0.4249878 -0.4555283 -0.8672028
v -0.4249878 -0.7845078 -1.196198
v -0.4249878 -0.5653114 -0.9769897
v -0.4249878 -0.6747322 -1.38533
v -0.4249573 -0.6055069 -1.126999
v -0.4249878 -0.5653152 -1.277008
v -0.4249878 -0.4921684 -1.550003
v -0.4249573 -0.4555092 -1.38681
v -0.4249878 0.1043053 -1.536804
v -0.4249878 -0.2923203 -1.550018
v -0.4249573 -0.3055077 -1.427002
v -0.4249878 0.04940033 -1.331909
v -0.4249878 -0.1555099 -1.38681
v -0.4249878 0.0177002 -1.213593
v -0.4249878 -0.04569244 -1.276978
v -0.4249878 -0.005504608 -1.126984
v -0.236969 -0.005508423 -1.126999
v -0.236969 -0.04570007 -0.977005
v -0.236969 -0.1555099 -0.8672028
v -0.236969 -0.3055077 -0.8270111
v -0.236969 -0.4555092 -0.8672028
v -0.236969 -0.5653152 -0.977005
v -0.236969 -0.6055069 -1.126999
v -0.236969 -0.5653152 -1.277008
v -0.236969 -0.4555092 -1.38681
v -0.236969 -0.3055077 -1.427002
v -0.236969 -0.1555099 -1.38681
v -0.236969 -0.04570007 -1.277008
v -0.236969 -0.3055077 -1.126999
v -0.125 -0.1049957 -1.524002
v -0.3249817 -0.1049957 -1.524002
v -0.125 -0.09499741 -1.524002
v -0.3249817 -0.09499741 -1.524002
v -0.3249817 -0.1049957 -1.544006
v -0.125 -0.1049957 -1.544006
v -0.3249817 -0.09499741 -1.544006
v -0.125 -0.09499741 -1.544006
v 0.1750183 -0.3499947 -1.524002
v -0.0249939 -0.3499947 -1.524002
v 0.1750183 -0.3399963 -1.524002
v -0.0249939 -0.3399963 -1.524002
v -0.0249939 -0.3499947 -1.544006
v 0.1750183 -0.3499947 -1.544006
v -0.0249939 -0.3399963 -1.544006
v 0.1750183 -0.3399963 -1.544006
v 0.1750183 -0.3299942 -1.524002
v -0.0249939 -0.3299942 -1.524002
v 0.1750183 -0.3199959 -1.524002
v -0.0249939 -0.3199959 -1.524002
v -0.0249939 -0.3299942 -1.544006
v 0.1750183 -0.3299942 -1.544006
v -0.0249939 -0.3199959 -1.544006
v 0.1750183 -0.3199959 -1.544006
v -0.125 -0.5549965 -1.524002
v -0.3249817 -0.5549965 -1.524002
v -0.125 -0.5449982 -1.524002
v -0.3249817 -0.5449982 -1.524002
v -0.3249817 -0.5549965 -1.544006
v -0.125 -0.5549965 -1.544006
v -0.3249817 -0.5449982 -1.544006
v -0.125 -0.5449982 -1.544006
v 0.1750183 -0.3099937 -1.524002
v -0.0249939 -0.3099937 -1.524002
v 0.1750183 -0.2999954 -1.524002
v -0.0249939 -0.2999954 -1.524002
v -0.0249939 -0.3099937 -1.544006
v 0.1750183 -0.3099937 -1.544006
v -0.0249939 -0.2999954 -1.544006
v 0.1750183 -0.2999954 -1.544006
v -0.125 -0.2299995 -1.524002
v -0.3249817 -0.2299995 -1.524002
v -0.125 -0.2200012 -1.524002
v -0.3249817 -0.2200012 -1.524002
v -0.3249817 -0.2299995 -1.544006
v -0.125 -0.2299995 -1.544006
v -0.3249817 -0.2200012 -1.544006
v -0.125 -0.2200012 -1.544006
v -0.125 -0.4749985 -1.524002
v -0.3249817 -0.4749985 -1.524002
v -0.125 -0.4650002 -1.524002
v -0.3249817 -0.4650002 -1.524002
v -0.3249817 -0.4749985 -1.544006
v -0.125 -0.4749985 -1.544006
v -0.3249817 -0.4650002 -1.544006
v -0.125 -0.4650002 -1.544006
v 0.1750183 -0.5149956 -1.524002
v -0.0249939 -0.5149956 -1.524002
v 0.1750183 -0.5049973 -1.524002
v -0.0249939 -0.5049973 -1.524002
v -0.0249939 -0.5149956 -1.544006
v 0.1750183 -0.5149956 -1.544006
v -0.0249939 -0.5049973 -1.544006
v 0.1750183 -0.5049973 -1.544006
v 0.1750183 -0.5749969 -1.524002
v -0.0249939 -0.5749969 -1.524002
v 0.1750183 -0.5649986 -1.524002
v -0.0249939 -0.5649986 -1.524002
v -0.0249939 -0.5749969 -1.544006
v 0.1750183 -0.5749969 -1.544006
v -0.0249939 -0.5649986 -1.544006
v 0.1750183 -0.5649986 -1.544006
v 0.1750183 -0.2699966 -1.524002
v -0.0249939 -0.2699966 -1.524002
v 0.1750183 -0.2599983 -1.524002
v -0.0249939 -0.2599983 -1.524002
v -0.0249939 -0.2699966 -1.544006
v 0.1750183 -0.2699966 -1.544006
v -0.0249939 -0.2599983 -1.544006
v 0.1750183 -0.2599983 -1.544006
v -0.125 -0.02499771 -1.524002
v -0.3249817 -0.02499771 -1.524002
v -0.125 -0.01499939 -1.524002
v -0.3249817 -0.01499939 -1.524002
v -0.3249817 -0.02499771 -1.544006
v -0.125 -0.02499771 -1.544006
v -0.3249817 -0.01499939 -1.544006
v -0.125 -0.01499939 -1.544006
v 0.1750183 -0.4749985 -1.524002
v -0.0249939 -0.4749985 -1.524002
v 0.1750183 -0.4650002 -1.524002
v -0.0249939 -0.4650002 -1.524002
v -0.0249939 -0.4749985 -1.544006
v 0.1750183 -0.4749985 -1.544006
v -0.0249939 -0.4650002 -1.544006
v 0.1750183 -0.4650002 -1.544006
v -0.125 -0.329998 -1.524002
v -0.3249817 -0.329998 -1.524002
v -0.125 -0.3199997 -1.524002
v -0.3249817 -0.3199997 -1.524002
v -0.3249817 -0.329998 -1.544006
v -0.125 -0.329998 -1.544006
v -0.3249817 -0.3199997 -1.544006
v -0.125 -0.3199997 -1.544006
v -0.125 -0.454998 -1.524002
v -0.3249817 -0.454998 -1.524002
v -0.125 -0.4449997 -1.524002
v -0.3249817 -0.4449997 -1.524002
v -0.3249817 -0.454998 -1.544006
v -0.125 -0.454998 -1.544006
v -0.3249817 -0.4449997 -1.544006
v -0.125 -0.4449997 -1.544006
v 0.1750183 -0.454998 -1.524002
v -0.0249939 -0.454998 -1.524002
v 0.1750183 -0.4449997 -1.524002
v -0.0249939 -0.4449997 -1.524002
v -0.0249939 -0.454998 -1.544006
v 0.1750183 -0.454998 -1.544006
v -0.0249939 -0.4449997 -1.544006
v 0.1750183 -0.4449997 -1.544006
v -0.125 -0.06499481 -1.524002
v -0.3249817 -0.06499481 -1.524002
v -0.125 -0.05499649 -1.524002
v -0.3249817 -0.05499649 -1.524002
v -0.3249817 -0.06499481 -1.544006
v -0.125 -0.06499481 -1.544006
v -0.3249817 -0.05499649 -1.544006
v -0.125 -0.05499649 -1.544006
v 0.1750183 -0.02499771 -1.524002
v -0.0249939 -0.02499771 -1.524002
v 0.1750183 -0.01499939 -1.524002
v -0.0249939 -0.01499939 -1.524002
v -0.0249939 -0.02499771 -1.544006
v 0.1750183 -0.02499771 -1.544006
v -0.0249939 -0.01499939 -1.544006
v 0.1750183 -0.01499939 -1.544006
v 0.1750183 -0.04499817 -1.524002
v -0.0249939 -0.04499817 -1.524002
v 0.1750183 -0.03499985 -1.524002
v -0.0249939 -0.03499985 -1.524002
v -0.0249939 -0.04499817 -1.544006
v 0.1750183 -0.04499817 -1.544006
v -0.0249939 -0.03499985 -1.544006
v 0.1750183 -0.03499985 -1.544006
v -0.125 -0.5149956 -1.524002
v -0.3249817 -0.5149956 -1.524002
v -0.125 -0.5049973 -1.524002
v -0.3249817 -0.5049973 -1.524002
v -0.3249817 -0.5149956 -1.544006
v -0.125 -0.5149956 -1.544006
v -0.3249817 -0.5049973 -1.544006
v -0.125 -0.5049973 -1.544006
v -0.125 -0.534996 -1.524002
v -0.3249817 -0.534996 -1.524002
v -0.125 -0.5249977 -1.524002
v -0.3249817 -0.5249977 -1.524002
v -0.3249817 -0.534996 -1.544006
v -0.125 -0.534996 -1.544006
v -0.3249817 -0.5249977 -1.544006
v -0.125 -0.5249977 -1.544006
v 0.1750183 -0.5549965 -1.524002
v -0.0249939 -0.5549965 -1.524002
v 0.1750183 -0.5449982 -1.524002
v -0.0249939 -0.5449982 -1.524002
v -0.0249939 -0.5549965 -1.544006
v 0.1750183 -0.5549965 -1.544006
v -0.0249939 -0.5449982 -1.544006
v 0.1750183 -0.5449982 -1.544006
v 0.1750183 -0.1249962 -1.524002
v -0.0249939 -0.1249962 -1.524002
v 0.1750183 -0.1149979 -1.524002
v -0.0249939 -0.1149979 -1.524002
v -0.0249939 -0.1249962 -1.544006
v 0.1750183 -0.1249962 -1.544006
v -0.0249939 -0.1149979 -1.544006
v 0.1750183 -0.1149979 -1.544006
v 0.1750183 -0.534996 -1.524002
v -0.0249939 -0.534996 -1.524002
v 0.1750183 -0.5249977 -1.524002
v -0.0249939 -0.5249977 -1.524002
v -0.0249939 -0.534996 -1.544006
v 0.1750183 -0.534996 -1.544006
v -0.0249939 -0.5249977 -1.544006
v 0.1750183 -0.5249977 -1.544006
v -0.125 -0.3499985 -1.524002
v -0.3249817 -0.3499985 -1.524002
v -0.125 -0.3400002 -1.524002
v -0.3249817 -0.3400002 -1.524002
v -0.3249817 -0.3499985 -1.544006
v -0.125 -0.3499985 -1.544006
v -0.3249817 -0.3400002 -1.544006
v -0.125 -0.3400002 -1.544006
v -0.125 -0.25 -1.524002
v -0.3249817 -0.25 -1.524002
v -0.125 -0.2400017 -1.524002
v -0.3249817 -0.2400017 -1.524002
v -0.3249817 -0.25 -1.544006
v -0.125 -0.25 -1.544006
v -0.3249817 -0.2400017 -1.544006
v -0.125 -0.2400017 -1.544006
v 0.1750183 -0.2299957 -1.524002
v -0.0249939 -0.2299957 -1.524002
v 0.1750183 -0.2199974 -1.524002
v -0.0249939 -0.2199974 -1.524002
v -0.0249939 -0.2299957 -1.544006
v 0.1750183 -0.2299957 -1.544006
v -0.0249939 -0.2199974 -1.544006
v 0.1750183 -0.2199974 -1.544006
v 0.1750183 -0.08499527 -1.524002
v -0.0249939 -0.08499527 -1.524002
v 0.1750183 -0.07499695 -1.524002
v -0.0249939 -0.07499695 -1.524002
v -0.0249939 -0.08499527 -1.544006
v 0.1750183 -0.08499527 -1.544006
v -0.0249939 -0.07499695 -1.544006
v 0.1750183 -0.07499695 -1.544006
v -0.125 -0.1249962 -1.524002
v -0.3249817 -0.1249962 -1.524002
v -0.125 -0.1149979 -1.524002
v -0.3249817 -0.1149979 -1.524002
v -0.3249817 -0.1249962 -1.544006
v -0.125 -0.1249962 -1.544006
v -0.3249817 -0.1149979 -1.544006
v -0.125 -0.1149979 -1.544006
v 0.1750183 -0.06499481 -1.524002
v -0.0249939 -0.06499481 -1.524002
v 0.1750183 -0.05499649 -1.524002
v -0.0249939 -0.05499649 -1.524002
v -0.0249939 -0.06499481 -1.544006
v 0.1750183 -0.06499481 -1.544006
v -0.0249939 -0.05499649 -1.544006
v 0.1750183 -0.05499649 -1.544006
v -0.125 -0.004997253 -1.524002
v -0.3249817 -0.004997253 -1.524002
v -0.125 0.005001068 -1.524002
v -0.3249817 0.005001068 -1.524002
v -0.3249817 -0.004997253 -1.544006
v -0.125 -0.004997253 -1.544006
v -0.3249817 0.005001068 -1.544006
v -0.125 0.005001068 -1.544006
v 0.1750183 -0.4949989 -1.524002
v -0.0249939 -0.4949989 -1.524002
v 0.1750183 -0.4850006 -1.524002
v -0.0249939 -0.4850006 -1.524002
v -0.0249939 -0.4949989 -1.544006
v 0.1750183 -0.4949989 -1.544006
v -0.0249939 -0.4850006 -1.544006
v 0.1750183 -0.4850006 -1.544006
v 0.1750183 -0.2499962 -1.524002
v -0.0249939 -0.2499962 -1.524002
v 0.1750183 -0.2399979 -1.524002
v -0.0249939 -0.2399979 -1.524002
v -0.0249939 -0.2499962 -1.544006
v 0.1750183 -0.2499962 -1.544006
v -0.0249939 -0.2399979 -1.544006
v 0.1750183 -0.2399979 -1.544006
v -0.125 -0.2700005 -1.524002
v -0.3249817 -0.2700005 -1.524002
v -0.125 -0.2600021 -1.524002
v -0.3249817 -0.2600021 -1.524002
v -0.3249817 -0.2700005 -1.544006
v -0.125 -0.2700005 -1.544006
v -0.3249817 -0.2600021 -1.544006
v -0.125 -0.2600021 -1.544006
v -0.125 -0.5749969 -1.524002
v -0.3249817 -0.5749969 -1.524002
v -0.125 -0.5649986 -1.524002
v -0.3249817 -0.5649986 -1.524002
v -0.3249817 -0.5749969 -1.544006
v -0.125 -0.5749969 -1.544006
v -0.3249817 -0.5649986 -1.544006
v -0.125 -0.5649986 -1.544006
v -0.125 -0.2899971 -1.524002
v -0.3249817 -0.2899971 -1.524002
v -0.125 -0.2799988 -1.524002
v -0.3249817 -0.2799988 -1.524002
v -0.3249817 -0.2899971 -1.544006
v -0.125 -0.2899971 -1.544006
v -0.3249817 -0.2799988 -1.544006
v -0.125 -0.2799988 -1.544006
v -0.125 -0.08499527 -1.524002
v -0.3249817 -0.08499527 -1.524002
v -0.125 -0.07499695 -1.524002
v -0.3249817 -0.07499695 -1.524002
v -0.3249817 -0.08499527 -1.544006
v -0.125 -0.08499527 -1.544006
v -0.3249817 -0.07499695 -1.544006
v -0.125 -0.07499695 -1.544006
v 0.1750183 -0.2899933 -1.524002
v -0.0249939 -0.2899933 -1.524002
v 0.1750183 -0.279995 -1.524002
v -0.0249939 -0.279995 -1.524002
v -0.0249939 -0.2899933 -1.544006
v 0.1750183 -0.2899933 -1.544006
v -0.0249939 -0.279995 -1.544006
v 0.1750183 -0.279995 -1.544006
v 0.1750183 -0.1049957 -1.524002
v -0.0249939 -0.1049957 -1.524002
v 0.1750183 -0.09499741 -1.524002
v -0.0249939 -0.09499741 -1.524002
v -0.0249939 -0.1049957 -1.544006
v 0.1750183 -0.1049957 -1.544006
v -0.0249939 -0.09499741 -1.544006
v 0.1750183 -0.09499741 -1.544006
v 0.1750183 -0.004997253 -1.524002
v -0.0249939 -0.004997253 -1.524002
v 0.1750183 0.005001068 -1.524002
v -0.0249939 0.005001068 -1.524002
v -0.0249939 -0.004997253 -1.544006
v 0.1750183 -0.004997253 -1.544006
v -0.0249939 0.005001068 -1.544006
v 0.1750183 0.005001068 -1.544006
v -0.125 -0.3099976 -1.524002
v -0.3249817 -0.3099976 -1.524002
v -0.125 -0.2999992 -1.524002
v -0.3249817 -0.2999992 -1.524002
v -0.3249817 -0.3099976 -1.544006
v -0.125 -0.3099976 -1.544006
v -0.3249817 -0.2999992 -1.544006
v -0.125 -0.2999992 -1.544006
v -0.125 -0.04499817 -1.524002
v -0.3249817 -0.04499817 -1.524002
v -0.125 -0.03499985 -1.524002
v -0.3249817 -0.03499985 -1.524002
v -0.3249817 -0.04499817 -1.544006
v -0.125 -0.04499817 -1.544006
v -0.3249817 -0.03499985 -1.544006
v -0.125 -0.03499985 -1.544006
v -0.125 -0.4949989 -1.524002
v -0.3249817 -0.4949989 -1.524002
v -0.125 -0.4850006 -1.524002
v -0.3249817 -0.4850006 -1.524002
v -0.3249817 -0.4949989 -1.544006
v -0.125 -0.4949989 -1.544006
v -0.3249817 -0.4850006 -1.544006
v -0.125 -0.4850006 -1.544006
v 0.0249939 -0.04999924 0.05000305
v 0 -0.04999924 0.05000305
v 0.02642822 0.02736664 0.03652954
v 0 0.02736664 0.03652954
v 0 -0.04999924 -0.05000305
v 0 0.04999924 -0.05000305
v 0.0249939 -0.04999924 -0.05000305
v 0.0249939 0.04999924 -0.05000305
v -0.1499939 -0.04999924 0.05000305
v -0.1749878 -0.04999924 0.05000305
v -0.1499939 0.02736664 0.03652954
v -0.1732788 0.02736664 0.03652954
v -0.1749878 -0.04999924 -0.05000305
v -0.1749878 0.04999924 -0.05000305
v -0.1499939 -0.04999924 -0.05000305
v -0.1499939 0.04999924 -0.05000305
v -0.1499939 -0.04999924 0
v -0.1499939 0.04999924 0
v 0 -0.04999924 0
v 0 0.04999924 0
v -0.1499939 0 0
v -0.1499939 0 -0.05000305
v 0 0 -0.05000305
v 0 0 0

vt 0.02392574 0.01436484
vt -0.03443015 0.01436484
vt 0.02031629 0.02369773
vt -0.03068997 0.02364707
vt 0.04321289 0.01802444
vt 0.005004883 0.05181503
vt 0.04241943 0.02800369
vt 0.01501465 0.05181503
vt -0.01365376 -0.01020223
vt 0.02265054 -0.01020223
vt -0.01010419 -0.01954192
vt 0.01889558 -0.0194608
vt -0.01049769 0.01964104
vt 0.0185029 0.01964104
vt -0.01402102 0.01029146
vt 0.02228226 0.01039374
vt -0.04241943 0.02800369
vt -0.01501465 0.05181503
vt -0.04321289 0.01802444
vt -0.005004883 0.05181503
vt 0.02042922 -0.02371198
vt -0.03057722 -0.02371198
vt 0.02402938 -0.01437533
vt -0.03432629 -0.0144335
vt 0 0.05181503
vt 0 0.6634789
vt 0.01000822 0.05181503
vt 0.01000822 0.6634789
vt 0.005004883 0.6634789
vt 0.01501465 0.6634789
vt 0.009950221 0.05181503
vt 0.009950221 0.6634789
vt -0.009950042 0.05181503
vt -0.009950042 0.6634789
vt -0.01501465 0.6634789
vt -0.005004883 0.6634789
vt -0.01000822 0.05181503
vt -0.01000822 0.6634789
vt -0.3890426 -0.1723701
vt -0.4382448 -0.1723701
vt -0.3930968 -0.1632197
vt -0.4350674 -0.16292
vt 0.03955078 0.6873322
vt 0.03900146 0.6773376
vt 0.3449198 0.164802
vt 0.3726224 0.164802
vt 0.349227 0.1557848
vt 0.3698734 0.1553268
vt 0.302883 -0.1413053
vt 0.323596 -0.1413053
vt 0.2983903 -0.1502314
vt 0.3260038 -0.1507624
vt -0.03900146 0.6773376
vt -0.03955078 0.6873322
vt -0.381103 0.1610906
vt -0.4230839 0.1610906
vt -0.3769845 0.1702122
vt -0.4261744 0.1705536
vt 0 0
vt -0.0999999 0
vt 0 1
vt -0.0999999 1
vt 0.396875 0
vt 0.2968749 0
vt 0.396875 1
vt 0.2968749 1
vt 0.0999999 0
vt 0.0999999 1
vt 0.2 0
vt 0.2 0.15
vt 0 0.15
vt 1.5 0
vt 1.5 1
vt -0.7 0
vt -0.7 1
vt 0 -1.5
vt -0.7 -1.5
vt 0.7 0
vt 0.7 -1.5
vt 0.1 0
vt 0.1 1
vt 0.3015625 0
vt 0.1015625 0
vt 0.3015625 0.2
vt 0.1015625 0.2
vt 0 -0.0999999
vt 0.2 -0.0999999
vt 0.7015625 0
vt 0.6015624 0
vt 0.7015625 1
vt 0.6015624 1
vt 0.3015625 0.3476563
vt 0.1015625 0.3476563
vt 0.3015625 0.4226563
vt 0.1015625 0.4226563
vt -0.2 -0.0999999
vt -0.2 0
vt 0.3015625 0.5742188
vt 0.1015625 0.5742188
vt 0.3015625 0.6492188
vt 0.1015625 0.6492188
vt 0.2976563 0.8007813
vt 0.09765628 0.8007813
vt 0.2976563 1.000781
vt 0.09765628 1.000781
vt 0.5984375 -9.769201E-05
vt 0.3983399 0
vt 0.5985352 0.1999999
vt 0.3984376 0.2000976
vt 0.2000488 0
vt 0.2 -0.1000977
vt 0.5984457 0.3475367
vt 0.3983926 0.3476343
vt 0.5984824 0.4226782
vt 0.3984293 0.4227759
vt -4.470348E-08 -0.1000977
vt -0.2000488 -0.0999999
vt 0.5984457 0.5780054
vt 0.3983926 0.5781031
vt 0.5984824 0.653147
vt 0.3984293 0.6532447
vt 0.5984375 0.7928711
vt 0.3983399 0.7929688
vt 0.5985352 0.9929687
vt 0.3984376 0.9930664
vt 0.2000897 0.1499999
vt 5.960464E-08 0.1501196
vt -0.7499845 0.3923494
vt 0.7500155 -0.00958997
vt -0.7499845 0.5000002
vt 0.7500155 0.5000002
vt 0.7500155 -0.4999998
vt -0.1769865 0.2388079
vt -0.06716895 0.1289827
vt 0.1013644 -0.4999998
vt -0.02699256 -0.02099973
vt -0.1553342 -0.4999998
vt -0.06718421 -0.1710203
vt -0.396179 -0.4999998
vt -0.1769712 -0.2808035
vt -0.7499845 -0.4999998
vt -0.5853117 -0.3902243
vt -0.3269804 -0.320999
vt -0.4769895 -0.2808073
vt -0.7499845 -0.2076605
vt -0.5867918 -0.1710013
vt -0.7367857 0.3888132
vt -0.7499998 -0.007812321
vt -0.6269834 -0.02099973
vt -0.5318906 0.3339083
vt -0.5867918 0.128998
vt -0.413574 0.3022081
vt -0.476959 0.2388155
vt -0.3269651 0.2790033
vt -0.09996867 -0.2327171
vt 0.08798403 -0.3881164
vt -0.1000545 -0.3880358
vt 0.08803934 -0.232784
vt 0.1000061 0.1387017
vt -0.0880127 0.2940125
vt 0.09997559 0.2940125
vt -0.08801273 0.1387233
vt 0.09997404 -0.01329879
vt -0.08801666 0.1419874
vt 0.1000022 0.1419715
vt -0.0880143 -0.01330166
vt 0.1000006 -0.182585
vt -0.08801484 -0.02726987
vt 0.1000039 -0.02726987
vt -0.08801813 -0.1825626
vt 0.100002 -0.1684419
vt 0.09999532 -0.3237015
vt -0.08802347 -0.3237069
vt -0.08801673 -0.1684203
vt 0.1000061 -0.2436199
vt 0.09997559 -0.398921
vt -0.0880127 -0.398921
vt -0.0880127 -0.2436356
vt 0.09997559 -0.2327662
vt 0.1000061 -0.3880663
vt -0.0880127 -0.3880663
vt -0.0880127 -0.2327662
vt -0.1000061 0.1387125
vt -0.09997559 0.293999
vt 0.0880127 0.293999
vt 0.0880127 0.1387125
vt -0.09997559 -0.01330607
vt -0.09997559 0.1419866
vt 0.0880127 0.1419866
vt 0.0880127 -0.01330607
vt -0.1000061 -0.1825593
vt -0.1000061 -0.0272702
vt 0.0880127 -0.0272702
vt 0.0880127 -0.1825593
vt -0.1000061 -0.1684283
vt 0.0880127 -0.3237445
vt -0.1000061 -0.3237445
vt 0.0880127 -0.1684552
vt -0.1000053 -0.2436192
vt 0.08801334 -0.3989352
vt -0.1000054 -0.3989035
vt 0.08801349 -0.2436351
vt -0.3269806 0.2789993
vt -0.3269806 -0.02099991
vt -0.2000049 -2.980232E-08
vt 4.887581E-06 0.01000002
vt -0.2 0.01009768
vt 0.200006 0.01000002
vt -9.775162E-06 -0.01999998
vt 0.2 -0.02009773
vt -3.72529E-08 -0.02009773
vt -0.2000098 -0.01999998
vt 0 0.00999999
vt -0.2 0.00999999
vt 0.2 0.00999999
vt 0.2 -0.01999998
vt -0.2 -0.01999998
vt 0.200006 0.00999999
vt -0.025 0
vt 0.001434326 0.07853034
vt -0.025 0.07853034
vt -0.1 -1.974404E-06
vt -0.01347269 0.07736509
vt -0.1 0.09999803
vt 0.1 0.1
vt 0.01347269 0.07736705
vt -0.001434326 -0.03261397
vt 0.025 -0.03261397
vt 3.315508E-07 -0.1220519
vt 0.025 -0.1220519
vt -0.025 -0.1
vt -0.025 0
vt 0 0.07853034
vt -0.0232906 0.07853034
vt 0 -0.0005540773
vt -0.1 -0.0005540773
vt -0.01347269 0.07683172
vt -0.1 0.09942136
vt 0 -0.03261397
vt 0.0232906 -0.03261397
vt 0.02500001 -0.1220519
vt -0.15 0
vt -0.15 0.07853034
vt -0.05 -1.184642E-05
vt -0.05 0.09998816
vt 0.15 0
vt 0.15 0.1
vt 0 0.1
vt 0.05 0
vt 0.05 0.1
vt 0 -0.05220405
vt 0.15 -0.05220405
vt 0 -0.09517483
vt 0.15 -0.09517483
vt 0 -0.05
vt -0.15 -0.05
vt 0 0.05
vt -0.05 0.05
vt 0.05 0.05
vt 0.15 -0.05

vn -0.617066 -0.6939791 0.3709753
vn -0.6179059 -0.6968066 0.3641396
vn -0.6187457 -0.699634 0.3573039
vn 0 0 1
vn 0.6086422 0.7004943 0.3726423
vn 0.6089019 0.7061563 0.3611334
vn 0.6091616 0.7118182 0.3496244
vn 0.6027244 0.7042962 -0.3750869
vn 0.6082775 0.705381 -0.3636956
vn 0.6138306 0.7064657 -0.3523042
vn 0 0 -1
vn -0.6149682 -0.6953626 -0.3718672
vn -0.617673 -0.6965333 -0.3650568
vn -0.620378 -0.697704 -0.3582464
vn -0.8659825 0 0.5000744
vn 0.8673019 0 0.4977825
vn 0.8673019 0 -0.4977825
vn -0.8659825 0 -0.5000744
vn -0.5553924 0.7672538 0.3207196
vn -0.5363367 0.7582067 0.3672296
vn -0.5172808 0.7491596 0.4137397
vn 0.4808424 -0.8322425 0.2759765
vn 0.4322202 -0.8196313 0.3624716
vn 0.3835979 -0.8070202 0.4489667
vn 0.4168309 -0.8769364 -0.2392375
vn 0.4340429 -0.8289844 -0.3354646
vn 0.4512548 -0.7810323 -0.4316917
vn -0.5398756 0.7818828 -0.3117591
vn -0.5376567 0.760785 -0.359699
vn -0.5354378 0.7396872 -0.4076387
vn -1 0 0
vn 1 0 0
vn 0 -1 0
vn 0 1 0
vn -0.9999999 0.0003346115 5.674119E-05
vn -2.030311E-05 -0.9659181 -0.2588482
vn -1.993598E-09 -0.7070823 -0.7071314
vn -2.869635E-05 -0.2587848 -0.965935
vn -5.232213E-05 0.2588427 -0.9659195
vn -7.173339E-05 0.7071191 -0.7070945
vn -1.407373E-06 0.9659249 -0.2588229
vn 0 0.9659309 0.2587999
vn 0 0.7070946 0.7071191
vn 0 0.2588122 0.9659277
vn 0 -0.2588184 0.9659261
vn 4.304178E-05 -0.7071191 0.7070945
vn 2.108225E-06 -0.9659307 0.2588007
vn 0 0.1715708 0.9851718
vn 0.9997482 -0.01121872 -0.01121786
vn 0.9994965 -0.02243744 -0.02243572
vn 0 0.9674563 0.2530382
vn -0.9997562 0.02208425 0
vn -0.9997806 0.01104213 0.009872876
vn -0.999805 0 0.01974575
vn 0 0.8500665 0.5266755

usemtl Metal003_2KMat
f 3/3/2 4/4/3 2/2/2 1/1/1
f 5/7/4 6/8/4 4/6/4 3/5/4
f 7/11/6 8/12/7 6/10/6 5/9/5
f 9/15/9 10/16/10 8/14/9 7/13/8
f 11/19/11 12/20/11 10/18/11 9/17/11
f 1/23/13 2/24/14 12/22/13 11/21/12
f 4/27/15 14/28/15 13/26/15 2/25/15
f 6/8/4 15/30/4 14/29/4 4/6/4
f 8/31/16 16/32/16 15/26/16 6/25/16
f 10/25/17 17/26/17 16/34/17 8/33/17
f 12/20/11 18/36/11 17/35/11 10/18/11
f 2/25/18 13/26/18 18/38/18 12/37/18
f 14/41/20 20/42/21 19/40/20 13/39/19
f 15/30/4 21/44/4 20/43/4 14/29/4
f 16/47/23 22/48/24 21/46/23 15/45/22
f 17/51/26 23/52/27 22/50/26 16/49/25
f 18/36/11 24/54/11 23/53/11 17/35/11
f 13/57/29 19/58/30 24/56/29 18/55/28
f 27/3/2 28/4/3 26/2/2 25/1/1
f 29/7/4 30/8/4 28/6/4 27/5/4
f 31/11/6 32/12/7 30/10/6 29/9/5
f 33/15/9 34/16/10 32/14/9 31/13/8
f 35/19/11 36/20/11 34/18/11 33/17/11
f 25/23/13 26/24/14 36/22/13 35/21/12
f 28/27/15 38/28/15 37/26/15 26/25/15
f 30/8/4 39/30/4 38/29/4 28/6/4
f 32/31/16 40/32/16 39/26/16 30/25/16
f 34/25/17 41/26/17 40/34/17 32/33/17
f 36/20/11 42/36/11 41/35/11 34/18/11
f 26/25/18 37/26/18 42/38/18 36/37/18
f 38/41/20 44/42/21 43/40/20 37/39/19
f 39/30/4 45/44/4 44/43/4 38/29/4
f 40/47/23 46/48/24 45/46/23 39/45/22
f 41/51/26 47/52/27 46/50/26 40/49/25
f 42/36/11 48/54/11 47/53/11 41/35/11
f 37/57/29 43/58/30 48/56/29 42/55/28
f 51/3/2 52/4/3 50/2/2 49/1/1
f 53/7/4 54/8/4 52/6/4 51/5/4
f 55/11/6 56/12/7 54/10/6 53/9/5
f 57/15/9 58/16/10 56/14/9 55/13/8
f 59/19/11 60/20/11 58/18/11 57/17/11
f 49/23/13 50/24/14 60/22/13 59/21/12
f 52/27/15 62/28/15 61/26/15 50/25/15
f 54/8/4 63/30/4 62/29/4 52/6/4
f 56/31/16 64/32/16 63/26/16 54/25/16
f 58/25/17 65/26/17 64/34/17 56/33/17
f 60/20/11 66/36/11 65/35/11 58/18/11
f 50/25/18 61/26/18 66/38/18 60/37/18
f 62/41/20 68/42/21 67/40/20 61/39/19
f 63/30/4 69/44/4 68/43/4 62/29/4
f 64/47/23 70/48/24 69/46/23 63/45/22
f 65/51/26 71/52/27 70/50/26 64/49/25
f 66/36/11 72/54/11 71/53/11 65/35/11
f 61/57/29 67/58/30 72/56/29 66/55/28
f 75/3/2 76/4/3 74/2/2 73/1/1
f 77/7/4 78/8/4 76/6/4 75/5/4
f 79/11/6 80/12/7 78/10/6 77/9/5
f 81/15/9 82/16/10 80/14/9 79/13/8
f 83/19/11 84/20/11 82/18/11 81/17/11
f 73/23/13 74/24/14 84/22/13 83/21/12
f 76/27/15 86/28/15 85/26/15 74/25/15
f 78/8/4 87/30/4 86/29/4 76/6/4
f 80/31/16 88/32/16 87/26/16 78/25/16
f 82/25/17 89/26/17 88/34/17 80/33/17
f 84/20/11 90/36/11 89/35/11 82/18/11
f 74/25/18 85/26/18 90/38/18 84/37/18
f 86/41/20 92/42/21 91/40/20 85/39/19
f 87/30/4 93/44/4 92/43/4 86/29/4
f 88/47/23 94/48/24 93/46/23 87/45/22
f 89/51/26 95/52/27 94/50/26 88/49/25
f 90/36/11 96/54/11 95/53/11 89/35/11
f 85/57/29 91/58/30 96/56/29 90/55/28
f 99/3/2 100/4/3 98/2/2 97/1/1
f 101/7/4 102/8/4 100/6/4 99/5/4
f 103/11/6 104/12/7 102/10/6 101/9/5
f 105/15/9 106/16/10 104/14/9 103/13/8
f 107/19/11 108/20/11 106/18/11 105/17/11
f 97/23/13 98/24/14 108/22/13 107/21/12
f 100/27/15 110/28/15 109/26/15 98/25/15
f 102/8/4 111/30/4 110/29/4 100/6/4
f 104/31/16 112/32/16 111/26/16 102/25/16
f 106/25/17 113/26/17 112/34/17 104/33/17
f 108/20/11 114/36/11 113/35/11 106/18/11
f 98/25/18 109/26/18 114/38/18 108/37/18
f 110/41/20 116/42/21 115/40/20 109/39/19
f 111/30/4 117/44/4 116/43/4 110/29/4
f 112/47/23 118/48/24 117/46/23 111/45/22
f 113/51/26 119/52/27 118/50/26 112/49/25
f 114/36/11 120/54/11 119/53/11 113/35/11
f 109/57/29 115/58/30 120/56/29 114/55/28
f 123/3/2 124/4/3 122/2/2 121/1/1
f 125/7/4 126/8/4 124/6/4 123/5/4
f 127/11/6 128/12/7 126/10/6 125/9/5
f 129/15/9 130/16/10 128/14/9 127/13/8
f 131/19/11 132/20/11 130/18/11 129/17/11
f 121/23/13 122/24/14 132/22/13 131/21/12
f 124/27/15 134/28/15 133/26/15 122/25/15
f 126/8/4 135/30/4 134/29/4 124/6/4
f 128/31/16 136/32/16 135/26/16 126/25/16
f 130/25/17 137/26/17 136/34/17 128/33/17
f 132/20/11 138/36/11 137/35/11 130/18/11
f 122/25/18 133/26/18 138/38/18 132/37/18
f 134/41/20 140/42/21 139/40/20 133/39/19
f 135/30/4 141/44/4 140/43/4 134/29/4
f 136/47/23 142/48/24 141/46/23 135/45/22
f 137/51/26 143/52/27 142/50/26 136/49/25
f 138/36/11 144/54/11 143/53/11 137/35/11
f 133/57/29 139/58/30 144/56/29 138/55/28
f 147/3/2 148/4/3 146/2/2 145/1/1
f 149/7/4 150/8/4 148/6/4 147/5/4
f 151/11/6 152/12/7 150/10/6 149/9/5
f 153/15/9 154/16/10 152/14/9 151/13/8
f 155/19/11 156/20/11 154/18/11 153/17/11
f 145/23/13 146/24/14 156/22/13 155/21/12
f 148/27/15 158/28/15 157/26/15 146/25/15
f 150/8/4 159/30/4 158/29/4 148/6/4
f 152/31/16 160/32/16 159/26/16 150/25/16
f 154/25/17 161/26/17 160/34/17 152/33/17
f 156/20/11 162/36/11 161/35/11 154/18/11
f 146/25/18 157/26/18 162/38/18 156/37/18
f 158/41/20 164/42/21 163/40/20 157/39/19
f 159/30/4 165/44/4 164/43/4 158/29/4
f 160/47/23 166/48/24 165/46/23 159/45/22
f 161/51/26 167/52/27 166/50/26 160/49/25
f 162/36/11 168/54/11 167/53/11 161/35/11
f 157/57/29 163/58/30 168/56/29 162/55/28
f 171/3/2 172/4/3 170/2/2 169/1/1
f 173/7/4 174/8/4 172/6/4 171/5/4
f 175/11/6 176/12/7 174/10/6 173/9/5
f 177/15/9 178/16/10 176/14/9 175/13/8
f 179/19/11 180/20/11 178/18/11 177/17/11
f 169/23/13 170/24/14 180/22/13 179/21/12
f 172/27/15 182/28/15 181/26/15 170/25/15
f 174/8/4 183/30/4 182/29/4 172/6/4
f 176/31/16 184/32/16 183/26/16 174/25/16
f 178/25/17 185/26/17 184/34/17 176/33/17
f 180/20/11 186/36/11 185/35/11 178/18/11
f 170/25/18 181/26/18 186/38/18 180/37/18
f 182/41/20 188/42/21 187/40/20 181/39/19
f 183/30/4 189/44/4 188/43/4 182/29/4
f 184/47/23 190/48/24 189/46/23 183/45/22
f 185/51/26 191/52/27 190/50/26 184/49/25
f 186/36/11 192/54/11 191/53/11 185/35/11
f 181/57/29 187/58/30 192/56/29 186/55/28
f 195/3/2 196/4/3 194/2/2 193/1/1
f 197/7/4 198/8/4 196/6/4 195/5/4
f 199/11/6 200/12/7 198/10/6 197/9/5
f 201/15/9 202/16/10 200/14/9 199/13/8
f 203/19/11 204/20/11 202/18/11 201/17/11
f 193/23/13 194/24/14 204/22/13 203/21/12
f 196/27/15 206/28/15 205/26/15 194/25/15
f 198/8/4 207/30/4 206/29/4 196/6/4
f 200/31/16 208/32/16 207/26/16 198/25/16
f 202/25/17 209/26/17 208/34/17 200/33/17
f 204/20/11 210/36/11 209/35/11 202/18/11
f 194/25/18 205/26/18 210/38/18 204/37/18
f 206/41/20 212/42/21 211/40/20 205/39/19
f 207/30/4 213/44/4 212/43/4 206/29/4
f 208/47/23 214/48/24 213/46/23 207/45/22
f 209/51/26 215/52/27 214/50/26 208/49/25
f 210/36/11 216/54/11 215/53/11 209/35/11
f 205/57/29 211/58/30 216/56/29 210/55/28
f 219/3/2 220/4/3 218/2/2 217/1/1
f 221/7/4 222/8/4 220/6/4 219/5/4
f 223/11/6 224/12/7 222/10/6 221/9/5
f 225/15/9 226/16/10 224/14/9 223/13/8
f 227/19/11 228/20/11 226/18/11 225/17/11
f 217/23/13 218/24/14 228/22/13 227/21/12
f 220/27/15 230/28/15 229/26/15 218/25/15
f 222/8/4 231/30/4 230/29/4 220/6/4
f 224/31/16 232/32/16 231/26/16 222/25/16
f 226/25/17 233/26/17 232/34/17 224/33/17
f 228/20/11 234/36/11 233/35/11 226/18/11
f 218/25/18 229/26/18 234/38/18 228/37/18
f 230/41/20 236/42/21 235/40/20 229/39/19
f 231/30/4 237/44/4 236/43/4 230/29/4
f 232/47/23 238/48/24 237/46/23 231/45/22
f 233/51/26 239/52/27 238/50/26 232/49/25
f 234/36/11 240/54/11 239/53/11 233/35/11
f 229/57/29 235/58/30 240/56/29 234/55/28
f 243/3/2 244/4/3 242/2/2 241/1/1
f 245/7/4 246/8/4 244/6/4 243/5/4
f 247/11/6 248/12/7 246/10/6 245/9/5
f 249/15/9 250/16/10 248/14/9 247/13/8
f 251/19/11 252/20/11 250/18/11 249/17/11
f 241/23/13 242/24/14 252/22/13 251/21/12
f 244/27/15 254/28/15 253/26/15 242/25/15
f 246/8/4 255/30/4 254/29/4 244/6/4
f 248/31/16 256/32/16 255/26/16 246/25/16
f 250/25/17 257/26/17 256/34/17 248/33/17
f 252/20/11 258/36/11 257/35/11 250/18/11
f 242/25/18 253/26/18 258/38/18 252/37/18
f 254/41/20 260/42/21 259/40/20 253/39/19
f 255/30/4 261/44/4 260/43/4 254/29/4
f 256/47/23 262/48/24 261/46/23 255/45/22
f 257/51/26 263/52/27 262/50/26 256/49/25
f 258/36/11 264/54/11 263/53/11 257/35/11
f 253/57/29 259/58/30 264/56/29 258/55/28
f 267/3/2 268/4/3 266/2/2 265/1/1
f 269/7/4 270/8/4 268/6/4 267/5/4
f 271/11/6 272/12/7 270/10/6 269/9/5
f 273/15/9 274/16/10 272/14/9 271/13/8
f 275/19/11 276/20/11 274/18/11 273/17/11
f 265/23/13 266/24/14 276/22/13 275/21/12
f 268/27/15 278/28/15 277/26/15 266/25/15
f 270/8/4 279/30/4 278/29/4 268/6/4
f 272/31/16 280/32/16 279/26/16 270/25/16
f 274/25/17 281/26/17 280/34/17 272/33/17
f 276/20/11 282/36/11 281/35/11 274/18/11
f 266/25/18 277/26/18 282/38/18 276/37/18
f 278/41/20 284/42/21 283/40/20 277/39/19
f 279/30/4 285/44/4 284/43/4 278/29/4
f 280/47/23 286/48/24 285/46/23 279/45/22
f 281/51/26 287/52/27 286/50/26 280/49/25
f 282/36/11 288/54/11 287/53/11 281/35/11
f 277/57/29 283/58/30 288/56/29 282/55/28
f 291/3/2 292/4/3 290/2/2 289/1/1
f 293/7/4 294/8/4 292/6/4 291/5/4
f 295/11/6 296/12/7 294/10/6 293/9/5
f 297/15/9 298/16/10 296/14/9 295/13/8
f 299/19/11 300/20/11 298/18/11 297/17/11
f 289/23/13 290/24/14 300/22/13 299/21/12
f 292/27/15 302/28/15 301/26/15 290/25/15
f 294/8/4 303/30/4 302/29/4 292/6/4
f 296/31/16 304/32/16 303/26/16 294/25/16
f 298/25/17 305/26/17 304/34/17 296/33/17
f 300/20/11 306/36/11 305/35/11 298/18/11
f 290/25/18 301/26/18 306/38/18 300/37/18
f 302/41/20 308/42/21 307/40/20 301/39/19
f 303/30/4 309/44/4 308/43/4 302/29/4
f 304/47/23 310/48/24 309/46/23 303/45/22
f 305/51/26 311/52/27 310/50/26 304/49/25
f 306/36/11 312/54/11 311/53/11 305/35/11
f 301/57/29 307/58/30 312/56/29 306/55/28
f 426/206/4 427/207/4 425/205/4 424/59/4
f 430/208/11 431/206/11 429/59/11 428/69/11
f 431/209/34 430/210/34 427/110/34 426/59/34
f 424/59/33 425/97/33 428/212/33 429/211/33
f 434/213/4 435/214/4 433/97/4 432/59/4
f 438/215/11 439/213/11 437/59/11 436/69/11
f 439/209/34 438/216/34 435/69/34 434/59/34
f 432/59/33 433/97/33 436/217/33 437/209/33
f 442/213/4 443/214/4 441/97/4 440/59/4
f 446/215/11 447/213/11 445/59/11 444/69/11
f 447/209/34 446/216/34 443/69/34 442/59/34
f 440/59/33 441/97/33 444/217/33 445/209/33
f 450/213/4 451/207/4 449/205/4 448/59/4
f 454/218/11 455/206/11 453/59/11 452/69/11
f 455/209/34 454/210/34 451/110/34 450/59/34
f 448/59/33 449/97/33 452/212/33 453/211/33
f 458/213/4 459/214/4 457/97/4 456/59/4
f 462/215/11 463/213/11 461/59/11 460/69/11
f 463/209/34 462/216/34 459/69/34 458/59/34
f 456/59/33 457/97/33 460/217/33 461/209/33
f 466/206/4 467/207/4 465/205/4 464/59/4
f 470/208/11 471/206/11 469/59/11 468/69/11
f 471/209/34 470/210/34 467/110/34 466/59/34
f 464/59/33 465/97/33 468/212/33 469/211/33
f 474/206/4 475/207/4 473/205/4 472/59/4
f 478/218/11 479/206/11 477/59/11 476/69/11
f 479/209/34 478/210/34 475/110/34 474/59/34
f 472/59/33 473/97/33 476/212/33 477/211/33
f 482/213/4 483/214/4 481/97/4 480/59/4
f 486/215/11 487/213/11 485/59/11 484/69/11
f 487/209/34 486/216/34 483/69/34 482/59/34
f 480/59/33 481/97/33 484/217/33 485/209/33
f 490/213/4 491/214/4 489/97/4 488/59/4
f 494/215/11 495/213/11 493/59/11 492/69/11
f 495/209/34 494/216/34 491/69/34 490/59/34
f 488/59/33 489/97/33 492/217/33 493/209/33
f 498/213/4 499/214/4 497/97/4 496/59/4
f 502/215/11 503/213/11 501/59/11 500/69/11
f 503/209/34 502/216/34 499/69/34 498/59/34
f 496/59/33 497/97/33 500/217/33 501/209/33
f 506/206/4 507/207/4 505/205/4 504/59/4
f 510/208/11 511/206/11 509/59/11 508/69/11
f 511/209/34 510/210/34 507/110/34 506/59/34
f 504/59/33 505/97/33 508/212/33 509/211/33
f 514/213/4 515/214/4 513/97/4 512/59/4
f 518/215/11 519/213/11 517/59/11 516/69/11
f 519/209/34 518/216/34 515/69/34 514/59/34
f 512/59/33 513/97/33 516/217/33 517/209/33
f 522/206/4 523/207/4 521/205/4 520/59/4
f 526/218/11 527/206/11 525/59/11 524/69/11
f 527/209/34 526/210/34 523/110/34 522/59/34
f 520/59/33 521/97/33 524/212/33 525/211/33
f 530/213/4 531/207/4 529/205/4 528/59/4
f 534/218/11 535/206/11 533/59/11 532/69/11
f 535/209/34 534/210/34 531/110/34 530/59/34
f 528/59/33 529/97/33 532/212/33 533/211/33
f 538/213/4 539/214/4 537/97/4 536/59/4
f 542/215/11 543/213/11 541/59/11 540/69/11
f 543/209/34 542/216/34 539/69/34 538/59/34
f 536/59/33 537/97/33 540/217/33 541/209/33
f 546/206/4 547/207/4 545/205/4 544/59/4
f 550/208/11 551/206/11 549/59/11 548/69/11
f 551/209/34 550/210/34 547/110/34 546/59/34
f 544/59/33 545/97/33 548/212/33 549/211/33
f 554/213/4 555/214/4 553/97/4 552/59/4
f 558/215/11 559/213/11 557/59/11 556/69/11
f 559/209/34 558/216/34 555/69/34 554/59/34
f 552/59/33 553/97/33 556/217/33 557/209/33
f 562/213/4 563/214/4 561/97/4 560/59/4
f 566/215/11 567/213/11 565/59/11 564/69/11
f 567/209/34 566/216/34 563/69/34 562/59/34
f 560/59/33 561/97/33 564/217/33 565/209/33
f 570/213/4 571/207/4 569/205/4 568/59/4
f 574/218/11 575/206/11 573/59/11 572/69/11
f 575/209/34 574/210/34 571/110/34 570/59/34
f 568/59/33 569/97/33 572/212/33 573/211/33
f 578/213/4 579/207/4 577/205/4 576/59/4
f 582/218/11 583/206/11 581/59/11 580/69/11
f 583/209/34 582/210/34 579/110/34 578/59/34
f 576/59/33 577/97/33 580/212/33 581/211/33
f 586/213/4 587/214/4 585/97/4 584/59/4
f 590/215/11 591/213/11 589/59/11 588/69/11
f 591/209/34 590/216/34 587/69/34 586/59/34
f 584/59/33 585/97/33 588/217/33 589/209/33
f 594/213/4 595/214/4 593/97/4 592/59/4
f 598/215/11 599/213/11 597/59/11 596/69/11
f 599/209/34 598/216/34 595/69/34 594/59/34
f 592/59/33 593/97/33 596/217/33 597/209/33
f 602/213/4 603/214/4 601/97/4 600/59/4
f 606/215/11 607/213/11 605/59/11 604/69/11
f 607/209/34 606/216/34 603/69/34 602/59/34
f 600/59/33 601/97/33 604/217/33 605/209/33
f 610/206/4 611/207/4 609/205/4 608/59/4
f 614/218/11 615/206/11 613/59/11 612/69/11
f 615/209/34 614/210/34 611/110/34 610/59/34
f 608/59/33 609/97/33 612/212/33 613/211/33
f 618/206/4 619/207/4 617/205/4 616/59/4
f 622/208/11 623/206/11 621/59/11 620/69/11
f 623/209/34 622/210/34 619/110/34 618/59/34
f 616/59/33 617/97/33 620/212/33 621/211/33
f 626/213/4 627/214/4 625/97/4 624/59/4
f 630/215/11 631/213/11 629/59/11 628/69/11
f 631/209/34 630/216/34 627/69/34 626/59/34
f 624/59/33 625/97/33 628/217/33 629/209/33
f 634/213/4 635/214/4 633/97/4 632/59/4
f 638/215/11 639/213/11 637/59/11 636/69/11
f 639/209/34 638/216/34 635/69/34 634/59/34
f 632/59/33 633/97/33 636/217/33 637/209/33
f 642/206/4 643/207/4 641/205/4 640/59/4
f 646/208/11 647/206/11 645/59/11 644/69/11
f 647/209/34 646/210/34 643/110/34 642/59/34
f 640/59/33 641/97/33 644/212/33 645/211/33
f 650/213/4 651/214/4 649/97/4 648/59/4
f 654/215/11 655/213/11 653/59/11 652/69/11
f 655/209/34 654/216/34 651/69/34 650/59/34
f 648/59/33 649/97/33 652/217/33 653/209/33
f 658/213/4 659/207/4 657/205/4 656/59/4
f 662/218/11 663/206/11 661/59/11 660/69/11
f 663/209/34 662/210/34 659/110/34 658/59/34
f 656/59/33 657/97/33 660/212/33 661/211/33
f 666/213/4 667/214/4 665/97/4 664/59/4
f 670/215/11 671/213/11 669/59/11 668/69/11
f 671/209/34 670/216/34 667/69/34 666/59/34
f 664/59/33 665/97/33 668/217/33 669/209/33
f 674/213/4 675/214/4 673/97/4 672/59/4
f 678/215/11 679/213/11 677/59/11 676/69/11
f 679/209/34 678/216/34 675/69/34 674/59/34
f 672/59/33 673/97/33 676/217/33 677/209/33
f 682/206/4 683/207/4 681/205/4 680/59/4
f 686/218/11 687/206/11 685/59/11 684/69/11
f 687/209/34 686/210/34 683/110/34 682/59/34
f 680/59/33 681/97/33 684/212/33 685/211/33
f 690/213/4 691/207/4 689/205/4 688/59/4
f 694/218/11 695/206/11 693/59/11 692/69/11
f 695/209/34 694/210/34 691/110/34 690/59/34
f 688/59/33 689/97/33 692/212/33 693/211/33
f 698/206/4 699/207/4 697/205/4 696/59/4
f 702/218/11 703/206/11 701/59/11 700/69/11
f 703/209/34 702/210/34 699/110/34 698/59/34
f 696/59/33 697/97/33 700/212/33 701/211/33
f 706/206/4 707/207/4 705/205/4 704/59/4
f 710/208/11 711/206/11 709/59/11 708/69/11
f 711/209/34 710/210/34 707/110/34 706/59/34
f 704/59/33 705/97/33 708/212/33 709/211/33
f 714/213/4 715/214/4 713/97/4 712/59/4
f 718/215/11 719/213/11 717/59/11 716/69/11
f 719/209/34 718/216/34 715/69/34 714/59/34
f 712/59/33 713/97/33 716/217/33 717/209/33
f 722/213/4 723/214/4 721/97/4 720/59/4
f 726/215/11 727/213/11 725/59/11 724/69/11
f 727/209/34 726/216/34 723/69/34 722/59/34
f 720/59/33 721/97/33 724/217/33 725/209/33
f 730/213/4 731/214/4 729/97/4 728/59/4
f 734/215/11 735/213/11 733/59/11 732/69/11
f 735/209/34 734/216/34 731/69/34 730/59/34
f 728/59/33 729/97/33 732/217/33 733/209/33
f 738/206/4 739/207/4 737/205/4 736/59/4
f 742/218/11 743/206/11 741/59/11 740/69/11
f 743/209/34 742/210/34 739/110/34 738/59/34
f 736/59/33 737/97/33 740/212/33 741/211/33
f 746/206/4 747/207/4 745/205/4 744/59/4
f 750/208/11 751/206/11 749/59/11 748/69/11
f 751/209/34 750/210/34 747/110/34 746/59/34
f 744/59/33 745/97/33 748/212/33 749/211/33
f 754/206/4 755/207/4 753/205/4 752/59/4
f 758/218/11 759/206/11 757/59/11 756/69/11
f 759/209/34 758/210/34 755/110/34 754/59/34
f 752/59/33 753/97/33 756/212/33 757/211/33

usemtl Plastic013B_1K
f 330/131/31 332/130/31 388/129/31
f 332/130/31 387/128/31 388/129/31
f 387/128/31 404/148/31 403/147/31
f 404/148/31 402/146/31 403/147/31
f 406/150/31 403/147/31 405/149/31
f 408/152/31 406/150/31 407/151/31
f 410/154/31 408/152/31 409/153/31
f 390/134/31 388/129/31 389/133/35
f 390/134/31 329/132/31 388/129/31
f 390/134/31 392/136/31 329/132/31
f 392/136/31 391/135/31 329/132/31
f 394/137/31 391/135/31 393/136/31
f 396/139/31 394/137/31 395/138/31
f 331/141/31 396/139/31 397/140/31
f 398/142/31 331/141/31 397/140/31
f 400/144/31 398/142/31 399/143/31
f 331/141/31 398/142/31 400/144/31
f 401/145/31 331/141/31 400/144/31
f 404/148/31 401/145/31 400/144/31
f 316/62/31 314/60/31 313/59/31
f 313/59/31 315/61/31 316/62/31
f 318/66/11 317/64/11 314/63/11
f 314/63/11 316/65/11 318/66/11
f 320/61/32 319/59/32 317/67/32
f 317/67/32 318/68/32 320/61/32
f 328/61/32 326/59/32 325/72/32
f 325/72/32 327/73/32 328/61/32
f 330/75/4 329/74/4 326/59/4
f 326/59/4 328/61/4 330/75/4
f 329/74/33 331/77/33 325/76/33
f 325/76/33 326/59/33 329/74/33
f 332/79/34 330/78/34 328/59/34
f 328/59/34 327/76/34 332/79/34
f 336/62/31 334/60/31 333/59/31
f 333/59/31 335/61/31 336/62/31
f 327/61/11 325/59/11 334/80/11
f 334/80/11 336/81/11 327/61/11
f 339/85/11 337/83/11 317/82/11
f 317/82/11 338/84/11 339/85/11
f 338/87/34 341/69/34 340/59/34
f 340/59/34 339/86/34 338/87/34
f 343/91/11 342/89/11 331/88/11
f 331/88/11 332/90/11 343/91/11
f 345/61/32 344/59/32 342/67/32
f 342/67/32 343/68/32 345/61/32
f 349/95/11 347/93/11 346/92/11
f 346/92/11 348/94/11 349/95/11
f 348/87/34 321/69/34 322/59/34
f 322/59/34 349/86/34 348/87/34
f 351/97/33 346/96/33 347/86/33
f 347/86/33 350/59/33 351/97/33
f 355/101/11 353/99/11 352/98/11
f 352/98/11 354/100/11 355/101/11
f 354/87/34 357/69/34 356/59/34
f 356/59/34 355/86/34 354/87/34
f 323/97/33 352/96/33 353/86/33
f 353/86/33 324/59/33 323/97/33
f 360/105/11 359/103/11 358/102/11
f 358/102/11 318/104/11 360/105/11
f 362/97/33 358/96/33 359/86/33
f 359/86/33 361/59/33 362/97/33
f 364/109/11 314/107/11 342/106/11
f 342/106/11 363/108/11 364/109/11
f 363/111/34 366/110/34 365/59/34
f 365/59/34 364/86/34 363/111/34
f 370/115/11 368/113/11 367/112/11
f 367/112/11 369/114/11 370/115/11
f 369/111/34 372/110/34 371/59/34
f 371/59/34 370/86/34 369/111/34
f 374/97/33 367/117/33 368/116/33
f 368/116/33 373/59/33 374/97/33
f 378/121/11 376/119/11 375/118/11
f 375/118/11 377/120/11 378/121/11
f 377/111/34 380/110/34 379/59/34
f 379/59/34 378/86/34 377/111/34
f 382/97/33 375/117/33 376/116/33
f 376/116/33 381/59/33 382/97/33
f 316/125/11 384/123/11 383/122/11
f 383/122/11 343/124/11 316/125/11
f 386/97/33 383/117/33 384/116/33
f 384/116/33 385/59/33 386/97/33
f 416/178/41 417/177/41 399/176/41
f 399/176/41 397/175/41 416/178/41
f 417/182/42 418/181/42 400/180/42
f 400/180/42 399/179/42 417/182/42
f 418/186/43 419/185/43 402/184/43
f 402/184/43 400/183/43 418/186/43
f 419/190/44 420/189/44 405/188/44
f 405/188/44 402/187/44 419/190/44
f 420/194/45 421/193/45 407/192/45
f 407/192/45 405/191/45 420/194/45
f 409/195/46 407/197/46 421/196/46
f 421/196/46 422/198/46 409/195/46
f 410/199/47 409/201/47 422/200/47
f 422/200/47 411/202/47 410/199/47
f 389/155/36 410/157/36 411/156/36
f 411/156/36 412/158/36 389/155/36
f 390/159/37 389/161/37 412/160/37
f 412/160/37 413/162/37 390/159/37
f 392/163/38 390/165/38 413/164/38
f 413/164/38 414/166/38 392/163/38
f 395/167/39 393/169/39 414/168/39
f 414/168/39 415/170/39 395/167/39
f 415/174/40 416/173/40 397/172/40
f 397/172/40 395/171/40 415/174/40
f 763/221/48 761/219/48 760/59/48
f 760/59/48 762/220/48 763/221/48
f 765/224/31 764/222/31 761/59/31
f 761/59/31 763/223/31 765/224/31
f 762/226/50 760/59/49 766/80/32
f 766/80/32 767/225/49 762/226/50
f 765/230/51 763/228/51 762/227/51
f 762/227/51 767/229/51 765/230/51
f 761/232/33 764/231/33 766/116/33
f 766/116/33 760/59/33 761/232/33
f 771/234/48 769/232/48 768/59/48
f 768/59/48 770/233/48 771/234/48
f 773/238/54 772/236/53 769/235/52
f 769/235/52 771/237/53 773/238/54
f 770/226/32 768/59/32 774/80/32
f 774/80/32 775/225/32 770/226/32
f 773/241/51 771/240/51 770/239/51
f 770/239/51 775/229/51 773/241/51
f 769/232/33 772/231/33 774/116/33
f 774/116/33 768/59/33 769/232/33
f 770/243/48 768/242/48 761/59/48
f 761/59/48 763/233/48 770/243/48
f 777/245/31 776/244/31 768/59/31
f 768/59/31 770/223/31 777/245/31
f 779/248/11 778/59/11 776/246/11
f 776/246/11 777/247/11 779/248/11
f 763/226/32 761/59/32 778/249/32
f 778/249/32 779/250/32 763/226/32
f 777/254/55 770/252/55 763/251/55
f 763/251/55 779/253/55 777/254/55
f 768/242/33 776/256/33 778/255/33
f 778/255/33 761/59/33 768/242/33
f 775/258/31 781/244/31 780/59/31
f 780/59/31 777/257/31 775/258/31
f 779/257/32 783/59/32 782/249/32
f 782/249/32 765/259/32 779/257/32
f 775/260/34 777/246/34 779/59/34
f 779/59/34 765/255/34 775/260/34
f 780/242/33 781/256/33 782/255/33
f 782/255/33 783/59/33 780/242/33

usemtl Black
f 416/140/31 423/204/31 417/143/31
f 415/138/31 423/204/31 416/140/31
f 414/136/31 423/204/31 415/138/31
f 413/134/31 423/204/31 414/136/31
f 412/133/31 423/204/31 413/134/31
f 411/203/31 423/204/31 412/133/31
f 422/153/31 423/204/31 411/203/31
f 421/151/31 423/204/31 422/153/31
f 420/149/31 423/204/31 421/151/31
f 419/146/31 423/204/31 420/149/31
f 418/144/31 423/204/31 419/146/31
f 417/143/31 423/204/31 418/144/31
f 324/71/11 322/59/11 321/69/11
f 321/69/11 323/70/11 324/71/11
f 381/127/11 371/59/11 372/69/11
f 372/69/11 382/126/11 381/127/11
f 350/71/11 340/59/11 341/69/11
f 341/69/11 351/70/11 350/71/11
f 361/71/11 356/59/11 357/69/11
f 357/69/11 362/70/11 361/71/11
f 373/127/11 365/59/11 366/69/11
f 366/69/11 374/126/11 373/127/11
f 385/127/11 379/59/11 380/69/11
f 380/69/11 386/126/11 385/127/11

