# ProBuilder 4.1.0
# https://unity3d.com/unity/features/worldbuilding/probuilder
# 2024-04-13 PM 5:02:38

mtllib ./JapaneseBuildingModel05Door.mtl
o JapaneseBuildingModel05Door

g JapaneseBuildingModel05Door
v 0.1000061 -2.70003 0.1999969
v 0 -2.70003 0.1999969
v 0.1000061 -2.60003 0.1999969
v 0 -2.60003 0.1999969
v 0 -2.70003 -1.300003
v 0 -2.60003 -1.300003
v 0.1000061 -2.70003 -1.300003
v 0.1000061 -2.60003 -1.300003
v 0.1499939 -1.43303 0
v -0.05001831 -1.43303 0
v 0.1499939 -1.33303 0
v -0.05001831 -1.33303 0
v -0.05001831 -1.43303 -0.1999969
v -0.05001831 -1.33303 -0.1999969
v 0.1499939 -1.43303 -0.1999969
v 0.1499939 -1.33303 -0.1999969
v 0.1000061 0.0999701 0.1999969
v 0 0.0999701 0.1999969
v 0 -2.60003 0.09999084
v 0 0.0999701 0.09999084
v 0.1000061 -2.60003 0.09999084
v 0.1000061 0.0999701 0.09999084
v 0 -2.50003 0.09999084
v 0 -3.004074E-05 0.09999084
v -0.04998779 -2.50003 -1.525879E-05
v -0.04998779 -3.004074E-05 -1.525879E-05
v 0 -2.50003 -1.525879E-05
v 0 -3.004074E-05 -1.525879E-05
v -0.1000061 -1.40863 -0.04000854
v -0.1199951 -1.40863 -0.04000854
v -0.1000061 -1.36863 -0.04000854
v -0.1199951 -1.36863 -0.04000854
v -0.1199951 -1.40863 -0.2400055
v -0.1199951 -1.36863 -0.2400055
v -0.1000061 -1.40863 -0.2400055
v -0.1000061 -1.36863 -0.2400055
v -0.0001220703 -2.60003 -1.100006
v -0.0001220703 -2.60003 -1.200012
v -0.04998779 -2.50003 -1.100006
v -0.0001220703 -2.50003 -1.200012
v 0 -2.50003 -1.100006
v 0.1000061 -2.60003 -1.199997
v 0 -2.60003 -1.199997
v 0.1000061 0.0999701 -1.199997
v 0 0.0999701 -1.199997
v 0 0.0999701 -1.300003
v 0.1000061 0.0999701 -1.300003
v -0.0001220703 0.0999999 0
v -0.0001220703 0.0999999 0.1000061
v -0.0001220703 0 0.1000061
v 0.1001282 -2.50003 -1.199997
v 0.1499939 -2.50003 -1.099991
v 0.1001282 -2.600036 -1.099991
v 0.1000061 -2.50003 -1.099991
v 0.1499939 0 -1.100006
v 0.1499939 0 0
v 0.1001282 0.0999999 -1.100006
v 0.1001282 0.0999999 0
v 0.1000061 0 0
v 0.1000061 0 -1.100006
v -0.1019897 -1.35603 -0.04299927
v 0.197998 -1.35603 -0.04299927
v -0.1019897 -1.360049 -0.02799988
v 0.197998 -1.360049 -0.02799988
v -0.1019897 -1.37103 -0.01701355
v 0.197998 -1.37103 -0.01701355
v -0.1019897 -1.38603 -0.01300049
v 0.197998 -1.38603 -0.01300049
v -0.1019897 -1.40103 -0.01701355
v 0.197998 -1.40103 -0.01701355
v -0.1019897 -1.412011 -0.02799988
v 0.197998 -1.412011 -0.02799988
v -0.1019897 -1.41603 -0.04299927
v 0.197998 -1.41603 -0.04299927
v -0.1019897 -1.412011 -0.05799866
v 0.197998 -1.412011 -0.05799866
v -0.1019897 -1.40103 -0.06898499
v 0.197998 -1.40103 -0.06898499
v -0.1019897 -1.38603 -0.07299805
v 0.197998 -1.38603 -0.07299805
v -0.1019897 -1.37103 -0.06898499
v 0.197998 -1.37103 -0.06898499
v -0.1019897 -1.360049 -0.05799866
v 0.197998 -1.360049 -0.05799866
v -0.1019897 -1.38603 -0.04299927
v 0.197998 -1.38603 -0.04299927
v -0.0001220703 -2.60003 0
v 0.1001282 -2.60003 -1.100006
v 0.1001282 -2.60003 0
v 0.1499939 -2.50003 -1.100006
v 0.1499939 -2.50003 0
v 0.1000061 -2.50003 0
v 0.1000061 -2.50003 -1.100006
v 0.1001282 -2.60003 0.1000061
v 0.1001282 -2.50003 0.1000061
v 0.1000061 0.1999998 0.1999969
v 0 0.1999998 0.1999969
v 0 0.1999998 -1.300003
v 0.1000061 0.1999998 -1.300003
v 0.2200012 -1.40863 -0.04000854
v 0.2000122 -1.40863 -0.04000854
v 0.2200012 -1.36863 -0.04000854
v 0.2000122 -1.36863 -0.04000854
v 0.2000122 -1.40863 -0.2400055
v 0.2000122 -1.36863 -0.2400055
v 0.2200012 -1.40863 -0.2400055
v 0.2200012 -1.36863 -0.2400055
v -0.0001220703 0 -1.199997
v -0.0001220703 0.1000061 -1.199997
v -0.04998779 0 -1.099991
v -0.0001220703 0.1000061 -1.099991
v 0 0.0999999 -1.099991
v 0 0 -1.099991
v 0.1001282 -3.004074E-05 0.1000061
v 0 0.0999701 -1.200012
v 0.1000061 -2.60003 -1.200012
v 0.1000061 0.0999701 -1.200012
v 0 -3.004074E-05 -1.100006
v -0.04998779 -3.004074E-05 -1.100006
v -0.0001220703 -3.004074E-05 -1.200012
v 0.1001282 -2.384186E-07 0.09999084
v 0.1001282 0.1000059 0.09999084
v 0.1001282 0.1000059 -1.525879E-05
v 0.1001282 0 -1.200012
v 0.1000061 -3.004074E-05 -1.199997
v 0.1499939 -3.004074E-05 -1.099991
v 0.1000061 -3.004074E-05 -1.099991
v -0.0001220703 0.0999999 -1.100006

vt 0 0
vt -0.09999999 0
vt 0 0.1000001
vt -0.09999999 0.1000001
vt -1.5 0
vt -1.5 0.1000001
vt 0.09999999 0
vt 0.09999999 0.1000001
vt 1.5 0
vt 1.5 0.1000001
vt 0 -1.5
vt 0.09999999 -1.5
vt -0.09999999 -1.5
vt -0.2 0
vt 0 0.0999999
vt -0.2 0.0999999
vt 0.2 0
vt 0.2 0.0999999
vt 0 -0.2
vt 0.2 -0.2
vt -0.2 -0.2
vt 0 2.7
vt -0.09999999 2.7
vt 0.09999999 2.7
vt 0 2.5
vt -0.1118033 0
vt -0.1118033 2.5
vt 0.05 0
vt 0.05 2.5
vt 0.09999999 2.5
vt -0.02001381 0
vt 1.381338E-05 0.03999996
vt -0.02 0.04000688
vt -0.2 0.03999996
vt 0.02 -6.914139E-06
vt 0.02001381 0.03999996
vt 0 0.04000688
vt 0.2 0.03999996
vt 0.02006905 -1.490116E-08
vt 0.02 -0.2000069
vt 0 -0.2000069
vt -0.02006905 -0.2
vt -0.02 6.914139E-06
vt -0.1000061 5.459785E-05
vt 0 0.1118035
vt -0.1000061 0.08954954
vt 0.005114769 0
vt 0.004992546 0
vt 0.005114769 0.0999999
vt 0.004992546 0.0999999
vt 0.0999999 0.0999999
vt 0.004986464 -0.09975386
vt -0.0001219178 -0.1000092
vt -0.005108534 -0.0002522469
vt 0.1 0.09999999
vt 0 -0.0999999
vt 0 -0.02231698
vt -1.100006 -0.02231698
vt 0 0.08943188
vt -1.100006 0.08943188
vt 1.1 0
vt 1.1 0.09999999
vt -6.191432E-06 -1.100006
vt 0 -1.1
vt -0.0500001 -1.1
vt -0.05000001 -5.960464E-08
vt 0 0.3
vt 0.01552914 0
vt 0.01552916 0.3
vt 0.01344862 0
vt 0.01344863 0.3
vt 0.02897777 0
vt 0.02897779 0.3
vt 0.0212132 0
vt 0.0212132 0.3
vt 0.03674211 0
vt 0.03674235 0.3
vt -0.01552915 0
vt -0.01552915 0.3
vt -0.02897778 0
vt -0.02897778 0.3
vt -0.01344863 0
vt -0.01344863 0.3
vt -0.03674236 0
vt -0.03674234 0.3
vt -0.0212132 0
vt -0.02121343 0.3
vt -0.0367424 0.3000001
vt 0.02999986 -2.384186E-07
vt 0.004019402 0.01500022
vt -0.02999999 0
vt -0.004019275 0.0150001
vt 0.004019689 0.01499546
vt 0.0300005 4.768372E-07
vt 0.01499911 0.02598119
vt -0.004019067 0.01499677
vt -0.01500026 0.02598059
vt 0.03000005 0.02999997
vt -0.01499895 0.02598619
vt -0.03000137 5.960464E-07
vt -0.02999898 0.03000057
vt 0.03000103 0.03000057
vt 0.04500105 0.02598619
vt -0.02999995 0.02999997
vt -0.04500005 0.02598679
vt 0.04499974 0.02598059
vt 0.05598093 0.01499677
vt -0.05598031 0.01499546
vt 0.05598073 0.0150001
vt 0.05999999 0
vt -0.0559806 0.01500022
vt -0.06000011 2.384186E-07
vt 0.06000014 -3.576279E-07
vt 0.05598057 -0.01500034
vt -0.05999999 0
vt -0.05598073 -0.0150001
vt 0.0559803 -0.01499557
vt 0.04500093 -0.02598119
vt -0.05598082 -0.01499665
vt -0.04499967 -0.02598059
vt 0.02999994 -0.02999997
vt -0.04500111 -0.02598608
vt -0.03000112 -0.03000069
vt 0.02999888 -0.03000069
vt 0.01499888 -0.02598608
vt -0.03000005 -0.02999997
vt -0.01499995 -0.02598679
vt 0.01500033 -0.02598059
vt 0.004019178 -0.01499665
vt -0.0040197 -0.01499557
vt 0.004019275 -0.0150001
vt -0.004019432 -0.01500034
vt -1.100006 5.435944E-05
vt -1.100006 0.1118033
vt 0.05 -1.1
vt 0.05465072 -1.097281
vt -0.05477279 -0.002724946
vt -0.09999999 0.09999999
vt -1.5 0.09999999
vt 1.5 0.09999999
vt 0.02000001 -0.2000069
vt -0.05 2.5
vt 0.02231587 0
vt -0.08943844 0
vt 0.02231587 2.5
vt -0.08943844 2.5
vt 0.005114764 2.5
vt 0.004992545 2.5
vt -1.3 0
vt -1.3 2.7
vt 1.3 0
vt 1.3 2.7
vt -0.09030145 4.768372E-07
vt 0.02317911 2.5
vt 0.005114771 0.1000001

vn 0 0 1
vn -1 0 0
vn 0 0 -1
vn 1 0 0
vn 0 1 0
vn 0 -1 0
vn -0.8949182 0 0.4462302
vn -0.8949072 -0.4462524 0
vn -0.8949127 -0.2231262 -0.2231151
vn -0.8949182 0 -0.4462302
vn -0.8949072 0.4462524 0
vn -0.8949127 0.2231262 0.2231151
vn 0.8949183 0 -0.4462302
vn 0.8949183 -0.2231151 -0.2231151
vn 0.8949183 -0.4462302 0
vn -0.0507159 -0.9987131 0
vn 0.8949072 0.4462523 0
vn 0 0.9659228 0.2588302
vn 0 0.7072833 0.7069303
vn 0 0.2584501 0.9660246
vn -2.05403E-07 -0.2584462 0.9660257
vn 0 -0.7072833 0.7069303
vn 0 -0.9659228 0.2588302
vn 0 -0.9659228 -0.2588302
vn 0 -0.7072833 -0.7069303
vn 0 -0.2584462 -0.9660257
vn 2.05406E-07 0.2584501 -0.9660246
vn 0 0.7072833 -0.7069303
vn 0 0.9659228 -0.2588302
vn 0.8949127 -0.2231262 0.2231151
vn 0.8949182 0 0.4462302
vn -0.8949183 0.2231151 -0.2231151
vn 0.0507159 0.9987131 0
vn -0.8949183 -0.2231151 0.2231151
vn 0.0507159 -0.9987131 0
vn 0.8949183 0.2231151 0.2231151
vn -0.0507159 0.9987131 0
vn 0.8949127 0.2231262 -0.2231151

usemtl Wood056_1KMatDark
f 3/3/1 4/4/1 2/2/1 1/1/1
f 4/3/2 6/6/2 5/5/2 2/1/2
f 6/8/3 8/3/3 7/1/3 5/7/3
f 8/10/4 3/3/4 1/1/4 7/9/4
f 8/11/5 6/12/5 4/7/5 3/1/5
f 1/1/6 2/2/6 5/13/6 7/11/6
f 17/22/1 18/23/1 4/2/1 3/1/1
f 18/22/2 20/23/2 19/2/2 4/1/2
f 20/24/3 22/22/3 21/1/3 19/7/3
f 22/24/4 17/22/4 3/1/4 21/7/4
f 24/25/1 24/25/1 23/1/1 23/1/1
f 24/25/7 26/27/7 25/26/7 23/1/7
f 26/29/3 28/25/3 27/1/3 25/28/3
f 28/30/4 24/25/4 23/1/4 27/7/4
f 39/45/9 40/46/10 38/44/9 37/1/8
f 40/49/3 40/50/3 38/48/3 38/47/3
f 40/51/4 41/15/4 37/1/4 38/7/4
f 37/1/6 37/54/6 38/53/6 38/52/6
f 44/22/1 45/23/1 43/2/1 42/1/1
f 45/22/2 46/23/2 6/2/2 43/1/2
f 46/24/3 47/22/3 8/1/3 6/7/3
f 47/24/4 44/22/4 42/1/4 8/7/4
f 26/45/12 50/46/7 49/44/12 48/1/11
f 50/49/1 50/50/1 49/48/1 49/47/1
f 50/55/4 28/3/4 48/1/4 49/7/4
f 48/1/5 48/54/5 49/53/5 49/52/5
f 52/45/14 53/46/15 42/44/14 51/1/13
f 53/49/16 53/50/16 42/48/16 42/47/16
f 53/51/2 54/15/2 51/1/2 42/7/2
f 51/1/3 51/1/3 42/53/3 42/56/3
f 57/59/17 58/60/17 56/58/17 55/57/17
f 58/62/2 57/15/2 60/1/2 59/61/2
f 58/63/5 58/63/5 57/1/5 57/1/5
f 60/1/6 55/66/6 56/65/6 59/64/6
f 25/45/8 39/134/8 37/133/8 87/1/8
f 41/62/4 27/15/4 87/1/4 37/61/4
f 41/64/5 39/135/5 25/28/5 27/1/5
f 87/1/6 87/137/6 37/63/6 37/136/6
f 90/45/15 91/134/15 89/133/15 88/1/15
f 92/62/2 93/15/2 88/1/2 89/61/2
f 92/64/5 91/135/5 90/28/5 93/1/5
f 88/1/6 88/137/6 89/63/6 89/136/6
f 91/45/30 95/46/31 94/44/30 89/1/15
f 95/49/1 95/50/1 94/48/1 94/47/1
f 95/51/2 92/15/2 89/1/2 94/7/2
f 89/1/6 89/54/6 94/53/6 94/52/6
f 96/15/1 97/138/1 18/2/1 17/1/1
f 97/15/2 98/139/2 46/5/2 18/1/2
f 98/51/3 99/15/3 47/1/3 46/7/3
f 99/140/4 96/15/4 17/1/4 47/9/4
f 99/11/5 98/12/5 97/7/5 96/1/5
f 17/1/6 18/2/6 46/13/6 47/11/6
f 110/45/32 111/46/11 109/44/32 108/1/10
f 111/49/33 112/50/33 45/48/33 109/47/33
f 112/51/4 113/15/4 108/1/4 45/7/4
f 108/1/3 108/1/3 109/53/3 45/56/3
f 59/25/3 56/142/3 91/66/3 92/1/3
f 56/145/31 114/146/31 95/144/31 91/143/31
f 114/147/1 114/148/1 95/48/1 95/47/1
f 114/30/2 59/25/2 92/1/2 95/7/2
f 118/25/1 119/142/1 39/66/1 41/1/1
f 119/154/10 120/146/10 40/153/10 39/143/10
f 120/147/3 120/148/3 40/48/3 40/47/3
f 120/30/4 118/25/4 41/1/4 40/7/4
f 25/45/34 87/46/8 19/44/34 23/1/7
f 87/49/35 87/50/35 19/48/35 19/47/35
f 87/51/4 27/15/4 23/1/4 19/7/4
f 23/1/1 23/1/1 19/53/1 19/56/1
f 56/45/36 123/46/17 122/44/36 121/1/31
f 123/155/37 58/50/37 22/48/37 122/47/37
f 58/55/2 59/3/2 121/1/2 22/7/2
f 121/1/1 121/1/1 122/53/1 22/56/1
f 55/45/38 124/46/13 117/44/38 57/1/17
f 124/49/3 124/50/3 117/48/3 117/47/3
f 124/51/2 60/3/2 57/1/2 117/7/2
f 57/1/5 57/54/5 117/53/5 117/52/5
f 125/25/3 125/25/3 51/1/3 51/1/3
f 125/25/13 126/27/13 52/26/13 51/1/13
f 126/29/1 127/25/1 54/1/1 52/28/1
f 127/30/2 125/25/2 51/1/2 54/7/2
f 48/59/11 128/60/11 119/58/11 26/57/11
f 128/62/4 48/15/4 28/1/4 118/61/4
f 128/63/5 128/63/5 48/1/5 48/1/5
f 28/1/6 26/66/6 119/65/6 118/64/6

usemtl Metal003_2KMat
f 61/1/2 85/89/2 63/90/2
f 63/93/2 85/94/2 65/95/2
f 65/95/2 85/94/2 67/98/2
f 67/102/2 85/89/2 69/103/2
f 69/106/2 85/94/2 71/107/2
f 71/109/2 85/94/2 73/110/2
f 73/113/2 85/94/2 75/114/2
f 75/117/2 85/89/2 77/118/2
f 77/118/2 85/89/2 79/121/2
f 79/124/2 85/94/2 81/125/2
f 81/128/2 85/89/2 83/129/2
f 83/131/2 85/89/2 61/1/2
f 64/92/4 86/91/4 62/1/4
f 66/97/4 86/91/4 64/96/4
f 68/101/4 86/100/4 66/99/4
f 70/105/4 86/91/4 68/104/4
f 72/108/4 86/91/4 70/105/4
f 74/112/4 86/100/4 72/111/4
f 76/116/4 86/100/4 74/115/4
f 78/120/4 86/100/4 76/119/4
f 80/123/4 86/91/4 78/122/4
f 82/127/4 86/100/4 80/126/4
f 84/130/4 86/100/4 82/127/4
f 62/1/4 86/91/4 84/132/4
f 12/16/1 10/14/1 9/1/1
f 9/1/1 11/15/1 12/16/1
f 14/16/2 13/14/2 10/1/2
f 10/1/2 12/15/2 14/16/2
f 16/15/3 15/1/3 13/17/3
f 13/17/3 14/18/3 16/15/3
f 11/15/4 9/1/4 15/17/4
f 15/17/4 16/18/4 11/15/4
f 14/20/5 12/17/5 11/1/5
f 11/1/5 16/19/5 14/20/5
f 10/14/6 13/21/6 15/19/6
f 15/19/6 9/1/6 10/14/6
f 32/33/1 30/31/1 29/1/1
f 29/1/1 31/32/1 32/33/1
f 34/34/2 33/14/2 30/1/2
f 30/1/2 32/32/2 34/34/2
f 36/37/3 35/1/3 33/35/3
f 33/35/3 34/36/3 36/37/3
f 31/32/4 29/1/4 35/17/4
f 35/17/4 36/38/4 31/32/4
f 34/40/5 32/39/5 31/1/5
f 31/1/5 36/19/5 34/40/5
f 30/43/6 33/42/6 35/41/6
f 35/41/6 29/1/6 30/43/6
f 64/69/18 62/67/18 61/1/18
f 61/1/18 63/68/18 64/69/18
f 66/73/19 64/71/19 63/70/19
f 63/70/19 65/72/19 66/73/19
f 68/77/20 66/75/20 65/74/20
f 65/74/20 67/76/20 68/77/20
f 70/77/21 68/75/21 67/74/21
f 67/74/21 69/76/21 70/77/21
f 72/73/22 70/71/22 69/70/22
f 69/70/22 71/72/22 72/73/22
f 74/69/23 72/67/23 71/1/23
f 71/1/23 73/68/23 74/69/23
f 76/67/24 74/79/24 73/78/24
f 73/78/24 75/1/24 76/67/24
f 78/83/25 76/81/25 75/80/25
f 75/80/25 77/82/25 78/83/25
f 80/87/26 78/85/26 77/84/26
f 77/84/26 79/86/26 80/87/26
f 82/87/27 80/88/27 79/84/27
f 79/84/27 81/86/27 82/87/27
f 84/83/28 82/81/28 81/80/28
f 81/80/28 83/82/28 84/83/28
f 62/67/29 84/79/29 83/78/29
f 83/78/29 61/1/29 62/67/29
f 103/33/1 101/31/1 100/1/1
f 100/1/1 102/32/1 103/33/1
f 105/34/2 104/14/2 101/1/2
f 101/1/2 103/32/2 105/34/2
f 107/37/3 106/1/3 104/35/3
f 104/35/3 105/36/3 107/37/3
f 102/32/4 100/1/4 106/17/4
f 106/17/4 107/38/4 102/32/4
f 105/141/5 103/39/5 102/1/5
f 102/1/5 107/19/5 105/141/5
f 101/31/6 104/42/6 106/41/6
f 106/41/6 100/1/6 101/31/6

usemtl MosaicGlass
f 20/22/2 115/150/2 38/149/2 19/1/2
f 117/152/4 22/22/4 21/1/4 116/151/4

