# ProBuilder 5.0.6
# https://unity3d.com/unity/features/worldbuilding/probuilder
# 2024-06-23 오후 10:30:51

mtllib ./JapaneseBuildingModel07WindowFrame.mtl
o JapaneseBuildingModel07WindowFrame

g JapaneseBuildingModel07WindowFrame
v -0.05 -0.85 0.15
v -0.05 -0.85 -0.15
v -0.05 0.85 0.15
v -0.05 0.85 -0.15
v 0.05 -0.85 -0.15
v 0.05 0.85 -0.15
v 0.05 -0.85 0.15
v 0.05 0.85 0.15
v 0.05000019 0.75 -0.1499996
v 2.35 0.75 -0.1499996
v 0.05000019 0.8499999 -0.1499996
v 2.35 0.8499999 -0.1499996
v 2.35 0.8499999 0.1499996
v 0.05000019 0.8499999 0.1499996
v 2.35 0.75 0.1499996
v 0.05000019 0.75 0.1499996
v 0.05000019 -0.8499999 -0.1499996
v 2.35 -0.8499999 -0.1499996
v 0.05000019 -0.75 -0.1499996
v 2.35 -0.75 -0.1499996
v 2.35 -0.75 0.1499996
v 0.05000019 -0.75 0.1499996
v 2.35 -0.8499999 0.1499996
v 0.05000019 -0.8499999 0.1499996
v 2.35 -0.85 0.1499996
v 2.35 -0.85 -0.1499996
v 2.45 -0.85 -0.1499996
v 2.45 0.8499999 -0.1499996
v 2.45 -0.85 0.1499996
v 2.45 0.8499999 0.1499996

vt 0.15 -0.85
vt -0.15 -0.85
vt 0.15 0.85
vt -0.15 0.85
vt 0.05 -0.85
vt -0.05 -0.85
vt 0.05 0.85
vt -0.05 0.85
vt -0.05 0.15
vt 0.05 0.15
vt -0.05 -0.15
vt 0.05 -0.15
vt 1.15 -0.05000001
vt -1.15 -0.05000001
vt 1.15 0.05000001
vt -1.15 0.05000001
vt -1.15 0.15
vt 1.15 0.15
vt -1.15 -0.15
vt 1.15 -0.15
vt 0.04999995 -0.8500001
vt -0.04999995 -0.8500001
vt 0.04999995 0.8500001
vt -0.04999995 0.8500001
vt -0.04999995 0.15
vt 0.04999995 0.15
vt -0.04999995 -0.15
vt 0.04999995 -0.15

vn -1 0 0
vn 0 0 -1
vn 1 0 0
vn 0 1 0
vn 0 -1 0

usemtl Plastic013B_1K
f 3/3/1 4/4/1 2/2/1 1/1/1
f 4/7/2 6/8/2 5/6/2 2/5/2
f 6/3/3 8/4/3 7/2/3 5/1/3
f 6/11/4 4/12/4 3/10/4 8/9/4
f 7/10/5 1/9/5 2/11/5 5/12/5
f 11/15/2 12/16/2 10/14/2 9/13/2
f 12/19/4 11/20/4 14/18/4 13/17/4
f 15/18/5 16/17/5 9/19/5 10/20/5
f 19/15/2 20/16/2 18/14/2 17/13/2
f 20/19/4 19/20/4 22/18/4 21/17/4
f 23/18/5 24/17/5 17/19/5 18/20/5
f 13/3/1 12/4/1 26/2/1 25/1/1
f 12/23/2 28/24/2 27/22/2 26/21/2
f 28/3/3 30/4/3 29/2/3 27/1/3
f 28/27/4 12/28/4 13/26/4 30/25/4
f 29/26/5 25/25/5 26/27/5 27/28/5

