# ProBuilder 5.0.6
# https://unity3d.com/unity/features/worldbuilding/probuilder
# 2025-04-23 오후 7:58:15

mtllib ./JPBM11Antenna.mtl
o JPBM11Antenna

g JPBM11Antenna
v -0.015 3.576279E-08 -0.3
v -0.015 -3.576279E-08 0.3
v -0.007499999 -0.01299035 -0.3
v -0.007499999 -0.01299042 0.3
v 0.007500001 -0.01299035 -0.3
v 0.007500001 -0.01299042 0.3
v 0.015 3.707413E-08 -0.3
v 0.015 -3.445145E-08 0.3
v 0.007499998 0.01299042 -0.3
v 0.007499998 0.01299035 0.3
v -0.007499998 0.01299042 -0.3
v -0.007499998 0.01299035 0.3
v 0 3.576279E-08 -0.3
v 0 -3.576279E-08 0.3
v 0.4780884 -1.00025 0.0249995
v 0.4780884 -0.0002498657 0.02499962
v 0.4997387 -1.00025 0.01249969
v 0.4997387 -0.0002498642 0.01249981
v 0.4997387 -1.00025 -0.01249993
v 0.4997387 -0.0002498612 -0.01249981
v 0.4780884 -1.00025 -0.02499974
v 0.4780884 -0.0002498597 -0.02499962
v 0.4564381 -1.00025 -0.01249993
v 0.4564381 -0.0002498612 -0.01249981
v 0.4564381 -1.00025 0.01249969
v 0.4564381 -0.0002498642 0.01249981
v 0.4780884 -1.00025 -1.192391E-07
v 0.4780884 -0.0002498627 -2.978595E-11
v 0.7589998 -1.585309 0.02499943
v 0.7589998 -1.182922 0.02499948
v 0.7806501 -1.585309 0.01249962
v 0.7806501 -1.182922 0.01249967
v 0.7806501 -1.585309 -0.0125
v 0.7806501 -1.182922 -0.01249995
v 0.7589998 -1.585309 -0.02499981
v 0.7589998 -1.182922 -0.02499976
v 0.7373495 -1.585309 -0.0125
v 0.7373495 -1.182922 -0.01249995
v 0.7373495 -1.585309 0.01249962
v 0.7373495 -1.182922 0.01249967
v 0.7589998 -1.585309 -1.889835E-07
v 0.6894712 -1.095687 -0.01249994
v 0.7069578 -1.082922 -0.02499975
v 0.7244453 -1.070156 -0.01249994
v 0.7244453 -1.070156 0.01249968
v 0.6894712 -1.095687 0.01249968
v 0.7069578 -1.082922 0.02499949
v 0.5038748 -0.9880015 -0.01249993
v 0.5121908 -0.968011 -0.02499974
v 0.5205069 -0.9480211 -0.01249992
v 0.5205069 -0.9480211 0.0124997
v 0.5038748 -0.9880015 0.01249969
v 0.5121908 -0.968011 0.02499951
v 0.4763117 -0.9634577 -0.009844896
v 0.4846277 -0.9538113 -0.01968968
v 0.4929438 -0.9441644 -0.009844894
v 0.4929438 -0.9441644 0.009844668
v 0.4763117 -0.9634577 0.009844666
v 0.4846277 -0.9538113 0.01968945
v 0.1960001 -1.585309 -0.02499981
v 0.1960001 -1.182922 -0.02499976
v 0.1743498 -1.585309 -0.0125
v 0.1743498 -1.182922 -0.01249995
v 0.1743498 -1.585309 0.01249962
v 0.1743498 -1.182922 0.01249967
v 0.1960001 -1.585309 0.02499943
v 0.1960001 -1.182922 0.02499948
v 0.2176504 -1.585309 0.01249962
v 0.2176504 -1.182922 0.01249967
v 0.2176504 -1.585309 -0.0125
v 0.2176504 -1.182922 -0.01249995
v 0.1960001 -1.585309 -1.889835E-07
v 0.2655287 -1.095687 0.01249968
v 0.2480421 -1.082922 0.02499949
v 0.2305546 -1.070156 0.01249968
v 0.2305546 -1.070156 -0.01249994
v 0.2655287 -1.095687 -0.01249994
v 0.2480421 -1.082922 -0.02499975
v 0.4511251 -0.9880015 0.01249969
v 0.4428091 -0.968011 0.02499951
v 0.4344931 -0.9480211 0.0124997
v 0.4344931 -0.9480211 -0.01249992
v 0.4511251 -0.9880015 -0.01249993
v 0.4428091 -0.968011 -0.02499974
v 0.4786882 -0.9634577 0.009844666
v 0.4703722 -0.9538113 0.01968945
v 0.4620562 -0.9441644 0.009844668
v 0.4620562 -0.9441644 -0.009844894
v 0.4786882 -0.9634577 -0.009844896
v 0.4703722 -0.9538113 -0.01968968
v 0.4184446 -1.585309 0.2672947
v 0.4184446 -1.182922 0.2672948
v 0.4279709 -1.585309 0.290408
v 0.4279709 -1.182922 0.290408
v 0.4527512 -1.585309 0.2937153
v 0.4527512 -1.182922 0.2937154
v 0.4680052 -1.585309 0.2739075
v 0.4680052 -1.182922 0.2739075
v 0.4584789 -1.585309 0.2507943
v 0.4584789 -1.182922 0.2507943
v 0.4336987 -1.585309 0.2474869
v 0.4336987 -1.182922 0.247487
v 0.4432249 -1.585309 0.2706011
v 0.4648113 -1.095687 0.2033366
v 0.4748888 -1.082922 0.2223233
v 0.4601851 -1.070156 0.2380036
v 0.4354057 -1.070156 0.2346972
v 0.440032 -1.095687 0.2000293
v 0.4253283 -1.082922 0.2157105
v 0.4893608 -0.9880015 0.01937187
v 0.5006514 -0.968011 0.02926815
v 0.4871616 -0.9480211 0.03585709
v 0.4623814 -0.9480211 0.03254975
v 0.4645815 -0.9880015 0.01606453
v 0.4510908 -0.968011 0.02265442
v 0.4903755 -0.9634577 -0.008299943
v 0.4990339 -0.9538113 0.001244431
v 0.4881754 -0.9441644 0.008184321
v 0.4686584 -0.9441644 0.005579837
v 0.4708586 -0.9634577 -0.01090443
v 0.46 -0.9538113 -0.003963585
v 0.5417805 -1.585309 -0.2769205
v 0.5417805 -1.182922 -0.2769205
v 0.5322542 -1.585309 -0.3000338
v 0.5322542 -1.182922 -0.3000337
v 0.5074739 -1.585309 -0.3033412
v 0.5074739 -1.182922 -0.3033411
v 0.4922199 -1.585309 -0.2835333
v 0.4922199 -1.182922 -0.2835333
v 0.5017462 -1.585309 -0.2604201
v 0.5017462 -1.182922 -0.26042
v 0.5265265 -1.585309 -0.2571127
v 0.5265265 -1.182922 -0.2571127
v 0.5170002 -1.585309 -0.2802269
v 0.4954138 -1.095687 -0.2129623
v 0.4853363 -1.082922 -0.231949
v 0.5000391 -1.070156 -0.2476293
v 0.5248194 -1.070156 -0.2443229
v 0.5201931 -1.095687 -0.209655
v 0.5348969 -1.082922 -0.2253362
v 0.4708643 -0.9880015 -0.02899754
v 0.4595737 -0.968011 -0.03889382
v 0.4730635 -0.9480211 -0.04548275
v 0.4978437 -0.9480211 -0.04217541
v 0.4956436 -0.9880015 -0.0256902
v 0.5091343 -0.968011 -0.03228009
v 0.4698496 -0.9634577 -0.001325722
v 0.4611912 -0.9538113 -0.01087009
v 0.4720497 -0.9441644 -0.01780998
v 0.4915657 -0.9441644 -0.0152055
v 0.4893665 -0.9634577 0.001278763
v 0.5002241 -0.9538113 -0.005662079
v -0.02191162 -2.980187E-09 0.02499962
v 0.9780884 -2.980187E-09 0.02499962
v -0.02191162 -0.02165079 0.01249981
v 0.9780884 -0.02165079 0.01249981
v -0.02191162 -0.02165079 -0.01249981
v 0.9780884 -0.02165079 -0.01249981
v -0.02191162 2.980187E-09 -0.02499962
v 0.9780884 2.980187E-09 -0.02499962
v -0.02191162 0.02165079 -0.01249981
v 0.9780884 0.02165079 -0.01249981
v -0.02191162 0.02165079 0.01249981
v 0.9780884 0.02165079 0.01249981
v -0.02191162 0 0
v 0.9780884 0 0
v 0.9429998 3.576281E-08 -0.3000002
v 0.9429998 -3.576281E-08 0.3000002
v 0.9505005 -0.01299044 -0.3000002
v 0.9505005 -0.01299051 0.3000002
v 0.9654999 -0.01299044 -0.3000002
v 0.9654999 -0.01299051 0.3000002
v 0.9730005 3.576281E-08 -0.3000002
v 0.9730005 -3.576281E-08 0.3000002
v 0.9654999 0.01299051 -0.3000002
v 0.9654999 0.01299044 0.3000002
v 0.9505005 0.01299051 -0.3000002
v 0.9505005 0.01299044 0.3000002
v 0.9580002 3.576281E-08 -0.3000002
v 0.9580002 -3.576281E-08 0.3000002
v 0.7639999 3.576281E-08 -0.3000002
v 0.7639999 -3.576281E-08 0.3000002
v 0.7715006 -0.01299044 -0.3000002
v 0.7715006 -0.01299051 0.3000002
v 0.7865 -0.01299044 -0.3000002
v 0.7865 -0.01299051 0.3000002
v 0.7940006 3.576281E-08 -0.3000002
v 0.7940006 -3.576281E-08 0.3000002
v 0.7865 0.01299051 -0.3000002
v 0.7865 0.01299044 0.3000002
v 0.7715006 0.01299051 -0.3000002
v 0.7715006 0.01299044 0.3000002
v 0.7790003 3.576281E-08 -0.3000002
v 0.7790003 -3.576281E-08 0.3000002
v 0.5640001 3.576281E-08 -0.3000002
v 0.5640001 -3.576281E-08 0.3000002
v 0.5715008 -0.01299044 -0.3000002
v 0.5715008 -0.01299051 0.3000002
v 0.5865002 -0.01299044 -0.3000002
v 0.5865002 -0.01299051 0.3000002
v 0.5940008 3.576281E-08 -0.3000002
v 0.5940008 -3.576281E-08 0.3000002
v 0.5865002 0.01299051 -0.3000002
v 0.5865002 0.01299044 0.3000002
v 0.5715008 0.01299051 -0.3000002
v 0.5715008 0.01299044 0.3000002
v 0.5790005 3.576281E-08 -0.3000002
v 0.5790005 -3.576281E-08 0.3000002
v 0.3359995 3.576281E-08 -0.3000002
v 0.3359995 -3.576281E-08 0.3000002
v 0.3435001 -0.01299044 -0.3000002
v 0.3435001 -0.01299051 0.3000002
v 0.3584995 -0.01299044 -0.3000002
v 0.3584995 -0.01299051 0.3000002
v 0.3660002 3.576281E-08 -0.3000002
v 0.3660002 -3.576281E-08 0.3000002
v 0.3584995 0.01299051 -0.3000002
v 0.3584995 0.01299044 0.3000002
v 0.3435001 0.01299051 -0.3000002
v 0.3435001 0.01299044 0.3000002
v 0.3509998 3.576281E-08 -0.3000002
v 0.3509998 -3.576281E-08 0.3000002

vt -0.0075 -0.3
vt -0.0075 0.3
vt 0.007500001 -0.3
vt 0.007500001 0.3
vt -0.007499999 -0.3
vt -0.007499999 0.3
vt 0.007499998 -0.3
vt 0.007499998 0.3
vt -0.015 0
vt 0 0
vt -0.007499999 0.01299038
vt 0.015 0
vt 0.007499999 0.01299038
vt 0.007500001 0.01299038
vt -0.007500001 0.01299038
vt 0.007499998 -0.01299038
vt -0.007499998 -0.01299038
vt -0.01250008 -0.5
vt -0.01250002 0.5
vt 0.01249999 -0.5
vt 0.01250005 0.5
vt -0.01249999 -0.5
vt -0.01249999 0.5
vt 0.01250002 -0.5
vt -0.02499998 1.210719E-08
vt -0.01249999 0.02165062
vt 0.02499998 1.117587E-08
vt 0.01249999 0.02165062
vt 0.01249999 -0.02165062
vt -0.01249999 -0.02165062
vt -0.01249963 -0.1365585
vt -0.01249963 0.2658286
vt 0.01250046 -0.1365585
vt 0.01250046 0.2658286
vt 0.01249981 -0.1365585
vt 0.01249981 0.2658286
vt -0.01250046 -0.1365585
vt -0.01250046 0.2658286
vt 0.01250035 0.262081
vt -0.01249957 0.262081
vt 0.0539645 0.3525403
vt 0.0325706 0.3654016
vt 0.01249927 0.2518101
vt -0.01250041 0.2518101
vt 0.05756915 0.35514
vt 0.0361746 0.3680182
vt 0.01249981 0.2282558
vt -0.01249981 0.2282558
vt 0.01249981 0.354252
vt -0.01249981 0.354252
vt 0.01249981 0.2434539
vt -0.01249981 0.2434539
vt 0.01249981 0.3429636
vt -0.01249981 0.3429636
vt 0.01249957 0.2627141
vt -0.01250035 0.2627141
vt -0.0325706 0.3660438
vt -0.0539645 0.3531657
vt 0.01250041 0.2527041
vt -0.01249927 0.2527041
vt -0.0361746 0.3689184
vt -0.05756915 0.3560286
vt 0.06251431 0.328409
vt 0.04207069 0.3427979
vt 0.2394575 0.4497898
vt 0.2277569 0.4718655
vt 0.0571816 0.3214651
vt 0.0367195 0.335829
vt 0.2427092 0.4507632
vt 0.2309836 0.4728273
vt -0.01249981 -0.2241625
vt 0.01249981 -0.2241625
vt -0.01249981 -0.4618769
vt 0.01249981 -0.4618769
vt -0.01249981 -0.2373268
vt 0.01249981 -0.2373268
vt -0.01249981 -0.4519005
vt 0.01249981 -0.4519005
vt -0.04196465 0.3432999
vt -0.06242591 0.3289363
vt -0.2274928 0.4725977
vt -0.2392185 0.4505334
vt -0.03672275 0.3363992
vt -0.05720058 0.3220578
vt -0.2308374 0.4736117
vt -0.2425855 0.4515581
vt 0.2249295 0.4734497
vt 0.2120447 0.4948741
vt 0.2509536 0.499754
vt 0.2392111 0.5106645
vt 0.2480686 0.4169304
vt 0.2384743 0.4400161
vt 0.2749126 0.4333291
vt 0.2655998 0.4461381
vt -0.01249981 -0.3055792
vt 0.01249981 -0.3055792
vt -0.00984478 -0.3334109
vt 0.00984478 -0.3334109
vt -0.01249981 -0.4969401
vt 0.01249981 -0.4969401
vt -0.00984478 -0.533847
vt 0.00984478 -0.533847
vt -0.2174755 0.489873
vt -0.2300107 0.4682423
vt -0.244925 0.5052379
vt -0.2564239 0.4941005
vt -0.2383808 0.4161879
vt -0.246592 0.3925749
vt -0.2659644 0.4207436
vt -0.2741978 0.4072998
vt -0.02630973 0.001008958
vt -0.00131017 0.001008332
vt -0.01380965 0.02265972
vt -0.01118991 0.02064145
vt 0.001310021 -0.001008838
vt 0.0138098 0.02064195
vt 0.01118958 0.02265954
vt 0.02368981 0.00100866
vt 0.02630973 -0.001008958
vt 0.01380965 -0.02265972
vt 0.01118991 -0.02064145
vt -0.0138098 -0.02064195
vt -0.01118958 -0.02265953
vt -0.02368981 -0.00100866
vt 0.01317197 0.2623508
vt -0.01182765 0.2623508
vt 0.05463642 0.3528102
vt 0.03324211 0.3656715
vt 0.01363814 0.2523807
vt -0.01136231 0.2523807
vt 0.05870724 0.3557101
vt 0.03731275 0.3685884
vt 0.0113616 0.2632845
vt -0.01363885 0.2632844
vt -0.03370726 0.366614
vt -0.05510259 0.3537357
vt 0.01188207 0.2529455
vt -0.01311773 0.2529456
vt -0.03679287 0.3691597
vt -0.05818748 0.3562698
vt 0.06279629 0.3287863
vt 0.04235184 0.3431746
vt 0.2397385 0.4501677
vt 0.2280375 0.4722428
vt 0.05778289 0.3225431
vt 0.03732073 0.3369074
vt 0.2433106 0.4518409
vt 0.2315856 0.473905
vt 0.01250133 -0.237327
vt -0.01250133 -0.4519002
vt -0.0425657 0.3443788
vt -0.06302857 0.3300141
vt -0.2280942 0.4736754
vt -0.2398201 0.45161
vt -0.03700918 0.3367826
vt -0.2311245 0.4739953
vt 0.2243201 0.4734453
vt 0.2114351 0.4948696
vt 0.250344 0.4997495
vt 0.2386021 0.5106601
vt 0.247449 0.4168723
vt 0.2378556 0.4399579
vt 0.2742938 0.4332706
vt 0.2649819 0.44608
vt -0.01378089 -0.3059308
vt 0.01121965 -0.3059307
vt -0.01112488 -0.3337626
vt 0.008565485 -0.3337621
vt -0.01125443 -0.4973999
vt 0.01374516 -0.4973999
vt -0.008600295 -0.5343067
vt 0.0110901 -0.5343071
vt -0.2163236 0.4897305
vt -0.2288592 0.4680994
vt -0.2437732 0.5050948
vt -0.2552723 0.4939573
vt -0.2387628 0.41616
vt -0.2663476 0.4207156
vt -0.2745798 0.407272
vt -0.0125001 0.02165069
vt 0.025 -1.862645E-09
vt 0.0125 0.02165064
vt 0.0125001 -0.02165069
vt -0.025 1.862645E-09
vt -0.0125 -0.02165064

vn -1 0 0
vn -0.5 -0.8660256 -1.032383E-07
vn 0.5000001 -0.8660254 -1.032383E-07
vn 1 8.60319E-08 1.02558E-14
vn 0.5 0.8660256 1.032383E-07
vn -0.5 0.8660256 1.032383E-07
vn 0 1.192093E-07 -1
vn 0 -1.192093E-07 1
vn 0.8660253 -5.960465E-08 0.5000001
vn 0.8660253 5.960465E-08 -0.5000001
vn -0.8660253 5.960465E-08 -0.5000001
vn -0.8660253 -5.960465E-08 0.5000001
vn 0 -1 -1.192093E-07
vn 0 1 1.192093E-07
vn 0 -0.7559291 0.6546537
vn -0.005156673 -0.004243062 0.9999778
vn 0.5669467 -0.7559291 0.3273268
vn 0.8427368 0.2012803 0.4992805
vn 0.5669467 -0.7559291 -0.327327
vn 0.8401722 0.2009281 -0.5037248
vn 0 -0.7559289 -0.6546539
vn 0.005595486 0.0009080986 -0.9999841
vn -0.5669467 -0.7559291 -0.327327
vn -0.8385459 -0.2187517 -0.4989875
vn -0.5669467 -0.7559291 0.3273268
vn -0.835777 -0.2143345 0.5055071
vn -0.6209328 -0.6048343 -0.498616
vn 0.008605013 0.004876791 -0.9999512
vn 0.6304085 0.5856491 -0.50951
vn 0.6336977 0.5891737 0.5013
vn -0.6155736 -0.601954 0.5086459
vn -0.00620666 -0.008151703 0.9999477
vn -0.526523 -0.6959615 -0.4882737
vn -0.08703525 0.02871379 -0.9957914
vn 0.2809251 0.8328042 -0.476989
vn 0.2658774 0.8257321 0.4974696
vn -0.5232517 -0.7020015 0.4831167
vn -0.08320987 0.05413805 0.9950605
vn -0.5992994 -0.6546956 -0.4606669
vn -0.2057604 0.08198578 -0.9751621
vn 0.09120168 0.9178132 -0.3863955
vn 0.1253702 0.8830303 0.452261
vn -0.6205161 -0.6492789 0.4397691
vn -0.142179 0.1392788 0.9799933
vn 0.005156673 -0.004242824 -0.9999778
vn -0.8427368 0.2012804 -0.4992804
vn -0.8401722 0.200928 0.5037248
vn -0.005595486 0.0009078602 0.9999841
vn 0.8385459 -0.2187518 0.4989874
vn 0.835777 -0.2143344 -0.5055071
vn 0.6209328 -0.6048344 0.4986159
vn -0.008605013 0.004876553 0.9999512
vn -0.6304085 0.585649 0.5095101
vn -0.6336977 0.5891738 -0.5012999
vn 0.6155736 -0.6019539 -0.508646
vn 0.00620666 -0.008151464 -0.9999477
vn 0.526523 -0.6959617 0.4882735
vn 0.08703525 0.02871355 0.9957914
vn -0.2809251 0.8328041 0.4769892
vn -0.2658774 0.8257322 -0.4974695
vn 0.5232517 -0.7020013 -0.4831169
vn 0.08320987 0.05413829 -0.9950605
vn 0.5992994 -0.6546957 0.4606668
vn 0.2057604 0.08198555 0.9751621
vn -0.09120168 0.9178131 0.3863957
vn -0.1253702 0.8830304 -0.4522608
vn 0.6205161 -0.6492788 -0.4397692
vn 0.142179 0.139279 -0.9799933
vn -0.648904 -0.7559277 -0.08658601
vn -0.9905111 -0.004238066 -0.1373677
vn -0.3994485 -0.7559268 0.5186674
vn -0.6063678 0.2012813 0.7692881
vn 0.2494566 -0.7559327 0.605258
vn 0.3881615 0.2009318 0.8994205
vn 0.648904 -0.7559277 0.08658583
vn 0.990459 0.0009053013 0.1378052
vn 0.3994485 -0.7559266 -0.5186676
vn 0.6055269 -0.2187494 -0.7651706
vn -0.2494566 -0.7559326 -0.6052582
vn -0.3905136 -0.2143346 -0.8952988
vn 0.5763699 -0.6048325 -0.5495229
vn 0.9900269 0.004877675 0.1407939
vn 0.4216387 0.5856531 0.6922655
vn -0.580705 0.5891792 0.5618271
vn -0.4227461 -0.6019568 -0.6774466
vn -0.9903423 -0.008140093 -0.1384043
vn 0.553625 -0.6959632 -0.4573124
vn 0.9985544 0.02870526 0.04544426
vn 0.4356351 0.8328069 0.3415478
vn -0.5282617 0.825734 0.1977451
vn -0.4096448 -0.7020043 -0.5825645
vn -0.9753107 0.05414191 -0.2140972
vn 0.5358822 -0.6547021 -0.5330999
vn 0.9938102 0.08197911 -0.07497073
vn 0.3709249 0.9178192 0.1415024
vn -0.4648661 0.883032 0.06445349
vn -0.353818 -0.649278 -0.6732394
vn -0.952575 0.1392805 -0.2705584
vn 0.9905111 -0.004238098 0.1373677
vn 0.6063673 0.2012817 -0.7692883
vn -0.3881648 0.2009302 -0.8994194
vn -0.990459 0.0009053341 -0.1378052
vn -0.6055269 -0.2187495 0.7651706
vn 0.3905136 -0.2143348 0.8952987
vn -0.5763699 -0.6048326 0.5495228
vn -0.990028 0.004868251 -0.1407868
vn -0.4216508 0.5856485 -0.6922619
vn 0.5807039 0.5891798 -0.5618277
vn 0.4227461 -0.601957 0.6774464
vn 0.9903423 -0.008140126 0.1384043
vn -0.553625 -0.6959633 0.4573123
vn -0.9985545 0.02870191 -0.04544199
vn -0.4356355 0.8328071 -0.3415467
vn 0.5282598 0.8257371 -0.1977373
vn 0.4096489 -0.7020006 0.582566
vn 0.9753076 0.05414814 0.2141102
vn -0.5358822 -0.6547022 0.5330998
vn -0.9938102 0.08197909 0.07497075
vn -0.3709247 0.9178193 -0.141502
vn 0.4648608 0.8830357 -0.06443992
vn 0.3538378 -0.6492701 0.6732365
vn 0.9525694 0.1392984 0.2705688
vn 0 -0.8660232 0.5000041
vn 0 -0.8660231 -0.5000044
vn 0 0.8660232 -0.5000041
vn 0 0.8660231 0.5000044
vn -0.4999851 -0.8660341 -1.032393E-07
vn 0.4999851 -0.8660341 -1.032393E-07
vn 0.4999851 0.8660341 1.032393E-07

usemtl JPBM6Metal003_2KMat
f 1/9/7 13/10/7 3/11/7
f 3/11/7 13/10/7 5/14/7
f 5/14/7 13/10/7 7/12/7
f 7/12/7 13/10/7 9/16/7
f 9/16/7 13/10/7 11/17/7
f 11/17/7 13/10/7 1/9/7
f 4/13/8 14/10/8 2/12/8
f 6/15/8 14/10/8 4/13/8
f 8/9/8 14/10/8 6/15/8
f 10/17/8 14/10/8 8/9/8
f 12/16/8 14/10/8 10/17/8
f 2/12/8 14/10/8 12/16/8
f 15/25/13 27/10/13 17/26/13
f 17/26/13 27/10/13 19/28/13
f 19/28/13 27/10/13 21/27/13
f 21/27/13 27/10/13 23/29/13
f 23/29/13 27/10/13 25/30/13
f 25/30/13 27/10/13 15/25/13
f 18/28/14 28/10/14 16/27/14
f 20/26/14 28/10/14 18/28/14
f 22/25/14 28/10/14 20/26/14
f 24/30/14 28/10/14 22/25/14
f 26/29/14 28/10/14 24/30/14
f 16/27/14 28/10/14 26/29/14
f 29/25/15 41/10/13 31/26/17
f 31/26/17 41/10/13 33/28/19
f 33/28/19 41/10/13 35/27/21
f 35/27/21 41/10/13 37/29/23
f 37/29/23 41/10/13 39/30/25
f 39/30/25 41/10/13 29/25/15
f 60/25/21 72/10/13 62/26/23
f 62/26/23 72/10/13 64/28/25
f 64/28/25 72/10/13 66/27/15
f 66/27/15 72/10/13 68/29/17
f 68/29/17 72/10/13 70/30/19
f 70/30/19 72/10/13 60/25/21
f 91/111/69 103/112/13 93/113/71
f 93/114/71 103/115/13 95/116/73
f 95/117/73 103/112/13 97/118/75
f 97/119/75 103/115/13 99/120/77
f 99/121/77 103/112/13 101/122/79
f 101/123/79 103/115/13 91/124/69
f 122/111/75 134/112/13 124/113/77
f 124/114/77 134/115/13 126/116/79
f 126/117/79 134/112/13 128/118/69
f 128/119/69 134/115/13 130/120/71
f 130/121/71 134/112/13 132/122/73
f 132/123/73 134/115/13 122/124/75
f 153/25/1 165/10/1 155/180/1
f 155/26/1 165/10/1 157/182/1
f 157/28/1 165/10/1 159/27/1
f 159/27/1 165/10/1 161/183/1
f 161/29/1 165/10/1 163/185/1
f 163/30/1 165/10/1 153/25/1
f 156/182/4 166/10/4 154/181/4
f 158/26/4 166/10/4 156/182/4
f 160/25/4 166/10/4 158/180/4
f 162/185/4 166/10/4 160/184/4
f 164/29/4 166/10/4 162/185/4
f 154/27/4 166/10/4 164/183/4
f 167/9/7 179/10/7 169/11/7
f 169/11/7 179/10/7 171/13/7
f 171/13/7 179/10/7 173/12/7
f 173/12/7 179/10/7 175/16/7
f 175/16/7 179/10/7 177/17/7
f 177/17/7 179/10/7 167/9/7
f 170/13/8 180/10/8 168/12/8
f 172/11/8 180/10/8 170/13/8
f 174/9/8 180/10/8 172/11/8
f 176/17/8 180/10/8 174/9/8
f 178/16/8 180/10/8 176/17/8
f 168/12/8 180/10/8 178/16/8
f 181/9/7 193/10/7 183/11/7
f 183/11/7 193/10/7 185/13/7
f 185/13/7 193/10/7 187/12/7
f 187/12/7 193/10/7 189/16/7
f 189/16/7 193/10/7 191/17/7
f 191/17/7 193/10/7 181/9/7
f 184/13/8 194/10/8 182/12/8
f 186/11/8 194/10/8 184/13/8
f 188/9/8 194/10/8 186/11/8
f 190/17/8 194/10/8 188/9/8
f 192/16/8 194/10/8 190/17/8
f 182/12/8 194/10/8 192/16/8
f 195/9/7 207/10/7 197/11/7
f 197/11/7 207/10/7 199/13/7
f 199/13/7 207/10/7 201/12/7
f 201/12/7 207/10/7 203/16/7
f 203/16/7 207/10/7 205/17/7
f 205/17/7 207/10/7 195/9/7
f 198/13/8 208/10/8 196/12/8
f 200/11/8 208/10/8 198/13/8
f 202/9/8 208/10/8 200/11/8
f 204/17/8 208/10/8 202/9/8
f 206/16/8 208/10/8 204/17/8
f 196/12/8 208/10/8 206/16/8
f 209/9/7 221/10/7 211/11/7
f 211/11/7 221/10/7 213/13/7
f 213/13/7 221/10/7 215/12/7
f 215/12/7 221/10/7 217/16/7
f 217/16/7 221/10/7 219/17/7
f 219/17/7 221/10/7 209/9/7
f 212/13/8 222/10/8 210/12/8
f 214/11/8 222/10/8 212/13/8
f 216/9/8 222/10/8 214/11/8
f 218/17/8 222/10/8 216/9/8
f 220/16/8 222/10/8 218/17/8
f 210/12/8 222/10/8 220/16/8
f 4/4/2 2/2/1 1/1/1
f 1/1/1 3/3/2 4/4/2
f 6/4/3 4/2/2 3/1/2
f 3/1/2 5/3/3 6/4/3
f 8/4/4 6/2/3 5/1/3
f 5/1/3 7/3/4 8/4/4
f 10/4/5 8/6/4 7/5/4
f 7/5/4 9/3/5 10/4/5
f 12/8/6 10/6/5 9/5/5
f 9/5/5 11/7/6 12/8/6
f 2/4/1 12/2/6 11/1/6
f 11/1/6 1/3/1 2/4/1
f 18/21/9 16/19/8 15/18/8
f 15/18/8 17/20/9 18/21/9
f 20/21/10 18/23/9 17/22/9
f 17/22/9 19/20/10 20/21/10
f 22/21/7 20/23/10 19/18/10
f 19/18/10 21/24/7 22/21/7
f 24/21/11 22/19/7 21/18/7
f 21/18/7 23/24/11 24/21/11
f 26/21/12 24/23/11 23/18/11
f 23/18/11 25/20/12 26/21/12
f 16/21/8 26/19/12 25/18/12
f 25/18/12 15/24/8 16/21/8
f 32/34/18 30/32/16 29/31/15
f 29/31/15 31/33/17 32/34/18
f 34/36/20 32/32/18 31/31/17
f 31/31/17 33/35/19 34/36/20
f 36/36/22 34/38/20 33/37/19
f 33/37/19 35/35/21 36/36/22
f 38/34/24 36/32/22 35/31/21
f 35/31/21 37/33/23 38/34/24
f 40/36/26 38/32/24 37/31/23
f 37/31/23 39/35/25 40/36/26
f 30/36/16 40/38/26 39/37/25
f 39/37/25 29/35/15 30/36/16
f 43/42/28 36/40/22 38/39/24
f 38/39/24 42/41/27 43/42/28
f 44/46/29 34/44/20 36/43/22
f 36/43/22 43/45/28 44/46/29
f 45/50/30 32/48/18 34/47/20
f 34/47/20 44/49/29 45/50/30
f 42/54/27 38/52/24 40/51/26
f 40/51/26 46/53/31 42/54/27
f 46/58/31 40/56/26 30/55/16
f 30/55/16 47/57/32 46/58/31
f 47/62/32 30/60/16 32/59/18
f 32/59/18 45/61/30 47/62/32
f 49/66/34 43/64/28 42/63/27
f 42/63/27 48/65/33 49/66/34
f 50/70/35 44/68/29 43/67/28
f 43/67/28 49/69/34 50/70/35
f 51/74/36 45/72/30 44/71/29
f 44/71/29 50/73/35 51/74/36
f 48/78/33 42/76/27 46/75/31
f 46/75/31 52/77/37 48/78/33
f 52/82/37 46/80/31 47/79/32
f 47/79/32 53/81/38 52/82/37
f 53/86/38 47/84/32 45/83/30
f 45/83/30 51/85/36 53/86/38
f 55/90/40 49/88/34 48/87/33
f 48/87/33 54/89/39 55/90/40
f 56/94/41 50/92/35 49/91/34
f 49/91/34 55/93/40 56/94/41
f 57/98/42 51/96/36 50/95/35
f 50/95/35 56/97/41 57/98/42
f 54/102/39 48/100/33 52/99/37
f 52/99/37 58/101/43 54/102/39
f 58/106/43 52/104/37 53/103/38
f 53/103/38 59/105/44 58/106/43
f 59/110/44 53/108/38 51/107/36
f 51/107/36 57/109/42 59/110/44
f 63/34/46 61/32/45 60/31/21
f 60/31/21 62/33/23 63/34/46
f 65/36/47 63/32/46 62/31/23
f 62/31/23 64/35/25 65/36/47
f 67/36/48 65/38/47 64/37/25
f 64/37/25 66/35/15 67/36/48
f 69/34/49 67/32/48 66/31/15
f 66/31/15 68/33/17 69/34/49
f 71/36/50 69/32/49 68/31/17
f 68/31/17 70/35/19 71/36/50
f 61/36/45 71/38/50 70/37/19
f 70/37/19 60/35/21 61/36/45
f 74/42/52 67/40/48 69/39/49
f 69/39/49 73/41/51 74/42/52
f 75/46/53 65/44/47 67/43/48
f 67/43/48 74/45/52 75/46/53
f 76/50/54 63/48/46 65/47/47
f 65/47/47 75/49/53 76/50/54
f 73/54/51 69/52/49 71/51/50
f 71/51/50 77/53/55 73/54/51
f 77/58/55 71/56/50 61/55/45
f 61/55/45 78/57/56 77/58/55
f 78/62/56 61/60/45 63/59/46
f 63/59/46 76/61/54 78/62/56
f 80/66/58 74/64/52 73/63/51
f 73/63/51 79/65/57 80/66/58
f 81/70/59 75/68/53 74/67/52
f 74/67/52 80/69/58 81/70/59
f 82/74/60 76/72/54 75/71/53
f 75/71/53 81/73/59 82/74/60
f 79/78/57 73/76/51 77/75/55
f 77/75/55 83/77/61 79/78/57
f 83/82/61 77/80/55 78/79/56
f 78/79/56 84/81/62 83/82/61
f 84/86/62 78/84/56 76/83/54
f 76/83/54 82/85/60 84/86/62
f 86/90/64 80/88/58 79/87/57
f 79/87/57 85/89/63 86/90/64
f 87/94/65 81/92/59 80/91/58
f 80/91/58 86/93/64 87/94/65
f 88/98/66 82/96/60 81/95/59
f 81/95/59 87/97/65 88/98/66
f 85/102/63 79/100/57 83/99/61
f 83/99/61 89/101/67 85/102/63
f 89/106/67 83/104/61 84/103/62
f 84/103/62 90/105/68 89/106/67
f 90/110/68 84/108/62 82/107/60
f 82/107/60 88/109/66 90/110/68
f 94/34/72 92/32/70 91/31/69
f 91/31/69 93/33/71 94/34/72
f 96/36/74 94/32/72 93/31/71
f 93/31/71 95/35/73 96/36/74
f 98/36/76 96/38/74 95/37/73
f 95/37/73 97/35/75 98/36/76
f 100/34/78 98/32/76 97/31/75
f 97/31/75 99/33/77 100/34/78
f 102/36/80 100/32/78 99/31/77
f 99/31/77 101/35/79 102/36/80
f 92/36/70 102/38/80 101/37/79
f 101/37/79 91/35/69 92/36/70
f 105/128/82 98/126/76 100/125/78
f 100/125/78 104/127/81 105/128/82
f 106/132/83 96/130/74 98/129/76
f 98/129/76 105/131/82 106/132/83
f 107/50/84 94/48/72 96/47/74
f 96/47/74 106/49/83 107/50/84
f 104/54/81 100/52/78 102/51/80
f 102/51/80 108/53/85 104/54/81
f 108/136/85 102/134/80 92/133/70
f 92/133/70 109/135/86 108/136/85
f 109/140/86 92/138/70 94/137/72
f 94/137/72 107/139/84 109/140/86
f 111/144/88 105/142/82 104/141/81
f 104/141/81 110/143/87 111/144/88
f 112/148/89 106/146/83 105/145/82
f 105/145/82 111/147/88 112/148/89
f 113/74/90 107/72/84 106/71/83
f 106/71/83 112/73/89 113/74/90
f 110/78/87 104/149/81 108/75/85
f 108/75/85 114/150/91 110/78/87
f 114/154/91 108/152/85 109/151/86
f 109/151/86 115/153/92 114/154/91
f 115/86/92 109/84/86 107/155/84
f 107/155/84 113/156/90 115/86/92
f 117/160/94 111/158/88 110/157/87
f 110/157/87 116/159/93 117/160/94
f 118/164/95 112/162/89 111/161/88
f 111/161/88 117/163/94 118/164/95
f 119/168/96 113/166/90 112/165/89
f 112/165/89 118/167/95 119/168/96
f 116/172/93 110/170/87 114/169/91
f 114/169/91 120/171/97 116/172/93
f 120/176/97 114/174/91 115/173/92
f 115/173/92 121/175/98 120/176/97
f 121/179/98 115/108/92 113/177/90
f 113/177/90 119/178/96 121/179/98
f 125/34/100 123/32/99 122/31/75
f 122/31/75 124/33/77 125/34/100
f 127/36/101 125/32/100 124/31/77
f 124/31/77 126/35/79 127/36/101
f 129/36/102 127/38/101 126/37/79
f 126/37/79 128/35/69 129/36/102
f 131/34/103 129/32/102 128/31/69
f 128/31/69 130/33/71 131/34/103
f 133/36/104 131/32/103 130/31/71
f 130/31/71 132/35/73 133/36/104
f 123/36/99 133/38/104 132/37/73
f 132/37/73 122/35/75 123/36/99
f 136/128/106 129/126/102 131/125/103
f 131/125/103 135/127/105 136/128/106
f 137/132/107 127/130/101 129/129/102
f 129/129/102 136/131/106 137/132/107
f 138/50/108 125/48/100 127/47/101
f 127/47/101 137/49/107 138/50/108
f 135/54/105 131/52/103 133/51/104
f 133/51/104 139/53/109 135/54/105
f 139/136/109 133/134/104 123/133/99
f 123/133/99 140/135/110 139/136/109
f 140/140/110 123/138/99 125/137/100
f 125/137/100 138/139/108 140/140/110
f 142/144/112 136/142/106 135/141/105
f 135/141/105 141/143/111 142/144/112
f 143/148/113 137/146/107 136/145/106
f 136/145/106 142/147/112 143/148/113
f 144/74/114 138/72/108 137/71/107
f 137/71/107 143/73/113 144/74/114
f 141/78/111 135/149/105 139/75/109
f 139/75/109 145/150/115 141/78/111
f 145/154/115 139/152/109 140/151/110
f 140/151/110 146/153/116 145/154/115
f 146/86/116 140/84/110 138/155/108
f 138/155/108 144/156/114 146/86/116
f 148/160/118 142/158/112 141/157/111
f 141/157/111 147/159/117 148/160/118
f 149/164/119 143/162/113 142/161/112
f 142/161/112 148/163/118 149/164/119
f 150/168/120 144/166/114 143/165/113
f 143/165/113 149/167/119 150/168/120
f 147/172/117 141/170/111 145/169/115
f 145/169/115 151/171/121 147/172/117
f 151/176/121 145/174/115 146/173/116
f 146/173/116 152/175/122 151/176/121
f 152/179/122 146/108/116 144/177/114
f 144/177/114 150/178/120 152/179/122
f 156/21/123 154/23/8 153/18/8
f 153/18/8 155/20/123 156/21/123
f 158/21/124 156/23/123 155/18/123
f 155/18/123 157/20/124 158/21/124
f 160/21/7 158/23/124 157/18/124
f 157/18/124 159/20/7 160/21/7
f 162/21/125 160/23/7 159/18/7
f 159/18/7 161/20/125 162/21/125
f 164/21/126 162/23/125 161/18/125
f 161/18/125 163/20/126 164/21/126
f 154/21/8 164/23/126 163/18/126
f 163/18/126 153/20/8 154/21/8
f 170/8/127 168/6/1 167/5/1
f 167/5/1 169/7/127 170/8/127
f 172/8/128 170/6/127 169/5/127
f 169/5/127 171/7/128 172/8/128
f 174/8/4 172/6/128 171/5/128
f 171/5/128 173/7/4 174/8/4
f 176/8/129 174/6/4 173/5/4
f 173/5/4 175/7/129 176/8/129
f 178/8/6 176/6/129 175/5/129
f 175/5/129 177/7/6 178/8/6
f 168/8/1 178/6/6 177/5/6
f 177/5/6 167/7/1 168/8/1
f 184/8/127 182/2/1 181/1/1
f 181/1/1 183/7/127 184/8/127
f 186/8/128 184/6/127 183/5/127
f 183/5/127 185/7/128 186/8/128
f 188/8/4 186/6/128 185/5/128
f 185/5/128 187/7/4 188/8/4
f 190/8/129 188/6/4 187/5/4
f 187/5/4 189/7/129 190/8/129
f 192/8/6 190/6/129 189/5/129
f 189/5/129 191/7/6 192/8/6
f 182/4/1 192/6/6 191/5/6
f 191/5/6 181/3/1 182/4/1
f 198/8/127 196/6/1 195/5/1
f 195/5/1 197/7/127 198/8/127
f 200/8/128 198/6/127 197/5/127
f 197/5/127 199/7/128 200/8/128
f 202/8/4 200/6/128 199/5/128
f 199/5/128 201/7/4 202/8/4
f 204/8/129 202/6/4 201/5/4
f 201/5/4 203/7/129 204/8/129
f 206/8/6 204/6/129 203/5/129
f 203/5/129 205/7/6 206/8/6
f 196/8/1 206/6/6 205/5/6
f 205/5/6 195/7/1 196/8/1
f 212/4/127 210/2/1 209/1/1
f 209/1/1 211/3/127 212/4/127
f 214/8/128 212/6/127 211/5/127
f 211/5/127 213/7/128 214/8/128
f 216/4/4 214/6/128 213/5/128
f 213/5/128 215/3/4 216/4/4
f 218/8/129 216/2/4 215/1/4
f 215/1/4 217/7/129 218/8/129
f 220/8/6 218/6/129 217/5/129
f 217/5/129 219/7/6 220/8/6
f 210/4/1 220/2/6 219/1/6
f 219/1/6 209/3/1 210/4/1

