# ProBuilder 5.0.6
# https://unity3d.com/unity/features/worldbuilding/probuilder
# 2025-05-22 오후 9:06:11

mtllib ./JPBM11BBase.mtl
o JPBM11BBase

g JPBM11BBase
v -0.07500002 -0.3000001 -0.05000002
v -0.07500002 0.3000001 -0.05000002
v -0.07500001 0.3000001 0.01999999
v -0.07500001 -0.3000001 0.01999999
v 0.07500002 -0.3000001 0.02000001
v 0.07500002 0.3000001 0.02000001
v 0.075 0.3000001 -0.05
v 0.075 -0.3000001 -0.05
v -0.045 -0.2700001 0.05
v -0.045 0.2700001 0.05
v 0.04500001 0.2700001 0.05000001
v 0.04500001 -0.2700001 0.05000001
v 4.415714 -0.8746302 -0.04888984
v 4.415711 -2.57463 -10.64889
v 4.41571 -2.574631 -0.04888793
v 0.3924838 1.525371 -0.04917279
v 1.892484 0.5253705 -0.04917243
v 0.3924838 0.5253705 -0.04917279
v 1.892484 1.525371 -0.04917243
v 0.3924838 -2.574631 -0.04917279
v -1.184516 1.525371 -0.04917315
v -1.184516 -2.574631 -0.04917315
v -7.584289 -2.574631 -0.04889365
v -1.184285 -1.57463 -0.04889205
v -7.584289 -1.57463 -0.04889365
v -1.785288 1.525371 -0.04889225
v -1.184285 1.525371 -0.04889205
v -1.785284 -1.57463 -0.04889225
v -1.785288 1.425371 -0.04889225
v -7.284289 1.525371 -0.04889362
v -7.284289 -1.57463 -0.04889362
v -7.584289 1.525371 -0.04889365
v -7.284289 1.425371 -0.04889362
v 4.415714 1.925371 -0.04889079
v -7.584289 1.925371 -0.04889365
v 4.415714 1.525371 -0.04888984
v 3.415714 -0.8746302 -0.04888996
v 3.415714 1.525371 -0.04888996
v 3.415714 -2.574631 -0.04888996
v 1.891714 1.525371 -0.04889038
v 1.891714 -2.574631 -0.04889038
v -7.584292 1.535198 -12.0489
v -7.584289 -2.574631 -1.148894
v -7.584296 -2.57463 -12.0489
v -7.584289 1.535013 -1.148894
v -7.584292 1.935013 -12.0489
v -7.58429 3.316436 -6.048895
v -7.584289 -1.57463 -1.148894
v -7.584289 -1.57463 -0.386123
v -6.884294 1.525371 -12.0489
v -6.884294 -2.57463 -12.0489
v -5.384294 1.525371 -12.0489
v 4.41571 1.925371 -12.04889
v -6.884294 0.3253708 -12.0489
v -5.384294 0.3253708 -12.0489
v 4.41571 1.525557 -12.04889
v -5.384294 -2.574631 -12.0489
v 4.415707 -2.574631 -12.04889
v 4.415711 -0.8746302 -10.64889
v 4.415713 -0.8746302 -8.253891
v 4.415713 1.525371 -8.253891
v 4.415712 3.306794 -6.048892
v 4.415711 1.525371 -10.64889
v 4.415711 0.6253702 -10.64889
v 4.415713 0.6253702 -8.253891
v 1.892484 0.5253705 -1.049173
v 0.3924835 0.5253705 -1.049173
v 1.891713 -2.574631 -1.048891
v 1.891713 1.525371 -1.048891
v 0.3924835 1.525371 -1.049173
v 0.3924835 -2.574631 -1.049173
v 4.682117 1.810071 -12.50568
v -7.754125 1.810071 -12.50569
v -7.754123 3.303588 -6.047862
v 4.682119 3.303588 -6.047859
v -7.754125 1.848916 -12.51467
v -7.754123 3.344272 -6.048895
v -7.754121 1.810071 0.4078983
v -7.754122 1.848916 0.4168824
v 4.682117 1.848916 -12.51466
v 4.682119 3.344272 -6.048892
v 4.682122 1.848916 0.4168853
v 4.682121 1.810071 0.4079012
v -0.1718774 1.353918 2.033112
v 2.565721 1.353918 2.033112
v 2.565718 1.634762 -0.0799715
v -0.1718798 1.634762 -0.07997208
v 2.565715 1.39781 2.037345
v 2.565713 1.678654 -0.07573838
v -0.1718836 1.678654 -0.07573896
v -0.1718822 1.39781 2.037344
v 4.416004 -2.37463 -0.001998852
v 4.466003 -2.574631 -0.003606026
v 4.416004 -2.574631 -0.001998852
v 4.466003 -2.37463 -0.003606026
v -0.3339954 -2.383955 1.998001
v 2.666005 -2.573956 1.998001
v -0.3339954 -2.573956 1.998001
v 2.666005 -2.383955 1.998001
v -0.3339959 -2.383955 -0.01199992
v -0.3339959 -2.573956 -0.01199992
v 2.666005 -2.573956 -0.01199929
v 2.666005 -2.383955 -0.01199929
v -1.284126 -2.37463 0.001107897
v 3.616005 -2.574631 -0.001998948
v -1.284002 -2.574631 0.000826802
v 3.616005 -2.37463 -0.001998948
v -1.283996 -2.37463 -2.435185
v 3.616266 -2.37463 -2.437997
v -7.584291 -2.574631 -11.0489
v -6.884293 -2.57463 -11.04889
v -5.384293 -2.574631 -11.04918
v -6.884291 -2.574631 -11.88894
v -5.384293 -2.574631 -11.88833
v 4.465706 -2.37463 -12.09889
v 4.415707 -2.574631 -12.09889
v 4.465706 -2.574631 -12.09889
v 4.415707 -2.37463 -12.09889
v 4.465709 -2.37463 -0.04888793
v 4.465709 -2.574631 -0.04888793
v 4.41571 -2.37463 -0.04888793
v -7.634291 -2.37463 -11.0989
v -7.634289 -2.574631 -0.04889366
v -7.634291 -2.574631 -11.0989
v -7.634289 -2.37463 -0.04889366
v -7.584289 -2.37463 -0.04889365
v -7.584291 -2.37463 -11.0989
v -7.634292 -2.37463 -12.0489
v -7.584292 -2.37463 -12.0489
v -7.584291 -2.574631 -11.0989
v -7.634289 -2.574631 0.001106306
v -7.634289 -2.37463 0.001106306
v -1.284126 -2.37463 -0.04889207
v -7.634292 -2.574631 -12.0489
v -7.634292 -2.37463 -12.0989
v -7.634292 -2.574631 -12.0989
v -6.884292 -2.37463 -12.0989
v -6.884292 -2.574631 -12.0989
v -6.884292 -2.37463 -12.0489
v -5.384294 -2.37463 -12.0989
v -5.384294 -2.574631 -12.0989
v -5.384294 -2.37463 -12.0489
v 4.415707 -2.37463 -12.04889
v 3.616005 -2.37463 -0.05199891
v -6.884293 1.525371 -11.04889
v 3.415711 -0.8746302 -10.64889
v 3.415713 -0.8746302 -8.253892
v 3.415713 1.525371 -8.253892
v 3.415713 0.6253707 -8.25389
v 3.415711 0.6253707 -10.64889
v -5.384293 -2.574631 -11.04889
v -5.384293 1.525371 -11.04889
v -6.884293 0.3253708 -11.04889
v -5.384293 0.3253708 -11.04889
v 3.415711 1.525371 -10.64889
v 3.415711 -2.57463 -10.64889
v 2.60656 1.39781 2.037345
v 2.606557 1.394228 2.074477
v 2.606557 1.678654 -0.07573933
v -0.2127247 1.678654 -0.07573994
v -0.2127257 1.682235 -0.112872
v -0.2127223 1.39781 2.037344
v 4.714001 1.941001 0.4511094
v -7.786004 3.444272 -6.048895
v 4.713999 3.444272 -6.048892
v -7.786002 1.941001 0.4511065
v -7.786005 1.941001 -12.5489
v 4.713997 1.941001 -12.54889
v 4.713999 3.344272 -6.048892
v -7.786005 1.841001 -12.5489
v -7.786004 3.344272 -6.048895
v 4.713997 1.841001 -12.54889
v -7.786002 1.841001 0.4511065
v 4.714001 1.841001 0.4511094
v -7.754121 1.841001 0.4511065
v 4.682121 1.841001 0.4511094
v 4.335714 3.636448 -5.832386
v -7.60429 3.761449 -6.048895
v 4.335714 3.761448 -6.048892
v -7.604289 3.636449 -5.832389
v 4.335714 3.386448 -5.832386
v -7.604289 3.386449 -5.832389
v 4.335713 3.636448 -6.265399
v -7.60429 3.386449 -6.265401
v 4.335713 3.386448 -6.265399
v -7.60429 3.636449 -6.265401
v 4.365714 3.621447 -6.239419
v 4.365715 3.731447 -6.048892
v 4.365715 3.621447 -5.858366
v 4.365716 3.383494 -5.862241
v 4.365714 3.383495 -6.235545
v -7.63429 3.73145 -6.048895
v -7.63429 3.621449 -6.239421
v -7.63429 3.383496 -6.235548
v -7.63429 3.621449 -5.858369
v -7.63429 3.383496 -5.862244
v -0.2127252 1.493767 2.084077
v -0.2127252 1.394228 2.074477
v 2.606557 1.493767 2.084077
v -0.2127257 1.781773 -0.1032718
v 2.606556 1.682235 -0.1128714
v 2.606556 1.781773 -0.1032712
v 4.365715 3.365033 -6.048892
v 4.365715 3.511447 -6.048892
v -7.63429 3.365035 -6.048895
v -7.63429 3.511449 -6.048895
v -7.385894 1.769685 -12.54179
v -7.364648 1.769685 -12.62574
v -7.351036 1.769685 -12.57763
v -7.399507 1.769685 -12.5899
v -7.447979 1.769685 -12.60216
v -7.413122 1.769685 -12.63801
v -7.434367 1.769685 -12.55405
v -7.351036 1.269685 -12.57763
v -7.364648 1.269685 -12.62574
v -7.413122 1.269685 -12.63801
v -7.447979 1.269685 -12.60216
v -7.434367 1.269685 -12.55405
v -7.45178 1.185118 -12.48524
v -7.468604 1.154101 -12.52066
v -7.385894 1.269685 -12.54179
v -7.388484 1.123083 -12.53155
v -7.371661 1.154101 -12.49613
v -7.403308 1.185118 -12.47297
v -7.436956 1.123083 -12.54382
v -7.432349 1.04124 -12.35822
v -7.409177 1.084324 -12.34788
v -7.434478 1.127406 -12.3498
v -7.480821 1.04124 -12.37048
v -7.50612 1.084324 -12.37241
v -7.48295 1.127406 -12.36207
v -7.454368 1.004609 -12.27121
v -7.436613 1.038918 -12.23946
v -7.467329 1.073226 -12.21999
v -7.502839 1.004609 -12.28347
v -7.533555 1.038918 -12.264
v -7.515801 1.073226 -12.23225
v -7.461255 0.9740285 -12.24399
v -7.44762 0.9768347 -12.19596
v -7.482457 0.9796408 -12.16021
v -7.509727 0.9740285 -12.25625
v -7.544563 0.9768347 -12.2205
v -7.530927 0.9796408 -12.17247
v -7.462845 -2.312089 -12.23771
v -7.449211 -2.309284 -12.18968
v -7.484046 -2.306478 -12.15393
v -7.511318 -2.312089 -12.24997
v -7.546153 -2.309284 -12.21422
v -7.532518 -2.306478 -12.16619
v 4.622614 1.832997 -12.524
v -7.691005 1.795501 -12.53406
v -7.691005 1.833001 -12.52401
v 4.622614 1.795497 -12.53405
v 4.622614 1.802997 -12.54704
v -7.691005 1.833001 -12.53901
v -7.691005 1.803001 -12.54705
v 4.622614 1.832997 -12.539
v -7.691005 1.768049 -12.56151
v 4.622614 1.768045 -12.5615
v 4.622614 1.781035 -12.569
v -7.691005 1.78104 -12.56901
v -7.691005 1.758001 -12.59901
v 4.622614 1.757997 -12.599
v 4.622614 1.772997 -12.599
v -7.691005 1.773001 -12.59901
v -7.691005 1.768049 -12.63651
v 4.622614 1.768045 -12.6365
v 4.622614 1.781035 -12.629
v -7.691005 1.78104 -12.62901
v -7.691005 1.795501 -12.66396
v 4.622614 1.795497 -12.66395
v 4.622614 1.802997 -12.65096
v -7.691005 1.803001 -12.65097
v -7.691005 1.833001 -12.67401
v 4.622614 1.832997 -12.674
v 4.622614 1.832997 -12.659
v -7.691005 1.833001 -12.65901
v -7.108005 1.831827 -12.46881
v -7.138006 1.781827 -12.46881
v -7.108005 1.781827 -12.46881
v -7.138006 1.831827 -12.46881
v -7.108005 1.831827 -12.43881
v -7.108005 1.781827 -12.43881
v -7.108007 1.742051 -12.50092
v -7.108007 1.723182 -12.4776
v -7.108007 1.716083 -12.53212
v -7.108007 1.68614 -12.53028
v -7.108007 1.729336 -12.56736
v -7.108007 1.702322 -12.58041
v -7.108007 1.764377 -12.57902
v -7.108007 1.769674 -12.60992
v -7.138006 1.831827 -12.43881
v -7.138006 1.781827 -12.43881
v -7.138005 1.723182 -12.4776
v -7.138005 1.742051 -12.50092
v -7.138005 1.68614 -12.53028
v -7.138005 1.716083 -12.53212
v -7.138005 1.702322 -12.58041
v -7.138005 1.729336 -12.56736
v -7.138005 1.769674 -12.60992
v -7.138005 1.764377 -12.57902
v -2.008004 1.831827 -12.46881
v -2.038004 1.781827 -12.46881
v -2.008004 1.781827 -12.46881
v -2.038004 1.831827 -12.46881
v -2.008004 1.831827 -12.43881
v -2.008004 1.781827 -12.43881
v -2.008004 1.742051 -12.50092
v -2.008004 1.723182 -12.4776
v -2.008004 1.716083 -12.53211
v -2.008004 1.68614 -12.53028
v -2.008004 1.729336 -12.56736
v -2.008004 1.702322 -12.58041
v -2.008004 1.764377 -12.57902
v -2.008004 1.769674 -12.60992
v -2.038004 1.831827 -12.43881
v -2.038004 1.781827 -12.43881
v -2.038003 1.723182 -12.4776
v -2.038003 1.742051 -12.50092
v -2.038003 1.68614 -12.53028
v -2.038003 1.716083 -12.53211
v -2.038003 1.702322 -12.58041
v -2.038003 1.729336 -12.56736
v -2.038003 1.769674 -12.60992
v -2.038003 1.764377 -12.57902
v 3.173998 1.831827 -12.4688
v 3.143995 1.781827 -12.4688
v 3.173998 1.781827 -12.4688
v 3.143995 1.831827 -12.4688
v 3.173998 1.831827 -12.4388
v 3.173998 1.781827 -12.4388
v 3.173996 1.742051 -12.50091
v 3.173996 1.723182 -12.47759
v 3.173996 1.716083 -12.53211
v 3.173996 1.68614 -12.53027
v 3.173996 1.729336 -12.56735
v 3.173996 1.702322 -12.5804
v 3.173996 1.764377 -12.57901
v 3.173996 1.769674 -12.60991
v 3.143995 1.831827 -12.4388
v 3.143995 1.781827 -12.4388
v 3.143997 1.723182 -12.47759
v 3.143997 1.742051 -12.50091
v 3.143997 1.68614 -12.53027
v 3.143997 1.716083 -12.53211
v 3.143997 1.702322 -12.5804
v 3.143997 1.729336 -12.56735
v 3.143997 1.769674 -12.60991
v 3.143997 1.764377 -12.57901
v -1.300042 1.832999 0.5689989
v -7.691002 1.795501 0.5589504
v -7.691002 1.833001 0.5689983
v -1.300042 1.795498 0.558951
v -1.300042 1.802999 0.545961
v -7.691001 1.833001 0.5539984
v -7.691002 1.803001 0.5459594
v -1.300042 1.832999 0.5539991
v -7.691001 1.768049 0.5314984
v -1.300042 1.768047 0.531499
v -1.300042 1.781037 0.523999
v -7.691002 1.78104 0.5239984
v -7.691002 1.758001 0.4939984
v -1.300042 1.757999 0.4939989
v -1.300042 1.772999 0.4939989
v -7.691002 1.773001 0.4939984
v -7.691002 1.768049 0.4564983
v -1.300042 1.768047 0.456499
v -1.300042 1.781037 0.4639989
v -7.691001 1.78104 0.4639985
v -7.691001 1.795501 0.4290463
v -1.300042 1.795498 0.429047
v -1.300042 1.802999 0.4420379
v -7.691002 1.803001 0.4420363
v -7.691001 1.833001 0.4189984
v -1.300042 1.832999 0.418999
v -1.300042 1.832999 0.4339989
v -7.691002 1.833001 0.4339983
v -7.084002 1.829201 0.3730983
v -7.054003 1.779201 0.3730983
v -7.084002 1.779201 0.3730983
v -7.054003 1.829201 0.3730983
v -7.084002 1.829201 0.3430983
v -7.084002 1.779201 0.3430983
v -7.084002 1.739425 0.4052133
v -7.084002 1.720556 0.3818915
v -7.084001 1.713457 0.4364123
v -7.084002 1.683514 0.4345674
v -7.084002 1.72671 0.4716494
v -7.084002 1.699696 0.4846973
v -7.084002 1.761751 0.4833136
v -7.084002 1.773895 0.5117455
v -7.054003 1.829201 0.3430983
v -7.054003 1.779201 0.3430983
v -7.054003 1.720556 0.3818915
v -7.054003 1.739425 0.4052133
v -7.054003 1.683514 0.4345675
v -7.054002 1.713457 0.4364123
v -7.054003 1.699696 0.4846973
v -7.054003 1.72671 0.4716494
v -7.054003 1.773895 0.5117455
v -7.054003 1.761751 0.4833136
v -1.850001 1.829201 0.3730997
v -1.820001 1.779201 0.3730997
v -1.850001 1.779201 0.3730997
v -1.820001 1.829201 0.3730997
v -1.850001 1.829201 0.3430997
v -1.850001 1.779201 0.3430997
v -1.850001 1.739425 0.4052147
v -1.850001 1.720556 0.3818928
v -1.850001 1.713457 0.4364136
v -1.850001 1.683514 0.4345688
v -1.850001 1.72671 0.4716507
v -1.850001 1.699696 0.4846987
v -1.850001 1.761751 0.4833149
v -1.850001 1.773895 0.5117468
v -1.820001 1.829201 0.3430997
v -1.820001 1.779201 0.3430997
v -1.820002 1.720556 0.3818928
v -1.820002 1.739425 0.4052147
v -1.820002 1.683514 0.4345688
v -1.820002 1.713457 0.4364136
v -1.820002 1.699696 0.4846987
v -1.820002 1.72671 0.4716507
v -1.820002 1.773895 0.5117468
v -1.820002 1.761751 0.4833149
v -7.497682 -2.309284 -12.20195
v 2.256004 1.416046 1.808001
v 2.476004 1.246046 1.808001
v 2.256004 1.246046 1.808001
v 2.476004 1.416046 1.808001
v 2.256004 1.416046 1.588001
v 2.256004 1.246046 1.588001
v 2.476004 1.416046 1.588001
v 2.476004 1.246046 1.588001
v 2.286004 1.216046 1.618001
v 2.446004 1.216046 1.618001
v 2.446004 1.216046 1.778001
v 2.286004 1.216046 1.778001
v 2.266004 1.416046 1.798001
v 2.466004 -2.383955 1.798001
v 2.266004 -2.383955 1.798001
v 2.466004 1.416046 1.798001
v 2.266004 1.416046 1.598001
v 2.266004 -2.383955 1.598001
v 2.466004 1.416046 1.598001
v 2.466004 -2.383955 1.598001
v 2.256004 -2.213955 1.808001
v 2.476004 -2.383955 1.808001
v 2.256004 -2.383955 1.808001
v 2.476004 -2.213955 1.808001
v 2.256004 -2.213955 1.588001
v 2.256004 -2.383955 1.588001
v 2.476004 -2.213955 1.588001
v 2.476004 -2.383955 1.588001
v 2.286004 -2.183955 1.778001
v 2.446004 -2.183955 1.778001
v 2.446004 -2.183955 1.618001
v 2.286004 -2.183955 1.618001
v -0.1439939 1.416046 1.808001
v 0.07600544 1.246046 1.808001
v -0.1439939 1.246046 1.808001
v 0.07600544 1.416046 1.808001
v -0.1439939 1.416046 1.588
v -0.1439939 1.246046 1.588
v 0.07600542 1.416046 1.588001
v 0.07600542 1.246046 1.588001
v -0.1139942 1.216046 1.618001
v 0.04600568 1.216046 1.618001
v 0.0460057 1.216046 1.778001
v -0.1139942 1.216046 1.778001
v -0.1339946 1.416046 1.798001
v 0.06600617 -2.383955 1.798001
v -0.1339946 -2.383955 1.798001
v 0.06600617 1.416046 1.798001
v -0.1339946 1.416046 1.598
v -0.1339946 -2.383955 1.598
v 0.06600615 1.416046 1.598001
v 0.06600615 -2.383955 1.598001
v -0.1439939 -2.213955 1.808001
v 0.07600544 -2.383955 1.808001
v -0.1439939 -2.383955 1.808001
v 0.07600544 -2.213955 1.808001
v -0.1439939 -2.213955 1.588
v -0.1439939 -2.383955 1.588
v 0.07600542 -2.213955 1.588001
v 0.07600542 -2.383955 1.588001
v -0.1139942 -2.183956 1.778001
v 0.0460057 -2.183956 1.778001
v 0.04600568 -2.183956 1.618001
v -0.1139942 -2.183956 1.618001

vt 0.1 0.6
vt 0.1 0
vt 0.03 0
vt 0.03 0.6
vt 0.07 0.6
vt 0.07 0
vt 0 0
vt 0 0.6
vt 0 0.15
vt 0.07 0.15
vt 0.1 0.15
vt 0.03 0.15
vt 0.09 0.54
vt 0.09 0
vt 0 0.54
vt 0 0.03
vt 0 0.12
vt 0 0.5700001
vt 0.1 0.5700001
vt 0.1 0.03
vt 0.1 0.12
vt 0.5755491 10.15381
vt -0.699451 2.203815
vt -0.6994514 10.15381
vt 3.075 -5.9835
vt 2.325 -7.1085
vt 2.325 -5.9835
vt 3.075 -7.1085
vt 0 -5.983475
vt 3.075 -4.800725
vt 0 -4.800725
vt 0.75 -4.800759
vt 0.75 0
vt 3.075 -4.35
vt 0.75 -4.350001
vt 3 -4.35
vt 3.075 -0.2250001
vt 0.75 -0.2249999
vt 3.075 -6.183982E-07
vt 3 -0.22575
vt 3.375 -9
vt 3.375001 0
vt 3.075 -9
vt 1.274822 -8.249995
vt 3.074999 -8.25
vt 1.274823 -9.000004
vt 4.768372E-07 -8.25
vt -0.0001921654 -9.000002
vt 3.074999 -7.107
vt 4.768372E-07 -7.107
vt 3.08237 9.000002
vt 5.960464E-08 0.8250004
vt -9.536743E-07 9.000001
vt 3.082222 0.8249882
vt 3.382231 9
vt 4.418299 4.499999
vt 0.75 0.8250005
vt 0.7500005 0.2529215
vt 12.07379 2.924998
vt 8.998784 2.400004
vt 8.998785 2.925005
vt 12.08116 2.4
vt 12.38102 2.399998
vt 12.07379 4.049996
vt 12.37379 11.4
vt 11.17378 2.924999
vt 12.07379 4.05
vt 11.17378 4.050003
vt 12.07393 11.4
vt 8.998786 4.049997
vt 8.998786 11.4
vt 0.5755491 2.203815
vt 2.375554 10.1538
vt 0.5755529 4
vt 2.375553 4
vt 2.675553 10.15375
vt 3.71162 5.653749
vt 2.375553 2.203781
vt -0.6994424 1.153724
vt 2.375698 1.15375
vt 2.675553 1.153749
vt 1.700553 2.20375
vt 1.700552 4
vt 0.75 0.5
vt 0.75 -0.4999999
vt -0.75 -0.5
vt -0.7499998 0.4999998
vt 0.5000003 2.05
vt 0.5000001 -2.05
vt -0.5000004 -2.05
vt -0.5 2.05
vt -0.4999999 2.05
vt 12.46812 0.04320812
vt 0.03188133 0.04320812
vt 0.03188133 6.501033
vt 12.46812 6.501033
vt 6.501033 1.493516
vt 0.04320812 0
vt 0.03422451 0.0388453
vt 6.5 1.5342
vt 12.95679 0
vt 12.96578 0.0388453
vt 0.03187943 0.0388453
vt 12.46812 0.0388453
vt 12.46812 0
vt 0.03187943 0
vt 6.498967 1.493516
vt 12.46812 12.95679
vt 0.03188133 12.95679
vt 1.112123 2.10302
vt 3.84972 2.10302
vt 3.849717 -0.0286479
vt 1.112121 -0.0286479
vt 2.964558 0.03847146
vt 0.8342733 -0.03821003
vt 0.834275 0.005890965
vt 2.964559 0.08257198
vt 2.165702 -0.03841114
vt 0.03542614 0.03839815
vt 0.03545928 0.08236015
vt 2.165735 0.005551219
vt 3.849718 -0.07667899
vt 1.112123 -0.07667875
vt 1.112118 -0.03258252
vt 3.849713 -0.03258276
vt 0 0.2
vt 0.04999924 0
vt 0.8 0
vt 0.04999924 0.2
vt -5.960464E-08 0.06333333
vt 1 0
vt 1 0.06333333
vt 0.67 0
vt 0.67 0.06333333
vt 0 0.67
vt 1 0.67
vt -3.899683 0.2000003
vt -3.899559 0
vt 1.000447 0.1999998
vt 5.900974 -2.233273
vt 1.000974 0.1999137
vt 5.901104 0.2030209
vt 1.000713 -2.236084
vt 4 0.9999981
vt 4.699993 1.907349E-06
vt 3.999996 0
vt 4.699997 1
vt 10.30029 11.99972
vt 4 12
vt 6.199997 0.9997177
vt 4.700001 0.1599617
vt 6.199997 0.1605587
vt 6.199997 0
vt 15.20029 11.99677
vt 16 12
vt 16 0
vt 0.05 0
vt 0.05 0.2
vt 12.05 0
vt 12.05 0.2
vt 0 12.05
vt 0.05 12.05
vt 0.04999733 -12.05
vt 0 -12.05
vt 0.0002939738 0.04688835
vt 0.05029323 0.04528189
vt -0.04988766 0.2
vt 11.00011 0
vt -0.04988766 0
vt 11.00011 0.2
vt 0.05000091 0.9500008
vt 0 12
vt 0.04999995 12
vt 0 0.9500008
vt -0.05047172 12
vt -0.05047267 0.9500003
vt -0.05047083 12.04995
vt 6.299814 11.99953
vt 6.201867 12.04919
vt 6.350285 0
vt 6.350161 0.2000002
vt -2.384186E-07 0.05000162
vt 6.350286 0.05000019
vt 0.05079082 0.2009823
vt 1.000791 0.0009823442
vt 0.05079082 0.0009823442
vt 1.000791 0.2009823
vt 0.75 0.2
vt 0.75 0.05
vt 9.8 0
vt 9.8 0.2
vt 9.8 0.05
vt 0.8 0.2
vt 0.8000002 0.05000019
vt 0.0002942085 0.003110886
vt 0.04528141 0
vt 0.04528141 0.2
vt 0 0.04528141
vt 0.04999924 0.04688859
vt 13.15689 4.1
vt 14.15689 0
vt 13.15689 0
vt 14.15689 4.1
vt 0 10.6
vt 1 10.6
vt 0 4.1
vt 1 1.7
vt 0 1.7
vt 1 4.1
vt 15 3.795002
vt 16 1.4
vt 15 1.400002
vt 16 3.795
vt 6.199997 1
vt -0.5 2.050002
vt 0.5 2.050002
vt 11.92325 12.04623
vt 6.322733 11.99905
vt 6.223248 12.04905
vt 11.92296 11.99934
vt 4.9 0
vt 0 12.87347
vt 12.5 6.373474
vt 0 6.373474
vt 12.5 12.87347
vt 12.5 -0.1265249
vt -4.768372E-07 -0.1265249
vt 9.802393 6.211021
vt 2.983236 2.952081
vt 3.10387 6.44253
vt 9.681759 2.720572
vt 0.1368542 6.252914
vt 12.63685 6.302915
vt 12.63685 6.252914
vt 0.1368542 6.302915
vt 0 0.05593014
vt 12.5 0.1059301
vt 12.5 0.05593014
vt 0 0.1059301
vt 0.03188133 13
vt 0 6.5
vt 0 13
vt 0.03188133 6.5
vt 12.46812 12.96578
vt 12.46812 13
vt 0.03188133 12.96578
vt 9.545605 6.655308
vt 9.5625 9.991093
vt 9.5625 6.655308
vt 9.545605 9.991093
vt 3.534791 -2.825495
vt 3.214138 3.674506
vt 3.234138 3.674506
vt 3.514791 -2.825495
vt 9.90968 3.333081
vt 9.590323 -3.174003
vt 9.81852 3.316393
vt 9.681484 -3.157315
vt 10.58503 -3.19025
vt 10.80931 3.2895
vt 10.89696 3.303527
vt 10.49739 -3.204277
vt 3.306477 3.270244
vt 3.627131 -3.229756
vt 3.607131 -3.229756
vt 3.326477 3.270244
vt 0.4330127 11.97
vt 0.2165064 0.03
vt 0.2165064 11.97
vt 0.4330127 0.03
vt 1.375 11.97
vt -1.125 0.03
vt -1.125 11.97
vt 1.375 0.03
vt 0.01494218 11.97
vt -0.2015642 0.03
vt -0.2015642 11.97
vt 0.01494218 0.03
vt -37.40742 0.1470692
vt -36.29587 0.1507421
vt -37.42197 -0.05839515
vt -36.41646 0.3311124
vt -37.20568 0.1560211
vt -38.26639 0.4240227
vt -37.11526 0.3416176
vt -38.21868 0.2285385
vt -0.9774323 -0.026577
vt 1.378601 0.05629349
vt -1.053185 -0.41605
vt 1.332695 0.4460487
vt -1.151146 -0.02857971
vt 1.377502 0.05011749
vt -1.040909 -0.432312
vt 1.156004 0.4041634
vt 40.57283 1.809327
vt 41.55411 1.321795
vt 40.44665 1.648333
vt 41.54739 1.521973
vt 1.103533 -4.396942
vt -1.254648 -4.382271
vt 1.195408 -4.010948
vt -1.224937 -4.773617
vt 41.55195 -1.523779
vt 40.44666 -1.648329
vt 41.54407 -1.317812
vt 40.58622 -1.814631
vt 1.279522 -4.121292
vt -1.250004 -4.078964
vt 1.188721 -3.712749
vt -1.045689 -4.443214
vt 1.071275 0.06741142
vt 3.890557 -0.03258991
vt 1.071275 -0.03258967
vt 3.890557 0.06741118
vt 1.188945 1.268411
vt 1.012259 -0.9364834
vt 1.088945 1.268411
vt 1.11226 -0.9364831
vt 1.911055 1.377616
vt 1.887741 -0.8272777
vt 1.811055 1.377616
vt 1.987741 -0.8272777
vt 3.828729 -0.1451313
vt 1.009442 2.061099
vt 3.828728 2.061099
vt 1.009442 -0.1451316
vt 1.430511E-06 0.03730464
vt 4.900002 0.03730476
vt 0.04084826 2.962697
vt 0.04084635 0.03730524
vt 3.33786E-06 2.962696
vt 0 3
vt 4.900003 2.962696
vt 4.9 3
vt 3.849858 -0.03023291
vt 3.890698 2.101432
vt 3.890702 -0.03023386
vt 3.849853 2.101432
vt 1.395896 0.4520648
vt -1.317785 0.2407998
vt -1.12474 0.4359768
vt 0.1463566 0.2407995
vt -1.124739 0.04562275
vt 2.587258 0.2406835
vt 1.395896 0.02952849
vt 1.71417 0.2165064
vt -0.99951 0.4277717
vt 1.521125 0.4116834
vt 0.2500286 0.2165064
vt -2.190872 0.2163907
vt -0.9995111 0.005235562
vt 1.521125 0.02132935
vt 0.02060342 -0.0475769
vt 0.02939701 0.0475769
vt 0.05439687 0.004275322
vt 0.004396915 0.004275322
vt 0.02060318 0.03902531
vt -0.04560328 0.004275322
vt -0.02060342 0.0475769
vt -0.05439687 -0.004275322
vt 0.02939701 -0.03902531
vt -0.02060318 -0.03902531
vt 0.0250001 0.25
vt -0.02499986 -0.25
vt -0.02499986 0.25
vt 0.0250001 -0.25
vt -0.0250001 -0.25
vt -0.0250001 0.25
vt 0.02499962 0.25
vt 0.02499962 -0.25
vt 0.08647203 -0.3413491
vt 0.04780579 -0.3727355
vt -0.05913901 -0.3745234
vt -0.02500033 -0.2201467
vt 0.02499986 -0.2201467
vt -0.09780502 -0.3431375
vt -0.04780579 -0.3701243
vt -0.0250001 -0.247279
vt 0.02499962 -0.2472792
vt -0.08647203 -0.338991
vt 0.0250001 -0.3603444
vt -0.0250001 -0.1844716
vt 0.0250001 -0.1844716
vt -0.02499962 -0.3603446
vt 0.09780455 -0.3466308
vt -0.02500057 -0.223691
vt 0.0250001 -0.223691
vt 0.0591383 -0.378132
vt 0.02499962 -0.3297335
vt -0.0250001 -0.2193257
vt 0.0250001 -0.2193257
vt -0.02499962 -0.3297335
vt -0.2316328 -0.436636
vt -0.09380531 -0.3083997
vt -0.05835712 -0.3436615
vt -0.2420072 -0.3877244
vt -0.2174149 -0.4336669
vt -0.1046207 -0.3191202
vt -0.06918502 -0.3543949
vt -0.2277722 -0.3847518
vt 0.02499962 -0.4106761
vt -0.02499962 -0.2140326
vt 0.02499962 -0.2140326
vt -0.02499962 -0.4106761
vt 0.2420018 -0.3878777
vt 0.05836272 -0.3437688
vt 0.09381986 -0.3085158
vt 0.2316151 -0.4367867
vt 0.22771 -0.3849068
vt 0.06913364 -0.3544939
vt 0.1045818 -0.3192315
vt 0.2173355 -0.4338186
vt 0.02499962 -0.3819631
vt -0.0250001 -0.2424145
vt 0.02499962 -0.2424146
vt -0.02499962 -0.3819631
vt -0.3199731 -0.4748659
vt -0.2421883 -0.3841801
vt -0.2324359 -0.4332197
vt -0.3512587 -0.4358635
vt -0.3292739 -0.4823225
vt -0.2299213 -0.381634
vt -0.2201858 -0.4306769
vt -0.3605459 -0.4433091
vt 0.02499962 -0.4931395
vt -0.02499962 -0.3962003
vt 0.0250001 -0.3961992
vt -0.02499962 -0.4931395
vt 0.3512282 -0.4360821
vt 0.2324069 -0.4333775
vt 0.2421844 -0.3843429
vt 0.3199229 -0.4750686
vt 0.3604685 -0.4434481
vt 0.2201128 -0.4307675
vt 0.2298655 -0.3817282
vt 0.3291832 -0.4824507
vt 0.02499962 -0.5153053
vt -0.02499962 -0.3708527
vt 0.02499962 -0.3708527
vt -0.02499962 -0.5153053
vt -0.3259308 -0.5598159
vt -0.3354065 -0.4909518
vt -0.300699 -0.5269432
vt -0.3757281 -0.5560801
vt -0.3280108 -0.5841122
vt -0.3229308 -0.4829788
vt -0.288039 -0.5187915
vt -0.377862 -0.5806668
vt 0.02499962 -0.6389757
vt -0.02499962 -0.5974609
vt 0.02499962 -0.5974609
vt -0.02499962 -0.6389757
vt 0.3812764 -0.5477815
vt 0.3059182 -0.5198696
vt 0.3400807 -0.4833606
vt 0.3316967 -0.5524113
vt 0.3816596 -0.5795021
vt 0.2915405 -0.5181098
vt 0.3262478 -0.4821184
vt 0.3318621 -0.5832381
vt 0.0250001 -0.6913395
vt -0.02499962 -0.5792666
vt 0.02499962 -0.5792666
vt -0.02499962 -0.6913397
vt -0.3215065 -3.831926
vt -0.3658226 -0.543043
vt -0.3159015 -0.545849
vt -0.3714275 -3.82912
vt -0.3213568 -3.829206
vt -0.3656716 -0.5403461
vt -0.3157516 -0.5431521
vt -0.3712773 -3.8264
vt 0.02500057 -3.83247
vt -0.0250001 -0.5463464
vt 0.02499962 -0.5463464
vt -0.02499866 -3.83247
vt 0.371429 -3.82912
vt 0.3159008 -0.5458491
vt 0.3658228 -0.5430431
vt 0.3215079 -3.831926
vt 0.3712759 -3.8264
vt 0.3157513 -0.5431522
vt 0.3656723 -0.5403462
vt 0.3213539 -3.829206
vt 0.02499866 -3.827028
vt -0.0250001 -0.5409045
vt 0.02499914 -0.5409045
vt -0.02500057 -3.827028
vt -0.0194068 10.31361
vt 0.01941061 -2
vt -0.01941156 -2
vt 0.0194149 10.31361
vt -0.01553273 10.31362
vt 0.01552916 -2
vt -0.01552868 -2
vt 0.01552534 10.31362
vt 0 0.07500005
vt 0.02999997 0.05196142
vt 0 0.0600009
vt 0.03750038 0.06495214
vt 0.05196142 0.02999997
vt 0.0649519 0.0374999
vt 0.05999994 -1.192093E-07
vt 0.07499981 -2.384186E-07
vt 0.05196142 -0.02999997
vt 0.0649519 -0.03750014
vt 0.02999997 -0.05196142
vt 0.03750038 -0.06495225
vt 0 -0.05999994
vt 0 -0.07500005
vt 0 0.05999994
vt -0.03750002 0.0649519
vt 0 0.07499993
vt -0.03000259 0.05195856
vt -0.0649519 0.03749979
vt -0.05196178 0.02999997
vt -0.07500005 -1.192093E-07
vt -0.06000006 -1.192093E-07
vt -0.0649519 -0.03750002
vt -0.05196381 -0.03000307
vt -0.03750002 -0.0649519
vt -0.03000259 -0.05196464
vt -2.861023E-06 -0.06000423
vt 0.05999684 10.31361
vt 0.07499981 -2
vt 0.06000042 -2
vt 0.07499623 10.31361
vt -0.0750041 10.31362
vt -0.05999994 -2
vt -0.07499981 -2
vt -0.06000376 10.31361
vt -0.0150001 0.02499998
vt 0.0150001 -0.02499974
vt -0.0150001 -0.02499974
vt 0.0150001 0.02499998
vt 0.04711556 -0.06477559
vt 0.02379322 -0.08364511
vt 0.07831395 -0.09074402
vt 0.07646883 -0.1206871
vt 0.1135511 -0.07749069
vt 0.1265988 -0.1045046
vt 0.1252146 -0.04245007
vt 0.1561098 -0.03715289
vt -0.02379322 -0.08364499
vt -0.04711556 -0.06477547
vt -0.07646883 -0.1206871
vt -0.07831395 -0.09074402
vt -0.1265988 -0.1045046
vt -0.1135511 -0.07749069
vt -0.1561098 -0.03715289
vt -0.1252146 -0.04245007
vt 0.01499891 -0.08289009
vt -0.0150001 -0.01257533
vt 0.0150001 -0.01257533
vt -0.01499891 -0.08289009
vt 0.01499891 -0.07999676
vt -0.0150001 -0.02887425
vt 0.0150001 -0.02887425
vt -0.01499891 -0.07999676
vt -0.01499939 0.1319731
vt 0.01499939 0.06757729
vt -0.01499939 0.06757729
vt 0.01499939 0.1319731
vt -0.01499939 0.118244
vt 0.01499939 0.07765228
vt -0.01499939 0.07765228
vt 0.01499939 0.118244
vt -0.01499939 0.08837354
vt 0.01499939 0.03569615
vt -0.01499939 0.03569615
vt 0.01499939 0.08837354
vt -0.01499939 0.07900262
vt 0.01499939 0.04135537
vt -0.01499939 0.04135537
vt 0.01499939 0.07900262
vt -0.01499939 0.0286212
vt 0.01499939 -0.04491234
vt -0.01499939 -0.04491234
vt 0.01499939 0.0286212
vt -0.01499939 -0.0007295609
vt 0.01499939 -0.0376606
vt -0.01499939 -0.0376606
vt 0.01499939 -0.0007295609
vt -0.01499987 0.02499998
vt 0.01499987 -0.02499998
vt -0.01499987 -0.02499998
vt 0.01499987 0.02499998
vt -0.01499987 -0.01257533
vt 0.01499987 -0.01257533
vt -0.01499987 -0.02887425
vt 0.01499987 -0.02887425
vt -0.01940925 4.390958
vt 0.01941293 4.390958
vt -0.01553082 4.390957
vt 0.01552725 4.390957
vt 0.05196095 0.03000045
vt 0.0649519 0.03750002
vt 0.07500005 -1.192093E-07
vt 0.0649519 -0.0374999
vt 0.03000021 -0.05196166
vt 0.05999941 4.390957
vt 0.05999994 -2
vt 0.07499951 4.390957
vt -0.07500065 4.390958
vt -0.07500029 -2
vt -0.06000031 4.390958
vt 0.1536469 -0.03030539
vt -0.1536469 -0.03030539
vt -0.01499939 0.02414966
vt 0.01499939 -0.05482578
vt -0.01499939 -0.05482578
vt 0.01499939 0.02414966
vt -0.02499914 -0.1945152
vt 0.04999995 -0.1512136
vt 0.02500057 -0.1945133
vt 4.768372E-07 -0.1512136
vt 0.0250001 -0.1079121
vt -0.04999924 -0.1512146
vt -0.02499962 -0.107914
vt 0 3.8
vt 0.2199998 3.630001
vt 0 3.630001
vt 0.2199998 3.8
vt 0.1897287 3.600031
vt -0.002248213 3.629906
vt 0.2168471 3.644215
vt 0.03038636 3.589625
vt 0.1900308 0.03027177
vt 0.2199057 0.2222481
vt 0.2342137 0.003152847
vt 0.179625 0.1896133
vt 0.02996922 0.1897283
vt 9.417534E-05 -0.002248108
vt -0.0142138 0.2168471
vt 0.04037499 0.03038663
vt 0.009999514 3.8
vt 0.2100003 -1.192093E-07
vt 0.009999037 -1.192093E-07
vt 0.2100008 3.8
vt 2.384186E-07 0.1700001
vt 0.2199996 0
vt 0.2199996 0.1700001
vt 0.03027153 0.1999693
vt 0.2222476 0.1700943
vt 0.003153324 0.155786
vt 0.1896133 0.2103753

vn -1 0 1.064369E-07
vn 1 0 -2.128737E-07
vn 0 -1 0
vn 0 1 0
vn -8.278422E-08 0 1
vn -7.756189E-08 0.7071068 0.7071068
vn -0.7071068 0 0.7071067
vn 0.7071066 0 0.7071069
vn -7.756189E-08 -0.7071068 0.7071067
vn 4.367359E-05 -0.000281109 0.9999999
vn 0 0 -1
vn -1.123139E-07 -0.9742837 0.225325
vn 7.845023E-07 -0.2252412 -0.974303
vn 5.2123E-08 -0.9742678 -0.2253934
vn -2.264735E-07 -0.225332 0.974282
vn 1.147405E-08 -0.9912832 -0.1317487
vn -1.733765E-07 -0.09598248 0.995383
vn 0.03212768 0 0.9994838
vn 0.0003025536 -0.001054011 0.9999994
vn 0.9999948 0 -0.003243454
vn 2.188192E-05 -0.0007027336 0.9999998
vn 0.999979 0 -0.006486598
vn 0.9999973 0.002330851 0.0003083199
vn 0.9999998 -0.0007061825 -9.499206E-05
vn -5.157277E-08 0.9742837 0.2253249
vn 1.11741E-07 0.9742837 -0.2253249
vn -1.57594E-07 0.4999997 0.8660256
vn 1.882628E-07 0.5000005 -0.8660251
vn 0.6546475 0.6546578 -0.3779679
vn 0.6546471 0.6546588 0.3779671
vn 0.6796868 -0.005774172 0.7326587
vn 0.6546282 0 0.7559511
vn 0.7047455 -0.01154834 0.7093663
vn 0.6782023 -0.006177737 -0.7338938
vn 0.705364 0 -0.7088453
vn 0.6510406 -0.01235547 -0.7589423
vn -0.6546431 0.6546608 -0.3779704
vn -0.6796929 -0.005772745 -0.7326534
vn -0.65464 0 -0.7559407
vn -0.7047457 -0.01154549 -0.7093661
vn -0.654637 0.6546649 0.3779741
vn -0.6782103 -0.006180001 0.7338858
vn -0.705381 0 0.7088284
vn -0.6510395 -0.01236 0.7589433
vn -1.103959E-08 0.9914427 0.1305423
vn 2.054884E-08 -0.9953818 -0.09599546
vn 1.624E-08 -0.9953794 -0.09601966
vn 0.1782642 0.755913 0.6299344
vn 0.4564323 0.7559251 -0.4693047
vn 0.839551 0.5000034 0.212487
vn -0.6346662 0.7559182 -0.1605819
vn -0.2357981 0.5000169 -0.8332961
vn -0.603737 0.500015 0.6208757
vn 0.9673027 0.01058581 0.2534037
vn 0.686141 -0.2557961 -0.6810131
vn -0.287354 -0.2560721 -0.9229597
vn -0.9668569 0.0001241095 -0.2553191
vn -0.6800134 0.3068112 0.6659195
vn -0.6054922 0.6901615 0.3963033
vn -0.9665655 -0.00431758 -0.2563836
vn 0.2978167 0.2925278 0.9086984
vn 0.6213834 -0.6600115 -0.4222175
vn 0.9680333 0.01059289 0.2505981
vn 0.3601145 0.6888292 0.6291518
vn -0.354322 -0.6558817 -0.6665397
vn 0.5605052 -0.7997383 -0.2150638
vn 0.9694551 0.0005362561 0.2452682
vn 0.3918666 0.8003924 0.4536657
vn -0.391295 -0.7994817 -0.4557599
vn -0.9693403 -0.000476971 -0.2457216
vn -0.5600339 0.8006391 0.2129296
vn 0.6094642 -0.7094392 -0.353906
vn 0.969126 -0.009585208 0.2463794
vn 0.3550633 0.6687953 0.653179
vn -0.3527136 -0.7083123 -0.6114628
vn -0.9713483 0.001640985 -0.2376545
vn -0.6267378 0.6657892 0.4048758
vn 0.696384 -0.3062847 -0.6490293
vn 0.9705708 -0.007806654 0.2406895
vn 0.2837867 0.2534774 0.924778
vn -0.2883729 -0.3245189 -0.9008488
vn -0.9714153 -0.006655192 -0.2372929
vn -0.6921095 0.2553017 0.6751336
vn 0.61012 -0.5125757 -0.6041685
vn 0.622434 -0.7545017 0.2080939
vn 0.1616966 -0.7336243 0.6600376
vn -0.1953598 -0.7765634 -0.5989857
vn -0.6464766 -0.7545037 -0.1131024
vn -0.5975422 -0.4860744 0.6377108
vn -8.332946E-07 -0.2588604 0.9659148
vn -8.353035E-07 -0.5000073 0.8660212
vn 9.081052E-07 0.2588779 -0.9659101
vn -6.968608E-07 -0.8660178 0.5000133
vn 7.393819E-07 0.866019 -0.5000111
vn 1.098036E-07 -0.8660195 -0.5000103
vn -9.563969E-08 0.8660148 0.5000184
vn 5.590426E-07 -0.5000035 -0.8660234
vn 5.732201E-07 -0.4999997 -0.8660256
vn -5.590354E-07 0.5000135 0.8660176
vn 7.37692E-07 -0.2588604 -0.9659148
vn -7.002856E-07 0.2588636 0.9659139
vn 0 -0.5516745 0.8340595
vn 0 0.6281414 -0.7780992
vn 0 -0.8180191 0.5751911
vn 0 0.7686039 -0.639725
vn 0 -0.9516469 -0.3071942
vn 0 0.9359977 0.352006
vn 0 -0.4013104 -0.9159421
vn 0 0.3157232 0.9488513
vn 0 0.9360291 0.3519226
vn -3.039317E-07 -0.4999965 0.8660275
vn -3.515129E-07 -0.8660281 0.4999954
vn 4.521851E-07 0.8660297 -0.4999925
vn -2.211554E-07 -0.8660258 -0.4999993
vn 0 -0.5517085 -0.834037
vn 0 0.6281968 0.7780545
vn 1.142888E-06 -0.8179982 -0.5752208
vn 0 0.7685994 0.6397305
vn -6.103508E-07 -0.9516475 0.3071923
vn 0 0.9359877 -0.3520329
vn 0 -0.3424891 0.9395218
vn 0 0.3158334 -0.9488147
vn -0.01589884 -0.9978987 0.06281283
vn 0 -0.7071068 -0.7071068
vn 0.7071068 -0.7071068 0
vn -0.7071068 -0.7071068 0
vn 0.7071068 0.7071068 0
vn -0.7071068 0.7071068 0
vn 0 0.7071068 -0.7071068

usemtl JPBM6Metal003_2KMat
f 4/4/1 3/3/1 2/2/1 1/1/1
f 8/8/2 7/7/2 6/6/2 5/5/2
f 5/6/3 4/10/3 1/9/3 8/7/3
f 3/12/4 6/3/4 7/2/4 2/11/4

usemtl JPBM11LampMatOn
f 12/15/5 11/7/5 10/14/5 9/13/5
f 3/12/6 10/17/6 11/16/6 6/3/6
f 10/16/7 3/3/7 4/4/7 9/18/7
f 6/6/8 11/20/8 12/19/8 5/5/8
f 5/6/9 12/20/9 9/21/9 4/10/9

usemtl Planks037A_1K
f 25/33/1 49/58/1 23/7/1
f 46/63/11 50/59/11 42/62/11
f 52/64/11 50/59/11 46/63/11
f 53/65/11 52/64/11 46/63/11
f 52/64/11 53/65/11 56/69/11
f 63/78/2 62/77/2 61/75/2
f 13/22/2 15/24/2 14/23/2
f 14/23/2 59/72/2 13/22/2
f 16/25/5 18/27/5 17/26/5
f 17/26/5 19/28/5 16/25/5
f 20/29/5 16/25/5 21/30/5
f 21/30/5 22/31/5 20/29/5
f 23/7/5 22/31/10 24/32/5
f 24/32/5 25/33/5 23/7/5
f 24/32/5 27/30/5 26/34/5
f 26/34/5 28/35/5 24/32/5
f 29/36/5 26/34/5 30/37/5
f 30/37/5 33/40/5 29/36/5
f 31/38/5 28/35/5 29/36/5
f 29/36/5 33/40/5 31/38/5
f 32/39/5 25/33/5 31/38/5
f 31/38/5 30/37/5 32/39/5
f 34/41/5 35/42/5 32/39/5
f 32/39/5 36/43/5 34/41/5
f 36/43/5 38/45/5 37/44/5
f 37/44/5 13/46/5 36/43/5
f 13/46/5 37/44/5 39/47/5
f 39/47/5 15/48/5 13/46/5
f 39/47/5 38/45/5 40/49/5
f 40/49/5 41/50/5 39/47/5
f 42/51/1 44/53/1 43/52/1
f 43/52/1 45/54/1 42/51/1
f 46/55/1 42/51/1 45/54/1
f 45/54/1 47/56/1 46/55/1
f 35/42/1 47/56/1 45/54/1
f 45/54/1 32/39/1 35/42/1
f 25/33/1 32/39/1 45/54/1
f 45/54/1 48/57/1 25/33/1
f 49/58/1 48/57/1 43/52/1
f 43/52/1 23/7/1 49/58/1
f 50/59/11 51/61/11 44/60/11
f 44/60/11 42/62/11 50/59/11
f 54/66/11 50/59/11 52/67/11
f 52/67/11 55/68/11 54/66/11
f 57/70/11 52/64/11 56/69/11
f 56/69/11 58/71/11 57/70/11
f 36/73/2 13/22/2 60/74/2
f 60/74/2 61/75/2 36/73/2
f 34/76/2 36/73/2 61/75/2
f 61/75/2 62/77/2 34/76/2
f 63/78/2 14/23/2 58/79/2
f 58/79/2 56/80/2 63/78/2
f 62/77/2 63/78/2 56/80/2
f 56/80/2 53/81/2 62/77/2
f 64/82/2 63/78/2 61/75/2
f 61/75/2 65/83/2 64/82/2

usemtl Wood062_1KMat
f 18/87/3 67/86/3 66/85/3 17/84/3
f 69/91/1 68/90/1 41/89/1 40/88/1
f 16/92/2 20/90/2 71/89/2 70/88/2
f 75/96/12 74/95/12 73/94/12 72/93/12
f 77/100/1 76/99/1 73/98/1 74/97/1
f 79/102/1 77/100/1 74/97/1 78/101/1
f 72/106/13 73/105/13 76/104/13 80/103/13
f 75/107/2 72/101/2 80/102/2 81/100/2
f 83/98/2 75/107/2 81/100/2 82/99/2
f 78/109/14 74/95/14 75/96/14 83/108/14
f 82/104/15 79/103/15 78/106/15 83/105/15
f 87/113/16 86/112/16 85/111/16 84/110/16
f 89/117/2 88/116/2 85/115/2 86/114/2
f 91/121/1 90/120/1 87/119/1 84/118/1
f 88/125/17 91/124/17 84/123/17 85/122/17

usemtl JPBM8concrete03Mat
f 39/154/3 22/148/3 57/153/3
f 92/126/18 94/128/18 93/127/18
f 93/127/18 95/129/18 92/126/18
f 96/130/5 98/7/5 97/131/5
f 97/131/5 99/132/5 96/130/5
f 100/130/1 101/7/1 98/133/1
f 98/133/1 96/134/1 100/130/1
f 99/130/2 97/7/2 102/133/2
f 102/133/2 103/134/2 99/130/2
f 100/131/4 96/136/4 99/135/4
f 99/135/4 103/7/4 100/131/4
f 98/135/3 101/7/3 102/131/3
f 102/131/3 97/136/3 98/135/3
f 104/137/19 106/138/19 105/131/10
f 105/131/10 107/139/10 104/137/19
f 108/140/4 104/142/4 107/141/4
f 107/141/4 109/143/4 108/140/4
f 110/144/3 44/146/3 51/145/3
f 51/145/3 111/147/3 110/144/3
f 110/144/3 111/147/3 22/148/3
f 22/148/3 23/149/3 110/144/3
f 22/148/3 111/147/3 112/150/3
f 112/150/3 57/153/3 22/148/3
f 112/150/3 111/147/3 113/151/3
f 113/151/3 114/152/3 112/150/3
f 15/155/3 39/154/3 57/153/3
f 57/153/3 58/156/3 15/155/3
f 115/126/11 117/7/11 116/157/11
f 116/157/11 118/158/11 115/126/11
f 119/126/20 120/7/20 117/159/2
f 117/159/2 115/160/2 119/126/20
f 118/157/4 121/162/4 119/161/4
f 119/161/4 115/7/4 118/157/4
f 15/7/3 116/164/3 117/163/3
f 117/163/3 120/127/3 15/7/3
f 94/165/3 15/7/3 120/127/3
f 120/127/3 93/166/3 94/165/3
f 122/167/1 124/169/1 123/168/1
f 123/168/1 125/170/1 122/167/1
f 122/171/4 125/173/4 126/172/4
f 126/172/4 127/174/4 122/171/4
f 128/157/4 122/171/4 127/174/4
f 127/174/4 129/7/4 128/157/4
f 123/175/3 124/176/3 130/174/3
f 130/174/3 23/172/3 123/175/3
f 131/177/3 123/175/3 22/178/3
f 22/178/3 106/179/3 131/177/3
f 132/126/21 131/7/5 106/180/19
f 106/180/19 104/181/19 132/126/21
f 125/126/1 123/7/1 131/157/1
f 131/157/1 132/158/1 125/126/1
f 125/180/4 132/183/4 104/182/4
f 104/182/4 133/7/4 125/180/4
f 128/184/1 134/186/1 124/185/1
f 124/185/1 122/187/1 128/184/1
f 124/174/3 134/7/3 44/157/3
f 44/157/3 130/171/3 124/174/3
f 135/126/1 136/7/1 134/157/1
f 134/157/1 128/158/1 135/126/1
f 137/126/11 138/7/11 136/33/11
f 136/33/11 135/188/11 137/126/11
f 139/126/2 51/7/2 138/157/2
f 138/157/2 137/158/2 139/126/2
f 135/33/4 128/189/4 139/182/4
f 139/182/4 137/7/4 135/33/4
f 134/182/3 136/7/3 138/33/3
f 138/33/3 51/189/3 134/182/3
f 140/126/1 141/7/1 57/157/1
f 57/157/1 142/158/1 140/126/1
f 118/126/11 116/7/11 141/190/11
f 141/190/11 140/191/11 118/126/11
f 140/190/4 142/192/4 143/182/4
f 143/182/4 118/7/4 140/190/4
f 57/182/3 141/7/3 116/190/3
f 116/190/3 58/192/3 57/182/3
f 107/126/10 105/7/10 94/128/5
f 94/128/5 92/193/5 107/126/10
f 144/128/4 107/194/4 92/182/4
f 92/182/4 121/195/4 144/128/4
f 95/126/22 93/7/22 120/196/20
f 120/196/20 119/197/20 95/126/22
f 121/157/4 92/199/4 95/198/4
f 95/198/4 119/7/4 121/157/4
f 145/200/2 111/202/2 51/201/2
f 51/201/2 50/203/2 145/200/2
f 146/131/4 37/205/4 13/204/4
f 13/204/4 59/7/4 146/131/4
f 61/206/11 60/208/11 147/207/11
f 147/207/11 148/209/11 61/206/11
f 149/210/3 150/212/3 64/211/3
f 64/211/3 65/213/3 149/210/3
f 52/206/1 57/7/1 151/131/1
f 151/131/1 152/209/1 52/206/1
f 153/147/3 54/145/3 55/153/3
f 55/153/3 154/214/3 153/147/3
f 155/215/5 156/90/5 14/89/5
f 14/89/5 63/216/5 155/215/5
f 94/217/3 106/219/3 22/218/3
f 22/218/3 15/220/3 94/217/3

usemtl JPBM11RoofingTiles015B_1K
f 159/7/23 158/7/23 157/7/23
f 162/221/24 161/221/24 160/221/24
f 163/222/25 165/224/25 164/223/25
f 164/223/25 166/225/25 163/222/25
f 165/224/26 168/227/26 167/226/26
f 167/226/26 164/223/26 165/224/26
f 169/228/12 171/230/12 170/229/12
f 170/229/12 172/231/12 169/228/12
f 173/232/5 174/234/5 163/233/5
f 163/233/5 166/235/5 173/232/5
f 172/236/11 170/238/11 167/237/11
f 167/237/11 168/239/11 172/236/11
f 175/240/14 173/242/14 171/241/14
f 171/241/14 77/243/14 175/240/14
f 82/244/14 176/245/14 175/240/14
f 175/240/14 79/246/14 82/244/14
f 81/247/14 169/249/14 174/248/14
f 174/248/14 176/250/14 81/247/14
f 164/251/1 167/253/1 170/252/1
f 170/252/1 171/254/1 164/251/1
f 164/255/1 171/257/1 173/256/1
f 173/256/1 166/258/1 164/255/1
f 168/259/2 165/261/2 169/260/2
f 169/260/2 172/262/2 168/259/2
f 174/263/2 169/265/2 165/264/2
f 165/264/2 163/266/2 174/263/2
f 177/267/27 179/269/4 178/268/4
f 178/268/4 180/270/27 177/267/27
f 181/271/5 177/273/27 180/272/27
f 180/272/27 182/274/5 181/271/5
f 183/271/28 185/273/11 184/272/11
f 184/272/11 186/274/28 183/271/28
f 179/275/4 183/277/28 186/276/28
f 186/276/28 178/278/4 179/275/4
f 187/279/29 183/281/29 179/280/29
f 179/280/29 188/282/29 187/279/29
f 188/283/30 179/285/30 177/284/30
f 177/284/30 189/286/30 188/283/30
f 189/287/31 177/289/32 181/288/31
f 181/288/31 190/290/33 189/287/31
f 191/291/34 185/293/35 183/292/34
f 183/292/34 187/294/36 191/291/34
f 192/295/37 178/297/37 186/296/37
f 186/296/37 193/298/37 192/295/37
f 193/299/38 186/301/39 184/300/38
f 184/300/38 194/302/40 193/299/38
f 195/303/41 180/305/41 178/304/41
f 178/304/41 192/306/41 195/303/41
f 196/307/42 182/309/43 180/308/42
f 180/308/42 195/310/44 196/307/42
f 197/311/17 198/313/17 158/312/17
f 158/312/17 199/314/17 197/311/17
f 200/315/1 161/317/1 198/316/1
f 198/316/1 197/318/1 200/315/1
f 199/319/2 158/321/2 201/320/2
f 201/320/2 202/322/2 199/319/2
f 200/323/45 197/325/45 199/324/45
f 199/324/45 202/326/45 200/323/45
f 160/327/46 161/7/46 201/221/46
f 201/221/46 159/328/46 160/327/46
f 160/327/16 90/330/16 91/329/16
f 91/329/16 162/331/16 160/327/16
f 198/332/47 162/331/47 157/333/47
f 157/333/47 158/334/47 198/332/47
f 89/335/16 159/337/16 157/336/16
f 157/336/16 88/338/16 89/335/16
f 189/339/2 190/341/2 203/340/2
f 203/340/2 204/342/2 189/339/2
f 204/342/2 203/340/2 191/343/2
f 191/343/2 187/345/2 204/342/2
f 188/344/2 189/339/2 204/342/2
f 204/342/2 187/345/2 188/344/2
f 205/346/1 196/348/1 195/347/1
f 195/347/1 206/349/1 205/346/1
f 206/349/1 195/347/1 192/350/1
f 192/350/1 193/351/1 206/349/1
f 205/346/1 206/349/1 193/351/1
f 193/351/1 194/352/1 205/346/1

usemtl JPBM11Plastic013BGray
f 248/614/88 247/617/87 426/616/123
f 245/618/85 246/613/86 426/616/123
f 207/353/48 209/355/50 208/354/49
f 208/354/49 210/356/4 207/353/48
f 208/357/49 212/359/52 211/358/51
f 211/358/51 210/356/4 208/357/49
f 211/360/51 213/362/53 207/361/48
f 207/361/48 210/356/4 211/360/51
f 208/363/49 209/365/50 214/364/54
f 214/364/54 215/366/55 208/363/49
f 212/363/52 208/368/49 215/367/55
f 215/367/55 216/366/56 212/363/52
f 211/363/51 212/368/52 216/367/56
f 216/367/56 217/366/57 211/363/51
f 213/369/53 211/368/51 217/367/57
f 217/367/57 218/370/58 213/369/53
f 219/371/59 218/370/58 217/367/57
f 217/367/57 220/372/60 219/371/59
f 207/363/48 213/368/53 218/367/58
f 218/367/58 221/366/61 207/363/48
f 209/363/50 207/368/48 221/367/61
f 221/367/61 214/366/54 209/363/50
f 222/373/62 215/375/55 214/374/54
f 214/374/54 223/376/63 222/373/62
f 223/377/63 214/379/54 221/378/61
f 221/378/61 224/380/64 223/377/63
f 225/381/65 216/383/56 215/382/55
f 215/382/55 222/384/62 225/381/65
f 220/385/60 217/387/57 216/386/56
f 216/386/56 225/388/65 220/385/60
f 224/389/64 221/391/61 218/390/58
f 218/390/58 219/392/59 224/389/64
f 226/393/66 222/395/62 223/394/63
f 223/394/63 227/396/67 226/393/66
f 227/397/67 223/399/63 224/398/64
f 224/398/64 228/400/68 227/397/67
f 229/401/69 225/403/65 222/402/62
f 222/402/62 226/404/66 229/401/69
f 230/405/70 220/407/60 225/406/65
f 225/406/65 229/408/69 230/405/70
f 231/409/71 219/411/59 220/410/60
f 220/410/60 230/412/70 231/409/71
f 228/413/68 224/415/64 219/414/59
f 219/414/59 231/416/71 228/413/68
f 232/417/72 226/419/66 227/418/67
f 227/418/67 233/420/73 232/417/72
f 233/421/73 227/423/67 228/422/68
f 228/422/68 234/424/74 233/421/73
f 235/425/75 229/427/69 226/426/66
f 226/426/66 232/428/72 235/425/75
f 236/429/76 230/431/70 229/430/69
f 229/430/69 235/432/75 236/429/76
f 237/433/77 231/435/71 230/434/70
f 230/434/70 236/436/76 237/433/77
f 234/437/74 228/439/68 231/438/71
f 231/438/71 237/440/77 234/437/74
f 238/441/78 232/443/72 233/442/73
f 233/442/73 239/444/79 238/441/78
f 239/445/79 233/447/73 234/446/74
f 234/446/74 240/448/80 239/445/79
f 241/449/81 235/451/75 232/450/72
f 232/450/72 238/452/78 241/449/81
f 242/453/82 236/455/76 235/454/75
f 235/454/75 241/456/81 242/453/82
f 243/457/83 237/459/77 236/458/76
f 236/458/76 242/460/82 243/457/83
f 240/461/80 234/463/74 237/462/77
f 237/462/77 243/464/83 240/461/80
f 244/465/84 238/467/78 239/466/79
f 239/466/79 245/468/85 244/465/84
f 245/469/85 239/471/79 240/470/80
f 240/470/80 246/472/86 245/469/85
f 247/473/87 241/475/81 238/474/78
f 238/474/78 244/476/84 247/473/87
f 248/477/88 242/479/82 241/478/81
f 241/478/81 247/480/87 248/477/88
f 249/481/89 243/483/83 242/482/82
f 242/482/82 248/484/88 249/481/89
f 246/485/86 240/487/80 243/486/83
f 243/486/83 249/488/89 246/485/86
f 250/489/90 252/491/90 251/490/91
f 251/490/91 253/492/91 250/489/90
f 254/493/28 256/495/28 255/494/92
f 255/494/92 257/496/92 254/493/28
f 253/489/91 251/491/91 258/490/93
f 258/490/93 259/492/93 253/489/91
f 260/493/94 261/495/94 256/494/28
f 256/494/28 254/496/28 260/493/94
f 259/489/93 258/491/93 262/490/3
f 262/490/3 263/492/3 259/489/93
f 264/493/4 265/495/4 261/494/94
f 261/494/94 260/496/94 264/493/4
f 263/489/3 262/491/3 266/490/95
f 266/490/95 267/492/95 263/489/3
f 268/493/96 269/495/96 265/494/4
f 265/494/4 264/496/4 268/493/96
f 267/489/95 266/491/95 270/490/97
f 270/490/97 271/492/98 267/489/95
f 272/493/99 273/495/99 269/494/96
f 269/494/96 268/496/96 272/493/99
f 271/489/98 270/491/97 274/490/100
f 274/490/100 275/492/100 271/489/98
f 276/493/101 277/495/101 273/494/99
f 273/494/99 272/496/99 276/493/101
f 252/497/1 255/499/1 256/498/1
f 256/498/1 251/500/1 252/497/1
f 251/500/1 256/498/1 261/501/1
f 261/501/1 258/502/1 251/500/1
f 258/502/1 261/501/1 265/503/1
f 265/503/1 262/504/1 258/502/1
f 262/504/1 265/503/1 269/505/1
f 269/505/1 266/506/1 262/504/1
f 266/506/1 269/505/1 273/507/1
f 273/507/1 270/508/1 266/506/1
f 270/508/1 273/507/1 277/509/1
f 277/509/1 274/510/1 270/508/1
f 257/511/2 250/513/2 253/512/2
f 253/512/2 254/514/2 257/511/2
f 254/514/2 253/512/2 259/515/2
f 259/515/2 260/516/2 254/514/2
f 260/516/2 259/515/2 263/517/2
f 263/517/2 264/518/2 260/516/2
f 264/518/2 263/517/2 267/519/2
f 267/519/2 268/520/2 264/518/2
f 268/520/2 267/519/2 271/521/2
f 271/521/2 272/522/2 268/520/2
f 272/522/2 271/521/2 275/510/2
f 275/510/2 276/523/2 272/522/2
f 257/524/4 255/526/4 252/525/4
f 252/525/4 250/527/4 257/524/4
f 275/528/4 274/530/4 277/529/4
f 277/529/4 276/531/4 275/528/4
f 278/532/11 280/534/11 279/533/11
f 279/533/11 281/535/11 278/532/11
f 280/533/2 278/535/2 282/532/2
f 282/532/2 283/534/2 280/533/2
f 284/536/2 280/533/2 283/534/2
f 283/534/2 285/537/2 284/536/2
f 286/538/2 284/536/2 285/537/2
f 285/537/2 287/539/2 286/538/2
f 288/540/2 286/538/2 287/539/2
f 287/539/2 289/541/2 288/540/2
f 290/542/2 288/540/2 289/541/2
f 289/541/2 291/543/2 290/542/2
f 292/532/5 293/534/5 283/533/5
f 283/533/5 282/535/5 292/532/5
f 293/533/1 292/535/1 281/532/1
f 281/532/1 279/534/1 293/533/1
f 294/544/1 293/533/1 279/534/1
f 279/534/1 295/545/1 294/544/1
f 296/546/1 294/544/1 295/545/1
f 295/545/1 297/547/1 296/546/1
f 298/548/1 296/546/1 297/547/1
f 297/547/1 299/549/1 298/548/1
f 300/550/1 298/548/1 299/549/1
f 299/549/1 301/551/1 300/550/1
f 285/552/102 283/554/102 293/553/102
f 293/553/102 294/555/102 285/552/102
f 295/556/103 279/558/103 280/557/103
f 280/557/103 284/559/103 295/556/103
f 287/560/104 285/562/104 294/561/104
f 294/561/104 296/563/104 287/560/104
f 297/564/105 295/566/105 284/565/105
f 284/565/105 286/567/105 297/564/105
f 289/568/106 287/570/106 296/569/106
f 296/569/106 298/571/106 289/568/106
f 299/572/107 297/574/107 286/573/107
f 286/573/107 288/575/107 299/572/107
f 291/576/108 289/578/108 298/577/108
f 298/577/108 300/579/108 291/576/108
f 301/580/109 299/582/109 288/581/109
f 288/581/109 290/583/109 301/580/109
f 302/532/11 304/534/11 303/533/11
f 303/533/11 305/535/11 302/532/11
f 304/533/2 302/535/2 306/532/2
f 306/532/2 307/534/2 304/533/2
f 308/536/2 304/533/2 307/534/2
f 307/534/2 309/537/2 308/536/2
f 310/538/2 308/536/2 309/537/2
f 309/537/2 311/539/2 310/538/2
f 312/540/2 310/538/2 311/539/2
f 311/539/2 313/541/2 312/540/2
f 314/542/2 312/540/2 313/541/2
f 313/541/2 315/543/2 314/542/2
f 316/532/5 317/534/5 307/533/5
f 307/533/5 306/535/5 316/532/5
f 317/533/1 316/535/1 305/532/1
f 305/532/1 303/534/1 317/533/1
f 318/544/1 317/533/1 303/534/1
f 303/534/1 319/545/1 318/544/1
f 320/546/1 318/544/1 319/545/1
f 319/545/1 321/547/1 320/546/1
f 322/548/1 320/546/1 321/547/1
f 321/547/1 323/549/1 322/548/1
f 324/550/1 322/548/1 323/549/1
f 323/549/1 325/551/1 324/550/1
f 309/552/102 307/554/102 317/553/102
f 317/553/102 318/555/102 309/552/102
f 319/556/103 303/558/103 304/557/103
f 304/557/103 308/559/103 319/556/103
f 311/560/104 309/562/104 318/561/104
f 318/561/104 320/563/104 311/560/104
f 321/564/105 319/566/105 308/565/105
f 308/565/105 310/567/105 321/564/105
f 313/568/106 311/570/106 320/569/106
f 320/569/106 322/571/106 313/568/106
f 323/572/110 321/574/110 310/573/110
f 310/573/110 312/575/110 323/572/110
f 315/576/108 313/578/108 322/577/108
f 322/577/108 324/579/108 315/576/108
f 325/580/109 323/582/109 312/581/109
f 312/581/109 314/583/109 325/580/109
f 326/584/11 328/586/11 327/585/11
f 327/585/11 329/587/11 326/584/11
f 328/533/2 326/535/2 330/532/2
f 330/532/2 331/534/2 328/533/2
f 332/536/2 328/533/2 331/534/2
f 331/534/2 333/537/2 332/536/2
f 334/538/2 332/536/2 333/537/2
f 333/537/2 335/539/2 334/538/2
f 336/540/2 334/538/2 335/539/2
f 335/539/2 337/541/2 336/540/2
f 338/542/2 336/540/2 337/541/2
f 337/541/2 339/543/2 338/542/2
f 340/584/5 341/586/5 331/585/5
f 331/585/5 330/587/5 340/584/5
f 341/533/1 340/535/1 329/532/1
f 329/532/1 327/534/1 341/533/1
f 342/544/1 341/533/1 327/534/1
f 327/534/1 343/545/1 342/544/1
f 344/546/1 342/544/1 343/545/1
f 343/545/1 345/547/1 344/546/1
f 346/548/1 344/546/1 345/547/1
f 345/547/1 347/549/1 346/548/1
f 348/550/1 346/548/1 347/549/1
f 347/549/1 349/551/1 348/550/1
f 333/552/102 331/589/102 341/588/102
f 341/588/102 342/555/102 333/552/102
f 343/556/103 327/591/103 328/590/103
f 328/590/103 332/559/103 343/556/103
f 335/560/104 333/562/104 342/561/104
f 342/561/104 344/563/104 335/560/104
f 345/564/105 343/566/105 332/565/105
f 332/565/105 334/567/105 345/564/105
f 337/568/106 335/570/106 344/569/106
f 344/569/106 346/571/106 337/568/106
f 347/572/107 345/574/107 334/573/107
f 334/573/107 336/575/107 347/572/107
f 339/576/108 337/578/108 346/577/108
f 346/577/108 348/579/108 339/576/108
f 349/580/109 347/582/109 336/581/109
f 336/581/109 338/583/109 349/580/109
f 350/592/90 352/491/90 351/490/111
f 351/490/111 353/593/111 350/592/90
f 354/594/28 356/495/28 355/494/92
f 355/494/92 357/595/92 354/594/28
f 353/592/111 351/491/111 358/490/112
f 358/490/112 359/593/112 353/592/111
f 360/594/113 361/495/94 356/494/28
f 356/494/28 354/595/28 360/594/113
f 359/592/112 358/491/112 362/490/3
f 362/490/3 363/593/3 359/592/112
f 364/594/4 365/495/4 361/494/94
f 361/494/94 360/595/113 364/594/4
f 363/592/3 362/491/3 366/490/114
f 366/490/114 367/593/114 363/592/3
f 368/594/96 369/495/96 365/494/4
f 365/494/4 364/595/4 368/594/96
f 367/592/114 366/491/114 370/490/97
f 370/490/97 371/593/97 367/592/114
f 372/594/99 373/495/99 369/494/96
f 369/494/96 368/595/96 372/594/99
f 371/592/97 370/491/97 374/490/100
f 374/490/100 375/593/100 371/592/97
f 376/594/101 377/495/101 373/494/99
f 373/494/99 372/595/99 376/594/101
f 352/497/1 355/499/1 356/498/1
f 356/498/1 351/500/1 352/497/1
f 351/500/1 356/498/1 361/596/1
f 361/596/1 358/597/1 351/500/1
f 358/597/1 361/596/1 365/503/1
f 365/503/1 362/598/1 358/597/1
f 362/598/1 365/503/1 369/505/1
f 369/505/1 366/599/1 362/598/1
f 366/599/1 369/505/1 373/600/1
f 373/600/1 370/508/1 366/599/1
f 370/508/1 373/600/1 377/509/1
f 377/509/1 374/510/1 370/508/1
f 357/511/2 350/513/2 353/512/2
f 353/512/2 354/514/2 357/511/2
f 354/514/2 353/512/2 359/515/2
f 359/515/2 360/516/2 354/514/2
f 360/516/2 359/515/2 363/517/2
f 363/517/2 364/518/2 360/516/2
f 364/518/2 363/517/2 367/519/2
f 367/519/2 368/520/2 364/518/2
f 368/520/2 367/519/2 371/521/2
f 371/521/2 372/522/2 368/520/2
f 372/522/2 371/521/2 375/510/2
f 375/510/2 376/523/2 372/522/2
f 357/601/4 355/602/4 352/525/4
f 352/525/4 350/603/4 357/601/4
f 375/604/4 374/605/4 377/529/4
f 377/529/4 376/606/4 375/604/4
f 378/532/5 380/534/5 379/585/5
f 379/585/5 381/587/5 378/532/5
f 380/585/1 378/587/1 382/532/1
f 382/532/1 383/534/1 380/585/1
f 384/536/1 380/585/1 383/534/1
f 383/534/1 385/537/1 384/536/1
f 386/538/1 384/536/1 385/537/1
f 385/537/1 387/539/1 386/538/1
f 388/540/1 386/538/1 387/539/1
f 387/539/1 389/541/1 388/540/1
f 390/542/1 388/540/1 389/541/1
f 389/541/1 391/607/1 390/542/1
f 392/584/11 393/586/11 383/533/11
f 383/533/11 382/535/11 392/584/11
f 393/533/2 392/535/2 381/584/2
f 381/584/2 379/586/2 393/533/2
f 394/544/2 393/533/2 379/586/2
f 379/586/2 395/545/2 394/544/2
f 396/546/2 394/544/2 395/545/2
f 395/545/2 397/547/2 396/546/2
f 398/548/2 396/546/2 397/547/2
f 397/547/2 399/549/2 398/548/2
f 400/608/2 398/548/2 399/549/2
f 399/549/2 401/551/2 400/608/2
f 385/552/115 383/554/115 393/588/115
f 393/588/115 394/555/115 385/552/115
f 395/556/116 379/591/116 380/557/116
f 380/557/116 384/559/116 395/556/116
f 387/560/117 385/562/117 394/561/117
f 394/561/117 396/563/117 387/560/117
f 397/564/118 395/566/118 384/565/118
f 384/565/118 386/567/118 397/564/118
f 389/568/119 387/570/119 396/569/119
f 396/569/119 398/571/119 389/568/119
f 399/572/120 397/574/120 386/573/120
f 386/573/120 388/575/120 399/572/120
f 391/609/121 389/611/121 398/610/121
f 398/610/121 400/612/121 391/609/121
f 401/580/122 399/582/122 388/581/122
f 388/581/122 390/583/122 401/580/122
f 402/532/5 404/534/5 403/533/5
f 403/533/5 405/535/5 402/532/5
f 404/585/1 402/587/1 406/532/1
f 406/532/1 407/534/1 404/585/1
f 408/536/1 404/585/1 407/534/1
f 407/534/1 409/537/1 408/536/1
f 410/538/1 408/536/1 409/537/1
f 409/537/1 411/539/1 410/538/1
f 412/540/1 410/538/1 411/539/1
f 411/539/1 413/541/1 412/540/1
f 414/542/1 412/540/1 413/541/1
f 413/541/1 415/607/1 414/542/1
f 416/532/11 417/534/11 407/533/11
f 407/533/11 406/535/11 416/532/11
f 417/533/2 416/535/2 405/584/2
f 405/584/2 403/586/2 417/533/2
f 418/544/2 417/533/2 403/586/2
f 403/586/2 419/545/2 418/544/2
f 420/546/2 418/544/2 419/545/2
f 419/545/2 421/547/2 420/546/2
f 422/548/2 420/546/2 421/547/2
f 421/547/2 423/549/2 422/548/2
f 424/608/2 422/548/2 423/549/2
f 423/549/2 425/551/2 424/608/2
f 409/552/115 407/554/115 417/553/115
f 417/553/115 418/555/115 409/552/115
f 419/556/116 403/558/116 404/557/116
f 404/557/116 408/559/116 419/556/116
f 411/560/117 409/562/117 418/561/117
f 418/561/117 420/563/117 411/560/117
f 421/564/118 419/566/118 408/565/118
f 408/565/118 410/567/118 421/564/118
f 413/568/119 411/570/119 420/569/119
f 420/569/119 422/571/119 413/568/119
f 423/572/120 421/574/120 410/573/120
f 410/573/120 412/575/120 423/572/120
f 415/609/121 413/611/121 422/610/121
f 422/610/121 424/612/121 415/609/121
f 425/580/122 423/582/122 412/581/122
f 412/581/122 414/583/122 425/580/122
f 246/613/86 249/615/89 248/614/88
f 248/614/88 426/616/123 246/613/86
f 426/616/123 247/617/87 244/619/84
f 244/619/84 245/618/85 426/616/123
f 427/620/5 429/622/5 428/621/5
f 428/621/5 430/623/5 427/620/5
f 431/620/1 432/622/1 429/621/1
f 429/621/1 427/623/1 431/620/1
f 433/620/11 434/622/11 432/621/11
f 432/621/11 431/623/11 433/620/11
f 430/620/2 428/622/2 434/621/2
f 434/621/2 433/623/2 430/620/2
f 435/624/124 432/626/124 434/625/124
f 434/625/124 436/627/124 435/624/124
f 436/628/125 434/630/125 428/629/125
f 428/629/125 437/631/125 436/628/125
f 438/632/126 429/634/126 432/633/126
f 432/633/126 435/635/126 438/632/126
f 437/624/9 428/626/9 429/625/9
f 429/625/9 438/627/9 437/624/9
f 439/636/5 441/638/5 440/637/5
f 440/637/5 442/639/5 439/636/5
f 443/636/1 444/638/1 441/637/1
f 441/637/1 439/639/1 443/636/1
f 445/636/11 446/638/11 444/637/11
f 444/637/11 443/639/11 445/636/11
f 442/636/2 440/638/2 446/637/2
f 446/637/2 445/639/2 442/636/2
f 447/640/5 449/7/5 448/641/5
f 448/641/5 450/642/5 447/640/5
f 451/640/1 452/7/1 449/641/1
f 449/641/1 447/642/1 451/640/1
f 453/640/11 454/7/11 452/641/11
f 452/641/11 451/642/11 453/640/11
f 450/640/2 448/7/2 454/641/2
f 454/641/2 453/642/2 450/640/2
f 455/643/6 447/645/6 450/644/6
f 450/644/6 456/646/6 455/643/6
f 456/632/127 450/634/127 453/633/127
f 453/633/127 457/635/127 456/632/127
f 458/628/128 451/630/128 447/629/128
f 447/629/128 455/631/128 458/628/128
f 457/643/129 453/645/129 451/644/129
f 451/644/129 458/646/129 457/643/129
f 459/620/5 461/622/5 460/621/5
f 460/621/5 462/623/5 459/620/5
f 463/620/1 464/622/1 461/621/1
f 461/621/1 459/623/1 463/620/1
f 465/620/11 466/622/11 464/621/11
f 464/621/11 463/623/11 465/620/11
f 462/620/2 460/622/2 466/621/2
f 466/621/2 465/623/2 462/620/2
f 467/624/124 464/626/124 466/625/124
f 466/625/124 468/627/124 467/624/124
f 468/628/125 466/630/125 460/629/125
f 460/629/125 469/631/125 468/628/125
f 470/632/126 461/634/126 464/633/126
f 464/633/126 467/635/126 470/632/126
f 469/624/9 460/626/9 461/625/9
f 461/625/9 470/627/9 469/624/9
f 471/636/5 473/638/5 472/637/5
f 472/637/5 474/639/5 471/636/5
f 475/636/1 476/638/1 473/637/1
f 473/637/1 471/639/1 475/636/1
f 477/636/11 478/638/11 476/637/11
f 476/637/11 475/639/11 477/636/11
f 474/636/2 472/638/2 478/637/2
f 478/637/2 477/639/2 474/636/2
f 479/640/5 481/7/5 480/641/5
f 480/641/5 482/642/5 479/640/5
f 483/640/1 484/7/1 481/641/1
f 481/641/1 479/642/1 483/640/1
f 485/640/11 486/7/11 484/641/11
f 484/641/11 483/642/11 485/640/11
f 482/640/2 480/7/2 486/641/2
f 486/641/2 485/642/2 482/640/2
f 487/643/6 479/645/6 482/644/6
f 482/644/6 488/646/6 487/643/6
f 488/632/127 482/634/127 485/633/127
f 485/633/127 489/635/127 488/632/127
f 490/628/128 483/630/128 479/629/128
f 479/629/128 487/631/128 490/628/128
f 489/643/129 485/645/129 483/644/129
f 483/644/129 490/646/129 489/643/129

