# ProBuilder 5.0.6
# https://unity3d.com/unity/features/worldbuilding/probuilder
# 2025-04-23 오후 3:17:39

mtllib ./JPBM11Base.mtl
o JPBM11Base

g JPBM11Base
v 2.7495 -1.55 0.55
v -2.7495 -1.55 0.55
v 2.7495 1.55 0.55
v -2.7495 1.55 0.55
v 8.950493 -2.55 -10.4
v 9.000492 -2.55 -10.4
v 8.950493 -2.35 -10.4
v 9.000492 -2.35 -10.4
v 9.000492 -2.55 1.650003
v 9.000492 -2.35 1.650003
v 8.950493 -2.35 1.650003
v 8.950493 -2.55 1.650003
v -3.049503 -2.55 0.7000003
v -7.049503 -2.55 0.7000003
v -3.049503 -2.35 0.7000003
v -7.049503 -2.35 0.7000003
v -3.049503 -2.35 0.6500001
v -7.049503 -2.35 0.6500001
v -3.049503 -2.55 0.6500001
v -7.049503 -2.55 0.6500001
v -7.099503 -2.55 0.7000003
v -7.099503 -2.35 0.7000003
v -7.099503 -2.55 -9.4
v -7.099503 -2.35 -9.4
v -7.049503 -2.55 -9.4
v -7.049503 -2.35 -9.4
v -3.049503 -2.55 -9.4
v -3.049503 -2.35 -9.4
v -3.049503 -2.35 -9.35
v -7.049503 -2.35 -9.35
v -3.049503 -2.55 -9.35
v -7.049503 -2.55 -9.35
v -3.099503 -2.55 1.65
v -3.099503 -2.55 0.7000003
v -3.099503 -2.35 1.65
v -3.099503 -2.35 0.7000003
v -3.049503 -2.35 1.65
v -3.049503 -2.55 1.65
v 3.250782 -2.55 1.699719
v -3.099503 -2.55 1.7
v 3.250658 -2.35 1.7
v -3.099503 -2.35 1.7
v 3.250658 -2.35 1.65
v 3.250782 -2.55 1.649719
v 3.20078 -2.55 3.806892
v 3.200782 -2.55 1.699719
v 3.20078 -2.35 3.806892
v 3.200779 -2.35 1.699524
v 3.250781 -2.35 3.806892
v 3.250658 -2.35 1.7
v 3.250781 -2.55 3.806892
v 4.175778 -2.55 3.856892
v 3.200778 -2.55 3.856892
v 4.175778 -2.35 3.856892
v 3.200778 -2.35 3.856892
v 4.175778 -2.35 3.806892
v 4.175778 -2.55 3.806892
v 4.225779 -2.55 3.856892
v 4.225779 -2.35 3.856892
v 4.175779 -2.55 3.656892
v 4.225779 -2.55 3.656892
v 4.175779 -2.35 3.656892
v 4.225779 -2.35 3.656892
v 7.22579 -2.55 3.856892
v 7.175791 -2.55 3.856892
v 7.22579 -2.35 3.856892
v 7.175791 -2.35 3.856892
v 7.175791 -2.55 3.656892
v 7.175791 -2.35 3.656892
v 7.22579 -2.55 3.656892
v 7.22579 -2.35 3.656892
v 8.200791 -2.55 3.856892
v 8.200791 -2.35 3.856892
v 8.200791 -2.55 3.806892
v 8.200791 -2.35 3.806892
v 7.225791 -2.35 3.806892
v 7.225791 -2.55 3.806892
v -3.099504 -2.55 -9.4
v -3.099504 -2.55 -10.35
v -3.099504 -2.35 -9.4
v -3.099504 -2.35 -10.35
v -3.049503 -2.35 -10.35
v -3.049503 -2.55 -10.35
v -3.099504 -2.55 -10.4
v -3.099504 -2.35 -10.4
v -2.349504 -2.55 -10.4
v -2.349504 -2.35 -10.4
v -2.349504 -2.55 -10.35
v -2.349504 -2.35 -10.35
v -0.8495064 -2.55 -10.35
v -0.8495064 -2.55 -10.4
v -0.8495064 -2.35 -10.35
v -0.8495064 -2.35 -10.4
v 8.950493 -2.35 -10.35
v 8.950493 -2.55 -10.35
v 8.200787 -2.55 1.696892
v 8.200787 -2.35 1.696892
v 8.150787 -2.35 3.806892
v 8.150787 -2.35 1.696892
v 8.150787 -2.55 1.696892
v 8.150787 -2.55 3.806892
v 8.950787 -2.55 1.696892
v 8.950787 -2.35 1.696892
v 8.150787 -2.35 1.646892
v 8.150791 -2.55 1.646775
v 9.000786 -2.55 1.695285
v 9.000786 -2.35 1.695285
v 8.950787 -2.35 1.696892
v 9.000492 -2.35 1.650004
v 8.950493 -2.35 1.650004
v -3.049507 -2.549999 -9.349998
v -3.049507 -2.549999 -10.35
v -3.049507 1.55 -9.349998
v -3.049503 1.559827 -10.35
v -2.349506 -2.549999 -10.35
v -2.349506 1.55 -10.35
v -2.349506 -2.549999 -9.349998
v -2.349506 1.55 -9.349998
v -7.049503 1.45 0.6500001
v -3.049503 1.45 0.6500001
v -7.049503 1.45 -9.35
v -7.049503 2.585254 -4.35
v -3.049503 1.45 -9.35
v 4.175785 -2.55 1.586647
v 7.225693 -2.55 1.586647
v 4.175785 -2.55 3.481814
v 7.225788 -2.55 3.47128
v -0.8495064 -2.55 -9.350281
v -0.8495064 -2.55 -10.18944
v -2.349503 -2.55 -10.19004
v -2.749504 -1.55 1.65
v -3.049503 -1.55 1.65
v -2.749504 1.55 1.65
v -3.049503 1.55 1.65
v -3.049503 -1.55 0.5499997
v -3.049503 1.559642 0.5499997
v -2.749504 -1.55 0.5499997
v -2.749504 1.55 0.5499997
v 8.950497 1.55 1.650001
v -3.049503 1.95 1.65
v 8.950497 1.95 1.65
v 3.350498 -1.55 1.65
v 2.7495 -1.55 1.65
v 3.350498 1.55 1.65
v 2.7495 1.55 1.65
v 2.7495 -1.55 0.5499997
v 2.7495 1.55 0.5499997
v 8.150787 1.45 3.806892
v 7.225784 1.45 3.806892
v 7.225788 1.665785 1.586647
v 8.150791 1.665785 1.586647
v 4.175789 1.45 3.806892
v 3.250782 1.45 3.806892
v 3.250782 1.665785 1.586647
v 4.175785 1.665785 1.586647
v 7.225784 0.45 3.806892
v 4.175789 0.45 3.806892
v 7.225788 0.45 1.586647
v 4.175785 0.45 1.586647
v 8.950497 -0.8500001 1.650001
v 7.950497 -0.8500001 1.650001
v 8.950497 -2.55 -8.949999
v 8.950497 -0.8500001 -8.949999
v 7.950497 -0.8500001 -8.949999
v 7.950497 1.55 1.650001
v 7.950497 -0.8500001 -6.554999
v 8.950497 -0.8500001 -6.554999
v 7.950497 1.55 -6.554999
v 8.950497 1.55 -6.554999
v 8.950497 0.6499999 -8.949999
v 8.950497 0.6499999 -6.554999
v 8.950497 1.55 -8.949999
v 7.950497 0.6500003 -8.949997
v 7.950497 0.6500003 -6.554997
v -0.8495064 -2.55 -9.349998
v -0.8495064 1.55 -9.349998
v -0.8495064 1.55 -10.35
v 8.950497 1.550186 -10.35
v -2.349506 0.3500003 -10.35
v -0.8495064 0.3500003 -10.35
v -0.8495064 0.3500003 -9.349998
v -2.349506 0.3500003 -9.349998
v -3.049503 -2.55 0.5499997
v -3.049503 -1.55 1.312771
v 3.350498 -1.55 1.312771
v 3.350498 -1.55 0.5499997
v 2.749496 1.45 1.65
v -2.749504 1.45 1.65
v -2.749504 1.55 1.65
v 2.749496 1.55 1.65
v 2.749496 1.45 0.5500002
v -2.749504 1.45 0.5500002
v -2.749504 1.45 1.317872
v 2.749496 1.45 1.317872
v 8.950497 -2.549999 -8.949999
v 7.950497 -2.549999 -8.949999
v 7.950497 1.55 -8.949999
v 8.950497 3.331422 -4.35
v 8.950497 1.95 -10.35
v -3.049503 1.959642 -10.35
v -3.049503 3.341064 -4.35
v -3.219336 1.8347 -10.80679
v 9.216904 1.8347 -10.80679
v 9.216904 3.328216 -4.348966
v -3.219336 3.328216 -4.348966
v -3.219336 3.3689 -4.35
v -3.219336 1.873545 -10.81577
v 9.216904 1.873545 -10.81577
v 9.216904 3.3689 -4.35
v 9.248783 1.96563 2.15
v -3.251217 1.96563 2.15
v -3.251217 3.4689 -4.35
v 9.248783 3.4689 -4.35
v -3.251217 1.96563 -10.85
v 9.248783 1.96563 -10.85
v 9.248783 1.86563 -10.85
v -3.251217 1.86563 -10.85
v -3.251217 3.3689 -4.35
v 9.248783 3.3689 -4.35
v -3.219336 1.8347 2.106792
v 9.216904 1.8347 2.106792
v 9.248783 1.86563 2.15
v -3.251217 1.86563 2.15
v -3.219336 1.86563 2.15
v 9.216904 1.86563 2.15
v -3.219336 1.873545 2.115776
v 9.216904 1.873545 2.115776
v -3.069503 3.786077 -4.35
v 8.870498 3.786076 -4.35
v -3.069503 3.661077 -4.133494
v 8.870498 3.661076 -4.133494
v -3.069503 3.411077 -4.133494
v 8.870498 3.411076 -4.133494
v -3.069503 3.411077 -4.566506
v 8.870498 3.411076 -4.566506
v -3.069503 3.661077 -4.566506
v 8.870498 3.661076 -4.566506
v -3.099504 3.646077 -4.159474
v 8.900498 3.646075 -4.159474
v -3.099504 3.408124 -4.163348
v 8.900498 3.408122 -4.163348
v 8.900499 3.389661 -4.35
v -3.099504 3.389663 -4.35
v 8.900498 3.408123 -4.536652
v -3.099504 3.408124 -4.536652
v -3.099504 3.646077 -4.540526
v -3.099504 3.536077 -4.35
v -3.099504 3.756077 -4.35
v 8.900498 3.646075 -4.540526
v 8.900498 3.536075 -4.35
v 8.900498 3.756075 -4.35
v -2.825111 1.32539 1.110256
v -7.273895 1.32539 1.110256
v -7.273895 2.574172 -4.343032
v -2.825111 2.574172 -4.343032
v -7.273895 1.375125 1.117188
v -7.273895 2.623906 -4.349965
v -2.825111 2.623906 -4.349965
v -2.825111 1.375125 1.117188
v -2.799503 1.46763 1.15
v -7.299503 1.46763 1.15
v -7.299503 2.723897 -4.35
v -2.799503 2.723897 -4.35
v -7.299503 1.46763 -9.85
v -2.799503 1.46763 -9.85
v -2.825111 1.32539 -9.810257
v -7.273895 1.32539 -9.810257
v -7.299503 1.36763 1.15
v -2.799503 1.36763 1.15
v -2.799503 2.623898 -4.35
v -7.299503 2.623898 -4.35
v -7.299503 1.36763 -9.85
v -2.799503 1.36763 -9.85
v -7.299503 1.375125 -9.817188
v -2.799503 1.375125 -9.817188
v -7.273895 1.375125 -9.817188
v -2.825111 1.375125 -9.817188
v -7.140502 2.999076 -4.35
v -2.870502 2.999075 -4.35
v -7.140502 2.874076 -4.133494
v -2.870502 2.874075 -4.133494
v -7.140502 2.624076 -4.133494
v -2.870502 2.624076 -4.133494
v -7.140502 2.624076 -4.566506
v -2.870502 2.624076 -4.566506
v -7.140502 2.874076 -4.566506
v -2.870502 2.874075 -4.566506
v -7.170503 2.969076 -4.35
v -7.170503 2.749076 -4.35
v -7.170503 2.859076 -4.159474
v -7.170503 2.622107 -4.163429
v -7.170503 2.609835 -4.35
v -7.170503 2.622107 -4.536571
v -7.170503 2.859076 -4.540526
v 8.150783 1.418857 4.572164
v 3.250783 1.418857 4.572164
v 8.150783 1.518396 4.581764
v 3.250783 1.518396 4.581764
v 3.250783 1.706864 1.58602
v 3.250783 1.806402 1.59562
v 8.150783 1.706864 1.58602
v 8.150783 1.806402 1.59562
v 8.109944 1.659391 1.61892
v 3.291629 1.659391 1.61892
v 8.109946 1.378547 4.530799
v 3.291631 1.378547 4.530799
v 8.150784 1.703283 1.623152
v 3.250784 1.703283 1.623152
v 8.150785 1.422439 4.535032
v 3.250786 1.422439 4.535032
v 8.10994 1.703283 1.623153
v 3.291625 1.703283 1.623153
v 8.109941 1.422439 4.535032
v 3.291626 1.422439 4.535032
v 3.049782 -1.7 2.65
v -2.950218 -1.7 2.65
v 3.049782 -1.55 2.65
v -2.950218 -1.55 2.65
v -2.950218 -1.7 1.65
v -2.950218 -1.55 1.65
v 3.049782 -1.7 1.65
v 3.049782 -1.55 1.65
v -2.750218 -2.55 2.650001
v -2.950218 -2.55 2.650001
v -2.750218 -1.7 2.650001
v -2.950218 -2.55 2.450001
v -2.950218 -1.7 2.450001
v -2.750218 -2.55 2.450001
v -2.750218 -1.7 2.450001
v 3.049783 -2.55 2.650001
v 2.849783 -2.55 2.650001
v 2.849783 -1.7 2.650001
v 2.849783 -2.55 2.450001
v 2.849783 -1.7 2.450001
v 3.049783 -2.55 2.450001
v 3.049783 -1.7 2.450001
v -0.8168702 -2.55 2.650001
v -1.01687 -2.55 2.650001
v -0.8168702 -1.7 2.650001
v -1.01687 -1.7 2.650001
v -1.01687 -2.55 2.450001
v -1.01687 -1.7 2.450001
v -0.8168702 -2.55 2.450001
v -0.8168702 -1.7 2.450001
v 1.116457 -2.55 2.650001
v 0.9164567 -2.55 2.650001
v 1.116457 -1.7 2.650001
v 0.9164567 -1.7 2.650001
v 0.9164567 -2.55 2.450001
v 0.9164567 -1.7 2.450001
v 1.116457 -2.55 2.450001
v 1.116457 -1.7 2.450001
v -7.008502 0.8052061 1.194893
v -7.008502 1.305206 1.194893
v -6.983502 0.8052061 1.238195
v -6.983502 1.305206 1.238195
v -6.933502 0.8052061 1.238195
v -6.933502 1.305206 1.238195
v -6.908502 0.8052061 1.194893
v -6.908502 1.305206 1.194893
v -6.933502 0.8052061 1.151592
v -6.933502 1.305206 1.151592
v -6.983502 0.8052061 1.151592
v -6.983502 1.305206 1.151592
v -7.008501 -2.066337 0.7947171
v -6.958502 -2.066337 0.7947171
v -6.983501 -2.069143 0.8379273
v -6.958502 1.305206 1.194893
v -6.933502 -2.069143 0.8379273
v -6.908503 -2.066337 0.7947171
v -6.933502 -2.063531 0.7515066
v -6.983501 -2.063531 0.7515066
v -7.008501 0.6896214 1.110825
v -6.983501 0.6586039 1.141039
v -6.983501 0.7206392 1.080611
v -6.933502 0.6586039 1.141039
v -6.908503 0.6896214 1.110825
v -6.933502 0.7206392 1.080611
v -7.008501 0.6198447 0.9578958
v -6.983501 0.5767615 0.9622364
v -6.983501 0.6629279 0.9535549
v -6.933502 0.5767615 0.9622364
v -6.908503 0.6198447 0.9578958
v -6.933502 0.6629279 0.9535549
v -7.008501 0.5744388 0.8460662
v -6.983501 0.5401304 0.8724847
v -6.983501 0.6087475 0.819648
v -6.933502 0.5401304 0.8724847
v -6.908503 0.5744388 0.8460662
v -6.933502 0.6087475 0.819648
v -7.008501 0.512356 0.8011971
v -6.983501 0.5095501 0.8444073
v -6.983501 0.515162 0.7579868
v -6.933502 0.5095501 0.8444073
v -6.908503 0.512356 0.8011971
v -6.933502 0.515162 0.7579868
v -7.130503 1.329658 1.262015
v -7.130503 1.367158 1.272063
v -3.130502 1.329657 1.262015
v -3.130502 1.367157 1.272063
v -7.130503 1.367158 1.257063
v -7.130503 1.337158 1.249024
v -3.130502 1.367157 1.257063
v -3.130502 1.337157 1.249024
v -7.130503 1.302206 1.234563
v -3.130502 1.302205 1.234563
v -7.130503 1.315196 1.227063
v -3.130502 1.315196 1.227063
v -7.130503 1.292158 1.197063
v -3.130502 1.292157 1.197063
v -7.130503 1.307158 1.197063
v -3.130502 1.307157 1.197063
v -7.130503 1.302206 1.159563
v -3.130502 1.302205 1.159563
v -7.130503 1.315196 1.167063
v -3.130502 1.315196 1.167063
v -7.130503 1.329658 1.132111
v -3.130502 1.329657 1.132111
v -7.130503 1.337158 1.145102
v -3.130502 1.337157 1.145102
v -7.130503 1.367158 1.122063
v -3.130502 1.367157 1.122063
v -7.130503 1.367158 1.137063
v -3.130502 1.367157 1.137063
v -6.465217 1.293776 1.086063
v -6.495217 1.293776 1.086063
v -6.465217 1.343776 1.086063
v -6.495217 1.343776 1.086063
v -6.495217 1.293776 1.056063
v -6.495217 1.343776 1.056063
v -6.465217 1.293776 1.056063
v -6.465217 1.343776 1.056063
v -6.465218 1.235131 1.094856
v -6.495216 1.235131 1.094856
v -6.465218 1.254 1.118179
v -6.495216 1.254 1.118179
v -6.465218 1.198089 1.147532
v -6.495216 1.198089 1.147532
v -6.465218 1.228032 1.149377
v -6.495216 1.228032 1.149377
v -6.465218 1.214272 1.197662
v -6.495216 1.214272 1.197662
v -6.465218 1.241285 1.184614
v -6.495216 1.241285 1.184614
v -6.465218 1.316617 1.248766
v -6.495216 1.316617 1.248766
v -6.465218 1.306389 1.226449
v -6.495216 1.306389 1.226449
v -3.533502 1.293776 1.086063
v -3.563502 1.293776 1.086063
v -3.533502 1.343776 1.086063
v -3.563502 1.343776 1.086063
v -3.563502 1.293776 1.056063
v -3.563502 1.343776 1.056063
v -3.533502 1.293776 1.056063
v -3.533502 1.343776 1.056063
v -3.533503 1.235131 1.094856
v -3.563501 1.235131 1.094856
v -3.533503 1.254 1.118179
v -3.563501 1.254 1.118179
v -3.533503 1.198089 1.147532
v -3.563501 1.198089 1.147532
v -3.533503 1.228032 1.149377
v -3.563501 1.228032 1.149377
v -3.533503 1.214272 1.197662
v -3.563501 1.214272 1.197662
v -3.533503 1.241285 1.184614
v -3.563501 1.241285 1.184614
v -3.533503 1.315345 1.246703
v -3.563501 1.315345 1.246703
v -3.533503 1.306389 1.226449
v -3.563501 1.306389 1.226449
v -6.908502 0.8052061 -9.894108
v -6.908502 1.305206 -9.894108
v -6.933502 0.8052061 -9.93741
v -6.933502 1.305206 -9.93741
v -6.983502 0.8052061 -9.93741
v -6.983502 1.305206 -9.93741
v -7.008502 0.8052061 -9.894108
v -7.008502 1.305206 -9.894108
v -6.983502 0.8052061 -9.850807
v -6.983502 1.305206 -9.850807
v -6.933502 0.8052061 -9.850807
v -6.933502 1.305206 -9.850807
v -6.908503 -2.066337 -9.493933
v -6.958502 -2.066337 -9.493933
v -6.933502 -2.069143 -9.537142
v -6.958502 1.305206 -9.894108
v -6.983501 -2.069143 -9.537142
v -7.008501 -2.066337 -9.493933
v -6.983501 -2.063531 -9.450722
v -6.933502 -2.063531 -9.450722
v -6.908503 0.6896214 -9.81004
v -6.933502 0.6586039 -9.840254
v -6.933502 0.7206392 -9.779825
v -6.983501 0.6586039 -9.840254
v -7.008501 0.6896214 -9.81004
v -6.983501 0.7206392 -9.779825
v -6.908503 0.6198447 -9.65711
v -6.933502 0.5767615 -9.661451
v -6.933502 0.6629279 -9.652769
v -6.983501 0.5767615 -9.661451
v -7.008501 0.6198447 -9.65711
v -6.983501 0.6629279 -9.652769
v -6.908503 0.5744388 -9.54528
v -6.933502 0.5401304 -9.571699
v -6.933502 0.6087475 -9.518864
v -6.983501 0.5401304 -9.571699
v -7.008501 0.5744388 -9.54528
v -6.983501 0.6087475 -9.518864
v -6.908503 0.512356 -9.500412
v -6.933502 0.5095501 -9.543623
v -6.933502 0.515162 -9.457201
v -6.983501 0.5095501 -9.543623
v -7.008501 0.512356 -9.500412
v -6.983501 0.515162 -9.457201
v -7.130503 1.329658 -9.823984
v -7.130503 1.367158 -9.813936
v -3.130502 1.329657 -9.823984
v -3.130502 1.367157 -9.813936
v -7.130503 1.367158 -9.828936
v -7.130503 1.337158 -9.836975
v -3.130502 1.367157 -9.828936
v -3.130502 1.337157 -9.836975
v -7.130503 1.302206 -9.851437
v -3.130502 1.302205 -9.851437
v -7.130503 1.315196 -9.858936
v -3.130502 1.315196 -9.858936
v -7.130503 1.292158 -9.888937
v -3.130502 1.292157 -9.888937
v -7.130503 1.307158 -9.888937
v -3.130502 1.307157 -9.888937
v -7.130503 1.302206 -9.926437
v -3.130502 1.302205 -9.926437
v -7.130503 1.315196 -9.918936
v -3.130502 1.315196 -9.918936
v -7.130503 1.329658 -9.953888
v -3.130502 1.329657 -9.953888
v -7.130503 1.337158 -9.940899
v -3.130502 1.337157 -9.940899
v -7.130503 1.367158 -9.963936
v -3.130502 1.367157 -9.963936
v -7.130503 1.367158 -9.948936
v -3.130502 1.367157 -9.948936
v -6.825217 1.29583 -9.759409
v -6.795217 1.29583 -9.759409
v -6.825217 1.34583 -9.759409
v -6.795217 1.34583 -9.759409
v -6.795217 1.29583 -9.729408
v -6.795217 1.34583 -9.729408
v -6.825217 1.29583 -9.729408
v -6.825217 1.34583 -9.729408
v -6.825216 1.237185 -9.768202
v -6.795218 1.237185 -9.768202
v -6.825216 1.256054 -9.791523
v -6.795218 1.256054 -9.791523
v -6.825216 1.200143 -9.820877
v -6.795218 1.200143 -9.820877
v -6.825216 1.230086 -9.822721
v -6.795218 1.230086 -9.822721
v -6.825216 1.216325 -9.871008
v -6.795218 1.216325 -9.871008
v -6.825216 1.243339 -9.85796
v -6.795218 1.243339 -9.85796
v -6.825216 1.310595 -9.924238
v -6.795218 1.310595 -9.924238
v -6.825216 1.305607 -9.900261
v -6.795218 1.305607 -9.900261
v -3.740217 1.29583 -9.759409
v -3.710217 1.29583 -9.759409
v -3.740217 1.34583 -9.759409
v -3.710217 1.34583 -9.759409
v -3.710217 1.29583 -9.729408
v -3.710217 1.34583 -9.729408
v -3.740217 1.29583 -9.729408
v -3.740217 1.34583 -9.729408
v -3.740216 1.237185 -9.768202
v -3.710217 1.237185 -9.768202
v -3.740216 1.256054 -9.791523
v -3.710217 1.256054 -9.791523
v -3.740216 1.200143 -9.820877
v -3.710217 1.200143 -9.820877
v -3.740216 1.230086 -9.822721
v -3.710217 1.230086 -9.822721
v -3.740216 1.216325 -9.871008
v -3.710217 1.216325 -9.871008
v -3.740216 1.243339 -9.85796
v -3.710217 1.243339 -9.85796
v -3.740216 1.310595 -9.924238
v -3.710217 1.310595 -9.924238
v -3.740216 1.305607 -9.900261
v -3.710217 1.305607 -9.900261
v -2.816247 1.294314 -10.87873
v -2.816247 1.794314 -10.87873
v -2.82986 1.294314 -10.92684
v -2.82986 1.794314 -10.92684
v -2.878333 1.294314 -10.93911
v -2.878333 1.794314 -10.93911
v -2.913191 1.294314 -10.90326
v -2.913191 1.794314 -10.90326
v -2.899578 1.294314 -10.85515
v -2.899578 1.794314 -10.85515
v -2.851106 1.294314 -10.84289
v -2.851106 1.794314 -10.84289
v -2.914422 -2.284653 -10.49078
v -2.962893 -2.284653 -10.50305
v -2.928057 -2.287459 -10.53881
v -2.864719 1.794314 -10.891
v -2.976529 -2.287459 -10.55107
v -3.011364 -2.284653 -10.51532
v -2.997729 -2.281847 -10.46729
v -2.949257 -2.281847 -10.45503
v -2.836872 1.17873 -10.79723
v -2.853695 1.147712 -10.83265
v -2.86852 1.209747 -10.77407
v -2.902167 1.147712 -10.84492
v -2.933815 1.17873 -10.82176
v -2.916991 1.209747 -10.78634
v -2.874389 1.108953 -10.64898
v -2.89756 1.065869 -10.65932
v -2.89969 1.152036 -10.6509
v -2.946032 1.065869 -10.67158
v -2.971332 1.108953 -10.67351
v -2.948161 1.152036 -10.66317
v -2.901824 1.063547 -10.54056
v -2.919579 1.029238 -10.57231
v -2.93254 1.097855 -10.52109
v -2.96805 1.029238 -10.58457
v -2.998766 1.063547 -10.5651
v -2.981012 1.097855 -10.53335
v -2.912831 1.001464 -10.49706
v -2.926466 0.9986579 -10.54509
v -2.947668 1.00427 -10.46131
v -2.974938 0.9986579 -10.55735
v -3.009774 1.001464 -10.5216
v -2.996139 1.00427 -10.47357
v -3.156217 1.82013 -10.83516
v -3.156217 1.85763 -10.82511
v 9.157399 1.820126 -10.83516
v 9.157399 1.857626 -10.82511
v -3.156217 1.85763 -10.84011
v -3.156217 1.82763 -10.84815
v 9.157399 1.857626 -10.84011
v 9.157399 1.827626 -10.84815
v -3.156217 1.792678 -10.86261
v 9.157399 1.792674 -10.86261
v -3.156217 1.805669 -10.87011
v 9.157399 1.805664 -10.87011
v -3.156217 1.78263 -10.90011
v 9.157399 1.782626 -10.90011
v -3.156217 1.79763 -10.90011
v 9.157399 1.797626 -10.90011
v -3.156217 1.792678 -10.93761
v 9.157399 1.792674 -10.93761
v -3.156217 1.805669 -10.93011
v 9.157399 1.805664 -10.93011
v -3.156217 1.82013 -10.96506
v 9.157399 1.820126 -10.96506
v -3.156217 1.82763 -10.95207
v 9.157399 1.827626 -10.95207
v -3.156217 1.85763 -10.97511
v 9.157399 1.857626 -10.97511
v -3.156217 1.85763 -10.96011
v 9.157399 1.857626 -10.96011
v -2.603217 1.806456 -10.76991
v -2.573217 1.806456 -10.76991
v -2.603217 1.856456 -10.76991
v -2.573217 1.856456 -10.76991
v -2.573217 1.806456 -10.73991
v -2.573217 1.856456 -10.73991
v -2.603217 1.806456 -10.73991
v -2.603217 1.856456 -10.73991
v -2.603216 1.747811 -10.7787
v -2.573218 1.747811 -10.7787
v -2.603216 1.76668 -10.80202
v -2.573218 1.76668 -10.80202
v -2.603216 1.710769 -10.83138
v -2.573218 1.710769 -10.83138
v -2.603216 1.740712 -10.83322
v -2.573218 1.740712 -10.83322
v -2.603216 1.726951 -10.88151
v -2.573218 1.726951 -10.88151
v -2.603216 1.753965 -10.86846
v -2.573218 1.753965 -10.86846
v -2.603216 1.794303 -10.91102
v -2.573218 1.794303 -10.91102
v -2.603216 1.789006 -10.88012
v -2.573218 1.789006 -10.88012
v 2.496783 1.806456 -10.76991
v 2.526783 1.806456 -10.76991
v 2.496783 1.856456 -10.76991
v 2.526783 1.856456 -10.76991
v 2.526783 1.806456 -10.73991
v 2.526783 1.856456 -10.73991
v 2.496783 1.806456 -10.73991
v 2.496783 1.856456 -10.73991
v 2.496784 1.747811 -10.7787
v 2.526783 1.747811 -10.7787
v 2.496784 1.76668 -10.80202
v 2.526783 1.76668 -10.80202
v 2.496784 1.710769 -10.83138
v 2.526783 1.710769 -10.83138
v 2.496784 1.740712 -10.83322
v 2.526783 1.740712 -10.83322
v 2.496784 1.726951 -10.88151
v 2.526783 1.726951 -10.88151
v 2.496784 1.753965 -10.86846
v 2.526783 1.753965 -10.86846
v 2.496784 1.794303 -10.91102
v 2.526783 1.794303 -10.91102
v 2.496784 1.789006 -10.88012
v 2.526783 1.789006 -10.88012
v 7.678782 1.806456 -10.76991
v 7.708783 1.806456 -10.76991
v 7.678782 1.856456 -10.76991
v 7.708783 1.856456 -10.76991
v 7.708783 1.806456 -10.73991
v 7.708783 1.856456 -10.73991
v 7.678782 1.806456 -10.73991
v 7.678782 1.856456 -10.73991
v 7.678783 1.747811 -10.7787
v 7.708782 1.747811 -10.7787
v 7.678783 1.76668 -10.80202
v 7.708782 1.76668 -10.80202
v 7.678783 1.710769 -10.83138
v 7.708782 1.710769 -10.83138
v 7.678783 1.740712 -10.83322
v 7.708782 1.740712 -10.83322
v 7.678783 1.726951 -10.88151
v 7.708782 1.726951 -10.88151
v 7.678783 1.753965 -10.86846
v 7.708782 1.753965 -10.86846
v 7.678783 1.794303 -10.91102
v 7.708782 1.794303 -10.91102
v 7.678783 1.789006 -10.88012
v 7.708782 1.789006 -10.88012
v -3.156217 1.82013 2.257844
v -3.156217 1.85763 2.267892
v 3.234741 1.820127 2.257843
v 3.234741 1.857628 2.267891
v -3.156217 1.85763 2.252892
v -3.156217 1.82763 2.244853
v 3.234741 1.857628 2.252891
v 3.234741 1.827628 2.244853
v -3.156217 1.792678 2.230392
v 3.234741 1.792676 2.230391
v -3.156217 1.805669 2.222892
v 3.234741 1.805666 2.222891
v -3.156217 1.78263 2.192892
v 3.234741 1.782628 2.192891
v -3.156217 1.79763 2.192892
v 3.234741 1.797628 2.192891
v -3.156217 1.792678 2.155392
v 3.234741 1.792676 2.155391
v -3.156217 1.805669 2.162892
v 3.234741 1.805666 2.162891
v -3.156217 1.82013 2.12794
v 3.234741 1.820127 2.127939
v -3.156217 1.82763 2.14093
v 3.234741 1.827628 2.14093
v -3.156217 1.85763 2.117892
v 3.234741 1.857628 2.117891
v -3.156217 1.85763 2.132892
v 3.234741 1.857628 2.132891
v -2.519217 1.80383 2.071992
v -2.549217 1.80383 2.071992
v -2.519217 1.85383 2.071992
v -2.549217 1.85383 2.071992
v -2.549217 1.80383 2.041992
v -2.549217 1.85383 2.041992
v -2.519217 1.80383 2.041992
v -2.519217 1.85383 2.041992
v -2.519217 1.745185 2.080785
v -2.549216 1.745185 2.080785
v -2.519217 1.764054 2.104107
v -2.549216 1.764054 2.104107
v -2.519217 1.708143 2.133461
v -2.549216 1.708143 2.133461
v -2.519217 1.738086 2.135306
v -2.549216 1.738086 2.135306
v -2.519217 1.724325 2.183591
v -2.549216 1.724325 2.183591
v -2.519217 1.751339 2.170543
v -2.549216 1.751339 2.170543
v -2.519217 1.798524 2.210639
v -2.549216 1.798524 2.210639
v -2.519217 1.78638 2.182207
v -2.549216 1.78638 2.182207
v 2.714783 1.80383 2.071992
v 2.684783 1.80383 2.071992
v 2.714783 1.85383 2.071992
v 2.684783 1.85383 2.071992
v 2.684783 1.80383 2.041992
v 2.684783 1.85383 2.041992
v 2.714783 1.80383 2.041992
v 2.714783 1.85383 2.041992
v 2.714782 1.745185 2.080785
v 2.684783 1.745185 2.080785
v 2.714782 1.764054 2.104107
v 2.684783 1.764054 2.104107
v 2.714782 1.708143 2.133461
v 2.684783 1.708143 2.133461
v 2.714782 1.738086 2.135306
v 2.684783 1.738086 2.135306
v 2.714782 1.724325 2.183591
v 2.684783 1.724325 2.183591
v 2.714782 1.751339 2.170543
v 2.684783 1.751339 2.170543
v 2.714782 1.798524 2.210639
v 2.684783 1.798524 2.210639
v 2.714782 1.78638 2.182207
v 2.684783 1.78638 2.182207

vt 2.7495 -1.55
vt -2.7495 -1.55
vt 2.7495 1.55
vt -2.7495 1.55
vt 0.05 0
vt 0 0
vt 0.05 0.2
vt 0 0.2
vt 12.05 0
vt 12.05 0.2
vt 0 12.05
vt 0.05 12.05
vt 4 0
vt 4 0.2
vt 0 0.05
vt 4 0.05
vt 10.1 0
vt 10.1 0.2
vt 0 10.1
vt 0.05 10.1
vt 0.95 0
vt 0.95 0.2
vt 0 0.95
vt 0.05 0.95
vt 6.350285 0
vt 6.350161 0.2000002
vt 6.350161 0.05000009
vt 2.107368 0
vt 2.107368 0.2
vt 0 0.1999999
vt 0 2.107368
vt 0.05 2.107368
vt 0.975 0
vt 0.975 0.2
vt 0.975 0.05
vt 0.2 0
vt 0.2 0.2
vt 0.75 0
vt 0.75 0.2
vt 0.75 0.05
vt 9.8 0
vt 9.8 0.2
vt 9.8 0.05
vt 2.11 0
vt 2.11 0.2
vt 0 2.11
vt 0.05 2.11
vt 0.8 0
vt 0.8 0.2
vt 0.8 0.05
vt 0.0002941191 0.003111506
vt 0.7997097 0.00322628
vt 0.04999924 0
vt 0.04999924 0.2
vt 0.04528141 0
vt 0.04528141 0.2
vt 0 0.04528141
vt 0.04999924 0.04688859
vt 0.05029297 0.04528141
vt 0.0002937317 0.04688859
vt -9.536743E-07 8.25
vt -9.536743E-07 9.000001
vt 3.075 8.25
vt 3.08237 9.000002
vt 8.9505 2.4
vt 8.9505 2.925001
vt 12.03287 2.400002
vt 12.0255 2.925001
vt 14.15689 0
vt 13.15689 0
vt 14.15689 4.1
vt 13.15689 4.1
vt 4 0.9999981
vt 0 0.9999981
vt 4 11
vt 0 11
vt 12.0875 0.5125003
vt 12.0875 3.5125
vt 15.0875 3.5125
vt 15.0875 0.5124998
vt 2.69928 -1.31178
vt 2.69928 6.188221
vt 5.69928 6.188221
vt 6.55072 2.43822
vt 5.69928 -1.31178
vt 11.9125 0.5125003
vt 11.9125 3.5125
vt 14.9125 3.5125
vt 14.9125 0.5124998
vt 4 12
vt 4.699997 1
vt 10.30029 11.99972
vt 11.22529 11.93665
vt 14.2752 11.93665
vt 6.199997 0
vt 11.22529 13.83181
vt 14.27529 13.82128
vt 6.199997 0.9997177
vt 6.199997 0.1605587
vt 4.700001 0.1599617
vt 4.699993 1.907349E-06
vt 3.999996 0
vt 15.20029 11.99677
vt 16 0
vt 14.27529 14.15689
vt 15.20029 14.15689
vt 16 12
vt 10.30029 14.15689
vt 11.22528 14.15689
vt 0.75 -0.2249999
vt 3.075 -0.2250001
vt 3.075 -6.183982E-07
vt 0.75 0.8250005
vt 3.075 2.980232E-08
vt 3.082231 0.8250004
vt 3.256892 1
vt 2.156892 1
vt 3.256892 4.1
vt 2.156892 4.1
vt 3.075 -9
vt 3.375001 0
vt 3.375 -9
vt 0.75 -4.80075
vt 0.75 -4.350001
vt 3.075 -4.80075
vt 3.075 -4.350001
vt 12 1
vt 10.9 1
vt 12 4.1
vt 10.9 4.1
vt 7 1.01925
vt 7 1.712997
vt 10 1.01925
vt 10 1.713002
vt 11.06665 1.760831
vt 11.06665 3.426014
vt 14.06665 1.76083
vt 14.22849 3.426014
vt 2.706878 4.095096
vt 2.706878 5.715185
vt 5.868716 4.05
vt 5.706878 5.715185
vt 4.020797 11.60515
vt 4.020797 10.9114
vt 2.347766 11.60515
vt 2.347766 10.9114
vt 7 4.000006
vt 7 4.693755
vt 10 4
vt 10 4.693755
vt 11.06666 3.378706
vt -0.07160616 1.760827
vt -0.07160616 3.426011
vt 3.090232 1.760827
vt 2.928394 3.426011
vt 7.002049 11.60515
vt 7.002049 10.9114
vt 5.329018 11.60515
vt 5.329018 10.9114
vt 9.25 1.713
vt 9.25 4.000497
vt 10 4.000497
vt 10 4.000503
vt 11.66518 1.713003
vt 11.66518 4.0005
vt 4.768372E-07 -9
vt 0 -8.400217
vt 1.275001 -9
vt 1.275001 -8.249998
vt -0.7249999 2.203799
vt -0.7249994 10.1538
vt 0.5499997 2.203799
vt 0.5500002 10.1538
vt 0 10.6
vt 1 10.6
vt 1 0
vt 3.075001 -8.25
vt 1 1.7
vt 0 1.7
vt 1 4.1
vt 0 4.1
vt 0.5500001 4
vt 2.35 4
vt 2.35 10.15375
vt 1.675 2.20375
vt 1.675 4
vt 2.35 2.20375
vt 16 1.4
vt 15 1.400002
vt 16 3.795
vt 15 3.795002
vt 8.9505 4.05
vt 8.9505 11.4
vt 12.0255 4.05
vt 12.02564 11.4
vt 11.1255 2.925
vt 11.1255 4.05
vt 12.0255 4.05
vt 6.199997 1
vt 2.980232E-08 -4.725213
vt 0.7500006 -4.8
vt 5.960464E-08 0.8250004
vt 0.7500005 0.2529215
vt 5.599998 10.6
vt 12 10.6
vt 12 10.26277
vt 5.599998 10.26277
vt 12 9.499998
vt 5.599998 9.499998
vt 3 -4.35
vt 3 -0.22575
vt 3.075001 -0.22575
vt 3.075 -4.35
vt 2.7495 -0.550001
vt -2.7495 -0.5500001
vt -2.7495 0.2178725
vt 2.7495 0.2178715
vt -2.7495 0.5500009
vt 2.7495 0.55
vt 0.5 -2.049998
vt -0.5 -2.049998
vt 0.5 2.050002
vt -0.5 2.050002
vt -0.7250004 1.153752
vt 2.35014 1.15375
vt 2.35 4
vt 2.65 10.15375
vt 3.686067 5.653749
vt 2.650001 1.15378
vt 2.35 2.203781
vt 12.0255 4.049994
vt 12.02564 11.4
vt 12.3255 11.4
vt 12.33273 2.399996
vt 12.03287 2.399996
vt 12.0255 2.924994
vt 4.418299 4.499999
vt 3.075 8.249999
vt 3.382231 9
vt 4.418298 4.5
vt 3.082222 0.8249882
vt 0.03188133 0.04320812
vt 12.46812 0.04320812
vt 12.46812 6.501033
vt 0.03188133 6.501033
vt 6.5 1.5342
vt 0.03422451 0.0388453
vt 6.501033 1.493516
vt 0.04320812 0
vt 12.46812 0.0388453
vt 0.03187943 0.0388453
vt 12.46812 0
vt 0.03187943 0
vt 12.96578 0.0388453
vt 12.95679 0
vt 6.498967 1.493516
vt 0 12.87347
vt 12.5 12.87347
vt 12.5 6.373474
vt 0 6.373474
vt 12.5 -0.1265249
vt -4.768372E-07 -0.1265249
vt 9.681759 2.720572
vt 2.983236 2.952081
vt 3.10387 6.44253
vt 9.802393 6.211021
vt 0.03188133 12.95679
vt 12.46812 12.95679
vt 12.63685 6.302915
vt 12.63685 6.252914
vt 0.1368542 6.252914
vt 0.1368542 6.302915
vt 12.5 0.1059301
vt 12.5 0.05593014
vt 0 0.05593014
vt 0 0.1059301
vt 0 6.5
vt 0 13
vt 0.03188133 6.5
vt 0.03188133 13
vt 0 0.03093016
vt 12.46812 0.03093016
vt 0.03187943 0.03093016
vt 9.5625 9.991093
vt 9.5625 6.655308
vt 9.545605 9.991093
vt 9.545605 6.655308
vt 12.5 1.5342
vt 0.03187943 1.5342
vt 12.46812 1.5342
vt 12.46812 13
vt 0.03188133 12.96578
vt 12.46812 12.96578
vt 3.514791 -2.825495
vt 3.214138 3.674506
vt 3.234138 3.674506
vt 3.534791 -2.825495
vt 9.90968 3.333081
vt 9.681484 -3.157315
vt 9.590323 -3.174003
vt 9.81852 3.316393
vt 10.89696 3.303527
vt 10.58503 -3.19025
vt 10.49739 -3.204277
vt 10.80931 3.2895
vt 3.607131 -3.229756
vt 3.306477 3.270244
vt 3.326477 3.270244
vt 3.627131 -3.229756
vt 0.2165064 0.03
vt 0.2165064 11.97
vt 0.4330127 0.03
vt 0.4330127 11.97
vt -1.125 0.03
vt -1.125 11.97
vt 1.375 0.03
vt 1.375 11.97
vt -1.125 0.03
vt -1.125 11.97
vt 1.375 0.03
vt 1.375 11.97
vt -0.2015642 0.03
vt -0.2015642 11.97
vt 0.01494218 0.03
vt 0.01494218 11.97
vt -0.99951 0.4277717
vt 1.395896 0.4520648
vt 1.521125 0.4116834
vt -1.12474 0.4359768
vt -1.317785 0.2407998
vt 1.71417 0.2165064
vt -1.124739 0.04562275
vt 1.521125 0.02132935
vt -0.9995111 0.005235562
vt 0.2500286 0.2165064
vt -2.190872 0.2163907
vt 1.395896 0.02952849
vt 0.1463566 0.2407995
vt 2.587258 0.2406835
vt -37.42197 -0.05839515
vt -36.29587 0.1507421
vt -37.40742 0.1470692
vt -36.41646 0.3311124
vt -37.11526 0.3416176
vt -38.26639 0.4240227
vt -37.20568 0.1560211
vt -38.21868 0.2285385
vt -1.053185 -0.41605
vt 1.378601 0.05629349
vt -0.9774323 -0.026577
vt 1.332695 0.4460487
vt -1.040909 -0.432312
vt 1.377502 0.05011749
vt -1.151146 -0.02857971
vt 1.156004 0.4041634
vt 40.44665 1.648333
vt 41.55411 1.321795
vt 40.57283 1.809327
vt 41.54739 1.521973
vt 1.195408 -4.010948
vt -1.254648 -4.382271
vt 1.103533 -4.396942
vt -1.224937 -4.773617
vt 41.54407 -1.317812
vt 40.44666 -1.648329
vt 41.55195 -1.523779
vt 40.58622 -1.814631
vt 1.188721 -3.712749
vt -1.250004 -4.078964
vt 1.279522 -4.121292
vt -1.045689 -4.443214
vt 4.474392 10.96026
vt 0.02560806 10.96026
vt 0.02560806 5.506968
vt 4.474392 5.506968
vt 10.96719 0.0497345
vt 5.500035 1.298516
vt 10.96026 0
vt 5.506968 1.248782
vt 5.499965 1.298516
vt 0.03281164 0.0497345
vt 5.493032 1.248782
vt 0.0397439 0
vt 4.474392 0.0497345
vt 0.02560806 0.0497345
vt 4.474392 0
vt 0.02560806 0
vt 0 11.08966
vt 4.5 11.08966
vt 4.5 5.589663
vt 0 5.589663
vt 4.5 0
vt 0 5.5
vt 4.5 5.5
vt 4.474392 0.03974295
vt 0.02560806 0.03974295
vt 0 11
vt 4.5 11
vt 4.433402 0.1172396
vt 4.433402 0.06723964
vt -0.06659842 0.06723964
vt -0.06659842 0.1172396
vt 4.5 0.1172394
vt 4.5 0.06723946
vt 0 0.06723946
vt 0 0.1172394
vt 4.5 0.04223949
vt 4.5 1.298507
vt 4.5 0.04973441
vt 0 0.04223949
vt 0 1.298507
vt 0 0.04973441
vt 4.5 0.03281212
vt 0 0.03281212
vt 0.02560806 0.03281212
vt 0.02560806 5.500035
vt 4.474392 5.500035
vt 4.474392 0.03281212
vt 3.012402 -2.385359
vt 2.761148 3.114642
vt 2.781148 3.114642
vt 3.032402 -2.385359
vt 8.460383 2.971369
vt 8.280777 -2.519291
vt 8.190396 -2.535635
vt 8.370004 2.955024
vt 8.461868 3.192525
vt 8.276933 -2.299753
vt 8.191696 -2.313963
vt 8.376633 3.178316
vt 3.010412 -2.497661
vt 2.759158 3.002339
vt 2.779158 3.002339
vt 3.030412 -2.497661
vt 0.4528135 0.03
vt 0.4528135 4.3
vt 0.6693199 0.03
vt 0.6693199 4.3
vt -1.125 4.3
vt 1.375 4.3
vt -1.125 4.3
vt 1.375 4.3
vt 0 0.03
vt 0 4.3
vt 0.2165064 4.3
vt -2.190895 0.2166223
vt 1.516492 0.4079487
vt 1.642421 0.216506
vt 1.516492 0.02506336
vt 14.32029 -0.2888641
vt 13.22288 -0.6193848
vt 14.32817 -0.4948292
vt 13.36245 -0.7856884
vt 13.22289 0.6193781
vt 14.33035 0.2928429
vt 13.34906 0.7803664
vt 14.32362 0.4930167
vt 1.195534 -1.101368
vt -1.254543 -1.472692
vt 1.103573 -1.48691
vt -1.215204 -1.862589
vt 1.188103 -0.9797573
vt -1.249992 -1.347792
vt 1.269707 -1.390173
vt -1.045425 -1.711716
vt 4.9 0.0440949
vt 0 0.0440949
vt 4.9 0.1440949
vt 0 0.1440949
vt 1.45 -1.334036
vt 1.45 1.665964
vt 1.55 -1.334036
vt 1.55 1.665964
vt 1.45 -1.224832
vt 1.45 1.775169
vt 1.55 -1.224832
vt 1.55 1.775168
vt 4.768372E-07 2.923549
vt 4.900001 2.923549
vt 4.768372E-07 -0.07645142
vt 4.900001 -0.07645142
vt 4.859161 0.03730571
vt 0.04084635 0.03730524
vt 4.859163 2.962697
vt 0.04084826 2.962697
vt 4.9 0
vt 4.900002 0.03730476
vt 1.430511E-06 0.03730464
vt 4.9 1.117587E-07
vt 0 3
vt 4.9 3
vt 3.33786E-06 2.962696
vt 4.900003 2.962696
vt 0.04084611 1.862645E-07
vt 4.859161 2.011657E-07
vt 0.03730369 0.04409509
vt 2.962695 0.0440951
vt 0.03730321 7.450581E-09
vt 2.962694 0
vt 0.04084373 0.04409509
vt 4.859159 0.04409508
vt 6 0
vt 6 0.15
vt 0 0.15
vt 0.4250002 -0.3560321
vt 0.4250002 0.6439679
vt 0.5750003 -0.3560321
vt 0.5750003 0.6439679
vt 0.425 -0.4712814
vt 0.425 0.5287186
vt 0.575 -0.4712814
vt 0.575 0.5287186
vt 0 1
vt 6 1
vt 0.0999999 -0.425
vt -0.0999999 -0.425
vt 0.0999999 0.425
vt -0.0999999 0.425
vt 0.0999999 -0.0999999
vt -0.0999999 -0.0999999
vt 0.0999999 0.0999999
vt -0.0999999 0.0999999
vt 0.1 -0.425
vt -0.1000001 -0.425
vt 0.1 0.425
vt -0.1000001 0.425
vt 0.1 -0.0999999
vt -0.1000001 -0.0999999
vt 0.1 0.0999999
vt -0.1000001 0.0999999
vt -0.02499986 -0.25
vt -0.02499986 0.25
vt 0.0250001 -0.25
vt 0.0250001 0.25
vt -0.0250001 -0.25
vt -0.0250001 0.25
vt -0.04999924 -0.1970575
vt 0 -0.1970575
vt -0.02499962 -0.1537563
vt 0.0250001 0.04330134
vt 0.02499962 -0.1537563
vt -0.0250001 0.04330134
vt 0.04999924 -0.1970575
vt -0.05000019 0
vt 0.02499962 -0.2403589
vt -0.0250001 -0.04330134
vt 0.0250001 -0.04330134
vt -0.02499962 -0.2403589
vt -0.02500033 -0.2201467
vt 0.02499986 -0.2201467
vt -0.09780502 -0.3431375
vt -0.05913901 -0.3745234
vt -0.0250001 -0.247279
vt 0.0250001 -0.247279
vt -0.08647203 -0.338991
vt -0.04780579 -0.3701243
vt -0.0250001 -0.1844716
vt 0.0250001 -0.1844716
vt -0.02499962 -0.3603446
vt 0.02499962 -0.3603446
vt -0.02500057 -0.223691
vt 0.02499962 -0.223691
vt 0.0591383 -0.378132
vt 0.09780455 -0.3466308
vt -0.02499986 -0.2497451
vt 0.02500033 -0.2497451
vt 0.04780579 -0.3727355
vt 0.08647203 -0.3413491
vt -0.0250001 -0.2193257
vt 0.0250001 -0.2193257
vt -0.02499962 -0.3297335
vt 0.02499962 -0.3297335
vt -0.09380531 -0.3083997
vt -0.05835712 -0.3436615
vt -0.2420072 -0.3877244
vt -0.2316328 -0.436636
vt -0.1046207 -0.3191202
vt -0.06918502 -0.3543949
vt -0.2277722 -0.3847518
vt -0.2174149 -0.4336669
vt -0.02499962 -0.2140326
vt 0.02499962 -0.2140326
vt -0.02499962 -0.4106761
vt 0.02499962 -0.4106761
vt 0.05836272 -0.3437688
vt 0.09381986 -0.3085158
vt 0.2316151 -0.4367867
vt 0.2420018 -0.3878777
vt 0.06913364 -0.3544939
vt 0.1045818 -0.3192315
vt 0.2173355 -0.4338186
vt 0.22771 -0.3849068
vt -0.02499962 -0.2424146
vt 0.02499962 -0.2424146
vt -0.02499962 -0.3819631
vt 0.02499962 -0.3819631
vt -0.2421883 -0.3841801
vt -0.2324359 -0.4332197
vt -0.3512587 -0.4358635
vt -0.3199731 -0.4748659
vt -0.2299213 -0.381634
vt -0.2201858 -0.4306769
vt -0.3605459 -0.4433091
vt -0.3292739 -0.4823225
vt -0.02499962 -0.3962003
vt 0.02499962 -0.3962003
vt -0.02499962 -0.4931395
vt 0.02499962 -0.4931395
vt 0.2324069 -0.4333775
vt 0.2421844 -0.3843429
vt 0.3199229 -0.4750686
vt 0.3512282 -0.4360821
vt 0.2201128 -0.4307675
vt 0.2298655 -0.3817282
vt 0.3291832 -0.4824507
vt 0.3604685 -0.4434481
vt -0.02499962 -0.3708527
vt 0.02499962 -0.3708527
vt -0.02499962 -0.5153053
vt 0.02499962 -0.5153053
vt -0.3354065 -0.4909518
vt -0.300699 -0.5269432
vt -0.3757281 -0.5560801
vt -0.3259308 -0.5598159
vt -0.3229308 -0.4829788
vt -0.288039 -0.5187915
vt -0.377862 -0.5806668
vt -0.3280108 -0.5841122
vt -0.02499962 -0.5974609
vt 0.02499962 -0.5974609
vt -0.02499962 -0.6389757
vt 0.02499962 -0.6389757
vt 0.3059182 -0.5198696
vt 0.3400807 -0.4833606
vt 0.3316967 -0.5524113
vt 0.3812764 -0.5477815
vt 0.2915405 -0.5181098
vt 0.3262478 -0.4821184
vt 0.3318621 -0.5832381
vt 0.3816596 -0.5795021
vt -0.02499962 -0.5792666
vt 0.02499962 -0.5792666
vt -0.02499962 -0.6913397
vt 0.02499962 -0.6913397
vt -0.3658226 -0.543043
vt -0.3159015 -0.545849
vt -0.3714316 -3.121739
vt -0.3215106 -3.124544
vt -0.3656716 -0.5403461
vt -0.3157516 -0.5431521
vt -0.3712811 -3.119042
vt -0.3213611 -3.121848
vt -0.02499962 -0.546535
vt 0.02499962 -0.546535
vt -0.02499962 -3.125237
vt 0.02499962 -3.125237
vt 0.3159008 -0.5458491
vt 0.3658228 -0.5430431
vt 0.3215098 -3.124545
vt 0.3714318 -3.121739
vt 0.3157513 -0.5431522
vt 0.3656723 -0.5403462
vt 0.3213603 -3.121848
vt 0.3712816 -3.119042
vt -0.02499962 -0.5411402
vt 0.02499962 -0.5411402
vt -0.02499962 -3.119842
vt 0.02499962 -3.119842
vt 0.01941061 -2
vt -0.01941156 -2
vt 0.01941156 2
vt -0.01941109 2
vt 0.01552916 -2
vt -0.01552868 -2
vt 0.01552868 2
vt -0.01552916 2
vt 0.01941061 -2
vt -0.01941156 -2
vt 0.01552916 -2
vt -0.01552868 -2
vt 0.01941156 2
vt -0.01941156 2
vt 0.01552916 2
vt -0.0155282 2
vt 0 0.07500005
vt 0.0374999 0.0649519
vt 0 0.05999994
vt 0.02999997 0.05196142
vt -0.0374999 0.0649519
vt 0 0.07499993
vt -0.02999985 0.05196154
vt 0.0649519 0.0374999
vt 0.05196142 0.02999997
vt -0.0649519 0.03750002
vt -0.03750002 0.0649519
vt -0.05196178 0.02999997
vt 0.0649519 0.03750002
vt 0.07500005 -1.192093E-07
vt 0.05999994 -1.192093E-07
vt -0.07500005 -1.192093E-07
vt -0.06000006 -1.192093E-07
vt 0.0649519 -0.0374999
vt 0.05196142 -0.02999997
vt -0.06495178 -0.0374999
vt -0.05196142 -0.02999997
vt 0.0374999 -0.0649519
vt 0.02999997 -0.05196142
vt -0.03750002 -0.0649519
vt -0.0649519 -0.03750002
vt -0.02999997 -0.0519613
vt 0 -0.07500005
vt 0 -0.05999994
vt 0 -0.07499993
vt -0.0374999 -0.0649519
vt 0.07500029 -2
vt 0.07500029 2
vt 0.05999994 2
vt 0.05999994 -2
vt -0.05999994 -2
vt -0.05999994 2
vt -0.07500029 2
vt -0.07500029 -2
vt 0.01499987 -0.02499998
vt -0.01499987 -0.02499998
vt 0.01499987 0.02499998
vt -0.01499987 0.02499998
vt -0.01499987 -0.01257533
vt 0.01499987 -0.01257533
vt -0.01499891 -0.08289009
vt 0.01499891 -0.08289009
vt -0.0150001 -0.02499974
vt 0.0150001 -0.02499974
vt -0.04711556 -0.06477547
vt -0.02379322 -0.08364499
vt 0.02379322 -0.08364511
vt 0.04711556 -0.06477559
vt -0.01499987 -0.02887425
vt 0.01499987 -0.02887425
vt -0.01499891 -0.07999676
vt 0.01499891 -0.07999676
vt 0.01499939 0.06757729
vt -0.01499939 0.06757729
vt 0.01499939 0.1319731
vt -0.01499939 0.1319731
vt -0.07831395 -0.09074402
vt -0.07646883 -0.1206871
vt 0.07646883 -0.1206871
vt 0.07831395 -0.09074402
vt 0.01499939 0.07765228
vt -0.01499939 0.07765228
vt 0.01499939 0.118244
vt -0.01499939 0.118244
vt 0.01499939 0.03569615
vt -0.01499939 0.03569615
vt 0.01499939 0.08837354
vt -0.01499939 0.08837354
vt -0.1135511 -0.07749069
vt -0.1265988 -0.1045046
vt 0.1265988 -0.1045046
vt 0.1135511 -0.07749069
vt 0.01499939 0.04135537
vt -0.01499939 0.04135537
vt 0.01499939 0.07900262
vt -0.01499939 0.07900262
vt 0.01499939 -0.03694046
vt -0.01499939 -0.03694046
vt 0.01499939 0.07745445
vt -0.01499939 0.07745445
vt -0.1553857 -0.01238716
vt -0.1777031 -0.002159476
vt 0.1777031 -0.002159476
vt 0.1553857 -0.01238716
vt 0.01499939 -0.003806472
vt -0.01499939 -0.003806472
vt 0.01499939 0.07357955
vt -0.01499939 0.07357955
vt 0.0150001 0.02499998
vt -0.0150001 0.02499998
vt -0.0150001 -0.01257533
vt 0.0150001 -0.01257533
vt -0.0150001 -0.02887425
vt 0.0150001 -0.02887425
vt 0.01499939 -0.03875768
vt -0.01499939 -0.03875768
vt -0.1756396 -0.003431439
vt 0.1756396 -0.003431439
vt 0.02499962 -0.25
vt 0.02499962 0.25
vt -0.02499962 -0.2472787
vt 0.0250001 -0.223691
vt 0.02499962 -0.2497454
vt 0.03750038 0.06495214
vt 0 0.0600009
vt -0.0649519 0.03749979
vt 0.07499981 -2.384186E-07
vt 0.05196095 0.03000045
vt -0.07499981 -2.384186E-07
vt -0.05999947 -2.384186E-07
vt -0.05196095 0.03000045
vt 0.0649519 -0.03750014
vt 0.03750038 -0.06495225
vt 0.07499981 -2
vt 0.07499981 2
vt 0.06000042 2
vt 0.06000042 -2
vt -0.06000042 -2
vt -0.06000042 2
vt -0.07499981 2
vt -0.07499981 -2
vt 0.01499939 0.07951021
vt -0.01499939 0.07951021
vt -0.1558533 -0.01522267
vt -0.1798306 -0.01023519
vt 0.1798306 -0.01023519
vt 0.1558533 -0.01522267
vt 0.01499939 -0.0002908707
vt -0.01499939 -0.0002908707
vt 0.01499939 0.07498693
vt -0.01499939 0.07498693
vt -0.04999924 -0.1512146
vt 4.768372E-07 -0.1512136
vt -0.02499962 -0.107914
vt 0.05439687 0.004275322
vt 0.004396915 0.004275322
vt 0.02939701 0.0475769
vt 0.0250001 -0.1079121
vt 0.02060318 0.03902531
vt -0.004396915 -0.004276276
vt -0.02939701 0.03902531
vt 0.04999995 -0.1512136
vt -0.02060342 0.0475769
vt -0.04560328 0.004275322
vt 0.02500057 -0.1945133
vt -0.05439687 -0.004275322
vt -0.02939701 -0.0475769
vt -0.02060318 -0.03902531
vt 0.02939701 -0.03902531
vt -0.02499914 -0.1945152
vt 0.02060342 -0.0475769
vt 0.04560328 -0.004275322
vt 0.02499962 -0.2472792
vt 0.0250001 -0.3603444
vt -0.0250001 -0.2424145
vt 0.0250001 -0.3961992
vt 0.0250001 -0.6913395
vt -0.3714275 -3.82912
vt -0.3215065 -3.831926
vt -0.3712773 -3.8264
vt -0.3213568 -3.829206
vt -0.0250001 -0.5463464
vt 0.02499962 -0.5463464
vt -0.02499866 -3.83247
vt 0.02500057 -3.83247
vt 0.3215079 -3.831926
vt 0.371429 -3.82912
vt 0.3213539 -3.829206
vt 0.3712759 -3.8264
vt -0.0250001 -0.5409045
vt 0.02499914 -0.5409045
vt -0.02500057 -3.827028
vt 0.02499866 -3.827028
vt 0.0194149 10.31361
vt -0.0194068 10.31361
vt 0.01552534 10.31362
vt -0.01553273 10.31362
vt -0.03000259 0.05195856
vt -0.05196381 -0.03000307
vt -0.03000259 -0.05196464
vt -2.861023E-06 -0.06000423
vt 0.07499623 10.31361
vt 0.05999684 10.31361
vt -0.06000376 10.31361
vt -0.0750041 10.31362
vt 0.01499939 -0.04491234
vt -0.01499939 -0.04491234
vt 0.01499939 0.0286212
vt -0.01499939 0.0286212
vt -0.1252146 -0.04245007
vt -0.1561098 -0.03715289
vt 0.1561098 -0.03715289
vt 0.1252146 -0.04245007
vt 0.01499939 -0.0376606
vt -0.01499939 -0.0376606
vt 0.01499939 -0.0007295609
vt -0.01499939 -0.0007295609
vt 0.01941293 4.390958
vt -0.01940925 4.390958
vt 0.01552725 4.390957
vt -0.01553082 4.390957
vt 0.03000021 0.05196154
vt 0.06000018 2.384186E-07
vt 0.05196142 -0.03000009
vt 0.03000021 -0.05196166
vt 0.07499951 4.390957
vt 0.05999941 4.390957
vt -0.06000031 4.390958
vt -0.07500065 4.390958
vt 0.01499939 -0.05482578
vt -0.01499939 -0.05482578
vt 0.01499939 0.02414966
vt -0.01499939 0.02414966
vt -0.1536469 -0.03030539
vt 0.1536469 -0.03030539

vn 0 0 1
vn 0 0 -1
vn 1 0 0
vn 0 1 0
vn 0 -1 0
vn -1 0 0
vn 4.422744E-05 -0.001404255 0.999999
vn 2.211372E-05 -0.0007021273 0.9999995
vn 0.03212273 0 0.9994839
vn 0.999979 0 -0.006486669
vn 0 0.9953102 0.09673381
vn -0.004034302 0 0.9999918
vn -0.002017151 -0.0009489043 0.999995
vn -0.001344767 -0.0006326028 0.9999967
vn 0 -0.000280857 0.9999999
vn 0 -0.9742837 0.2253248
vn 0 -0.2253207 -0.9742846
vn 0 0.9742837 0.2253249
vn 0 0.9742837 -0.2253248
vn 0 -0.9742679 -0.2253933
vn 0 0 0
vn 0 -0.2253207 0.9742846
vn 3.993609E-08 0.4999997 0.8660256
vn 3.993609E-08 0.4999997 -0.8660256
vn 0.654644 0.6546606 -0.3779691
vn 0.6546476 0.654658 0.3779675
vn 0.6546341 0 0.7559459
vn 0.6796926 -0.005774118 0.7326533
vn 0.7047511 -0.01154824 0.7093607
vn 0.7053697 0 -0.7088397
vn 0.6782082 -0.006177677 -0.7338884
vn 0.6510468 -0.01235535 -0.7589371
vn -0.6546357 0.6546669 -0.3779727
vn -0.6546341 0 -0.7559459
vn -0.6796927 -0.005774126 -0.7326531
vn -0.7047514 -0.01154825 -0.7093604
vn -0.6546322 0.6546695 0.3779742
vn -0.7053697 0 0.7088397
vn -0.6782083 -0.006177662 0.7338883
vn -0.6510469 -0.01235532 0.7589369
vn 0 -0.9747685 -0.2232182
vn 0 -0.1380505 0.9904252
vn 0 0.9748922 0.2226774
vn 0 0.9748922 -0.2226774
vn 0 -0.9748922 0.2226774
vn 0 -0.9748922 -0.2226774
vn 0 0.9731578 -0.2301387
vn 0 -0.1380325 -0.9904277
vn -0.6802688 -0.005909871 -0.7320781
vn -0.7058975 -0.01181974 -0.7082154
vn -0.7063357 0 0.7078771
vn -0.6786481 -0.006333704 0.7334415
vn -0.6509606 -0.01266741 0.7590058
vn 0 -0.09600142 0.9953812
vn 0 0.9953811 0.0960021
vn 9.500702E-09 -0.9953811 -0.09600212
vn 0 -0.9953818 -0.09599493
vn 0 -0.09599449 0.9953819
vn -0.9999463 0.0001061804 0.01036294
vn -0.6546535 0.7559291 0
vn -0.5049856 -0.2560672 0.8242689
vn -0.3273266 0.7559288 0.5669469
vn 0.4980686 -0.2557945 0.8285511
vn 0.3273266 0.7559288 0.5669469
vn 0.9999094 0.01057675 -0.008325027
vn 0.6546535 0.7559291 0
vn 0.5116054 0.2925192 -0.8078938
vn 0.3273266 0.7559288 -0.5669469
vn -0.4958854 0.3068046 -0.8123845
vn -0.3273266 0.7559288 -0.5669469
vn -0.865921 -0.4991296 -0.03241088
vn 0 -0.9978982 -0.06480042
vn -0.4432037 -0.5128694 0.7352111
vn 0.4432037 -0.5128694 0.7352111
vn 0.8659209 -0.4991297 -0.03241139
vn 0.4229577 -0.485755 -0.7649502
vn -0.4229573 -0.4857549 -0.7649505
vn -0.999925 -0.004343336 0.01144687
vn -0.507026 -0.6558698 0.5592489
vn -0.489753 0.6901706 -0.5327349
vn 0.4987995 -0.6600153 0.5617641
vn 0.999929 0.01059668 -0.005462372
vn 0.5034466 0.6888269 -0.5215927
vn -0.9999998 -0.0004754198 0.0004064349
vn -0.4911428 -0.7994846 0.3458368
vn -0.4906805 0.8006418 -0.3438101
vn 0.4906427 -0.7997263 0.3459877
vn 0.9999999 0.0005564416 4.727175E-05
vn 0.4911971 0.8003907 -0.3436569
vn -0.9999672 0.001665117 -0.007928686
vn -0.4919442 -0.7083092 0.50625
vn -0.5082812 0.6657703 -0.5462601
vn 0.5040441 -0.7094272 0.4925978
vn 0.9999533 -0.009609419 -0.00108069
vn 0.5044676 0.6687853 -0.5461124
vn -0.9999433 -0.006637871 -0.008320858
vn -0.5005189 -0.3247365 0.8025129
vn -0.5053338 0.255515 -0.8242267
vn 0.5158755 -0.3065033 0.7999551
vn 0.9999577 -0.007831096 0.004835226
vn 0.5019591 0.2536914 -0.8268481
vn -7.849889E-08 -0.5000018 0.8660244
vn -3.856724E-08 -0.2588202 0.9659255
vn 3.085382E-08 0.2588206 -0.9659255
vn 5.960472E-08 0.5000007 -0.866025
vn -1.032382E-07 -0.8660249 0.5000009
vn -1.141467E-07 -0.8660254 0.4999999
vn 1.439488E-07 0.8660244 -0.5000018
vn -1.141467E-07 -0.8660254 -0.4999999
vn 1.548573E-07 0.866025 0.5000007
vn -8.541428E-08 -0.5000005 -0.8660251
vn -3.085387E-08 -0.258821 -0.9659253
vn 3.085382E-08 0.2588206 0.9659255
vn 0 -0.5517099 -0.8340361
vn 0 0.628207 0.7780463
vn 0 -0.8179967 -0.575223
vn 0 0.7685875 0.6397446
vn 0 -0.9516453 0.3071991
vn 0 0.9359863 -0.3520366
vn 0 -0.4467367 0.8946655
vn 0 0.5405959 -0.8412824
vn 0 -0.4365299 0.8996897
vn 0.9999464 0.0001091191 -0.01035487
vn 0.5049899 -0.2560687 -0.8242658
vn -0.498074 -0.2557961 -0.8285473
vn -0.9999093 0.01057819 0.008332808
vn -0.5116033 0.292521 0.8078945
vn 0.4958819 0.3068075 0.8123856
vn 0.8659213 -0.4991294 0.03240806
vn 0 -0.9978982 0.06480095
vn 0.4431997 -0.5128687 -0.7352141
vn -0.4432031 -0.5128697 -0.7352113
vn -0.8659208 -0.4991305 0.03240399
vn -0.4229594 -0.4857559 0.7649488
vn 0.4229594 -0.4857559 0.7649488
vn 0.9999251 -0.004342815 -0.0114454
vn 0.507026 -0.6558712 -0.5592474
vn 0.4897516 0.6901724 0.5327338
vn -0.4988005 -0.6600162 -0.5617622
vn -0.999929 0.01059778 0.005462916
vn -0.5034466 0.6888283 0.5215908
vn 0.9999998 -0.0004744527 -0.0004057727
vn 0.4911436 -0.7994844 -0.3458363
vn 0.4906806 0.8006412 0.3438113
vn -0.4906434 -0.7997261 -0.3459872
vn -0.9999999 0.0005569028 -4.703215E-05
vn -0.4911969 0.8003904 0.3436579
vn 0.9999672 0.001668114 0.007929155
vn 0.4919471 -0.7083037 -0.5062549
vn 0.5082773 0.6657738 0.5462595
vn -0.5040455 -0.7094217 -0.4926043
vn -0.9999533 -0.009605491 0.00108418
vn -0.5044648 0.6687877 0.546112
vn 0.9999433 -0.006637061 0.008319866
vn 0.5005205 -0.324726 -0.8025163
vn 0.5053356 0.2555182 0.8242247
vn -0.5158768 -0.306496 -0.7999571
vn -0.9999577 -0.007827832 -0.004835744
vn -0.501962 0.2536954 0.8268451
vn -1.141457E-07 -0.8660197 -0.5000098
vn 1.548586E-07 0.866032 0.4999885
vn -8.54119E-08 -0.4999867 -0.8660331
vn 7.051393E-08 0.5000032 0.8660235
vn 0 -0.5517123 0.8340346
vn 0 0.62819 -0.77806
vn 0 -0.8179954 0.5752247
vn 0 0.76859 -0.6397418
vn 0 -0.9516466 -0.3071951
vn 0 0.9359894 0.3520283
vn 0 -0.4916898 -0.8707705
vn 0 0.5619354 0.8271812
vn 0.9719315 0.0001075834 0.235264
vn 0.6346484 0.7559286 0.1606031
vn 0.6917674 -0.2560677 -0.6751941
vn 0.4564098 0.7559294 -0.4693196
vn -0.2795858 -0.255795 -0.9254192
vn -0.1782391 0.7559289 -0.6299225
vn -0.971395 0.01057664 -0.2372337
vn -0.6346484 0.7559286 -0.1606031
vn -0.6941678 0.292522 0.6576943
vn -0.4564098 0.7559294 0.4693196
vn 0.281435 0.3068095 0.9092097
vn 0.1782391 0.7559289 0.6299225
vn 0.8315077 -0.4991327 0.2438476
vn -0.0158972 -0.9978983 0.06282002
vn 0.6101494 -0.51256 -0.6041523
vn -0.2493429 -0.5125616 -0.82165
vn -0.8474104 -0.4991321 -0.1810044
vn -0.5975722 -0.486055 0.6376973
vn 0.2223232 -0.486057 0.8451752
vn 0.9721773 -0.004345279 0.2342059
vn 0.6287297 -0.6558695 -0.4177729
vn 0.3440965 0.6901715 0.6366011
vn -0.3457397 -0.6600156 -0.6669659
vn -0.9707115 0.01059718 -0.2400141
vn -0.6160201 0.6888286 0.3821444
vn 0.9695406 -0.0004764295 0.2449304
vn 0.5609769 -0.7994843 -0.2147785
vn 0.3913422 0.8006402 0.4536812
vn -0.3907709 -0.7997259 -0.4557812
vn -0.9694299 0.0005595342 -0.2453679
vn -0.5604938 0.8003905 0.2126542
vn 0.9674645 0.001665631 0.2530015
vn 0.6011065 -0.7083104 -0.3700911
vn 0.3587393 0.6657722 0.654258
vn -0.367795 -0.7094296 -0.6011959
vn -0.9696606 -0.009609515 -0.2442661
vn -0.623026 0.6687875 0.4056623
vn 0.9673453 -0.006635048 0.2533753
vn 0.6821514 -0.3245189 -0.6552534
vn 0.2877034 0.255294 0.9230664
vn -0.3038819 -0.306284 -0.9021341
vn -0.968214 -0.007831382 -0.2500007
vn -0.6895048 0.2534696 0.6784808
vn 0 -0.4013219 -0.9159371
vn 0 0.3158171 0.9488201
vn -6.912264E-08 -0.4999992 0.8660258
vn 2.944275E-07 0.8660255 -0.4999999
vn 0 -0.3424876 0.9395223
vn 0 0.3158288 -0.9488162

usemtl Black
f 3/3/1 4/4/1 2/2/1 1/1/1

usemtl JPBM8concrete03Mat
f 19/75/5 32/74/5 31/73/5
f 19/75/5 20/76/5 32/74/5
f 31/73/5 117/91/5 38/90/5
f 38/90/5 117/91/5 44/92/5
f 117/91/5 31/73/5 115/101/5
f 31/73/5 112/102/5 115/101/5
f 128/98/5 117/91/5 129/99/5
f 117/91/5 130/100/5 129/99/5
f 44/92/5 117/91/5 124/93/5
f 117/91/5 128/98/5 124/93/5
f 124/93/5 128/98/5 125/94/5
f 128/98/5 90/95/5 125/94/5
f 125/94/5 90/95/5 105/103/5
f 90/95/5 95/104/5 105/103/5
f 105/103/5 95/104/5 12/107/5
f 124/93/5 125/94/5 126/96/5
f 125/94/5 127/97/5 126/96/5
f 125/94/5 105/103/5 77/105/5
f 105/103/5 101/106/5 77/105/5
f 44/92/5 124/93/5 51/108/5
f 124/93/5 57/109/5 51/108/5
f 8/8/2 6/6/2 5/5/2
f 5/5/2 7/7/2 8/8/2
f 10/8/3 9/6/3 6/9/3
f 6/9/3 8/10/3 10/8/3
f 7/5/4 11/12/4 10/11/4
f 10/11/4 8/6/4 7/5/4
f 12/11/5 5/6/5 6/5/5
f 6/5/5 9/12/5 12/11/5
f 16/8/1 14/6/1 13/13/1
f 13/13/1 15/14/1 16/8/1
f 18/13/4 16/16/4 15/15/4
f 15/15/4 17/6/4 18/13/4
f 14/15/5 20/6/5 19/13/5
f 19/13/5 13/16/5 14/15/5
f 22/8/1 21/6/1 14/5/1
f 14/5/1 16/7/1 22/8/1
f 24/8/6 23/6/6 21/17/6
f 21/17/6 22/18/6 24/8/6
f 26/8/2 25/6/2 23/5/2
f 23/5/2 24/7/2 26/8/2
f 24/5/4 22/20/4 16/19/4
f 16/19/4 26/6/4 24/5/4
f 21/19/5 23/6/5 25/5/5
f 25/5/5 14/20/5 21/19/5
f 28/8/2 27/6/2 25/13/2
f 25/13/2 26/14/2 28/8/2
f 26/13/4 30/16/4 29/15/4
f 29/15/4 28/6/4 26/13/4
f 32/15/5 25/6/5 27/13/5
f 27/13/5 31/16/5 32/15/5
f 36/8/6 34/6/6 33/21/6
f 33/21/6 35/22/6 36/8/6
f 36/5/4 35/24/4 37/23/4
f 37/23/4 15/6/4 36/5/4
f 33/23/5 34/6/5 13/5/5
f 13/5/5 38/24/5 33/23/5
f 42/8/1 40/6/8 39/25/7
f 39/25/7 41/26/8 42/8/1
f 35/8/6 33/6/6 40/5/6
f 40/5/6 42/7/6 35/8/6
f 35/25/4 42/27/4 41/15/4
f 41/15/4 43/6/4 35/25/4
f 40/15/5 33/6/5 44/25/5
f 44/25/5 39/27/5 40/15/5
f 48/30/6 46/6/6 45/28/6
f 45/28/6 47/29/6 48/30/6
f 48/5/4 47/32/4 49/31/4
f 49/31/4 50/6/4 48/5/4
f 45/31/5 46/6/5 39/5/5
f 39/5/5 51/32/5 45/31/5
f 55/8/1 53/6/1 52/33/1
f 52/33/1 54/34/1 55/8/1
f 47/8/6 45/6/6 53/5/6
f 53/5/6 55/7/6 47/8/6
f 47/33/4 55/35/4 54/15/4
f 54/15/4 56/6/4 47/33/4
f 53/15/5 45/6/5 57/33/5
f 57/33/5 52/35/5 53/15/5
f 54/8/1 52/6/1 58/5/1
f 58/5/1 59/7/1 54/8/1
f 63/8/2 61/6/2 60/5/2
f 60/5/2 62/7/2 63/8/2
f 59/8/3 58/6/3 61/36/3
f 61/36/3 63/37/3 59/8/3
f 62/5/4 54/7/4 59/8/4
f 59/8/4 63/6/4 62/5/4
f 52/8/5 60/6/5 61/5/5
f 61/5/5 58/7/5 52/8/5
f 67/8/1 65/6/1 64/5/1
f 64/5/1 66/7/1 67/8/1
f 69/8/6 68/6/6 65/36/6
f 65/36/6 67/37/6 69/8/6
f 71/8/2 70/6/2 68/5/2
f 68/5/2 69/7/2 71/8/2
f 69/5/4 67/7/4 66/8/4
f 66/8/4 71/6/4 69/5/4
f 65/8/5 68/6/5 70/5/5
f 70/5/5 64/7/5 65/8/5
f 66/8/1 64/6/1 72/33/1
f 72/33/1 73/34/1 66/8/1
f 73/8/3 72/6/3 74/5/3
f 74/5/3 75/7/3 73/8/3
f 76/33/4 66/35/4 73/15/4
f 73/15/4 75/6/4 76/33/4
f 64/15/5 77/6/5 74/33/5
f 74/33/5 72/35/5 64/15/5
f 81/8/6 79/6/6 78/21/6
f 78/21/6 80/22/6 81/8/6
f 81/5/4 80/24/4 28/23/4
f 28/23/4 82/6/4 81/5/4
f 78/23/5 79/6/5 83/5/5
f 83/5/5 27/24/5 78/23/5
f 85/8/6 84/6/6 79/5/6
f 79/5/6 81/7/6 85/8/6
f 87/8/2 86/6/2 84/38/2
f 84/38/2 85/39/2 87/8/2
f 89/8/3 88/6/3 86/5/3
f 86/5/3 87/7/3 89/8/3
f 85/38/4 81/40/4 89/15/4
f 89/15/4 87/6/4 85/38/4
f 79/15/5 84/6/5 86/38/5
f 86/38/5 88/40/5 79/15/5
f 93/8/6 91/6/6 90/5/6
f 90/5/6 92/7/6 93/8/6
f 7/8/2 5/6/2 91/41/2
f 91/41/2 93/42/2 7/8/2
f 93/41/4 92/43/4 94/15/4
f 94/15/4 7/6/4 93/41/4
f 90/15/5 91/6/5 5/41/5
f 5/41/5 95/43/5 90/15/5
f 75/8/3 74/6/3 96/44/3
f 96/44/3 97/45/3 75/8/3
f 99/5/4 98/47/4 75/46/4
f 75/46/4 97/6/4 99/5/4
f 101/46/5 100/6/5 96/5/5
f 96/5/5 74/47/5 101/46/5
f 99/8/1 100/6/1 102/48/1
f 102/48/1 103/49/1 99/8/1
f 104/48/4 99/50/4 103/15/4
f 103/15/4 11/51/4 104/48/4
f 100/15/5 105/6/5 12/52/5
f 12/52/5 102/50/5 100/15/5
f 108/8/9 102/6/9 106/53/9
f 106/53/9 107/54/9 108/8/9
f 107/8/10 106/6/10 9/55/10
f 9/55/10 109/56/10 107/8/10
f 110/5/4 108/58/4 107/57/4
f 107/57/4 109/6/4 110/5/4
f 102/60/5 12/6/5 9/53/5
f 9/53/5 106/59/5 102/60/5
f 118/72/3 117/70/3 115/69/3
f 115/69/3 116/71/3 118/72/3
f 164/176/4 161/175/4 160/174/4
f 160/174/4 163/6/4 164/176/4
f 169/181/2 167/179/2 166/178/2
f 166/178/2 168/180/2 169/181/2
f 174/191/5 173/189/5 170/188/5
f 170/188/5 171/190/5 174/191/5
f 177/181/6 90/6/6 175/176/6
f 175/176/6 176/180/6 177/181/6
f 182/91/5 179/101/5 180/95/5
f 180/95/5 181/199/5 182/91/5
f 142/204/4 185/207/4 184/206/4
f 184/206/4 132/205/4 142/204/4
f 187/219/5 188/218/5 193/216/5
f 193/216/5 194/217/5 187/219/5
f 197/223/1 196/221/1 195/220/1
f 195/220/1 172/222/1 197/223/1

usemtl Planks037A_1K
f 122/84/6 20/81/6 119/85/6
f 20/81/6 122/84/6 32/82/6
f 122/84/6 121/83/6 32/82/6
f 184/203/6 38/6/6 132/38/6
f 38/6/6 184/203/6 183/202/6
f 184/203/6 135/113/6 183/202/6
f 177/231/2 200/234/2 199/233/2
f 116/236/2 200/234/2 177/231/2
f 116/236/2 114/235/2 200/234/2
f 199/233/2 178/232/2 177/231/2
f 113/238/6 136/241/6 201/237/6
f 160/168/14 105/167/13 12/166/12
f 160/168/14 161/169/8 105/167/13
f 139/120/1 161/169/8 160/168/14
f 139/120/1 165/177/1 161/169/8
f 198/228/3 172/230/3 199/229/3
f 198/228/3 169/226/3 172/230/3
f 172/230/3 178/225/3 199/229/3
f 114/64/6 112/62/6 111/61/6
f 111/61/6 113/63/6 114/64/6
f 116/68/2 115/66/2 112/65/2
f 112/65/2 114/67/2 116/68/2
f 20/78/1 19/77/1 120/80/1
f 120/80/1 119/79/1 20/78/1
f 31/87/2 32/86/2 121/89/2
f 121/89/2 123/88/2 31/87/2
f 134/112/1 132/38/1 131/110/1
f 131/110/1 133/111/1 134/112/1
f 136/115/6 135/113/6 132/38/6
f 132/38/6 134/114/6 136/115/6
f 134/114/1 139/120/1 141/122/1
f 141/122/1 140/121/1 134/114/1
f 145/126/1 143/124/1 142/123/1
f 142/123/1 144/125/1 145/126/1
f 149/134/1 77/132/1 101/131/1
f 101/131/1 148/133/1 149/134/1
f 150/138/6 125/136/6 77/135/6
f 77/135/6 149/137/6 150/138/6
f 148/142/3 101/140/3 105/139/3
f 105/139/3 151/141/3 148/142/3
f 150/146/11 149/144/11 148/143/11
f 148/143/11 151/145/11 150/146/11
f 153/150/1 51/148/1 57/147/1
f 57/147/1 152/149/1 153/150/1
f 154/138/6 44/151/6 51/135/6
f 51/135/6 153/137/6 154/138/6
f 152/155/3 57/153/3 124/152/3
f 124/152/3 155/154/3 152/155/3
f 154/159/11 153/157/11 152/156/11
f 152/156/11 155/158/11 154/159/11
f 152/162/1 157/161/1 156/160/1
f 156/160/1 149/134/1 152/162/1
f 157/165/5 159/163/5 158/134/5
f 158/134/5 156/164/5 157/165/5
f 160/173/3 12/171/3 162/170/3
f 162/170/3 163/172/3 160/173/3
f 139/184/3 160/173/3 167/182/3
f 167/182/3 169/183/3 139/184/3
f 169/183/3 171/186/3 170/185/3
f 170/185/3 172/187/3 169/183/3
f 178/195/2 95/193/2 90/192/2
f 90/192/2 177/194/2 178/195/2
f 177/198/2 180/197/2 179/196/2
f 179/196/2 116/68/2 177/198/2
f 38/6/1 44/200/1 142/201/15
f 142/201/15 132/38/1 38/6/1
f 185/207/4 186/209/4 135/208/4
f 135/208/4 184/206/4 185/207/4
f 189/212/1 188/211/1 187/210/1
f 187/210/1 190/213/1 189/212/1
f 194/217/5 193/216/5 192/215/5
f 192/215/5 191/214/5 194/217/5
f 172/187/3 195/170/3 95/224/3
f 95/224/3 178/225/3 172/187/3
f 141/227/3 139/184/3 169/226/3
f 169/226/3 198/228/3 141/227/3
f 136/115/6 134/114/6 140/121/6
f 140/121/6 201/237/6 136/115/6
f 200/239/6 114/64/6 113/238/6
f 113/238/6 201/240/6 200/239/6
f 318/504/1 316/6/1 315/502/1
f 315/502/1 317/503/1 318/504/1
f 320/508/6 319/506/6 316/505/6
f 316/505/6 318/507/6 320/508/6
f 317/512/3 315/510/3 321/509/3
f 321/509/3 322/511/3 317/512/3
f 320/502/4 318/514/4 317/513/4
f 317/513/4 322/6/4 320/502/4
f 316/513/5 319/6/5 321/502/5
f 321/502/5 315/514/5 316/513/5

usemtl Wood062_1KMat
f 138/118/3 133/119/3 131/117/3 137/116/3
f 145/129/6 147/130/6 146/128/6 143/127/6
f 202/242/16 203/243/16 204/244/16 205/245/16
f 206/246/6 207/247/6 202/249/6 205/248/6
f 207/250/17 208/251/17 203/253/17 202/252/17
f 208/254/3 209/246/3 204/256/3 203/255/3
f 204/244/20 221/268/20 220/267/20 205/245/20
f 205/248/6 220/255/6 226/254/6 206/246/6
f 220/253/22 221/252/22 227/250/22 226/251/22
f 221/249/3 204/256/3 209/246/3 227/247/3
f 254/374/41 255/375/41 252/372/41 253/373/41
f 256/376/6 257/377/6 254/379/6 253/378/6
f 258/380/3 259/381/3 252/383/3 255/382/3
f 259/384/42 256/385/42 253/387/42 252/386/42
f 266/395/45 255/375/45 254/374/45 267/396/45
f 267/383/6 254/379/6 257/377/6 276/381/6
f 255/382/3 266/378/3 277/376/3 258/380/3
f 266/387/48 267/386/48 276/384/48 277/385/48
f 305/484/56 306/485/56 304/483/56 303/482/56
f 305/498/3 303/499/3 311/497/3 313/496/3
f 304/498/6 306/499/6 314/497/6 312/496/6
f 306/494/58 305/495/58 313/501/58 314/500/58
f 325/517/1 316/518/1 324/516/1 323/515/1
f 316/517/6 327/518/6 326/516/6 324/515/6
f 327/517/2 329/518/2 328/516/2 326/515/2
f 329/517/3 325/518/3 323/516/3 328/515/3
f 323/521/5 324/522/5 326/520/5 328/519/5
f 315/517/1 332/518/1 331/516/1 330/515/1
f 332/517/6 334/518/6 333/516/6 331/515/6
f 334/517/2 336/518/2 335/516/2 333/515/2
f 336/517/3 315/518/3 330/516/3 335/515/3
f 330/521/5 331/522/5 333/520/5 335/519/5
f 339/525/1 340/526/1 338/524/1 337/523/1
f 340/517/6 342/518/6 341/516/6 338/515/6
f 342/525/2 344/526/2 343/524/2 341/523/2
f 344/517/3 339/518/3 337/516/3 343/515/3
f 337/529/5 338/530/5 341/528/5 343/527/5
f 347/525/1 348/526/1 346/524/1 345/523/1
f 348/517/6 350/518/6 349/516/6 346/515/6
f 350/525/2 352/526/2 351/524/2 349/523/2
f 352/517/3 347/518/3 345/516/3 351/515/3
f 345/529/5 346/530/5 349/528/5 351/527/5

usemtl JPBM11RoofingTiles015B_1K
f 224/282/21 225/283/21 222/281/21
f 209/289/21 206/290/21 218/288/21
f 246/334/6 247/335/6 248/336/6
f 245/333/6 247/335/6 246/334/6
f 243/331/6 247/335/6 245/333/6
f 248/336/6 247/335/6 238/326/6
f 238/326/6 247/335/6 240/328/6
f 240/328/6 247/335/6 243/331/6
f 251/339/3 250/338/3 249/337/3
f 239/327/3 250/338/3 251/339/3
f 241/329/3 250/338/3 239/327/3
f 242/330/3 250/338/3 241/329/3
f 244/332/3 250/338/3 242/330/3
f 249/337/3 250/338/3 244/332/3
f 274/409/21 271/408/21 272/407/21
f 270/411/21 275/412/21 273/410/21
f 257/417/47 270/393/47 271/394/47
f 277/385/21 274/409/21 275/412/21
f 288/446/6 289/335/6 290/326/6
f 294/334/6 289/335/6 288/446/6
f 293/449/6 289/335/6 294/334/6
f 292/448/6 289/335/6 293/449/6
f 290/326/6 289/335/6 291/447/6
f 291/447/6 289/335/6 292/448/6
f 210/257/18 213/260/18 212/259/18
f 212/259/18 211/258/18 210/257/18
f 213/260/19 215/262/19 214/261/19
f 214/261/19 212/259/19 213/260/19
f 219/266/16 218/265/16 217/264/16
f 217/264/16 216/263/16 219/266/16
f 223/271/1 222/270/1 210/269/1
f 210/269/1 211/272/1 223/271/1
f 216/275/2 217/274/2 214/273/2
f 214/273/2 215/276/2 216/275/2
f 224/280/20 223/278/20 218/277/20
f 218/277/20 206/279/20 224/280/20
f 209/287/20 219/285/20 222/284/20
f 222/284/20 225/286/20 209/287/20
f 227/293/20 225/291/20 224/280/20
f 224/280/20 226/292/20 227/293/20
f 212/297/6 214/296/6 217/295/6
f 217/295/6 218/294/6 212/297/6
f 212/298/6 218/301/6 223/300/6
f 223/300/6 211/299/6 212/298/6
f 215/303/3 213/302/3 219/305/3
f 219/305/3 216/304/3 215/303/3
f 222/307/3 219/306/3 213/309/3
f 213/309/3 210/308/3 222/307/3
f 231/313/23 229/311/4 228/310/4
f 228/310/4 230/312/23 231/313/23
f 233/317/1 231/315/23 230/314/23
f 230/314/23 232/316/1 233/317/1
f 237/321/24 235/319/2 234/318/2
f 234/318/2 236/320/24 237/321/24
f 229/325/4 237/323/24 236/322/24
f 236/322/24 228/324/4 229/325/4
f 249/342/25 237/340/25 229/341/25
f 229/341/25 251/343/25 249/342/25
f 251/346/26 229/344/26 231/345/26
f 231/345/26 239/347/26 251/346/26
f 239/350/28 231/348/27 233/349/28
f 233/349/28 241/351/29 239/350/28
f 244/354/31 235/352/30 237/353/31
f 237/353/31 249/355/32 244/354/31
f 248/358/33 228/356/33 236/357/33
f 236/357/33 246/359/33 248/358/33
f 246/362/35 236/360/34 234/361/35
f 234/361/35 245/363/36 246/362/35
f 238/366/37 230/364/37 228/365/37
f 228/365/37 248/367/37 238/366/37
f 240/370/39 232/368/38 230/369/39
f 230/369/39 238/371/40 240/370/39
f 260/388/43 263/391/43 262/390/43
f 262/390/43 261/389/43 260/388/43
f 263/393/44 265/6/44 264/392/44
f 264/392/44 262/394/44 263/393/44
f 269/398/46 268/397/46 271/393/46
f 271/393/46 270/394/46 269/398/46
f 268/401/1 269/400/1 260/399/1
f 260/399/1 261/402/1 268/401/1
f 273/405/2 272/404/2 264/403/2
f 264/403/2 265/406/2 273/405/2
f 274/414/45 272/6/45 273/392/45
f 273/392/45 275/413/45 274/414/45
f 257/416/45 271/393/45 274/414/45
f 274/414/45 276/415/45 257/416/45
f 277/418/45 275/413/45 270/394/45
f 270/394/45 258/417/45 277/418/45
f 262/422/6 264/421/6 272/420/6
f 272/420/6 271/419/6 262/422/6
f 262/423/6 271/426/6 268/425/6
f 268/425/6 261/424/6 262/423/6
f 265/428/3 263/427/3 270/430/3
f 270/430/3 273/429/3 265/428/3
f 269/432/3 270/431/3 263/434/3
f 263/434/3 260/433/3 269/432/3
f 281/438/23 279/436/4 278/435/4
f 278/435/4 280/437/23 281/438/23
f 283/440/1 281/439/23 280/314/23
f 280/314/23 282/316/1 283/440/1
f 287/442/24 285/441/2 284/318/2
f 284/318/2 286/320/24 287/442/24
f 279/445/4 287/444/24 286/443/24
f 286/443/24 278/310/4 279/445/4
f 290/452/37 280/450/37 278/451/37
f 278/451/37 288/453/37 290/452/37
f 288/456/33 278/454/33 286/455/33
f 286/455/33 294/457/33 288/456/33
f 294/460/49 286/458/34 284/459/49
f 284/459/49 293/461/50 294/460/49
f 291/464/52 282/462/51 280/463/52
f 280/463/52 290/465/53 291/464/52
f 298/469/54 296/467/54 295/466/54
f 295/466/54 297/468/54 298/469/54
f 300/473/6 299/471/6 296/470/6
f 296/470/6 298/472/6 300/473/6
f 297/477/3 295/475/3 301/474/3
f 301/474/3 302/476/3 297/477/3
f 300/481/55 298/479/55 297/478/55
f 297/478/55 302/480/55 300/481/55
f 308/488/57 299/6/57 301/486/57
f 301/486/57 307/487/57 308/488/57
f 307/6/21 301/6/21 295/6/21
f 295/6/21 309/6/21 307/6/21
f 310/489/21 296/486/21 299/486/21
f 299/486/21 308/486/21 310/489/21
f 309/493/56 295/491/56 296/490/56
f 296/490/56 310/492/56 309/493/56
f 312/495/21 308/486/21 307/6/21
f 307/6/21 311/494/21 312/495/21
f 311/482/56 307/487/56 309/493/56
f 309/493/56 313/484/56 311/482/56
f 314/485/56 310/492/56 308/488/56
f 308/488/56 312/483/56 314/485/56
f 313/494/21 309/6/21 310/489/21
f 310/489/21 314/495/21 313/494/21

usemtl Plastic013B_1K
f 356/540/62 368/6/4 354/5/60
f 358/542/64 368/6/4 356/540/62
f 360/544/66 368/6/4 358/542/64
f 362/546/68 368/6/4 360/544/66
f 364/547/70 368/6/4 362/546/68
f 354/5/60 368/6/4 364/547/70
f 365/537/71 366/538/72 367/539/73
f 372/548/77 366/538/72 365/537/71
f 367/539/73 366/538/72 369/541/74
f 369/541/74 366/538/72 370/543/75
f 370/543/75 366/538/72 371/545/76
f 371/545/76 366/538/72 372/548/77
f 476/540/68 488/6/4 474/5/66
f 478/542/70 488/6/4 476/540/68
f 480/544/60 488/6/4 478/542/70
f 482/546/62 488/6/4 480/544/60
f 484/547/64 488/6/4 482/546/62
f 474/5/66 488/6/4 484/547/64
f 485/537/129 486/538/130 487/539/131
f 492/548/135 486/538/130 485/537/129
f 487/539/131 486/538/130 489/541/132
f 489/541/132 486/538/130 490/543/133
f 490/543/133 486/538/130 491/545/134
f 491/545/134 486/538/130 492/548/135
f 596/825/175 608/824/4 594/823/173
f 598/829/177 608/828/4 596/827/175
f 600/832/179 608/824/4 598/831/177
f 602/835/181 608/828/4 600/834/179
f 604/837/183 608/824/4 602/836/181
f 594/840/173 608/828/4 604/839/183
f 605/820/184 606/821/185 607/822/186
f 612/838/190 606/821/185 605/820/184
f 607/822/186 606/821/185 609/826/187
f 609/826/187 606/821/185 610/830/188
f 610/830/188 606/821/185 611/833/189
f 611/833/189 606/821/185 612/838/190
f 356/534/62 354/532/60 353/531/59
f 353/531/59 355/533/61 356/534/62
f 358/534/64 356/536/62 355/535/61
f 355/535/61 357/533/63 358/534/64
f 360/534/66 358/536/64 357/535/63
f 357/535/63 359/533/65 360/534/66
f 362/534/68 360/536/66 359/535/65
f 359/535/65 361/533/67 362/534/68
f 364/534/70 362/536/68 361/535/67
f 361/535/67 363/533/69 364/534/70
f 354/534/60 364/536/70 363/535/69
f 363/535/69 353/533/59 354/534/60
f 374/552/79 355/550/61 353/549/59
f 353/549/59 373/551/78 374/552/79
f 373/556/78 353/554/59 363/553/69
f 363/553/69 375/555/80 373/556/78
f 376/560/81 357/558/63 355/557/61
f 355/557/61 374/559/79 376/560/81
f 377/564/82 359/562/65 357/561/63
f 357/561/63 376/563/81 377/564/82
f 378/568/83 361/566/67 359/565/65
f 359/565/65 377/567/82 378/568/83
f 375/572/80 363/570/69 361/569/67
f 361/569/67 378/571/83 375/572/80
f 380/576/85 374/574/79 373/573/78
f 373/573/78 379/575/84 380/576/85
f 379/580/84 373/578/78 375/577/80
f 375/577/80 381/579/86 379/580/84
f 382/584/87 376/582/81 374/581/79
f 374/581/79 380/583/85 382/584/87
f 383/588/88 377/586/82 376/585/81
f 376/585/81 382/587/87 383/588/88
f 384/592/89 378/590/83 377/589/82
f 377/589/82 383/591/88 384/592/89
f 381/596/86 375/594/80 378/593/83
f 378/593/83 384/595/89 381/596/86
f 386/600/91 380/598/85 379/597/84
f 379/597/84 385/599/90 386/600/91
f 385/604/90 379/602/84 381/601/86
f 381/601/86 387/603/92 385/604/90
f 388/608/93 382/606/87 380/605/85
f 380/605/85 386/607/91 388/608/93
f 389/612/94 383/610/88 382/609/87
f 382/609/87 388/611/93 389/612/94
f 390/616/95 384/614/89 383/613/88
f 383/613/88 389/615/94 390/616/95
f 387/620/92 381/618/86 384/617/89
f 384/617/89 390/619/95 387/620/92
f 392/624/97 386/622/91 385/621/90
f 385/621/90 391/623/96 392/624/97
f 391/628/96 385/626/90 387/625/92
f 387/625/92 393/627/98 391/628/96
f 394/632/99 388/630/93 386/629/91
f 386/629/91 392/631/97 394/632/99
f 395/636/100 389/634/94 388/633/93
f 388/633/93 394/635/99 395/636/100
f 396/640/101 390/638/95 389/637/94
f 389/637/94 395/639/100 396/640/101
f 393/644/98 387/642/92 390/641/95
f 390/641/95 396/643/101 393/644/98
f 367/648/73 392/646/97 391/645/96
f 391/645/96 365/647/71 367/648/73
f 365/652/71 391/650/96 393/649/98
f 393/649/98 372/651/77 365/652/71
f 369/656/74 394/654/99 392/653/97
f 392/653/97 367/655/73 369/656/74
f 370/660/75 395/658/100 394/657/99
f 394/657/99 369/659/74 370/660/75
f 371/664/76 396/662/101 395/661/100
f 395/661/100 370/663/75 371/664/76
f 372/668/77 393/666/98 396/665/101
f 396/665/101 371/667/76 372/668/77
f 400/672/103 398/670/103 397/669/102
f 397/669/102 399/671/102 400/672/103
f 404/676/24 402/674/105 401/673/104
f 401/673/104 403/675/104 404/676/24
f 399/672/102 397/678/102 405/677/106
f 405/677/106 406/671/107 399/672/102
f 408/676/108 407/680/108 402/679/105
f 402/679/105 404/675/24 408/676/108
f 406/672/107 405/670/106 409/669/5
f 409/669/5 410/671/5 406/672/107
f 412/676/4 411/674/4 407/673/108
f 407/673/108 408/675/108 412/676/4
f 410/682/5 409/670/5 413/669/109
f 413/669/109 414/681/109 410/682/5
f 416/676/110 415/674/110 411/673/4
f 411/673/4 412/675/4 416/676/110
f 414/682/109 413/670/109 417/669/111
f 417/669/111 418/681/111 414/682/109
f 420/684/23 419/674/23 415/673/110
f 415/673/110 416/683/110 420/684/23
f 418/672/111 417/670/111 421/669/112
f 421/669/112 422/671/112 418/672/111
f 424/676/113 423/674/113 419/673/23
f 419/673/23 420/675/23 424/676/113
f 402/688/6 397/686/6 398/685/6
f 398/685/6 401/687/6 402/688/6
f 403/687/3 400/690/3 399/689/3
f 399/689/3 404/691/3 403/687/3
f 407/693/6 405/692/6 397/686/6
f 397/686/6 402/688/6 407/693/6
f 404/691/3 399/695/3 406/694/3
f 406/694/3 408/696/3 404/691/3
f 411/699/6 409/698/6 405/697/6
f 405/697/6 407/693/6 411/699/6
f 408/696/3 406/694/3 410/700/3
f 410/700/3 412/701/3 408/696/3
f 415/703/6 413/702/6 409/698/6
f 409/698/6 411/699/6 415/703/6
f 412/701/3 410/700/3 414/704/3
f 414/704/3 416/705/3 412/701/3
f 419/707/6 417/706/6 413/702/6
f 413/702/6 415/703/6 419/707/6
f 416/705/3 414/709/3 418/708/3
f 418/708/3 420/710/3 416/705/3
f 423/712/6 421/711/6 417/706/6
f 417/706/6 419/707/6 423/712/6
f 420/710/3 418/714/3 422/713/3
f 422/713/3 424/712/3 420/710/3
f 403/717/4 401/718/4 398/715/4
f 398/715/4 400/716/4 403/717/4
f 422/721/4 421/722/4 423/719/4
f 423/719/4 424/720/4 422/721/4
f 428/726/1 426/724/1 425/723/1
f 425/723/1 427/725/1 428/726/1
f 430/726/6 429/724/6 426/723/6
f 426/723/6 428/725/6 430/726/6
f 432/726/2 431/724/2 429/723/2
f 429/723/2 430/725/2 432/726/2
f 427/726/3 425/724/3 431/723/3
f 431/723/3 432/725/3 427/726/3
f 434/730/114 429/728/114 431/727/114
f 431/727/114 433/729/114 434/730/114
f 433/734/3 431/732/3 425/731/3
f 425/731/3 435/733/3 433/734/3
f 436/736/6 426/732/6 429/731/6
f 429/731/6 434/735/6 436/736/6
f 435/740/115 425/738/115 426/737/115
f 426/737/115 436/739/115 435/740/115
f 438/744/116 434/742/116 433/741/116
f 433/741/116 437/743/116 438/744/116
f 437/746/3 433/734/3 435/733/3
f 435/733/3 439/745/3 437/746/3
f 440/748/6 436/736/6 434/735/6
f 434/735/6 438/747/6 440/748/6
f 439/752/117 435/750/117 436/749/117
f 436/749/117 440/751/117 439/752/117
f 442/756/118 438/754/118 437/753/118
f 437/753/118 441/755/118 442/756/118
f 441/758/3 437/746/3 439/745/3
f 439/745/3 443/757/3 441/758/3
f 444/760/6 440/748/6 438/747/6
f 438/747/6 442/759/6 444/760/6
f 443/764/119 439/762/119 440/761/119
f 440/761/119 444/763/119 443/764/119
f 446/768/120 442/766/120 441/765/120
f 441/765/120 445/767/120 446/768/120
f 445/770/3 441/758/3 443/757/3
f 443/757/3 447/769/3 445/770/3
f 448/772/6 444/760/6 442/759/6
f 442/759/6 446/771/6 448/772/6
f 447/776/121 443/774/121 444/773/121
f 444/773/121 448/775/121 447/776/121
f 452/778/1 450/731/1 449/732/1
f 449/732/1 451/777/1 452/778/1
f 454/726/6 453/724/6 450/723/6
f 450/723/6 452/725/6 454/726/6
f 456/778/2 455/731/2 453/732/2
f 453/732/2 454/777/2 456/778/2
f 451/726/3 449/724/3 455/723/3
f 455/723/3 456/725/3 451/726/3
f 458/730/114 453/780/114 455/779/114
f 455/779/114 457/729/114 458/730/114
f 457/734/3 455/732/3 449/731/3
f 449/731/3 459/733/3 457/734/3
f 460/736/6 450/732/6 453/731/6
f 453/731/6 458/735/6 460/736/6
f 459/740/115 449/782/115 450/781/115
f 450/781/115 460/739/115 459/740/115
f 462/744/116 458/742/116 457/741/116
f 457/741/116 461/743/116 462/744/116
f 461/746/3 457/734/3 459/733/3
f 459/733/3 463/745/3 461/746/3
f 464/748/6 460/736/6 458/735/6
f 458/735/6 462/747/6 464/748/6
f 463/752/117 459/750/117 460/749/117
f 460/749/117 464/751/117 463/752/117
f 466/756/118 462/754/118 461/753/118
f 461/753/118 465/755/118 466/756/118
f 465/758/3 461/746/3 463/745/3
f 463/745/3 467/757/3 465/758/3
f 468/760/6 464/748/6 462/747/6
f 462/747/6 466/759/6 468/760/6
f 467/764/119 463/762/119 464/761/119
f 464/761/119 468/763/119 467/764/119
f 470/776/122 466/784/122 465/783/122
f 465/783/122 469/775/122 470/776/122
f 469/785/3 465/758/3 467/757/3
f 467/757/3 471/769/3 469/785/3
f 472/772/6 468/760/6 466/759/6
f 466/759/6 470/786/6 472/772/6
f 471/776/121 467/774/121 468/773/121
f 468/773/121 472/775/121 471/776/121
f 476/788/68 474/532/66 473/531/123
f 473/531/123 475/787/124 476/788/68
f 478/534/70 476/536/68 475/535/124
f 475/535/124 477/533/125 478/534/70
f 480/534/60 478/536/70 477/535/125
f 477/535/125 479/533/126 480/534/60
f 482/788/62 480/532/60 479/531/126
f 479/531/126 481/787/127 482/788/62
f 484/534/64 482/536/62 481/535/127
f 481/535/127 483/533/128 484/534/64
f 474/534/66 484/532/64 483/531/128
f 483/531/128 473/533/123 474/534/66
f 494/552/137 475/550/124 473/549/123
f 473/549/123 493/551/136 494/552/137
f 493/556/136 473/554/123 483/789/128
f 483/789/128 495/555/138 493/556/136
f 496/560/139 477/558/125 475/557/124
f 475/557/124 494/559/137 496/560/139
f 497/564/140 479/790/126 477/561/125
f 477/561/125 496/563/139 497/564/140
f 498/568/141 481/791/127 479/565/126
f 479/565/126 497/567/140 498/568/141
f 495/572/138 483/570/128 481/569/127
f 481/569/127 498/571/141 495/572/138
f 500/576/143 494/574/137 493/573/136
f 493/573/136 499/575/142 500/576/143
f 499/580/142 493/578/136 495/577/138
f 495/577/138 501/579/144 499/580/142
f 502/584/145 496/582/139 494/581/137
f 494/581/137 500/583/143 502/584/145
f 503/588/146 497/586/140 496/585/139
f 496/585/139 502/587/145 503/588/146
f 504/592/147 498/590/141 497/589/140
f 497/589/140 503/591/146 504/592/147
f 501/596/144 495/594/138 498/593/141
f 498/593/141 504/595/147 501/596/144
f 506/600/149 500/598/143 499/597/142
f 499/597/142 505/599/148 506/600/149
f 505/604/148 499/602/142 501/601/144
f 501/601/144 507/603/150 505/604/148
f 508/608/151 502/606/145 500/605/143
f 500/605/143 506/607/149 508/608/151
f 509/612/152 503/610/146 502/609/145
f 502/609/145 508/611/151 509/612/152
f 510/616/153 504/614/147 503/613/146
f 503/613/146 509/615/152 510/616/153
f 507/620/150 501/618/144 504/617/147
f 504/617/147 510/619/153 507/620/150
f 512/624/155 506/622/149 505/621/148
f 505/621/148 511/623/154 512/624/155
f 511/628/154 505/626/148 507/625/150
f 507/625/150 513/627/156 511/628/154
f 514/632/157 508/630/151 506/629/149
f 506/629/149 512/631/155 514/632/157
f 515/636/158 509/634/152 508/633/151
f 508/633/151 514/635/157 515/636/158
f 516/640/159 510/638/153 509/637/152
f 509/637/152 515/639/158 516/640/159
f 513/644/156 507/642/150 510/641/153
f 510/641/153 516/643/159 513/644/156
f 487/648/131 512/646/155 511/645/154
f 511/645/154 485/647/129 487/648/131
f 485/652/129 511/650/154 513/649/156
f 513/649/156 492/651/135 485/652/129
f 489/656/132 514/654/157 512/653/155
f 512/653/155 487/655/131 489/656/132
f 490/660/133 515/658/158 514/657/157
f 514/657/157 489/659/132 490/660/133
f 491/664/134 516/662/159 515/661/158
f 515/661/158 490/663/133 491/664/134
f 492/668/135 513/666/156 516/665/159
f 516/665/159 491/667/134 492/668/135
f 520/672/103 518/670/103 517/669/102
f 517/669/102 519/671/102 520/672/103
f 524/684/105 522/674/105 521/673/104
f 521/673/104 523/683/104 524/684/105
f 519/672/102 517/670/102 525/669/107
f 525/669/107 526/671/107 519/672/102
f 528/676/108 527/680/108 522/679/105
f 522/679/105 524/675/105 528/676/108
f 526/672/107 525/670/107 529/669/5
f 529/669/5 530/671/5 526/672/107
f 532/676/4 531/674/4 527/673/108
f 527/673/108 528/675/108 532/676/4
f 530/672/5 529/670/5 533/669/160
f 533/669/160 534/671/160 530/672/5
f 536/676/161 535/674/161 531/673/4
f 531/673/4 532/675/4 536/676/161
f 534/672/160 533/670/160 537/669/162
f 537/669/162 538/671/162 534/672/160
f 540/676/163 539/674/163 535/673/161
f 535/673/161 536/675/161 540/676/163
f 538/672/162 537/670/162 541/669/112
f 541/669/112 542/671/112 538/672/162
f 544/684/113 543/674/113 539/673/163
f 539/673/163 540/683/163 544/684/113
f 522/688/6 517/792/6 518/685/6
f 518/685/6 521/793/6 522/688/6
f 523/793/3 520/685/3 519/695/3
f 519/695/3 524/691/3 523/793/3
f 527/693/6 525/692/6 517/686/6
f 517/686/6 522/688/6 527/693/6
f 524/691/3 519/695/3 526/794/3
f 526/794/3 528/696/3 524/691/3
f 531/699/6 529/795/6 525/697/6
f 525/697/6 527/796/6 531/699/6
f 528/799/3 526/694/3 530/797/3
f 530/797/3 532/798/3 528/799/3
f 535/703/6 533/800/6 529/795/6
f 529/795/6 531/699/6 535/703/6
f 532/798/3 530/797/3 534/709/3
f 534/709/3 536/705/3 532/798/3
f 539/707/6 537/801/6 533/800/6
f 533/800/6 535/703/6 539/707/6
f 536/705/3 534/709/3 538/708/3
f 538/708/3 540/710/3 536/705/3
f 543/712/6 541/711/6 537/801/6
f 537/801/6 539/707/6 543/712/6
f 540/710/3 538/708/3 542/711/3
f 542/711/3 544/712/3 540/710/3
f 523/804/4 521/805/4 518/802/4
f 518/802/4 520/803/4 523/804/4
f 542/808/4 541/809/4 543/806/4
f 543/806/4 544/807/4 542/808/4
f 548/726/2 546/724/2 545/723/2
f 545/723/2 547/725/2 548/726/2
f 550/778/3 549/731/3 546/732/3
f 546/732/3 548/777/3 550/778/3
f 552/726/1 551/724/1 549/723/1
f 549/723/1 550/725/1 552/726/1
f 547/778/6 545/731/6 551/732/6
f 551/732/6 552/777/6 547/778/6
f 554/730/164 549/728/164 551/727/164
f 551/727/164 553/729/164 554/730/164
f 553/734/6 551/723/6 545/731/6
f 545/731/6 555/733/6 553/734/6
f 556/736/3 546/732/3 549/724/3
f 549/724/3 554/735/3 556/736/3
f 555/740/165 545/738/165 546/737/165
f 546/737/165 556/739/165 555/740/165
f 558/744/166 554/742/166 553/741/166
f 553/741/166 557/743/166 558/744/166
f 557/746/6 553/734/6 555/733/6
f 555/733/6 559/745/6 557/746/6
f 560/748/3 556/736/3 554/735/3
f 554/735/3 558/747/3 560/748/3
f 559/752/167 555/750/167 556/749/167
f 556/749/167 560/751/167 559/752/167
f 562/756/168 558/754/168 557/753/168
f 557/753/168 561/755/168 562/756/168
f 561/758/6 557/746/6 559/745/6
f 559/745/6 563/757/6 561/758/6
f 564/760/3 560/748/3 558/747/3
f 558/747/3 562/759/3 564/760/3
f 563/764/169 559/762/169 560/761/169
f 560/761/169 564/763/169 563/764/169
f 566/811/170 562/737/170 561/738/170
f 561/738/170 565/810/170 566/811/170
f 565/813/6 561/758/6 563/757/6
f 563/757/6 567/812/6 565/813/6
f 568/815/3 564/760/3 562/759/3
f 562/759/3 566/814/3 568/815/3
f 567/819/171 563/817/171 564/816/171
f 564/816/171 568/818/171 567/819/171
f 572/726/2 570/724/2 569/732/2
f 569/732/2 571/777/2 572/726/2
f 574/778/3 573/731/3 570/732/3
f 570/732/3 572/777/3 574/778/3
f 576/778/1 575/731/1 573/723/1
f 573/723/1 574/725/1 576/778/1
f 571/778/6 569/731/6 575/732/6
f 575/732/6 576/777/6 571/778/6
f 578/730/164 573/728/164 575/779/164
f 575/779/164 577/729/164 578/730/164
f 577/734/6 575/723/6 569/731/6
f 569/731/6 579/733/6 577/734/6
f 580/736/3 570/732/3 573/724/3
f 573/724/3 578/735/3 580/736/3
f 579/740/165 569/782/165 570/737/165
f 570/737/165 580/739/165 579/740/165
f 582/744/166 578/742/166 577/741/166
f 577/741/166 581/743/166 582/744/166
f 581/746/6 577/734/6 579/733/6
f 579/733/6 583/745/6 581/746/6
f 584/748/3 580/736/3 578/735/3
f 578/735/3 582/747/3 584/748/3
f 583/752/167 579/750/167 580/749/167
f 580/749/167 584/751/167 583/752/167
f 586/756/168 582/754/168 581/753/168
f 581/753/168 585/755/168 586/756/168
f 585/758/6 581/746/6 583/745/6
f 583/745/6 587/757/6 585/758/6
f 588/760/3 584/748/3 582/747/3
f 582/747/3 586/759/3 588/760/3
f 587/764/169 583/762/169 584/761/169
f 584/761/169 588/763/169 587/764/169
f 590/811/170 586/737/170 585/738/170
f 585/738/170 589/810/170 590/811/170
f 589/813/6 585/758/6 587/757/6
f 587/757/6 591/812/6 589/813/6
f 592/815/3 588/760/3 586/759/3
f 586/759/3 590/814/3 592/815/3
f 591/819/171 587/817/171 588/816/171
f 588/816/171 592/818/171 591/819/171
f 596/534/175 594/532/173 593/531/172
f 593/531/172 595/533/174 596/534/175
f 598/534/177 596/536/175 595/535/174
f 595/535/174 597/533/176 598/534/177
f 600/534/179 598/536/177 597/535/176
f 597/535/176 599/533/178 600/534/179
f 602/788/181 600/536/179 599/535/178
f 599/535/178 601/787/180 602/788/181
f 604/534/183 602/536/181 601/535/180
f 601/535/180 603/533/182 604/534/183
f 594/534/173 604/536/183 603/535/182
f 603/535/182 593/533/172 594/534/173
f 614/552/192 595/550/174 593/549/172
f 593/549/172 613/551/191 614/552/192
f 613/556/191 593/841/172 603/553/182
f 603/553/182 615/555/193 613/556/191
f 616/842/194 597/558/176 595/557/174
f 595/557/174 614/559/192 616/842/194
f 617/564/195 599/790/178 597/561/176
f 597/561/176 616/563/194 617/564/195
f 618/568/196 601/791/180 599/565/178
f 599/565/178 617/567/195 618/568/196
f 615/572/193 603/570/182 601/569/180
f 601/569/180 618/571/196 615/572/193
f 620/576/198 614/574/192 613/573/191
f 613/573/191 619/575/197 620/576/198
f 619/580/197 613/578/191 615/577/193
f 615/577/193 621/579/199 619/580/197
f 622/584/200 616/582/194 614/581/192
f 614/581/192 620/583/198 622/584/200
f 623/588/201 617/586/195 616/585/194
f 616/585/194 622/587/200 623/588/201
f 624/592/202 618/590/196 617/589/195
f 617/589/195 623/591/201 624/592/202
f 621/596/199 615/594/193 618/843/196
f 618/843/196 624/595/202 621/596/199
f 626/600/204 620/598/198 619/597/197
f 619/597/197 625/599/203 626/600/204
f 625/604/203 619/602/197 621/601/199
f 621/601/199 627/603/205 625/604/203
f 628/608/206 622/844/200 620/605/198
f 620/605/198 626/607/204 628/608/206
f 629/612/207 623/610/201 622/609/200
f 622/609/200 628/611/206 629/612/207
f 630/616/208 624/614/202 623/613/201
f 623/613/201 629/615/207 630/616/208
f 627/620/205 621/618/199 624/617/202
f 624/617/202 630/619/208 627/620/205
f 632/624/210 626/622/204 625/621/203
f 625/621/203 631/623/209 632/624/210
f 631/628/209 625/626/203 627/625/205
f 627/625/205 633/627/211 631/628/209
f 634/632/212 628/630/206 626/629/204
f 626/629/204 632/631/210 634/632/212
f 635/636/213 629/634/207 628/633/206
f 628/633/206 634/635/212 635/636/213
f 636/640/214 630/638/208 629/637/207
f 629/637/207 635/639/213 636/640/214
f 633/845/211 627/642/205 630/641/208
f 630/641/208 636/643/214 633/845/211
f 607/847/186 632/646/210 631/645/209
f 631/645/209 605/846/184 607/847/186
f 605/849/184 631/650/209 633/649/211
f 633/649/211 612/848/190 605/849/184
f 609/853/187 634/851/212 632/850/210
f 632/850/210 607/852/186 609/853/187
f 610/855/188 635/658/213 634/657/212
f 634/657/212 609/854/187 610/855/188
f 611/857/189 636/662/214 635/661/213
f 635/661/213 610/856/188 611/857/189
f 612/861/190 633/859/211 636/858/214
f 636/858/214 611/860/189 612/861/190
f 640/863/103 638/670/103 637/669/102
f 637/669/102 639/862/102 640/863/103
f 644/865/105 642/674/105 641/673/104
f 641/673/104 643/864/104 644/865/105
f 639/863/102 637/678/102 645/677/107
f 645/677/107 646/862/107 639/863/102
f 648/865/108 647/674/108 642/673/105
f 642/673/105 644/864/105 648/865/108
f 646/863/107 645/670/107 649/669/5
f 649/669/5 650/862/5 646/863/107
f 652/865/4 651/674/4 647/673/108
f 647/673/108 648/864/108 652/865/4
f 650/863/5 649/670/5 653/669/160
f 653/669/160 654/862/109 650/863/5
f 656/865/110 655/674/161 651/673/4
f 651/673/4 652/864/4 656/865/110
f 654/863/109 653/678/160 657/677/162
f 657/677/162 658/862/162 654/863/109
f 660/865/23 659/680/23 655/679/161
f 655/679/161 656/864/110 660/865/23
f 658/863/162 657/670/162 661/669/112
f 661/669/112 662/862/112 658/863/162
f 664/865/113 663/680/113 659/679/23
f 659/679/23 660/864/23 664/865/113
f 642/688/6 637/792/6 638/685/6
f 638/685/6 641/793/6 642/688/6
f 643/687/3 640/690/3 639/695/3
f 639/695/3 644/866/3 643/687/3
f 647/693/6 645/692/6 637/686/6
f 637/686/6 642/688/6 647/693/6
f 644/866/3 639/695/3 646/794/3
f 646/794/3 648/696/3 644/866/3
f 651/699/6 649/795/6 645/697/6
f 645/697/6 647/796/6 651/699/6
f 648/696/3 646/794/3 650/700/3
f 650/700/3 652/701/3 648/696/3
f 655/703/6 653/800/6 649/795/6
f 649/795/6 651/699/6 655/703/6
f 652/701/3 650/700/3 654/709/3
f 654/709/3 656/867/3 652/701/3
f 659/707/6 657/801/6 653/800/6
f 653/800/6 655/703/6 659/707/6
f 656/867/3 654/709/3 658/708/3
f 658/708/3 660/868/3 656/867/3
f 663/712/6 661/711/6 657/801/6
f 657/801/6 659/707/6 663/712/6
f 660/868/3 658/708/3 662/711/3
f 662/711/3 664/869/3 660/868/3
f 643/871/4 641/805/4 638/802/4
f 638/802/4 640/870/4 643/871/4
f 662/873/4 661/809/4 663/719/4
f 663/719/4 664/872/4 662/873/4
f 668/778/2 666/731/2 665/732/2
f 665/732/2 667/777/2 668/778/2
f 670/778/3 669/731/3 666/732/3
f 666/732/3 668/777/3 670/778/3
f 672/778/1 671/731/1 669/732/1
f 669/732/1 670/777/1 672/778/1
f 667/778/6 665/731/6 671/732/6
f 671/732/6 672/777/6 667/778/6
f 674/730/164 669/780/164 671/779/164
f 671/779/164 673/729/164 674/730/164
f 673/734/6 671/723/6 665/731/6
f 665/731/6 675/733/6 673/734/6
f 676/736/3 666/732/3 669/724/3
f 669/724/3 674/735/3 676/736/3
f 675/740/165 665/782/165 666/781/165
f 666/781/165 676/739/165 675/740/165
f 678/744/166 674/742/166 673/741/166
f 673/741/166 677/743/166 678/744/166
f 677/746/6 673/734/6 675/733/6
f 675/733/6 679/745/6 677/746/6
f 680/748/3 676/736/3 674/735/3
f 674/735/3 678/747/3 680/748/3
f 679/752/167 675/750/167 676/749/167
f 676/749/167 680/751/167 679/752/167
f 682/756/168 678/754/168 677/753/168
f 677/753/168 681/755/168 682/756/168
f 681/758/6 677/746/6 679/745/6
f 679/745/6 683/757/6 681/758/6
f 684/760/3 680/748/3 678/747/3
f 678/747/3 682/759/3 684/760/3
f 683/764/169 679/762/169 680/761/169
f 680/761/169 684/763/169 683/764/169
f 686/877/215 682/875/215 681/874/215
f 681/874/215 685/876/215 686/877/215
f 685/879/6 681/758/6 683/757/6
f 683/757/6 687/878/6 685/879/6
f 688/881/3 684/760/3 682/759/3
f 682/759/3 686/880/3 688/881/3
f 687/885/216 683/883/216 684/882/216
f 684/882/216 688/884/216 687/885/216
f 692/778/2 690/731/2 689/732/2
f 689/732/2 691/777/2 692/778/2
f 694/778/3 693/731/3 690/732/3
f 690/732/3 692/777/3 694/778/3
f 696/778/1 695/731/1 693/732/1
f 693/732/1 694/777/1 696/778/1
f 691/778/6 689/731/6 695/732/6
f 695/732/6 696/777/6 691/778/6
f 698/730/164 693/780/164 695/779/164
f 695/779/164 697/729/164 698/730/164
f 697/734/6 695/723/6 689/731/6
f 689/731/6 699/733/6 697/734/6
f 700/736/3 690/732/3 693/724/3
f 693/724/3 698/735/3 700/736/3
f 699/740/165 689/782/165 690/781/165
f 690/781/165 700/739/165 699/740/165
f 702/744/166 698/742/166 697/741/166
f 697/741/166 701/743/166 702/744/166
f 701/746/6 697/734/6 699/733/6
f 699/733/6 703/745/6 701/746/6
f 704/748/3 700/736/3 698/735/3
f 698/735/3 702/747/3 704/748/3
f 703/752/167 699/750/167 700/749/167
f 700/749/167 704/751/167 703/752/167
f 706/756/168 702/754/168 701/753/168
f 701/753/168 705/755/168 706/756/168
f 705/758/6 701/746/6 703/745/6
f 703/745/6 707/757/6 705/758/6
f 708/760/3 704/748/3 702/747/3
f 702/747/3 706/759/3 708/760/3
f 707/764/169 703/762/169 704/761/169
f 704/761/169 708/763/169 707/764/169
f 710/877/215 706/875/215 705/874/215
f 705/874/215 709/876/215 710/877/215
f 709/879/6 705/758/6 707/757/6
f 707/757/6 711/878/6 709/879/6
f 712/881/3 708/760/3 706/759/3
f 706/759/3 710/880/3 712/881/3
f 711/885/216 707/883/216 708/882/216
f 708/882/216 712/884/216 711/885/216
f 716/726/2 714/724/2 713/723/2
f 713/723/2 715/725/2 716/726/2
f 718/778/3 717/731/3 714/732/3
f 714/732/3 716/777/3 718/778/3
f 720/726/1 719/724/1 717/723/1
f 717/723/1 718/725/1 720/726/1
f 715/778/6 713/731/6 719/732/6
f 719/732/6 720/777/6 715/778/6
f 722/730/164 717/728/164 719/727/164
f 719/727/164 721/729/164 722/730/164
f 721/734/6 719/723/6 713/731/6
f 713/731/6 723/733/6 721/734/6
f 724/736/3 714/732/3 717/724/3
f 717/724/3 722/735/3 724/736/3
f 723/740/165 713/738/165 714/737/165
f 714/737/165 724/739/165 723/740/165
f 726/744/166 722/742/166 721/741/166
f 721/741/166 725/743/166 726/744/166
f 725/746/6 721/734/6 723/733/6
f 723/733/6 727/745/6 725/746/6
f 728/748/3 724/736/3 722/735/3
f 722/735/3 726/747/3 728/748/3
f 727/752/167 723/750/167 724/749/167
f 724/749/167 728/751/167 727/752/167
f 730/756/168 726/754/168 725/753/168
f 725/753/168 729/755/168 730/756/168
f 729/758/6 725/746/6 727/745/6
f 727/745/6 731/757/6 729/758/6
f 732/760/3 728/748/3 726/747/3
f 726/747/3 730/759/3 732/760/3
f 731/764/169 727/762/169 728/761/169
f 728/761/169 732/763/169 731/764/169
f 734/877/215 730/875/215 729/874/215
f 729/874/215 733/876/215 734/877/215
f 733/879/6 729/758/6 731/757/6
f 731/757/6 735/878/6 733/879/6
f 736/881/3 732/760/3 730/759/3
f 730/759/3 734/880/3 736/881/3
f 735/885/216 731/883/216 732/882/216
f 732/882/216 736/884/216 735/885/216
f 740/887/103 738/670/103 737/669/217
f 737/669/217 739/886/102 740/887/103
f 744/889/24 742/674/105 741/673/104
f 741/673/104 743/888/104 744/889/24
f 739/887/102 737/670/217 745/669/106
f 745/669/106 746/886/106 739/887/102
f 748/889/218 747/674/108 742/673/105
f 742/673/105 744/888/24 748/889/218
f 746/887/106 745/670/106 749/669/5
f 749/669/5 750/886/5 746/887/106
f 752/889/4 751/674/4 747/673/108
f 747/673/108 748/888/218 752/889/4
f 750/887/5 749/670/5 753/669/109
f 753/669/109 754/886/109 750/887/5
f 756/889/161 755/674/161 751/673/4
f 751/673/4 752/888/4 756/889/161
f 754/887/109 753/678/109 757/677/162
f 757/677/162 758/886/162 754/887/109
f 760/889/163 759/674/163 755/673/161
f 755/673/161 756/888/161 760/889/163
f 758/887/162 757/670/162 761/669/112
f 761/669/112 762/886/112 758/887/162
f 764/889/113 763/674/113 759/673/163
f 759/673/163 760/888/163 764/889/113
f 742/688/6 737/792/6 738/685/6
f 738/685/6 741/793/6 742/688/6
f 743/687/3 740/690/3 739/695/3
f 739/695/3 744/866/3 743/687/3
f 747/796/6 745/697/6 737/686/6
f 737/686/6 742/890/6 747/796/6
f 744/866/3 739/695/3 746/794/3
f 746/794/3 748/696/3 744/866/3
f 751/699/6 749/698/6 745/692/6
f 745/692/6 747/693/6 751/699/6
f 748/696/3 746/794/3 750/700/3
f 750/700/3 752/701/3 748/696/3
f 755/703/6 753/702/6 749/698/6
f 749/698/6 751/891/6 755/703/6
f 752/701/3 750/700/3 754/709/3
f 754/709/3 756/867/3 752/701/3
f 759/893/6 757/801/6 753/702/6
f 753/702/6 755/892/6 759/893/6
f 756/867/3 754/709/3 758/708/3
f 758/708/3 760/868/3 756/867/3
f 763/712/6 761/711/6 757/706/6
f 757/706/6 759/707/6 763/712/6
f 760/868/3 758/708/3 762/711/3
f 762/711/3 764/869/3 760/868/3
f 743/895/4 741/718/4 738/802/4
f 738/802/4 740/894/4 743/895/4
f 762/897/4 761/722/4 763/719/4
f 763/719/4 764/896/4 762/897/4
f 768/778/1 766/731/1 765/723/1
f 765/723/1 767/725/1 768/778/1
f 770/778/6 769/731/6 766/723/6
f 766/723/6 768/725/6 770/778/6
f 772/726/2 771/724/2 769/732/2
f 769/732/2 770/777/2 772/726/2
f 767/726/3 765/724/3 771/732/3
f 771/732/3 772/777/3 767/726/3
f 774/730/114 769/780/114 771/727/114
f 771/727/114 773/729/114 774/730/114
f 773/734/3 771/723/3 765/731/3
f 765/731/3 775/733/3 773/734/3
f 776/736/6 766/732/6 769/724/6
f 769/724/6 774/735/6 776/736/6
f 775/740/115 765/738/115 766/781/115
f 766/781/115 776/739/115 775/740/115
f 778/744/116 774/742/116 773/741/116
f 773/741/116 777/743/116 778/744/116
f 777/746/3 773/734/3 775/733/3
f 775/733/3 779/745/3 777/746/3
f 780/748/6 776/736/6 774/735/6
f 774/735/6 778/747/6 780/748/6
f 779/752/117 775/750/117 776/749/117
f 776/749/117 780/751/117 779/752/117
f 782/756/118 778/754/118 777/753/118
f 777/753/118 781/755/118 782/756/118
f 781/758/3 777/746/3 779/745/3
f 779/745/3 783/757/3 781/758/3
f 784/760/6 780/748/6 778/747/6
f 778/747/6 782/759/6 784/760/6
f 783/764/119 779/762/119 780/761/119
f 780/761/119 784/763/119 783/764/119
f 786/901/219 782/899/219 781/898/219
f 781/898/219 785/900/219 786/901/219
f 785/902/3 781/758/3 783/757/3
f 783/757/3 787/878/3 785/902/3
f 788/881/6 784/760/6 782/759/6
f 782/759/6 786/903/6 788/881/6
f 787/885/220 783/883/220 784/882/220
f 784/882/220 788/884/220 787/885/220
f 792/778/1 790/731/1 789/732/1
f 789/732/1 791/777/1 792/778/1
f 794/778/6 793/731/6 790/723/6
f 790/723/6 792/725/6 794/778/6
f 796/778/2 795/731/2 793/732/2
f 793/732/2 794/777/2 796/778/2
f 791/726/3 789/724/3 795/732/3
f 795/732/3 796/777/3 791/726/3
f 798/730/114 793/780/114 795/779/114
f 795/779/114 797/729/114 798/730/114
f 797/734/3 795/723/3 789/731/3
f 789/731/3 799/733/3 797/734/3
f 800/736/6 790/732/6 793/724/6
f 793/724/6 798/735/6 800/736/6
f 799/740/115 789/782/115 790/781/115
f 790/781/115 800/739/115 799/740/115
f 802/744/116 798/742/116 797/741/116
f 797/741/116 801/743/116 802/744/116
f 801/746/3 797/734/3 799/733/3
f 799/733/3 803/745/3 801/746/3
f 804/748/6 800/736/6 798/735/6
f 798/735/6 802/747/6 804/748/6
f 803/752/117 799/750/117 800/749/117
f 800/749/117 804/751/117 803/752/117
f 806/756/118 802/754/118 801/753/118
f 801/753/118 805/755/118 806/756/118
f 805/758/3 801/746/3 803/745/3
f 803/745/3 807/757/3 805/758/3
f 808/760/6 804/748/6 802/747/6
f 802/747/6 806/759/6 808/760/6
f 807/764/119 803/762/119 804/761/119
f 804/761/119 808/763/119 807/764/119
f 810/901/219 806/899/219 805/898/219
f 805/898/219 809/900/219 810/901/219
f 809/902/3 805/758/3 807/757/3
f 807/757/3 811/878/3 809/902/3
f 812/881/6 808/760/6 806/759/6
f 806/759/6 810/903/6 812/881/6
f 811/885/220 807/883/220 808/882/220
f 808/882/220 812/884/220 811/885/220

