# ProBuilder 5.0.6
# https://unity3d.com/unity/features/worldbuilding/probuilder
# 2025-05-22 오후 3:24:15

mtllib ./JPBM11D2FBase.mtl
o JPBM11D2FBase

g JPBM11D2FBase
v -2.75 -0.5 -0.5
v 2.75 -0.5 -0.5
v -2.75 2.500052 -0.5
v 2.75 2.500052 -0.5
v 0.1905251 3.909074 2.709368
v -4.768372E-07 4.049075 2.679367
v 0.2165051 3.924075 2.679367
v -4.768372E-07 4.019074 2.709368
v -0.2165065 3.924075 2.679367
v -0.1905265 3.909074 2.709368
v -0.2165065 3.674075 2.679367
v -0.1866522 3.671121 2.709368
v 0.1866512 3.671123 2.709368
v 0.2165051 3.674075 2.679367
v -4.768372E-07 3.65266 2.70937
v -4.768372E-07 3.799074 2.709368
v -5.000001 -1.5 2.500365
v 5 -1.5 -1.499634
v -5 -1.5 -1.499636
v 5 -1.5 2.500366
v -5.000001 2.5 2.500365
v -5 2.5 -1.499636
v 5 2.5 -1.499634
v 5 2.5 2.500366
v -0.006967545 3.624172 -1.724027
v -5.460256 2.37539 -1.724028
v -5.460257 2.37539 2.724756
v -0.006968021 3.624172 2.724758
v -5.467188 2.425125 -1.724028
v -3.433228E-05 3.673905 -1.724027
v 5.460257 2.37539 -1.724026
v 5.467188 2.425125 -1.724026
v -3.480911E-05 3.673905 2.724758
v -5.467189 2.425125 2.724757
v 5.467188 2.425125 2.724758
v 5.460257 2.37539 2.724758
v -5.500001 2.51763 2.750365
v 0 3.773897 -1.749635
v -4.768372E-07 3.773897 2.750366
v -5.5 2.51763 -1.749636
v 5.5 2.51763 -1.749634
v 5.5 2.51763 2.750366
v -5.500001 2.41763 2.750365
v 0 3.673898 -1.749635
v -5.5 2.41763 -1.749636
v -4.768372E-07 3.673898 2.750366
v 5.5 2.41763 2.750366
v 5.5 2.41763 -1.749634
v 5.467188 2.425125 -1.749634
v 5.467188 2.425125 2.750366
v 0 4.049076 -1.590634
v -0.216506 3.924076 -1.590634
v -0.216506 3.674076 -1.590634
v 0.216506 3.674076 -1.590634
v 0.216506 3.924076 -1.590634
v -0.190526 3.909076 -1.620635
v 0 4.019075 -1.620635
v 0.190526 3.909076 -1.620635
v 0.1865711 3.672107 -1.620635
v -0.1865711 3.672107 -1.620635
v 0 3.799076 -1.620635
v 0 3.659835 -1.620635
v -5.588195 2.355206 -1.433634
v -5.544893 1.855206 -1.458635
v -5.544893 2.355206 -1.458635
v -5.588195 1.855206 -1.433634
v -5.588195 2.355206 -1.383635
v -5.588195 1.855206 -1.383635
v -5.544893 2.355206 -1.358635
v -5.544893 1.855206 -1.358635
v -5.501592 2.355206 -1.383635
v -5.501592 1.855206 -1.383635
v -5.430611 1.770639 -1.383635
v -5.460825 1.739621 -1.358635
v -5.501592 2.355206 -1.433634
v -5.501592 1.855206 -1.433634
v -5.491039 1.708604 -1.433634
v -5.460825 1.739621 -1.458633
v -5.430611 1.770639 -1.433634
v -5.491039 1.708604 -1.383635
v -5.312237 1.626761 -1.433634
v -5.307896 1.669845 -1.458633
v -5.303555 1.712928 -1.433634
v -5.312237 1.626761 -1.383635
v -5.307896 1.669845 -1.358635
v -5.303555 1.712928 -1.383635
v -5.222485 1.59013 -1.433634
v -5.196066 1.624439 -1.458633
v -5.169649 1.658748 -1.433634
v -5.222485 1.59013 -1.383635
v -5.196066 1.624439 -1.358635
v -5.169649 1.658748 -1.383635
v -5.194408 1.55955 -1.433634
v -5.151197 1.562356 -1.458633
v -5.107987 1.565162 -1.433634
v -5.194408 1.55955 -1.383635
v -5.151197 1.562356 -1.358635
v -5.107987 1.565162 -1.383635
v -5.187928 -1.019143 -1.433634
v -5.144718 -1.016337 -1.458633
v -5.101507 -1.013531 -1.433634
v -5.187928 -1.019143 -1.383635
v -5.144718 -1.016337 -1.358635
v -5.101507 -1.013531 -1.383635
v -5.622064 2.417157 2.419366
v -5.612015 2.379658 -1.580635
v -5.622063 2.417158 -1.580635
v -5.612016 2.379657 2.419366
v -5.599025 2.387157 2.419366
v -5.607063 2.417158 -1.580635
v -5.599024 2.387158 -1.580635
v -5.607064 2.417157 2.419366
v -5.584563 2.352206 -1.580635
v -5.584564 2.352205 2.419366
v -5.577064 2.365196 2.419366
v -5.577063 2.365196 -1.580635
v -5.547063 2.342158 -1.580635
v -5.547064 2.342157 2.419365
v -5.547064 2.357157 2.419365
v -5.547063 2.357158 -1.580635
v -5.509563 2.352206 -1.580635
v -5.509564 2.352205 2.419366
v -5.517064 2.365196 2.419366
v -5.517064 2.365196 -1.580635
v -5.482111 2.379658 -1.580635
v -5.482112 2.379657 2.419366
v -5.495103 2.387157 2.419366
v -5.495102 2.387158 -1.580635
v -5.472064 2.417158 -1.580635
v -5.472064 2.417157 2.419366
v -5.487064 2.417157 2.419366
v -5.487063 2.417158 -1.580635
v -5.436063 2.393776 -0.9453487
v -5.436063 2.343776 -0.91535
v -5.436063 2.343776 -0.9453487
v -5.436063 2.393776 -0.91535
v -5.406064 2.393776 -0.9453487
v -5.406064 2.343776 -0.9453487
v -5.468179 2.304 -0.9453487
v -5.444856 2.285131 -0.9453487
v -5.499377 2.278032 -0.9453487
v -5.497532 2.248089 -0.9453487
v -5.534614 2.291285 -0.9453487
v -5.547662 2.264272 -0.9453487
v -5.576449 2.356389 -0.9453487
v -5.598766 2.366617 -0.9453487
v -5.406064 2.393776 -0.91535
v -5.406064 2.343776 -0.91535
v -5.444856 2.285131 -0.91535
v -5.468179 2.304 -0.91535
v -5.497532 2.248089 -0.91535
v -5.499377 2.278032 -0.91535
v -5.547662 2.264272 -0.91535
v -5.534614 2.291285 -0.91535
v -5.598766 2.366617 -0.91535
v -5.576449 2.356389 -0.91535
v -5.436064 2.393776 1.986366
v -5.436064 2.343776 2.016365
v -5.436064 2.343776 1.986366
v -5.436064 2.393776 2.016365
v -5.406064 2.393776 1.986367
v -5.406064 2.343776 1.986367
v -5.46818 2.304 1.986366
v -5.444857 2.285131 1.986366
v -5.499378 2.278032 1.986367
v -5.497533 2.248089 1.986367
v -5.534615 2.291285 1.986366
v -5.547663 2.264272 1.986366
v -5.57645 2.356389 1.986367
v -5.596704 2.365345 1.986367
v -5.406064 2.393776 2.016366
v -5.406064 2.343776 2.016366
v -5.444857 2.285131 2.016365
v -5.46818 2.304 2.016365
v -5.497533 2.248089 2.016366
v -5.499378 2.278032 2.016366
v -5.547663 2.264272 2.016365
v -5.534615 2.291285 2.016365
v -5.596704 2.365345 2.016366
v -5.57645 2.356389 2.016366
v 5.58741 2.355206 -1.383633
v 5.544107 1.855206 -1.358633
v 5.544107 2.355206 -1.358633
v 5.58741 1.855206 -1.383633
v 5.58741 2.355206 -1.433632
v 5.58741 1.855206 -1.433632
v 5.544107 2.355206 -1.458633
v 5.544107 1.855206 -1.458633
v 5.500807 2.355206 -1.433632
v 5.500807 1.855206 -1.433632
v 5.429825 1.770639 -1.433632
v 5.460041 1.739621 -1.458632
v 5.500807 2.355206 -1.383633
v 5.500807 1.855206 -1.383633
v 5.490253 1.708604 -1.383633
v 5.460041 1.739621 -1.358633
v 5.429825 1.770639 -1.383633
v 5.490253 1.708604 -1.433632
v 5.311451 1.626761 -1.383633
v 5.30711 1.669845 -1.358633
v 5.302769 1.712928 -1.383633
v 5.311451 1.626761 -1.433632
v 5.30711 1.669845 -1.458632
v 5.302769 1.712928 -1.433632
v 5.221699 1.59013 -1.383633
v 5.19528 1.624439 -1.358633
v 5.168863 1.658748 -1.383633
v 5.221699 1.59013 -1.433632
v 5.19528 1.624439 -1.458632
v 5.168863 1.658748 -1.433632
v 5.193623 1.55955 -1.383633
v 5.150412 1.562356 -1.358633
v 5.107201 1.565162 -1.383633
v 5.193623 1.55955 -1.433632
v 5.150412 1.562356 -1.458632
v 5.107201 1.565162 -1.433632
v 5.187141 -1.019143 -1.383633
v 5.143932 -1.016337 -1.358633
v 5.100721 -1.013531 -1.383633
v 5.187141 -1.019143 -1.433632
v 5.143932 -1.016337 -1.458632
v 5.100721 -1.013531 -1.433632
v 5.463936 2.417157 2.419367
v 5.473984 2.379658 -1.580633
v 5.463936 2.417158 -1.580633
v 5.473984 2.379657 2.419367
v 5.486975 2.387157 2.419367
v 5.478935 2.417158 -1.580633
v 5.486975 2.387158 -1.580633
v 5.478935 2.417157 2.419367
v 5.501436 2.352206 -1.580633
v 5.501436 2.352205 2.419367
v 5.508936 2.365196 2.419367
v 5.508936 2.365196 -1.580633
v 5.538937 2.342158 -1.580633
v 5.538937 2.342157 2.419367
v 5.538937 2.357157 2.419367
v 5.538937 2.357158 -1.580633
v 5.576437 2.352206 -1.580633
v 5.576437 2.352205 2.419367
v 5.568935 2.365196 2.419367
v 5.568935 2.365196 -1.580633
v 5.603888 2.379658 -1.580633
v 5.603888 2.379657 2.419367
v 5.590899 2.387157 2.419367
v 5.590899 2.387158 -1.580633
v 5.613935 2.417158 -1.580633
v 5.613935 2.417157 2.419367
v 5.598936 2.417157 2.419367
v 5.598936 2.417158 -1.580633
v 5.409409 2.39583 -1.245348
v 5.409409 2.34583 -1.275347
v 5.409409 2.34583 -1.245348
v 5.409409 2.39583 -1.275347
v 5.379408 2.39583 -1.245348
v 5.379408 2.34583 -1.245348
v 5.441523 2.306054 -1.245348
v 5.418201 2.287185 -1.245348
v 5.472721 2.280086 -1.245348
v 5.470877 2.250143 -1.245348
v 5.507959 2.293339 -1.245348
v 5.521008 2.266325 -1.245348
v 5.550261 2.355607 -1.245348
v 5.574238 2.360595 -1.245348
v 5.379408 2.39583 -1.275347
v 5.379408 2.34583 -1.275347
v 5.418201 2.287185 -1.275347
v 5.441523 2.306054 -1.275347
v 5.470877 2.250143 -1.275347
v 5.472721 2.280086 -1.275347
v 5.521008 2.266325 -1.275347
v 5.507959 2.293339 -1.275347
v 5.574238 2.360595 -1.275347
v 5.550261 2.355607 -1.275347
v 5.409409 2.39583 1.839653
v 5.409409 2.34583 1.809652
v 5.409409 2.34583 1.839653
v 5.409409 2.39583 1.809652
v 5.379408 2.39583 1.839653
v 5.379408 2.34583 1.839653
v 5.441523 2.306054 1.839653
v 5.418201 2.287185 1.839653
v 5.472721 2.280086 1.839653
v 5.470877 2.250143 1.839653
v 5.507959 2.293339 1.839653
v 5.521008 2.266325 1.839653
v 5.550261 2.355607 1.839653
v 5.574238 2.360595 1.839653
v 5.379408 2.39583 1.809652
v 5.379408 2.34583 1.809652
v 5.418201 2.287185 1.809654
v 5.441523 2.306054 1.809654
v 5.470877 2.250143 1.809654
v 5.472721 2.280086 1.809654
v 5.521008 2.266325 1.809654
v 5.507959 2.293339 1.809654
v 5.574238 2.360595 1.809654
v 5.550261 2.355607 1.809654
v 5.01861 -1.88109 -3.763005
v 4.976318 -1.880312 -3.736343
v 4.978159 -1.883188 -3.686461
v 5.064579 -1.887619 -3.689903
v 5.062738 -1.884742 -3.739786
v 5.020449 -1.883965 -3.713123
v 5.022289 -1.886842 -3.66324
v 5.544107 2.355206 -1.408632
v -5.160421 -1.891295 -3.69006
v -5.24672 -1.896883 -3.685437
v -5.202328 -1.892618 -3.66282
v -5.204813 -1.895561 -3.712679
v -5.249204 -1.899822 -3.73529
v -5.162905 -1.894235 -3.739913
v -5.207297 -1.8985 -3.76253
v -5.544893 2.355206 -1.408634
v -4.768372E-07 3.731923 2.500366
v 5.187149 -1.164464 -1.383629
v 5.187149 -1.164464 -1.433628
v 5.14394 -1.161659 -1.358629
v 5.14394 -1.161659 -1.458628
v 5.100729 -1.158852 -1.433628
v 5.100729 -1.158852 -1.383629
v 5.187159 -1.256405 -1.42473
v 5.187159 -1.225731 -1.464216
v 5.14395 -1.269527 -1.403267
v 5.14395 -1.208179 -1.482237
v 5.100739 -1.221299 -1.460772
v 5.100739 -1.251973 -1.421288
v 5.182344 -1.296592 -1.4942
v 5.183622 -1.252851 -1.518387
v 5.138494 -1.316247 -1.480385
v 5.141054 -1.228765 -1.528759
v 5.097202 -1.248419 -1.514942
v 5.095924 -1.29216 -1.490757
v 5.069843 -1.809122 -3.65834
v 5.071739 -1.761188 -3.672435
v 5.025686 -1.830874 -3.649571
v 5.02948 -1.735006 -3.677761
v 4.985319 -1.756757 -3.668991
v 4.983423 -1.80469 -3.654897
v 5.068041 -1.824747 -3.683674
v 5.068285 -1.791165 -3.720716
v 5.024708 -1.839323 -3.663431
v 5.025202 -1.772159 -3.737515
v 4.981865 -1.786733 -3.717273
v 4.981621 -1.820315 -3.680231
v -5.181115 -1.124055 -1.383635
v -5.137905 -1.121249 -1.358633
v -5.181115 -1.124055 -1.433634
v -5.137905 -1.121249 -1.458633
v -5.094694 -1.118443 -1.433632
v -5.094694 -1.118443 -1.383633
v -5.17515 -1.215927 -1.42301
v -5.13123 -1.224054 -1.400532
v -5.17657 -1.194065 -1.467955
v -5.13407 -1.180328 -1.490427
v -5.090149 -1.188455 -1.467949
v -5.088729 -1.210317 -1.423002
v -5.171142 -1.274323 -1.487894
v -5.126572 -1.289274 -1.470856
v -5.173854 -1.239079 -1.523256
v -5.131998 -1.218781 -1.541586
v -5.087426 -1.233731 -1.524546
v -5.084713 -1.268975 -1.489183
v -5.249673 -1.800279 -3.623964
v -5.204518 -1.820466 -3.616622
v -5.253683 -1.754332 -3.643271
v -5.21254 -1.728566 -3.655242
v -5.167384 -1.748751 -3.647899
v -5.163373 -1.794699 -3.628591
v -5.251 -1.814235 -3.665507
v -5.205762 -1.831812 -3.653469
v -5.255176 -1.773504 -3.694204
v -5.214116 -1.750345 -3.71087
v -5.168877 -1.767922 -3.698831
v -5.164701 -1.808654 -3.670133
v 0.8999987 0.1749997 -2.849636
v -0.9000015 0.1749997 -2.849636
v 0.8999987 0.3249993 -2.849636
v -0.9000015 0.3249993 -2.849636
v -0.9000015 0.1749997 -2.999636
v 0.8999987 0.1749997 -2.999636
v -0.9000015 0.3249993 -2.999636
v 0.8999987 0.3249993 -2.999636
v -3 0.1749997 -1.499636
v -3 0.1749997 -2.849636
v -3 0.3249993 -1.499636
v -3 0.3249993 -2.849636
v -2.850001 0.1749997 -2.849636
v -2.850001 0.1749997 -1.499636
v -2.850001 0.3249993 -2.849636
v -2.850001 0.3249993 -1.499636
v -1.050001 0.1749997 -2.849636
v -1.050001 0.3249993 -2.849636
v -2.850001 0.1749997 -2.999636
v -1.050001 0.1749997 -2.999636
v -2.850001 0.3249993 -2.999636
v -1.050001 0.3249993 -2.999636
v -3 0.8500004 -1.499636
v -3 0.8500004 -2.849636
v -3 1 -1.499636
v -3 1 -2.849636
v -2.850001 0.8500004 -2.849636
v -2.850001 0.8500004 -1.499636
v -2.850001 1 -2.849636
v -2.850001 1 -1.499636
v 2.85 0.8500004 -1.499636
v 2.85 0.8500004 -2.849636
v 2.85 1 -1.499636
v 2.85 1 -2.849636
v 3 0.8500004 -2.849636
v 3 0.8500004 -1.499636
v 3 1 -2.849636
v 3 1 -1.499636
v 2.85 0.1749997 -1.499636
v 2.85 0.1749997 -2.849636
v 2.85 0.3249993 -1.499636
v 2.85 0.3249993 -2.849636
v 3 0.1749997 -2.849636
v 3 0.1749997 -1.499636
v 3 0.3249993 -2.849636
v 3 0.3249993 -1.499636
v 2.98 -1.1 -1.499634
v 2.73 -1.1 -1.499634
v 2.98 -0.5939341 -2.893569
v 2.73 -0.5939341 -2.893569
v 2.73 -1.3 -1.499634
v 2.73 -0.6999998 -2.999636
v 2.98 -1.3 -1.499634
v 2.98 -0.6999998 -2.999636
v -2.730001 -1.099999 -1.499636
v -2.980001 -1.099999 -1.499636
v -2.730001 -0.5939341 -2.893569
v -2.980001 -0.5939341 -2.893569
v -2.980001 -1.299999 -1.499636
v -2.980001 -0.6999998 -2.999636
v -2.730001 -1.299999 -1.499636
v -2.730001 -0.6999998 -2.999636
v -3 -0.6999998 -1.499636
v -3 -0.6999998 -2.999636
v -3 -0.5 -1.499636
v -3 -0.5 -2.999636
v 3 -0.6999998 -2.999636
v 3 -0.5 -2.999636
v 3 -0.6999998 -1.499636
v 3 -0.5 -1.499636
v -2.850001 -0.5 -2.849636
v -3 -0.5 -2.849636
v -3 1 -2.999636
v -2.850001 -0.5 -2.999636
v -2.850001 1 -2.999636
v 3 -0.5 -2.849636
v 2.85 -0.5 -2.849636
v 2.85 -0.5 -2.999636
v 2.85 1 -2.999636
v 3 1 -2.999636
v -0.900001 -0.5 -2.849636
v -1.050001 -0.5 -2.849636
v -0.900001 1 -2.849636
v -1.050001 1 -2.849636
v -1.050001 -0.5 -2.999636
v -1.050001 1 -2.999636
v -0.900001 -0.5 -2.999636
v -0.900001 1 -2.999636
v -1.050001 0.8500004 -2.849636
v -2.850001 0.8500004 -2.999636
v -1.050001 0.8500004 -2.999636
v 1.049998 -0.5 -2.849636
v 0.8999987 -0.5 -2.849636
v 1.049998 1 -2.849636
v 0.8999987 1 -2.849636
v 0.8999987 -0.5 -2.999636
v 0.8999987 1 -2.999636
v 1.049998 -0.5 -2.999636
v 1.049998 1 -2.999636
v 0.8999987 0.8500004 -2.849636
v -0.900001 0.8500004 -2.849636
v -0.900001 0.8500004 -2.999636
v 0.8999987 0.8500004 -2.999636
v 2.849998 0.8500004 -2.849636
v 1.049998 0.8500004 -2.849636
v 2.849998 1 -2.849636
v 1.049998 0.8500004 -2.999636
v 2.849998 0.8500004 -2.999636
v 2.849998 1 -2.999636
v 2.849998 0.1750002 -2.849636
v 1.049998 0.1750002 -2.849636
v 2.849998 0.3249998 -2.849636
v 1.049998 0.3249998 -2.849636
v 1.049998 0.1750002 -2.999636
v 2.849998 0.1750002 -2.999636
v 1.049998 0.3249998 -2.999636
v 2.849998 0.3249998 -2.999636
v 5 2.5 -0.4996338
v -5 2.5 -0.4996338
v 0 3.631676 -1.499634
v -2.75 -1.5 -1.499634
v -2.75 2.5 -1.499634
v -2.75 -1.5 -0.4996338
v -2.75 2.5 -0.4996338
v 2.75 -1.5 -0.4996338
v 2.75 -1.5 -1.499634
v 2.75 2.5 -0.4996338
v 2.75 2.5 -1.499634
v -2.75 -0.5 -1.499634
v 2.75 -0.5 -1.499634
v 2.75 -0.5 -1.162187
v -2.75 -0.5 -1.162187

vt 2.75 -0.5
vt -2.75 -0.5
vt 2.75 2.500052
vt -2.75 2.500052
vt -37.40742 0.1470692
vt -36.29587 0.1507421
vt -37.42197 -0.05839515
vt -36.41646 0.3311124
vt -37.20568 0.1560211
vt -38.26639 0.4240227
vt -37.11526 0.3416176
vt -38.21868 0.2285385
vt -0.9774323 -0.026577
vt 1.378601 0.05629349
vt -1.053185 -0.41605
vt 1.332695 0.4460487
vt -1.151146 -0.02857971
vt 1.377502 0.05011749
vt -1.040909 -0.432312
vt 1.156004 0.4041634
vt -1.124739 0.04562275
vt -1.317785 0.2407998
vt 0.1463566 0.2407995
vt 1.395896 0.02952849
vt -1.12474 0.4359768
vt 2.587258 0.2406835
vt 1.395896 0.4520648
vt 4 11
vt 0 0.9999981
vt 0 11
vt 4 0.9999981
vt 12.0875 3.5125
vt 15.0875 0.5124998
vt 12.0875 0.5125003
vt 15.0875 3.5125
vt 11.9125 3.5125
vt 14.9125 0.5124998
vt 11.9125 0.5125003
vt 14.9125 3.5125
vt 0.02560806 5.506968
vt 0.02560806 10.96026
vt 4.474392 10.96026
vt 4.474392 5.506968
vt 10.96719 0.0497345
vt 10.96026 0
vt 5.506968 1.248782
vt 5.500035 1.298516
vt 0.0397439 0
vt 0.03281164 0.0497345
vt 5.499965 1.298516
vt 5.493032 1.248782
vt 4.474392 0.0497345
vt 4.474392 0
vt 0.02560806 0
vt 0.02560806 0.0497345
vt 4.474392 0.03974295
vt 0.02560806 0.03974295
vt 0 11.08966
vt 4.5 5.589663
vt 0 5.589663
vt 4.5 11.08966
vt 0 5.5
vt 4.5 0
vt 0 0
vt 4.5 5.5
vt 4.5 11
vt -0.06659842 0.06723964
vt 4.433402 0.1172396
vt 4.433402 0.06723964
vt -0.06659842 0.1172396
vt 0 0.06723946
vt 4.5 0.1172394
vt 4.5 0.06723946
vt 0 0.1172394
vt 0 0.03281212
vt 4.5 0.03281212
vt 0.02560806 5.500035
vt 0.02560806 0.03281212
vt 4.474392 0.03281212
vt 4.474392 5.500035
vt 3.032402 -2.385359
vt 2.761148 3.114642
vt 2.781148 3.114642
vt 3.012402 -2.385359
vt 8.460383 2.971369
vt 8.190396 -2.535635
vt 8.370004 2.955024
vt 8.280777 -2.519291
vt 8.276933 -2.299753
vt 8.376633 3.178316
vt 8.461868 3.192525
vt 8.191696 -2.313963
vt 2.759158 3.002339
vt 3.030412 -2.497661
vt 3.010412 -2.497661
vt 2.779158 3.002339
vt 0.6693199 4.3
vt 0.4528135 0.03
vt 0.4528135 4.3
vt 0.6693199 0.03
vt 1.375 4.3
vt -1.125 0.03
vt -1.125 4.3
vt 1.375 0.03
vt 0.2165064 4.3
vt 0 0.03
vt 0 4.3
vt 0.2165064 0.03
vt 14.32817 -0.4948292
vt 13.22288 -0.6193848
vt 14.32029 -0.2888641
vt 13.36245 -0.7856884
vt 13.34906 0.7803664
vt 14.33035 0.2928429
vt 13.22289 0.6193781
vt 14.32362 0.4930167
vt 1.103573 -1.48691
vt -1.254543 -1.472692
vt 1.195534 -1.101368
vt -1.215204 -1.862589
vt 1.269707 -1.390173
vt -1.249992 -1.347792
vt 1.188103 -0.9797573
vt -1.045425 -1.711716
vt -0.99951 0.4277717
vt 1.516492 0.4079487
vt 0.2500286 0.2165064
vt -2.190895 0.2166223
vt 1.642421 0.216506
vt -0.9995111 0.005235562
vt 1.516492 0.02506336
vt 0.0250001 0.25
vt -0.02499986 -0.25
vt -0.02499986 0.25
vt 0.0250001 -0.25
vt -0.0250001 -0.25
vt -0.0250001 0.25
vt 0.08647203 -0.3413491
vt 0.04780579 -0.3727355
vt -0.05913901 -0.3745234
vt -0.02500033 -0.2201467
vt 0.02499986 -0.2201467
vt -0.09780502 -0.3431375
vt -0.04780579 -0.3701243
vt -0.0250001 -0.247279
vt 0.0250001 -0.247279
vt -0.08647203 -0.338991
vt 0.02499962 -0.3603446
vt -0.0250001 -0.1844716
vt 0.0250001 -0.1844716
vt -0.02499962 -0.3603446
vt 0.09780455 -0.3466308
vt -0.02500057 -0.223691
vt 0.02499962 -0.223691
vt 0.0591383 -0.378132
vt 0.02499962 -0.3297335
vt -0.0250001 -0.2193257
vt 0.0250001 -0.2193257
vt -0.02499962 -0.3297335
vt -0.2316328 -0.436636
vt -0.09380531 -0.3083997
vt -0.05835712 -0.3436615
vt -0.2420072 -0.3877244
vt -0.2174149 -0.4336669
vt -0.1046207 -0.3191202
vt -0.06918502 -0.3543949
vt -0.2277722 -0.3847518
vt 0.02499962 -0.4106761
vt -0.02499962 -0.2140326
vt 0.02499962 -0.2140326
vt -0.02499962 -0.4106761
vt 0.2420018 -0.3878777
vt 0.05836272 -0.3437688
vt 0.09381986 -0.3085158
vt 0.2316151 -0.4367867
vt 0.22771 -0.3849068
vt 0.06913364 -0.3544939
vt 0.1045818 -0.3192315
vt 0.2173355 -0.4338186
vt 0.02499962 -0.3819631
vt -0.02499962 -0.2424146
vt 0.02499962 -0.2424146
vt -0.02499962 -0.3819631
vt -0.3199731 -0.4748659
vt -0.2421883 -0.3841801
vt -0.2324359 -0.4332197
vt -0.3512587 -0.4358635
vt -0.3292739 -0.4823225
vt -0.2299213 -0.381634
vt -0.2201858 -0.4306769
vt -0.3605459 -0.4433091
vt 0.02499962 -0.4931395
vt -0.02499962 -0.3962003
vt 0.02499962 -0.3962003
vt -0.02499962 -0.4931395
vt 0.3512282 -0.4360821
vt 0.2324069 -0.4333775
vt 0.2421844 -0.3843429
vt 0.3199229 -0.4750686
vt 0.3604685 -0.4434481
vt 0.2201128 -0.4307675
vt 0.2298655 -0.3817282
vt 0.3291832 -0.4824507
vt 0.02499962 -0.5153053
vt -0.02499962 -0.3708527
vt 0.02499962 -0.3708527
vt -0.02499962 -0.5153053
vt -0.3259308 -0.5598159
vt -0.3354065 -0.4909518
vt -0.300699 -0.5269432
vt -0.3757281 -0.5560801
vt -0.3280108 -0.5841122
vt -0.3229308 -0.4829788
vt -0.288039 -0.5187915
vt -0.377862 -0.5806668
vt 0.02499962 -0.6389757
vt -0.02499962 -0.5974609
vt 0.02499962 -0.5974609
vt -0.02499962 -0.6389757
vt 0.3812764 -0.5477815
vt 0.3059182 -0.5198696
vt 0.3400807 -0.4833606
vt 0.3316967 -0.5524113
vt 0.3816596 -0.5795021
vt 0.2915405 -0.5181098
vt 0.3262478 -0.4821184
vt 0.3318621 -0.5832381
vt 0.02499962 -0.6913397
vt -0.02499962 -0.5792666
vt 0.02499962 -0.5792666
vt -0.02499962 -0.6913397
vt -0.3215106 -3.124544
vt -0.3658226 -0.543043
vt -0.3159015 -0.545849
vt -0.3714316 -3.121739
vt -0.3213611 -3.121848
vt -0.3656716 -0.5403461
vt -0.3157516 -0.5431521
vt -0.3712811 -3.119042
vt 0.02499962 -3.125237
vt -0.02499962 -0.546535
vt 0.02499962 -0.546535
vt -0.02499962 -3.125237
vt 0.3714318 -3.121739
vt 0.3159008 -0.5458491
vt 0.3658228 -0.5430431
vt 0.3215098 -3.124545
vt 0.3712816 -3.119042
vt 0.3157513 -0.5431522
vt 0.3656723 -0.5403462
vt 0.3213603 -3.121848
vt 0.02499962 -3.119842
vt -0.02499962 -0.5411402
vt 0.02499962 -0.5411402
vt -0.02499962 -3.119842
vt -0.01941109 2
vt 0.01941061 -2
vt -0.01941156 -2
vt 0.01941156 2
vt -0.01552916 2
vt 0.01552916 -2
vt -0.01552868 -2
vt 0.01552868 2
vt 0 0.07500005
vt 0.02999997 0.05196142
vt 0 0.05999994
vt 0.0374999 0.0649519
vt 0.05196142 0.02999997
vt 0.0649519 0.0374999
vt 0.05999994 -1.192093E-07
vt 0.07500005 -1.192093E-07
vt 0.05196142 -0.02999997
vt 0.0649519 -0.0374999
vt 0.02999997 -0.05196142
vt 0.0374999 -0.0649519
vt 0 -0.05999994
vt 0 -0.07500005
vt -0.0374999 0.0649519
vt 0 0.07499993
vt -0.02999985 0.05196154
vt -0.0649519 0.03750002
vt -0.05196178 0.02999997
vt -0.07500005 -1.192093E-07
vt -0.06000006 -1.192093E-07
vt -0.06495178 -0.0374999
vt -0.05196142 -0.02999997
vt -0.03750002 -0.0649519
vt -0.02999997 -0.0519613
vt 0 -0.07499993
vt 0.05999994 2
vt 0.07500029 -2
vt 0.05999994 -2
vt 0.07500029 2
vt -0.07500029 2
vt -0.05999994 -2
vt -0.07500029 -2
vt -0.05999994 2
vt -0.01499987 0.02499998
vt 0.01499987 -0.02499998
vt -0.01499987 -0.02499998
vt 0.01499987 0.02499998
vt 0.04711556 -0.06477559
vt 0.02379322 -0.08364511
vt 0.07831395 -0.09074402
vt 0.07646883 -0.1206871
vt 0.1135511 -0.07749069
vt 0.1265988 -0.1045046
vt 0.1553857 -0.01238716
vt 0.1777031 -0.002159476
vt -0.02379322 -0.08364499
vt -0.04711556 -0.06477547
vt -0.07646883 -0.1206871
vt -0.07831395 -0.09074402
vt -0.1265988 -0.1045046
vt -0.1135511 -0.07749069
vt -0.1777031 -0.002159476
vt -0.1553857 -0.01238716
vt 0.01499891 -0.08289009
vt -0.01499987 -0.01257533
vt 0.01499987 -0.01257533
vt -0.01499891 -0.08289009
vt 0.01499891 -0.07999676
vt -0.01499987 -0.02887425
vt 0.01499987 -0.02887425
vt -0.01499891 -0.07999676
vt -0.01499939 0.1319731
vt 0.01499939 0.06757729
vt -0.01499939 0.06757729
vt 0.01499939 0.1319731
vt -0.01499939 0.118244
vt 0.01499939 0.07765228
vt -0.01499939 0.07765228
vt 0.01499939 0.118244
vt -0.01499939 0.08837354
vt 0.01499939 0.03569615
vt -0.01499939 0.03569615
vt 0.01499939 0.08837354
vt -0.01499939 0.07900262
vt 0.01499939 0.04135537
vt -0.01499939 0.04135537
vt 0.01499939 0.07900262
vt -0.01499939 0.07745445
vt 0.01499939 -0.03694046
vt -0.01499939 -0.03694046
vt 0.01499939 0.07745445
vt -0.01499939 0.07357955
vt 0.01499939 -0.003806472
vt -0.01499939 -0.003806472
vt 0.01499939 0.07357955
vt -0.0150001 0.02499998
vt 0.0150001 -0.02499974
vt -0.0150001 -0.02499974
vt 0.0150001 0.02499998
vt 0.1756396 -0.003431439
vt -0.1756396 -0.003431439
vt -0.0150001 -0.01257533
vt 0.0150001 -0.01257533
vt -0.0150001 -0.02887425
vt 0.0150001 -0.02887425
vt 0.01499939 -0.03875768
vt -0.01499939 -0.03875768
vt 0.02499962 0.25
vt 0.02499962 -0.25
vt -0.02499962 -0.2472787
vt 0.0250001 -0.223691
vt 0 0.0600009
vt 0.03750038 0.06495214
vt 0.07499981 -2.384186E-07
vt 0.0649519 -0.03750014
vt 0.03750038 -0.06495225
vt -0.03750002 0.0649519
vt -0.0649519 0.03749979
vt -0.07499981 -2.384186E-07
vt -0.05999947 -2.384186E-07
vt -0.0649519 -0.03750002
vt 0.06000042 2
vt 0.07499981 -2
vt 0.06000042 -2
vt 0.07499981 2
vt -0.07499981 2
vt -0.06000042 -2
vt -0.07499981 -2
vt -0.06000042 2
vt 0.1558533 -0.01522267
vt 0.1798306 -0.01023519
vt -0.1798306 -0.01023519
vt -0.1558533 -0.01522267
vt -0.01499939 0.07951021
vt 0.01499939 0.07951021
vt -0.01499939 0.07498693
vt 0.01499939 -0.0002908707
vt -0.01499939 -0.0002908707
vt 0.01499939 0.07498693
vt 0.04999924 -0.1970575
vt 0.02499962 -0.2403589
vt -0.02499962 -0.2403589
vt -0.02499962 -0.1537563
vt 0.02499962 -0.1537563
vt 0 -0.1970575
vt -0.04999924 -0.1970575
vt 0.0250001 -0.04330134
vt -0.0250001 -0.04330134
vt 0.05 0
vt -0.05000019 0
vt 0.0250001 0.04330134
vt -0.0250001 0.04330134
vt 1.300529 -3.110279
vt 1.300529 4.389722
vt 4.300529 4.389722
vt 5.224472 0.639722
vt 4.300529 -3.110279
vt -4.807497 -1.282643
vt -4.757498 -1.282643
vt -4.807501 -1.427964
vt -4.757502 -1.427964
vt 5.797522 -1.279774
vt 5.847442 -1.28258
vt 5.797527 -1.425096
vt 5.847447 -1.427902
vt -5.847771 -1.27977
vt -5.797849 -1.276964
vt -5.847775 -1.425092
vt -5.797853 -1.422285
vt -10.63756 -1.282144
vt -10.58764 -1.279339
vt -10.63757 -1.427466
vt -10.58764 -1.42466
vt 4.757498 -1.277026
vt 4.807497 -1.277026
vt 4.757502 -1.422347
vt 4.807501 -1.422347
vt 10.58781 -1.276532
vt 10.63773 -1.279339
vt 10.58781 -1.421853
vt 10.63774 -1.42466
vt -4.807501 -1.428453
vt -4.757503 -1.428453
vt -4.7664 -1.520393
vt -4.726914 -1.48972
vt 5.978334 1.663979
vt 6.028244 1.660995
vt 5.999905 1.54925
vt 6.048107 1.562295
vt -6.067595 2.238922
vt -6.017689 2.241994
vt -6.078911 2.187996
vt -6.030697 2.175257
vt -10.61875 -1.671025
vt -10.56885 -1.667975
vt -10.60281 -1.737622
vt -10.55655 -1.718671
vt 4.757502 -1.423295
vt 4.807501 -1.423295
vt 4.730358 -1.485741
vt 4.769842 -1.516416
vt 10.57469 -1.597896
vt 10.6246 -1.600866
vt 10.55521 -1.696436
vt 10.60151 -1.715295
vt -5.141245 -1.040744
vt -5.101791 -1.01003
vt -5.07164 -1.080983
vt -5.047523 -1.037185
vt 3.416482 -6.791219
vt 3.404242 -6.839696
vt 3.32636 -6.785098
vt 3.323992 -6.835022
vt -3.79667 -7.254933
vt -3.811537 -7.207193
vt -3.745815 -7.251735
vt -3.751124 -7.202082
vt -3.445821 -10.06458
vt -3.43834 -10.01514
vt -3.385273 -10.06053
vt -3.387629 -10.01064
vt 5.10151 -1.010401
vt 5.140962 -1.041116
vt 5.047241 -1.037556
vt 5.071357 -1.081355
vt 3.241173 -10.10145
vt 3.247156 -10.15109
vt 3.160964 -10.09591
vt 3.156999 -10.14573
vt -5.072696 -1.079817
vt -5.048579 -1.036019
vt -2.905792 -1.59302
vt -2.891784 -1.545023
vt 4.284516 -7.343668
vt 4.275045 -7.392761
vt 2.055843 -7.217364
vt 2.051742 -7.267187
vt -4.258904 -7.39385
vt -4.268409 -7.344754
vt -2.051793 -7.268954
vt -2.055928 -7.219124
vt -4.118347 -9.533073
vt -4.114582 -9.483221
vt -1.906181 -9.402039
vt -1.907832 -9.352078
vt 5.048583 -1.036024
vt 5.072698 -1.079823
vt 2.891787 -1.545028
vt 2.905795 -1.593025
vt 4.132595 -9.483336
vt 4.136337 -9.533197
vt 1.909649 -9.35157
vt 1.907973 -9.40154
vt -2.903623 -1.593636
vt -2.889615 -1.54564
vt -2.878238 -1.609282
vt -2.841235 -1.575656
vt 1.179414 -6.862139
vt 1.182512 -6.912042
vt 1.16319 -6.861032
vt 1.152768 -6.909934
vt -1.176658 -6.909749
vt -1.173362 -6.859856
vt -1.106331 -6.904915
vt -1.116559 -6.85597
vt -0.9676099 -9.692023
vt -0.9777803 -9.64307
vt -0.9108157 -9.688022
vt -0.9074593 -9.638138
vt 2.890769 -1.545312
vt 2.904777 -1.593308
vt 2.842388 -1.575328
vt 2.879391 -1.608953
vt 0.9674611 -9.63642
vt 0.9573655 -9.685391
vt 0.9377141 -9.634331
vt 0.9411464 -9.684214
vt -2.879397 -1.609993
vt -2.842394 -1.576367
vt -2.873035 -1.672947
vt -2.823118 -1.670067
vt 7.388997 -1.987491
vt 7.436824 -1.972913
vt 7.38673 -2.035018
vt 7.436364 -2.035903
vt -6.995687 -0.4545323
vt -6.947976 -0.4694998
vt -7.002334 -0.5664024
vt -6.952413 -0.5650282
vt -9.578047 -2.304411
vt -9.531904 -2.285165
vt -9.564944 -2.399171
vt -9.515135 -2.395933
vt 2.842816 -1.575895
vt 2.879819 -1.609521
vt 2.82354 -1.669596
vt 2.873456 -1.672476
vt 9.572178 -2.170545
vt 9.618406 -2.189599
vt 9.566561 -2.233572
vt 9.616253 -2.236925
vt 1.673887 -1.132915
vt 1.723808 -1.130108
vt 1.67979 -1.237883
vt 1.729712 -1.235075
vt 4.757497 -1.22515
vt 4.807497 -1.22515
vt 4.757497 -1.330283
vt 4.807497 -1.330283
vt 3.051108 -1.39864
vt 3.10103 -1.401448
vt 3.045206 -1.503608
vt 3.095127 -1.506415
vt -1.723773 -1.130217
vt -1.673851 -1.133025
vt -1.729676 -1.235184
vt -1.679754 -1.237992
vt -3.100987 -1.401535
vt -3.051065 -1.398727
vt -3.095085 -1.506501
vt -3.045164 -1.503693
vt -4.807497 -1.22515
vt -4.757498 -1.22515
vt -4.807499 -1.330282
vt -4.7575 -1.330282
vt 1.583217 0.4549303
vt 1.633127 0.4579595
vt 1.569512 0.3557405
vt 1.618831 0.3476806
vt 4.723177 -1.40045
vt 4.768121 -1.422358
vt 3.139581 0.1462173
vt 3.189487 0.1431684
vt 3.119733 0.08201528
vt 3.167716 0.06820822
vt -1.620971 0.645854
vt -1.571065 0.6427628
vt -1.608553 0.5687449
vt -1.559231 0.5766516
vt -3.168724 -0.1966999
vt -3.11881 -0.1937566
vt -3.141384 -0.3045025
vt -3.093383 -0.2905936
vt -4.768129 -1.422356
vt -4.723183 -1.400448
vt 2.648262 -1.066637
vt 2.659989 -1.115244
vt 2.560989 -1.071073
vt 2.564142 -1.120963
vt 4.722009 -1.402665
vt 4.766955 -1.424569
vt 4.666711 -1.447765
vt 4.702077 -1.483107
vt -2.815767 2.700064
vt -2.825016 2.749201
vt -2.75178 2.697669
vt -2.753724 2.747563
vt -2.85221 -1.010205
vt -2.839384 -0.961874
vt -2.779743 -1.013201
vt -2.77539 -0.9634125
vt 2.373598 2.944764
vt 2.367206 2.895175
vt 2.277727 2.939329
vt 2.278889 2.889378
vt -4.768941 -1.420814
vt -4.723996 -1.398902
vt -4.702755 -1.479605
vt -4.667396 -1.444255
vt 4.159567 -0.2828667
vt 4.172257 -0.331223
vt 1.959946 -0.1976576
vt 1.961929 -0.2475634
vt 4.625798 -1.468803
vt 4.661247 -1.504064
vt 2.504344 -1.984311
vt 2.523812 -2.030334
vt -4.224899 1.885052
vt -4.238461 1.933178
vt -2.051116 1.977655
vt -2.057295 2.027127
vt -4.142608 -0.3340213
vt -4.129861 -0.2856565
vt -1.957948 -0.2472675
vt -1.955901 -0.1973405
vt 4.261272 1.939483
vt 4.247878 1.891309
vt 2.05118 2.029187
vt 2.045196 1.979688
vt -4.664479 -1.500888
vt -4.629031 -1.465624
vt -2.523693 -2.026883
vt -2.504225 -1.980857
vt 1.736281 -0.390296
vt 1.736504 -0.440299
vt 1.692461 -0.3888264
vt 1.697979 -0.4385176
vt 2.495765 -1.946121
vt 2.515259 -1.992164
vt 2.444825 -1.965333
vt 2.473705 -2.006149
vt -1.685289 2.269627
vt -1.687556 2.319575
vt -1.625559 2.271539
vt -1.633135 2.320958
vt -1.635297 -0.4649835
vt -1.635815 -0.4149823
vt -1.580881 -0.4633307
vt -1.576075 -0.4135633
vt 1.90723 2.23178
vt 1.902757 2.18198
vt 1.868685 2.233285
vt 1.858983 2.184245
vt -2.515257 -1.99217
vt -2.495762 -1.946126
vt -2.473704 -2.006154
vt -2.444823 -1.965337
vt 0.024786 -1.381785
vt 0.07140017 -1.399879
vt 0.02193403 -1.466862
vt 0.07140064 -1.461313
vt 2.404139 -2.091913
vt 2.454052 -2.088967
vt 2.001165 -1.485436
vt 2.045011 -1.509469
vt 1.969124 -1.639184
vt 2.019055 -1.639852
vt -0.1649494 -1.137604
vt -0.1184745 -1.119151
vt -0.1552424 -1.270209
vt -0.1056261 -1.275647
vt -1.865469 -1.86273
vt -1.821235 -1.839421
vt -1.858342 -1.923933
vt -1.808788 -1.923361
vt -2.454046 -2.088967
vt -2.404131 -2.091913
vt 3.899999 0.6749995
vt 2.099999 0.6749995
vt 3.899999 0.8249995
vt 2.099999 0.8249995
vt 3.900002 0.8749993
vt 2.100001 0.8749993
vt 3.900002 1.024999
vt 2.100001 1.024999
vt 2.100001 0.1500001
vt 3.900002 0.1500001
vt 2.100001 0
vt 3.900002 0
vt 3.899999 0
vt 2.099999 0
vt 3.899999 0.1500001
vt 2.099999 0.1500001
vt 1.5 1.474999
vt 0.1499996 1.474999
vt 1.5 1.624999
vt 0.1499996 1.624999
vt 1.350002 1.474999
vt 1.907349E-06 1.474999
vt 1.350002 1.624999
vt 1.907349E-06 1.624999
vt 5.850001 1.5
vt 6 1.5
vt 5.850001 0.1499999
vt 6 0.1499999
vt 0.1499996 0.1499999
vt 0 0.1499999
vt 0.1499996 1.5
vt 0 1.5
vt 1.95 0.6749997
vt 0.1499996 0.6749997
vt 1.95 0.8249993
vt 0.1499996 0.8249993
vt 5.850001 0.8749995
vt 4.050001 0.8749995
vt 5.850001 1.024999
vt 4.050001 1.024999
vt 4.050001 0.1499999
vt 4.050001 2.384186E-07
vt 5.850001 2.384186E-07
vt 1.95 2.384186E-07
vt 0.1499996 2.384186E-07
vt 1.95 0.1499999
vt 1.5 2.15
vt 0.1499996 2.15
vt 1.5 2.3
vt 0.1499996 2.3
vt 1.350002 2.15
vt 1.907349E-06 2.15
vt 1.350002 2.3
vt 1.907349E-06 2.3
vt 0.0199995 1.500002
vt 0.2699995 1.500002
vt 0.0199995 0.1060672
vt 0.2699995 0.1060672
vt 1.500002 0.1999998
vt 1.500002 0
vt 0.1060667 0.7060657
vt 0 0.5999999
vt 5.730001 1.500002
vt 5.980001 1.500002
vt 5.730001 2.384186E-07
vt 5.980001 2.384186E-07
vt 0 0.1999998
vt 1.500002 0.5999999
vt 1.393935 0.7060657
vt 5.730001 0.1060667
vt 5.980001 0.1060667
vt 1.5 0.2000003
vt 0.0199995 0
vt 0.2699995 0
vt 1.907349E-06 0.2000003
vt 1.5 0.7999997
vt 0 0.7999997
vt 6 0
vt 6 0.1999998
vt 0.1499996 0.7999997
vt 5.850001 0.1999998
vt 6 1.7
vt 5.850001 1.7
vt 1.350002 0.7999997
vt 0.1499996 0.1999998
vt 0.1499996 1.7
vt 0 1.7
vt 2.099999 1.5
vt 1.95 1.5
vt 4.050001 0.1999998
vt 3.900001 0.1999998
vt 4.050001 1.7
vt 3.900001 1.7
vt 3.900001 0.1499999
vt 1.95 1.35
vt 0.1499996 1.35
vt 5.850001 1.55
vt 4.050001 1.55
vt 4.049999 0
vt 4.049999 1.5
vt 3.899999 1.5
vt 2.100001 0.1999998
vt 1.950002 0.1999998
vt 2.100001 1.7
vt 1.950002 1.7
vt 1.950002 0.1499999
vt 2.100001 0.1499999
vt 1.950002 2.384186E-07
vt 3.899999 1.35
vt 2.099999 1.35
vt 3.900001 1.55
vt 2.100001 1.55
vt 3.899999 0.1499999
vt 2.099999 0.1499999
vt 5.849998 1.35
vt 4.049999 1.35
vt 5.849998 1.5
vt 1.950002 1.55
vt 0.1500025 1.55
vt 0.1500025 1.7
vt 0.1500025 0.1499999
vt 0.1500025 2.384186E-07
vt 5.849998 2.384186E-07
vt 5.849998 0.1499999
vt 4.049999 0.1499999
vt 5.849998 0.6750002
vt 4.049999 0.6750002
vt 5.849998 0.8249998
vt 4.049999 0.8249998
vt 1.950002 0.875
vt 0.1500025 0.875
vt 1.950002 1.025
vt 0.1500025 1.025
vt 10 0
vt 10 1
vt 0 1
vt 8.000002 -1.312532
vt 8.000002 6.187469
vt 8.848759 2.437468
vt 5 -1.3125
vt 5 0.375
vt 8 -1.3125
vt 8 0.375
vt 1 0
vt 1 4
vt 0 4
vt 5 4.5
vt 5 6.1875
vt 8 4.5
vt 8 6.1875
vt 5.75 0.375
vt 5.75 4.5
vt 0 0.3374472
vt 5.5 0.3374472
vt 5.5 0
vt 5.5 0.9996338

vn 0 0 -1
vn 0.3779655 0.6546522 0.6546546
vn -0.3779647 0.6546525 0.6546549
vn -0.7326506 -0.005774784 0.6796953
vn -0.7559459 0 0.6546341
vn -0.7093552 -0.01154957 0.7047565
vn 0.7338885 -0.006177715 0.6782081
vn 0.7088397 0 0.7053697
vn 0.7589373 -0.01235543 0.6510465
vn 4.465107E-06 6.513555E-06 1
vn 0 -1 0
vn -1 0 -1.192093E-07
vn 1 0 0
vn 0.2232182 -0.9747685 2.392536E-08
vn -0.9904253 -0.1380492 -1.061575E-07
vn -0.2226775 -0.9748921 -1.19337E-08
vn 0.990428 -0.1380305 0
vn -0.2226773 0.9748922 -2.359573E-08
vn 0.2226774 0.9748922 1.179787E-08
vn 0.2226773 -0.9748922 2.359573E-08
vn -0.8660256 0.4999997 1.496105E-08
vn 0 1 2.233429E-07
vn 0.8660258 0.4999993 3.05092E-07
vn -0.3779659 0.6546574 -0.6546491
vn 0.3779662 0.6546579 -0.6546484
vn 0.7320836 -0.005909918 -0.6802629
vn 0.7559459 0 -0.6546341
vn 0.7082211 -0.01181984 -0.7058918
vn -0.7334468 -0.006333746 -0.6786423
vn -0.7078827 0 -0.70633
vn -0.759011 -0.01266749 -0.6509546
vn -0.750005 0.499998 -0.4330064
vn 0.008331678 0.01057659 -0.9999094
vn 3.131471E-06 0.7559333 -0.6546487
vn -0.8285552 -0.2557967 -0.4980606
vn -0.566943 0.7559302 0.3273301
vn -0.8242659 -0.2560666 0.5049906
vn 3.120181E-06 0.7559271 0.6546558
vn -0.01035898 0.0001112719 0.9999464
vn 0.5669454 0.7559294 0.327328
vn 0.8123829 0.3068051 0.4958878
vn 0.5327339 0.6901702 0.4897548
vn -0.01144813 -0.004342682 0.999925
vn 0.7500076 0.499997 -0.433003
vn 0.8078994 0.2925188 -0.5115969
vn -0.5617651 -0.6600174 -0.4987956
vn 0.005463634 0.01059463 -0.999929
vn 0.5215917 0.6888269 -0.5034478
vn -0.5592494 -0.6558709 0.507024
vn -0.3459882 -0.7997264 -0.4906422
vn -4.750257E-05 0.0005556833 -0.9999999
vn 0.343657 0.8003904 -0.4911975
vn -0.3458371 -0.7994844 0.4911429
vn -0.0004070055 -0.0004763519 0.9999998
vn 0.34381 0.8006413 0.4906814
vn -0.4925976 -0.7094269 -0.5040447
vn 0.00108171 -0.009608834 -0.9999533
vn 0.5461122 0.6687855 -0.5044674
vn -0.5062501 -0.7083088 0.4919446
vn 0.00792899 0.001665736 0.9999672
vn 0.5462599 0.6657708 0.5082807
vn -0.7999547 -0.3065029 -0.5158764
vn -0.004835521 -0.00783045 -0.9999577
vn 0.8268473 0.253692 -0.50196
vn -0.8025131 -0.3247363 0.5005189
vn 0.00832061 -0.006638068 0.9999433
vn 0.8242264 0.2555154 0.5053342
vn -0.8662314 -0.0021768 -0.4996382
vn 0.8662297 0.002176823 -0.4996413
vn -0.866232 -0.002176828 0.4996371
vn 0.8662302 0.002176797 0.4996402
vn -0.9659277 -0.2588122 -1.768532E-07
vn -0.866025 -0.5000007 -2.224476E-07
vn 0.8660191 0.500011 2.224493E-07
vn 0.9659221 0.2588331 1.768575E-07
vn -0.4999946 -0.8660285 -2.660813E-07
vn 0.5000144 0.8660171 1.032402E-07
vn 0.4999946 -0.8660285 -1.468733E-07
vn -0.5000033 0.8660235 -1.147544E-12
vn 0.866025 -0.5000007 -1.597122E-08
vn -0.8660218 0.5000063 -2.766107E-08
vn 0.9659277 -0.2588122 5.34419E-08
vn -0.9659221 0.2588331 -5.343627E-08
vn 0.8340397 -0.5517044 0
vn -0.7780436 0.6282103 0
vn 0.5752203 -0.8179985 0
vn -0.6397371 0.7685938 0
vn -0.3072085 -0.9516422 0
vn 0.3520186 0.935993 0
vn -0.8946671 -0.4467333 0
vn 0.8412818 0.540597 0
vn -0.8996881 -0.4365333 0
vn -0.00832897 0.01057737 0.9999094
vn 0.8285453 -0.2557947 0.498078
vn 0.8242718 -0.2560698 -0.5049795
vn 0.01035872 0.0001058727 -0.9999464
vn -0.5669551 0.7559258 -0.3273193
vn -0.8123915 0.3068116 -0.4958697
vn -0.5327351 0.6901705 -0.489753
vn 0.01145308 -0.004355405 -0.9999249
vn -0.7499999 0.5000001 0.4330128
vn -0.8078915 0.2925203 0.5116084
vn 0.5617645 -0.6600166 0.4987974
vn -0.005451774 0.01059211 0.9999291
vn -0.5215873 0.6888273 0.5034517
vn 0.5592502 -0.6558728 -0.5070208
vn 0.3459871 -0.7997268 0.4906424
vn 4.705388E-05 0.0005554997 0.9999999
vn -0.3436579 0.8003903 0.4911971
vn 0.3458363 -0.7994844 -0.4911436
vn 0.0004071189 -0.0004760907 -0.9999998
vn -0.3438104 0.8006405 -0.4906823
vn 0.4926029 -0.7094226 0.5040454
vn -0.001083727 -0.009606228 0.9999533
vn -0.5461119 0.6687871 0.5044655
vn 0.506254 -0.7083046 -0.4919465
vn -0.007929082 0.001667467 -0.9999672
vn -0.5462596 0.6657732 -0.508278
vn 0.7999566 -0.3064973 0.5158769
vn 0.004836025 -0.007828281 0.9999577
vn -0.8268456 0.2536946 0.5019616
vn 0.8025158 -0.3247281 -0.5005198
vn -0.008320109 -0.006637373 -0.9999433
vn -0.8242251 0.2555175 -0.5053354
vn 0.8662321 -0.002177041 0.4996371
vn -0.8662297 0.002176502 0.4996413
vn 0.8662345 -0.002177154 -0.499633
vn -0.8662297 0.002176502 -0.4996413
vn 0.5000045 -0.8660228 -2.064759E-07
vn -0.4999879 0.8660324 5.960334E-08
vn 0.8660315 -0.4999894 -1.192068E-07
vn -0.8340356 -0.5517107 0
vn 0.7780618 0.6281877 0
vn -0.5752223 -0.8179972 0
vn 0.6397452 0.7685871 0
vn 0.3071869 -0.9516492 0
vn -0.3520283 0.9359894 0
vn 0.870771 -0.4916889 0
vn -0.8271812 0.5619354 0
vn -0.05332106 -0.9970336 -0.05550623
vn 0.06749752 -0.9961801 0.0554012
vn 0.06750694 -0.996181 0.0553747
vn 0.8662552 5.859312E-05 0.4996018
vn 0.8662546 3.236389E-05 -0.4996029
vn 0.8674386 -0.1010202 0.4871808
vn 0.8690723 0.1143543 -0.4812862
vn -0.008201092 -0.1959103 0.9805875
vn -0.8662504 -5.859309E-05 -0.49961
vn 0.01325836 0.2347395 -0.9719679
vn -0.8671135 0.1097503 -0.4858694
vn -0.8662497 -3.236342E-05 0.4996112
vn -0.8685738 -0.09506257 0.4863566
vn 0.8716081 -0.3469277 0.3463242
vn 0.872183 0.3267586 -0.3640405
vn -0.01515436 -0.6547103 0.755728
vn 0.02926617 0.7158743 -0.6976156
vn -0.8730384 0.3597158 -0.3292544
vn -0.8729789 -0.2992766 0.385151
vn 0.8491498 -0.5063586 0.1501524
vn 0.8783989 0.4331088 -0.2020697
vn -0.03790237 -0.9249547 0.3781828
vn 0.04376677 0.9443853 -0.3259156
vn -0.8473692 0.5131626 -0.1364905
vn -0.8790201 -0.4213562 0.2231204
vn 0.8488874 -0.5047333 0.1569541
vn 0.8800143 0.4171306 -0.2271055
vn -0.03360025 -0.9231789 0.3828993
vn 0.03383022 0.9220111 -0.3856826
vn -0.84902 0.5041761 -0.1580235
vn -0.8800109 -0.417367 0.2266841
vn 0.8846658 -0.2816809 0.3715135
vn 0.8708184 0.2304128 -0.4342641
vn -0.0117446 -0.4902506 0.8715024
vn 0.002817727 0.5771865 -0.8166075
vn -0.8771287 0.3211277 -0.3571027
vn -0.8712898 -0.2073025 0.4448369
vn 0.8813464 -0.09440845 0.4629422
vn 0.8411983 0.06694463 -0.5365668
vn 0.008299165 -0.02170161 0.9997301
vn -0.0154951 0.2217309 -0.9749848
vn -0.8774651 0.1451604 -0.4571471
vn -0.8339755 0.01743437 0.5515259
vn -0.8642042 -0.05611813 0.5000018
vn -0.8576925 -0.1572233 0.4895349
vn 0.009019541 -0.1953238 0.9806973
vn -0.8642042 -0.05611813 -0.5000018
vn -0.8746591 0.06054647 -0.4809424
vn -0.007808952 0.2417635 -0.9703038
vn 0.8642023 0.05610891 -0.5000062
vn 0.85689 0.1699891 -0.4866654
vn 0.8642011 0.05612702 0.5000062
vn 0.8727338 -0.04136353 0.4864409
vn -0.844004 -0.3464313 0.4094418
vn 0.03077462 -0.5712363 0.8202085
vn -0.8873203 0.2563407 -0.3833434
vn -0.02929994 0.6454539 -0.763237
vn 0.8396439 0.3757159 -0.3922189
vn 0.8862738 -0.2286426 0.4027919
vn -0.8291141 -0.4962094 0.2575772
vn 0.04901617 -0.8815834 0.4694764
vn -0.8954388 0.3988784 -0.1977002
vn -0.04795302 0.9022241 -0.4285932
vn 0.8260065 0.5084922 -0.2432056
vn 0.8967195 -0.3908506 0.2076774
vn -0.8208064 -0.5403486 0.1852031
vn 0.06918358 -0.9611568 0.2671915
vn -0.8988547 0.4260241 -0.1027799
vn -0.06931371 0.952764 -0.2956965
vn 0.8208432 0.5376062 -0.1928627
vn 0.8978472 -0.4308823 0.0906138
vn -0.837479 -0.3734627 0.3989418
vn 0.06169539 -0.6480094 0.7591294
vn -0.9154428 0.2715617 -0.2970164
vn -0.0782701 0.6847982 -0.7245172
vn 0.8330167 0.3833228 -0.398932
vn 0.9200915 -0.2460119 0.3048111
vn -0.8134551 -0.1551288 0.5605584
vn 0.02743566 -0.1709194 0.984903
vn -0.8917245 0.1013071 -0.4410943
vn -0.05925974 0.3212893 -0.9451251
vn 0.8097113 0.2208729 -0.5436752
vn 0.8923613 -0.06159392 0.4470989
vn 0 0.9399709 0.3412548
vn 0 -0.9284769 -0.3713902

usemtl Black
f 3/3/1 4/4/1 2/2/1 1/1/1

usemtl Black

usemtl JPBM11RoofingTiles015B_1K
f 8/8/2 5/5/2 7/7/2 6/6/2
f 10/12/3 8/9/3 6/11/3 9/10/3
f 12/16/6 10/13/4 9/15/5 11/14/4
f 5/20/9 13/17/7 14/19/8 7/18/7
f 5/24/10 16/23/10 15/22/10 13/21/10
f 16/23/10 10/27/10 12/25/10 15/22/10
f 10/27/10 16/23/10 5/24/10 8/26/10
f 40/61/18 37/58/18 39/60/18 38/59/18
f 38/65/19 39/62/19 42/64/19 41/63/19
f 46/65/20 43/66/20 45/30/20 44/62/20
f 40/70/12 45/67/12 43/69/12 37/68/12
f 42/74/13 47/71/13 48/73/13 41/72/13
f 50/76/16 49/75/16 48/64/16 47/63/16
f 32/78/16 30/77/16 44/62/16 49/75/16
f 33/80/16 35/79/16 50/76/16 46/65/16
f 44/84/1 38/81/1 41/83/1 48/82/1
f 40/88/1 38/85/1 44/87/1 45/86/1
f 47/92/10 42/89/10 39/91/10 46/90/10
f 37/96/10 43/93/10 46/95/10 39/94/10
f 52/100/21 9/97/21 6/99/22 51/98/22
f 53/104/12 11/101/12 9/103/21 52/102/21
f 55/104/23 7/101/23 14/103/13 54/102/13
f 51/108/22 6/105/22 7/107/23 55/106/23
f 57/112/24 56/109/24 52/111/24 51/110/24
f 58/116/25 57/113/25 51/115/25 55/114/25
f 59/120/28 58/117/26 55/119/27 54/118/26
f 56/124/31 60/121/29 53/123/30 52/122/29
f 61/127/1 62/129/1 60/126/1 56/125/1
f 58/130/1 61/127/1 56/125/1 57/128/1
f 61/127/1 58/130/1 59/131/1 62/129/1

usemtl JPBM11Plastic013BGray
f 306/64/22 187/404/34 189/402/97
f 306/64/22 183/403/38 181/405/40
f 314/64/22 69/404/38 71/402/40
f 314/64/22 67/406/36 69/404/38
f 304/399/140 303/398/140 302/397/140
f 304/399/140 302/397/140 305/400/140
f 304/399/140 300/395/140 299/394/140
f 304/399/140 299/394/140 303/398/140
f 304/399/140 301/396/140 300/395/140
f 304/399/140 305/400/140 301/396/140
f 310/399/141 309/394/141 308/398/141
f 310/399/141 308/398/141 311/397/141
f 310/399/141 311/397/141 313/400/141
f 310/399/141 313/400/141 312/396/142
f 310/399/141 307/395/141 309/394/141
f 310/399/141 312/396/142 307/395/141
f 63/132/32 65/134/34 64/133/33
f 64/133/33 66/135/35 63/132/32
f 67/132/36 63/137/32 66/136/35
f 66/136/35 68/135/37 67/132/36
f 69/132/38 67/137/36 68/136/37
f 68/136/37 70/135/39 69/132/38
f 71/132/40 69/137/38 70/136/39
f 70/136/39 72/135/41 71/132/40
f 73/138/42 72/135/41 70/136/39
f 70/136/39 74/139/43 73/138/42
f 75/132/44 71/137/40 72/136/41
f 72/136/41 76/135/45 75/132/44
f 65/132/34 75/137/44 76/136/45
f 76/136/45 64/135/33 65/132/34
f 77/140/46 66/142/35 64/141/33
f 64/141/33 78/143/47 77/140/46
f 78/144/47 64/146/33 76/145/45
f 76/145/45 79/147/48 78/144/47
f 80/148/49 68/150/37 66/149/35
f 66/149/35 77/151/46 80/148/49
f 74/152/43 70/154/39 68/153/37
f 68/153/37 80/155/49 74/152/43
f 79/156/48 76/158/45 72/157/41
f 72/157/41 73/159/42 79/156/48
f 81/160/50 77/162/46 78/161/47
f 78/161/47 82/163/51 81/160/50
f 82/164/51 78/166/47 79/165/48
f 79/165/48 83/167/52 82/164/51
f 84/168/53 80/170/49 77/169/46
f 77/169/46 81/171/50 84/168/53
f 85/172/54 74/174/43 80/173/49
f 80/173/49 84/175/53 85/172/54
f 86/176/55 73/178/42 74/177/43
f 74/177/43 85/179/54 86/176/55
f 83/180/52 79/182/48 73/181/42
f 73/181/42 86/183/55 83/180/52
f 87/184/56 81/186/50 82/185/51
f 82/185/51 88/187/57 87/184/56
f 88/188/57 82/190/51 83/189/52
f 83/189/52 89/191/58 88/188/57
f 90/192/59 84/194/53 81/193/50
f 81/193/50 87/195/56 90/192/59
f 91/196/60 85/198/54 84/197/53
f 84/197/53 90/199/59 91/196/60
f 92/200/61 86/202/55 85/201/54
f 85/201/54 91/203/60 92/200/61
f 89/204/58 83/206/52 86/205/55
f 86/205/55 92/207/61 89/204/58
f 93/208/62 87/210/56 88/209/57
f 88/209/57 94/211/63 93/208/62
f 94/212/63 88/214/57 89/213/58
f 89/213/58 95/215/64 94/212/63
f 96/216/65 90/218/59 87/217/56
f 87/217/56 93/219/62 96/216/65
f 97/220/66 91/222/60 90/221/59
f 90/221/59 96/223/65 97/220/66
f 98/224/67 92/226/61 91/225/60
f 91/225/60 97/227/66 98/224/67
f 95/228/64 89/230/58 92/229/61
f 92/229/61 98/231/67 95/228/64
f 99/232/68 93/234/62 94/233/63
f 94/233/63 100/235/1 99/232/68
f 100/236/1 94/238/63 95/237/64
f 95/237/64 101/239/69 100/236/1
f 102/240/70 96/242/65 93/241/62
f 93/241/62 99/243/68 102/240/70
f 103/244/10 97/246/66 96/245/65
f 96/245/65 102/247/70 103/244/10
f 104/248/71 98/250/67 97/249/66
f 97/249/66 103/251/10 104/248/71
f 101/252/69 95/254/64 98/253/67
f 98/253/67 104/255/71 101/252/69
f 105/256/72 107/258/72 106/257/73
f 106/257/73 108/259/73 105/256/72
f 109/260/74 111/262/74 110/261/75
f 110/261/75 112/263/75 109/260/74
f 108/256/73 106/258/73 113/257/76
f 113/257/76 114/259/76 108/256/73
f 115/260/77 116/262/77 111/261/74
f 111/261/74 109/263/74 115/260/77
f 114/256/76 113/258/76 117/257/11
f 117/257/11 118/259/11 114/256/76
f 119/260/22 120/262/22 116/261/77
f 116/261/77 115/263/77 119/260/22
f 118/256/11 117/258/11 121/257/78
f 121/257/78 122/259/78 118/256/11
f 123/260/79 124/262/79 120/261/22
f 120/261/22 119/263/22 123/260/79
f 122/256/78 121/258/78 125/257/80
f 125/257/80 126/259/80 122/256/78
f 127/260/81 128/262/81 124/261/79
f 124/261/79 123/263/79 127/260/81
f 126/256/80 125/258/80 129/257/82
f 129/257/82 130/259/82 126/256/80
f 131/260/83 132/262/83 128/261/81
f 128/261/81 127/263/81 131/260/83
f 107/264/1 110/266/1 111/265/1
f 111/265/1 106/267/1 107/264/1
f 106/267/1 111/265/1 116/268/1
f 116/268/1 113/269/1 106/267/1
f 113/269/1 116/268/1 120/270/1
f 120/270/1 117/271/1 113/269/1
f 117/271/1 120/270/1 124/272/1
f 124/272/1 121/273/1 117/271/1
f 121/273/1 124/272/1 128/274/1
f 128/274/1 125/275/1 121/273/1
f 125/275/1 128/274/1 132/276/1
f 132/276/1 129/277/1 125/275/1
f 112/266/10 105/279/10 108/278/10
f 108/278/10 109/280/10 112/266/10
f 109/280/10 108/278/10 114/281/10
f 114/281/10 115/282/10 109/280/10
f 115/282/10 114/281/10 118/283/10
f 118/283/10 119/284/10 115/282/10
f 119/284/10 118/283/10 122/285/10
f 122/285/10 123/286/10 119/284/10
f 123/286/10 122/285/10 126/287/10
f 126/287/10 127/288/10 123/286/10
f 127/288/10 126/287/10 130/289/10
f 130/289/10 131/276/10 127/288/10
f 112/290/22 110/292/22 107/291/22
f 107/291/22 105/293/22 112/290/22
f 130/294/22 129/296/22 132/295/22
f 132/295/22 131/297/22 130/294/22
f 133/298/12 135/300/12 134/299/12
f 134/299/12 136/301/12 133/298/12
f 135/299/1 133/301/1 137/298/1
f 137/298/1 138/300/1 135/299/1
f 139/302/1 135/299/1 138/300/1
f 138/300/1 140/303/1 139/302/1
f 141/304/1 139/302/1 140/303/1
f 140/303/1 142/305/1 141/304/1
f 143/306/1 141/304/1 142/305/1
f 142/305/1 144/307/1 143/306/1
f 145/308/1 143/306/1 144/307/1
f 144/307/1 146/309/1 145/308/1
f 147/298/13 148/300/13 138/299/13
f 138/299/13 137/301/13 147/298/13
f 148/299/10 147/301/10 136/298/10
f 136/298/10 134/300/10 148/299/10
f 149/310/10 148/299/10 134/300/10
f 134/300/10 150/311/10 149/310/10
f 151/312/10 149/310/10 150/311/10
f 150/311/10 152/313/10 151/312/10
f 153/314/10 151/312/10 152/313/10
f 152/313/10 154/315/10 153/314/10
f 155/316/10 153/314/10 154/315/10
f 154/315/10 156/317/10 155/316/10
f 140/318/84 138/320/84 148/319/84
f 148/319/84 149/321/84 140/318/84
f 150/322/85 134/324/85 135/323/85
f 135/323/85 139/325/85 150/322/85
f 142/326/86 140/328/86 149/327/86
f 149/327/86 151/329/86 142/326/86
f 152/330/87 150/332/87 139/331/87
f 139/331/87 141/333/87 152/330/87
f 144/334/88 142/336/88 151/335/88
f 151/335/88 153/337/88 144/334/88
f 154/338/89 152/340/89 141/339/89
f 141/339/89 143/341/89 154/338/89
f 146/342/90 144/344/90 153/343/90
f 153/343/90 155/345/90 146/342/90
f 156/346/91 154/348/91 143/347/91
f 143/347/91 145/349/91 156/346/91
f 157/350/12 159/352/12 158/351/12
f 158/351/12 160/353/12 157/350/12
f 159/299/1 157/301/1 161/298/1
f 161/298/1 162/300/1 159/299/1
f 163/302/1 159/299/1 162/300/1
f 162/300/1 164/303/1 163/302/1
f 165/304/1 163/302/1 164/303/1
f 164/303/1 166/305/1 165/304/1
f 167/306/1 165/304/1 166/305/1
f 166/305/1 168/307/1 167/306/1
f 169/308/1 167/306/1 168/307/1
f 168/307/1 170/354/1 169/308/1
f 171/350/13 172/352/13 162/351/13
f 162/351/13 161/353/13 171/350/13
f 172/299/10 171/301/10 160/298/10
f 160/298/10 158/300/10 172/299/10
f 173/310/10 172/299/10 158/300/10
f 158/300/10 174/311/10 173/310/10
f 175/312/10 173/310/10 174/311/10
f 174/311/10 176/313/10 175/312/10
f 177/314/10 175/312/10 176/313/10
f 176/313/10 178/315/10 177/314/10
f 179/355/10 177/314/10 178/315/10
f 178/315/10 180/317/10 179/355/10
f 164/318/84 162/357/84 172/356/84
f 172/356/84 173/321/84 164/318/84
f 174/322/85 158/359/85 159/358/85
f 159/358/85 163/325/85 174/322/85
f 166/326/86 164/328/86 173/327/86
f 173/327/86 175/329/86 166/326/86
f 176/330/87 174/332/87 163/331/87
f 163/331/87 165/333/87 176/330/87
f 168/334/88 166/336/88 175/335/88
f 175/335/88 177/337/88 168/334/88
f 178/338/89 176/340/89 165/339/89
f 165/339/89 167/341/89 178/338/89
f 170/346/92 168/361/92 177/360/92
f 177/360/92 179/349/92 170/346/92
f 180/346/91 178/348/91 167/347/91
f 167/347/91 169/349/91 180/346/91
f 181/362/40 183/134/38 182/133/93
f 182/133/93 184/363/94 181/362/40
f 185/132/44 181/137/40 184/136/94
f 184/136/94 186/135/95 185/132/44
f 187/132/34 185/137/44 186/136/95
f 186/136/95 188/135/96 187/132/34
f 189/362/97 187/134/34 188/133/96
f 188/133/96 190/363/98 189/362/97
f 191/138/99 190/363/98 188/133/96
f 188/133/96 192/139/100 191/138/99
f 193/132/101 189/137/97 190/136/98
f 190/136/98 194/135/102 193/132/101
f 183/132/38 193/134/101 194/133/102
f 194/133/102 182/135/93 183/132/38
f 195/140/103 184/142/94 182/141/93
f 182/141/93 196/143/104 195/140/103
f 196/144/104 182/146/93 194/364/102
f 194/364/102 197/147/105 196/144/104
f 198/148/106 186/150/95 184/149/94
f 184/149/94 195/151/103 198/148/106
f 192/152/100 188/365/96 186/153/95
f 186/153/95 198/155/106 192/152/100
f 197/156/105 194/158/102 190/157/98
f 190/157/98 191/159/99 197/156/105
f 199/160/107 195/162/103 196/161/104
f 196/161/104 200/163/108 199/160/107
f 200/164/108 196/166/104 197/165/105
f 197/165/105 201/167/109 200/164/108
f 202/168/110 198/170/106 195/169/103
f 195/169/103 199/171/107 202/168/110
f 203/172/111 192/174/100 198/173/106
f 198/173/106 202/175/110 203/172/111
f 204/176/112 191/178/99 192/177/100
f 192/177/100 203/179/111 204/176/112
f 201/180/109 197/182/105 191/181/99
f 191/181/99 204/183/112 201/180/109
f 205/184/113 199/186/107 200/185/108
f 200/185/108 206/187/114 205/184/113
f 206/188/114 200/190/108 201/189/109
f 201/189/109 207/191/115 206/188/114
f 208/192/116 202/194/110 199/193/107
f 199/193/107 205/195/113 208/192/116
f 209/196/117 203/198/111 202/197/110
f 202/197/110 208/199/116 209/196/117
f 210/200/118 204/202/112 203/201/111
f 203/201/111 209/203/117 210/200/118
f 207/204/115 201/206/109 204/205/112
f 204/205/112 210/207/118 207/204/115
f 211/208/119 205/210/113 206/209/114
f 206/209/114 212/211/120 211/208/119
f 212/212/120 206/214/114 207/213/115
f 207/213/115 213/215/121 212/212/120
f 214/216/122 208/218/116 205/217/113
f 205/217/113 211/219/119 214/216/122
f 215/220/123 209/222/117 208/221/116
f 208/221/116 214/223/122 215/220/123
f 216/224/124 210/226/118 209/225/117
f 209/225/117 215/227/123 216/224/124
f 213/228/121 207/230/115 210/229/118
f 210/229/118 216/231/124 213/228/121
f 217/232/125 211/234/119 212/233/120
f 212/233/120 218/235/10 217/232/125
f 218/236/10 212/238/120 213/237/121
f 213/237/121 219/239/126 218/236/10
f 220/240/127 214/242/122 211/241/119
f 211/241/119 217/243/125 220/240/127
f 221/244/1 215/246/123 214/245/122
f 214/245/122 220/247/127 221/244/1
f 222/248/128 216/250/124 215/249/123
f 215/249/123 221/251/1 222/248/128
f 219/252/126 213/254/121 216/253/124
f 216/253/124 222/255/128 219/252/126
f 223/256/72 225/258/72 224/257/73
f 224/257/73 226/259/73 223/256/72
f 227/260/74 229/262/74 228/261/75
f 228/261/75 230/263/75 227/260/74
f 226/256/73 224/258/73 231/257/76
f 231/257/76 232/259/76 226/256/73
f 233/260/77 234/262/77 229/261/74
f 229/261/74 227/263/74 233/260/77
f 232/256/76 231/258/76 235/257/11
f 235/257/11 236/259/11 232/256/76
f 237/260/22 238/262/22 234/261/77
f 234/261/77 233/263/77 237/260/22
f 236/256/11 235/258/11 239/257/129
f 239/257/129 240/259/129 236/256/11
f 241/260/130 242/262/130 238/261/22
f 238/261/22 237/263/22 241/260/130
f 240/256/129 239/258/129 243/257/131
f 243/257/131 244/259/131 240/256/129
f 245/260/81 246/262/81 242/261/130
f 242/261/130 241/263/130 245/260/81
f 244/256/131 243/258/131 247/257/82
f 247/257/82 248/259/82 244/256/131
f 249/260/83 250/262/83 246/261/81
f 246/261/81 245/263/81 249/260/83
f 225/264/1 228/366/1 229/265/1
f 229/265/1 224/367/1 225/264/1
f 224/367/1 229/265/1 234/268/1
f 234/268/1 231/269/1 224/367/1
f 231/269/1 234/268/1 238/270/1
f 238/270/1 235/368/1 231/269/1
f 235/368/1 238/270/1 242/272/1
f 242/272/1 239/369/1 235/368/1
f 239/369/1 242/272/1 246/274/1
f 246/274/1 243/370/1 239/369/1
f 243/370/1 246/274/1 250/276/1
f 250/276/1 247/277/1 243/370/1
f 230/366/10 223/264/10 226/371/10
f 226/371/10 227/280/10 230/366/10
f 227/280/10 226/371/10 232/372/10
f 232/372/10 233/282/10 227/280/10
f 233/282/10 232/372/10 236/373/10
f 236/373/10 237/374/10 233/282/10
f 237/374/10 236/373/10 240/375/10
f 240/375/10 241/286/10 237/374/10
f 241/286/10 240/375/10 244/287/10
f 244/287/10 245/288/10 241/286/10
f 245/288/10 244/287/10 248/277/10
f 248/277/10 249/276/10 245/288/10
f 230/376/22 228/378/22 225/377/22
f 225/377/22 223/379/22 230/376/22
f 248/380/22 247/382/22 250/381/22
f 250/381/22 249/383/22 248/380/22
f 251/298/13 253/300/13 252/299/13
f 252/299/13 254/301/13 251/298/13
f 253/351/10 251/353/10 255/350/10
f 255/350/10 256/352/10 253/351/10
f 257/302/10 253/351/10 256/352/10
f 256/352/10 258/303/10 257/302/10
f 259/304/10 257/302/10 258/303/10
f 258/303/10 260/305/10 259/304/10
f 261/306/10 259/304/10 260/305/10
f 260/305/10 262/307/10 261/306/10
f 263/384/10 261/306/10 262/307/10
f 262/307/10 264/385/10 263/384/10
f 265/298/12 266/300/12 256/299/12
f 256/299/12 255/301/12 265/298/12
f 266/351/1 265/353/1 254/350/1
f 254/350/1 252/352/1 266/351/1
f 267/310/1 266/351/1 252/352/1
f 252/352/1 268/311/1 267/310/1
f 269/312/1 267/310/1 268/311/1
f 268/311/1 270/313/1 269/312/1
f 271/314/1 269/312/1 270/313/1
f 270/313/1 272/315/1 271/314/1
f 273/386/1 271/314/1 272/315/1
f 272/315/1 274/387/1 273/386/1
f 258/318/132 256/320/132 266/319/132
f 266/319/132 267/321/132 258/318/132
f 268/322/133 252/324/133 253/323/133
f 253/323/133 257/325/133 268/322/133
f 260/326/134 258/328/134 267/327/134
f 267/327/134 269/329/134 260/326/134
f 270/330/135 268/332/135 257/331/135
f 257/331/135 259/333/135 270/330/135
f 262/334/136 260/336/136 269/335/136
f 269/335/136 271/337/136 262/334/136
f 272/338/137 270/340/137 259/339/137
f 259/339/137 261/341/137 272/338/137
f 264/388/138 262/323/138 271/324/138
f 271/324/138 273/389/138 264/388/138
f 274/390/139 272/392/139 261/391/139
f 261/391/139 263/393/139 274/390/139
f 275/298/13 277/300/13 276/351/13
f 276/351/13 278/353/13 275/298/13
f 277/351/10 275/353/10 279/350/10
f 279/350/10 280/352/10 277/351/10
f 281/302/10 277/351/10 280/352/10
f 280/352/10 282/303/10 281/302/10
f 283/304/10 281/302/10 282/303/10
f 282/303/10 284/305/10 283/304/10
f 285/306/10 283/304/10 284/305/10
f 284/305/10 286/307/10 285/306/10
f 287/384/10 285/306/10 286/307/10
f 286/307/10 288/385/10 287/384/10
f 289/350/12 290/352/12 280/299/12
f 280/299/12 279/301/12 289/350/12
f 290/351/1 289/353/1 278/350/1
f 278/350/1 276/352/1 290/351/1
f 291/310/1 290/351/1 276/352/1
f 276/352/1 292/311/1 291/310/1
f 293/312/1 291/310/1 292/311/1
f 292/311/1 294/313/1 293/312/1
f 295/314/1 293/312/1 294/313/1
f 294/313/1 296/315/1 295/314/1
f 297/386/1 295/314/1 296/315/1
f 296/315/1 298/387/1 297/386/1
f 282/318/132 280/320/132 290/356/132
f 290/356/132 291/321/132 282/318/132
f 292/322/133 276/359/133 277/323/133
f 277/323/133 281/325/133 292/322/133
f 284/326/134 282/328/134 291/327/134
f 291/327/134 293/329/134 284/326/134
f 294/330/135 292/332/135 281/331/135
f 281/331/135 283/333/135 294/330/135
f 286/334/136 284/336/136 293/335/136
f 293/335/136 295/337/136 286/334/136
f 296/338/137 294/340/137 283/339/137
f 283/339/137 285/341/137 296/338/137
f 288/388/138 286/323/138 295/324/138
f 295/324/138 297/389/138 288/388/138
f 298/390/139 296/392/139 285/391/139
f 285/391/139 287/393/139 298/390/139
f 306/64/22 189/402/97 193/401/101
f 193/401/101 183/403/38 306/64/22
f 181/405/40 185/406/44 187/404/34
f 187/404/34 306/64/22 181/405/40
f 314/64/22 71/402/40 75/401/44
f 75/401/44 65/403/34 314/64/22
f 314/64/22 65/403/34 63/405/32
f 63/405/32 67/406/36 314/64/22
f 317/415/146 220/413/144 217/412/143
f 217/412/143 316/414/145 317/415/146
f 316/419/145 217/417/143 218/416/10
f 218/416/10 318/418/147 316/419/145
f 320/423/150 222/421/148 221/420/1
f 221/420/1 319/422/149 320/423/150
f 319/427/149 221/425/1 220/424/144
f 220/424/144 317/426/146 319/427/149
f 321/431/152 219/429/151 222/428/148
f 222/428/148 320/430/150 321/431/152
f 318/435/147 218/433/10 219/432/151
f 219/432/151 321/434/152 318/435/147
f 323/439/154 317/437/146 316/436/145
f 316/436/145 322/438/153 323/439/154
f 322/443/153 316/441/145 318/440/147
f 318/440/147 324/442/155 322/443/153
f 326/447/157 320/445/150 319/444/149
f 319/444/149 325/446/156 326/447/157
f 325/451/156 319/449/149 317/448/146
f 317/448/146 323/450/154 325/451/156
f 327/455/158 321/453/152 320/452/150
f 320/452/150 326/454/157 327/455/158
f 324/459/155 318/457/147 321/456/152
f 321/456/152 327/458/158 324/459/155
f 329/463/160 323/461/154 322/460/153
f 322/460/153 328/462/159 329/463/160
f 328/467/159 322/465/153 324/464/155
f 324/464/155 330/466/161 328/467/159
f 332/471/163 326/469/157 325/468/156
f 325/468/156 331/470/162 332/471/163
f 331/475/162 325/473/156 323/472/154
f 323/472/154 329/474/160 331/475/162
f 333/479/164 327/477/158 326/476/157
f 326/476/157 332/478/163 333/479/164
f 330/483/161 324/481/155 327/480/158
f 327/480/158 333/482/164 330/483/161
f 335/487/166 329/485/160 328/484/159
f 328/484/159 334/486/165 335/487/166
f 334/491/165 328/489/159 330/488/161
f 330/488/161 336/490/167 334/491/165
f 338/495/169 332/493/163 331/492/162
f 331/492/162 337/494/168 338/495/169
f 337/499/168 331/497/162 329/496/160
f 329/496/160 335/498/166 337/499/168
f 339/503/170 333/501/164 332/500/163
f 332/500/163 338/502/169 339/503/170
f 336/507/167 330/505/161 333/504/164
f 333/504/164 339/506/170 336/507/167
f 341/511/172 335/509/166 334/508/165
f 334/508/165 340/510/171 341/511/172
f 340/515/171 334/513/165 336/512/167
f 336/512/167 342/514/173 340/515/171
f 344/519/175 338/517/169 337/516/168
f 337/516/168 343/518/174 344/519/175
f 343/523/174 337/521/168 335/520/166
f 335/520/166 341/522/172 343/523/174
f 345/527/176 339/525/170 338/524/169
f 338/524/169 344/526/175 345/527/176
f 342/531/173 336/529/167 339/528/170
f 339/528/170 345/530/176 342/531/173
f 303/535/178 341/533/172 340/532/171
f 340/532/171 302/534/177 303/535/178
f 302/539/177 340/537/171 342/536/173
f 342/536/173 305/538/179 302/539/177
f 300/543/181 344/541/175 343/540/174
f 343/540/174 299/542/180 300/543/181
f 299/547/180 343/545/174 341/544/172
f 341/544/172 303/546/178 299/547/180
f 301/551/182 345/549/176 344/548/175
f 344/548/175 300/550/181 301/551/182
f 305/555/179 342/553/173 345/552/176
f 345/552/176 301/554/182 305/555/179
f 347/559/185 103/557/10 102/556/183
f 102/556/183 346/558/184 347/559/185
f 346/563/184 102/561/183 99/560/186
f 99/560/186 348/562/187 346/563/184
f 348/567/187 99/565/186 100/564/1
f 100/564/1 349/566/188 348/567/187
f 349/571/188 100/569/1 101/568/189
f 101/568/189 350/570/190 349/571/188
f 351/575/192 104/573/191 103/572/10
f 103/572/10 347/574/185 351/575/192
f 350/579/190 101/577/189 104/576/191
f 104/576/191 351/578/192 350/579/190
f 353/583/194 347/581/185 346/580/184
f 346/580/184 352/582/193 353/583/194
f 352/585/193 346/563/184 348/562/187
f 348/562/187 354/584/195 352/585/193
f 354/589/195 348/587/187 349/586/188
f 349/586/188 355/588/196 354/589/195
f 355/593/196 349/591/188 350/590/190
f 350/590/190 356/592/197 355/593/196
f 357/597/198 351/595/192 347/594/185
f 347/594/185 353/596/194 357/597/198
f 356/599/197 350/579/190 351/578/192
f 351/578/192 357/598/198 356/599/197
f 359/603/200 353/601/194 352/600/193
f 352/600/193 358/602/199 359/603/200
f 358/607/199 352/605/193 354/604/195
f 354/604/195 360/606/201 358/607/199
f 360/611/201 354/609/195 355/608/196
f 355/608/196 361/610/202 360/611/201
f 361/615/202 355/613/196 356/612/197
f 356/612/197 362/614/203 361/615/202
f 363/619/204 357/617/198 353/616/194
f 353/616/194 359/618/200 363/619/204
f 362/623/203 356/621/197 357/620/198
f 357/620/198 363/622/204 362/623/203
f 365/627/206 359/625/200 358/624/199
f 358/624/199 364/626/205 365/627/206
f 364/631/205 358/629/199 360/628/201
f 360/628/201 366/630/207 364/631/205
f 366/635/207 360/633/201 361/632/202
f 361/632/202 367/634/208 366/635/207
f 367/639/208 361/637/202 362/636/203
f 362/636/203 368/638/209 367/639/208
f 369/643/210 363/641/204 359/640/200
f 359/640/200 365/642/206 369/643/210
f 368/647/209 362/645/203 363/644/204
f 363/644/204 369/646/210 368/647/209
f 371/651/212 365/649/206 364/648/205
f 364/648/205 370/650/211 371/651/212
f 370/655/211 364/653/205 366/652/207
f 366/652/207 372/654/213 370/655/211
f 372/659/213 366/657/207 367/656/208
f 367/656/208 373/658/214 372/659/213
f 373/663/214 367/661/208 368/660/209
f 368/660/209 374/662/215 373/663/214
f 375/667/216 369/665/210 365/664/206
f 365/664/206 371/666/212 375/667/216
f 374/671/215 368/669/209 369/668/210
f 369/668/210 375/670/216 374/671/215
f 309/675/218 371/673/212 370/672/211
f 370/672/211 308/674/217 309/675/218
f 308/677/217 370/655/211 372/654/213
f 372/654/213 311/676/219 308/677/217
f 311/681/219 372/679/213 373/678/214
f 373/678/214 313/680/220 311/681/219
f 313/685/220 373/683/214 374/682/215
f 374/682/215 312/684/221 313/685/220
f 307/689/222 375/687/216 371/686/212
f 371/686/212 309/688/218 307/689/222
f 312/691/221 374/671/215 375/670/216
f 375/670/216 307/690/222 312/691/221

usemtl JPBM8concrete03Mat
f 20/31/11 17/28/11 19/30/11 18/29/11
f 505/64/22 504/846/22 507/845/22 506/844/22

usemtl Planks037A_1K
f 20/407/10 24/411/10 315/410/10
f 20/407/10 315/410/10 17/408/10
f 21/409/10 17/408/10 315/410/10
f 22/828/1 495/830/1 23/829/1
f 19/32/12 17/34/12 21/33/12
f 21/33/12 22/35/12 19/32/12
f 20/36/13 18/38/13 23/37/13
f 23/37/13 24/39/13 20/36/13
f 494/827/11 22/64/11 23/825/11
f 23/825/11 493/826/11 494/827/11
f 497/834/1 496/832/1 19/831/1
f 19/831/1 22/833/1 497/834/1
f 499/837/13 498/64/13 496/835/13
f 496/835/13 497/836/13 499/837/13
f 503/837/12 501/64/12 500/835/12
f 500/835/12 502/836/12 503/837/12
f 23/841/1 18/839/1 501/838/1
f 501/838/1 503/840/1 23/841/1
f 505/843/1 501/838/1 496/832/1
f 496/832/1 504/842/1 505/843/1
f 2/29/22 506/844/22 507/845/22
f 507/845/22 1/847/22 2/29/22

usemtl Wood062_1KMat
f 28/43/14 27/42/14 26/41/14 25/40/14
f 30/47/1 25/46/1 26/45/1 29/44/1
f 32/49/1 31/48/1 25/46/1 30/47/1
f 28/51/10 33/50/10 34/49/10 27/48/10
f 36/45/10 35/44/10 33/50/10 28/51/10
f 29/55/15 26/54/15 27/53/15 34/52/15
f 28/43/16 25/40/16 31/57/16 36/56/16
f 31/53/17 32/52/17 35/55/17 36/54/17
f 378/694/10 379/695/10 377/693/10 376/692/10
f 382/698/1 383/699/1 381/697/1 380/696/1
f 383/702/22 382/703/22 379/701/22 378/700/22
f 376/706/11 377/707/11 380/705/11 381/704/11
f 386/710/12 387/711/12 385/709/12 384/708/12
f 390/714/13 391/715/13 389/713/13 388/712/13
f 390/718/22 387/719/22 386/717/22 391/716/22
f 389/722/11 384/723/11 385/721/11 388/720/11
f 393/726/10 390/727/10 388/725/10 392/724/10
f 396/730/1 397/731/1 395/729/1 394/728/1
f 397/733/22 396/734/22 390/718/22 393/732/22
f 392/737/11 388/720/11 394/736/11 395/735/11
f 400/740/12 401/741/12 399/739/12 398/738/12
f 404/744/13 405/745/13 403/743/13 402/742/13
f 404/718/22 401/719/22 400/717/22 405/716/22
f 403/722/11 398/723/11 399/721/11 402/720/11
f 408/740/12 409/741/12 407/739/12 406/738/12
f 412/744/13 413/745/13 411/743/13 410/742/13
f 412/721/22 409/720/22 408/722/22 413/723/22
f 411/717/11 406/716/11 407/718/11 410/719/11
f 416/710/12 417/711/12 415/709/12 414/708/12
f 420/714/13 421/715/13 419/713/13 418/712/13
f 420/721/22 417/720/22 416/722/22 421/723/22
f 419/717/11 414/716/11 415/718/11 418/719/11
f 424/748/223 425/749/223 423/747/223 422/746/223
f 425/752/12 427/753/12 426/751/12 423/750/12
f 427/756/224 429/757/224 428/755/224 426/754/224
f 429/759/13 424/760/13 422/758/13 428/64/13
f 432/761/223 433/762/223 431/755/223 430/754/223
f 433/752/12 435/753/12 434/751/12 431/763/12
f 435/764/224 437/765/224 436/747/224 434/746/224
f 437/759/13 432/760/13 430/766/13 436/64/13
f 440/767/12 441/768/12 439/753/12 438/759/12
f 441/770/1 443/758/1 442/64/1 439/769/1
f 443/767/13 445/768/13 444/753/13 442/759/13
f 443/64/22 441/769/22 440/717/22 445/723/22
f 444/717/11 438/723/11 439/64/11 442/769/11
f 404/722/10 401/723/10 447/64/10 446/736/10
f 401/741/12 448/745/12 441/768/12 447/771/12
f 448/773/1 450/774/1 449/772/1 441/770/1
f 450/740/13 404/744/13 446/775/13 449/767/13
f 450/734/22 448/769/22 401/719/22 404/718/22
f 412/717/10 409/716/10 452/734/10 451/769/10
f 409/741/12 454/745/12 453/768/12 452/771/12
f 454/777/1 455/778/1 443/758/1 453/776/1
f 455/740/13 412/744/13 451/775/13 443/767/13
f 455/64/22 454/736/22 409/720/22 412/721/22
f 458/779/10 459/780/10 457/735/10 456/705/10
f 459/741/12 461/745/12 460/768/12 457/771/12
f 461/783/1 463/784/1 462/782/1 460/781/1
f 463/740/13 458/744/13 456/775/13 462/767/13
f 463/703/22 461/733/22 459/732/22 458/785/22
f 459/780/10 404/722/10 402/787/10 464/786/10
f 450/774/1 461/783/1 466/789/1 465/788/1
f 461/733/22 450/734/22 404/718/22 459/732/22
f 464/737/11 402/720/11 465/736/11 466/735/11
f 469/791/10 470/792/10 468/704/10 467/790/10
f 470/741/12 472/745/12 471/768/12 468/771/12
f 472/795/1 474/796/1 473/794/1 471/793/1
f 474/740/13 469/744/13 467/775/13 473/767/13
f 474/799/22 472/702/22 470/798/22 469/797/22
f 470/792/10 458/779/10 476/801/10 475/800/10
f 463/784/1 472/795/1 478/803/1 477/802/1
f 472/702/22 463/703/22 458/785/22 470/798/22
f 475/804/11 476/805/11 477/705/11 478/704/11
f 481/808/10 469/791/10 480/807/10 479/806/10
f 474/796/1 484/811/1 483/810/1 482/809/1
f 484/813/22 474/799/22 469/797/22 481/812/22
f 479/815/11 480/816/11 482/790/11 483/814/11
f 487/819/10 488/820/10 486/818/10 485/817/10
f 491/823/1 492/824/1 490/822/1 489/821/1
f 492/813/22 491/799/22 488/797/22 487/812/22
f 485/815/11 486/816/11 489/790/11 490/814/11

