# ProBuilder 5.0.6
# https://unity3d.com/unity/features/worldbuilding/probuilder
# 2025-04-23 오후 3:06:47

mtllib ./JPBM11SlidingDoor.mtl
o JPBM11SlidingDoor

g JPBM11SlidingDoor
v 0.5875 -0.05 0.075
v -0.5875 -0.05 0.075
v 0.5875 0.05 0.075
v -0.5875 0.05 0.075
v -0.5875 -0.05 -0.075
v 0.5875 -0.05 -0.075
v -0.5875 0.05 -0.075
v 0.5875 0.05 -0.075
v 0.5875001 -1.4 0.04999995
v -0.5875 -1.4 0.04999995
v 0.5875001 1.4 0.04999995
v -0.5875 1.4 0.04999995
v -0.5875 -1.4 -0.04999995
v 0.5875001 -1.4 -0.04999995
v -0.5875 1.4 -0.04999995
v 0.5875001 1.4 -0.04999995
v -0.5874989 -1.5 0.07500005
v -0.6874988 -1.5 0.07500005
v -0.5874989 1.5 0.07500005
v -0.6874988 1.5 0.07500005
v -0.6874988 -1.5 -0.07500005
v -0.6874988 1.5 -0.07500005
v -0.5874989 -1.5 -0.07500005
v -0.5874989 1.5 -0.07500005
v 0.6875007 -1.5 0.07500005
v 0.5875008 -1.5 0.07500005
v 0.6875007 1.5 0.07500005
v 0.5875008 1.5 0.07500005
v 0.5875008 -1.5 -0.07500005
v 0.5875008 1.5 -0.07500005
v 0.6875007 -1.5 -0.07500005
v 0.6875007 1.5 -0.07500005
v 0.5875001 1.4 0.07500005
v -0.5875 1.4 0.07500005
v -0.5875 1.5 0.07500005
v -0.5875 1.4 -0.07500005
v 0.5875001 1.4 -0.07500005
v -0.5875 1.5 -0.07500005
v -0.5875 -1.5 0.07500005
v 0.5875001 -1.4 0.07500005
v -0.5875 -1.4 0.07500005
v -0.5875 -1.5 -0.07500005
v -0.5875 -1.4 -0.07500005
v 0.5875001 -1.4 -0.07500005

vt 0.5875 -0.05
vt -0.5875 -0.05
vt 0.5875 0.05
vt -0.5875 0.05
vt -0.5875 0.075
vt 0.5875 0.075
vt -0.5875 -0.075
vt 0.5875 -0.075
vt 0.5875 -1.4
vt -0.5875 -1.4
vt 0.5875 1.4
vt -0.5875 1.4
vt 0.05000001 -1.5
vt -0.05000001 -1.5
vt 0.05000001 1.5
vt -0.05000001 1.5
vt 0.075 -1.5
vt -0.075 -1.5
vt 0.075 1.5
vt -0.075 1.5
vt -0.05000001 0.075
vt 0.05000001 0.075
vt -0.05000001 -0.075
vt 0.05000001 -0.075
vt 0.5875 -0.04999995
vt -0.5875 -0.04999995
vt 0.5875 0.04999995
vt -0.5875 0.04999995

vn 0 0 1
vn 0 0 -1
vn 0 1 0
vn 0 -1 0
vn -1 0 0
vn 1 0 0

usemtl Wood062_1KMat
f 3/3/1 4/4/1 2/2/1 1/1/1
f 7/3/2 8/4/2 6/2/2 5/1/2
f 8/7/3 7/8/3 4/6/3 3/5/3
f 1/6/4 2/5/4 5/7/4 6/8/4
f 19/15/1 20/16/1 18/14/1 17/13/1
f 20/19/5 22/20/5 21/18/5 18/17/5
f 22/15/2 24/16/2 23/14/2 21/13/2
f 24/19/6 19/20/6 17/18/6 23/17/6
f 24/23/3 22/24/3 20/22/3 19/21/3
f 17/22/4 18/21/4 21/23/4 23/24/4
f 27/15/1 28/16/1 26/14/1 25/13/1
f 28/19/5 30/20/5 29/18/5 26/17/5
f 30/15/2 32/16/2 31/14/2 29/13/2
f 32/19/6 27/20/6 25/18/6 31/17/6
f 32/23/3 30/24/3 28/22/3 27/21/3
f 25/22/4 26/21/4 29/23/4 31/24/4
f 28/27/1 35/28/1 34/26/1 33/25/1
f 38/27/2 30/28/2 37/26/2 36/25/2
f 30/7/3 38/8/3 35/6/3 28/5/3
f 33/6/4 34/5/4 36/7/4 37/8/4
f 40/27/1 41/28/1 39/26/1 26/25/1
f 43/27/2 44/28/2 29/26/2 42/25/2
f 44/7/3 43/8/3 41/6/3 40/5/3
f 26/6/4 39/5/4 42/7/4 29/8/4

usemtl Glass
f 11/11/1 12/12/1 10/10/1 9/9/1
f 15/11/2 16/12/2 14/10/2 13/9/2

