# ProBuilder 5.0.6
# https://unity3d.com/unity/features/worldbuilding/probuilder
# 2025-04-14 오후 9:04:33

mtllib ./JPBM11Curtain.mtl
o JPBM11Curtain

g JPBM11Curtain
v -0.125 -1.5 8.742278E-09
v -0.125 1.5 8.742278E-09
v -0.1082532 -1.5 0.05
v -0.1082532 1.5 0.05
v -0.0625 -1.514775 0.08660269
v -0.06249999 1.5 0.08660255
v 0 -1.533128 0.0999999
v 1.49061E-09 1.5 0.1
v 0.0625 -1.514775 0.08660269
v 0.06249999 1.5 0.08660255
v 0.1082532 -1.5 0.05000002
v 0.1082532 1.5 0.05000002
v 0.125 -1.5 0
v 0.125 1.5 0
v -1.125 -1.5 0
v -1.125 1.5 0
v -1.141747 -1.5 -0.05000019
v -1.141747 1.5 -0.05000019
v -1.1875 -1.519958 -0.08660269
v -1.1875 1.5 -0.08660269
v -1.25 -1.5 -0.0999999
v -1.25 1.5 -0.0999999
v -1.3125 -1.519958 -0.08660269
v -1.3125 1.5 -0.08660269
v -1.358253 -1.5 -0.05000019
v -1.358253 1.5 -0.05000019
v -1.375 -1.5 0
v -1.375 1.5 0
v -1.108253 -1.5 0.05000019
v -1.108253 1.5 0.05000019
v -1.0625 -1.505152 0.1161513
v -1.0625 1.5 0.08660269
v -1 -1.514871 0.1184173
v -1 1.5 0.0999999
v -0.9375 -1.505152 0.1161513
v -0.9375 1.5 0.08660269
v -0.8917465 -1.5 0.05000019
v -0.8917465 1.5 0.05000019
v -0.875 -1.5 0
v -0.875 1.5 0
v -0.625 -1.5 0
v -0.625 1.5 0
v -0.6417465 -1.5 -0.05000019
v -0.6417465 1.5 -0.05000019
v -0.6875 -1.5 -0.05523348
v -0.6875 1.5 -0.08660269
v -0.75 -1.5 -0.04119706
v -0.75 1.5 -0.0999999
v -0.8125 -1.5 -0.05523348
v -0.8125 1.5 -0.08660269
v -0.8582535 -1.5 -0.05000019
v -0.8582535 1.5 -0.05000019
v -0.6082535 -1.5 0.05000019
v -0.6082535 1.5 0.05000019
v -0.5625 -1.507043 0.07173014
v -0.5625 1.5 0.08660269
v -0.5 -1.51343 0.0999999
v -0.5 1.5 0.0999999
v -0.4375 -1.507043 0.07173014
v -0.4375 1.5 0.08660269
v -0.3917465 -1.5 0.05000019
v -0.3917465 1.5 0.05000019
v -0.375 -1.5 0
v -0.375 1.5 0
v -0.1417465 -1.5 -0.05000019
v -0.1417465 1.5 -0.05000019
v -0.1875 -1.484191 -0.1059504
v -0.1875 1.5 -0.08660269
v -0.25 -1.5 -0.1272237
v -0.25 1.5 -0.0999999
v -0.3125 -1.484191 -0.1059504
v -0.3125 1.5 -0.08660269
v -0.3582535 -1.5 -0.05000019
v -0.3582535 1.5 -0.05000019

vt 0.2499997 0.03554559
vt 0.2499997 3.034658
vt 0.2331748 0.03433001
vt 0.2331748 3.033442
vt 0.1873644 0.01867056
vt 0.1873644 3.032554
vt 0.1248436 0
vt 0.1248436 3.03223
vt 0.06236459 0.01867533
vt 0.06236461 3.032558
vt 0.01666868 0.03433824
vt 0.01666868 3.033451
vt 0 0.03555512
vt 0 3.034667
vt 1.249999 0.03550756
vt 1.249999 3.03462
vt 1.266823 0.03672326
vt 1.266823 3.035836
vt 1.312634 0.01765966
vt 1.312634 3.036724
vt 1.375155 0.03793538
vt 1.375155 3.037048
vt 1.437634 0.0176549
vt 1.437634 3.036719
vt 1.48333 0.03671503
vt 1.48333 3.035827
vt 1.499998 0.03549814
vt 1.499998 3.034611
vt 1.233174 0.03429198
vt 1.233174 3.033404
vt 1.187317 0.02753448
vt 1.187363 3.032516
vt 1.124814 0.01776516
vt 1.124842 3.032192
vt 1.062317 0.02753913
vt 1.062363 3.03252
vt 1.016667 0.03430021
vt 1.016667 3.033412
vt 0.9999988 0.0355171
vt 0.9999988 3.034629
vt 0.7499992 0.03552663
vt 0.7499992 3.034639
vt 0.7668238 0.03674221
vt 0.7668238 3.035855
vt 0.8125854 0.03686786
vt 0.8126343 3.036743
vt 0.8750633 0.03652406
vt 0.8751552 3.037067
vt 0.9375852 0.03686321
vt 0.9376342 3.036738
vt 0.9833305 0.03673398
vt 0.9833305 3.035846
vt 0.7331744 0.03431094
vt 0.7331744 3.033423
vt 0.6873871 0.02674294
vt 0.6873639 3.032535
vt 0.624843 0.01967275
vt 0.624843 3.032211
vt 0.5623872 0.0267477
vt 0.562364 3.032539
vt 0.5166678 0.03431916
vt 0.5166678 3.033432
vt 0.4999994 0.03553605
vt 0.4999994 3.034648
vt 0.2668243 0.03676128
vt 0.2668243 3.035874
vt 0.3126652 0.05392504
vt 0.3126349 3.036762
vt 0.3751984 0.03863573
vt 0.3751558 3.037086
vt 0.437665 0.05392027
vt 0.4376348 3.036757
vt 0.483331 0.03675306
vt 0.483331 3.035865

vn -0.9482262 0 0.3175957
vn -0.8198639 0 0.5725585
vn -0.4286076 3.399966E-08 0.9034908
vn -9.067598E-07 -1.206499E-08 1
vn 0.4286087 2.397281E-08 0.9034902
vn 0.8198636 1.015941E-08 0.5725589
vn 0.9482263 0 0.3175956
vn 0.9482262 0 -0.3175957
vn 0.8403825 0 -0.4720201
vn 0.4863299 -2.855724E-08 -0.846508
vn 0.06986477 5.287041E-09 -0.977788
vn -0.3479624 -1.811497E-08 -0.9121484
vn -0.7325392 -1.299402E-08 -0.626444
vn -0.9482263 0 -0.3175956
vn -0.840383 0 -0.4720196
vn -0.4863286 -2.855727E-08 -0.8465083
vn -0.06986596 5.28703E-09 -0.9777882
vn 0.3479629 -1.814926E-08 -0.9121479
vn 0.7325394 -1.2994E-08 -0.626444
vn 0.8198642 0 -0.5725581
vn 0.4286053 0 -0.9034918
vn 7.619829E-09 0 -1
vn -0.4286053 0 -0.9034918
vn -0.8198642 0 -0.5725581
vn -0.840383 0 0.4720166
vn -0.4863261 0 0.8465102
vn -0.06986477 0 0.9777884
vn 0.3479602 0 0.9121494
vn 0.7325375 0 0.6264439
vn 0.840383 0 0.4720166
vn 0.4863261 0 0.8465102
vn 0.06986477 0 0.9777884
vn -0.3479602 0 0.9121494
vn -0.7325375 0 0.6264439
vn -0.8942055 0 0.4476568
vn -0.8598956 0.001974569 0.5104662
vn -0.4125576 0.007434986 0.9109011
vn -0.3888431 0.008110639 0.9212683
vn -0.04365352 0.007037952 0.9990219
vn -0.04428038 0.007027591 0.9989945
vn 0.5185333 0.007385812 0.8550255
vn 0.4916015 0.006539542 0.8707957
vn 0.8598482 0.001439194 0.5105478
vn 0.5521683 -0.005069963 -0.775915
vn 0.01175877 -0.007230595 -0.9849577
vn -0.2896558 -0.007825709 -0.9193228
vn -0.798449 -0.002559272 -0.5557607
vn -0.9063006 0 -0.4013411
vn -0.4939406 -0.005834694 -0.783014
vn -0.06967051 -0.00730141 -0.9921597
vn 0.3556983 -0.007104937 -0.8487442
vn 0.7983829 -0.001865356 -0.5558637
vn 0.6293743 0 -0.7771024
vn 0.737941 -0.002286792 -0.6748614
vn 0.08028284 -0.007643017 -0.9967428
vn 0.3326081 -0.01225859 -0.9429855
vn 0.1091079 -0.01720985 -0.9938809
vn 0.1089928 -0.01720764 -0.9938936
vn -0.05517888 -0.01270002 -0.9983957
vn -0.2963814 -0.007895538 -0.9550371
vn -0.7379455 -0.002909484 -0.674854
vn -0.3159695 0.006870574 0.9173591
vn 0.07301901 0.01616892 0.9769549
vn 0.205038 0.01250955 0.9113668
vn 0.5621796 0.00272161 0.6973189
vn 0.670032 0 0.5429003
vn 0.1730657 0.006122194 0.9166711
vn 0.06984238 0.01616163 0.9762578
vn -0.0347106 0.01324427 0.9822414
vn -0.5621845 0.003462702 0.6973097
vn -0.7483048 0 0.6633551
vn -0.786141 -0.001029148 0.6180463
vn -0.4723056 -0.003236293 0.8814289
vn -0.476766 -0.003115564 0.8790248
vn 0.05439166 -0.001212286 0.9985189
vn 0.05260567 -0.001256161 0.9986145
vn 0.3720078 -0.003458844 0.9282232
vn 0.3752628 -0.003600795 0.9269115
vn 0.7862329 -0.001190061 0.6179292
vn 0.4212832 0.003100755 -0.8872242
vn 0.1373722 0.001611997 -0.9555652
vn -0.4155929 0.002789183 -0.8898672
vn -0.6673083 0.001287362 -0.6672516
vn -0.7751553 0 -0.5128263
vn -0.4887312 0.002789183 -0.8650377
vn -0.06999078 0.001501821 -0.9332888
vn 0.3504256 0.003100755 -0.9306439
vn 0.6674954 0.001488758 -0.6671617
vn 0.8754986 0 -0.4832207
vn 0.8492067 0.001304667 -0.5280589
vn 0.5249631 0.004462164 -0.8511133
vn 0.4546438 0.00642163 -0.8906502
vn -0.02881574 0.008428256 -0.9995492
vn -0.5460633 0.006075939 -0.8377219
vn -0.4750288 0.00438268 -0.8799593
vn -0.8493275 0.001056484 -0.5278652
vn -0.5363209 -0.003479653 0.7969933
vn -0.1067543 -0.007936083 0.9676032
vn 0.3850306 -0.006691956 0.9019103
vn 0.782344 -0.001687542 0.5771633
vn 0.8901921 0 0.4227394
vn 0.5732085 -0.00373439 0.7870068
vn 0.07004963 -0.007869846 0.9573869
vn -0.4348432 -0.006345084 0.8524665
vn -0.7825336 -0.001366568 0.5769334

usemtl JPBM10Paper003_1KMat
f 14/14/14 13/13/14 11/11/15
f 4/4/9 1/1/8 2/2/8
f 4/4/9 3/3/19 1/1/8
f 6/6/10 3/3/19 4/4/9
f 6/6/10 5/5/18 3/3/19
f 8/8/11 5/5/18 6/6/10
f 8/8/11 7/7/17 5/5/18
f 10/10/12 7/7/17 8/8/11
f 10/10/12 9/9/16 7/7/17
f 12/12/13 9/9/16 10/10/12
f 12/12/13 11/11/15 9/9/16
f 14/14/14 11/11/15 12/12/13
f 28/28/7 27/27/7 25/25/30
f 18/18/25 15/15/1 16/16/1
f 18/18/25 17/17/34 15/15/1
f 20/20/26 17/17/34 18/18/25
f 20/20/26 19/19/33 17/17/34
f 22/22/27 19/19/33 20/20/26
f 22/22/27 21/21/32 19/19/33
f 24/24/28 21/21/32 22/22/27
f 24/24/28 23/23/31 21/21/32
f 26/26/29 23/23/31 24/24/28
f 26/26/29 25/25/30 23/23/31
f 28/28/7 25/25/30 26/26/29
f 40/40/14 39/39/14 37/37/48
f 30/30/9 15/15/8 16/16/8
f 30/30/9 29/29/52 15/15/8
f 32/32/44 29/29/52 30/30/9
f 32/32/44 31/31/51 29/29/52
f 34/34/45 31/31/51 32/32/44
f 34/34/45 33/33/50 31/31/51
f 36/36/46 33/33/50 34/34/45
f 36/36/46 35/35/49 33/33/50
f 38/38/47 35/35/49 36/36/46
f 38/38/47 37/37/48 35/35/49
f 40/40/14 37/37/48 38/38/47
f 40/40/7 39/39/7 51/51/66
f 44/44/25 41/41/1 42/42/1
f 44/44/25 43/43/70 41/41/1
f 46/46/62 43/43/70 44/44/25
f 46/46/62 45/45/69 43/43/70
f 48/48/63 45/45/69 46/46/62
f 48/48/63 47/47/68 45/45/69
f 50/50/64 47/47/68 48/48/63
f 50/50/64 49/49/67 47/47/68
f 52/52/65 49/49/67 50/50/64
f 52/52/65 51/51/66 49/49/67
f 40/40/7 51/51/66 52/52/65
f 64/64/14 63/63/14 61/61/84
f 54/54/9 41/41/8 42/42/8
f 54/54/9 53/53/88 41/41/8
f 56/56/80 53/53/88 54/54/9
f 56/56/80 55/55/87 53/53/88
f 58/58/81 55/55/87 56/56/80
f 58/58/81 57/57/86 55/55/87
f 60/60/82 57/57/86 58/58/81
f 60/60/82 59/59/85 57/57/86
f 62/62/83 59/59/85 60/60/82
f 62/62/83 61/61/84 59/59/85
f 64/64/14 61/61/84 62/62/83
f 64/64/7 63/63/7 73/73/101
f 66/66/25 1/1/1 2/2/1
f 66/66/25 65/65/105 1/1/1
f 68/68/97 65/65/105 66/66/25
f 68/68/97 67/67/104 65/65/105
f 70/70/98 67/67/104 68/68/97
f 70/70/98 69/69/103 67/67/104
f 72/72/99 69/69/103 70/70/98
f 72/72/99 71/71/102 69/69/103
f 74/74/100 71/71/102 72/72/99
f 74/74/100 73/73/101 71/71/102
f 64/64/7 73/73/101 74/74/100
f 4/4/2 2/2/1 1/1/1
f 1/1/1 3/3/2 4/4/2
f 6/6/3 4/4/2 3/3/2
f 3/3/2 5/5/3 6/6/3
f 8/8/4 6/6/3 5/5/3
f 5/5/3 7/7/4 8/8/4
f 10/10/5 8/8/4 7/7/4
f 7/7/4 9/9/5 10/10/5
f 12/12/6 10/10/5 9/9/5
f 9/9/5 11/11/6 12/12/6
f 14/14/7 12/12/6 11/11/6
f 11/11/6 13/13/7 14/14/7
f 18/18/20 16/16/8 15/15/8
f 15/15/8 17/17/20 18/18/20
f 20/20/21 18/18/20 17/17/20
f 17/17/20 19/19/21 20/20/21
f 22/22/22 20/20/21 19/19/21
f 19/19/21 21/21/22 22/22/22
f 24/24/23 22/22/22 21/21/22
f 21/21/22 23/23/23 24/24/23
f 26/26/24 24/24/23 23/23/23
f 23/23/23 25/25/24 26/26/24
f 28/28/14 26/26/24 25/25/24
f 25/25/24 27/27/14 28/28/14
f 30/30/36 16/16/1 15/15/1
f 15/15/1 29/29/35 30/30/36
f 32/32/38 30/30/36 29/29/35
f 29/29/35 31/31/37 32/32/38
f 34/34/40 32/32/38 31/31/37
f 31/31/37 33/33/39 34/34/40
f 36/36/42 34/34/40 33/33/39
f 33/33/39 35/35/41 36/36/42
f 38/38/6 36/36/42 35/35/41
f 35/35/41 37/37/43 38/38/6
f 40/40/7 38/38/6 37/37/43
f 37/37/43 39/39/7 40/40/7
f 44/44/54 42/42/8 41/41/8
f 41/41/8 43/43/53 44/44/54
f 46/46/56 44/44/54 43/43/53
f 43/43/53 45/45/55 46/46/56
f 48/48/58 46/46/56 45/45/55
f 45/45/55 47/47/57 48/48/58
f 50/50/60 48/48/58 47/47/57
f 47/47/57 49/49/59 50/50/60
f 52/52/24 50/50/60 49/49/59
f 49/49/59 51/51/61 52/52/24
f 40/40/14 52/52/24 51/51/61
f 51/51/61 39/39/14 40/40/14
f 54/54/72 42/42/1 41/41/1
f 41/41/1 53/53/71 54/54/72
f 56/56/74 54/54/72 53/53/71
f 53/53/71 55/55/73 56/56/74
f 58/58/76 56/56/74 55/55/73
f 55/55/73 57/57/75 58/58/76
f 60/60/78 58/58/76 57/57/75
f 57/57/75 59/59/77 60/60/78
f 62/62/6 60/60/78 59/59/77
f 59/59/77 61/61/79 62/62/6
f 64/64/7 62/62/6 61/61/79
f 61/61/79 63/63/7 64/64/7
f 66/66/90 2/2/8 1/1/8
f 1/1/8 65/65/89 66/66/90
f 68/68/92 66/66/90 65/65/89
f 65/65/89 67/67/91 68/68/92
f 70/70/93 68/68/92 67/67/91
f 67/67/91 69/69/93 70/70/93
f 72/72/95 70/70/93 69/69/93
f 69/69/93 71/71/94 72/72/95
f 74/74/24 72/72/95 71/71/94
f 71/71/94 73/73/96 74/74/24
f 64/64/14 74/74/24 73/73/96
f 73/73/96 63/63/14 64/64/14

