# ProBuilder 5.0.6
# https://unity3d.com/unity/features/worldbuilding/probuilder
# 2025-05-22 오후 6:54:50

mtllib ./JPBM11ABase.mtl
o JPBM11ABase

g JPBM11ABase
v -0.07500002 -0.3000001 -0.05000002
v -0.07500002 0.3000001 -0.05000002
v -0.07500001 0.3000001 0.01999999
v -0.07500001 -0.3000001 0.01999999
v 0.07500002 -0.3000001 0.02000001
v 0.07500002 0.3000001 0.02000001
v 0.075 0.3000001 -0.05
v 0.075 -0.3000001 -0.05
v -0.045 -0.2700001 0.05
v -0.045 0.2700001 0.05
v 0.04500001 0.2700001 0.05000001
v 0.04500001 -0.2700001 0.05000001
v 4.415714 -0.8746302 -0.04888984
v 4.415711 -2.57463 -10.64889
v 4.41571 -2.574631 -0.04888793
v 0.3924838 1.525371 -0.04917279
v 1.892484 0.5253705 -0.04917243
v 0.3924838 0.5253705 -0.04917279
v 1.892484 1.525371 -0.04917243
v 0.3924838 -2.574631 -0.04917279
v -1.184516 1.525371 -0.04917315
v -1.184516 -2.574631 -0.04917315
v -7.584289 -2.574631 -0.04889365
v -1.184285 -1.57463 -0.04889205
v -7.584289 -1.57463 -0.04889365
v -1.785288 1.525371 -0.04889225
v -1.785284 -1.57463 -0.04889225
v -1.184285 1.525371 -0.04889205
v -1.785288 1.425371 -0.04889225
v -7.284289 1.525371 -0.04889362
v -7.284289 1.425371 -0.04889362
v -7.584289 1.525371 -0.04889365
v -7.284289 -1.57463 -0.04889362
v 4.415714 1.925371 -0.04889079
v -7.584289 1.925371 -0.04889365
v 4.415714 1.525371 -0.04888984
v 3.415714 -0.8746302 -0.04888996
v 3.415714 1.525371 -0.04888996
v 3.415714 -2.574631 -0.04888996
v 1.891714 1.525371 -0.04889038
v 1.891714 -2.574631 -0.04889038
v -7.584292 1.535198 -12.0489
v -7.584289 -2.574631 -1.148894
v -7.584296 -2.57463 -12.0489
v -7.584289 1.535013 -1.148894
v -7.584292 1.935013 -12.0489
v -7.58429 3.316436 -6.048895
v -7.584289 -1.57463 -1.148894
v -7.584289 -1.57463 -0.386123
v -6.884294 1.525371 -12.0489
v -6.884294 -2.57463 -12.0489
v -5.384294 1.525371 -12.0489
v 4.41571 1.925371 -12.04889
v -6.884294 0.3253708 -12.0489
v -5.384294 0.3253708 -12.0489
v 4.41571 1.525557 -12.04889
v -5.384294 -2.574631 -12.0489
v 4.415707 -2.574631 -12.04889
v 4.415711 -0.8746302 -10.64889
v 4.415713 -0.8746302 -8.253891
v 4.415713 1.525371 -8.253891
v 4.415712 3.306794 -6.048892
v 4.415711 1.525371 -10.64889
v 4.415711 0.6253702 -10.64889
v 4.415713 0.6253702 -8.253891
v -1.184286 -1.57463 -0.3861214
v -1.184286 -1.57463 -1.148893
v -1.785288 1.425371 -0.3810204
v -7.28429 1.425371 -1.148894
v -7.28429 1.425371 -0.3810218
v -1.785288 1.425371 -1.148892
v -7.485003 -1.57463 0.9511066
v -1.485002 -1.724631 0.9511082
v -7.485003 -1.724631 0.9511066
v -1.485002 -1.57463 0.9511082
v -7.485003 -1.57463 -0.04889364
v -7.485003 -1.724631 -0.04889364
v -1.485002 -1.724631 -0.04889209
v -1.485002 -1.57463 -0.04889209
v 1.892484 0.5253705 -1.049173
v 0.3924835 0.5253705 -1.049173
v 1.891713 -2.574631 -1.048891
v 1.891713 1.525371 -1.048891
v 0.3924835 1.525371 -1.049173
v 0.3924835 -2.574631 -1.049173
v -7.284286 1.525371 -1.148894
v -7.284286 -1.57463 -1.148894
v -1.785284 1.525371 -1.148893
v -1.785284 -1.57463 -1.148893
v 4.682117 1.810071 -12.50568
v -7.754125 1.810071 -12.50569
v -7.754123 3.303588 -6.047862
v 4.682119 3.303588 -6.047859
v -7.754125 1.848916 -12.51467
v -7.754123 3.344272 -6.048895
v -7.754121 1.810071 0.4078983
v -7.754122 1.848916 0.4168824
v 4.682117 1.848916 -12.51466
v 4.682119 3.344272 -6.048892
v 4.682122 1.848916 0.4168853
v 4.682121 1.810071 0.4079012
v -0.1718774 1.353918 2.033112
v 2.565721 1.353918 2.033112
v 2.565718 1.634762 -0.0799715
v -0.1718798 1.634762 -0.07997208
v 2.565715 1.39781 2.037345
v 2.565713 1.678654 -0.07573838
v -0.1718836 1.678654 -0.07573896
v -0.1718822 1.39781 2.037344
v -7.285003 -1.724631 0.9511076
v -7.285003 -2.574631 0.9511076
v -7.485003 -2.574631 0.9511076
v -7.485003 -1.724631 0.7511075
v -7.485003 -2.574631 0.7511075
v -7.285004 -1.724631 0.7511075
v -7.285004 -2.574631 0.7511075
v -1.685001 -1.724631 0.951109
v -1.485001 -2.574631 0.9511091
v -1.685001 -2.574631 0.951109
v -1.685001 -1.724631 0.7511089
v -1.685001 -2.574631 0.7511089
v -1.485001 -1.724631 0.7511091
v -1.485001 -2.574631 0.7511091
v -5.551654 -1.724631 0.9511083
v -5.351655 -1.724631 0.9511083
v -5.351655 -2.574631 0.9511083
v -5.551654 -2.574631 0.9511083
v -5.551654 -1.724631 0.7511082
v -5.551654 -2.574631 0.7511082
v -5.351655 -1.724631 0.7511082
v -5.351655 -2.574631 0.7511082
v -3.618327 -1.724631 0.9511085
v -3.418327 -1.724631 0.9511085
v -3.418327 -2.574631 0.9511085
v -3.618327 -2.574631 0.9511085
v -3.618327 -1.724631 0.7511084
v -3.618327 -2.574631 0.7511084
v -3.418327 -1.724631 0.7511085
v -3.418327 -2.574631 0.7511085
v 4.416004 -2.37463 -0.001998852
v 4.466003 -2.574631 -0.003606026
v 4.416004 -2.574631 -0.001998852
v 4.466003 -2.37463 -0.003606026
v -0.3339954 -2.383955 1.998001
v 2.666005 -2.573956 1.998001
v -0.3339954 -2.573956 1.998001
v 2.666005 -2.383955 1.998001
v -0.3339959 -2.383955 -0.01199992
v -0.3339959 -2.573956 -0.01199992
v 2.666005 -2.573956 -0.01199929
v 2.666005 -2.383955 -0.01199929
v -1.284126 -2.37463 0.001107897
v 3.616005 -2.574631 -0.001998948
v -1.284002 -2.574631 0.000826802
v 3.616005 -2.37463 -0.001998948
v -1.283996 -2.37463 -2.435185
v 3.616266 -2.37463 -2.437997
v -7.584291 -2.574631 -11.0489
v -6.884293 -2.57463 -11.04889
v -5.384293 -2.574631 -11.04918
v -6.884291 -2.574631 -11.88894
v -5.384293 -2.574631 -11.88833
v 4.465706 -2.37463 -12.09889
v 4.415707 -2.574631 -12.09889
v 4.465706 -2.574631 -12.09889
v 4.415707 -2.37463 -12.09889
v 4.465709 -2.37463 -0.04888793
v 4.465709 -2.574631 -0.04888793
v 4.41571 -2.37463 -0.04888793
v -7.634291 -2.37463 -11.0989
v -7.634289 -2.574631 -0.04889366
v -7.634291 -2.574631 -11.0989
v -7.634289 -2.37463 -0.04889366
v -7.584289 -2.37463 -0.04889365
v -7.584291 -2.37463 -11.0989
v -7.634292 -2.37463 -12.0489
v -7.584292 -2.37463 -12.0489
v -7.584291 -2.574631 -11.0989
v -7.634289 -2.574631 0.001106306
v -7.634289 -2.37463 0.001106306
v -1.284126 -2.37463 -0.04889207
v -7.634292 -2.574631 -12.0489
v -7.634292 -2.37463 -12.0989
v -7.634292 -2.574631 -12.0989
v -6.884292 -2.37463 -12.0989
v -6.884292 -2.574631 -12.0989
v -6.884292 -2.37463 -12.0489
v -5.384294 -2.37463 -12.0989
v -5.384294 -2.574631 -12.0989
v -5.384294 -2.37463 -12.0489
v 4.415707 -2.37463 -12.04889
v 3.616005 -2.37463 -0.05199891
v -6.884293 1.525371 -11.04889
v 3.415711 -0.8746302 -10.64889
v 3.415713 -0.8746302 -8.253892
v 3.415713 1.525371 -8.253892
v 3.415713 0.6253707 -8.25389
v 3.415711 0.6253707 -10.64889
v -5.384293 -2.574631 -11.04889
v -5.384293 1.525371 -11.04889
v -6.884293 0.3253708 -11.04889
v -5.384293 0.3253708 -11.04889
v 3.415711 1.525371 -10.64889
v 3.415711 -2.57463 -10.64889
v 2.60656 1.39781 2.037345
v 2.606557 1.394228 2.074477
v 2.606557 1.678654 -0.07573933
v -0.2127247 1.678654 -0.07573994
v -0.2127257 1.682235 -0.112872
v -0.2127223 1.39781 2.037344
v 4.714001 1.941001 0.4511094
v -7.786004 3.444272 -6.048895
v 4.713999 3.444272 -6.048892
v -7.786002 1.941001 0.4511065
v -7.786005 1.941001 -12.5489
v 4.713997 1.941001 -12.54889
v 4.713999 3.344272 -6.048892
v -7.786005 1.841001 -12.5489
v -7.786004 3.344272 -6.048895
v 4.713997 1.841001 -12.54889
v -7.786002 1.841001 0.4511065
v 4.714001 1.841001 0.4511094
v -7.754121 1.841001 0.4511065
v 4.682121 1.841001 0.4511094
v 4.335714 3.636448 -5.832386
v -7.60429 3.761449 -6.048895
v 4.335714 3.761448 -6.048892
v -7.604289 3.636449 -5.832389
v 4.335714 3.386448 -5.832386
v -7.604289 3.386449 -5.832389
v 4.335713 3.636448 -6.265399
v -7.60429 3.386449 -6.265401
v 4.335713 3.386448 -6.265399
v -7.60429 3.636449 -6.265401
v 4.365714 3.621447 -6.239419
v 4.365715 3.731447 -6.048892
v 4.365715 3.621447 -5.858366
v 4.365716 3.383494 -5.862241
v 4.365714 3.383495 -6.235545
v -7.63429 3.73145 -6.048895
v -7.63429 3.621449 -6.239421
v -7.63429 3.383496 -6.235548
v -7.63429 3.621449 -5.858369
v -7.63429 3.383496 -5.862244
v -0.2127252 1.493767 2.084077
v -0.2127252 1.394228 2.074477
v 2.606557 1.493767 2.084077
v -0.2127257 1.781773 -0.1032718
v 2.606556 1.682235 -0.1128714
v 2.606556 1.781773 -0.1032712
v 4.365715 3.365033 -6.048892
v 4.365715 3.511447 -6.048892
v -7.63429 3.365035 -6.048895
v -7.63429 3.511449 -6.048895
v -7.385894 1.769685 -12.54179
v -7.364648 1.769685 -12.62574
v -7.351036 1.769685 -12.57763
v -7.399507 1.769685 -12.5899
v -7.447979 1.769685 -12.60216
v -7.413122 1.769685 -12.63801
v -7.434367 1.769685 -12.55405
v -7.351036 1.269685 -12.57763
v -7.364648 1.269685 -12.62574
v -7.413122 1.269685 -12.63801
v -7.447979 1.269685 -12.60216
v -7.434367 1.269685 -12.55405
v -7.45178 1.185118 -12.48524
v -7.468604 1.154101 -12.52066
v -7.385894 1.269685 -12.54179
v -7.388484 1.123083 -12.53155
v -7.371661 1.154101 -12.49613
v -7.403308 1.185118 -12.47297
v -7.436956 1.123083 -12.54382
v -7.432349 1.04124 -12.35822
v -7.409177 1.084324 -12.34788
v -7.434478 1.127406 -12.3498
v -7.480821 1.04124 -12.37048
v -7.50612 1.084324 -12.37241
v -7.48295 1.127406 -12.36207
v -7.454368 1.004609 -12.27121
v -7.436613 1.038918 -12.23946
v -7.467329 1.073226 -12.21999
v -7.502839 1.004609 -12.28347
v -7.533555 1.038918 -12.264
v -7.515801 1.073226 -12.23225
v -7.461255 0.9740285 -12.24399
v -7.44762 0.9768347 -12.19596
v -7.482457 0.9796408 -12.16021
v -7.509727 0.9740285 -12.25625
v -7.544563 0.9768347 -12.2205
v -7.530927 0.9796408 -12.17247
v -7.462845 -2.312089 -12.23771
v -7.449211 -2.309284 -12.18968
v -7.484046 -2.306478 -12.15393
v -7.511318 -2.312089 -12.24997
v -7.546153 -2.309284 -12.21422
v -7.532518 -2.306478 -12.16619
v 4.622614 1.832997 -12.524
v -7.691005 1.795501 -12.53406
v -7.691005 1.833001 -12.52401
v 4.622614 1.795497 -12.53405
v 4.622614 1.802997 -12.54704
v -7.691005 1.833001 -12.53901
v -7.691005 1.803001 -12.54705
v 4.622614 1.832997 -12.539
v -7.691005 1.768049 -12.56151
v 4.622614 1.768045 -12.5615
v 4.622614 1.781035 -12.569
v -7.691005 1.78104 -12.56901
v -7.691005 1.758001 -12.59901
v 4.622614 1.757997 -12.599
v 4.622614 1.772997 -12.599
v -7.691005 1.773001 -12.59901
v -7.691005 1.768049 -12.63651
v 4.622614 1.768045 -12.6365
v 4.622614 1.781035 -12.629
v -7.691005 1.78104 -12.62901
v -7.691005 1.795501 -12.66396
v 4.622614 1.795497 -12.66395
v 4.622614 1.802997 -12.65096
v -7.691005 1.803001 -12.65097
v -7.691005 1.833001 -12.67401
v 4.622614 1.832997 -12.674
v 4.622614 1.832997 -12.659
v -7.691005 1.833001 -12.65901
v -7.108005 1.831827 -12.46881
v -7.138006 1.781827 -12.46881
v -7.108005 1.781827 -12.46881
v -7.138006 1.831827 -12.46881
v -7.108005 1.831827 -12.43881
v -7.108005 1.781827 -12.43881
v -7.108007 1.742051 -12.50092
v -7.108007 1.723182 -12.4776
v -7.108007 1.716083 -12.53212
v -7.108007 1.68614 -12.53028
v -7.108007 1.729336 -12.56736
v -7.108007 1.702322 -12.58041
v -7.108007 1.764377 -12.57902
v -7.108007 1.769674 -12.60992
v -7.138006 1.831827 -12.43881
v -7.138006 1.781827 -12.43881
v -7.138005 1.723182 -12.4776
v -7.138005 1.742051 -12.50092
v -7.138005 1.68614 -12.53028
v -7.138005 1.716083 -12.53212
v -7.138005 1.702322 -12.58041
v -7.138005 1.729336 -12.56736
v -7.138005 1.769674 -12.60992
v -7.138005 1.764377 -12.57902
v -2.008004 1.831827 -12.46881
v -2.038004 1.781827 -12.46881
v -2.008004 1.781827 -12.46881
v -2.038004 1.831827 -12.46881
v -2.008004 1.831827 -12.43881
v -2.008004 1.781827 -12.43881
v -2.008004 1.742051 -12.50092
v -2.008004 1.723182 -12.4776
v -2.008004 1.716083 -12.53211
v -2.008004 1.68614 -12.53028
v -2.008004 1.729336 -12.56736
v -2.008004 1.702322 -12.58041
v -2.008004 1.764377 -12.57902
v -2.008004 1.769674 -12.60992
v -2.038004 1.831827 -12.43881
v -2.038004 1.781827 -12.43881
v -2.038003 1.723182 -12.4776
v -2.038003 1.742051 -12.50092
v -2.038003 1.68614 -12.53028
v -2.038003 1.716083 -12.53211
v -2.038003 1.702322 -12.58041
v -2.038003 1.729336 -12.56736
v -2.038003 1.769674 -12.60992
v -2.038003 1.764377 -12.57902
v 3.173998 1.831827 -12.4688
v 3.143995 1.781827 -12.4688
v 3.173998 1.781827 -12.4688
v 3.143995 1.831827 -12.4688
v 3.173998 1.831827 -12.4388
v 3.173998 1.781827 -12.4388
v 3.173996 1.742051 -12.50091
v 3.173996 1.723182 -12.47759
v 3.173996 1.716083 -12.53211
v 3.173996 1.68614 -12.53027
v 3.173996 1.729336 -12.56735
v 3.173996 1.702322 -12.5804
v 3.173996 1.764377 -12.57901
v 3.173996 1.769674 -12.60991
v 3.143995 1.831827 -12.4388
v 3.143995 1.781827 -12.4388
v 3.143997 1.723182 -12.47759
v 3.143997 1.742051 -12.50091
v 3.143997 1.68614 -12.53027
v 3.143997 1.716083 -12.53211
v 3.143997 1.702322 -12.5804
v 3.143997 1.729336 -12.56735
v 3.143997 1.769674 -12.60991
v 3.143997 1.764377 -12.57901
v -1.300042 1.832999 0.5689989
v -7.691002 1.795501 0.5589504
v -7.691002 1.833001 0.5689983
v -1.300042 1.795498 0.558951
v -1.300042 1.802999 0.545961
v -7.691001 1.833001 0.5539984
v -7.691002 1.803001 0.5459594
v -1.300042 1.832999 0.5539991
v -7.691001 1.768049 0.5314984
v -1.300042 1.768047 0.531499
v -1.300042 1.781037 0.523999
v -7.691002 1.78104 0.5239984
v -7.691002 1.758001 0.4939984
v -1.300042 1.757999 0.4939989
v -1.300042 1.772999 0.4939989
v -7.691002 1.773001 0.4939984
v -7.691002 1.768049 0.4564983
v -1.300042 1.768047 0.456499
v -1.300042 1.781037 0.4639989
v -7.691001 1.78104 0.4639985
v -7.691001 1.795501 0.4290463
v -1.300042 1.795498 0.429047
v -1.300042 1.802999 0.4420379
v -7.691002 1.803001 0.4420363
v -7.691001 1.833001 0.4189984
v -1.300042 1.832999 0.418999
v -1.300042 1.832999 0.4339989
v -7.691002 1.833001 0.4339983
v -7.084002 1.829201 0.3730983
v -7.054003 1.779201 0.3730983
v -7.084002 1.779201 0.3730983
v -7.054003 1.829201 0.3730983
v -7.084002 1.829201 0.3430983
v -7.084002 1.779201 0.3430983
v -7.084002 1.739425 0.4052133
v -7.084002 1.720556 0.3818915
v -7.084001 1.713457 0.4364123
v -7.084002 1.683514 0.4345674
v -7.084002 1.72671 0.4716494
v -7.084002 1.699696 0.4846973
v -7.084002 1.761751 0.4833136
v -7.084002 1.773895 0.5117455
v -7.054003 1.829201 0.3430983
v -7.054003 1.779201 0.3430983
v -7.054003 1.720556 0.3818915
v -7.054003 1.739425 0.4052133
v -7.054003 1.683514 0.4345675
v -7.054002 1.713457 0.4364123
v -7.054003 1.699696 0.4846973
v -7.054003 1.72671 0.4716494
v -7.054003 1.773895 0.5117455
v -7.054003 1.761751 0.4833136
v -1.850001 1.829201 0.3730997
v -1.820001 1.779201 0.3730997
v -1.850001 1.779201 0.3730997
v -1.820001 1.829201 0.3730997
v -1.850001 1.829201 0.3430997
v -1.850001 1.779201 0.3430997
v -1.850001 1.739425 0.4052147
v -1.850001 1.720556 0.3818928
v -1.850001 1.713457 0.4364136
v -1.850001 1.683514 0.4345688
v -1.850001 1.72671 0.4716507
v -1.850001 1.699696 0.4846987
v -1.850001 1.761751 0.4833149
v -1.850001 1.773895 0.5117468
v -1.820001 1.829201 0.3430997
v -1.820001 1.779201 0.3430997
v -1.820002 1.720556 0.3818928
v -1.820002 1.739425 0.4052147
v -1.820002 1.683514 0.4345688
v -1.820002 1.713457 0.4364136
v -1.820002 1.699696 0.4846987
v -1.820002 1.72671 0.4716507
v -1.820002 1.773895 0.5117468
v -1.820002 1.761751 0.4833149
v -7.497682 -2.309284 -12.20195
v 2.256004 1.416046 1.808001
v 2.476004 1.246046 1.808001
v 2.256004 1.246046 1.808001
v 2.476004 1.416046 1.808001
v 2.256004 1.416046 1.588001
v 2.256004 1.246046 1.588001
v 2.476004 1.416046 1.588001
v 2.476004 1.246046 1.588001
v 2.286004 1.216046 1.618001
v 2.446004 1.216046 1.618001
v 2.446004 1.216046 1.778001
v 2.286004 1.216046 1.778001
v 2.266004 1.416046 1.798001
v 2.466004 -2.383955 1.798001
v 2.266004 -2.383955 1.798001
v 2.466004 1.416046 1.798001
v 2.266004 1.416046 1.598001
v 2.266004 -2.383955 1.598001
v 2.466004 1.416046 1.598001
v 2.466004 -2.383955 1.598001
v 2.256004 -2.213955 1.808001
v 2.476004 -2.383955 1.808001
v 2.256004 -2.383955 1.808001
v 2.476004 -2.213955 1.808001
v 2.256004 -2.213955 1.588001
v 2.256004 -2.383955 1.588001
v 2.476004 -2.213955 1.588001
v 2.476004 -2.383955 1.588001
v 2.286004 -2.183955 1.778001
v 2.446004 -2.183955 1.778001
v 2.446004 -2.183955 1.618001
v 2.286004 -2.183955 1.618001
v -0.1439939 1.416046 1.808001
v 0.07600544 1.246046 1.808001
v -0.1439939 1.246046 1.808001
v 0.07600544 1.416046 1.808001
v -0.1439939 1.416046 1.588
v -0.1439939 1.246046 1.588
v 0.07600542 1.416046 1.588001
v 0.07600542 1.246046 1.588001
v -0.1139942 1.216046 1.618001
v 0.04600568 1.216046 1.618001
v 0.0460057 1.216046 1.778001
v -0.1139942 1.216046 1.778001
v -0.1339946 1.416046 1.798001
v 0.06600617 -2.383955 1.798001
v -0.1339946 -2.383955 1.798001
v 0.06600617 1.416046 1.798001
v -0.1339946 1.416046 1.598
v -0.1339946 -2.383955 1.598
v 0.06600615 1.416046 1.598001
v 0.06600615 -2.383955 1.598001
v -0.1439939 -2.213955 1.808001
v 0.07600544 -2.383955 1.808001
v -0.1439939 -2.383955 1.808001
v 0.07600544 -2.213955 1.808001
v -0.1439939 -2.213955 1.588
v -0.1439939 -2.383955 1.588
v 0.07600542 -2.213955 1.588001
v 0.07600542 -2.383955 1.588001
v -0.1139942 -2.183956 1.778001
v 0.0460057 -2.183956 1.778001
v 0.04600568 -2.183956 1.618001
v -0.1139942 -2.183956 1.618001

vt 0.1 0.6
vt 0.1 0
vt 0.03 0
vt 0.03 0.6
vt 0.07 0.6
vt 0.07 0
vt 0 0
vt 0 0.6
vt 0 0.15
vt 0.07 0.15
vt 0.1 0.15
vt 0.03 0.15
vt 0.09 0.54
vt 0.09 0
vt 0 0.54
vt 0 0.03
vt 0 0.12
vt 0 0.5700001
vt 0.1 0.5700001
vt 0.1 0.03
vt 0.1 0.12
vt 0.5499969 10.1538
vt -0.7250032 2.203799
vt -0.7250035 10.1538
vt 3.075 -5.9835
vt 2.325 -7.1085
vt 2.325 -5.9835
vt 3.075 -7.1085
vt 0 -5.983475
vt 3.075 -4.800725
vt 0 -4.800725
vt 0.75 -4.800759
vt 0.75 0
vt 3.075 -4.35
vt 0.75 -4.350001
vt 3 -4.35
vt 3.075 -0.2250001
vt 3 -0.22575
vt 3.075 -6.183982E-07
vt 0.75 -0.2249999
vt 3.375 -9
vt 3.375001 0
vt 3.075 -9
vt 1.274822 -8.249995
vt 3.074999 -8.25
vt 1.274823 -9.000004
vt 4.768372E-07 -8.25
vt -0.0001921654 -9.000002
vt 3.074999 -7.107
vt 4.768372E-07 -7.107
vt 3.08237 9.000002
vt 5.960464E-08 0.8250004
vt -9.536743E-07 9.000001
vt 3.082222 0.8249882
vt 3.382231 9
vt 4.418299 4.499999
vt 0.75 0.8250005
vt 0.7500005 0.2529215
vt 12.0255 2.924994
vt 8.9505 2.4
vt 8.9505 2.925001
vt 12.03287 2.399996
vt 12.33273 2.399996
vt 12.0255 4.049994
vt 12.3255 11.4
vt 11.1255 2.925
vt 11.1255 4.05
vt 12.02564 11.4
vt 8.9505 4.05
vt 8.9505 11.4
vt 0.5499964 2.203799
vt 2.35 10.15375
vt 0.5500001 4
vt 0.5500002 10.1538
vt 2.35 4
vt 2.65 10.15375
vt 3.686067 5.653749
vt 2.35 2.203781
vt -0.7250004 1.153752
vt -0.7249999 2.203799
vt 2.35014 1.15375
vt 2.650001 1.15378
vt 1.675 2.20375
vt 1.675 4
vt 5.599998 10.26277
vt 12 9.499998
vt 5.599998 9.499998
vt 12 10.26277
vt 2.7495 0.2178715
vt -2.7495 -0.5500001
vt -2.7495 0.2178725
vt 2.7495 -0.550001
vt 6 0
vt 6 0.15
vt 0.5750003 0.6439679
vt 0.4250002 -0.3560321
vt 0.4250002 0.6439679
vt 0.5750003 -0.3560321
vt 0.575 0.5287186
vt 0.425 -0.4712814
vt 0.425 0.5287186
vt 0.575 -0.4712814
vt 0 1
vt 6 1
vt 0.75 0.5
vt 0.75 -0.4999999
vt -0.75 -0.5
vt -0.7499998 0.4999998
vt 0.5000003 2.05
vt 0.5000001 -2.05
vt -0.5000004 -2.05
vt -0.5 2.05
vt -0.4999999 2.05
vt 2.156892 4.1
vt 3.256892 4.1
vt 3.256892 1
vt 2.156892 1
vt 10.9 4.1
vt 12 4.1
vt 12 1
vt 10.9 1
vt 12.46812 0.04320812
vt 0.03188133 0.04320812
vt 0.03188133 6.501033
vt 12.46812 6.501033
vt 6.501033 1.493516
vt 0.04320812 0
vt 0.03422451 0.0388453
vt 6.5 1.5342
vt 12.95679 0
vt 12.96578 0.0388453
vt 0.03187943 0.0388453
vt 12.46812 0.0388453
vt 12.46812 0
vt 0.03187943 0
vt 6.498967 1.493516
vt 12.46812 12.95679
vt 0.03188133 12.95679
vt 1.112123 2.10302
vt 3.84972 2.10302
vt 3.849717 -0.0286479
vt 1.112121 -0.0286479
vt 2.964558 0.03847146
vt 0.8342733 -0.03821003
vt 0.834275 0.005890965
vt 2.964559 0.08257198
vt 2.165702 -0.03841114
vt 0.03542614 0.03839815
vt 0.03545928 0.08236015
vt 2.165735 0.005551219
vt 3.849718 -0.07667899
vt 1.112123 -0.07667875
vt 1.112118 -0.03258252
vt 3.849713 -0.03258276
vt -0.0999999 0.425
vt 0.0999999 0.425
vt 0.0999999 -0.425
vt -0.0999999 -0.425
vt -0.0999999 0.0999999
vt 0.0999999 0.0999999
vt 0.0999999 -0.0999999
vt -0.0999999 -0.0999999
vt -0.1000001 0.425
vt 0.1 0.425
vt 0.1 -0.425
vt -0.1000001 -0.425
vt -0.1000001 0.0999999
vt 0.1 0.0999999
vt 0.1 -0.0999999
vt -0.1000001 -0.0999999
vt 0 0.2
vt 0.04999924 0
vt 0.8 0
vt 0.04999924 0.2
vt -5.960464E-08 0.06333333
vt 1 0
vt 1 0.06333333
vt 0.67 0
vt 0.67 0.06333333
vt 0 0.67
vt 1 0.67
vt -3.899683 0.2000003
vt -3.899559 0
vt 1.000447 0.1999998
vt 5.900974 -2.233273
vt 1.000974 0.1999137
vt 5.901104 0.2030209
vt 1.000713 -2.236084
vt 4 0.9999981
vt 4.699993 1.907349E-06
vt 3.999996 0
vt 4.699997 1
vt 10.30029 11.99972
vt 4 12
vt 6.199997 0.9997177
vt 4.700001 0.1599617
vt 6.199997 0.1605587
vt 6.199997 0
vt 15.20029 11.99677
vt 16 12
vt 16 0
vt 0.05 0
vt 0.05 0.2
vt 12.05 0
vt 12.05 0.2
vt 0 12.05
vt 0.05 12.05
vt 0.04999733 -12.05
vt 0 -12.05
vt 0.0002939738 0.04688835
vt 0.05029323 0.04528189
vt -0.04988766 0.2
vt 11.00011 0
vt -0.04988766 0
vt 11.00011 0.2
vt 0.05000091 0.9500008
vt 0 12
vt 0.04999995 12
vt 0 0.9500008
vt -0.05047172 12
vt -0.05047267 0.9500003
vt -0.05047083 12.04995
vt 6.299814 11.99953
vt 6.201867 12.04919
vt 6.350285 0
vt 6.350161 0.2000002
vt -2.384186E-07 0.05000162
vt 6.350286 0.05000019
vt 0.05079082 0.2009823
vt 1.000791 0.0009823442
vt 0.05079082 0.0009823442
vt 1.000791 0.2009823
vt 0.75 0.2
vt 0.75 0.05
vt 9.8 0
vt 9.8 0.2
vt 9.8 0.05
vt 0.8 0.2
vt 0.8000002 0.05000019
vt 0.0002942085 0.003110886
vt 0.04528141 0
vt 0.04528141 0.2
vt 0 0.04528141
vt 0.04999924 0.04688859
vt 13.15689 4.1
vt 14.15689 0
vt 13.15689 0
vt 14.15689 4.1
vt 0 10.6
vt 1 10.6
vt 0 4.1
vt 1 1.7
vt 0 1.7
vt 1 4.1
vt 15 3.795002
vt 16 1.4
vt 15 1.400002
vt 16 3.795
vt 6.199997 1
vt 5.599998 10.6
vt 12 10.6
vt 2.7495 0.55
vt -2.7495 0.5500009
vt -0.5 2.050002
vt 0.5 2.050002
vt 11.92325 12.04623
vt 6.322733 11.99905
vt 6.223248 12.04905
vt 11.92296 11.99934
vt 4.9 0
vt 0.04084611 1.862645E-07
vt 4.859161 2.011657E-07
vt 0 12.87347
vt 12.5 6.373474
vt 0 6.373474
vt 12.5 12.87347
vt 12.5 -0.1265249
vt -4.768372E-07 -0.1265249
vt 9.802393 6.211021
vt 2.983236 2.952081
vt 3.10387 6.44253
vt 9.681759 2.720572
vt 0.1368542 6.252914
vt 12.63685 6.302915
vt 12.63685 6.252914
vt 0.1368542 6.302915
vt 0 0.05593014
vt 12.5 0.1059301
vt 12.5 0.05593014
vt 0 0.1059301
vt 0.03188133 13
vt 0 6.5
vt 0 13
vt 0.03188133 6.5
vt 12.46812 12.96578
vt 12.46812 13
vt 0.03188133 12.96578
vt 9.545605 6.655308
vt 9.5625 9.991093
vt 9.5625 6.655308
vt 9.545605 9.991093
vt 3.534791 -2.825495
vt 3.214138 3.674506
vt 3.234138 3.674506
vt 3.514791 -2.825495
vt 9.90968 3.333081
vt 9.590323 -3.174003
vt 9.81852 3.316393
vt 9.681484 -3.157315
vt 10.58503 -3.19025
vt 10.80931 3.2895
vt 10.89696 3.303527
vt 10.49739 -3.204277
vt 3.306477 3.270244
vt 3.627131 -3.229756
vt 3.607131 -3.229756
vt 3.326477 3.270244
vt 0.4330127 11.97
vt 0.2165064 0.03
vt 0.2165064 11.97
vt 0.4330127 0.03
vt 1.375 11.97
vt -1.125 0.03
vt -1.125 11.97
vt 1.375 0.03
vt 0.01494218 11.97
vt -0.2015642 0.03
vt -0.2015642 11.97
vt 0.01494218 0.03
vt -37.40742 0.1470692
vt -36.29587 0.1507421
vt -37.42197 -0.05839515
vt -36.41646 0.3311124
vt -37.20568 0.1560211
vt -38.26639 0.4240227
vt -37.11526 0.3416176
vt -38.21868 0.2285385
vt -0.9774323 -0.026577
vt 1.378601 0.05629349
vt -1.053185 -0.41605
vt 1.332695 0.4460487
vt -1.151146 -0.02857971
vt 1.377502 0.05011749
vt -1.040909 -0.432312
vt 1.156004 0.4041634
vt 40.57283 1.809327
vt 41.55411 1.321795
vt 40.44665 1.648333
vt 41.54739 1.521973
vt 1.103533 -4.396942
vt -1.254648 -4.382271
vt 1.195408 -4.010948
vt -1.224937 -4.773617
vt 41.55195 -1.523779
vt 40.44666 -1.648329
vt 41.54407 -1.317812
vt 40.58622 -1.814631
vt 1.279522 -4.121292
vt -1.250004 -4.078964
vt 1.188721 -3.712749
vt -1.045689 -4.443214
vt 1.071275 0.06741142
vt 3.890557 -0.03258991
vt 1.071275 -0.03258967
vt 3.890557 0.06741118
vt 1.188945 1.268411
vt 1.012259 -0.9364834
vt 1.088945 1.268411
vt 1.11226 -0.9364831
vt 1.911055 1.377616
vt 1.887741 -0.8272777
vt 1.811055 1.377616
vt 1.987741 -0.8272777
vt 3.828729 -0.1451313
vt 1.009442 2.061099
vt 3.828728 2.061099
vt 1.009442 -0.1451316
vt 1.430511E-06 0.03730464
vt 4.900002 0.03730476
vt 0.04084826 2.962697
vt 0.04084635 0.03730524
vt 3.33786E-06 2.962696
vt 0 3
vt 4.900003 2.962696
vt 4.9 3
vt 3.849858 -0.03023291
vt 3.890698 2.101432
vt 3.890702 -0.03023386
vt 3.849853 2.101432
vt 1.395896 0.4520648
vt -1.317785 0.2407998
vt -1.12474 0.4359768
vt 0.1463566 0.2407995
vt -1.124739 0.04562275
vt 2.587258 0.2406835
vt 1.395896 0.02952849
vt 1.71417 0.2165064
vt -0.99951 0.4277717
vt 1.521125 0.4116834
vt 0.2500286 0.2165064
vt -2.190872 0.2163907
vt -0.9995111 0.005235562
vt 1.521125 0.02132935
vt 0.02060342 -0.0475769
vt 0.02939701 0.0475769
vt 0.05439687 0.004275322
vt 0.004396915 0.004275322
vt 0.02060318 0.03902531
vt -0.04560328 0.004275322
vt -0.02060342 0.0475769
vt -0.05439687 -0.004275322
vt 0.02939701 -0.03902531
vt -0.02060318 -0.03902531
vt 0.0250001 0.25
vt -0.02499986 -0.25
vt -0.02499986 0.25
vt 0.0250001 -0.25
vt -0.0250001 -0.25
vt -0.0250001 0.25
vt 0.02499962 0.25
vt 0.02499962 -0.25
vt 0.08647203 -0.3413491
vt 0.04780579 -0.3727355
vt -0.05913901 -0.3745234
vt -0.02500033 -0.2201467
vt 0.02499986 -0.2201467
vt -0.09780502 -0.3431375
vt -0.04780579 -0.3701243
vt -0.0250001 -0.247279
vt 0.02499962 -0.2472792
vt -0.08647203 -0.338991
vt 0.0250001 -0.3603444
vt -0.0250001 -0.1844716
vt 0.0250001 -0.1844716
vt -0.02499962 -0.3603446
vt 0.09780455 -0.3466308
vt -0.02500057 -0.223691
vt 0.0250001 -0.223691
vt 0.0591383 -0.378132
vt 0.02499962 -0.3297335
vt -0.0250001 -0.2193257
vt 0.0250001 -0.2193257
vt -0.02499962 -0.3297335
vt -0.2316328 -0.436636
vt -0.09380531 -0.3083997
vt -0.05835712 -0.3436615
vt -0.2420072 -0.3877244
vt -0.2174149 -0.4336669
vt -0.1046207 -0.3191202
vt -0.06918502 -0.3543949
vt -0.2277722 -0.3847518
vt 0.02499962 -0.4106761
vt -0.02499962 -0.2140326
vt 0.02499962 -0.2140326
vt -0.02499962 -0.4106761
vt 0.2420018 -0.3878777
vt 0.05836272 -0.3437688
vt 0.09381986 -0.3085158
vt 0.2316151 -0.4367867
vt 0.22771 -0.3849068
vt 0.06913364 -0.3544939
vt 0.1045818 -0.3192315
vt 0.2173355 -0.4338186
vt 0.02499962 -0.3819631
vt -0.0250001 -0.2424145
vt 0.02499962 -0.2424146
vt -0.02499962 -0.3819631
vt -0.3199731 -0.4748659
vt -0.2421883 -0.3841801
vt -0.2324359 -0.4332197
vt -0.3512587 -0.4358635
vt -0.3292739 -0.4823225
vt -0.2299213 -0.381634
vt -0.2201858 -0.4306769
vt -0.3605459 -0.4433091
vt 0.02499962 -0.4931395
vt -0.02499962 -0.3962003
vt 0.0250001 -0.3961992
vt -0.02499962 -0.4931395
vt 0.3512282 -0.4360821
vt 0.2324069 -0.4333775
vt 0.2421844 -0.3843429
vt 0.3199229 -0.4750686
vt 0.3604685 -0.4434481
vt 0.2201128 -0.4307675
vt 0.2298655 -0.3817282
vt 0.3291832 -0.4824507
vt 0.02499962 -0.5153053
vt -0.02499962 -0.3708527
vt 0.02499962 -0.3708527
vt -0.02499962 -0.5153053
vt -0.3259308 -0.5598159
vt -0.3354065 -0.4909518
vt -0.300699 -0.5269432
vt -0.3757281 -0.5560801
vt -0.3280108 -0.5841122
vt -0.3229308 -0.4829788
vt -0.288039 -0.5187915
vt -0.377862 -0.5806668
vt 0.02499962 -0.6389757
vt -0.02499962 -0.5974609
vt 0.02499962 -0.5974609
vt -0.02499962 -0.6389757
vt 0.3812764 -0.5477815
vt 0.3059182 -0.5198696
vt 0.3400807 -0.4833606
vt 0.3316967 -0.5524113
vt 0.3816596 -0.5795021
vt 0.2915405 -0.5181098
vt 0.3262478 -0.4821184
vt 0.3318621 -0.5832381
vt 0.0250001 -0.6913395
vt -0.02499962 -0.5792666
vt 0.02499962 -0.5792666
vt -0.02499962 -0.6913397
vt -0.3215065 -3.831926
vt -0.3658226 -0.543043
vt -0.3159015 -0.545849
vt -0.3714275 -3.82912
vt -0.3213568 -3.829206
vt -0.3656716 -0.5403461
vt -0.3157516 -0.5431521
vt -0.3712773 -3.8264
vt 0.02500057 -3.83247
vt -0.0250001 -0.5463464
vt 0.02499962 -0.5463464
vt -0.02499866 -3.83247
vt 0.371429 -3.82912
vt 0.3159008 -0.5458491
vt 0.3658228 -0.5430431
vt 0.3215079 -3.831926
vt 0.3712759 -3.8264
vt 0.3157513 -0.5431522
vt 0.3656723 -0.5403462
vt 0.3213539 -3.829206
vt 0.02499866 -3.827028
vt -0.0250001 -0.5409045
vt 0.02499914 -0.5409045
vt -0.02500057 -3.827028
vt -0.0194068 10.31361
vt 0.01941061 -2
vt -0.01941156 -2
vt 0.0194149 10.31361
vt -0.01553273 10.31362
vt 0.01552916 -2
vt -0.01552868 -2
vt 0.01552534 10.31362
vt 0 0.07500005
vt 0.02999997 0.05196142
vt 0 0.0600009
vt 0.03750038 0.06495214
vt 0.05196142 0.02999997
vt 0.0649519 0.0374999
vt 0.05999994 -1.192093E-07
vt 0.07499981 -2.384186E-07
vt 0.05196142 -0.02999997
vt 0.0649519 -0.03750014
vt 0.02999997 -0.05196142
vt 0.03750038 -0.06495225
vt 0 -0.05999994
vt 0 -0.07500005
vt 0 0.05999994
vt -0.03750002 0.0649519
vt 0 0.07499993
vt -0.03000259 0.05195856
vt -0.0649519 0.03749979
vt -0.05196178 0.02999997
vt -0.07500005 -1.192093E-07
vt -0.06000006 -1.192093E-07
vt -0.0649519 -0.03750002
vt -0.05196381 -0.03000307
vt -0.03750002 -0.0649519
vt -0.03000259 -0.05196464
vt -2.861023E-06 -0.06000423
vt 0.05999684 10.31361
vt 0.07499981 -2
vt 0.06000042 -2
vt 0.07499623 10.31361
vt -0.0750041 10.31362
vt -0.05999994 -2
vt -0.07499981 -2
vt -0.06000376 10.31361
vt -0.0150001 0.02499998
vt 0.0150001 -0.02499974
vt -0.0150001 -0.02499974
vt 0.0150001 0.02499998
vt 0.04711556 -0.06477559
vt 0.02379322 -0.08364511
vt 0.07831395 -0.09074402
vt 0.07646883 -0.1206871
vt 0.1135511 -0.07749069
vt 0.1265988 -0.1045046
vt 0.1252146 -0.04245007
vt 0.1561098 -0.03715289
vt -0.02379322 -0.08364499
vt -0.04711556 -0.06477547
vt -0.07646883 -0.1206871
vt -0.07831395 -0.09074402
vt -0.1265988 -0.1045046
vt -0.1135511 -0.07749069
vt -0.1561098 -0.03715289
vt -0.1252146 -0.04245007
vt 0.01499891 -0.08289009
vt -0.0150001 -0.01257533
vt 0.0150001 -0.01257533
vt -0.01499891 -0.08289009
vt 0.01499891 -0.07999676
vt -0.0150001 -0.02887425
vt 0.0150001 -0.02887425
vt -0.01499891 -0.07999676
vt -0.01499939 0.1319731
vt 0.01499939 0.06757729
vt -0.01499939 0.06757729
vt 0.01499939 0.1319731
vt -0.01499939 0.118244
vt 0.01499939 0.07765228
vt -0.01499939 0.07765228
vt 0.01499939 0.118244
vt -0.01499939 0.08837354
vt 0.01499939 0.03569615
vt -0.01499939 0.03569615
vt 0.01499939 0.08837354
vt -0.01499939 0.07900262
vt 0.01499939 0.04135537
vt -0.01499939 0.04135537
vt 0.01499939 0.07900262
vt -0.01499939 0.0286212
vt 0.01499939 -0.04491234
vt -0.01499939 -0.04491234
vt 0.01499939 0.0286212
vt -0.01499939 -0.0007295609
vt 0.01499939 -0.0376606
vt -0.01499939 -0.0376606
vt 0.01499939 -0.0007295609
vt -0.01499987 0.02499998
vt 0.01499987 -0.02499998
vt -0.01499987 -0.02499998
vt 0.01499987 0.02499998
vt -0.01499987 -0.01257533
vt 0.01499987 -0.01257533
vt -0.01499987 -0.02887425
vt 0.01499987 -0.02887425
vt -0.01940925 4.390958
vt 0.01941293 4.390958
vt -0.01553082 4.390957
vt 0.01552725 4.390957
vt 0.05196095 0.03000045
vt 0.0649519 0.03750002
vt 0.07500005 -1.192093E-07
vt 0.0649519 -0.0374999
vt 0.03000021 -0.05196166
vt 0.05999941 4.390957
vt 0.05999994 -2
vt 0.07499951 4.390957
vt -0.07500065 4.390958
vt -0.07500029 -2
vt -0.06000031 4.390958
vt 0.1536469 -0.03030539
vt -0.1536469 -0.03030539
vt -0.01499939 0.02414966
vt 0.01499939 -0.05482578
vt -0.01499939 -0.05482578
vt 0.01499939 0.02414966
vt -0.02499914 -0.1945152
vt 0.04999995 -0.1512136
vt 0.02500057 -0.1945133
vt 4.768372E-07 -0.1512136
vt 0.0250001 -0.1079121
vt -0.04999924 -0.1512146
vt -0.02499962 -0.107914
vt 0 3.8
vt 0.2199998 3.630001
vt 0 3.630001
vt 0.2199998 3.8
vt 0.1897287 3.600031
vt -0.002248213 3.629906
vt 0.2168471 3.644215
vt 0.03038636 3.589625
vt 0.1900308 0.03027177
vt 0.2199057 0.2222481
vt 0.2342137 0.003152847
vt 0.179625 0.1896133
vt 0.02996922 0.1897283
vt 9.417534E-05 -0.002248108
vt -0.0142138 0.2168471
vt 0.04037499 0.03038663
vt 0.009999514 3.8
vt 0.2100003 -1.192093E-07
vt 0.009999037 -1.192093E-07
vt 0.2100008 3.8
vt 2.384186E-07 0.1700001
vt 0.2199996 0
vt 0.2199996 0.1700001
vt 0.03027153 0.1999693
vt 0.2222476 0.1700943
vt 0.003153324 0.155786
vt 0.1896133 0.2103753
vt -2.7495 1.55
vt 2.7495 1.55
vt 2.7495 -1.55
vt -2.7495 -1.55

vn -1 0 1.064369E-07
vn 1 0 -2.128737E-07
vn 0 -1 0
vn 0 1 0
vn -8.278422E-08 0 1
vn -7.756189E-08 0.7071068 0.7071068
vn -0.7071068 0 0.7071067
vn 0.7071066 0 0.7071069
vn -7.756189E-08 -0.7071068 0.7071067
vn 4.367359E-05 -0.000281109 0.9999999
vn 0 0 -1
vn -1.123139E-07 -0.9742837 0.225325
vn 7.845023E-07 -0.2252412 -0.974303
vn 5.2123E-08 -0.9742678 -0.2253934
vn -2.264735E-07 -0.225332 0.974282
vn 1.147405E-08 -0.9912832 -0.1317487
vn -1.733765E-07 -0.09598248 0.995383
vn 0.03212768 0 0.9994838
vn 0.0003025536 -0.001054011 0.9999994
vn 0.9999948 0 -0.003243454
vn 2.188192E-05 -0.0007027336 0.9999998
vn 0.999979 0 -0.006486598
vn 0.9999973 0.002330851 0.0003083199
vn 0.9999998 -0.0007061825 -9.499206E-05
vn 0 0 0
vn -5.157277E-08 0.9742837 0.2253249
vn 1.11741E-07 0.9742837 -0.2253249
vn -1.57594E-07 0.4999997 0.8660256
vn 1.882628E-07 0.5000005 -0.8660251
vn 0.6546475 0.6546578 -0.3779679
vn 0.6546471 0.6546588 0.3779671
vn 0.6796868 -0.005774172 0.7326587
vn 0.6546282 0 0.7559511
vn 0.7047455 -0.01154834 0.7093663
vn 0.6782023 -0.006177737 -0.7338938
vn 0.705364 0 -0.7088453
vn 0.6510406 -0.01235547 -0.7589423
vn -0.6546431 0.6546608 -0.3779704
vn -0.6796929 -0.005772745 -0.7326534
vn -0.65464 0 -0.7559407
vn -0.7047457 -0.01154549 -0.7093661
vn -0.654637 0.6546649 0.3779741
vn -0.6782103 -0.006180001 0.7338858
vn -0.705381 0 0.7088284
vn -0.6510395 -0.01236 0.7589433
vn -1.103959E-08 0.9914427 0.1305423
vn 2.054884E-08 -0.9953818 -0.09599546
vn 1.624E-08 -0.9953794 -0.09601966
vn 0.1782642 0.755913 0.6299344
vn 0.4564323 0.7559251 -0.4693047
vn 0.839551 0.5000034 0.212487
vn -0.6346662 0.7559182 -0.1605819
vn -0.2357981 0.5000169 -0.8332961
vn -0.603737 0.500015 0.6208757
vn 0.9673027 0.01058581 0.2534037
vn 0.686141 -0.2557961 -0.6810131
vn -0.287354 -0.2560721 -0.9229597
vn -0.9668569 0.0001241095 -0.2553191
vn -0.6800134 0.3068112 0.6659195
vn -0.6054922 0.6901615 0.3963033
vn -0.9665655 -0.00431758 -0.2563836
vn 0.2978167 0.2925278 0.9086984
vn 0.6213834 -0.6600115 -0.4222175
vn 0.9680333 0.01059289 0.2505981
vn 0.3601145 0.6888292 0.6291518
vn -0.354322 -0.6558817 -0.6665397
vn 0.5605052 -0.7997383 -0.2150638
vn 0.9694551 0.0005362561 0.2452682
vn 0.3918666 0.8003924 0.4536657
vn -0.391295 -0.7994817 -0.4557599
vn -0.9693403 -0.000476971 -0.2457216
vn -0.5600339 0.8006391 0.2129296
vn 0.6094642 -0.7094392 -0.353906
vn 0.969126 -0.009585208 0.2463794
vn 0.3550633 0.6687953 0.653179
vn -0.3527136 -0.7083123 -0.6114628
vn -0.9713483 0.001640985 -0.2376545
vn -0.6267378 0.6657892 0.4048758
vn 0.696384 -0.3062847 -0.6490293
vn 0.9705708 -0.007806654 0.2406895
vn 0.2837867 0.2534774 0.924778
vn -0.2883729 -0.3245189 -0.9008488
vn -0.9714153 -0.006655192 -0.2372929
vn -0.6921095 0.2553017 0.6751336
vn 0.61012 -0.5125757 -0.6041685
vn 0.622434 -0.7545017 0.2080939
vn 0.1616966 -0.7336243 0.6600376
vn -0.1953598 -0.7765634 -0.5989857
vn -0.6464766 -0.7545037 -0.1131024
vn -0.5975422 -0.4860744 0.6377108
vn -8.332946E-07 -0.2588604 0.9659148
vn -8.353035E-07 -0.5000073 0.8660212
vn 9.081052E-07 0.2588779 -0.9659101
vn -6.968608E-07 -0.8660178 0.5000133
vn 7.393819E-07 0.866019 -0.5000111
vn 1.098036E-07 -0.8660195 -0.5000103
vn -9.563969E-08 0.8660148 0.5000184
vn 5.590426E-07 -0.5000035 -0.8660234
vn 5.732201E-07 -0.4999997 -0.8660256
vn -5.590354E-07 0.5000135 0.8660176
vn 7.37692E-07 -0.2588604 -0.9659148
vn -7.002856E-07 0.2588636 0.9659139
vn 0 -0.5516745 0.8340595
vn 0 0.6281414 -0.7780992
vn 0 -0.8180191 0.5751911
vn 0 0.7686039 -0.639725
vn 0 -0.9516469 -0.3071942
vn 0 0.9359977 0.352006
vn 0 -0.4013104 -0.9159421
vn 0 0.3157232 0.9488513
vn 0 0.9360291 0.3519226
vn -3.039317E-07 -0.4999965 0.8660275
vn -3.515129E-07 -0.8660281 0.4999954
vn 4.521851E-07 0.8660297 -0.4999925
vn -2.211554E-07 -0.8660258 -0.4999993
vn 0 -0.5517085 -0.834037
vn 0 0.6281968 0.7780545
vn 1.142888E-06 -0.8179982 -0.5752208
vn 0 0.7685994 0.6397305
vn -6.103508E-07 -0.9516475 0.3071923
vn 0 0.9359877 -0.3520329
vn 0 -0.3424891 0.9395218
vn 0 0.3158334 -0.9488147
vn -0.01589884 -0.9978987 0.06281283
vn 0 -0.7071068 -0.7071068
vn 0.7071068 -0.7071068 0
vn -0.7071068 -0.7071068 0
vn 0.7071068 0.7071068 0
vn -0.7071068 0.7071068 0
vn 0 0.7071068 -0.7071068

usemtl JPBM6Metal003_2KMat
f 4/4/1 3/3/1 2/2/1 1/1/1
f 8/8/2 7/7/2 6/6/2 5/5/2
f 5/6/3 4/10/3 1/9/3 8/7/3
f 3/12/4 6/3/4 7/2/4 2/11/4

usemtl JPBM11LampMatOn
f 12/15/5 11/7/5 10/14/5 9/13/5
f 3/12/6 10/17/6 11/16/6 6/3/6
f 10/16/7 3/3/7 4/4/7 9/18/7
f 6/6/8 11/20/8 12/19/8 5/5/8
f 5/6/9 12/20/9 9/21/9 4/10/9

usemtl Planks037A_1K
f 25/33/1 49/58/1 23/7/1
f 46/63/11 50/59/11 42/62/11
f 52/64/11 50/59/11 46/63/11
f 53/65/11 52/64/11 46/63/11
f 52/64/11 53/65/11 56/68/11
f 63/78/2 62/77/2 61/75/2
f 13/22/2 15/24/2 14/23/2
f 14/23/2 59/71/2 13/22/2
f 16/25/5 18/27/5 17/26/5
f 17/26/5 19/28/5 16/25/5
f 20/29/5 16/25/5 21/30/5
f 21/30/5 22/31/5 20/29/5
f 23/7/5 22/31/10 24/32/5
f 24/32/5 25/33/5 23/7/5
f 26/34/5 27/35/5 24/32/5
f 24/32/5 28/30/5 26/34/5
f 29/36/5 26/34/5 30/37/5
f 30/37/5 31/38/5 29/36/5
f 32/39/5 25/33/5 33/40/5
f 33/40/5 30/37/5 32/39/5
f 34/41/5 35/42/5 32/39/5
f 32/39/5 36/43/5 34/41/5
f 36/43/5 38/45/5 37/44/5
f 37/44/5 13/46/5 36/43/5
f 13/46/5 37/44/5 39/47/5
f 39/47/5 15/48/5 13/46/5
f 39/47/5 38/45/5 40/49/5
f 40/49/5 41/50/5 39/47/5
f 42/51/1 44/53/1 43/52/1
f 43/52/1 45/54/1 42/51/1
f 46/55/1 42/51/1 45/54/1
f 45/54/1 47/56/1 46/55/1
f 35/42/1 47/56/1 45/54/1
f 45/54/1 32/39/1 35/42/1
f 25/33/1 32/39/1 45/54/1
f 45/54/1 48/57/1 25/33/1
f 49/58/1 48/57/1 43/52/1
f 43/52/1 23/7/1 49/58/1
f 50/59/11 51/61/11 44/60/11
f 44/60/11 42/62/11 50/59/11
f 54/66/11 50/59/11 52/64/11
f 52/64/11 55/67/11 54/66/11
f 57/69/11 52/64/11 56/68/11
f 56/68/11 58/70/11 57/69/11
f 36/72/2 13/74/2 60/73/2
f 60/73/2 61/75/2 36/72/2
f 34/76/2 36/72/2 61/75/2
f 61/75/2 62/77/2 34/76/2
f 63/78/2 14/80/2 58/79/2
f 58/79/2 56/81/2 63/78/2
f 62/77/2 63/78/2 56/81/2
f 56/81/2 53/82/2 62/77/2
f 64/83/2 63/78/2 61/75/2
f 61/75/2 65/84/2 64/83/2
f 66/85/4 67/87/4 48/86/4
f 48/86/4 49/88/4 66/85/4
f 68/89/3 70/91/3 69/90/3
f 69/90/3 71/92/3 68/89/3
f 72/9/5 74/7/5 73/93/5
f 73/93/5 75/94/5 72/9/5
f 76/95/1 77/97/1 74/96/1
f 74/96/1 72/98/1 76/95/1
f 75/99/2 73/101/2 78/100/2
f 78/100/2 79/102/2 75/99/2
f 76/93/4 72/104/4 75/103/4
f 75/103/4 79/7/4 76/93/4
f 74/103/3 77/7/3 78/93/3
f 78/93/3 73/104/3 74/103/3

usemtl Wood062_1KMat
f 18/108/3 81/107/3 80/106/3 17/105/3
f 83/112/1 82/111/1 41/110/1 40/109/1
f 16/113/2 20/111/2 85/110/2 84/109/2
f 33/117/2 87/116/2 86/115/2 30/114/2
f 89/121/1 27/120/1 26/119/1 88/118/1
f 93/125/12 92/124/12 91/123/12 90/122/12
f 95/129/1 94/128/1 91/127/1 92/126/1
f 97/131/1 95/129/1 92/126/1 96/130/1
f 90/135/13 91/134/13 94/133/13 98/132/13
f 93/136/2 90/130/2 98/131/2 99/129/2
f 101/127/2 93/136/2 99/129/2 100/128/2
f 96/138/14 92/124/14 93/125/14 101/137/14
f 100/133/15 97/132/15 96/135/15 101/134/15
f 105/142/16 104/141/16 103/140/16 102/139/16
f 107/146/2 106/145/2 103/144/2 104/143/2
f 109/150/1 108/149/1 105/148/1 102/147/1
f 106/154/17 109/153/17 102/152/17 103/151/17
f 112/158/5 111/157/5 110/156/5 74/155/5
f 114/158/1 112/157/1 74/156/1 113/155/1
f 116/158/11 114/157/11 113/156/11 115/155/11
f 111/158/2 116/157/2 115/156/2 110/155/2
f 114/162/3 116/161/3 111/160/3 112/159/3
f 119/158/5 118/157/5 73/156/5 117/155/5
f 121/158/1 119/157/1 117/156/1 120/155/1
f 123/158/11 121/157/11 120/156/11 122/155/11
f 118/158/2 123/157/2 122/156/2 73/155/2
f 121/162/3 123/161/3 118/160/3 119/159/3
f 127/166/5 126/165/5 125/164/5 124/163/5
f 129/158/1 127/157/1 124/156/1 128/155/1
f 131/166/11 129/165/11 128/164/11 130/163/11
f 126/158/2 131/157/2 130/156/2 125/155/2
f 129/170/3 131/169/3 126/168/3 127/167/3
f 135/166/5 134/165/5 133/164/5 132/163/5
f 137/158/1 135/157/1 132/156/1 136/155/1
f 139/166/11 137/165/11 136/164/11 138/163/11
f 134/158/2 139/157/2 138/156/2 133/155/2
f 137/170/3 139/169/3 134/168/3 135/167/3

usemtl JPBM8concrete03Mat
f 39/199/3 22/193/3 57/198/3
f 140/171/18 142/173/18 141/172/18
f 141/172/18 143/174/18 140/171/18
f 144/175/5 146/7/5 145/176/5
f 145/176/5 147/177/5 144/175/5
f 148/175/1 149/7/1 146/178/1
f 146/178/1 144/179/1 148/175/1
f 147/175/2 145/7/2 150/178/2
f 150/178/2 151/179/2 147/175/2
f 148/176/4 144/181/4 147/180/4
f 147/180/4 151/7/4 148/176/4
f 146/180/3 149/7/3 150/176/3
f 150/176/3 145/181/3 146/180/3
f 152/182/19 154/183/19 153/176/10
f 153/176/10 155/184/10 152/182/19
f 156/185/4 152/187/4 155/186/4
f 155/186/4 157/188/4 156/185/4
f 158/189/3 44/191/3 51/190/3
f 51/190/3 159/192/3 158/189/3
f 158/189/3 159/192/3 22/193/3
f 22/193/3 23/194/3 158/189/3
f 22/193/3 159/192/3 160/195/3
f 160/195/3 57/198/3 22/193/3
f 160/195/3 159/192/3 161/196/3
f 161/196/3 162/197/3 160/195/3
f 15/200/3 39/199/3 57/198/3
f 57/198/3 58/201/3 15/200/3
f 163/171/11 165/7/11 164/202/11
f 164/202/11 166/203/11 163/171/11
f 167/171/20 168/7/20 165/204/2
f 165/204/2 163/205/2 167/171/20
f 166/202/4 169/207/4 167/206/4
f 167/206/4 163/7/4 166/202/4
f 15/7/3 164/209/3 165/208/3
f 165/208/3 168/172/3 15/7/3
f 142/210/3 15/7/3 168/172/3
f 168/172/3 141/211/3 142/210/3
f 170/212/1 172/214/1 171/213/1
f 171/213/1 173/215/1 170/212/1
f 170/216/4 173/218/4 174/217/4
f 174/217/4 175/219/4 170/216/4
f 176/202/4 170/216/4 175/219/4
f 175/219/4 177/7/4 176/202/4
f 171/220/3 172/221/3 178/219/3
f 178/219/3 23/217/3 171/220/3
f 179/222/3 171/220/3 22/223/3
f 22/223/3 154/224/3 179/222/3
f 180/171/21 179/7/5 154/225/19
f 154/225/19 152/226/19 180/171/21
f 173/171/1 171/7/1 179/202/1
f 179/202/1 180/203/1 173/171/1
f 173/225/4 180/228/4 152/227/4
f 152/227/4 181/7/4 173/225/4
f 176/229/1 182/231/1 172/230/1
f 172/230/1 170/232/1 176/229/1
f 172/219/3 182/7/3 44/202/3
f 44/202/3 178/216/3 172/219/3
f 183/171/1 184/7/1 182/202/1
f 182/202/1 176/203/1 183/171/1
f 185/171/11 186/7/11 184/33/11
f 184/33/11 183/233/11 185/171/11
f 187/171/2 51/7/2 186/202/2
f 186/202/2 185/203/2 187/171/2
f 183/33/4 176/234/4 187/227/4
f 187/227/4 185/7/4 183/33/4
f 182/227/3 184/7/3 186/33/3
f 186/33/3 51/234/3 182/227/3
f 188/171/1 189/7/1 57/202/1
f 57/202/1 190/203/1 188/171/1
f 166/171/11 164/7/11 189/235/11
f 189/235/11 188/236/11 166/171/11
f 188/235/4 190/237/4 191/227/4
f 191/227/4 166/7/4 188/235/4
f 57/227/3 189/7/3 164/235/3
f 164/235/3 58/237/3 57/227/3
f 155/171/10 153/7/10 142/173/5
f 142/173/5 140/238/5 155/171/10
f 192/173/4 155/239/4 140/227/4
f 140/227/4 169/240/4 192/173/4
f 143/171/22 141/7/22 168/241/20
f 168/241/20 167/242/20 143/171/22
f 169/202/4 140/244/4 143/243/4
f 143/243/4 167/7/4 169/202/4
f 193/245/2 159/247/2 51/246/2
f 51/246/2 50/248/2 193/245/2
f 194/176/4 37/250/4 13/249/4
f 13/249/4 59/7/4 194/176/4
f 61/251/11 60/253/11 195/252/11
f 195/252/11 196/254/11 61/251/11
f 197/255/3 198/257/3 64/256/3
f 64/256/3 65/258/3 197/255/3
f 52/251/1 57/7/1 199/176/1
f 199/176/1 200/254/1 52/251/1
f 201/192/3 54/190/3 55/198/3
f 55/198/3 202/259/3 201/192/3
f 24/260/4 66/85/4 49/88/4
f 49/88/4 25/261/4 24/260/4
f 29/262/3 31/263/3 70/91/3
f 70/91/3 68/89/3 29/262/3
f 203/264/5 204/111/5 14/110/5
f 14/110/5 63/265/5 203/264/5
f 142/266/3 154/268/3 22/267/3
f 22/267/3 15/269/3 142/266/3

usemtl JPBM11RoofingTiles015B_1K
f 207/7/23 206/7/23 205/7/23
f 210/270/24 209/270/24 208/270/24
f 108/272/25 207/7/25 107/271/25
f 106/271/25 210/270/25 109/272/25
f 211/273/26 213/275/26 212/274/26
f 212/274/26 214/276/26 211/273/26
f 213/275/27 216/278/27 215/277/27
f 215/277/27 212/274/27 213/275/27
f 217/279/12 219/281/12 218/280/12
f 218/280/12 220/282/12 217/279/12
f 221/283/5 222/285/5 211/284/5
f 211/284/5 214/286/5 221/283/5
f 220/287/11 218/289/11 215/288/11
f 215/288/11 216/290/11 220/287/11
f 223/291/14 221/293/14 219/292/14
f 219/292/14 95/294/14 223/291/14
f 100/295/14 224/296/14 223/291/14
f 223/291/14 97/297/14 100/295/14
f 99/298/14 217/300/14 222/299/14
f 222/299/14 224/301/14 99/298/14
f 212/302/1 215/304/1 218/303/1
f 218/303/1 219/305/1 212/302/1
f 212/306/1 219/308/1 221/307/1
f 221/307/1 214/309/1 212/306/1
f 216/310/2 213/312/2 217/311/2
f 217/311/2 220/313/2 216/310/2
f 222/314/2 217/316/2 213/315/2
f 213/315/2 211/317/2 222/314/2
f 225/318/28 227/320/4 226/319/4
f 226/319/4 228/321/28 225/318/28
f 229/322/5 225/324/28 228/323/28
f 228/323/28 230/325/5 229/322/5
f 231/322/29 233/324/11 232/323/11
f 232/323/11 234/325/29 231/322/29
f 227/326/4 231/328/29 234/327/29
f 234/327/29 226/329/4 227/326/4
f 235/330/30 231/332/30 227/331/30
f 227/331/30 236/333/30 235/330/30
f 236/334/31 227/336/31 225/335/31
f 225/335/31 237/337/31 236/334/31
f 237/338/32 225/340/33 229/339/32
f 229/339/32 238/341/34 237/338/32
f 239/342/35 233/344/36 231/343/35
f 231/343/35 235/345/37 239/342/35
f 240/346/38 226/348/38 234/347/38
f 234/347/38 241/349/38 240/346/38
f 241/350/39 234/352/40 232/351/39
f 232/351/39 242/353/41 241/350/39
f 243/354/42 228/356/42 226/355/42
f 226/355/42 240/357/42 243/354/42
f 244/358/43 230/360/44 228/359/43
f 228/359/43 243/361/45 244/358/43
f 245/362/17 246/364/17 206/363/17
f 206/363/17 247/365/17 245/362/17
f 248/366/1 209/368/1 246/367/1
f 246/367/1 245/369/1 248/366/1
f 247/370/2 206/372/2 249/371/2
f 249/371/2 250/373/2 247/370/2
f 248/374/46 245/376/46 247/375/46
f 247/375/46 250/377/46 248/374/46
f 208/378/47 209/7/47 249/270/47
f 249/270/47 207/379/47 208/378/47
f 208/378/16 108/381/16 109/380/16
f 109/380/16 210/382/16 208/378/16
f 246/383/48 210/382/48 205/384/48
f 205/384/48 206/385/48 246/383/48
f 107/386/16 207/388/16 205/387/16
f 205/387/16 106/389/16 107/386/16
f 237/390/2 238/392/2 251/391/2
f 251/391/2 252/393/2 237/390/2
f 252/393/2 251/391/2 239/394/2
f 239/394/2 235/396/2 252/393/2
f 236/395/2 237/390/2 252/393/2
f 252/393/2 235/396/2 236/395/2
f 253/397/1 244/399/1 243/398/1
f 243/398/1 254/400/1 253/397/1
f 254/400/1 243/398/1 240/401/1
f 240/401/1 241/402/1 254/400/1
f 253/397/1 254/400/1 241/402/1
f 241/402/1 242/403/1 253/397/1

usemtl JPBM11Plastic013BGray
f 296/665/89 295/668/88 474/667/124
f 293/669/86 294/664/87 474/667/124
f 255/404/49 257/406/51 256/405/50
f 256/405/50 258/407/4 255/404/49
f 256/408/50 260/410/53 259/409/52
f 259/409/52 258/407/4 256/408/50
f 259/411/52 261/413/54 255/412/49
f 255/412/49 258/407/4 259/411/52
f 256/414/50 257/416/51 262/415/55
f 262/415/55 263/417/56 256/414/50
f 260/414/53 256/419/50 263/418/56
f 263/418/56 264/417/57 260/414/53
f 259/414/52 260/419/53 264/418/57
f 264/418/57 265/417/58 259/414/52
f 261/420/54 259/419/52 265/418/58
f 265/418/58 266/421/59 261/420/54
f 267/422/60 266/421/59 265/418/58
f 265/418/58 268/423/61 267/422/60
f 255/414/49 261/419/54 266/418/59
f 266/418/59 269/417/62 255/414/49
f 257/414/51 255/419/49 269/418/62
f 269/418/62 262/417/55 257/414/51
f 270/424/63 263/426/56 262/425/55
f 262/425/55 271/427/64 270/424/63
f 271/428/64 262/430/55 269/429/62
f 269/429/62 272/431/65 271/428/64
f 273/432/66 264/434/57 263/433/56
f 263/433/56 270/435/63 273/432/66
f 268/436/61 265/438/58 264/437/57
f 264/437/57 273/439/66 268/436/61
f 272/440/65 269/442/62 266/441/59
f 266/441/59 267/443/60 272/440/65
f 274/444/67 270/446/63 271/445/64
f 271/445/64 275/447/68 274/444/67
f 275/448/68 271/450/64 272/449/65
f 272/449/65 276/451/69 275/448/68
f 277/452/70 273/454/66 270/453/63
f 270/453/63 274/455/67 277/452/70
f 278/456/71 268/458/61 273/457/66
f 273/457/66 277/459/70 278/456/71
f 279/460/72 267/462/60 268/461/61
f 268/461/61 278/463/71 279/460/72
f 276/464/69 272/466/65 267/465/60
f 267/465/60 279/467/72 276/464/69
f 280/468/73 274/470/67 275/469/68
f 275/469/68 281/471/74 280/468/73
f 281/472/74 275/474/68 276/473/69
f 276/473/69 282/475/75 281/472/74
f 283/476/76 277/478/70 274/477/67
f 274/477/67 280/479/73 283/476/76
f 284/480/77 278/482/71 277/481/70
f 277/481/70 283/483/76 284/480/77
f 285/484/78 279/486/72 278/485/71
f 278/485/71 284/487/77 285/484/78
f 282/488/75 276/490/69 279/489/72
f 279/489/72 285/491/78 282/488/75
f 286/492/79 280/494/73 281/493/74
f 281/493/74 287/495/80 286/492/79
f 287/496/80 281/498/74 282/497/75
f 282/497/75 288/499/81 287/496/80
f 289/500/82 283/502/76 280/501/73
f 280/501/73 286/503/79 289/500/82
f 290/504/83 284/506/77 283/505/76
f 283/505/76 289/507/82 290/504/83
f 291/508/84 285/510/78 284/509/77
f 284/509/77 290/511/83 291/508/84
f 288/512/81 282/514/75 285/513/78
f 285/513/78 291/515/84 288/512/81
f 292/516/85 286/518/79 287/517/80
f 287/517/80 293/519/86 292/516/85
f 293/520/86 287/522/80 288/521/81
f 288/521/81 294/523/87 293/520/86
f 295/524/88 289/526/82 286/525/79
f 286/525/79 292/527/85 295/524/88
f 296/528/89 290/530/83 289/529/82
f 289/529/82 295/531/88 296/528/89
f 297/532/90 291/534/84 290/533/83
f 290/533/83 296/535/89 297/532/90
f 294/536/87 288/538/81 291/537/84
f 291/537/84 297/539/90 294/536/87
f 298/540/91 300/542/91 299/541/92
f 299/541/92 301/543/92 298/540/91
f 302/544/29 304/546/29 303/545/93
f 303/545/93 305/547/93 302/544/29
f 301/540/92 299/542/92 306/541/94
f 306/541/94 307/543/94 301/540/92
f 308/544/95 309/546/95 304/545/29
f 304/545/29 302/547/29 308/544/95
f 307/540/94 306/542/94 310/541/3
f 310/541/3 311/543/3 307/540/94
f 312/544/4 313/546/4 309/545/95
f 309/545/95 308/547/95 312/544/4
f 311/540/3 310/542/3 314/541/96
f 314/541/96 315/543/96 311/540/3
f 316/544/97 317/546/97 313/545/4
f 313/545/4 312/547/4 316/544/97
f 315/540/96 314/542/96 318/541/98
f 318/541/98 319/543/99 315/540/96
f 320/544/100 321/546/100 317/545/97
f 317/545/97 316/547/97 320/544/100
f 319/540/99 318/542/98 322/541/101
f 322/541/101 323/543/101 319/540/99
f 324/544/102 325/546/102 321/545/100
f 321/545/100 320/547/100 324/544/102
f 300/548/1 303/550/1 304/549/1
f 304/549/1 299/551/1 300/548/1
f 299/551/1 304/549/1 309/552/1
f 309/552/1 306/553/1 299/551/1
f 306/553/1 309/552/1 313/554/1
f 313/554/1 310/555/1 306/553/1
f 310/555/1 313/554/1 317/556/1
f 317/556/1 314/557/1 310/555/1
f 314/557/1 317/556/1 321/558/1
f 321/558/1 318/559/1 314/557/1
f 318/559/1 321/558/1 325/560/1
f 325/560/1 322/561/1 318/559/1
f 305/562/2 298/564/2 301/563/2
f 301/563/2 302/565/2 305/562/2
f 302/565/2 301/563/2 307/566/2
f 307/566/2 308/567/2 302/565/2
f 308/567/2 307/566/2 311/568/2
f 311/568/2 312/569/2 308/567/2
f 312/569/2 311/568/2 315/570/2
f 315/570/2 316/571/2 312/569/2
f 316/571/2 315/570/2 319/572/2
f 319/572/2 320/573/2 316/571/2
f 320/573/2 319/572/2 323/561/2
f 323/561/2 324/574/2 320/573/2
f 305/575/4 303/577/4 300/576/4
f 300/576/4 298/578/4 305/575/4
f 323/579/4 322/581/4 325/580/4
f 325/580/4 324/582/4 323/579/4
f 326/583/11 328/585/11 327/584/11
f 327/584/11 329/586/11 326/583/11
f 328/584/2 326/586/2 330/583/2
f 330/583/2 331/585/2 328/584/2
f 332/587/2 328/584/2 331/585/2
f 331/585/2 333/588/2 332/587/2
f 334/589/2 332/587/2 333/588/2
f 333/588/2 335/590/2 334/589/2
f 336/591/2 334/589/2 335/590/2
f 335/590/2 337/592/2 336/591/2
f 338/593/2 336/591/2 337/592/2
f 337/592/2 339/594/2 338/593/2
f 340/583/5 341/585/5 331/584/5
f 331/584/5 330/586/5 340/583/5
f 341/584/1 340/586/1 329/583/1
f 329/583/1 327/585/1 341/584/1
f 342/595/1 341/584/1 327/585/1
f 327/585/1 343/596/1 342/595/1
f 344/597/1 342/595/1 343/596/1
f 343/596/1 345/598/1 344/597/1
f 346/599/1 344/597/1 345/598/1
f 345/598/1 347/600/1 346/599/1
f 348/601/1 346/599/1 347/600/1
f 347/600/1 349/602/1 348/601/1
f 333/603/103 331/605/103 341/604/103
f 341/604/103 342/606/103 333/603/103
f 343/607/104 327/609/104 328/608/104
f 328/608/104 332/610/104 343/607/104
f 335/611/105 333/613/105 342/612/105
f 342/612/105 344/614/105 335/611/105
f 345/615/106 343/617/106 332/616/106
f 332/616/106 334/618/106 345/615/106
f 337/619/107 335/621/107 344/620/107
f 344/620/107 346/622/107 337/619/107
f 347/623/108 345/625/108 334/624/108
f 334/624/108 336/626/108 347/623/108
f 339/627/109 337/629/109 346/628/109
f 346/628/109 348/630/109 339/627/109
f 349/631/110 347/633/110 336/632/110
f 336/632/110 338/634/110 349/631/110
f 350/583/11 352/585/11 351/584/11
f 351/584/11 353/586/11 350/583/11
f 352/584/2 350/586/2 354/583/2
f 354/583/2 355/585/2 352/584/2
f 356/587/2 352/584/2 355/585/2
f 355/585/2 357/588/2 356/587/2
f 358/589/2 356/587/2 357/588/2
f 357/588/2 359/590/2 358/589/2
f 360/591/2 358/589/2 359/590/2
f 359/590/2 361/592/2 360/591/2
f 362/593/2 360/591/2 361/592/2
f 361/592/2 363/594/2 362/593/2
f 364/583/5 365/585/5 355/584/5
f 355/584/5 354/586/5 364/583/5
f 365/584/1 364/586/1 353/583/1
f 353/583/1 351/585/1 365/584/1
f 366/595/1 365/584/1 351/585/1
f 351/585/1 367/596/1 366/595/1
f 368/597/1 366/595/1 367/596/1
f 367/596/1 369/598/1 368/597/1
f 370/599/1 368/597/1 369/598/1
f 369/598/1 371/600/1 370/599/1
f 372/601/1 370/599/1 371/600/1
f 371/600/1 373/602/1 372/601/1
f 357/603/103 355/605/103 365/604/103
f 365/604/103 366/606/103 357/603/103
f 367/607/104 351/609/104 352/608/104
f 352/608/104 356/610/104 367/607/104
f 359/611/105 357/613/105 366/612/105
f 366/612/105 368/614/105 359/611/105
f 369/615/106 367/617/106 356/616/106
f 356/616/106 358/618/106 369/615/106
f 361/619/107 359/621/107 368/620/107
f 368/620/107 370/622/107 361/619/107
f 371/623/111 369/625/111 358/624/111
f 358/624/111 360/626/111 371/623/111
f 363/627/109 361/629/109 370/628/109
f 370/628/109 372/630/109 363/627/109
f 373/631/110 371/633/110 360/632/110
f 360/632/110 362/634/110 373/631/110
f 374/635/11 376/637/11 375/636/11
f 375/636/11 377/638/11 374/635/11
f 376/584/2 374/586/2 378/583/2
f 378/583/2 379/585/2 376/584/2
f 380/587/2 376/584/2 379/585/2
f 379/585/2 381/588/2 380/587/2
f 382/589/2 380/587/2 381/588/2
f 381/588/2 383/590/2 382/589/2
f 384/591/2 382/589/2 383/590/2
f 383/590/2 385/592/2 384/591/2
f 386/593/2 384/591/2 385/592/2
f 385/592/2 387/594/2 386/593/2
f 388/635/5 389/637/5 379/636/5
f 379/636/5 378/638/5 388/635/5
f 389/584/1 388/586/1 377/583/1
f 377/583/1 375/585/1 389/584/1
f 390/595/1 389/584/1 375/585/1
f 375/585/1 391/596/1 390/595/1
f 392/597/1 390/595/1 391/596/1
f 391/596/1 393/598/1 392/597/1
f 394/599/1 392/597/1 393/598/1
f 393/598/1 395/600/1 394/599/1
f 396/601/1 394/599/1 395/600/1
f 395/600/1 397/602/1 396/601/1
f 381/603/103 379/640/103 389/639/103
f 389/639/103 390/606/103 381/603/103
f 391/607/104 375/642/104 376/641/104
f 376/641/104 380/610/104 391/607/104
f 383/611/105 381/613/105 390/612/105
f 390/612/105 392/614/105 383/611/105
f 393/615/106 391/617/106 380/616/106
f 380/616/106 382/618/106 393/615/106
f 385/619/107 383/621/107 392/620/107
f 392/620/107 394/622/107 385/619/107
f 395/623/108 393/625/108 382/624/108
f 382/624/108 384/626/108 395/623/108
f 387/627/109 385/629/109 394/628/109
f 394/628/109 396/630/109 387/627/109
f 397/631/110 395/633/110 384/632/110
f 384/632/110 386/634/110 397/631/110
f 398/643/91 400/542/91 399/541/112
f 399/541/112 401/644/112 398/643/91
f 402/645/29 404/546/29 403/545/93
f 403/545/93 405/646/93 402/645/29
f 401/643/112 399/542/112 406/541/113
f 406/541/113 407/644/113 401/643/112
f 408/645/114 409/546/95 404/545/29
f 404/545/29 402/646/29 408/645/114
f 407/643/113 406/542/113 410/541/3
f 410/541/3 411/644/3 407/643/113
f 412/645/4 413/546/4 409/545/95
f 409/545/95 408/646/114 412/645/4
f 411/643/3 410/542/3 414/541/115
f 414/541/115 415/644/115 411/643/3
f 416/645/97 417/546/97 413/545/4
f 413/545/4 412/646/4 416/645/97
f 415/643/115 414/542/115 418/541/98
f 418/541/98 419/644/98 415/643/115
f 420/645/100 421/546/100 417/545/97
f 417/545/97 416/646/97 420/645/100
f 419/643/98 418/542/98 422/541/101
f 422/541/101 423/644/101 419/643/98
f 424/645/102 425/546/102 421/545/100
f 421/545/100 420/646/100 424/645/102
f 400/548/1 403/550/1 404/549/1
f 404/549/1 399/551/1 400/548/1
f 399/551/1 404/549/1 409/647/1
f 409/647/1 406/648/1 399/551/1
f 406/648/1 409/647/1 413/554/1
f 413/554/1 410/649/1 406/648/1
f 410/649/1 413/554/1 417/556/1
f 417/556/1 414/650/1 410/649/1
f 414/650/1 417/556/1 421/651/1
f 421/651/1 418/559/1 414/650/1
f 418/559/1 421/651/1 425/560/1
f 425/560/1 422/561/1 418/559/1
f 405/562/2 398/564/2 401/563/2
f 401/563/2 402/565/2 405/562/2
f 402/565/2 401/563/2 407/566/2
f 407/566/2 408/567/2 402/565/2
f 408/567/2 407/566/2 411/568/2
f 411/568/2 412/569/2 408/567/2
f 412/569/2 411/568/2 415/570/2
f 415/570/2 416/571/2 412/569/2
f 416/571/2 415/570/2 419/572/2
f 419/572/2 420/573/2 416/571/2
f 420/573/2 419/572/2 423/561/2
f 423/561/2 424/574/2 420/573/2
f 405/652/4 403/653/4 400/576/4
f 400/576/4 398/654/4 405/652/4
f 423/655/4 422/656/4 425/580/4
f 425/580/4 424/657/4 423/655/4
f 426/583/5 428/585/5 427/636/5
f 427/636/5 429/638/5 426/583/5
f 428/636/1 426/638/1 430/583/1
f 430/583/1 431/585/1 428/636/1
f 432/587/1 428/636/1 431/585/1
f 431/585/1 433/588/1 432/587/1
f 434/589/1 432/587/1 433/588/1
f 433/588/1 435/590/1 434/589/1
f 436/591/1 434/589/1 435/590/1
f 435/590/1 437/592/1 436/591/1
f 438/593/1 436/591/1 437/592/1
f 437/592/1 439/658/1 438/593/1
f 440/635/11 441/637/11 431/584/11
f 431/584/11 430/586/11 440/635/11
f 441/584/2 440/586/2 429/635/2
f 429/635/2 427/637/2 441/584/2
f 442/595/2 441/584/2 427/637/2
f 427/637/2 443/596/2 442/595/2
f 444/597/2 442/595/2 443/596/2
f 443/596/2 445/598/2 444/597/2
f 446/599/2 444/597/2 445/598/2
f 445/598/2 447/600/2 446/599/2
f 448/659/2 446/599/2 447/600/2
f 447/600/2 449/602/2 448/659/2
f 433/603/116 431/605/116 441/639/116
f 441/639/116 442/606/116 433/603/116
f 443/607/117 427/642/117 428/608/117
f 428/608/117 432/610/117 443/607/117
f 435/611/118 433/613/118 442/612/118
f 442/612/118 444/614/118 435/611/118
f 445/615/119 443/617/119 432/616/119
f 432/616/119 434/618/119 445/615/119
f 437/619/120 435/621/120 444/620/120
f 444/620/120 446/622/120 437/619/120
f 447/623/121 445/625/121 434/624/121
f 434/624/121 436/626/121 447/623/121
f 439/660/122 437/662/122 446/661/122
f 446/661/122 448/663/122 439/660/122
f 449/631/123 447/633/123 436/632/123
f 436/632/123 438/634/123 449/631/123
f 450/583/5 452/585/5 451/584/5
f 451/584/5 453/586/5 450/583/5
f 452/636/1 450/638/1 454/583/1
f 454/583/1 455/585/1 452/636/1
f 456/587/1 452/636/1 455/585/1
f 455/585/1 457/588/1 456/587/1
f 458/589/1 456/587/1 457/588/1
f 457/588/1 459/590/1 458/589/1
f 460/591/1 458/589/1 459/590/1
f 459/590/1 461/592/1 460/591/1
f 462/593/1 460/591/1 461/592/1
f 461/592/1 463/658/1 462/593/1
f 464/583/11 465/585/11 455/584/11
f 455/584/11 454/586/11 464/583/11
f 465/584/2 464/586/2 453/635/2
f 453/635/2 451/637/2 465/584/2
f 466/595/2 465/584/2 451/637/2
f 451/637/2 467/596/2 466/595/2
f 468/597/2 466/595/2 467/596/2
f 467/596/2 469/598/2 468/597/2
f 470/599/2 468/597/2 469/598/2
f 469/598/2 471/600/2 470/599/2
f 472/659/2 470/599/2 471/600/2
f 471/600/2 473/602/2 472/659/2
f 457/603/116 455/605/116 465/604/116
f 465/604/116 466/606/116 457/603/116
f 467/607/117 451/609/117 452/608/117
f 452/608/117 456/610/117 467/607/117
f 459/611/118 457/613/118 466/612/118
f 466/612/118 468/614/118 459/611/118
f 469/615/119 467/617/119 456/616/119
f 456/616/119 458/618/119 469/615/119
f 461/619/120 459/621/120 468/620/120
f 468/620/120 470/622/120 461/619/120
f 471/623/121 469/625/121 458/624/121
f 458/624/121 460/626/121 471/623/121
f 463/660/122 461/662/122 470/661/122
f 470/661/122 472/663/122 463/660/122
f 473/631/123 471/633/123 460/632/123
f 460/632/123 462/634/123 473/631/123
f 294/664/87 297/666/90 296/665/89
f 296/665/89 474/667/124 294/664/87
f 474/667/124 295/668/88 292/670/85
f 292/670/85 293/669/86 474/667/124
f 475/671/5 477/673/5 476/672/5
f 476/672/5 478/674/5 475/671/5
f 479/671/1 480/673/1 477/672/1
f 477/672/1 475/674/1 479/671/1
f 481/671/11 482/673/11 480/672/11
f 480/672/11 479/674/11 481/671/11
f 478/671/2 476/673/2 482/672/2
f 482/672/2 481/674/2 478/671/2
f 483/675/125 480/677/125 482/676/125
f 482/676/125 484/678/125 483/675/125
f 484/679/126 482/681/126 476/680/126
f 476/680/126 485/682/126 484/679/126
f 486/683/127 477/685/127 480/684/127
f 480/684/127 483/686/127 486/683/127
f 485/675/9 476/677/9 477/676/9
f 477/676/9 486/678/9 485/675/9
f 487/687/5 489/689/5 488/688/5
f 488/688/5 490/690/5 487/687/5
f 491/687/1 492/689/1 489/688/1
f 489/688/1 487/690/1 491/687/1
f 493/687/11 494/689/11 492/688/11
f 492/688/11 491/690/11 493/687/11
f 490/687/2 488/689/2 494/688/2
f 494/688/2 493/690/2 490/687/2
f 495/691/5 497/7/5 496/692/5
f 496/692/5 498/693/5 495/691/5
f 499/691/1 500/7/1 497/692/1
f 497/692/1 495/693/1 499/691/1
f 501/691/11 502/7/11 500/692/11
f 500/692/11 499/693/11 501/691/11
f 498/691/2 496/7/2 502/692/2
f 502/692/2 501/693/2 498/691/2
f 503/694/6 495/696/6 498/695/6
f 498/695/6 504/697/6 503/694/6
f 504/683/128 498/685/128 501/684/128
f 501/684/128 505/686/128 504/683/128
f 506/679/129 499/681/129 495/680/129
f 495/680/129 503/682/129 506/679/129
f 505/694/130 501/696/130 499/695/130
f 499/695/130 506/697/130 505/694/130
f 507/671/5 509/673/5 508/672/5
f 508/672/5 510/674/5 507/671/5
f 511/671/1 512/673/1 509/672/1
f 509/672/1 507/674/1 511/671/1
f 513/671/11 514/673/11 512/672/11
f 512/672/11 511/674/11 513/671/11
f 510/671/2 508/673/2 514/672/2
f 514/672/2 513/674/2 510/671/2
f 515/675/125 512/677/125 514/676/125
f 514/676/125 516/678/125 515/675/125
f 516/679/126 514/681/126 508/680/126
f 508/680/126 517/682/126 516/679/126
f 518/683/127 509/685/127 512/684/127
f 512/684/127 515/686/127 518/683/127
f 517/675/9 508/677/9 509/676/9
f 509/676/9 518/678/9 517/675/9
f 519/687/5 521/689/5 520/688/5
f 520/688/5 522/690/5 519/687/5
f 523/687/1 524/689/1 521/688/1
f 521/688/1 519/690/1 523/687/1
f 525/687/11 526/689/11 524/688/11
f 524/688/11 523/690/11 525/687/11
f 522/687/2 520/689/2 526/688/2
f 526/688/2 525/690/2 522/687/2
f 527/691/5 529/7/5 528/692/5
f 528/692/5 530/693/5 527/691/5
f 531/691/1 532/7/1 529/692/1
f 529/692/1 527/693/1 531/691/1
f 533/691/11 534/7/11 532/692/11
f 532/692/11 531/693/11 533/691/11
f 530/691/2 528/7/2 534/692/2
f 534/692/2 533/693/2 530/691/2
f 535/694/6 527/696/6 530/695/6
f 530/695/6 536/697/6 535/694/6
f 536/683/128 530/685/128 533/684/128
f 533/684/128 537/686/128 536/683/128
f 538/679/129 531/681/129 527/680/129
f 527/680/129 535/682/129 538/679/129
f 537/694/130 533/696/130 531/695/130
f 531/695/130 538/697/130 537/694/130

usemtl Black
f 87/701/5 89/700/5 88/699/5 86/698/5

