# ProBuilder 5.0.6
# https://unity3d.com/unity/features/worldbuilding/probuilder
# 2025-05-24 오후 4:39:24

mtllib ./JPBM11CBase.mtl
o JPBM11CBase

g JPBM11CBase
v -0.07500002 -0.3000001 -0.05000002
v -0.07500002 0.3000001 -0.05000002
v -0.07500001 0.3000001 0.01999999
v -0.07500001 -0.3000001 0.01999999
v 0.07500002 -0.3000001 0.02000001
v 0.07500002 0.3000001 0.02000001
v 0.075 0.3000001 -0.05
v 0.075 -0.3000001 -0.05
v -0.045 -0.2700001 0.05
v -0.045 0.2700001 0.05
v 0.04500001 0.2700001 0.05000001
v 0.04500001 -0.2700001 0.05000001
v 4.415714 -0.8746302 -0.04888984
v 4.415711 -2.57463 -10.64889
v 4.41571 -2.574631 -0.04888793
v 0.3924838 1.525371 -0.04917279
v 1.892484 0.5253705 -0.04917243
v 0.3924838 0.5253705 -0.04917279
v 1.892484 1.525371 -0.04917243
v 0.3924838 -2.574631 -0.04917279
v -1.184516 1.525371 -0.04917315
v -1.184516 -2.574631 -0.04917315
v -7.584289 -2.574631 -0.04889365
v -1.184285 -1.57463 -0.04889205
v -7.584289 -1.57463 -0.04889365
v -1.785288 1.525371 -0.04889225
v -1.184285 1.525371 -0.04889205
v -1.785284 -1.57463 -0.04889225
v -1.785288 1.425371 -0.04889225
v -7.284289 1.525371 -0.04889362
v -7.284289 -1.57463 -0.04889362
v -7.584289 1.525371 -0.04889365
v -7.284289 1.425371 -0.04889362
v 4.415714 1.925371 -0.04889079
v -7.584289 1.925371 -0.04889365
v 4.415714 1.525371 -0.04888984
v 3.415714 -0.8746302 -0.04888996
v 3.415714 1.525371 -0.04888996
v 3.415714 -2.574631 -0.04888996
v 1.891714 1.525371 -0.04889038
v 1.891714 -2.574631 -0.04889038
v -7.584292 1.535198 -12.0489
v -7.584289 -2.574631 -1.148894
v -7.584296 -2.57463 -12.0489
v -7.584289 1.535013 -1.148894
v -7.584292 1.935013 -12.0489
v -7.58429 3.316436 -6.048895
v -7.584289 -1.57463 -1.148894
v -7.584289 -1.57463 -0.386123
v -6.884294 1.525371 -12.0489
v -6.884294 -2.57463 -12.0489
v -5.384294 1.525371 -12.0489
v 4.41571 1.925371 -12.04889
v -6.884294 0.3253708 -12.0489
v -5.384294 0.3253708 -12.0489
v 4.41571 1.525557 -12.04889
v -5.384294 -2.574631 -12.0489
v 4.415707 -2.574631 -12.04889
v 4.415711 -0.8746302 -10.64889
v 4.415713 -0.8746302 -8.253891
v 4.415713 1.525371 -8.253891
v 4.415712 3.306794 -6.048892
v 4.415711 1.525371 -10.64889
v 4.415711 0.6253702 -10.64889
v 4.415713 0.6253702 -8.253891
v 1.892484 0.5253705 -1.049173
v 0.3924835 0.5253705 -1.049173
v 1.891713 -2.574631 -1.048891
v 1.891713 1.525371 -1.048891
v 0.3924835 1.525371 -1.049173
v 0.3924835 -2.574631 -1.049173
v 4.682117 1.810071 -12.50568
v -7.754125 1.810071 -12.50569
v -7.754123 3.303588 -6.047862
v 4.682119 3.303588 -6.047859
v -7.754125 1.848916 -12.51467
v -7.754123 3.344272 -6.048895
v -7.754121 1.810071 0.4078983
v -7.754122 1.848916 0.4168824
v 4.682117 1.848916 -12.51466
v 4.682119 3.344272 -6.048892
v 4.682122 1.848916 0.4168853
v 4.682121 1.810071 0.4079012
v -0.1718774 1.353918 2.033112
v 2.565721 1.353918 2.033112
v 2.565718 1.634762 -0.0799715
v -0.1718798 1.634762 -0.07997208
v 2.565715 1.39781 2.037345
v 2.565713 1.678654 -0.07573838
v -0.1718836 1.678654 -0.07573896
v -0.1718822 1.39781 2.037344
v 4.416004 -2.37463 -0.001998852
v 4.466003 -2.574631 -0.003606026
v 4.416004 -2.574631 -0.001998852
v 4.466003 -2.37463 -0.003606026
v -0.3339954 -2.383955 1.998001
v 2.666005 -2.573956 1.998001
v -0.3339954 -2.573956 1.998001
v 2.666005 -2.383955 1.998001
v -0.3339959 -2.383955 -0.01199992
v -0.3339959 -2.573956 -0.01199992
v 2.666005 -2.573956 -0.01199929
v 2.666005 -2.383955 -0.01199929
v -1.284126 -2.37463 0.001107897
v 3.616005 -2.574631 -0.001998948
v -1.284002 -2.574631 0.000826802
v 3.616005 -2.37463 -0.001998948
v -1.283996 -2.37463 -2.435185
v 3.616266 -2.37463 -2.437997
v -7.584291 -2.574631 -11.0489
v -6.884293 -2.57463 -11.04889
v -5.384293 -2.574631 -11.04918
v -6.884291 -2.574631 -11.88894
v -5.384293 -2.574631 -11.88833
v 4.465706 -2.37463 -12.09889
v 4.415707 -2.574631 -12.09889
v 4.465706 -2.574631 -12.09889
v 4.415707 -2.37463 -12.09889
v 4.465709 -2.37463 -0.04888793
v 4.465709 -2.574631 -0.04888793
v 4.41571 -2.37463 -0.04888793
v -7.634291 -2.37463 -11.0989
v -7.634289 -2.574631 -0.04889366
v -7.634291 -2.574631 -11.0989
v -7.634289 -2.37463 -0.04889366
v -7.584289 -2.37463 -0.04889365
v -7.584291 -2.37463 -11.0989
v -7.634292 -2.37463 -12.0489
v -7.584292 -2.37463 -12.0489
v -7.584291 -2.574631 -11.0989
v -7.634289 -2.574631 0.001106306
v -7.634289 -2.37463 0.001106306
v -1.284126 -2.37463 -0.04889207
v -7.634292 -2.574631 -12.0489
v -7.634292 -2.37463 -12.0989
v -7.634292 -2.574631 -12.0989
v -6.884292 -2.37463 -12.0989
v -6.884292 -2.574631 -12.0989
v -6.884292 -2.37463 -12.0489
v -5.384294 -2.37463 -12.0989
v -5.384294 -2.574631 -12.0989
v -5.384294 -2.37463 -12.0489
v 4.415707 -2.37463 -12.04889
v 3.616005 -2.37463 -0.05199891
v -6.884293 1.525371 -11.04889
v 3.415711 -0.8746302 -10.64889
v 3.415713 -0.8746302 -8.253892
v 3.415713 1.525371 -8.253892
v 3.415713 0.6253707 -8.25389
v 3.415711 0.6253707 -10.64889
v -5.384293 -2.574631 -11.04889
v -5.384293 1.525371 -11.04889
v -6.884293 0.3253708 -11.04889
v -5.384293 0.3253708 -11.04889
v 3.415711 1.525371 -10.64889
v 3.415711 -2.57463 -10.64889
v 2.60656 1.39781 2.037345
v 2.606557 1.394228 2.074477
v 2.606557 1.678654 -0.07573933
v -0.2127247 1.678654 -0.07573994
v -0.2127257 1.682235 -0.112872
v -0.2127223 1.39781 2.037344
v 4.714001 1.941001 0.4511094
v -7.786004 3.444272 -6.048895
v 4.713999 3.444272 -6.048892
v -7.786002 1.941001 0.4511065
v -7.786005 1.941001 -12.5489
v 4.713997 1.941001 -12.54889
v 4.713999 3.344272 -6.048892
v -7.786005 1.841001 -12.5489
v -7.786004 3.344272 -6.048895
v 4.713997 1.841001 -12.54889
v -7.786002 1.841001 0.4511065
v 4.714001 1.841001 0.4511094
v -7.754121 1.841001 0.4511065
v 4.682121 1.841001 0.4511094
v 4.335714 3.636448 -5.832386
v -7.60429 3.761449 -6.048895
v 4.335714 3.761448 -6.048892
v -7.604289 3.636449 -5.832389
v 4.335714 3.386448 -5.832386
v -7.604289 3.386449 -5.832389
v 4.335713 3.636448 -6.265399
v -7.60429 3.386449 -6.265401
v 4.335713 3.386448 -6.265399
v -7.60429 3.636449 -6.265401
v 4.365714 3.621447 -6.239419
v 4.365715 3.731447 -6.048892
v 4.365715 3.621447 -5.858366
v 4.365716 3.383494 -5.862241
v 4.365714 3.383495 -6.235545
v -7.63429 3.73145 -6.048895
v -7.63429 3.621449 -6.239421
v -7.63429 3.383496 -6.235548
v -7.63429 3.621449 -5.858369
v -7.63429 3.383496 -5.862244
v -0.2127252 1.493767 2.084077
v -0.2127252 1.394228 2.074477
v 2.606557 1.493767 2.084077
v -0.2127257 1.781773 -0.1032718
v 2.606556 1.682235 -0.1128714
v 2.606556 1.781773 -0.1032712
v 4.365715 3.365033 -6.048892
v 4.365715 3.511447 -6.048892
v -7.63429 3.365035 -6.048895
v -7.63429 3.511449 -6.048895
v -7.385894 1.769685 -12.54179
v -7.364648 1.769685 -12.62574
v -7.351036 1.769685 -12.57763
v -7.399507 1.769685 -12.5899
v -7.447979 1.769685 -12.60216
v -7.413122 1.769685 -12.63801
v -7.434367 1.769685 -12.55405
v -7.351036 1.269685 -12.57763
v -7.364648 1.269685 -12.62574
v -7.413122 1.269685 -12.63801
v -7.447979 1.269685 -12.60216
v -7.434367 1.269685 -12.55405
v -7.45178 1.185118 -12.48524
v -7.468604 1.154101 -12.52066
v -7.385894 1.269685 -12.54179
v -7.388484 1.123083 -12.53155
v -7.371661 1.154101 -12.49613
v -7.403308 1.185118 -12.47297
v -7.436956 1.123083 -12.54382
v -7.432349 1.04124 -12.35822
v -7.409177 1.084324 -12.34788
v -7.434478 1.127406 -12.3498
v -7.480821 1.04124 -12.37048
v -7.50612 1.084324 -12.37241
v -7.48295 1.127406 -12.36207
v -7.454368 1.004609 -12.27121
v -7.436613 1.038918 -12.23946
v -7.467329 1.073226 -12.21999
v -7.502839 1.004609 -12.28347
v -7.533555 1.038918 -12.264
v -7.515801 1.073226 -12.23225
v -7.461255 0.9740285 -12.24399
v -7.44762 0.9768347 -12.19596
v -7.482457 0.9796408 -12.16021
v -7.509727 0.9740285 -12.25625
v -7.544563 0.9768347 -12.2205
v -7.530927 0.9796408 -12.17247
v -7.462845 -2.312089 -12.23771
v -7.449211 -2.309284 -12.18968
v -7.484046 -2.306478 -12.15393
v -7.511318 -2.312089 -12.24997
v -7.546153 -2.309284 -12.21422
v -7.532518 -2.306478 -12.16619
v 4.622614 1.832997 -12.524
v -7.691005 1.795501 -12.53406
v -7.691005 1.833001 -12.52401
v 4.622614 1.795497 -12.53405
v 4.622614 1.802997 -12.54704
v -7.691005 1.833001 -12.53901
v -7.691005 1.803001 -12.54705
v 4.622614 1.832997 -12.539
v -7.691005 1.768049 -12.56151
v 4.622614 1.768045 -12.5615
v 4.622614 1.781035 -12.569
v -7.691005 1.78104 -12.56901
v -7.691005 1.758001 -12.59901
v 4.622614 1.757997 -12.599
v 4.622614 1.772997 -12.599
v -7.691005 1.773001 -12.59901
v -7.691005 1.768049 -12.63651
v 4.622614 1.768045 -12.6365
v 4.622614 1.781035 -12.629
v -7.691005 1.78104 -12.62901
v -7.691005 1.795501 -12.66396
v 4.622614 1.795497 -12.66395
v 4.622614 1.802997 -12.65096
v -7.691005 1.803001 -12.65097
v -7.691005 1.833001 -12.67401
v 4.622614 1.832997 -12.674
v 4.622614 1.832997 -12.659
v -7.691005 1.833001 -12.65901
v -7.108005 1.831827 -12.46881
v -7.138006 1.781827 -12.46881
v -7.108005 1.781827 -12.46881
v -7.138006 1.831827 -12.46881
v -7.108005 1.831827 -12.43881
v -7.108005 1.781827 -12.43881
v -7.108007 1.742051 -12.50092
v -7.108007 1.723182 -12.4776
v -7.108007 1.716083 -12.53212
v -7.108007 1.68614 -12.53028
v -7.108007 1.729336 -12.56736
v -7.108007 1.702322 -12.58041
v -7.108007 1.764377 -12.57902
v -7.108007 1.769674 -12.60992
v -7.138006 1.831827 -12.43881
v -7.138006 1.781827 -12.43881
v -7.138005 1.723182 -12.4776
v -7.138005 1.742051 -12.50092
v -7.138005 1.68614 -12.53028
v -7.138005 1.716083 -12.53212
v -7.138005 1.702322 -12.58041
v -7.138005 1.729336 -12.56736
v -7.138005 1.769674 -12.60992
v -7.138005 1.764377 -12.57902
v -2.008004 1.831827 -12.46881
v -2.038004 1.781827 -12.46881
v -2.008004 1.781827 -12.46881
v -2.038004 1.831827 -12.46881
v -2.008004 1.831827 -12.43881
v -2.008004 1.781827 -12.43881
v -2.008004 1.742051 -12.50092
v -2.008004 1.723182 -12.4776
v -2.008004 1.716083 -12.53211
v -2.008004 1.68614 -12.53028
v -2.008004 1.729336 -12.56736
v -2.008004 1.702322 -12.58041
v -2.008004 1.764377 -12.57902
v -2.008004 1.769674 -12.60992
v -2.038004 1.831827 -12.43881
v -2.038004 1.781827 -12.43881
v -2.038003 1.723182 -12.4776
v -2.038003 1.742051 -12.50092
v -2.038003 1.68614 -12.53028
v -2.038003 1.716083 -12.53211
v -2.038003 1.702322 -12.58041
v -2.038003 1.729336 -12.56736
v -2.038003 1.769674 -12.60992
v -2.038003 1.764377 -12.57902
v 3.173998 1.831827 -12.4688
v 3.143995 1.781827 -12.4688
v 3.173998 1.781827 -12.4688
v 3.143995 1.831827 -12.4688
v 3.173998 1.831827 -12.4388
v 3.173998 1.781827 -12.4388
v 3.173996 1.742051 -12.50091
v 3.173996 1.723182 -12.47759
v 3.173996 1.716083 -12.53211
v 3.173996 1.68614 -12.53027
v 3.173996 1.729336 -12.56735
v 3.173996 1.702322 -12.5804
v 3.173996 1.764377 -12.57901
v 3.173996 1.769674 -12.60991
v 3.143995 1.831827 -12.4388
v 3.143995 1.781827 -12.4388
v 3.143997 1.723182 -12.47759
v 3.143997 1.742051 -12.50091
v 3.143997 1.68614 -12.53027
v 3.143997 1.716083 -12.53211
v 3.143997 1.702322 -12.5804
v 3.143997 1.729336 -12.56735
v 3.143997 1.769674 -12.60991
v 3.143997 1.764377 -12.57901
v -1.300042 1.832999 0.5689989
v -7.691002 1.795501 0.5589504
v -7.691002 1.833001 0.5689983
v -1.300042 1.795498 0.558951
v -1.300042 1.802999 0.545961
v -7.691001 1.833001 0.5539984
v -7.691002 1.803001 0.5459594
v -1.300042 1.832999 0.5539991
v -7.691001 1.768049 0.5314984
v -1.300042 1.768047 0.531499
v -1.300042 1.781037 0.523999
v -7.691002 1.78104 0.5239984
v -7.691002 1.758001 0.4939984
v -1.300042 1.757999 0.4939989
v -1.300042 1.772999 0.4939989
v -7.691002 1.773001 0.4939984
v -7.691002 1.768049 0.4564983
v -1.300042 1.768047 0.456499
v -1.300042 1.781037 0.4639989
v -7.691001 1.78104 0.4639985
v -7.691001 1.795501 0.4290463
v -1.300042 1.795498 0.429047
v -1.300042 1.802999 0.4420379
v -7.691002 1.803001 0.4420363
v -7.691001 1.833001 0.4189984
v -1.300042 1.832999 0.418999
v -1.300042 1.832999 0.4339989
v -7.691002 1.833001 0.4339983
v -7.084002 1.829201 0.3730983
v -7.054003 1.779201 0.3730983
v -7.084002 1.779201 0.3730983
v -7.054003 1.829201 0.3730983
v -7.084002 1.829201 0.3430983
v -7.084002 1.779201 0.3430983
v -7.084002 1.739425 0.4052133
v -7.084002 1.720556 0.3818915
v -7.084001 1.713457 0.4364123
v -7.084002 1.683514 0.4345674
v -7.084002 1.72671 0.4716494
v -7.084002 1.699696 0.4846973
v -7.084002 1.761751 0.4833136
v -7.084002 1.773895 0.5117455
v -7.054003 1.829201 0.3430983
v -7.054003 1.779201 0.3430983
v -7.054003 1.720556 0.3818915
v -7.054003 1.739425 0.4052133
v -7.054003 1.683514 0.4345675
v -7.054002 1.713457 0.4364123
v -7.054003 1.699696 0.4846973
v -7.054003 1.72671 0.4716494
v -7.054003 1.773895 0.5117455
v -7.054003 1.761751 0.4833136
v -1.850001 1.829201 0.3730997
v -1.820001 1.779201 0.3730997
v -1.850001 1.779201 0.3730997
v -1.820001 1.829201 0.3730997
v -1.850001 1.829201 0.3430997
v -1.850001 1.779201 0.3430997
v -1.850001 1.739425 0.4052147
v -1.850001 1.720556 0.3818928
v -1.850001 1.713457 0.4364136
v -1.850001 1.683514 0.4345688
v -1.850001 1.72671 0.4716507
v -1.850001 1.699696 0.4846987
v -1.850001 1.761751 0.4833149
v -1.850001 1.773895 0.5117468
v -1.820001 1.829201 0.3430997
v -1.820001 1.779201 0.3430997
v -1.820002 1.720556 0.3818928
v -1.820002 1.739425 0.4052147
v -1.820002 1.683514 0.4345688
v -1.820002 1.713457 0.4364136
v -1.820002 1.699696 0.4846987
v -1.820002 1.72671 0.4716507
v -1.820002 1.773895 0.5117468
v -1.820002 1.761751 0.4833149
v -7.497682 -2.309284 -12.20195
v 2.256004 1.416046 1.808001
v 2.476004 1.246046 1.808001
v 2.256004 1.246046 1.808001
v 2.476004 1.416046 1.808001
v 2.256004 1.416046 1.588001
v 2.256004 1.246046 1.588001
v 2.476004 1.416046 1.588001
v 2.476004 1.246046 1.588001
v 2.286004 1.216046 1.618001
v 2.446004 1.216046 1.618001
v 2.446004 1.216046 1.778001
v 2.286004 1.216046 1.778001
v 2.266004 1.416046 1.798001
v 2.466004 -2.383955 1.798001
v 2.266004 -2.383955 1.798001
v 2.466004 1.416046 1.798001
v 2.266004 1.416046 1.598001
v 2.266004 -2.383955 1.598001
v 2.466004 1.416046 1.598001
v 2.466004 -2.383955 1.598001
v 2.256004 -2.213955 1.808001
v 2.476004 -2.383955 1.808001
v 2.256004 -2.383955 1.808001
v 2.476004 -2.213955 1.808001
v 2.256004 -2.213955 1.588001
v 2.256004 -2.383955 1.588001
v 2.476004 -2.213955 1.588001
v 2.476004 -2.383955 1.588001
v 2.286004 -2.183955 1.778001
v 2.446004 -2.183955 1.778001
v 2.446004 -2.183955 1.618001
v 2.286004 -2.183955 1.618001
v -0.1439939 1.416046 1.808001
v 0.07600544 1.246046 1.808001
v -0.1439939 1.246046 1.808001
v 0.07600544 1.416046 1.808001
v -0.1439939 1.416046 1.588
v -0.1439939 1.246046 1.588
v 0.07600542 1.416046 1.588001
v 0.07600542 1.246046 1.588001
v -0.1139942 1.216046 1.618001
v 0.04600568 1.216046 1.618001
v 0.0460057 1.216046 1.778001
v -0.1139942 1.216046 1.778001
v -0.1339946 1.416046 1.798001
v 0.06600617 -2.383955 1.798001
v -0.1339946 -2.383955 1.798001
v 0.06600617 1.416046 1.798001
v -0.1339946 1.416046 1.598
v -0.1339946 -2.383955 1.598
v 0.06600615 1.416046 1.598001
v 0.06600615 -2.383955 1.598001
v -0.1439939 -2.213955 1.808001
v 0.07600544 -2.383955 1.808001
v -0.1439939 -2.383955 1.808001
v 0.07600544 -2.213955 1.808001
v -0.1439939 -2.213955 1.588
v -0.1439939 -2.383955 1.588
v 0.07600542 -2.213955 1.588001
v 0.07600542 -2.383955 1.588001
v -0.1139942 -2.183956 1.778001
v 0.0460057 -2.183956 1.778001
v 0.04600568 -2.183956 1.618001
v -0.1139942 -2.183956 1.618001

vt 0.1 0.6
vt 0.1 0
vt 0.03 0
vt 0.03 0.6
vt 0.07 0.6
vt 0.07 0
vt 0 0
vt 0 0.6
vt 0 0.15
vt 0.07 0.15
vt 0.1 0.15
vt 0.03 0.15
vt 0.09 0.54
vt 0.09 0
vt 0 0.54
vt 0 0.03
vt 0 0.12
vt 0 0.5700001
vt 0.1 0.5700001
vt 0.1 0.03
vt 0.1 0.12
vt 1.907349E-06 1.700001
vt 10.6 9.536743E-07
vt 7.976773 4.100002
vt 9.476773 3.100001
vt 7.976773 3.100001
vt 9.476773 4.100001
vt 7.976773 0
vt 6.399773 4.100002
vt 6.399773 0
vt 6.400004 1.000001
vt 0 1.000002
vt 5.799001 4.100002
vt 6.400004 4.100002
vt 5.799006 1.000001
vt 5.799002 4.000002
vt 0.3000007 4.100002
vt 0.2999997 1.000001
vt 0 4.100002
vt 0.3000002 1.000001
vt 0.2999997 4.000002
vt 0.3000007 4.000002
vt 12 4.500002
vt 0 4.500002
vt 12 4.100002
vt 11 1.700001
vt 11 4.100002
vt 12 1.700001
vt 11 0
vt 12 0
vt 9.476003 4.100002
vt 9.476003 0
vt 0 4.109829
vt 10.90001 0
vt 10.90001 4.109644
vt 0 4.509645
vt 6.000005 5.891068
vt 12.00001 1.000001
vt 10.90001 1.000001
vt 11.66278 1.000001
vt 12.00001 0
vt 11.3 4.100002
vt 11.3 9.536743E-07
vt 12 4.109829
vt 12 4.509644
vt 9.800005 4.100002
vt 11.3 2.900002
vt 9.800004 2.900002
vt 9.800004 2.384186E-07
vt 10.6 1.700001
vt 8.205003 1.700001
vt 8.205003 4.100002
vt 6.000004 5.881425
vt 10.6 4.100001
vt 10.6 3.200001
vt 8.205003 3.200001
vt 0.75 0.5
vt 0.75 -0.4999999
vt -0.75 -0.5
vt -0.7499998 0.4999998
vt 0.5000003 2.05
vt 0.5000001 -2.05
vt -0.5000004 -2.05
vt -0.5 2.05
vt -0.4999999 2.05
vt 12.46812 0.04320812
vt 0.03188133 0.04320812
vt 0.03188133 6.501033
vt 12.46812 6.501033
vt 6.501033 1.493516
vt 0.04320812 0
vt 0.03422451 0.0388453
vt 6.5 1.5342
vt 12.95679 0
vt 12.96578 0.0388453
vt 0.03187943 0.0388453
vt 12.46812 0.0388453
vt 12.46812 0
vt 0.03187943 0
vt 6.498967 1.493516
vt 12.46812 12.95679
vt 0.03188133 12.95679
vt 1.112123 2.10302
vt 3.84972 2.10302
vt 3.849717 -0.0286479
vt 1.112121 -0.0286479
vt 2.964558 0.03847146
vt 0.8342733 -0.03821003
vt 0.834275 0.005890965
vt 2.964559 0.08257198
vt 2.165702 -0.03841114
vt 0.03542614 0.03839815
vt 0.03545928 0.08236015
vt 2.165735 0.005551219
vt 3.849718 -0.07667899
vt 1.112123 -0.07667875
vt 1.112118 -0.03258252
vt 3.849713 -0.03258276
vt 0 0.2
vt 0.04999924 0
vt 0.8 0
vt 0.04999924 0.2
vt -5.960464E-08 0.06333333
vt 1 0
vt 1 0.06333333
vt 0.67 0
vt 0.67 0.06333333
vt 0 0.67
vt 1 0.67
vt -3.899683 0.2000003
vt -3.899559 0
vt 1.000447 0.1999998
vt 5.900974 -2.233273
vt 1.000974 0.1999137
vt 5.901104 0.2030209
vt 1.000713 -2.236084
vt 4 0.9999981
vt 4.699993 1.907349E-06
vt 3.999996 0
vt 4.699997 1
vt 10.30029 11.99972
vt 4 12
vt 6.199997 0.9997177
vt 4.700001 0.1599617
vt 6.199997 0.1605587
vt 6.199997 0
vt 15.20029 11.99677
vt 16 12
vt 16 0
vt 0.05 0
vt 0.05 0.2
vt 12.05 0
vt 12.05 0.2
vt 0 12.05
vt 0.05 12.05
vt 0.04999733 -12.05
vt 0 -12.05
vt 0.0002939738 0.04688835
vt 0.05029323 0.04528189
vt -0.04988766 0.2
vt -0.04988766 0
vt 11.00011 0.2
vt 0.05000091 0.9500008
vt 0 12
vt 0.04999995 12
vt 0 0.9500008
vt -0.05047172 12
vt -0.05047267 0.9500003
vt -0.05047083 12.04995
vt 6.299814 11.99953
vt 6.201867 12.04919
vt 6.350285 0
vt 6.350161 0.2000002
vt -2.384186E-07 0.05000162
vt 6.350286 0.05000019
vt 0.05079082 0.2009823
vt 1.000791 0.0009823442
vt 0.05079082 0.0009823442
vt 1.000791 0.2009823
vt 0.75 0
vt 0.75 0.2
vt 0.75 0.05
vt 9.8 0.2
vt 9.8 0.05
vt 0.8 0.2
vt 0.8000002 0.05000019
vt 0.0002942085 0.003110886
vt 0.04528141 0
vt 0.04528141 0.2
vt 0 0.04528141
vt 0.04999924 0.04688859
vt 13.15689 4.1
vt 14.15689 0
vt 13.15689 0
vt 14.15689 4.1
vt 0 10.6
vt 1 10.6
vt 0 4.1
vt 1 1.7
vt 1 4.1
vt 15 3.795002
vt 16 1.4
vt 15 1.400002
vt 16 3.795
vt 6.199997 1
vt -0.5 2.050002
vt 0.5 2.050002
vt 11.92325 12.04623
vt 6.322733 11.99905
vt 6.223248 12.04905
vt 11.92296 11.99934
vt 4.9 0
vt 0 12.87347
vt 12.5 6.373474
vt 0 6.373474
vt 12.5 12.87347
vt 12.5 -0.1265249
vt -4.768372E-07 -0.1265249
vt 9.802393 6.211021
vt 2.983236 2.952081
vt 3.10387 6.44253
vt 9.681759 2.720572
vt 0.1368542 6.252914
vt 12.63685 6.302915
vt 12.63685 6.252914
vt 0.1368542 6.302915
vt 0 0.05593014
vt 12.5 0.1059301
vt 12.5 0.05593014
vt 0 0.1059301
vt 0.03188133 13
vt 0 6.5
vt 0 13
vt 0.03188133 6.5
vt 12.46812 12.96578
vt 12.46812 13
vt 0.03188133 12.96578
vt 9.545605 6.655308
vt 9.5625 9.991093
vt 9.5625 6.655308
vt 9.545605 9.991093
vt 3.534791 -2.825495
vt 3.214138 3.674506
vt 3.234138 3.674506
vt 3.514791 -2.825495
vt 9.90968 3.333081
vt 9.590323 -3.174003
vt 9.81852 3.316393
vt 9.681484 -3.157315
vt 10.58503 -3.19025
vt 10.80931 3.2895
vt 10.89696 3.303527
vt 10.49739 -3.204277
vt 3.306477 3.270244
vt 3.627131 -3.229756
vt 3.607131 -3.229756
vt 3.326477 3.270244
vt 0.4330127 11.97
vt 0.2165064 0.03
vt 0.2165064 11.97
vt 0.4330127 0.03
vt 1.375 11.97
vt -1.125 0.03
vt -1.125 11.97
vt 1.375 0.03
vt 0.01494218 11.97
vt -0.2015642 0.03
vt -0.2015642 11.97
vt 0.01494218 0.03
vt -37.40742 0.1470692
vt -36.29587 0.1507421
vt -37.42197 -0.05839515
vt -36.41646 0.3311124
vt -37.20568 0.1560211
vt -38.26639 0.4240227
vt -37.11526 0.3416176
vt -38.21868 0.2285385
vt -0.9774323 -0.026577
vt 1.378601 0.05629349
vt -1.053185 -0.41605
vt 1.332695 0.4460487
vt -1.151146 -0.02857971
vt 1.377502 0.05011749
vt -1.040909 -0.432312
vt 1.156004 0.4041634
vt 40.57283 1.809327
vt 41.55411 1.321795
vt 40.44665 1.648333
vt 41.54739 1.521973
vt 1.103533 -4.396942
vt -1.254648 -4.382271
vt 1.195408 -4.010948
vt -1.224937 -4.773617
vt 41.55195 -1.523779
vt 40.44666 -1.648329
vt 41.54407 -1.317812
vt 40.58622 -1.814631
vt 1.279522 -4.121292
vt -1.250004 -4.078964
vt 1.188721 -3.712749
vt -1.045689 -4.443214
vt 1.071275 0.06741142
vt 3.890557 -0.03258991
vt 1.071275 -0.03258967
vt 3.890557 0.06741118
vt 1.188945 1.268411
vt 1.012259 -0.9364834
vt 1.088945 1.268411
vt 1.11226 -0.9364831
vt 1.911055 1.377616
vt 1.887741 -0.8272777
vt 1.811055 1.377616
vt 1.987741 -0.8272777
vt 3.828729 -0.1451313
vt 1.009442 2.061099
vt 3.828728 2.061099
vt 1.009442 -0.1451316
vt 1.430511E-06 0.03730464
vt 4.900002 0.03730476
vt 0.04084826 2.962697
vt 0.04084635 0.03730524
vt 3.33786E-06 2.962696
vt 0 3
vt 4.900003 2.962696
vt 4.9 3
vt 3.849858 -0.03023291
vt 3.890698 2.101432
vt 3.890702 -0.03023386
vt 3.849853 2.101432
vt 1.395896 0.4520648
vt -1.317785 0.2407998
vt -1.12474 0.4359768
vt 0.1463566 0.2407995
vt -1.124739 0.04562275
vt 2.587258 0.2406835
vt 1.395896 0.02952849
vt 1.71417 0.2165064
vt -0.99951 0.4277717
vt 1.521125 0.4116834
vt 0.2500286 0.2165064
vt -2.190872 0.2163907
vt -0.9995111 0.005235562
vt 1.521125 0.02132935
vt 0.02060342 -0.0475769
vt 0.02939701 0.0475769
vt 0.05439687 0.004275322
vt 0.004396915 0.004275322
vt 0.02060318 0.03902531
vt -0.04560328 0.004275322
vt -0.02060342 0.0475769
vt -0.05439687 -0.004275322
vt 0.02939701 -0.03902531
vt -0.02060318 -0.03902531
vt 0.0250001 0.25
vt -0.02499986 -0.25
vt -0.02499986 0.25
vt 0.0250001 -0.25
vt -0.0250001 -0.25
vt -0.0250001 0.25
vt 0.02499962 0.25
vt 0.02499962 -0.25
vt 0.08647203 -0.3413491
vt 0.04780579 -0.3727355
vt -0.05913901 -0.3745234
vt -0.02500033 -0.2201467
vt 0.02499986 -0.2201467
vt -0.09780502 -0.3431375
vt -0.04780579 -0.3701243
vt -0.0250001 -0.247279
vt 0.02499962 -0.2472792
vt -0.08647203 -0.338991
vt 0.0250001 -0.3603444
vt -0.0250001 -0.1844716
vt 0.0250001 -0.1844716
vt -0.02499962 -0.3603446
vt 0.09780455 -0.3466308
vt -0.02500057 -0.223691
vt 0.0250001 -0.223691
vt 0.0591383 -0.378132
vt 0.02499962 -0.3297335
vt -0.0250001 -0.2193257
vt 0.0250001 -0.2193257
vt -0.02499962 -0.3297335
vt -0.2316328 -0.436636
vt -0.09380531 -0.3083997
vt -0.05835712 -0.3436615
vt -0.2420072 -0.3877244
vt -0.2174149 -0.4336669
vt -0.1046207 -0.3191202
vt -0.06918502 -0.3543949
vt -0.2277722 -0.3847518
vt 0.02499962 -0.4106761
vt -0.02499962 -0.2140326
vt 0.02499962 -0.2140326
vt -0.02499962 -0.4106761
vt 0.2420018 -0.3878777
vt 0.05836272 -0.3437688
vt 0.09381986 -0.3085158
vt 0.2316151 -0.4367867
vt 0.22771 -0.3849068
vt 0.06913364 -0.3544939
vt 0.1045818 -0.3192315
vt 0.2173355 -0.4338186
vt 0.02499962 -0.3819631
vt -0.0250001 -0.2424145
vt 0.02499962 -0.2424146
vt -0.02499962 -0.3819631
vt -0.3199731 -0.4748659
vt -0.2421883 -0.3841801
vt -0.2324359 -0.4332197
vt -0.3512587 -0.4358635
vt -0.3292739 -0.4823225
vt -0.2299213 -0.381634
vt -0.2201858 -0.4306769
vt -0.3605459 -0.4433091
vt 0.02499962 -0.4931395
vt -0.02499962 -0.3962003
vt 0.0250001 -0.3961992
vt -0.02499962 -0.4931395
vt 0.3512282 -0.4360821
vt 0.2324069 -0.4333775
vt 0.2421844 -0.3843429
vt 0.3199229 -0.4750686
vt 0.3604685 -0.4434481
vt 0.2201128 -0.4307675
vt 0.2298655 -0.3817282
vt 0.3291832 -0.4824507
vt 0.02499962 -0.5153053
vt -0.02499962 -0.3708527
vt 0.02499962 -0.3708527
vt -0.02499962 -0.5153053
vt -0.3259308 -0.5598159
vt -0.3354065 -0.4909518
vt -0.300699 -0.5269432
vt -0.3757281 -0.5560801
vt -0.3280108 -0.5841122
vt -0.3229308 -0.4829788
vt -0.288039 -0.5187915
vt -0.377862 -0.5806668
vt 0.02499962 -0.6389757
vt -0.02499962 -0.5974609
vt 0.02499962 -0.5974609
vt -0.02499962 -0.6389757
vt 0.3812764 -0.5477815
vt 0.3059182 -0.5198696
vt 0.3400807 -0.4833606
vt 0.3316967 -0.5524113
vt 0.3816596 -0.5795021
vt 0.2915405 -0.5181098
vt 0.3262478 -0.4821184
vt 0.3318621 -0.5832381
vt 0.0250001 -0.6913395
vt -0.02499962 -0.5792666
vt 0.02499962 -0.5792666
vt -0.02499962 -0.6913397
vt -0.3215065 -3.831926
vt -0.3658226 -0.543043
vt -0.3159015 -0.545849
vt -0.3714275 -3.82912
vt -0.3213568 -3.829206
vt -0.3656716 -0.5403461
vt -0.3157516 -0.5431521
vt -0.3712773 -3.8264
vt 0.02500057 -3.83247
vt -0.0250001 -0.5463464
vt 0.02499962 -0.5463464
vt -0.02499866 -3.83247
vt 0.371429 -3.82912
vt 0.3159008 -0.5458491
vt 0.3658228 -0.5430431
vt 0.3215079 -3.831926
vt 0.3712759 -3.8264
vt 0.3157513 -0.5431522
vt 0.3656723 -0.5403462
vt 0.3213539 -3.829206
vt 0.02499866 -3.827028
vt -0.0250001 -0.5409045
vt 0.02499914 -0.5409045
vt -0.02500057 -3.827028
vt -0.0194068 10.31361
vt 0.01941061 -2
vt -0.01941156 -2
vt 0.0194149 10.31361
vt -0.01553273 10.31362
vt 0.01552916 -2
vt -0.01552868 -2
vt 0.01552534 10.31362
vt 0 0.07500005
vt 0.02999997 0.05196142
vt 0 0.0600009
vt 0.03750038 0.06495214
vt 0.05196142 0.02999997
vt 0.0649519 0.0374999
vt 0.05999994 -1.192093E-07
vt 0.07499981 -2.384186E-07
vt 0.05196142 -0.02999997
vt 0.0649519 -0.03750014
vt 0.02999997 -0.05196142
vt 0.03750038 -0.06495225
vt 0 -0.05999994
vt 0 -0.07500005
vt 0 0.05999994
vt -0.03750002 0.0649519
vt 0 0.07499993
vt -0.03000259 0.05195856
vt -0.0649519 0.03749979
vt -0.05196178 0.02999997
vt -0.07500005 -1.192093E-07
vt -0.06000006 -1.192093E-07
vt -0.0649519 -0.03750002
vt -0.05196381 -0.03000307
vt -0.03750002 -0.0649519
vt -0.03000259 -0.05196464
vt -2.861023E-06 -0.06000423
vt 0.05999684 10.31361
vt 0.07499981 -2
vt 0.06000042 -2
vt 0.07499623 10.31361
vt -0.0750041 10.31362
vt -0.05999994 -2
vt -0.07499981 -2
vt -0.06000376 10.31361
vt -0.0150001 0.02499998
vt 0.0150001 -0.02499974
vt -0.0150001 -0.02499974
vt 0.0150001 0.02499998
vt 0.04711556 -0.06477559
vt 0.02379322 -0.08364511
vt 0.07831395 -0.09074402
vt 0.07646883 -0.1206871
vt 0.1135511 -0.07749069
vt 0.1265988 -0.1045046
vt 0.1252146 -0.04245007
vt 0.1561098 -0.03715289
vt -0.02379322 -0.08364499
vt -0.04711556 -0.06477547
vt -0.07646883 -0.1206871
vt -0.07831395 -0.09074402
vt -0.1265988 -0.1045046
vt -0.1135511 -0.07749069
vt -0.1561098 -0.03715289
vt -0.1252146 -0.04245007
vt 0.01499891 -0.08289009
vt -0.0150001 -0.01257533
vt 0.0150001 -0.01257533
vt -0.01499891 -0.08289009
vt 0.01499891 -0.07999676
vt -0.0150001 -0.02887425
vt 0.0150001 -0.02887425
vt -0.01499891 -0.07999676
vt -0.01499939 0.1319731
vt 0.01499939 0.06757729
vt -0.01499939 0.06757729
vt 0.01499939 0.1319731
vt -0.01499939 0.118244
vt 0.01499939 0.07765228
vt -0.01499939 0.07765228
vt 0.01499939 0.118244
vt -0.01499939 0.08837354
vt 0.01499939 0.03569615
vt -0.01499939 0.03569615
vt 0.01499939 0.08837354
vt -0.01499939 0.07900262
vt 0.01499939 0.04135537
vt -0.01499939 0.04135537
vt 0.01499939 0.07900262
vt -0.01499939 0.0286212
vt 0.01499939 -0.04491234
vt -0.01499939 -0.04491234
vt 0.01499939 0.0286212
vt -0.01499939 -0.0007295609
vt 0.01499939 -0.0376606
vt -0.01499939 -0.0376606
vt 0.01499939 -0.0007295609
vt -0.01499987 0.02499998
vt 0.01499987 -0.02499998
vt -0.01499987 -0.02499998
vt 0.01499987 0.02499998
vt -0.01499987 -0.01257533
vt 0.01499987 -0.01257533
vt -0.01499987 -0.02887425
vt 0.01499987 -0.02887425
vt -0.01940925 4.390958
vt 0.01941293 4.390958
vt -0.01553082 4.390957
vt 0.01552725 4.390957
vt 0.05196095 0.03000045
vt 0.0649519 0.03750002
vt 0.07500005 -1.192093E-07
vt 0.0649519 -0.0374999
vt 0.03000021 -0.05196166
vt 0.05999941 4.390957
vt 0.05999994 -2
vt 0.07499951 4.390957
vt -0.07500065 4.390958
vt -0.07500029 -2
vt -0.06000031 4.390958
vt 0.1536469 -0.03030539
vt -0.1536469 -0.03030539
vt -0.01499939 0.02414966
vt 0.01499939 -0.05482578
vt -0.01499939 -0.05482578
vt 0.01499939 0.02414966
vt -0.02499914 -0.1945152
vt 0.04999995 -0.1512136
vt 0.02500057 -0.1945133
vt 4.768372E-07 -0.1512136
vt 0.0250001 -0.1079121
vt -0.04999924 -0.1512146
vt -0.02499962 -0.107914
vt 0 3.8
vt 0.2199998 3.630001
vt 0 3.630001
vt 0.2199998 3.8
vt 0.1897287 3.600031
vt -0.002248213 3.629906
vt 0.2168471 3.644215
vt 0.03038636 3.589625
vt 0.1900308 0.03027177
vt 0.2199057 0.2222481
vt 0.2342137 0.003152847
vt 0.179625 0.1896133
vt 0.02996922 0.1897283
vt 9.417534E-05 -0.002248108
vt -0.0142138 0.2168471
vt 0.04037499 0.03038663
vt 0.009999514 3.8
vt 0.2100003 -1.192093E-07
vt 0.009999037 -1.192093E-07
vt 0.2100008 3.8
vt 2.384186E-07 0.1700001
vt 0.2199996 0
vt 0.2199996 0.1700001
vt 0.03027153 0.1999693
vt 0.2222476 0.1700943
vt 0.003153324 0.155786
vt 0.1896133 0.2103753

vn -1 0 1.064369E-07
vn 1 0 -2.128737E-07
vn 0 -1 0
vn 0 1 0
vn -8.278422E-08 0 1
vn -7.756189E-08 0.7071068 0.7071068
vn -0.7071068 0 0.7071067
vn 0.7071066 0 0.7071069
vn -7.756189E-08 -0.7071068 0.7071067
vn 4.367359E-05 -0.000281109 0.9999999
vn 0 0 -1
vn -1.123139E-07 -0.9742837 0.225325
vn 7.845023E-07 -0.2252412 -0.974303
vn 5.2123E-08 -0.9742678 -0.2253934
vn -2.264735E-07 -0.225332 0.974282
vn 1.147405E-08 -0.9912832 -0.1317487
vn -1.733765E-07 -0.09598248 0.995383
vn 0.03212768 0 0.9994838
vn 0.0003025536 -0.001054011 0.9999994
vn 0.9999948 0 -0.003243454
vn 2.188192E-05 -0.0007027336 0.9999998
vn 0.999979 0 -0.006486598
vn 0.9999973 0.002330851 0.0003083199
vn 0.9999998 -0.0007061825 -9.499206E-05
vn -5.157277E-08 0.9742837 0.2253249
vn 1.11741E-07 0.9742837 -0.2253249
vn -1.57594E-07 0.4999997 0.8660256
vn 1.882628E-07 0.5000005 -0.8660251
vn 0.6546475 0.6546578 -0.3779679
vn 0.6546471 0.6546588 0.3779671
vn 0.6796868 -0.005774172 0.7326587
vn 0.6546282 0 0.7559511
vn 0.7047455 -0.01154834 0.7093663
vn 0.6782023 -0.006177737 -0.7338938
vn 0.705364 0 -0.7088453
vn 0.6510406 -0.01235547 -0.7589423
vn -0.6546431 0.6546608 -0.3779704
vn -0.6796929 -0.005772745 -0.7326534
vn -0.65464 0 -0.7559407
vn -0.7047457 -0.01154549 -0.7093661
vn -0.654637 0.6546649 0.3779741
vn -0.6782103 -0.006180001 0.7338858
vn -0.705381 0 0.7088284
vn -0.6510395 -0.01236 0.7589433
vn -1.103959E-08 0.9914427 0.1305423
vn 2.054884E-08 -0.9953818 -0.09599546
vn 1.624E-08 -0.9953794 -0.09601966
vn 0.1782642 0.755913 0.6299344
vn 0.4564323 0.7559251 -0.4693047
vn 0.839551 0.5000034 0.212487
vn -0.6346662 0.7559182 -0.1605819
vn -0.2357981 0.5000169 -0.8332961
vn -0.603737 0.500015 0.6208757
vn 0.9673027 0.01058581 0.2534037
vn 0.686141 -0.2557961 -0.6810131
vn -0.287354 -0.2560721 -0.9229597
vn -0.9668569 0.0001241095 -0.2553191
vn -0.6800134 0.3068112 0.6659195
vn -0.6054922 0.6901615 0.3963033
vn -0.9665655 -0.00431758 -0.2563836
vn 0.2978167 0.2925278 0.9086984
vn 0.6213834 -0.6600115 -0.4222175
vn 0.9680333 0.01059289 0.2505981
vn 0.3601145 0.6888292 0.6291518
vn -0.354322 -0.6558817 -0.6665397
vn 0.5605052 -0.7997383 -0.2150638
vn 0.9694551 0.0005362561 0.2452682
vn 0.3918666 0.8003924 0.4536657
vn -0.391295 -0.7994817 -0.4557599
vn -0.9693403 -0.000476971 -0.2457216
vn -0.5600339 0.8006391 0.2129296
vn 0.6094642 -0.7094392 -0.353906
vn 0.969126 -0.009585208 0.2463794
vn 0.3550633 0.6687953 0.653179
vn -0.3527136 -0.7083123 -0.6114628
vn -0.9713483 0.001640985 -0.2376545
vn -0.6267378 0.6657892 0.4048758
vn 0.696384 -0.3062847 -0.6490293
vn 0.9705708 -0.007806654 0.2406895
vn 0.2837867 0.2534774 0.924778
vn -0.2883729 -0.3245189 -0.9008488
vn -0.9714153 -0.006655192 -0.2372929
vn -0.6921095 0.2553017 0.6751336
vn 0.61012 -0.5125757 -0.6041685
vn 0.622434 -0.7545017 0.2080939
vn 0.1616966 -0.7336243 0.6600376
vn -0.1953598 -0.7765634 -0.5989857
vn -0.6464766 -0.7545037 -0.1131024
vn -0.5975422 -0.4860744 0.6377108
vn -8.332946E-07 -0.2588604 0.9659148
vn -8.353035E-07 -0.5000073 0.8660212
vn 9.081052E-07 0.2588779 -0.9659101
vn -6.968608E-07 -0.8660178 0.5000133
vn 7.393819E-07 0.866019 -0.5000111
vn 1.098036E-07 -0.8660195 -0.5000103
vn -9.563969E-08 0.8660148 0.5000184
vn 5.590426E-07 -0.5000035 -0.8660234
vn 5.732201E-07 -0.4999997 -0.8660256
vn -5.590354E-07 0.5000135 0.8660176
vn 7.37692E-07 -0.2588604 -0.9659148
vn -7.002856E-07 0.2588636 0.9659139
vn 0 -0.5516745 0.8340595
vn 0 0.6281414 -0.7780992
vn 0 -0.8180191 0.5751911
vn 0 0.7686039 -0.639725
vn 0 -0.9516469 -0.3071942
vn 0 0.9359977 0.352006
vn 0 -0.4013104 -0.9159421
vn 0 0.3157232 0.9488513
vn 0 0.9360291 0.3519226
vn -3.039317E-07 -0.4999965 0.8660275
vn -3.515129E-07 -0.8660281 0.4999954
vn 4.521851E-07 0.8660297 -0.4999925
vn -2.211554E-07 -0.8660258 -0.4999993
vn 0 -0.5517085 -0.834037
vn 0 0.6281968 0.7780545
vn 1.142888E-06 -0.8179982 -0.5752208
vn 0 0.7685994 0.6397305
vn -6.103508E-07 -0.9516475 0.3071923
vn 0 0.9359877 -0.3520329
vn 0 -0.3424891 0.9395218
vn 0 0.3158334 -0.9488147
vn -0.01589884 -0.9978987 0.06281283
vn 0 -0.7071068 -0.7071068
vn 0.7071068 -0.7071068 0
vn -0.7071068 -0.7071068 0
vn 0.7071068 0.7071068 0
vn -0.7071068 0.7071068 0
vn 0 0.7071068 -0.7071068

usemtl JPBM6Metal003_2KMat
f 4/4/1 3/3/1 2/2/1 1/1/1
f 8/8/2 7/7/2 6/6/2 5/5/2
f 5/6/3 4/10/3 1/9/3 8/7/3
f 3/12/4 6/3/4 7/2/4 2/11/4

usemtl JPBM11LampMatOn
f 12/15/5 11/7/5 10/14/5 9/13/5
f 3/12/6 10/17/6 11/16/6 6/3/6
f 10/16/7 3/3/7 4/4/7 9/18/7
f 6/6/8 11/20/8 12/19/8 5/5/8
f 5/6/9 12/20/9 9/21/9 4/10/9

usemtl WoodSiding011
f 25/58/1 49/60/1 23/61/1
f 46/65/11 50/62/11 42/64/11
f 52/66/11 50/62/11 46/65/11
f 53/44/11 52/66/11 46/65/11
f 52/66/11 53/44/11 56/39/11
f 63/74/2 62/73/2 61/72/2
f 13/22/2 15/7/2 14/23/2
f 14/23/2 59/70/2 13/22/2
f 16/24/5 18/26/5 17/25/5
f 17/25/5 19/27/5 16/24/5
f 20/28/5 16/24/5 21/29/5
f 21/29/5 22/30/5 20/28/5
f 23/7/5 22/30/10 24/31/5
f 24/31/5 25/32/5 23/7/5
f 24/31/5 27/34/5 26/33/5
f 26/33/5 28/35/5 24/31/5
f 29/36/5 26/33/5 30/37/5
f 30/37/5 33/42/5 29/36/5
f 31/38/5 28/35/5 29/36/5
f 29/36/5 33/41/5 31/38/5
f 32/39/5 25/32/5 31/40/5
f 31/40/5 30/37/5 32/39/5
f 34/43/5 35/44/5 32/39/5
f 32/39/5 36/45/5 34/43/5
f 36/45/5 38/47/5 37/46/5
f 37/46/5 13/48/5 36/45/5
f 13/48/5 37/46/5 39/49/5
f 39/49/5 15/50/5 13/48/5
f 39/49/5 38/47/5 40/51/5
f 40/51/5 41/52/5 39/49/5
f 42/53/1 44/7/1 43/54/1
f 43/54/1 45/55/1 42/53/1
f 46/56/1 42/53/1 45/55/1
f 45/55/1 47/57/1 46/56/1
f 35/43/1 47/57/1 45/55/1
f 45/55/1 32/45/1 35/43/1
f 25/58/1 32/45/1 45/55/1
f 45/55/1 48/59/1 25/58/1
f 49/60/1 48/59/1 43/54/1
f 43/54/1 23/61/1 49/60/1
f 50/62/11 51/63/11 44/61/11
f 44/61/11 42/64/11 50/62/11
f 54/67/11 50/62/11 52/66/11
f 52/66/11 55/68/11 54/67/11
f 57/69/11 52/66/11 56/39/11
f 56/39/11 58/7/11 57/69/11
f 36/39/2 13/22/2 60/71/2
f 60/71/2 61/72/2 36/39/2
f 34/44/2 36/39/2 61/72/2
f 61/72/2 62/73/2 34/44/2
f 63/74/2 14/23/2 58/61/2
f 58/61/2 56/45/2 63/74/2
f 62/73/2 63/74/2 56/45/2
f 56/45/2 53/43/2 62/73/2
f 64/75/2 63/74/2 61/72/2
f 61/72/2 65/76/2 64/75/2

usemtl Wood062_1KMat
f 18/80/3 67/79/3 66/78/3 17/77/3
f 69/84/1 68/83/1 41/82/1 40/81/1
f 16/85/2 20/83/2 71/82/2 70/81/2
f 75/89/12 74/88/12 73/87/12 72/86/12
f 77/93/1 76/92/1 73/91/1 74/90/1
f 79/95/1 77/93/1 74/90/1 78/94/1
f 72/99/13 73/98/13 76/97/13 80/96/13
f 75/100/2 72/94/2 80/95/2 81/93/2
f 83/91/2 75/100/2 81/93/2 82/92/2
f 78/102/14 74/88/14 75/89/14 83/101/14
f 82/97/15 79/96/15 78/99/15 83/98/15
f 87/106/16 86/105/16 85/104/16 84/103/16
f 89/110/2 88/109/2 85/108/2 86/107/2
f 91/114/1 90/113/1 87/112/1 84/111/1
f 88/118/17 91/117/17 84/116/17 85/115/17

usemtl JPBM8concrete03Mat
f 39/147/3 22/141/3 57/146/3
f 92/119/18 94/121/18 93/120/18
f 93/120/18 95/122/18 92/119/18
f 96/123/5 98/7/5 97/124/5
f 97/124/5 99/125/5 96/123/5
f 100/123/1 101/7/1 98/126/1
f 98/126/1 96/127/1 100/123/1
f 99/123/2 97/7/2 102/126/2
f 102/126/2 103/127/2 99/123/2
f 100/124/4 96/129/4 99/128/4
f 99/128/4 103/7/4 100/124/4
f 98/128/3 101/7/3 102/124/3
f 102/124/3 97/129/3 98/128/3
f 104/130/19 106/131/19 105/124/10
f 105/124/10 107/132/10 104/130/19
f 108/133/4 104/135/4 107/134/4
f 107/134/4 109/136/4 108/133/4
f 110/137/3 44/139/3 51/138/3
f 51/138/3 111/140/3 110/137/3
f 110/137/3 111/140/3 22/141/3
f 22/141/3 23/142/3 110/137/3
f 22/141/3 111/140/3 112/143/3
f 112/143/3 57/146/3 22/141/3
f 112/143/3 111/140/3 113/144/3
f 113/144/3 114/145/3 112/143/3
f 15/148/3 39/147/3 57/146/3
f 57/146/3 58/149/3 15/148/3
f 115/119/11 117/7/11 116/150/11
f 116/150/11 118/151/11 115/119/11
f 119/119/20 120/7/20 117/152/2
f 117/152/2 115/153/2 119/119/20
f 118/150/4 121/155/4 119/154/4
f 119/154/4 115/7/4 118/150/4
f 15/7/3 116/157/3 117/156/3
f 117/156/3 120/120/3 15/7/3
f 94/158/3 15/7/3 120/120/3
f 120/120/3 93/159/3 94/158/3
f 122/160/1 124/161/1 123/49/1
f 123/49/1 125/162/1 122/160/1
f 122/163/4 125/165/4 126/164/4
f 126/164/4 127/166/4 122/163/4
f 128/150/4 122/163/4 127/166/4
f 127/166/4 129/7/4 128/150/4
f 123/167/3 124/168/3 130/166/3
f 130/166/3 23/164/3 123/167/3
f 131/169/3 123/167/3 22/170/3
f 22/170/3 106/171/3 131/169/3
f 132/119/21 131/7/5 106/172/19
f 106/172/19 104/173/19 132/119/21
f 125/119/1 123/7/1 131/150/1
f 131/150/1 132/151/1 125/119/1
f 125/172/4 132/175/4 104/174/4
f 104/174/4 133/7/4 125/172/4
f 128/176/1 134/178/1 124/177/1
f 124/177/1 122/179/1 128/176/1
f 124/166/3 134/7/3 44/150/3
f 44/150/3 130/163/3 124/166/3
f 135/119/1 136/7/1 134/150/1
f 134/150/1 128/151/1 135/119/1
f 137/119/11 138/7/11 136/180/11
f 136/180/11 135/181/11 137/119/11
f 139/119/2 51/7/2 138/150/2
f 138/150/2 137/151/2 139/119/2
f 135/180/4 128/182/4 139/174/4
f 139/174/4 137/7/4 135/180/4
f 134/174/3 136/7/3 138/180/3
f 138/180/3 51/182/3 134/174/3
f 140/119/1 141/7/1 57/150/1
f 57/150/1 142/151/1 140/119/1
f 118/119/11 116/7/11 141/69/11
f 141/69/11 140/183/11 118/119/11
f 140/69/4 142/184/4 143/174/4
f 143/174/4 118/7/4 140/69/4
f 57/174/3 141/7/3 116/69/3
f 116/69/3 58/184/3 57/174/3
f 107/119/10 105/7/10 94/121/5
f 94/121/5 92/185/5 107/119/10
f 144/121/4 107/186/4 92/174/4
f 92/174/4 121/187/4 144/121/4
f 95/119/22 93/7/22 120/188/20
f 120/188/20 119/189/20 95/119/22
f 121/150/4 92/191/4 95/190/4
f 95/190/4 119/7/4 121/150/4
f 145/192/2 111/194/2 51/193/2
f 51/193/2 50/195/2 145/192/2
f 146/124/4 37/197/4 13/196/4
f 13/196/4 59/7/4 146/124/4
f 61/198/11 60/22/11 147/199/11
f 147/199/11 148/200/11 61/198/11
f 149/201/3 150/203/3 64/202/3
f 64/202/3 65/204/3 149/201/3
f 52/198/1 57/7/1 151/124/1
f 151/124/1 152/200/1 52/198/1
f 153/140/3 54/138/3 55/146/3
f 55/146/3 154/205/3 153/140/3
f 155/206/5 156/83/5 14/82/5
f 14/82/5 63/207/5 155/206/5
f 94/208/3 106/210/3 22/209/3
f 22/209/3 15/211/3 94/208/3

usemtl JPBM11RoofingTiles015B_1K
f 159/7/23 158/7/23 157/7/23
f 162/212/24 161/212/24 160/212/24
f 163/213/25 165/215/25 164/214/25
f 164/214/25 166/216/25 163/213/25
f 165/215/26 168/218/26 167/217/26
f 167/217/26 164/214/26 165/215/26
f 169/219/12 171/221/12 170/220/12
f 170/220/12 172/222/12 169/219/12
f 173/223/5 174/225/5 163/224/5
f 163/224/5 166/226/5 173/223/5
f 172/227/11 170/229/11 167/228/11
f 167/228/11 168/230/11 172/227/11
f 175/231/14 173/233/14 171/232/14
f 171/232/14 77/234/14 175/231/14
f 82/235/14 176/236/14 175/231/14
f 175/231/14 79/237/14 82/235/14
f 81/238/14 169/240/14 174/239/14
f 174/239/14 176/241/14 81/238/14
f 164/242/1 167/244/1 170/243/1
f 170/243/1 171/245/1 164/242/1
f 164/246/1 171/248/1 173/247/1
f 173/247/1 166/249/1 164/246/1
f 168/250/2 165/252/2 169/251/2
f 169/251/2 172/253/2 168/250/2
f 174/254/2 169/256/2 165/255/2
f 165/255/2 163/257/2 174/254/2
f 177/258/27 179/260/4 178/259/4
f 178/259/4 180/261/27 177/258/27
f 181/262/5 177/264/27 180/263/27
f 180/263/27 182/265/5 181/262/5
f 183/262/28 185/264/11 184/263/11
f 184/263/11 186/265/28 183/262/28
f 179/266/4 183/268/28 186/267/28
f 186/267/28 178/269/4 179/266/4
f 187/270/29 183/272/29 179/271/29
f 179/271/29 188/273/29 187/270/29
f 188/274/30 179/276/30 177/275/30
f 177/275/30 189/277/30 188/274/30
f 189/278/31 177/280/32 181/279/31
f 181/279/31 190/281/33 189/278/31
f 191/282/34 185/284/35 183/283/34
f 183/283/34 187/285/36 191/282/34
f 192/286/37 178/288/37 186/287/37
f 186/287/37 193/289/37 192/286/37
f 193/290/38 186/292/39 184/291/38
f 184/291/38 194/293/40 193/290/38
f 195/294/41 180/296/41 178/295/41
f 178/295/41 192/297/41 195/294/41
f 196/298/42 182/300/43 180/299/42
f 180/299/42 195/301/44 196/298/42
f 197/302/17 198/304/17 158/303/17
f 158/303/17 199/305/17 197/302/17
f 200/306/1 161/308/1 198/307/1
f 198/307/1 197/309/1 200/306/1
f 199/310/2 158/312/2 201/311/2
f 201/311/2 202/313/2 199/310/2
f 200/314/45 197/316/45 199/315/45
f 199/315/45 202/317/45 200/314/45
f 160/318/46 161/7/46 201/212/46
f 201/212/46 159/319/46 160/318/46
f 160/318/16 90/321/16 91/320/16
f 91/320/16 162/322/16 160/318/16
f 198/323/47 162/322/47 157/324/47
f 157/324/47 158/325/47 198/323/47
f 89/326/16 159/328/16 157/327/16
f 157/327/16 88/329/16 89/326/16
f 189/330/2 190/332/2 203/331/2
f 203/331/2 204/333/2 189/330/2
f 204/333/2 203/331/2 191/334/2
f 191/334/2 187/336/2 204/333/2
f 188/335/2 189/330/2 204/333/2
f 204/333/2 187/336/2 188/335/2
f 205/337/1 196/339/1 195/338/1
f 195/338/1 206/340/1 205/337/1
f 206/340/1 195/338/1 192/341/1
f 192/341/1 193/342/1 206/340/1
f 205/337/1 206/340/1 193/342/1
f 193/342/1 194/343/1 205/337/1

usemtl JPBM11Plastic013BGray
f 248/605/88 247/608/87 426/607/123
f 245/609/85 246/604/86 426/607/123
f 207/344/48 209/346/50 208/345/49
f 208/345/49 210/347/4 207/344/48
f 208/348/49 212/350/52 211/349/51
f 211/349/51 210/347/4 208/348/49
f 211/351/51 213/353/53 207/352/48
f 207/352/48 210/347/4 211/351/51
f 208/354/49 209/356/50 214/355/54
f 214/355/54 215/357/55 208/354/49
f 212/354/52 208/359/49 215/358/55
f 215/358/55 216/357/56 212/354/52
f 211/354/51 212/359/52 216/358/56
f 216/358/56 217/357/57 211/354/51
f 213/360/53 211/359/51 217/358/57
f 217/358/57 218/361/58 213/360/53
f 219/362/59 218/361/58 217/358/57
f 217/358/57 220/363/60 219/362/59
f 207/354/48 213/359/53 218/358/58
f 218/358/58 221/357/61 207/354/48
f 209/354/50 207/359/48 221/358/61
f 221/358/61 214/357/54 209/354/50
f 222/364/62 215/366/55 214/365/54
f 214/365/54 223/367/63 222/364/62
f 223/368/63 214/370/54 221/369/61
f 221/369/61 224/371/64 223/368/63
f 225/372/65 216/374/56 215/373/55
f 215/373/55 222/375/62 225/372/65
f 220/376/60 217/378/57 216/377/56
f 216/377/56 225/379/65 220/376/60
f 224/380/64 221/382/61 218/381/58
f 218/381/58 219/383/59 224/380/64
f 226/384/66 222/386/62 223/385/63
f 223/385/63 227/387/67 226/384/66
f 227/388/67 223/390/63 224/389/64
f 224/389/64 228/391/68 227/388/67
f 229/392/69 225/394/65 222/393/62
f 222/393/62 226/395/66 229/392/69
f 230/396/70 220/398/60 225/397/65
f 225/397/65 229/399/69 230/396/70
f 231/400/71 219/402/59 220/401/60
f 220/401/60 230/403/70 231/400/71
f 228/404/68 224/406/64 219/405/59
f 219/405/59 231/407/71 228/404/68
f 232/408/72 226/410/66 227/409/67
f 227/409/67 233/411/73 232/408/72
f 233/412/73 227/414/67 228/413/68
f 228/413/68 234/415/74 233/412/73
f 235/416/75 229/418/69 226/417/66
f 226/417/66 232/419/72 235/416/75
f 236/420/76 230/422/70 229/421/69
f 229/421/69 235/423/75 236/420/76
f 237/424/77 231/426/71 230/425/70
f 230/425/70 236/427/76 237/424/77
f 234/428/74 228/430/68 231/429/71
f 231/429/71 237/431/77 234/428/74
f 238/432/78 232/434/72 233/433/73
f 233/433/73 239/435/79 238/432/78
f 239/436/79 233/438/73 234/437/74
f 234/437/74 240/439/80 239/436/79
f 241/440/81 235/442/75 232/441/72
f 232/441/72 238/443/78 241/440/81
f 242/444/82 236/446/76 235/445/75
f 235/445/75 241/447/81 242/444/82
f 243/448/83 237/450/77 236/449/76
f 236/449/76 242/451/82 243/448/83
f 240/452/80 234/454/74 237/453/77
f 237/453/77 243/455/83 240/452/80
f 244/456/84 238/458/78 239/457/79
f 239/457/79 245/459/85 244/456/84
f 245/460/85 239/462/79 240/461/80
f 240/461/80 246/463/86 245/460/85
f 247/464/87 241/466/81 238/465/78
f 238/465/78 244/467/84 247/464/87
f 248/468/88 242/470/82 241/469/81
f 241/469/81 247/471/87 248/468/88
f 249/472/89 243/474/83 242/473/82
f 242/473/82 248/475/88 249/472/89
f 246/476/86 240/478/80 243/477/83
f 243/477/83 249/479/89 246/476/86
f 250/480/90 252/482/90 251/481/91
f 251/481/91 253/483/91 250/480/90
f 254/484/28 256/486/28 255/485/92
f 255/485/92 257/487/92 254/484/28
f 253/480/91 251/482/91 258/481/93
f 258/481/93 259/483/93 253/480/91
f 260/484/94 261/486/94 256/485/28
f 256/485/28 254/487/28 260/484/94
f 259/480/93 258/482/93 262/481/3
f 262/481/3 263/483/3 259/480/93
f 264/484/4 265/486/4 261/485/94
f 261/485/94 260/487/94 264/484/4
f 263/480/3 262/482/3 266/481/95
f 266/481/95 267/483/95 263/480/3
f 268/484/96 269/486/96 265/485/4
f 265/485/4 264/487/4 268/484/96
f 267/480/95 266/482/95 270/481/97
f 270/481/97 271/483/98 267/480/95
f 272/484/99 273/486/99 269/485/96
f 269/485/96 268/487/96 272/484/99
f 271/480/98 270/482/97 274/481/100
f 274/481/100 275/483/100 271/480/98
f 276/484/101 277/486/101 273/485/99
f 273/485/99 272/487/99 276/484/101
f 252/488/1 255/490/1 256/489/1
f 256/489/1 251/491/1 252/488/1
f 251/491/1 256/489/1 261/492/1
f 261/492/1 258/493/1 251/491/1
f 258/493/1 261/492/1 265/494/1
f 265/494/1 262/495/1 258/493/1
f 262/495/1 265/494/1 269/496/1
f 269/496/1 266/497/1 262/495/1
f 266/497/1 269/496/1 273/498/1
f 273/498/1 270/499/1 266/497/1
f 270/499/1 273/498/1 277/500/1
f 277/500/1 274/501/1 270/499/1
f 257/502/2 250/504/2 253/503/2
f 253/503/2 254/505/2 257/502/2
f 254/505/2 253/503/2 259/506/2
f 259/506/2 260/507/2 254/505/2
f 260/507/2 259/506/2 263/508/2
f 263/508/2 264/509/2 260/507/2
f 264/509/2 263/508/2 267/510/2
f 267/510/2 268/511/2 264/509/2
f 268/511/2 267/510/2 271/512/2
f 271/512/2 272/513/2 268/511/2
f 272/513/2 271/512/2 275/501/2
f 275/501/2 276/514/2 272/513/2
f 257/515/4 255/517/4 252/516/4
f 252/516/4 250/518/4 257/515/4
f 275/519/4 274/521/4 277/520/4
f 277/520/4 276/522/4 275/519/4
f 278/523/11 280/525/11 279/524/11
f 279/524/11 281/526/11 278/523/11
f 280/524/2 278/526/2 282/523/2
f 282/523/2 283/525/2 280/524/2
f 284/527/2 280/524/2 283/525/2
f 283/525/2 285/528/2 284/527/2
f 286/529/2 284/527/2 285/528/2
f 285/528/2 287/530/2 286/529/2
f 288/531/2 286/529/2 287/530/2
f 287/530/2 289/532/2 288/531/2
f 290/533/2 288/531/2 289/532/2
f 289/532/2 291/534/2 290/533/2
f 292/523/5 293/525/5 283/524/5
f 283/524/5 282/526/5 292/523/5
f 293/524/1 292/526/1 281/523/1
f 281/523/1 279/525/1 293/524/1
f 294/535/1 293/524/1 279/525/1
f 279/525/1 295/536/1 294/535/1
f 296/537/1 294/535/1 295/536/1
f 295/536/1 297/538/1 296/537/1
f 298/539/1 296/537/1 297/538/1
f 297/538/1 299/540/1 298/539/1
f 300/541/1 298/539/1 299/540/1
f 299/540/1 301/542/1 300/541/1
f 285/543/102 283/545/102 293/544/102
f 293/544/102 294/546/102 285/543/102
f 295/547/103 279/549/103 280/548/103
f 280/548/103 284/550/103 295/547/103
f 287/551/104 285/553/104 294/552/104
f 294/552/104 296/554/104 287/551/104
f 297/555/105 295/557/105 284/556/105
f 284/556/105 286/558/105 297/555/105
f 289/559/106 287/561/106 296/560/106
f 296/560/106 298/562/106 289/559/106
f 299/563/107 297/565/107 286/564/107
f 286/564/107 288/566/107 299/563/107
f 291/567/108 289/569/108 298/568/108
f 298/568/108 300/570/108 291/567/108
f 301/571/109 299/573/109 288/572/109
f 288/572/109 290/574/109 301/571/109
f 302/523/11 304/525/11 303/524/11
f 303/524/11 305/526/11 302/523/11
f 304/524/2 302/526/2 306/523/2
f 306/523/2 307/525/2 304/524/2
f 308/527/2 304/524/2 307/525/2
f 307/525/2 309/528/2 308/527/2
f 310/529/2 308/527/2 309/528/2
f 309/528/2 311/530/2 310/529/2
f 312/531/2 310/529/2 311/530/2
f 311/530/2 313/532/2 312/531/2
f 314/533/2 312/531/2 313/532/2
f 313/532/2 315/534/2 314/533/2
f 316/523/5 317/525/5 307/524/5
f 307/524/5 306/526/5 316/523/5
f 317/524/1 316/526/1 305/523/1
f 305/523/1 303/525/1 317/524/1
f 318/535/1 317/524/1 303/525/1
f 303/525/1 319/536/1 318/535/1
f 320/537/1 318/535/1 319/536/1
f 319/536/1 321/538/1 320/537/1
f 322/539/1 320/537/1 321/538/1
f 321/538/1 323/540/1 322/539/1
f 324/541/1 322/539/1 323/540/1
f 323/540/1 325/542/1 324/541/1
f 309/543/102 307/545/102 317/544/102
f 317/544/102 318/546/102 309/543/102
f 319/547/103 303/549/103 304/548/103
f 304/548/103 308/550/103 319/547/103
f 311/551/104 309/553/104 318/552/104
f 318/552/104 320/554/104 311/551/104
f 321/555/105 319/557/105 308/556/105
f 308/556/105 310/558/105 321/555/105
f 313/559/106 311/561/106 320/560/106
f 320/560/106 322/562/106 313/559/106
f 323/563/110 321/565/110 310/564/110
f 310/564/110 312/566/110 323/563/110
f 315/567/108 313/569/108 322/568/108
f 322/568/108 324/570/108 315/567/108
f 325/571/109 323/573/109 312/572/109
f 312/572/109 314/574/109 325/571/109
f 326/575/11 328/577/11 327/576/11
f 327/576/11 329/578/11 326/575/11
f 328/524/2 326/526/2 330/523/2
f 330/523/2 331/525/2 328/524/2
f 332/527/2 328/524/2 331/525/2
f 331/525/2 333/528/2 332/527/2
f 334/529/2 332/527/2 333/528/2
f 333/528/2 335/530/2 334/529/2
f 336/531/2 334/529/2 335/530/2
f 335/530/2 337/532/2 336/531/2
f 338/533/2 336/531/2 337/532/2
f 337/532/2 339/534/2 338/533/2
f 340/575/5 341/577/5 331/576/5
f 331/576/5 330/578/5 340/575/5
f 341/524/1 340/526/1 329/523/1
f 329/523/1 327/525/1 341/524/1
f 342/535/1 341/524/1 327/525/1
f 327/525/1 343/536/1 342/535/1
f 344/537/1 342/535/1 343/536/1
f 343/536/1 345/538/1 344/537/1
f 346/539/1 344/537/1 345/538/1
f 345/538/1 347/540/1 346/539/1
f 348/541/1 346/539/1 347/540/1
f 347/540/1 349/542/1 348/541/1
f 333/543/102 331/580/102 341/579/102
f 341/579/102 342/546/102 333/543/102
f 343/547/103 327/582/103 328/581/103
f 328/581/103 332/550/103 343/547/103
f 335/551/104 333/553/104 342/552/104
f 342/552/104 344/554/104 335/551/104
f 345/555/105 343/557/105 332/556/105
f 332/556/105 334/558/105 345/555/105
f 337/559/106 335/561/106 344/560/106
f 344/560/106 346/562/106 337/559/106
f 347/563/107 345/565/107 334/564/107
f 334/564/107 336/566/107 347/563/107
f 339/567/108 337/569/108 346/568/108
f 346/568/108 348/570/108 339/567/108
f 349/571/109 347/573/109 336/572/109
f 336/572/109 338/574/109 349/571/109
f 350/583/90 352/482/90 351/481/111
f 351/481/111 353/584/111 350/583/90
f 354/585/28 356/486/28 355/485/92
f 355/485/92 357/586/92 354/585/28
f 353/583/111 351/482/111 358/481/112
f 358/481/112 359/584/112 353/583/111
f 360/585/113 361/486/94 356/485/28
f 356/485/28 354/586/28 360/585/113
f 359/583/112 358/482/112 362/481/3
f 362/481/3 363/584/3 359/583/112
f 364/585/4 365/486/4 361/485/94
f 361/485/94 360/586/113 364/585/4
f 363/583/3 362/482/3 366/481/114
f 366/481/114 367/584/114 363/583/3
f 368/585/96 369/486/96 365/485/4
f 365/485/4 364/586/4 368/585/96
f 367/583/114 366/482/114 370/481/97
f 370/481/97 371/584/97 367/583/114
f 372/585/99 373/486/99 369/485/96
f 369/485/96 368/586/96 372/585/99
f 371/583/97 370/482/97 374/481/100
f 374/481/100 375/584/100 371/583/97
f 376/585/101 377/486/101 373/485/99
f 373/485/99 372/586/99 376/585/101
f 352/488/1 355/490/1 356/489/1
f 356/489/1 351/491/1 352/488/1
f 351/491/1 356/489/1 361/587/1
f 361/587/1 358/588/1 351/491/1
f 358/588/1 361/587/1 365/494/1
f 365/494/1 362/589/1 358/588/1
f 362/589/1 365/494/1 369/496/1
f 369/496/1 366/590/1 362/589/1
f 366/590/1 369/496/1 373/591/1
f 373/591/1 370/499/1 366/590/1
f 370/499/1 373/591/1 377/500/1
f 377/500/1 374/501/1 370/499/1
f 357/502/2 350/504/2 353/503/2
f 353/503/2 354/505/2 357/502/2
f 354/505/2 353/503/2 359/506/2
f 359/506/2 360/507/2 354/505/2
f 360/507/2 359/506/2 363/508/2
f 363/508/2 364/509/2 360/507/2
f 364/509/2 363/508/2 367/510/2
f 367/510/2 368/511/2 364/509/2
f 368/511/2 367/510/2 371/512/2
f 371/512/2 372/513/2 368/511/2
f 372/513/2 371/512/2 375/501/2
f 375/501/2 376/514/2 372/513/2
f 357/592/4 355/593/4 352/516/4
f 352/516/4 350/594/4 357/592/4
f 375/595/4 374/596/4 377/520/4
f 377/520/4 376/597/4 375/595/4
f 378/523/5 380/525/5 379/576/5
f 379/576/5 381/578/5 378/523/5
f 380/576/1 378/578/1 382/523/1
f 382/523/1 383/525/1 380/576/1
f 384/527/1 380/576/1 383/525/1
f 383/525/1 385/528/1 384/527/1
f 386/529/1 384/527/1 385/528/1
f 385/528/1 387/530/1 386/529/1
f 388/531/1 386/529/1 387/530/1
f 387/530/1 389/532/1 388/531/1
f 390/533/1 388/531/1 389/532/1
f 389/532/1 391/598/1 390/533/1
f 392/575/11 393/577/11 383/524/11
f 383/524/11 382/526/11 392/575/11
f 393/524/2 392/526/2 381/575/2
f 381/575/2 379/577/2 393/524/2
f 394/535/2 393/524/2 379/577/2
f 379/577/2 395/536/2 394/535/2
f 396/537/2 394/535/2 395/536/2
f 395/536/2 397/538/2 396/537/2
f 398/539/2 396/537/2 397/538/2
f 397/538/2 399/540/2 398/539/2
f 400/599/2 398/539/2 399/540/2
f 399/540/2 401/542/2 400/599/2
f 385/543/115 383/545/115 393/579/115
f 393/579/115 394/546/115 385/543/115
f 395/547/116 379/582/116 380/548/116
f 380/548/116 384/550/116 395/547/116
f 387/551/117 385/553/117 394/552/117
f 394/552/117 396/554/117 387/551/117
f 397/555/118 395/557/118 384/556/118
f 384/556/118 386/558/118 397/555/118
f 389/559/119 387/561/119 396/560/119
f 396/560/119 398/562/119 389/559/119
f 399/563/120 397/565/120 386/564/120
f 386/564/120 388/566/120 399/563/120
f 391/600/121 389/602/121 398/601/121
f 398/601/121 400/603/121 391/600/121
f 401/571/122 399/573/122 388/572/122
f 388/572/122 390/574/122 401/571/122
f 402/523/5 404/525/5 403/524/5
f 403/524/5 405/526/5 402/523/5
f 404/576/1 402/578/1 406/523/1
f 406/523/1 407/525/1 404/576/1
f 408/527/1 404/576/1 407/525/1
f 407/525/1 409/528/1 408/527/1
f 410/529/1 408/527/1 409/528/1
f 409/528/1 411/530/1 410/529/1
f 412/531/1 410/529/1 411/530/1
f 411/530/1 413/532/1 412/531/1
f 414/533/1 412/531/1 413/532/1
f 413/532/1 415/598/1 414/533/1
f 416/523/11 417/525/11 407/524/11
f 407/524/11 406/526/11 416/523/11
f 417/524/2 416/526/2 405/575/2
f 405/575/2 403/577/2 417/524/2
f 418/535/2 417/524/2 403/577/2
f 403/577/2 419/536/2 418/535/2
f 420/537/2 418/535/2 419/536/2
f 419/536/2 421/538/2 420/537/2
f 422/539/2 420/537/2 421/538/2
f 421/538/2 423/540/2 422/539/2
f 424/599/2 422/539/2 423/540/2
f 423/540/2 425/542/2 424/599/2
f 409/543/115 407/545/115 417/544/115
f 417/544/115 418/546/115 409/543/115
f 419/547/116 403/549/116 404/548/116
f 404/548/116 408/550/116 419/547/116
f 411/551/117 409/553/117 418/552/117
f 418/552/117 420/554/117 411/551/117
f 421/555/118 419/557/118 408/556/118
f 408/556/118 410/558/118 421/555/118
f 413/559/119 411/561/119 420/560/119
f 420/560/119 422/562/119 413/559/119
f 423/563/120 421/565/120 410/564/120
f 410/564/120 412/566/120 423/563/120
f 415/600/121 413/602/121 422/601/121
f 422/601/121 424/603/121 415/600/121
f 425/571/122 423/573/122 412/572/122
f 412/572/122 414/574/122 425/571/122
f 246/604/86 249/606/89 248/605/88
f 248/605/88 426/607/123 246/604/86
f 426/607/123 247/608/87 244/610/84
f 244/610/84 245/609/85 426/607/123
f 427/611/5 429/613/5 428/612/5
f 428/612/5 430/614/5 427/611/5
f 431/611/1 432/613/1 429/612/1
f 429/612/1 427/614/1 431/611/1
f 433/611/11 434/613/11 432/612/11
f 432/612/11 431/614/11 433/611/11
f 430/611/2 428/613/2 434/612/2
f 434/612/2 433/614/2 430/611/2
f 435/615/124 432/617/124 434/616/124
f 434/616/124 436/618/124 435/615/124
f 436/619/125 434/621/125 428/620/125
f 428/620/125 437/622/125 436/619/125
f 438/623/126 429/625/126 432/624/126
f 432/624/126 435/626/126 438/623/126
f 437/615/9 428/617/9 429/616/9
f 429/616/9 438/618/9 437/615/9
f 439/627/5 441/629/5 440/628/5
f 440/628/5 442/630/5 439/627/5
f 443/627/1 444/629/1 441/628/1
f 441/628/1 439/630/1 443/627/1
f 445/627/11 446/629/11 444/628/11
f 444/628/11 443/630/11 445/627/11
f 442/627/2 440/629/2 446/628/2
f 446/628/2 445/630/2 442/627/2
f 447/631/5 449/7/5 448/632/5
f 448/632/5 450/633/5 447/631/5
f 451/631/1 452/7/1 449/632/1
f 449/632/1 447/633/1 451/631/1
f 453/631/11 454/7/11 452/632/11
f 452/632/11 451/633/11 453/631/11
f 450/631/2 448/7/2 454/632/2
f 454/632/2 453/633/2 450/631/2
f 455/634/6 447/636/6 450/635/6
f 450/635/6 456/637/6 455/634/6
f 456/623/127 450/625/127 453/624/127
f 453/624/127 457/626/127 456/623/127
f 458/619/128 451/621/128 447/620/128
f 447/620/128 455/622/128 458/619/128
f 457/634/129 453/636/129 451/635/129
f 451/635/129 458/637/129 457/634/129
f 459/611/5 461/613/5 460/612/5
f 460/612/5 462/614/5 459/611/5
f 463/611/1 464/613/1 461/612/1
f 461/612/1 459/614/1 463/611/1
f 465/611/11 466/613/11 464/612/11
f 464/612/11 463/614/11 465/611/11
f 462/611/2 460/613/2 466/612/2
f 466/612/2 465/614/2 462/611/2
f 467/615/124 464/617/124 466/616/124
f 466/616/124 468/618/124 467/615/124
f 468/619/125 466/621/125 460/620/125
f 460/620/125 469/622/125 468/619/125
f 470/623/126 461/625/126 464/624/126
f 464/624/126 467/626/126 470/623/126
f 469/615/9 460/617/9 461/616/9
f 461/616/9 470/618/9 469/615/9
f 471/627/5 473/629/5 472/628/5
f 472/628/5 474/630/5 471/627/5
f 475/627/1 476/629/1 473/628/1
f 473/628/1 471/630/1 475/627/1
f 477/627/11 478/629/11 476/628/11
f 476/628/11 475/630/11 477/627/11
f 474/627/2 472/629/2 478/628/2
f 478/628/2 477/630/2 474/627/2
f 479/631/5 481/7/5 480/632/5
f 480/632/5 482/633/5 479/631/5
f 483/631/1 484/7/1 481/632/1
f 481/632/1 479/633/1 483/631/1
f 485/631/11 486/7/11 484/632/11
f 484/632/11 483/633/11 485/631/11
f 482/631/2 480/7/2 486/632/2
f 486/632/2 485/633/2 482/631/2
f 487/634/6 479/636/6 482/635/6
f 482/635/6 488/637/6 487/634/6
f 488/623/127 482/625/127 485/624/127
f 485/624/127 489/626/127 488/623/127
f 490/619/128 483/621/128 479/620/128
f 479/620/128 487/622/128 490/619/128
f 489/634/129 485/636/129 483/635/129
f 483/635/129 490/637/129 489/634/129

