# ProBuilder 4.1.0
# https://unity3d.com/unity/features/worldbuilding/probuilder
# 2024-04-13 PM 6:35:07

mtllib ./JapaneseBuildingModel05OutdoorUnitStandVer.mtl
o JapaneseBuildingModel05OutdoorUnitStandVer

g JapaneseBuildingModel05OutdoorUnitStandVer
v -0.1000061 0 1.199997
v -0.8500061 0 1.199997
v -0.1000061 0.09999847 1.199997
v -0.8500061 0.09999847 1.199997
v -0.8500061 0 1.099991
v -0.1000061 0 1.099991
v -0.8500061 0.09999847 1.099991
v -0.1000061 0.09999847 1.099991
v -0.9500122 0 1.199997
v -0.9500122 0 1.099991
v 0 0 1.199997
v 0 0 1.099991
v -0.8184204 0.2340393 0.272995
v -0.86203 0.2728157 0.272995
v -0.8188171 0.2390251 0.281662
v -0.8570251 0.2728157 0.281662
v -0.8196106 0.2490044 0.281662
v -0.8470154 0.2728157 0.281662
v -0.8200073 0.2539597 0.272995
v -0.842041 0.2728157 0.272995
v -0.8196106 0.2490044 0.264328
v -0.8470154 0.2728157 0.264328
v -0.8188171 0.2390251 0.264328
v -0.8570251 0.2728157 0.264328
v -0.86203 0.8844795 0.272995
v -0.8570251 0.8844795 0.281662
v -0.8470154 0.8844795 0.281662
v -0.842041 0.8844795 0.272995
v -0.8470154 0.8844795 0.264328
v -0.8570251 0.8844795 0.264328
v -0.8221741 0.9133301 0.272995
v -0.8224792 0.9083328 0.281662
v -0.8230286 0.8983383 0.281662
v -0.8233337 0.8933716 0.272995
v -0.8230286 0.8983383 0.264328
v -0.8224792 0.9083328 0.264328
v -0.8184204 0.2340393 0.022995
v -0.86203 0.2728157 0.022995
v -0.8188171 0.2390251 0.03166199
v -0.8570251 0.2728157 0.03166199
v -0.8196106 0.2490044 0.03166199
v -0.8470154 0.2728157 0.03166199
v -0.8200073 0.2539597 0.022995
v -0.842041 0.2728157 0.022995
v -0.8196106 0.2490044 0.014328
v -0.8470154 0.2728157 0.014328
v -0.8188171 0.2390251 0.014328
v -0.8570251 0.2728157 0.014328
v -0.86203 0.8844795 0.022995
v -0.8570251 0.8844795 0.03166199
v -0.8470154 0.8844795 0.03166199
v -0.842041 0.8844795 0.022995
v -0.8470154 0.8844795 0.014328
v -0.8570251 0.8844795 0.014328
v -0.8221741 0.9133301 0.022995
v -0.8224792 0.9083328 0.03166199
v -0.8230286 0.8983383 0.03166199
v -0.8233337 0.8933716 0.022995
v -0.8230286 0.8983383 0.014328
v -0.8224792 0.9083328 0.014328
v -0.8184204 0.2340393 0.2230072
v -0.86203 0.2728157 0.2230072
v -0.8188171 0.2390251 0.2316742
v -0.8570251 0.2728157 0.2316742
v -0.8196106 0.2490044 0.2316742
v -0.8470154 0.2728157 0.2316742
v -0.8200073 0.2539597 0.2230072
v -0.842041 0.2728157 0.2230072
v -0.8196106 0.2490044 0.2143402
v -0.8470154 0.2728157 0.2143402
v -0.8188171 0.2390251 0.2143402
v -0.8570251 0.2728157 0.2143402
v -0.86203 0.8844795 0.2230072
v -0.8570251 0.8844795 0.2316742
v -0.8470154 0.8844795 0.2316742
v -0.842041 0.8844795 0.2230072
v -0.8470154 0.8844795 0.2143402
v -0.8570251 0.8844795 0.2143402
v -0.8221741 0.9133301 0.2230072
v -0.8224792 0.9083328 0.2316742
v -0.8230286 0.8983383 0.2316742
v -0.8233337 0.8933716 0.2230072
v -0.8230286 0.8983383 0.2143402
v -0.8224792 0.9083328 0.2143402
v -0.8184204 0.2340393 0.4730072
v -0.86203 0.2728157 0.4730072
v -0.8188171 0.2390251 0.4816742
v -0.8570251 0.2728157 0.4816742
v -0.8196106 0.2490044 0.4816742
v -0.8470154 0.2728157 0.4816742
v -0.8200073 0.2539597 0.4730072
v -0.842041 0.2728157 0.4730072
v -0.8196106 0.2490044 0.4643402
v -0.8470154 0.2728157 0.4643402
v -0.8188171 0.2390251 0.4643402
v -0.8570251 0.2728157 0.4643402
v -0.86203 0.8844795 0.4730072
v -0.8570251 0.8844795 0.4816742
v -0.8470154 0.8844795 0.4816742
v -0.842041 0.8844795 0.4730072
v -0.8470154 0.8844795 0.4643402
v -0.8570251 0.8844795 0.4643402
v -0.8221741 0.9133301 0.4730072
v -0.8224792 0.9083328 0.4816742
v -0.8230286 0.8983383 0.4816742
v -0.8233337 0.8933716 0.4730072
v -0.8230286 0.8983383 0.4643402
v -0.8224792 0.9083328 0.4643402
v -0.8184204 0.2340393 0.1730042
v -0.86203 0.2728157 0.1730042
v -0.8188171 0.2390251 0.1816711
v -0.8570251 0.2728157 0.1816711
v -0.8196106 0.2490044 0.1816711
v -0.8470154 0.2728157 0.1816711
v -0.8200073 0.2539597 0.1730042
v -0.842041 0.2728157 0.1730042
v -0.8196106 0.2490044 0.1643372
v -0.8470154 0.2728157 0.1643372
v -0.8188171 0.2390251 0.1643372
v -0.8570251 0.2728157 0.1643372
v -0.86203 0.8844795 0.1730042
v -0.8570251 0.8844795 0.1816711
v -0.8470154 0.8844795 0.1816711
v -0.842041 0.8844795 0.1730042
v -0.8470154 0.8844795 0.1643372
v -0.8570251 0.8844795 0.1643372
v -0.8221741 0.9133301 0.1730042
v -0.8224792 0.9083328 0.1816711
v -0.8230286 0.8983383 0.1816711
v -0.8233337 0.8933716 0.1730042
v -0.8230286 0.8983383 0.1643372
v -0.8224792 0.9083328 0.1643372
v -0.8184204 0.2340393 0.07299805
v -0.86203 0.2728157 0.07299805
v -0.8188171 0.2390251 0.08166504
v -0.8570251 0.2728157 0.08166504
v -0.8196106 0.2490044 0.08166504
v -0.8470154 0.2728157 0.08166504
v -0.8200073 0.2539597 0.07299805
v -0.842041 0.2728157 0.07299805
v -0.8196106 0.2490044 0.06433105
v -0.8470154 0.2728157 0.06433105
v -0.8188171 0.2390251 0.06433105
v -0.8570251 0.2728157 0.06433105
v -0.86203 0.8844795 0.07299805
v -0.8570251 0.8844795 0.08166504
v -0.8470154 0.8844795 0.08166504
v -0.842041 0.8844795 0.07299805
v -0.8470154 0.8844795 0.06433105
v -0.8570251 0.8844795 0.06433105
v -0.8221741 0.9133301 0.07299805
v -0.8224792 0.9083328 0.08166504
v -0.8230286 0.8983383 0.08166504
v -0.8233337 0.8933716 0.07299805
v -0.8230286 0.8983383 0.06433105
v -0.8224792 0.9083328 0.06433105
v -0.8184204 0.2340393 0.1230011
v -0.86203 0.2728157 0.1230011
v -0.8188171 0.2390251 0.1316681
v -0.8570251 0.2728157 0.1316681
v -0.8196106 0.2490044 0.1316681
v -0.8470154 0.2728157 0.1316681
v -0.8200073 0.2539597 0.1230011
v -0.842041 0.2728157 0.1230011
v -0.8196106 0.2490044 0.1143341
v -0.8470154 0.2728157 0.1143341
v -0.8188171 0.2390251 0.1143341
v -0.8570251 0.2728157 0.1143341
v -0.86203 0.8844795 0.1230011
v -0.8570251 0.8844795 0.1316681
v -0.8470154 0.8844795 0.1316681
v -0.842041 0.8844795 0.1230011
v -0.8470154 0.8844795 0.1143341
v -0.8570251 0.8844795 0.1143341
v -0.8221741 0.9133301 0.1230011
v -0.8224792 0.9083328 0.1316681
v -0.8230286 0.8983383 0.1316681
v -0.8233337 0.8933716 0.1230011
v -0.8230286 0.8983383 0.1143341
v -0.8224792 0.9083328 0.1143341
v -0.8184204 0.2340393 -0.0269928
v -0.86203 0.2728157 -0.0269928
v -0.8188171 0.2390251 -0.01832581
v -0.8570251 0.2728157 -0.01832581
v -0.8196106 0.2490044 -0.01832581
v -0.8470154 0.2728157 -0.01832581
v -0.8200073 0.2539597 -0.0269928
v -0.842041 0.2728157 -0.0269928
v -0.8196106 0.2490044 -0.03565979
v -0.8470154 0.2728157 -0.03565979
v -0.8188171 0.2390251 -0.03565979
v -0.8570251 0.2728157 -0.03565979
v -0.86203 0.8844795 -0.0269928
v -0.8570251 0.8844795 -0.01832581
v -0.8470154 0.8844795 -0.01832581
v -0.842041 0.8844795 -0.0269928
v -0.8470154 0.8844795 -0.03565979
v -0.8570251 0.8844795 -0.03565979
v -0.8221741 0.9133301 -0.0269928
v -0.8224792 0.9083328 -0.01832581
v -0.8230286 0.8983383 -0.01832581
v -0.8233337 0.8933716 -0.0269928
v -0.8230286 0.8983383 -0.03565979
v -0.8224792 0.9083328 -0.03565979
v -0.8184204 0.2340393 0.4230042
v -0.86203 0.2728157 0.4230042
v -0.8188171 0.2390251 0.4316711
v -0.8570251 0.2728157 0.4316711
v -0.8196106 0.2490044 0.4316711
v -0.8470154 0.2728157 0.4316711
v -0.8200073 0.2539597 0.4230042
v -0.842041 0.2728157 0.4230042
v -0.8196106 0.2490044 0.4143372
v -0.8470154 0.2728157 0.4143372
v -0.8188171 0.2390251 0.4143372
v -0.8570251 0.2728157 0.4143372
v -0.86203 0.8844795 0.4230042
v -0.8570251 0.8844795 0.4316711
v -0.8470154 0.8844795 0.4316711
v -0.842041 0.8844795 0.4230042
v -0.8470154 0.8844795 0.4143372
v -0.8570251 0.8844795 0.4143372
v -0.8221741 0.9133301 0.4230042
v -0.8224792 0.9083328 0.4316711
v -0.8230286 0.8983383 0.4316711
v -0.8233337 0.8933716 0.4230042
v -0.8230286 0.8983383 0.4143372
v -0.8224792 0.9083328 0.4143372
v -0.8184204 0.2340393 0.322998
v -0.86203 0.2728157 0.322998
v -0.8188171 0.2390251 0.331665
v -0.8570251 0.2728157 0.331665
v -0.8196106 0.2490044 0.331665
v -0.8470154 0.2728157 0.331665
v -0.8200073 0.2539597 0.322998
v -0.842041 0.2728157 0.322998
v -0.8196106 0.2490044 0.3143311
v -0.8470154 0.2728157 0.3143311
v -0.8188171 0.2390251 0.3143311
v -0.8570251 0.2728157 0.3143311
v -0.86203 0.8844795 0.322998
v -0.8570251 0.8844795 0.331665
v -0.8470154 0.8844795 0.331665
v -0.842041 0.8844795 0.322998
v -0.8470154 0.8844795 0.3143311
v -0.8570251 0.8844795 0.3143311
v -0.8221741 0.9133301 0.322998
v -0.8224792 0.9083328 0.331665
v -0.8230286 0.8983383 0.331665
v -0.8233337 0.8933716 0.322998
v -0.8230286 0.8983383 0.3143311
v -0.8224792 0.9083328 0.3143311
v -0.8184204 0.2340393 0.3730011
v -0.86203 0.2728157 0.3730011
v -0.8188171 0.2390251 0.3816681
v -0.8570251 0.2728157 0.3816681
v -0.8196106 0.2490044 0.3816681
v -0.8470154 0.2728157 0.3816681
v -0.8200073 0.2539597 0.3730011
v -0.842041 0.2728157 0.3730011
v -0.8196106 0.2490044 0.3643341
v -0.8470154 0.2728157 0.3643341
v -0.8188171 0.2390251 0.3643341
v -0.8570251 0.2728157 0.3643341
v -0.86203 0.8844795 0.3730011
v -0.8570251 0.8844795 0.3816681
v -0.8470154 0.8844795 0.3816681
v -0.842041 0.8844795 0.3730011
v -0.8470154 0.8844795 0.3643341
v -0.8570251 0.8844795 0.3643341
v -0.8221741 0.9133301 0.3730011
v -0.8224792 0.9083328 0.3816681
v -0.8230286 0.8983383 0.3816681
v -0.8233337 0.8933716 0.3730011
v -0.8230286 0.8983383 0.3643341
v -0.8224792 0.9083328 0.3643341
v -0.8184204 0.2340393 0.522995
v -0.86203 0.2728157 0.522995
v -0.8188171 0.2390251 0.531662
v -0.8570251 0.2728157 0.531662
v -0.8196106 0.2490044 0.531662
v -0.8470154 0.2728157 0.531662
v -0.8200073 0.2539597 0.522995
v -0.842041 0.2728157 0.522995
v -0.8196106 0.2490044 0.514328
v -0.8470154 0.2728157 0.514328
v -0.8188171 0.2390251 0.514328
v -0.8570251 0.2728157 0.514328
v -0.86203 0.8844795 0.522995
v -0.8570251 0.8844795 0.531662
v -0.8470154 0.8844795 0.531662
v -0.842041 0.8844795 0.522995
v -0.8470154 0.8844795 0.514328
v -0.8570251 0.8844795 0.514328
v -0.8221741 0.9133301 0.522995
v -0.8224792 0.9083328 0.531662
v -0.8230286 0.8983383 0.531662
v -0.8233337 0.8933716 0.522995
v -0.8230286 0.8983383 0.514328
v -0.8224792 0.9083328 0.514328
v -0.8184204 0.2340393 -0.07699585
v -0.86203 0.2728157 -0.07699585
v -0.8188171 0.2390251 -0.06832886
v -0.8570251 0.2728157 -0.06832886
v -0.8196106 0.2490044 -0.06832886
v -0.8470154 0.2728157 -0.06832886
v -0.8200073 0.2539597 -0.07699585
v -0.842041 0.2728157 -0.07699585
v -0.8196106 0.2490044 -0.08566284
v -0.8470154 0.2728157 -0.08566284
v -0.8188171 0.2390251 -0.08566284
v -0.8570251 0.2728157 -0.08566284
v -0.86203 0.8844795 -0.07699585
v -0.8570251 0.8844795 -0.06832886
v -0.8470154 0.8844795 -0.06832886
v -0.842041 0.8844795 -0.07699585
v -0.8470154 0.8844795 -0.08566284
v -0.8570251 0.8844795 -0.08566284
v -0.8221741 0.9133301 -0.07699585
v -0.8224792 0.9083328 -0.06832886
v -0.8230286 0.8983383 -0.06832886
v -0.8233337 0.8933716 -0.07699585
v -0.8230286 0.8983383 -0.08566284
v -0.8224792 0.9083328 -0.08566284
v -0.5250244 0.1004906 -0.09999084
v -0.5250244 0.1004906 -0.1999969
v -0.5250244 1.100491 -0.09999084
v -0.5250244 1.100491 -0.1999969
v -0.4250183 0.1004906 -0.1999969
v -0.4250183 1.100491 -0.1999969
v -0.4250183 0.1004906 -0.09999084
v -0.4250183 1.100491 -0.09999084
v -0.4250183 0.5250015 -0.09999084
v -0.2250061 0.5250015 -0.09999084
v -0.4250183 0.6750031 -0.09999084
v -0.2250061 0.6750031 -0.09999084
v -0.1250305 0.1004906 -0.1999969
v -0.1250305 0.1004906 1.300003
v -0.1250305 1.100491 -0.1999969
v -0.1250305 1.100491 1.300003
v -0.8250122 0.1004906 1.300003
v -0.8250122 1.100491 1.300003
v -0.8250122 0.1004906 -0.1999969
v -0.8250122 1.100491 -0.1999969
v -0.2250366 0.1004906 -0.09999084
v -0.2250366 0.1004906 -0.1999969
v -0.2250366 1.100491 -0.09999084
v -0.2250366 1.100491 -0.1999969
v -0.4250183 0.3004913 -0.1999969
v -0.2250061 0.3004913 -0.1999969
v -0.2250061 0.3004913 -0.09999084
v -0.4250183 0.3004913 -0.09999084
v -0.7250061 0.1004906 -0.1999969
v -0.7250061 1.100491 -0.1999969
v -0.7250061 0.1004906 -0.09999084
v -0.7250061 1.100491 -0.09999084
v -0.4250183 0.4500008 -0.1999969
v -0.2250061 0.4500008 -0.1999969
v -0.4250183 0.5250015 -0.1999969
v -0.2250061 0.5250015 -0.1999969
v -0.2250061 0.4500008 -0.09999084
v -0.4250183 0.4500008 -0.09999084
v -0.4250183 0.6750031 -0.1999969
v -0.2250061 0.6750031 -0.1999969
v -0.4250183 0.7500038 -0.1999969
v -0.2250061 0.7500038 -0.1999969
v -0.2250061 0.7500038 -0.09999084
v -0.4250183 0.7500038 -0.09999084
v -0.4250183 0.9000015 -0.1999969
v -0.2250061 0.9000015 -0.1999969
v -0.2250061 0.9000015 -0.09999084
v -0.4250183 0.9000015 -0.09999084
v -0.7250061 0.3004913 -0.1999969
v -0.5250244 0.3004913 -0.1999969
v -0.5250244 0.3004913 -0.09999084
v -0.7250061 0.3004913 -0.09999084
v -0.7250061 0.4500008 -0.1999969
v -0.5250244 0.4500008 -0.1999969
v -0.7250061 0.5250015 -0.1999969
v -0.5250244 0.5250015 -0.1999969
v -0.5250244 0.5250015 -0.09999084
v -0.7250061 0.5250015 -0.09999084
v -0.5250244 0.4500008 -0.09999084
v -0.7250061 0.4500008 -0.09999084
v -0.7250061 0.6750031 -0.1999969
v -0.5250244 0.6750031 -0.1999969
v -0.7250061 0.7500038 -0.1999969
v -0.5250244 0.7500038 -0.1999969
v -0.5250244 0.7500038 -0.09999084
v -0.7250061 0.7500038 -0.09999084
v -0.5250244 0.6750031 -0.09999084
v -0.7250061 0.6750031 -0.09999084
v -0.7250061 0.9000015 -0.1999969
v -0.5250244 0.9000015 -0.1999969
v -0.5250244 0.9000015 -0.09999084
v -0.7250061 0.9000015 -0.09999084
v -0.8250122 0.9928398 -0.1999969
v -0.8250122 0.5909004 1.300003
v -0.8249817 0.8392982 0.3730011
v -0.8250122 0.7294731 0.4828186
v -0.8250122 0.1004906 0.6513519
v -0.8249817 0.5794907 0.522995
v -0.8250122 0.5794907 0.5230103
v -0.8250122 0.1004906 0.3946533
v -0.8250122 0.4294701 0.4828033
v -0.8250122 0.1004906 0.1538086
v -0.8250122 0.3196869 0.3730164
v -0.8250122 0.2102661 -0.0353241
v -0.8249817 0.2794914 0.2230072
v -0.8250122 0.3196831 0.07299805
v -0.8250122 0.3928299 -0.1999969
v -0.8249817 0.4294891 -0.0368042
v -0.8250122 0.9893036 -0.1867981
v -0.8250122 0.5926781 -0.2000122
v -0.8249817 0.5794907 -0.07699585
v -0.8250122 0.9343987 0.01809692
v -0.8250122 0.7294884 -0.0368042
v -0.8250122 0.9026985 0.1364136
v -0.8250122 0.8393059 0.07302856
v -0.8250122 0.8794937 0.2230225
v -0.6369934 0.8794899 0.2230072
v -0.6369934 0.8392982 0.3730011
v -0.6369934 0.7294884 0.4828033
v -0.6369934 0.5794907 0.522995
v -0.6369934 0.4294891 0.4828033
v -0.6369934 0.3196831 0.3730011
v -0.6369934 0.2794914 0.2230072
v -0.6369934 0.3196831 0.07299805
v -0.6369934 0.4294891 -0.0368042
v -0.6369934 0.5794907 -0.07699585
v -0.8250122 0.5794907 -0.07699585
v -0.6369934 0.7294884 -0.0368042
v -0.6369934 0.8392982 0.07299805
v -0.6369934 0.5794907 0.2230072
v -0.5250244 0.7800026 -0.173996
v -0.7250061 0.7800026 -0.173996
v -0.5250244 0.7900009 -0.173996
v -0.7250061 0.7900009 -0.173996
v -0.7250061 0.7800026 -0.1940002
v -0.5250244 0.7800026 -0.1940002
v -0.7250061 0.7900009 -0.1940002
v -0.5250244 0.7900009 -0.1940002
v -0.2250061 0.5350037 -0.173996
v -0.4250183 0.5350037 -0.173996
v -0.2250061 0.545002 -0.173996
v -0.4250183 0.545002 -0.173996
v -0.4250183 0.5350037 -0.1940002
v -0.2250061 0.5350037 -0.1940002
v -0.4250183 0.545002 -0.1940002
v -0.2250061 0.545002 -0.1940002
v -0.2250061 0.5550041 -0.173996
v -0.4250183 0.5550041 -0.173996
v -0.2250061 0.5650024 -0.173996
v -0.4250183 0.5650024 -0.173996
v -0.4250183 0.5550041 -0.1940002
v -0.2250061 0.5550041 -0.1940002
v -0.4250183 0.5650024 -0.1940002
v -0.2250061 0.5650024 -0.1940002
v -0.5250244 0.3300018 -0.173996
v -0.7250061 0.3300018 -0.173996
v -0.5250244 0.3400002 -0.173996
v -0.7250061 0.3400002 -0.173996
v -0.7250061 0.3300018 -0.1940002
v -0.5250244 0.3300018 -0.1940002
v -0.7250061 0.3400002 -0.1940002
v -0.5250244 0.3400002 -0.1940002
v -0.2250061 0.5750046 -0.173996
v -0.4250183 0.5750046 -0.173996
v -0.2250061 0.5850029 -0.173996
v -0.4250183 0.5850029 -0.173996
v -0.4250183 0.5750046 -0.1940002
v -0.2250061 0.5750046 -0.1940002
v -0.4250183 0.5850029 -0.1940002
v -0.2250061 0.5850029 -0.1940002
v -0.5250244 0.6549988 -0.173996
v -0.7250061 0.6549988 -0.173996
v -0.5250244 0.6649971 -0.173996
v -0.7250061 0.6649971 -0.173996
v -0.7250061 0.6549988 -0.1940002
v -0.5250244 0.6549988 -0.1940002
v -0.7250061 0.6649971 -0.1940002
v -0.5250244 0.6649971 -0.1940002
v -0.5250244 0.4099998 -0.173996
v -0.7250061 0.4099998 -0.173996
v -0.5250244 0.4199982 -0.173996
v -0.7250061 0.4199982 -0.173996
v -0.7250061 0.4099998 -0.1940002
v -0.5250244 0.4099998 -0.1940002
v -0.7250061 0.4199982 -0.1940002
v -0.5250244 0.4199982 -0.1940002
v -0.2250061 0.3700027 -0.173996
v -0.4250183 0.3700027 -0.173996
v -0.2250061 0.3800011 -0.173996
v -0.4250183 0.3800011 -0.173996
v -0.4250183 0.3700027 -0.1940002
v -0.2250061 0.3700027 -0.1940002
v -0.4250183 0.3800011 -0.1940002
v -0.2250061 0.3800011 -0.1940002
v -0.2250061 0.3100014 -0.173996
v -0.4250183 0.3100014 -0.173996
v -0.2250061 0.3199997 -0.173996
v -0.4250183 0.3199997 -0.173996
v -0.4250183 0.3100014 -0.1940002
v -0.2250061 0.3100014 -0.1940002
v -0.4250183 0.3199997 -0.1940002
v -0.2250061 0.3199997 -0.1940002
v -0.2250061 0.6150017 -0.173996
v -0.4250183 0.6150017 -0.173996
v -0.2250061 0.625 -0.173996
v -0.4250183 0.625 -0.173996
v -0.4250183 0.6150017 -0.1940002
v -0.2250061 0.6150017 -0.1940002
v -0.4250183 0.625 -0.1940002
v -0.2250061 0.625 -0.1940002
v -0.5250244 0.8600006 -0.173996
v -0.7250061 0.8600006 -0.173996
v -0.5250244 0.8699989 -0.173996
v -0.7250061 0.8699989 -0.173996
v -0.7250061 0.8600006 -0.1940002
v -0.5250244 0.8600006 -0.1940002
v -0.7250061 0.8699989 -0.1940002
v -0.5250244 0.8699989 -0.1940002
v -0.2250061 0.4099998 -0.173996
v -0.4250183 0.4099998 -0.173996
v -0.2250061 0.4199982 -0.173996
v -0.4250183 0.4199982 -0.173996
v -0.4250183 0.4099998 -0.1940002
v -0.2250061 0.4099998 -0.1940002
v -0.4250183 0.4199982 -0.1940002
v -0.2250061 0.4199982 -0.1940002
v -0.5250244 0.5550003 -0.173996
v -0.7250061 0.5550003 -0.173996
v -0.5250244 0.5649986 -0.173996
v -0.7250061 0.5649986 -0.173996
v -0.7250061 0.5550003 -0.1940002
v -0.5250244 0.5550003 -0.1940002
v -0.7250061 0.5649986 -0.1940002
v -0.5250244 0.5649986 -0.1940002
v -0.5250244 0.4300003 -0.173996
v -0.7250061 0.4300003 -0.173996
v -0.5250244 0.4399986 -0.173996
v -0.7250061 0.4399986 -0.173996
v -0.7250061 0.4300003 -0.1940002
v -0.5250244 0.4300003 -0.1940002
v -0.7250061 0.4399986 -0.1940002
v -0.5250244 0.4399986 -0.1940002
v -0.2250061 0.4300003 -0.173996
v -0.4250183 0.4300003 -0.173996
v -0.2250061 0.4399986 -0.173996
v -0.4250183 0.4399986 -0.173996
v -0.4250183 0.4300003 -0.1940002
v -0.2250061 0.4300003 -0.1940002
v -0.4250183 0.4399986 -0.1940002
v -0.2250061 0.4399986 -0.1940002
v -0.5250244 0.8200035 -0.173996
v -0.7250061 0.8200035 -0.173996
v -0.5250244 0.8300018 -0.173996
v -0.7250061 0.8300018 -0.173996
v -0.7250061 0.8200035 -0.1940002
v -0.5250244 0.8200035 -0.1940002
v -0.7250061 0.8300018 -0.1940002
v -0.5250244 0.8300018 -0.1940002
v -0.2250061 0.8600006 -0.173996
v -0.4250183 0.8600006 -0.173996
v -0.2250061 0.8699989 -0.173996
v -0.4250183 0.8699989 -0.173996
v -0.4250183 0.8600006 -0.1940002
v -0.2250061 0.8600006 -0.1940002
v -0.4250183 0.8699989 -0.1940002
v -0.2250061 0.8699989 -0.1940002
v -0.2250061 0.8400002 -0.173996
v -0.4250183 0.8400002 -0.173996
v -0.2250061 0.8499985 -0.173996
v -0.4250183 0.8499985 -0.173996
v -0.4250183 0.8400002 -0.1940002
v -0.2250061 0.8400002 -0.1940002
v -0.4250183 0.8499985 -0.1940002
v -0.2250061 0.8499985 -0.1940002
v -0.5250244 0.3700027 -0.173996
v -0.7250061 0.3700027 -0.173996
v -0.5250244 0.3800011 -0.173996
v -0.7250061 0.3800011 -0.173996
v -0.7250061 0.3700027 -0.1940002
v -0.5250244 0.3700027 -0.1940002
v -0.7250061 0.3800011 -0.1940002
v -0.5250244 0.3800011 -0.1940002
v -0.5250244 0.3500023 -0.173996
v -0.7250061 0.3500023 -0.173996
v -0.5250244 0.3600006 -0.173996
v -0.7250061 0.3600006 -0.173996
v -0.7250061 0.3500023 -0.1940002
v -0.5250244 0.3500023 -0.1940002
v -0.7250061 0.3600006 -0.1940002
v -0.5250244 0.3600006 -0.1940002
v -0.2250061 0.3300018 -0.173996
v -0.4250183 0.3300018 -0.173996
v -0.2250061 0.3400002 -0.173996
v -0.4250183 0.3400002 -0.173996
v -0.4250183 0.3300018 -0.1940002
v -0.2250061 0.3300018 -0.1940002
v -0.4250183 0.3400002 -0.1940002
v -0.2250061 0.3400002 -0.1940002
v -0.2250061 0.7600021 -0.173996
v -0.4250183 0.7600021 -0.173996
v -0.2250061 0.7700005 -0.173996
v -0.4250183 0.7700005 -0.173996
v -0.4250183 0.7600021 -0.1940002
v -0.2250061 0.7600021 -0.1940002
v -0.4250183 0.7700005 -0.1940002
v -0.2250061 0.7700005 -0.1940002
v -0.2250061 0.3500023 -0.173996
v -0.4250183 0.3500023 -0.173996
v -0.2250061 0.3600006 -0.173996
v -0.4250183 0.3600006 -0.173996
v -0.4250183 0.3500023 -0.1940002
v -0.2250061 0.3500023 -0.1940002
v -0.4250183 0.3600006 -0.1940002
v -0.2250061 0.3600006 -0.1940002
v -0.5250244 0.5349998 -0.173996
v -0.7250061 0.5349998 -0.173996
v -0.5250244 0.5449982 -0.173996
v -0.7250061 0.5449982 -0.173996
v -0.7250061 0.5349998 -0.1940002
v -0.5250244 0.5349998 -0.1940002
v -0.7250061 0.5449982 -0.1940002
v -0.5250244 0.5449982 -0.1940002
v -0.5250244 0.6349983 -0.173996
v -0.7250061 0.6349983 -0.173996
v -0.5250244 0.6449966 -0.173996
v -0.7250061 0.6449966 -0.173996
v -0.7250061 0.6349983 -0.1940002
v -0.5250244 0.6349983 -0.1940002
v -0.7250061 0.6449966 -0.1940002
v -0.5250244 0.6449966 -0.1940002
v -0.2250061 0.6550026 -0.173996
v -0.4250183 0.6550026 -0.173996
v -0.2250061 0.6650009 -0.173996
v -0.4250183 0.6650009 -0.173996
v -0.4250183 0.6550026 -0.1940002
v -0.2250061 0.6550026 -0.1940002
v -0.4250183 0.6650009 -0.1940002
v -0.2250061 0.6650009 -0.1940002
v -0.2250061 0.8000031 -0.173996
v -0.4250183 0.8000031 -0.173996
v -0.2250061 0.8100014 -0.173996
v -0.4250183 0.8100014 -0.173996
v -0.4250183 0.8000031 -0.1940002
v -0.2250061 0.8000031 -0.1940002
v -0.4250183 0.8100014 -0.1940002
v -0.2250061 0.8100014 -0.1940002
v -0.5250244 0.7600021 -0.173996
v -0.7250061 0.7600021 -0.173996
v -0.5250244 0.7700005 -0.173996
v -0.7250061 0.7700005 -0.173996
v -0.7250061 0.7600021 -0.1940002
v -0.5250244 0.7600021 -0.1940002
v -0.7250061 0.7700005 -0.1940002
v -0.5250244 0.7700005 -0.1940002
v -0.2250061 0.8200035 -0.173996
v -0.4250183 0.8200035 -0.173996
v -0.2250061 0.8300018 -0.173996
v -0.4250183 0.8300018 -0.173996
v -0.4250183 0.8200035 -0.1940002
v -0.2250061 0.8200035 -0.1940002
v -0.4250183 0.8300018 -0.1940002
v -0.2250061 0.8300018 -0.1940002
v -0.5250244 0.8800011 -0.173996
v -0.7250061 0.8800011 -0.173996
v -0.5250244 0.8899994 -0.173996
v -0.7250061 0.8899994 -0.173996
v -0.7250061 0.8800011 -0.1940002
v -0.5250244 0.8800011 -0.1940002
v -0.7250061 0.8899994 -0.1940002
v -0.5250244 0.8899994 -0.1940002
v -0.2250061 0.3899994 -0.173996
v -0.4250183 0.3899994 -0.173996
v -0.2250061 0.3999977 -0.173996
v -0.4250183 0.3999977 -0.173996
v -0.4250183 0.3899994 -0.1940002
v -0.2250061 0.3899994 -0.1940002
v -0.4250183 0.3999977 -0.1940002
v -0.2250061 0.3999977 -0.1940002
v -0.2250061 0.6350021 -0.173996
v -0.4250183 0.6350021 -0.173996
v -0.2250061 0.6450005 -0.173996
v -0.4250183 0.6450005 -0.173996
v -0.4250183 0.6350021 -0.1940002
v -0.2250061 0.6350021 -0.1940002
v -0.4250183 0.6450005 -0.1940002
v -0.2250061 0.6450005 -0.1940002
v -0.5250244 0.6149979 -0.173996
v -0.7250061 0.6149979 -0.173996
v -0.5250244 0.6249962 -0.173996
v -0.7250061 0.6249962 -0.173996
v -0.7250061 0.6149979 -0.1940002
v -0.5250244 0.6149979 -0.1940002
v -0.7250061 0.6249962 -0.1940002
v -0.5250244 0.6249962 -0.1940002
v -0.5250244 0.3100014 -0.173996
v -0.7250061 0.3100014 -0.173996
v -0.5250244 0.3199997 -0.173996
v -0.7250061 0.3199997 -0.173996
v -0.7250061 0.3100014 -0.1940002
v -0.5250244 0.3100014 -0.1940002
v -0.7250061 0.3199997 -0.1940002
v -0.5250244 0.3199997 -0.1940002
v -0.5250244 0.5950012 -0.173996
v -0.7250061 0.5950012 -0.173996
v -0.5250244 0.6049995 -0.173996
v -0.7250061 0.6049995 -0.173996
v -0.7250061 0.5950012 -0.1940002
v -0.5250244 0.5950012 -0.1940002
v -0.7250061 0.6049995 -0.1940002
v -0.5250244 0.6049995 -0.1940002
v -0.5250244 0.8000031 -0.173996
v -0.7250061 0.8000031 -0.173996
v -0.5250244 0.8100014 -0.173996
v -0.7250061 0.8100014 -0.173996
v -0.7250061 0.8000031 -0.1940002
v -0.5250244 0.8000031 -0.1940002
v -0.7250061 0.8100014 -0.1940002
v -0.5250244 0.8100014 -0.1940002
v -0.2250061 0.595005 -0.173996
v -0.4250183 0.595005 -0.173996
v -0.2250061 0.6050034 -0.173996
v -0.4250183 0.6050034 -0.173996
v -0.4250183 0.595005 -0.1940002
v -0.2250061 0.595005 -0.1940002
v -0.4250183 0.6050034 -0.1940002
v -0.2250061 0.6050034 -0.1940002
v -0.2250061 0.7800026 -0.173996
v -0.4250183 0.7800026 -0.173996
v -0.2250061 0.7900009 -0.173996
v -0.4250183 0.7900009 -0.173996
v -0.4250183 0.7800026 -0.1940002
v -0.2250061 0.7800026 -0.1940002
v -0.4250183 0.7900009 -0.1940002
v -0.2250061 0.7900009 -0.1940002
v -0.2250061 0.8800011 -0.173996
v -0.4250183 0.8800011 -0.173996
v -0.2250061 0.8899994 -0.173996
v -0.4250183 0.8899994 -0.173996
v -0.4250183 0.8800011 -0.1940002
v -0.2250061 0.8800011 -0.1940002
v -0.4250183 0.8899994 -0.1940002
v -0.2250061 0.8899994 -0.1940002
v -0.5250244 0.5750008 -0.173996
v -0.7250061 0.5750008 -0.173996
v -0.5250244 0.5849991 -0.173996
v -0.7250061 0.5849991 -0.173996
v -0.7250061 0.5750008 -0.1940002
v -0.5250244 0.5750008 -0.1940002
v -0.7250061 0.5849991 -0.1940002
v -0.5250244 0.5849991 -0.1940002
v -0.5250244 0.8400002 -0.173996
v -0.7250061 0.8400002 -0.173996
v -0.5250244 0.8499985 -0.173996
v -0.7250061 0.8499985 -0.173996
v -0.7250061 0.8400002 -0.1940002
v -0.5250244 0.8400002 -0.1940002
v -0.7250061 0.8499985 -0.1940002
v -0.5250244 0.8499985 -0.1940002
v -0.5250244 0.3899994 -0.173996
v -0.7250061 0.3899994 -0.173996
v -0.5250244 0.3999977 -0.173996
v -0.7250061 0.3999977 -0.173996
v -0.7250061 0.3899994 -0.1940002
v -0.5250244 0.3899994 -0.1940002
v -0.7250061 0.3999977 -0.1940002
v -0.5250244 0.3999977 -0.1940002
v -0.3750305 0.8349991 1.400009
v -0.4000244 0.8349991 1.400009
v -0.3735962 0.912365 1.386536
v -0.4000244 0.912365 1.386536
v -0.4000244 0.8349991 1.300003
v -0.4000244 0.9349976 1.300003
v -0.3750305 0.8349991 1.300003
v -0.3750305 0.9349976 1.300003
v -0.5500183 0.8349991 1.400009
v -0.5750122 0.8349991 1.400009
v -0.5500183 0.912365 1.386536
v -0.5733032 0.912365 1.386536
v -0.5750122 0.8349991 1.300003
v -0.5750122 0.9349976 1.300003
v -0.5500183 0.8349991 1.300003
v -0.5500183 0.9349976 1.300003
v -0.5500183 0.8349991 1.350006
v -0.5500183 0.9349976 1.350006
v -0.4000244 0.8349991 1.350006
v -0.4000244 0.9349976 1.350006
v -0.5500183 0.8849983 1.350006
v -0.5500183 0.8849983 1.300003
v -0.4000244 0.8849983 1.300003
v -0.4000244 0.8849983 1.350006
v -0.1000061 0 0
v -0.8500061 0 0
v -0.1000061 0.09999847 0
v -0.8500061 0.09999847 0
v -0.8500061 0 -0.1000061
v -0.1000061 0 -0.1000061
v -0.8500061 0.09999847 -0.1000061
v -0.1000061 0.09999847 -0.1000061
v -0.9500122 0 0
v -0.9500122 0 -0.1000061
v 0 0 0
v 0 0 -0.1000061

vt 0 0
vt -0.75 0
vt 0 0.09999999
vt -0.75 0.09999999
vt 0.75 0
vt 0.75 0.09999999
vt 0 -0.0999999
vt 0.75 -0.0999999
vt -0.75 -0.0999999
vt -0.1000061 0
vt 0 0.003074717
vt -0.1000061 0.003074717
vt 0.1000061 0.003074721
vt 0 0.1030274
vt -0.0706383 0
vt 0.07064718 0
vt -0.0706383 -0.1000061
vt 0.07064718 -0.1000061
vt -0.1 -0.0999999
vt -0.09999999 0
vt -0.09999999 0.09999999
vt 0.09999999 0
vt 0.09999999 0.09999999
vt 0.1000061 0
vt 0.1414213 0
vt 0.000140138 -0.1000061
vt 0.1414213 -0.1000061
vt -0.09999999 -0.0999999
vt 0.02392578 0.01436484
vt -0.03443009 0.01436484
vt 0.0203163 0.02369774
vt -0.03068995 0.02364705
vt 0.04321289 0.01802444
vt 0.005004883 0.05181503
vt 0.04241943 0.02800369
vt 0.01501465 0.05181503
vt -0.01365381 -0.01020223
vt 0.02265048 -0.01020223
vt -0.01010424 -0.01954192
vt 0.01889557 -0.01946077
vt -0.01049614 0.01965171
vt 0.0185045 0.0196417
vt -0.01402265 0.01029211
vt 0.02228063 0.01038195
vt -0.04241943 0.02800369
vt -0.01501465 0.05181503
vt -0.04321289 0.01802444
vt -0.005004883 0.05181503
vt 0.02042925 -0.02371201
vt -0.03057718 -0.02371201
vt 0.02402937 -0.01437536
vt -0.03432626 -0.0144335
vt 0 0.05181503
vt 0 0.6634789
vt 0.01000822 0.05181503
vt 0.01000822 0.6634789
vt 0.005004883 0.6634789
vt 0.01501465 0.6634789
vt 0.009950221 0.05181503
vt 0.009950221 0.6634789
vt -0.009950042 0.05181503
vt -0.009950042 0.6634789
vt -0.01501465 0.6634789
vt -0.005004883 0.6634789
vt -0.01000828 0.05181503
vt -0.01000828 0.6634789
vt -0.3890426 -0.1723701
vt -0.4382448 -0.1723701
vt -0.3930968 -0.1632197
vt -0.4350674 -0.16292
vt 0.03955078 0.6873322
vt 0.03900146 0.6773376
vt 0.3449197 0.164802
vt 0.3726224 0.164802
vt 0.3492269 0.1557848
vt 0.3698734 0.1553268
vt 0.3028829 -0.1413053
vt 0.323596 -0.1413053
vt 0.2983903 -0.1502315
vt 0.3260038 -0.1507624
vt -0.03900146 0.6773376
vt -0.03955078 0.6873322
vt -0.3811029 0.1610907
vt -0.4230839 0.1610907
vt -0.3769845 0.1702122
vt -0.4261744 0.1705536
vt 0 1
vt -0.0999999 1
vt 0.396875 0
vt 0.2968749 0
vt 0.396875 1
vt 0.2968749 1
vt 0.0999999 1
vt 0.2 0
vt 0.2 0.15
vt 0 0.15
vt 1.5 0
vt 1.5 1
vt -0.7 0
vt -0.7 1
vt 0 -1.5
vt -0.7 -1.5
vt 0.7 0
vt 0.7 -1.5
vt 0.1 1
vt 0.3015625 0
vt 0.1015625 0
vt 0.3015625 0.2
vt 0.1015625 0.2
vt 0.2 -0.0999999
vt 0.7015625 0
vt 0.6015624 0
vt 0.7015625 1
vt 0.6015624 1
vt 0.3015625 0.3476563
vt 0.1015625 0.3476563
vt 0.3015625 0.4226563
vt 0.1015625 0.4226563
vt -0.2 -0.0999999
vt -0.2 0
vt 0.3015625 0.5742188
vt 0.1015625 0.5742188
vt 0.3015625 0.6492188
vt 0.1015625 0.6492188
vt 0.2976563 0.8007813
vt 0.09765628 0.8007813
vt 0.2976563 1.000781
vt 0.09765628 1.000781
vt 0.5984375 -9.769946E-05
vt 0.3983399 0
vt 0.5985352 0.1999999
vt 0.3984376 0.2000977
vt 0.2000489 7.450581E-08
vt 0.2 -0.1000977
vt 0.5984457 0.3475367
vt 0.3983926 0.3476343
vt 0.5984824 0.4226782
vt 0.3984293 0.4227759
vt -0.2000489 -0.09999998
vt 0.5984457 0.5780054
vt 0.3983926 0.5781031
vt 0.5984824 0.653147
vt 0.3984293 0.6532447
vt 0.5984375 0.7928711
vt 0.3983399 0.7929688
vt 0.5985352 0.9929687
vt 0.3984376 0.9930664
vt 0.2000898 0.1499999
vt 5.960464E-08 0.1501196
vt -0.7499844 0.3923495
vt 0.7500155 -0.009590149
vt -0.7499844 0.5000004
vt 0.7500155 0.5000002
vt 0.7500155 -0.5000001
vt -0.1769864 0.2388079
vt -0.06716892 0.1289827
vt 0.1013643 -0.5
vt -0.02699256 -0.02099979
vt -0.1553343 -0.5
vt -0.06718424 -0.1710204
vt -0.3961791 -0.4999999
vt -0.1769713 -0.2808036
vt -0.7499846 -0.4999999
vt -0.5853117 -0.3902243
vt -0.3269804 -0.3209991
vt -0.4769896 -0.2808073
vt -0.7499846 -0.2076605
vt -0.5867918 -0.1710013
vt -0.7367856 0.3888133
vt -0.7499998 -0.007812262
vt -0.6269834 -0.02099967
vt -0.5318906 0.3339084
vt -0.5867918 0.1289981
vt -0.4135739 0.3022082
vt -0.476959 0.2388156
vt -0.326965 0.2790034
vt -0.09995675 -0.2326991
vt 0.08797216 -0.3881344
vt -0.1000648 -0.3880268
vt 0.08804965 -0.2327929
vt 0.1000061 0.1387017
vt -0.0880127 0.2940125
vt 0.09997559 0.2940125
vt -0.0880127 0.1387233
vt 0.09997404 -0.01329875
vt -0.08801663 0.1419874
vt 0.1000022 0.1419716
vt -0.08801425 -0.01330164
vt 0.0999974 -0.1826387
vt -0.0880115 -0.02721608
vt 0.1000543 -0.02728105
vt -0.08806849 -0.1825513
vt 0.100002 -0.1684419
vt 0.09999532 -0.3237014
vt -0.08802348 -0.3237069
vt -0.08801681 -0.1684203
vt 0.1000061 -0.2436199
vt 0.09997559 -0.398921
vt -0.0880127 -0.398921
vt -0.0880127 -0.2436355
vt 0.09997559 -0.2327662
vt 0.1000061 -0.3880663
vt -0.0880127 -0.3880663
vt -0.0880127 -0.2327662
vt -0.1000061 0.1387125
vt -0.09997559 0.293999
vt 0.0880127 0.293999
vt 0.0880127 0.1387125
vt -0.09997559 -0.01330605
vt -0.09997559 0.1419867
vt 0.0880127 0.1419867
vt 0.0880127 -0.01330605
vt -0.1000061 -0.1825592
vt -0.1000061 -0.02727014
vt 0.0880127 -0.02727014
vt 0.0880127 -0.1825592
vt -0.1000061 -0.1684283
vt 0.0880127 -0.3237445
vt -0.1000061 -0.3237445
vt 0.0880127 -0.1684552
vt -0.1000053 -0.2436192
vt 0.08801335 -0.3989352
vt -0.1000054 -0.3989036
vt 0.08801347 -0.2436351
vt -0.3269806 0.2789993
vt -0.3269806 -0.02099991
vt -0.200006 -5.960464E-08
vt 5.960464E-06 0.01000005
vt -0.2 0.01011962
vt 0.200006 0.01000005
vt -9.775162E-06 -0.02000007
vt 0.2 -0.02009773
vt -0.2000098 -0.02000007
vt 0 0.00999999
vt -0.2 0.00999999
vt 0.2 0.00999999
vt 0 -0.01999998
vt 0.2 -0.01999998
vt -0.2 -0.01999998
vt 0.200006 0.00999999
vt -0.02499998 0
vt 0.001434326 0.07853031
vt -0.02499998 0.07853031
vt -0.01347268 0.0773651
vt 0.0999999 0.1
vt 0.01347268 0.07736707
vt -0.001434326 -0.03261387
vt 0.02499998 -0.03261387
vt 3.278255E-07 -0.1220518
vt 0.02499998 -0.1220518
vt -0.02499998 -0.0999999
vt 0 0.07853031
vt -0.02329057 0.07853031
vt 0 -0.0005540848
vt -0.0999999 -0.0005540848
vt -0.01347268 0.0768317
vt -0.0999999 0.09942132
vt 0 -0.03261387
vt 0.02329057 -0.03261387
vt -0.15 0
vt -0.15 0.07853037
vt -0.04999995 -1.186132E-05
vt -0.04999995 0.09998816
vt 0.15 0
vt 0.15 0.1
vt 0 0.1
vt 0.04999995 0
vt 0.04999995 0.1
vt 0 -0.05220407
vt 0.15 -0.05220407
vt 0 -0.09517491
vt 0.15 -0.09517491
vt 0 -0.04999995
vt -0.15 -0.04999995
vt 0 0.04999995
vt -0.04999995 0.04999995
vt 0.04999995 0.04999995
vt 0.15 -0.04999995

vn 0 0 1
vn 0 0 -1
vn 0 1 0
vn 0 -1 0
vn -1 0 0
vn -0.7063774 0.7078354 0
vn 1 0 0
vn 0.7063774 0.7078354 0
vn -0.617066 -0.6939791 0.3709753
vn -0.6179059 -0.6968066 0.3641396
vn -0.6187457 -0.699634 0.3573039
vn 0.6086422 0.7004943 0.3726423
vn 0.6089019 0.7061563 0.3611334
vn 0.6091616 0.7118182 0.3496244
vn 0.6027244 0.7042962 -0.3750869
vn 0.6082775 0.705381 -0.3636956
vn 0.6138306 0.7064657 -0.3523042
vn -0.6149682 -0.6953626 -0.3718672
vn -0.617673 -0.6965333 -0.3650568
vn -0.620378 -0.697704 -0.3582464
vn -0.8659825 0 0.5000744
vn 0.8673019 0 0.4977825
vn 0.8673019 0 -0.4977825
vn -0.8659825 0 -0.5000744
vn -0.5553924 0.7672538 0.3207196
vn -0.5363367 0.7582067 0.3672296
vn -0.5172808 0.7491596 0.4137397
vn 0.4808424 -0.8322425 0.2759765
vn 0.4322202 -0.8196313 0.3624716
vn 0.3835979 -0.8070202 0.4489667
vn 0.4168309 -0.8769364 -0.2392375
vn 0.4340429 -0.8289844 -0.3354646
vn 0.4512548 -0.7810323 -0.4316917
vn -0.5398756 0.7818828 -0.3117591
vn -0.5376567 0.760785 -0.359699
vn -0.5354378 0.7396872 -0.4076387
vn -0.9999999 0.0003346115 5.674119E-05
vn -2.030311E-05 -0.9659181 -0.2588482
vn -1.993598E-09 -0.7070823 -0.7071314
vn -2.869635E-05 -0.2587848 -0.965935
vn -5.232213E-05 0.2588427 -0.9659195
vn -7.173339E-05 0.7071191 -0.7070945
vn -1.407373E-06 0.9659249 -0.2588229
vn 0 0.9659309 0.2587999
vn 0 0.7070946 0.7071191
vn 0 0.2588122 0.9659277
vn 0 -0.2588184 0.9659261
vn 4.304178E-05 -0.7071191 0.7070945
vn 2.108225E-06 -0.9659307 0.2588007
vn 0 0.1715708 0.9851718
vn 0.9997482 -0.01121872 -0.01121786
vn 0.9994965 -0.02243744 -0.02243572
vn 0 0.9674563 0.2530382
vn -0.9997562 0.02208425 0
vn -0.9997806 0.01104213 0.009872876
vn -0.999805 0 0.01974575
vn 0 0.8500665 0.5266755

usemtl Plastic013B_1K
f 342/153/5 344/152/5 398/151/5
f 344/152/5 397/150/5 398/151/5
f 397/150/5 414/170/5 413/169/5
f 414/170/5 412/168/5 413/169/5
f 416/172/5 413/169/5 415/171/5
f 418/174/5 416/172/5 417/173/5
f 420/176/5 418/174/5 419/175/5
f 400/156/5 398/151/5 399/155/37
f 400/156/5 341/154/5 398/151/5
f 400/156/5 402/158/5 341/154/5
f 402/158/5 401/157/5 341/154/5
f 404/159/5 401/157/5 403/158/5
f 406/161/5 404/159/5 405/160/5
f 343/163/5 406/161/5 407/162/5
f 408/164/5 343/163/5 407/162/5
f 410/166/5 408/164/5 409/165/5
f 343/163/5 408/164/5 410/166/5
f 411/167/5 343/163/5 410/166/5
f 414/170/5 411/167/5 410/166/5
f 4/4/1 2/2/1 1/1/1
f 1/1/1 3/3/1 4/4/1
f 8/3/2 6/1/2 5/5/2
f 5/5/2 7/6/2 8/3/2
f 7/8/3 4/5/3 3/1/3
f 3/1/3 8/7/3 7/8/3
f 2/2/4 5/9/4 6/7/4
f 6/7/4 1/1/4 2/2/4
f 9/10/1 9/10/1 2/1/1
f 2/1/1 4/3/1 9/10/1
f 10/12/5 10/12/5 9/11/5
f 9/11/5 9/11/5 10/12/5
f 7/14/2 5/11/2 10/13/2
f 10/13/2 10/13/2 7/14/2
f 10/18/6 9/16/6 4/15/6
f 4/15/6 7/17/6 10/18/6
f 9/10/4 10/19/4 5/7/4
f 5/7/4 2/1/4 9/10/4
f 3/21/1 1/20/1 11/1/1
f 11/1/1 11/1/1 3/21/1
f 12/1/2 12/1/2 6/22/2
f 6/22/2 8/23/2 12/1/2
f 11/1/7 11/1/7 12/24/7
f 12/24/7 12/24/7 11/1/7
f 8/27/8 3/25/8 11/1/8
f 11/1/8 12/26/8 8/27/8
f 1/20/4 6/28/4 12/7/4
f 12/7/4 11/1/4 1/20/4
f 328/88/5 326/20/5 325/1/5
f 325/1/5 327/87/5 328/88/5
f 330/92/2 329/90/2 326/89/2
f 326/89/2 328/91/2 330/92/2
f 332/87/7 331/1/7 329/22/7
f 329/22/7 330/93/7 332/87/7
f 340/87/7 338/1/7 337/97/7
f 337/97/7 339/98/7 340/87/7
f 342/100/1 341/99/1 338/1/1
f 338/1/1 340/87/1 342/100/1
f 341/99/4 343/102/4 337/101/4
f 337/101/4 338/1/4 341/99/4
f 344/104/3 342/103/3 340/1/3
f 340/1/3 339/101/3 344/104/3
f 348/88/5 346/20/5 345/1/5
f 345/1/5 347/87/5 348/88/5
f 339/87/2 337/1/2 346/24/2
f 346/24/2 348/105/2 339/87/2
f 350/109/2 346/107/2 329/106/2
f 329/106/2 349/108/2 350/109/2
f 349/110/3 352/94/3 351/1/3
f 351/1/3 350/7/3 349/110/3
f 354/114/2 353/112/2 343/111/2
f 343/111/2 344/113/2 354/114/2
f 356/87/7 355/1/7 353/22/7
f 353/22/7 354/93/7 356/87/7
f 360/118/2 358/116/2 357/115/2
f 357/115/2 359/117/2 360/118/2
f 359/110/3 333/94/3 334/1/3
f 334/1/3 360/7/3 359/110/3
f 362/120/4 357/119/4 358/7/4
f 358/7/4 361/1/4 362/120/4
f 366/124/2 364/122/2 363/121/2
f 363/121/2 365/123/2 366/124/2
f 365/110/3 368/94/3 367/1/3
f 367/1/3 366/7/3 365/110/3
f 335/120/4 363/119/4 364/7/4
f 364/7/4 336/1/4 335/120/4
f 348/128/2 370/126/2 369/125/2
f 369/125/2 330/127/2 348/128/2
f 372/120/4 369/119/4 370/7/4
f 370/7/4 371/1/4 372/120/4
f 374/132/2 326/130/2 353/129/2
f 353/129/2 373/131/2 374/132/2
f 373/134/3 376/133/3 375/1/3
f 375/1/3 374/7/3 373/134/3
f 380/138/2 378/136/2 377/135/2
f 377/135/2 379/137/2 380/138/2
f 379/134/3 382/133/3 381/1/3
f 381/1/3 380/7/3 379/134/3
f 384/120/4 377/139/4 378/26/4
f 378/26/4 383/1/4 384/120/4
f 388/143/2 386/141/2 385/140/2
f 385/140/2 387/142/2 388/143/2
f 387/134/3 390/133/3 389/1/3
f 389/1/3 388/7/3 387/134/3
f 392/120/4 385/139/4 386/26/4
f 386/26/4 391/1/4 392/120/4
f 328/147/2 394/145/2 393/144/2
f 393/144/2 354/146/2 328/147/2
f 396/120/4 393/139/4 394/26/4
f 394/26/4 395/1/4 396/120/4
f 426/200/43 427/199/43 409/198/43
f 409/198/43 407/197/43 426/200/43
f 427/204/44 428/203/44 410/202/44
f 410/202/44 409/201/44 427/204/44
f 428/208/45 429/207/45 412/206/45
f 412/206/45 410/205/45 428/208/45
f 429/212/46 430/211/46 415/210/46
f 415/210/46 412/209/46 429/212/46
f 430/216/47 432/215/47 417/214/47
f 417/214/47 431/213/47 430/216/47
f 419/217/48 417/219/48 432/218/48
f 432/218/48 433/220/48 419/217/48
f 420/221/49 419/223/49 433/222/49
f 433/222/49 421/224/49 420/221/49
f 399/177/38 420/179/38 421/178/38
f 421/178/38 422/180/38 399/177/38
f 400/181/39 399/183/39 422/182/39
f 422/182/39 423/184/39 400/181/39
f 402/185/40 400/187/40 423/186/40
f 423/186/40 424/188/40 402/185/40
f 405/189/41 403/191/41 424/190/41
f 424/190/41 425/192/41 405/189/41
f 425/196/42 426/195/42 407/194/42
f 407/194/42 405/193/42 425/196/42
f 774/243/50 772/241/50 771/1/50
f 771/1/50 773/242/50 774/243/50
f 776/21/5 775/20/5 772/1/5
f 772/1/5 774/244/5 776/21/5
f 773/246/52 771/1/51 777/22/7
f 777/22/7 778/245/51 773/246/52
f 776/250/53 774/248/53 773/247/53
f 773/247/53 778/249/53 776/250/53
f 772/241/4 775/251/4 777/7/4
f 777/7/4 771/1/4 772/241/4
f 782/253/50 780/241/50 779/1/50
f 779/1/50 781/252/50 782/253/50
f 784/257/56 783/255/55 780/254/54
f 780/254/54 782/256/55 784/257/56
f 781/246/7 779/1/7 785/22/7
f 785/22/7 786/245/7 781/246/7
f 784/250/53 782/259/53 781/258/53
f 781/258/53 786/249/53 784/250/53
f 780/241/4 783/251/4 785/7/4
f 785/7/4 779/1/4 780/241/4
f 781/261/50 779/260/50 772/1/50
f 772/1/50 774/252/50 781/261/50
f 788/263/5 787/262/5 779/1/5
f 779/1/5 781/244/5 788/263/5
f 790/266/2 789/1/2 787/264/2
f 787/264/2 788/265/2 790/266/2
f 774/246/7 772/1/7 789/267/7
f 789/267/7 790/268/7 774/246/7
f 788/272/57 781/270/57 774/269/57
f 774/269/57 790/271/57 788/272/57
f 779/260/4 787/274/4 789/273/4
f 789/273/4 772/1/4 779/260/4
f 786/276/5 792/262/5 791/1/5
f 791/1/5 788/275/5 786/276/5
f 790/275/7 794/1/7 793/267/7
f 793/267/7 776/277/7 790/275/7
f 786/278/3 788/264/3 790/1/3
f 790/1/3 776/273/3 786/278/3
f 791/260/4 792/274/4 793/273/4
f 793/273/4 794/1/4 791/260/4
f 798/4/1 796/2/1 795/1/1
f 795/1/1 797/3/1 798/4/1
f 802/3/2 800/1/2 799/5/2
f 799/5/2 801/6/2 802/3/2
f 801/8/3 798/5/3 797/1/3
f 797/1/3 802/7/3 801/8/3
f 796/2/4 799/9/4 800/7/4
f 800/7/4 795/1/4 796/2/4
f 803/10/1 803/10/1 796/1/1
f 796/1/1 798/3/1 803/10/1
f 804/12/5 804/12/5 803/11/5
f 803/11/5 803/11/5 804/12/5
f 801/14/2 799/11/2 804/13/2
f 804/13/2 804/13/2 801/14/2
f 804/18/6 803/16/6 798/15/6
f 798/15/6 801/17/6 804/18/6
f 803/10/4 804/19/4 799/7/4
f 799/7/4 796/1/4 803/10/4
f 797/21/1 795/20/1 805/1/1
f 805/1/1 805/1/1 797/21/1
f 806/1/2 806/1/2 800/22/2
f 800/22/2 802/23/2 806/1/2
f 805/1/7 805/1/7 806/24/7
f 806/24/7 806/24/7 805/1/7
f 802/27/8 797/25/8 805/1/8
f 805/1/8 806/26/8 802/27/8
f 795/20/4 800/28/4 806/7/4
f 806/7/4 805/1/4 795/20/4

usemtl Metal003_2KMat
f 15/31/10 16/32/11 14/30/10 13/29/9
f 17/35/1 18/36/1 16/34/1 15/33/1
f 19/39/13 20/40/14 18/38/13 17/37/12
f 21/43/16 22/44/17 20/42/16 19/41/15
f 23/47/2 24/48/2 22/46/2 21/45/2
f 13/51/19 14/52/20 24/50/19 23/49/18
f 16/55/21 26/56/21 25/54/21 14/53/21
f 18/36/1 27/58/1 26/57/1 16/34/1
f 20/59/22 28/60/22 27/54/22 18/53/22
f 22/53/23 29/54/23 28/62/23 20/61/23
f 24/48/2 30/64/2 29/63/2 22/46/2
f 14/53/24 25/54/24 30/66/24 24/65/24
f 26/69/26 32/70/27 31/68/26 25/67/25
f 27/58/1 33/72/1 32/71/1 26/57/1
f 28/75/29 34/76/30 33/74/29 27/73/28
f 29/79/32 35/80/33 34/78/32 28/77/31
f 30/64/2 36/82/2 35/81/2 29/63/2
f 25/85/35 31/86/36 36/84/35 30/83/34
f 39/31/10 40/32/11 38/30/10 37/29/9
f 41/35/1 42/36/1 40/34/1 39/33/1
f 43/39/13 44/40/14 42/38/13 41/37/12
f 45/43/16 46/44/17 44/42/16 43/41/15
f 47/47/2 48/48/2 46/46/2 45/45/2
f 37/51/19 38/52/20 48/50/19 47/49/18
f 40/55/21 50/56/21 49/54/21 38/53/21
f 42/36/1 51/58/1 50/57/1 40/34/1
f 44/59/22 52/60/22 51/54/22 42/53/22
f 46/53/23 53/54/23 52/62/23 44/61/23
f 48/48/2 54/64/2 53/63/2 46/46/2
f 38/53/24 49/54/24 54/66/24 48/65/24
f 50/69/26 56/70/27 55/68/26 49/67/25
f 51/58/1 57/72/1 56/71/1 50/57/1
f 52/75/29 58/76/30 57/74/29 51/73/28
f 53/79/32 59/80/33 58/78/32 52/77/31
f 54/64/2 60/82/2 59/81/2 53/63/2
f 49/85/35 55/86/36 60/84/35 54/83/34
f 63/31/10 64/32/11 62/30/10 61/29/9
f 65/35/1 66/36/1 64/34/1 63/33/1
f 67/39/13 68/40/14 66/38/13 65/37/12
f 69/43/16 70/44/17 68/42/16 67/41/15
f 71/47/2 72/48/2 70/46/2 69/45/2
f 61/51/19 62/52/20 72/50/19 71/49/18
f 64/55/21 74/56/21 73/54/21 62/53/21
f 66/36/1 75/58/1 74/57/1 64/34/1
f 68/59/22 76/60/22 75/54/22 66/53/22
f 70/53/23 77/54/23 76/62/23 68/61/23
f 72/48/2 78/64/2 77/63/2 70/46/2
f 62/53/24 73/54/24 78/66/24 72/65/24
f 74/69/26 80/70/27 79/68/26 73/67/25
f 75/58/1 81/72/1 80/71/1 74/57/1
f 76/75/29 82/76/30 81/74/29 75/73/28
f 77/79/32 83/80/33 82/78/32 76/77/31
f 78/64/2 84/82/2 83/81/2 77/63/2
f 73/85/35 79/86/36 84/84/35 78/83/34
f 87/31/10 88/32/11 86/30/10 85/29/9
f 89/35/1 90/36/1 88/34/1 87/33/1
f 91/39/13 92/40/14 90/38/13 89/37/12
f 93/43/16 94/44/17 92/42/16 91/41/15
f 95/47/2 96/48/2 94/46/2 93/45/2
f 85/51/19 86/52/20 96/50/19 95/49/18
f 88/55/21 98/56/21 97/54/21 86/53/21
f 90/36/1 99/58/1 98/57/1 88/34/1
f 92/59/22 100/60/22 99/54/22 90/53/22
f 94/53/23 101/54/23 100/62/23 92/61/23
f 96/48/2 102/64/2 101/63/2 94/46/2
f 86/53/24 97/54/24 102/66/24 96/65/24
f 98/69/26 104/70/27 103/68/26 97/67/25
f 99/58/1 105/72/1 104/71/1 98/57/1
f 100/75/29 106/76/30 105/74/29 99/73/28
f 101/79/32 107/80/33 106/78/32 100/77/31
f 102/64/2 108/82/2 107/81/2 101/63/2
f 97/85/35 103/86/36 108/84/35 102/83/34
f 111/31/10 112/32/11 110/30/10 109/29/9
f 113/35/1 114/36/1 112/34/1 111/33/1
f 115/39/13 116/40/14 114/38/13 113/37/12
f 117/43/16 118/44/17 116/42/16 115/41/15
f 119/47/2 120/48/2 118/46/2 117/45/2
f 109/51/19 110/52/20 120/50/19 119/49/18
f 112/55/21 122/56/21 121/54/21 110/53/21
f 114/36/1 123/58/1 122/57/1 112/34/1
f 116/59/22 124/60/22 123/54/22 114/53/22
f 118/53/23 125/54/23 124/62/23 116/61/23
f 120/48/2 126/64/2 125/63/2 118/46/2
f 110/53/24 121/54/24 126/66/24 120/65/24
f 122/69/26 128/70/27 127/68/26 121/67/25
f 123/58/1 129/72/1 128/71/1 122/57/1
f 124/75/29 130/76/30 129/74/29 123/73/28
f 125/79/32 131/80/33 130/78/32 124/77/31
f 126/64/2 132/82/2 131/81/2 125/63/2
f 121/85/35 127/86/36 132/84/35 126/83/34
f 135/31/10 136/32/11 134/30/10 133/29/9
f 137/35/1 138/36/1 136/34/1 135/33/1
f 139/39/13 140/40/14 138/38/13 137/37/12
f 141/43/16 142/44/17 140/42/16 139/41/15
f 143/47/2 144/48/2 142/46/2 141/45/2
f 133/51/19 134/52/20 144/50/19 143/49/18
f 136/55/21 146/56/21 145/54/21 134/53/21
f 138/36/1 147/58/1 146/57/1 136/34/1
f 140/59/22 148/60/22 147/54/22 138/53/22
f 142/53/23 149/54/23 148/62/23 140/61/23
f 144/48/2 150/64/2 149/63/2 142/46/2
f 134/53/24 145/54/24 150/66/24 144/65/24
f 146/69/26 152/70/27 151/68/26 145/67/25
f 147/58/1 153/72/1 152/71/1 146/57/1
f 148/75/29 154/76/30 153/74/29 147/73/28
f 149/79/32 155/80/33 154/78/32 148/77/31
f 150/64/2 156/82/2 155/81/2 149/63/2
f 145/85/35 151/86/36 156/84/35 150/83/34
f 159/31/10 160/32/11 158/30/10 157/29/9
f 161/35/1 162/36/1 160/34/1 159/33/1
f 163/39/13 164/40/14 162/38/13 161/37/12
f 165/43/16 166/44/17 164/42/16 163/41/15
f 167/47/2 168/48/2 166/46/2 165/45/2
f 157/51/19 158/52/20 168/50/19 167/49/18
f 160/55/21 170/56/21 169/54/21 158/53/21
f 162/36/1 171/58/1 170/57/1 160/34/1
f 164/59/22 172/60/22 171/54/22 162/53/22
f 166/53/23 173/54/23 172/62/23 164/61/23
f 168/48/2 174/64/2 173/63/2 166/46/2
f 158/53/24 169/54/24 174/66/24 168/65/24
f 170/69/26 176/70/27 175/68/26 169/67/25
f 171/58/1 177/72/1 176/71/1 170/57/1
f 172/75/29 178/76/30 177/74/29 171/73/28
f 173/79/32 179/80/33 178/78/32 172/77/31
f 174/64/2 180/82/2 179/81/2 173/63/2
f 169/85/35 175/86/36 180/84/35 174/83/34
f 183/31/10 184/32/11 182/30/10 181/29/9
f 185/35/1 186/36/1 184/34/1 183/33/1
f 187/39/13 188/40/14 186/38/13 185/37/12
f 189/43/16 190/44/17 188/42/16 187/41/15
f 191/47/2 192/48/2 190/46/2 189/45/2
f 181/51/19 182/52/20 192/50/19 191/49/18
f 184/55/21 194/56/21 193/54/21 182/53/21
f 186/36/1 195/58/1 194/57/1 184/34/1
f 188/59/22 196/60/22 195/54/22 186/53/22
f 190/53/23 197/54/23 196/62/23 188/61/23
f 192/48/2 198/64/2 197/63/2 190/46/2
f 182/53/24 193/54/24 198/66/24 192/65/24
f 194/69/26 200/70/27 199/68/26 193/67/25
f 195/58/1 201/72/1 200/71/1 194/57/1
f 196/75/29 202/76/30 201/74/29 195/73/28
f 197/79/32 203/80/33 202/78/32 196/77/31
f 198/64/2 204/82/2 203/81/2 197/63/2
f 193/85/35 199/86/36 204/84/35 198/83/34
f 207/31/10 208/32/11 206/30/10 205/29/9
f 209/35/1 210/36/1 208/34/1 207/33/1
f 211/39/13 212/40/14 210/38/13 209/37/12
f 213/43/16 214/44/17 212/42/16 211/41/15
f 215/47/2 216/48/2 214/46/2 213/45/2
f 205/51/19 206/52/20 216/50/19 215/49/18
f 208/55/21 218/56/21 217/54/21 206/53/21
f 210/36/1 219/58/1 218/57/1 208/34/1
f 212/59/22 220/60/22 219/54/22 210/53/22
f 214/53/23 221/54/23 220/62/23 212/61/23
f 216/48/2 222/64/2 221/63/2 214/46/2
f 206/53/24 217/54/24 222/66/24 216/65/24
f 218/69/26 224/70/27 223/68/26 217/67/25
f 219/58/1 225/72/1 224/71/1 218/57/1
f 220/75/29 226/76/30 225/74/29 219/73/28
f 221/79/32 227/80/33 226/78/32 220/77/31
f 222/64/2 228/82/2 227/81/2 221/63/2
f 217/85/35 223/86/36 228/84/35 222/83/34
f 231/31/10 232/32/11 230/30/10 229/29/9
f 233/35/1 234/36/1 232/34/1 231/33/1
f 235/39/13 236/40/14 234/38/13 233/37/12
f 237/43/16 238/44/17 236/42/16 235/41/15
f 239/47/2 240/48/2 238/46/2 237/45/2
f 229/51/19 230/52/20 240/50/19 239/49/18
f 232/55/21 242/56/21 241/54/21 230/53/21
f 234/36/1 243/58/1 242/57/1 232/34/1
f 236/59/22 244/60/22 243/54/22 234/53/22
f 238/53/23 245/54/23 244/62/23 236/61/23
f 240/48/2 246/64/2 245/63/2 238/46/2
f 230/53/24 241/54/24 246/66/24 240/65/24
f 242/69/26 248/70/27 247/68/26 241/67/25
f 243/58/1 249/72/1 248/71/1 242/57/1
f 244/75/29 250/76/30 249/74/29 243/73/28
f 245/79/32 251/80/33 250/78/32 244/77/31
f 246/64/2 252/82/2 251/81/2 245/63/2
f 241/85/35 247/86/36 252/84/35 246/83/34
f 255/31/10 256/32/11 254/30/10 253/29/9
f 257/35/1 258/36/1 256/34/1 255/33/1
f 259/39/13 260/40/14 258/38/13 257/37/12
f 261/43/16 262/44/17 260/42/16 259/41/15
f 263/47/2 264/48/2 262/46/2 261/45/2
f 253/51/19 254/52/20 264/50/19 263/49/18
f 256/55/21 266/56/21 265/54/21 254/53/21
f 258/36/1 267/58/1 266/57/1 256/34/1
f 260/59/22 268/60/22 267/54/22 258/53/22
f 262/53/23 269/54/23 268/62/23 260/61/23
f 264/48/2 270/64/2 269/63/2 262/46/2
f 254/53/24 265/54/24 270/66/24 264/65/24
f 266/69/26 272/70/27 271/68/26 265/67/25
f 267/58/1 273/72/1 272/71/1 266/57/1
f 268/75/29 274/76/30 273/74/29 267/73/28
f 269/79/32 275/80/33 274/78/32 268/77/31
f 270/64/2 276/82/2 275/81/2 269/63/2
f 265/85/35 271/86/36 276/84/35 270/83/34
f 279/31/10 280/32/11 278/30/10 277/29/9
f 281/35/1 282/36/1 280/34/1 279/33/1
f 283/39/13 284/40/14 282/38/13 281/37/12
f 285/43/16 286/44/17 284/42/16 283/41/15
f 287/47/2 288/48/2 286/46/2 285/45/2
f 277/51/19 278/52/20 288/50/19 287/49/18
f 280/55/21 290/56/21 289/54/21 278/53/21
f 282/36/1 291/58/1 290/57/1 280/34/1
f 284/59/22 292/60/22 291/54/22 282/53/22
f 286/53/23 293/54/23 292/62/23 284/61/23
f 288/48/2 294/64/2 293/63/2 286/46/2
f 278/53/24 289/54/24 294/66/24 288/65/24
f 290/69/26 296/70/27 295/68/26 289/67/25
f 291/58/1 297/72/1 296/71/1 290/57/1
f 292/75/29 298/76/30 297/74/29 291/73/28
f 293/79/32 299/80/33 298/78/32 292/77/31
f 294/64/2 300/82/2 299/81/2 293/63/2
f 289/85/35 295/86/36 300/84/35 294/83/34
f 303/31/10 304/32/11 302/30/10 301/29/9
f 305/35/1 306/36/1 304/34/1 303/33/1
f 307/39/13 308/40/14 306/38/13 305/37/12
f 309/43/16 310/44/17 308/42/16 307/41/15
f 311/47/2 312/48/2 310/46/2 309/45/2
f 301/51/19 302/52/20 312/50/19 311/49/18
f 304/55/21 314/56/21 313/54/21 302/53/21
f 306/36/1 315/58/1 314/57/1 304/34/1
f 308/59/22 316/60/22 315/54/22 306/53/22
f 310/53/23 317/54/23 316/62/23 308/61/23
f 312/48/2 318/64/2 317/63/2 310/46/2
f 302/53/24 313/54/24 318/66/24 312/65/24
f 314/69/26 320/70/27 319/68/26 313/67/25
f 315/58/1 321/72/1 320/71/1 314/57/1
f 316/75/29 322/76/30 321/74/29 315/73/28
f 317/79/32 323/80/33 322/78/32 316/77/31
f 318/64/2 324/82/2 323/81/2 317/63/2
f 313/85/35 319/86/36 324/84/35 318/83/34
f 437/228/1 438/229/1 436/227/1 435/1/1
f 441/230/2 442/228/2 440/1/2 439/94/2
f 442/231/3 441/232/3 438/133/3 437/1/3
f 435/1/4 436/227/4 439/233/4 440/231/4
f 445/234/1 446/235/1 444/120/1 443/1/1
f 449/236/2 450/234/2 448/1/2 447/94/2
f 450/237/3 449/238/3 446/94/3 445/1/3
f 443/1/4 444/120/4 447/239/4 448/237/4
f 453/234/1 454/235/1 452/120/1 451/1/1
f 457/236/2 458/234/2 456/1/2 455/94/2
f 458/237/3 457/238/3 454/94/3 453/1/3
f 451/1/4 452/120/4 455/239/4 456/237/4
f 461/234/1 462/229/1 460/227/1 459/1/1
f 465/240/2 466/228/2 464/1/2 463/94/2
f 466/231/3 465/232/3 462/133/3 461/1/3
f 459/1/4 460/227/4 463/233/4 464/231/4
f 469/234/1 470/235/1 468/120/1 467/1/1
f 473/236/2 474/234/2 472/1/2 471/94/2
f 474/237/3 473/238/3 470/94/3 469/1/3
f 467/1/4 468/120/4 471/239/4 472/237/4
f 477/228/1 478/229/1 476/227/1 475/1/1
f 481/230/2 482/228/2 480/1/2 479/94/2
f 482/231/3 481/232/3 478/133/3 477/1/3
f 475/1/4 476/227/4 479/233/4 480/231/4
f 485/228/1 486/229/1 484/227/1 483/1/1
f 489/240/2 490/228/2 488/1/2 487/94/2
f 490/231/3 489/232/3 486/133/3 485/1/3
f 483/1/4 484/227/4 487/233/4 488/231/4
f 493/234/1 494/235/1 492/120/1 491/1/1
f 497/236/2 498/234/2 496/1/2 495/94/2
f 498/237/3 497/238/3 494/94/3 493/1/3
f 491/1/4 492/120/4 495/239/4 496/237/4
f 501/234/1 502/235/1 500/120/1 499/1/1
f 505/236/2 506/234/2 504/1/2 503/94/2
f 506/237/3 505/238/3 502/94/3 501/1/3
f 499/1/4 500/120/4 503/239/4 504/237/4
f 509/234/1 510/235/1 508/120/1 507/1/1
f 513/236/2 514/234/2 512/1/2 511/94/2
f 514/237/3 513/238/3 510/94/3 509/1/3
f 507/1/4 508/120/4 511/239/4 512/237/4
f 517/228/1 518/229/1 516/227/1 515/1/1
f 521/230/2 522/228/2 520/1/2 519/94/2
f 522/231/3 521/232/3 518/133/3 517/1/3
f 515/1/4 516/227/4 519/233/4 520/231/4
f 525/234/1 526/235/1 524/120/1 523/1/1
f 529/236/2 530/234/2 528/1/2 527/94/2
f 530/237/3 529/238/3 526/94/3 525/1/3
f 523/1/4 524/120/4 527/239/4 528/237/4
f 533/228/1 534/229/1 532/227/1 531/1/1
f 537/230/2 538/228/2 536/1/2 535/94/2
f 538/231/3 537/232/3 534/133/3 533/1/3
f 531/1/4 532/227/4 535/233/4 536/231/4
f 541/234/1 542/229/1 540/227/1 539/1/1
f 545/240/2 546/228/2 544/1/2 543/94/2
f 546/231/3 545/232/3 542/133/3 541/1/3
f 539/1/4 540/227/4 543/233/4 544/231/4
f 549/234/1 550/235/1 548/120/1 547/1/1
f 553/236/2 554/234/2 552/1/2 551/94/2
f 554/237/3 553/238/3 550/94/3 549/1/3
f 547/1/4 548/120/4 551/239/4 552/237/4
f 557/228/1 558/229/1 556/227/1 555/1/1
f 561/230/2 562/228/2 560/1/2 559/94/2
f 562/231/3 561/232/3 558/133/3 557/1/3
f 555/1/4 556/227/4 559/233/4 560/231/4
f 565/234/1 566/235/1 564/120/1 563/1/1
f 569/236/2 570/234/2 568/1/2 567/94/2
f 570/237/3 569/238/3 566/94/3 565/1/3
f 563/1/4 564/120/4 567/239/4 568/237/4
f 573/234/1 574/235/1 572/120/1 571/1/1
f 577/236/2 578/234/2 576/1/2 575/94/2
f 578/237/3 577/238/3 574/94/3 573/1/3
f 571/1/4 572/120/4 575/239/4 576/237/4
f 581/234/1 582/229/1 580/227/1 579/1/1
f 585/240/2 586/228/2 584/1/2 583/94/2
f 586/231/3 585/232/3 582/133/3 581/1/3
f 579/1/4 580/227/4 583/233/4 584/231/4
f 589/234/1 590/229/1 588/227/1 587/1/1
f 593/240/2 594/228/2 592/1/2 591/94/2
f 594/231/3 593/232/3 590/133/3 589/1/3
f 587/1/4 588/227/4 591/233/4 592/231/4
f 597/234/1 598/235/1 596/120/1 595/1/1
f 601/236/2 602/234/2 600/1/2 599/94/2
f 602/237/3 601/238/3 598/94/3 597/1/3
f 595/1/4 596/120/4 599/239/4 600/237/4
f 605/234/1 606/235/1 604/120/1 603/1/1
f 609/236/2 610/234/2 608/1/2 607/94/2
f 610/237/3 609/238/3 606/94/3 605/1/3
f 603/1/4 604/120/4 607/239/4 608/237/4
f 613/234/1 614/235/1 612/120/1 611/1/1
f 617/236/2 618/234/2 616/1/2 615/94/2
f 618/237/3 617/238/3 614/94/3 613/1/3
f 611/1/4 612/120/4 615/239/4 616/237/4
f 621/228/1 622/229/1 620/227/1 619/1/1
f 625/230/2 626/228/2 624/1/2 623/94/2
f 626/231/3 625/232/3 622/133/3 621/1/3
f 619/1/4 620/227/4 623/233/4 624/231/4
f 629/228/1 630/229/1 628/227/1 627/1/1
f 633/230/2 634/228/2 632/1/2 631/94/2
f 634/231/3 633/232/3 630/133/3 629/1/3
f 627/1/4 628/227/4 631/233/4 632/231/4
f 637/234/1 638/235/1 636/120/1 635/1/1
f 641/236/2 642/234/2 640/1/2 639/94/2
f 642/237/3 641/238/3 638/94/3 637/1/3
f 635/1/4 636/120/4 639/239/4 640/237/4
f 645/234/1 646/235/1 644/120/1 643/1/1
f 649/236/2 650/234/2 648/1/2 647/94/2
f 650/237/3 649/238/3 646/94/3 645/1/3
f 643/1/4 644/120/4 647/239/4 648/237/4
f 653/228/1 654/229/1 652/227/1 651/1/1
f 657/230/2 658/228/2 656/1/2 655/94/2
f 658/231/3 657/232/3 654/133/3 653/1/3
f 651/1/4 652/227/4 655/233/4 656/231/4
f 661/234/1 662/235/1 660/120/1 659/1/1
f 665/236/2 666/234/2 664/1/2 663/94/2
f 666/237/3 665/238/3 662/94/3 661/1/3
f 659/1/4 660/120/4 663/239/4 664/237/4
f 669/228/1 670/229/1 668/227/1 667/1/1
f 673/230/2 674/228/2 672/1/2 671/94/2
f 674/231/3 673/232/3 670/133/3 669/1/3
f 667/1/4 668/227/4 671/233/4 672/231/4
f 677/234/1 678/235/1 676/120/1 675/1/1
f 681/236/2 682/234/2 680/1/2 679/94/2
f 682/237/3 681/238/3 678/94/3 677/1/3
f 675/1/4 676/120/4 679/239/4 680/237/4
f 685/234/1 686/235/1 684/120/1 683/1/1
f 689/236/2 690/234/2 688/1/2 687/94/2
f 690/237/3 689/238/3 686/94/3 685/1/3
f 683/1/4 684/120/4 687/239/4 688/237/4
f 693/228/1 694/229/1 692/227/1 691/1/1
f 697/230/2 698/228/2 696/1/2 695/94/2
f 698/231/3 697/232/3 694/133/3 693/1/3
f 691/1/4 692/227/4 695/233/4 696/231/4
f 701/234/1 702/229/1 700/227/1 699/1/1
f 705/240/2 706/228/2 704/1/2 703/94/2
f 706/231/3 705/232/3 702/133/3 701/1/3
f 699/1/4 700/227/4 703/233/4 704/231/4
f 709/228/1 710/229/1 708/227/1 707/1/1
f 713/230/2 714/228/2 712/1/2 711/94/2
f 714/231/3 713/232/3 710/133/3 709/1/3
f 707/1/4 708/227/4 711/233/4 712/231/4
f 717/228/1 718/229/1 716/227/1 715/1/1
f 721/230/2 722/228/2 720/1/2 719/94/2
f 722/231/3 721/232/3 718/133/3 717/1/3
f 715/1/4 716/227/4 719/233/4 720/231/4
f 725/234/1 726/235/1 724/120/1 723/1/1
f 729/236/2 730/234/2 728/1/2 727/94/2
f 730/237/3 729/238/3 726/94/3 725/1/3
f 723/1/4 724/120/4 727/239/4 728/237/4
f 733/234/1 734/235/1 732/120/1 731/1/1
f 737/236/2 738/234/2 736/1/2 735/94/2
f 738/237/3 737/238/3 734/94/3 733/1/3
f 731/1/4 732/120/4 735/239/4 736/237/4
f 741/234/1 742/235/1 740/120/1 739/1/1
f 745/236/2 746/234/2 744/1/2 743/94/2
f 746/237/3 745/238/3 742/94/3 741/1/3
f 739/1/4 740/120/4 743/239/4 744/237/4
f 749/228/1 750/229/1 748/227/1 747/1/1
f 753/230/2 754/228/2 752/1/2 751/94/2
f 754/231/3 753/232/3 750/133/3 749/1/3
f 747/1/4 748/227/4 751/233/4 752/231/4
f 757/228/1 758/229/1 756/227/1 755/1/1
f 761/230/2 762/228/2 760/1/2 759/94/2
f 762/231/3 761/232/3 758/133/3 757/1/3
f 755/1/4 756/227/4 759/233/4 760/231/4
f 765/228/1 766/229/1 764/227/1 763/1/1
f 769/240/2 770/228/2 768/1/2 767/94/2
f 770/231/3 769/232/3 766/133/3 765/1/3
f 763/1/4 764/227/4 767/233/4 768/231/4

usemtl Black
f 426/162/5 434/226/5 427/165/5
f 425/160/5 434/226/5 426/162/5
f 424/158/5 434/226/5 425/160/5
f 423/156/5 434/226/5 424/158/5
f 422/155/5 434/226/5 423/156/5
f 421/225/5 434/226/5 422/155/5
f 433/175/5 434/226/5 421/225/5
f 432/173/5 434/226/5 433/175/5
f 430/171/5 434/226/5 432/173/5
f 429/168/5 434/226/5 430/171/5
f 428/166/5 434/226/5 429/168/5
f 427/165/5 434/226/5 428/166/5
f 336/96/2 334/1/2 333/94/2
f 333/94/2 335/95/2 336/96/2
f 391/149/2 381/1/2 382/94/2
f 382/94/2 392/148/2 391/149/2
f 361/96/2 351/1/2 352/94/2
f 352/94/2 362/95/2 361/96/2
f 371/96/2 367/1/2 368/94/2
f 368/94/2 372/95/2 371/96/2
f 383/149/2 375/1/2 376/94/2
f 376/94/2 384/148/2 383/149/2
f 395/149/2 389/1/2 390/94/2
f 390/94/2 396/148/2 395/149/2

