# ProBuilder 5.0.6
# https://unity3d.com/unity/features/worldbuilding/probuilder
# 2024-01-29 오후 2:30:06

mtllib ./YuubinPost02.mtl
o YuubinPost02

g YuubinPost02
v -0.01 -0.005 0.065
v -0.01 -0.005 -0.065
v -0.01 0.005 0.065
v -0.01 0.005 -0.065
v -0.02958679 -1.3164 0
v -0.02958679 -1.2964 0
v 0.006591797 -1.3164 0.1350021
v 0.006591797 -1.2964 0.1350021
v 0.105423 -1.3164 0.2338257
v 0.105423 -1.2964 0.2338257
v 0.2404175 -1.3164 0.2699966
v 0.2404175 -1.2964 0.2699966
v 0.375412 -1.3164 0.2338257
v 0.375412 -1.2964 0.2338257
v 0.4742432 -1.3164 0.1350021
v 0.4742432 -1.2964 0.1350021
v 0.5104218 -1.3164 0
v 0.5104218 -1.2964 0
v 0.4742432 -1.3164 -0.1350021
v 0.4742432 -1.2964 -0.1350021
v 0.375412 -1.3164 -0.2338257
v 0.375412 -1.2964 -0.2338257
v 0.2404175 -1.3164 -0.2699966
v 0.2404175 -1.2964 -0.2699966
v 0.105423 -1.3164 -0.2338257
v 0.105423 -1.2964 -0.2338257
v 0.006591797 -1.3164 -0.1350021
v 0.006591797 -1.2964 -0.1350021
v 0.2404175 -1.3164 0
v 0.2404175 -1.2964 0
v -0.01957703 -1.2964 0
v -0.009475708 -1.2764 0
v 0.01524353 -1.2964 0.1299973
v 0.02391052 -1.2764 0.125
v 0.1104126 -1.2964 0.2251663
v 0.1154175 -1.2764 0.216507
v 0.2404175 -1.2964 0.2600021
v 0.2404175 -1.2764 0.2504196
v 0.3704224 -1.2964 0.2251663
v 0.3654175 -1.2764 0.216507
v 0.4655914 -1.2964 0.1299973
v 0.4569244 -1.2764 0.125
v 0.500412 -1.2964 0
v 0.490387 -1.2764 0
v 0.4655914 -1.2964 -0.1299973
v 0.4569244 -1.2764 -0.125
v 0.3704224 -1.2964 -0.2251663
v 0.3654175 -1.2764 -0.216507
v 0.2404175 -1.2964 -0.2600021
v 0.2404175 -1.2764 -0.2495804
v 0.1104126 -1.2964 -0.2251663
v 0.1154175 -1.2764 -0.216507
v 0.01524353 -1.2964 -0.1299973
v 0.02391052 -1.2764 -0.125
v 0.02041626 -0.3164001 0
v 0.02041626 0.1835999 0
v 0.04989624 -0.3164001 0.1100006
v 0.04989624 0.1835999 0.1100006
v 0.1304169 -0.3164001 0.1905289
v 0.1304169 0.1835999 0.1905289
v 0.2404175 -0.3164001 0.2200012
v 0.2404175 0.1835999 0.2200012
v 0.3504181 -0.3164001 0.1905289
v 0.3504181 0.1835999 0.1905289
v 0.4309387 -0.3164001 0.1100006
v 0.4309387 0.1835999 0.1100006
v 0.4604187 -0.3164001 0
v 0.4604187 0.1835999 0
v 0.4309387 -0.3164001 -0.1100006
v 0.4309387 0.1835999 -0.1100006
v 0.3504181 -0.3164001 -0.1905289
v 0.3504181 0.1835999 -0.1905289
v 0.2404175 -0.3164001 -0.2200012
v 0.2404175 0.1835999 -0.2200012
v 0.1304169 -0.3164001 -0.1905289
v 0.1304169 0.1835999 -0.1905289
v 0.04989624 -0.3164001 -0.1100006
v 0.04989624 0.1835999 -0.1100006
v -0.00958252 -1.2764 0
v -0.00958252 -0.3164001 0
v 0.02391052 -0.3164001 0.125
v 0.1154175 -0.3164001 0.216507
v 0.2404175 -0.3164001 0.25
v 0.3654175 -0.3164001 0.216507
v 0.4569244 -0.3164001 0.125
v 0.4904175 -0.3164001 0
v 0.4569244 -0.3164001 -0.125
v 0.3654175 -0.3164001 -0.216507
v 0.2404175 -1.2764 -0.25
v 0.2404175 -0.3164001 -0.25
v 0.1154175 -0.3164001 -0.216507
v 0.02391052 -0.3164001 -0.125
v -0.0145874 -0.3164001 0
v 0.02041626 -0.2764001 0
v 0.01957703 -0.3164001 0.1275024
v 0.04989624 -0.2764001 0.1100006
v 0.112915 -0.3164001 0.2208328
v 0.1304169 -0.2764001 0.1905289
v 0.2404175 -0.3164001 0.2549973
v 0.2404175 -0.2764001 0.2200012
v 0.3679199 -0.3164001 0.2208328
v 0.3504181 -0.2764001 0.1905289
v 0.4612579 -0.3164001 0.1275024
v 0.4309387 -0.2764001 0.1100006
v 0.4954224 -0.3164001 0
v 0.4604187 -0.2764001 0
v 0.4612579 -0.3164001 -0.1275024
v 0.4309387 -0.2764001 -0.1100006
v 0.3679199 -0.3164001 -0.2208328
v 0.3504181 -0.2764001 -0.1905289
v 0.2404175 -0.3164001 -0.2549973
v 0.2404175 -0.2764001 -0.2200012
v 0.112915 -0.3164001 -0.2208328
v 0.1304169 -0.2764001 -0.1905289
v 0.01957703 -0.3164001 -0.1275024
v 0.04989624 -0.2764001 -0.1100006
v 0.2404175 -0.3164001 0
v 0.01042175 0.1636 0
v 0.01042175 0.1835999 0
v 0.04122925 0.1636 0.1149979
v 0.04122925 0.1835999 0.1149979
v 0.125412 0.1636 0.1991882
v 0.125412 0.1835999 0.1991882
v 0.2404175 0.1636 0.2300034
v 0.2404175 0.1835999 0.2300034
v 0.355423 0.1636 0.1991882
v 0.355423 0.1835999 0.1991882
v 0.4396057 0.1636 0.1149979
v 0.4396057 0.1835999 0.1149979
v 0.4704132 0.1636 0
v 0.4704132 0.1835999 0
v 0.4396057 0.1636 -0.1149979
v 0.4396057 0.1835999 -0.1149979
v 0.355423 0.1636 -0.1991882
v 0.355423 0.1835999 -0.1991882
v 0.2404175 0.1636 -0.2300034
v 0.2404175 0.1835999 -0.2300034
v 0.125412 0.1636 -0.1991882
v 0.125412 0.1835999 -0.1991882
v 0.04122925 0.1636 -0.1149979
v 0.04122925 0.1835999 -0.1149979
v 0.2404175 0.1636 0
v -0.00958252 0.2035999 0
v -0.00958252 0.2235999 0
v 0.02391052 0.2035999 0.125
v 0.02391052 0.2235999 0.125
v 0.1154175 0.2035999 0.216507
v 0.1154175 0.2235999 0.216507
v 0.2404175 0.2035999 0.25
v 0.2404175 0.2235999 0.25
v 0.3654175 0.2035999 0.216507
v 0.3654175 0.2235999 0.216507
v 0.4569244 0.2035999 0.125
v 0.4569244 0.2235999 0.125
v 0.4904175 0.2035999 0
v 0.4904175 0.2235999 0
v 0.4569244 0.2035999 -0.125
v 0.4569244 0.2235999 -0.125
v 0.3654175 0.2035999 -0.216507
v 0.3654175 0.2235999 -0.216507
v 0.2404175 0.2035999 -0.25
v 0.2404175 0.2235999 -0.25
v 0.1154175 0.2035999 -0.216507
v 0.1154175 0.2235999 -0.216507
v 0.02391052 0.2035999 -0.125
v 0.02391052 0.2235999 -0.125
v 0.2404175 0.2235999 0
v -0.00958252 0.2435999 0
v -0.00958252 0.2635999 0
v 0.02391052 0.2435999 0.125
v 0.02391052 0.2635999 0.125
v 0.1154175 0.2435999 0.216507
v 0.1154175 0.2635999 0.216507
v 0.2404175 0.2435999 0.25
v 0.2404175 0.2635999 0.25
v 0.3654175 0.2435999 0.216507
v 0.3654175 0.2635999 0.216507
v 0.4569244 0.2435999 0.125
v 0.4569244 0.2635999 0.125
v 0.4904175 0.2435999 0
v 0.4904175 0.2635999 0
v 0.4569244 0.2435999 -0.125
v 0.4569244 0.2635999 -0.125
v 0.3654175 0.2435999 -0.216507
v 0.3654175 0.2635999 -0.216507
v 0.2404175 0.2435999 -0.25
v 0.2404175 0.2635999 -0.25
v 0.1154175 0.2435999 -0.216507
v 0.1154175 0.2635999 -0.216507
v 0.02391052 0.2435999 -0.125
v 0.02391052 0.2635999 -0.125
v 0.2404175 0.2435999 0
v 0.2404175 0.3395441 0
v 0.0004119873 0.2235999 0
v 0.0004119873 0.2435999 0
v 0.03257751 0.2235999 0.1200027
v 0.03257751 0.2435999 0.1200027
v 0.1204224 0.2235999 0.2078476
v 0.1204224 0.2435999 0.2078476
v 0.2404175 0.2235999 0.2399979
v 0.2404175 0.2435999 0.2399979
v 0.3604126 0.2235999 0.2078476
v 0.3604126 0.2435999 0.2078476
v 0.4482574 0.2235999 0.1200027
v 0.4482574 0.2435999 0.1200027
v 0.480423 0.2235999 0
v 0.480423 0.2435999 0
v 0.4482574 0.2235999 -0.1200027
v 0.4482574 0.2435999 -0.1200027
v 0.3604126 0.2235999 -0.2078476
v 0.3604126 0.2435999 -0.2078476
v 0.2404175 0.2235999 -0.2399979
v 0.2404175 0.2435999 -0.2399979
v 0.1204224 0.2235999 -0.2078476
v 0.1204224 0.2435999 -0.2078476
v 0.03257751 0.2235999 -0.1200027
v 0.03257751 0.2435999 -0.1200027
v 0.2333984 -0.7164 0.1500015
v -0.06658936 -0.7164 0.1500015
v 0.2333984 -0.4164001 0.1500015
v -0.06658936 -0.4164001 0.1500015
v -0.06658936 -0.7164 -0.1500015
v -0.06658936 -0.4164001 -0.1500015
v 0.2333984 -0.7164 -0.1500015
v 0.2333984 -0.4164001 -0.1500015
v -0.009597778 0.08359993 0
v 0.1904144 0.08359993 0
v -0.009597778 0.06350374 0.07499695
v 0.1904144 0.06350374 0.07499695
v -0.009597778 0.008599997 0.1299057
v 0.1904144 0.008599997 0.1299057
v -0.009597778 -0.06640005 0.1500015
v 0.1904144 -0.06640005 0.1500015
v -0.009597778 -0.1414001 0.1299057
v 0.1904144 -0.1414001 0.1299057
v -0.009597778 -0.1963038 0.07499695
v 0.1904144 -0.1963038 0.07499695
v -0.009597778 -0.2164 0
v 0.1904144 -0.2164 0
v -0.009597778 -0.1963038 -0.07499695
v 0.1904144 -0.1963038 -0.07499695
v -0.009597778 -0.1414 -0.1299057
v 0.1904144 -0.1414001 -0.1299057
v -0.009597778 -0.06640005 -0.1500015
v 0.1904144 -0.06640005 -0.1500015
v -0.009597778 0.008599997 -0.1299057
v 0.1904144 0.008599877 -0.1299057
v -0.009597778 0.06350374 -0.07499695
v 0.1904144 0.06350374 -0.07499695
v -0.009597778 -0.06640005 0
v 0.2404175 0.2035999 -0.2495804
v 0.2154236 0.3293999 0
v 0.2154236 0.3493999 0
v 0.2187653 0.3293999 0.01249695
v 0.2187653 0.3493999 0.01249695
v 0.2279205 0.3293999 0.02165222
v 0.2279205 0.3493999 0.02165222
v 0.2404175 0.3293999 0.02500153
v 0.2404175 0.3493999 0.02500153
v 0.2529144 0.3293999 0.02165222
v 0.2529144 0.3493999 0.02165222
v 0.2620697 0.3293999 0.01249695
v 0.2620697 0.3493999 0.01249695
v 0.2654114 0.3293999 0
v 0.2654114 0.3493999 0
v 0.2620697 0.3293999 -0.01249695
v 0.2620697 0.3493999 -0.01249695
v 0.2529144 0.3293999 -0.02165222
v 0.2529144 0.3493999 -0.02165222
v 0.2404175 0.3293999 -0.02500153
v 0.2404175 0.3493999 -0.02500153
v 0.2279205 0.3293999 -0.02165222
v 0.2279205 0.3493999 -0.02165222
v 0.2187653 0.3293999 -0.01249695
v 0.2187653 0.3493999 -0.01249695
v 0.2404175 0.3605177 0
v -0.09999084 -0.03869998 -0.125
v -0.09999084 -0.03869998 -0.1149979
v 1.525879E-05 -0.03869998 -0.125
v 1.525879E-05 -0.03869998 -0.1149979
v 1.525879E-05 -0.0128181 -0.1207428
v -0.09999084 -0.0128181 -0.1207428
v 1.525879E-05 -0.01540637 -0.111084
v -0.09999084 -0.01540637 -0.111084
v 1.525879E-05 0.01129997 -0.1082535
v -0.09999084 0.01129997 -0.1082535
v 1.525879E-05 0.006299973 -0.09959412
v -0.09999084 0.006299973 -0.09959412
v 1.525879E-05 0.03201067 -0.08838654
v -0.09999084 0.03201067 -0.08838654
v 1.525879E-05 0.02493954 -0.08131409
v -0.09999084 0.02493954 -0.08131409
v 1.525879E-05 0.04790246 -0.0625
v -0.09999084 0.04790246 -0.0625
v 1.525879E-05 0.03924227 -0.05750275
v -0.09999084 0.03924227 -0.05750275
v 1.525879E-05 0.05789256 -0.03234863
v -0.09999084 0.05789256 -0.03234863
v 1.525879E-05 0.04823327 -0.02976227
v -0.09999084 0.04823327 -0.02976227
v 1.525879E-05 0.06129992 0
v -0.09999084 0.06129992 0
v 1.525879E-05 0.05129993 0
v -0.09999084 0.05129993 0
v 1.525879E-05 0.05789256 0.03234863
v -0.09999084 0.05789256 0.03234863
v 1.525879E-05 0.04823327 0.02976227
v -0.09999084 0.04823327 0.02976227
v 1.525879E-05 0.04790246 0.0625
v -0.09999084 0.04790246 0.0625
v 1.525879E-05 0.03924227 0.05750275
v -0.09999084 0.03924227 0.05750275
v 1.525879E-05 0.03201067 0.08838654
v -0.09999084 0.03201067 0.08838654
v 1.525879E-05 0.02493954 0.08131409
v -0.09999084 0.02493954 0.08131409
v 1.525879E-05 0.01129997 0.1082535
v -0.09999084 0.01129997 0.1082535
v 1.525879E-05 0.006299973 0.09959412
v -0.09999084 0.006299973 0.09959412
v 1.525879E-05 -0.0128181 0.1207428
v -0.09999084 -0.0128181 0.1207428
v 1.525879E-05 -0.01540625 0.111084
v -0.09999084 -0.01540625 0.111084
v 1.525879E-05 -0.03869998 0.125
v -0.09999084 -0.03869998 0.125
v 1.525879E-05 -0.03869998 0.1149979
v -0.09999084 -0.03869998 0.1149979
v -0.0004882813 0.004999995 0.07499695
v -0.02047729 0.004999995 0.07499695
v -0.0004882813 0.01499999 0.07499695
v -0.02047729 0.01499999 0.07499695
v -0.02047729 0.004999995 -0.07499695
v -0.02047729 0.01499999 -0.07499695
v -0.0004882813 0.004999995 -0.07499695
v -0.0004882813 0.01499999 -0.07499695
v -0.0004882813 -0.004999995 -0.06500244
v -0.02047729 -0.004999995 -0.06500244
v -0.0004882813 0.004999995 -0.06500244
v -0.02047729 0.004999995 -0.06500244
v -0.02047729 -0.004999995 -0.07499695
v -0.0004882813 -0.004999995 -0.07499695
v -0.0004882813 -0.01499999 0.07499695
v -0.02047729 -0.01499999 0.07499695
v -0.0004882813 -0.004999995 0.07499695
v -0.02047729 -0.004999995 0.07499695
v -0.02047729 -0.01499999 -0.07499695
v -0.0004882813 -0.01499999 -0.07499695
v -0.02047729 -0.004999995 0.06500244
v -0.02047729 0.004999995 0.06500244
v -0.0004882813 -0.004999995 0.06500244
v -0.0004882813 0.004999995 0.06500244
v -0.05519104 -0.6516001 0.04000092
v -0.07518005 -0.6516001 0.04000092
v -0.05519104 -0.6416001 0.04000092
v -0.07518005 -0.6416001 0.04000092
v -0.07518005 -0.6516001 -0.04000092
v -0.07518005 -0.6416001 -0.04000092
v -0.05519104 -0.6516001 -0.04000092
v -0.05519104 -0.6416001 -0.04000092
v -0.05519104 -0.6666 0.04000092
v -0.07518005 -0.6666 0.04000092
v -0.07518005 -0.6666 0.03000641
v -0.07518005 -0.6516001 0.03000641
v -0.05519104 -0.6666 0.03000641
v -0.05519104 -0.6516001 0.03000641
v -0.05519104 -0.6766 0.04000092
v -0.07518005 -0.6766 0.04000092
v -0.07518005 -0.6766 -0.04000092
v -0.07518005 -0.6666 -0.04000092
v -0.05519104 -0.6766 -0.04000092
v -0.05519104 -0.6666 -0.04000092
v -0.05519104 -0.6666 -0.03000641
v -0.07518005 -0.6666 -0.03000641
v -0.05519104 -0.6516001 -0.03000641
v -0.07518005 -0.6516001 -0.03000641
v -0.05519104 -0.5864 -0.1218033
v -0.07518005 -0.5864 -0.1218033
v -0.05519104 -0.5464001 -0.1218033
v -0.07518005 -0.5464001 -0.1218033
v -0.07518005 -0.5864 -0.1317978
v -0.07518005 -0.5464001 -0.1317978
v -0.05519104 -0.5864 -0.1317978
v -0.05519104 -0.5464001 -0.1317978
v -0.07518005 -0.5864 -0.1118088
v -0.07518005 -0.5764 -0.1118088
v -0.07518005 -0.5764 -0.1218033
v -0.05519104 -0.5764 -0.1118088
v -0.05519104 -0.5764 -0.1218033
v -0.05519104 -0.5864 -0.1118088
v -0.05519104 -0.5864 -0.1018143
v -0.07518005 -0.5864 -0.1018143
v -0.05519104 -0.5464001 -0.1018143
v -0.07518005 -0.5464001 -0.1018143
v -0.07518005 -0.5464001 -0.1118088
v -0.05519104 -0.5464001 -0.1118088
v -0.07518005 -0.5564001 -0.1118088
v -0.07518005 -0.5564001 -0.1218033
v -0.05519104 -0.5564001 -0.1218033
v -0.05519104 -0.5564001 -0.1118088
v -0.009689331 -0.1097 -0.09999847
v -0.009689331 -0.00970006 -0.09999847
v -0.009689331 -0.1097 0.09999847
v -0.009689331 -0.00970006 0.09999847
v -0.009689331 -0.141 -0.09999847
v -0.009689331 -0.09100008 -0.09999847
v -0.009689331 -0.141 0.09999847
v -0.009689331 -0.09100008 0.09999847
v -0.06658936 -0.7164 -0.140007
v -0.07659912 -0.7164 -0.140007
v -0.06658936 -0.4164001 -0.140007
v -0.07659912 -0.4164001 -0.140007
v -0.07659912 -0.7164 -0.1500015
v -0.07659912 -0.4164001 -0.1500015
v -0.07659912 -0.7164 0.1500015
v -0.07659912 -0.4164001 0.1500015
v -0.07659912 -0.7164 0.140007
v -0.07659912 -0.4164001 0.140007
v -0.06658936 -0.7164 0.140007
v -0.06658936 -0.4164001 0.140007
v -0.07659912 -0.4264001 0.1399918
v -0.07659912 -0.4264001 -0.140007
v -0.07659912 -0.4164001 0.1399918
v -0.06658936 -0.4164001 0.1399918
v -0.06658936 -0.4264001 -0.140007
v -0.06658936 -0.4264001 0.1399918
v -0.07659912 -0.7164 0.1399918
v -0.07659912 -0.7064 0.1399918
v -0.07659912 -0.7064 -0.140007
v -0.06658936 -0.7064 0.1399918
v -0.06658936 -0.7064 -0.140007
v -0.06658936 -0.7164 0.1399918
v -0.06777954 -0.6666 0.03000641
v -0.06777954 -0.6666 -0.02999115
v -0.06777954 -0.6516001 0.03000641
v -0.06777954 -0.6516001 -0.02999115
v -0.06718445 -0.5764 -0.1118088
v -0.06718445 -0.5764 -0.1218033
v -0.06718445 -0.5564001 -0.1118088
v -0.06718445 -0.5564001 -0.1218033

vt 0.065 -0.005
vt -0.065 -0.005
vt 0.065 0.005
vt -0.065 0.005
vt -0.06988116 -0.00999999
vt -0.06988116 0.00999999
vt 0.06988114 -0.00999999
vt 0.06988114 0.00999999
vt -0.27 1.490116E-08
vt 0 -2.980232E-08
vt -0.233822 0.135
vt 0.27 0
vt 0.233822 0.135
vt -0.1349952 0.2338269
vt 0.2338269 0.1350028
vt 0.1349952 0.2338269
vt 2.980232E-08 0.27
vt 0.135 0.2338286
vt 4.470348E-08 0.27
vt -0.135 0.2338286
vt 0.27 -2.980232E-08
vt -0.27 -7.450581E-09
vt 0.2338219 -0.135
vt -0.233822 -0.135
vt 0.1349952 -0.2338269
vt -0.2338269 -0.1350028
vt -0.1349952 -0.2338269
vt 0 -0.27
vt -2.980232E-08 -0.27
vt -0.06729297 -0.1191502
vt -0.06467928 -0.09689474
vt 0.06729294 -0.1191502
vt 0.06470819 -0.09693527
vt -0.06729294 -0.1182214
vt -0.06469811 -0.09601128
vt 0.06729297 -0.1182214
vt 0.06470893 -0.09601128
vt -0.06729294 -0.1145358
vt -0.06481284 -0.0924983
vt 0.06729294 -0.1145358
vt 0.06469999 -0.09232867
vt 0.06469903 -0.09599698
vt -0.06729293 -0.1218252
vt -0.06459561 -0.09943569
vt 0.06729291 -0.1218252
vt 0.06469995 -0.09961855
vt -0.05694018 -0.25
vt -0.05694018 0.25
vt 0.0569402 -0.25
vt 0.0569402 0.25
vt -0.06470476 -0.4800001
vt -0.06470476 0.48
vt 0.06470475 -0.4800001
vt 0.06470475 0.48
vt -0.06599885 -0.166631
vt -0.05693934 -0.1142585
vt 0.06599886 -0.166631
vt 0.05694082 -0.1142553
vt 0.1757983 0.03493266
vt 0.1268814 0.01413709
vt 0.1042072 0.1458271
vt 0.06512128 0.1098153
vt -0.1042037 0.145815
vt -0.06511396 0.1098064
vt -0.1757878 0.03491555
vt -0.126868 0.01412401
vt -0.1757984 -0.03493263
vt -0.1268814 -0.01413707
vt -0.1042072 -0.1458271
vt -0.06512129 -0.1098153
vt 0.1042037 -0.145815
vt 0.06511393 -0.1098064
vt 0.1757878 -0.03491551
vt 0.126868 -0.01412396
vt -0.255 2.235174E-08
vt -0.2208362 0.1275
vt -0.1275001 0.2208365
vt -0.1275 0.2208352
vt 1.490116E-08 0.255
vt 0.1275 0.2208352
vt 0.2208365 0.1275046
vt 0.255 -1.490116E-08
vt 0.255 -2.980232E-08
vt 0.2208362 -0.1275
vt 0.1275001 -0.2208365
vt 0.1275 -0.2208352
vt 0 -0.255
vt -0.1275 -0.2208352
vt -0.1275001 -0.2208365
vt -0.2208365 -0.1275046
vt -0.05952838 -0.01000001
vt -0.05952838 0.01000001
vt 0.0595284 -0.01000001
vt 0.0595284 0.01000001
vt -0.23 0
vt -0.1991919 0.115
vt -0.1991858 0.1149965
vt -0.1150041 0.1991858
vt -0.115 0.1991853
vt 1.490116E-08 0.23
vt 1.490116E-08 0.23
vt 0.115 0.1991853
vt 0.1991858 0.1149965
vt 0.1991919 0.115
vt 0.23 -2.607703E-08
vt 0.1991919 -0.115
vt 0.1150041 -0.1991858
vt 0.115 -0.1991853
vt 0 -0.23
vt -1.490116E-08 -0.23
vt -0.115 -0.1991853
vt -0.1150041 -0.1991859
vt -0.1991858 -0.1149965
vt -0.1991919 -0.115
vt -0.06470477 -0.01000001
vt -0.06470477 0.01000001
vt 0.06470475 -0.01000001
vt 0.06470475 0.01000001
vt 0.25 0
vt 0.216507 0.125
vt 0.2165063 0.1249996
vt 0.1249997 0.2165064
vt 0.125 0.216507
vt 0 0.25
vt -0.125 0.216507
vt -0.1249996 0.2165063
vt -0.2165064 0.1249997
vt -0.216507 0.125
vt -0.25 -1.862645E-08
vt -0.216507 -0.125
vt -0.2165063 -0.1249996
vt -0.1249997 -0.2165064
vt 1.490116E-08 -0.25
vt 0.125 -0.216507
vt 0.2165063 -0.1249997
vt 0.216507 -0.1250001
vt -0.06470477 0.00999999
vt 0.06470475 0.00999999
vt 0.2362999 -0.006385215
vt -0.02498066 -0.006385222
vt 0.2042529 0.1189933
vt 0.2091728 0.1101137
vt -0.01865652 -0.01779713
vt 0.1198482 0.2037517
vt 0.1237767 0.2013901
vt -0.006972492 -0.02482314
vt -0.000811398 0.2363847
vt 0.000811398 0.2363847
vt 0.006972492 -0.02482316
vt -0.1237767 0.2013902
vt -0.1198482 0.2037516
vt 0.01865649 -0.01779714
vt -0.2091729 0.1101138
vt -0.2042529 0.1189933
vt 0.02498065 -0.006385248
vt -0.2362999 -0.006385248
vt -0.2362998 0.006385271
vt 0.02498066 0.006385226
vt -0.2042529 -0.1189933
vt -0.2091729 -0.1101137
vt 0.01865652 0.01779713
vt -0.1198482 -0.2037517
vt -0.1237766 -0.2013902
vt 0.006972522 0.02482314
vt 0.0008113831 -0.2363847
vt -0.0008114278 -0.2363847
vt -0.006972522 0.02482316
vt 0.1237766 -0.2013902
vt 0.1198481 -0.2037516
vt -0.01865652 0.01779716
vt 0.2091728 -0.1101138
vt 0.2042529 -0.1189934
vt -0.02498066 0.006385222
vt 0.2362999 0.006385215
vt -0.06211658 -0.01000001
vt -0.06211658 0.01000001
vt 0.06211656 -0.01000001
vt 0.06211656 0.01000001
vt 0.15 -0.15
vt -0.15 -0.15
vt 0.15 0.15
vt -0.15 0.15
vt -0.15 -0.15
vt 0.15 -0.15
vt -0.03882287 -0.1
vt -0.03882287 0.1
vt 0.03882286 -0.1
vt 0.03882286 0.1
vt -0.03882284 -0.09999999
vt 0.03882289 -0.09999999
vt 0.03882298 0.09999999
vt -0.1500007 1.147389E-06
vt -0.1299032 0.07500114
vt -0.1299037 0.07499553
vt -0.07500041 0.129904
vt -0.075 0.1299044
vt 7.450581E-09 0.15
vt 0.07500038 0.1299042
vt 0.07499901 0.1299033
vt 0.1299043 0.07499691
vt 0.1299038 0.075
vt 0.15 -1.490116E-08
vt 0.1299032 -0.07500112
vt 0.1299036 -0.07499547
vt 0.07500032 -0.129904
vt 0.07499999 -0.1299044
vt 0 -0.15
vt -0.07500036 -0.1299042
vt -0.07499898 -0.1299033
vt -0.1299043 -0.07499694
vt -0.1299038 -0.07500003
vt -0.1556902 -0.03154652
vt -0.1839987 -0.03154653
vt -0.1338874 0.08549339
vt -0.1602737 0.09567792
vt -0.1548175 0.0350749
vt -0.1806072 0.04669115
vt -0.0868872 0.1328515
vt -0.1067668 0.1529675
vt -0.05953303 0.1471569
vt -0.06470464 0.1749635
vt 0.05952929 0.1471569
vt 0.06481333 0.1752451
vt -0.002538443 0.1603203
vt 0.002539188 0.188445
vt 0.1086994 0.1178705
vt 0.1234441 0.1420016
vt 0.08688718 0.1328535
vt 0.1067696 0.1529674
vt 0.1548149 0.03507486
vt 0.1806072 0.04668883
vt 0.1337768 0.08545277
vt 0.1601668 0.09563286
vt 0.1555614 -0.03159096
vt 0.1838288 -0.03158773
vt 0.0647046 0.1748341
vt 0.1548175 -0.03507491
vt 0.1806072 -0.04669115
vt 0.08688718 -0.1328515
vt 0.1067668 -0.1529675
vt -0.0595293 0.1453803
vt -0.06459615 0.1729072
vt 0.059533 0.1453803
vt 0.06470463 0.1731857
vt -0.08688721 -0.1328536
vt -0.1067696 -0.1529675
vt -0.1548149 -0.03507496
vt -0.1806073 -0.04668894
vt -0.1337768 -0.08545285
vt -0.1601668 -0.09563287
vt -0.1555614 0.03159007
vt -0.1838719 0.03159488
vt -0.006470479 -0.00999999
vt -0.006470479 0.00999999
vt 0.006470475 -0.00999999
vt 0.006470475 0.00999999
vt 0.01877961 -0.002088565
vt -0.008581072 -0.002088565
vt 0.01572576 0.01048531
vt 0.01749155 0.007142954
vt -0.006537229 -0.00593812
vt 0.008786589 0.01672616
vt 0.01122895 0.01519719
vt -0.002498716 -0.008470714
vt -0.001182735 0.01885829
vt 0.001182735 0.01885828
vt 0.002498731 -0.008470729
vt -0.01122896 0.01519719
vt -0.008786574 0.01672616
vt 0.006537251 -0.005938113
vt -0.01749153 0.007142954
vt -0.01572572 0.01048531
vt 0.008581072 -0.002088565
vt -0.01877959 -0.002088565
vt -0.01877959 0.002088573
vt 0.008581072 0.002088565
vt -0.01572572 -0.01048531
vt -0.01749153 -0.007142946
vt 0.006537244 0.005938128
vt -0.008786574 -0.01672615
vt -0.01122896 -0.01519719
vt 0.002498731 0.008470729
vt 0.001182735 -0.01885828
vt -0.001182735 -0.01885829
vt -0.002498716 0.008470714
vt 0.01122895 -0.01519719
vt 0.008786589 -0.01672615
vt -0.006537229 0.00593812
vt 0.01749155 -0.007142946
vt 0.01572576 -0.01048531
vt -0.008581072 0.002088567
vt 0.01877961 0.002088567
vt -0.125 0.05
vt -0.115 0.05
vt -0.125 -0.05
vt -0.115 -0.05
vt -0.05 -0.06963409
vt -0.05 -0.04340407
vt 0.04999999 -0.06963409
vt 0.04999999 -0.04340407
vt 0.05 -0.04476374
vt 0.05 -0.06838474
vt -0.04999999 -0.04476374
vt -0.04999999 -0.06838474
vt -0.05 -0.07693303
vt -0.05 -0.04977385
vt 0.04999999 -0.07693303
vt 0.04999999 -0.04977385
vt 0.05 -0.05100795
vt 0.05 -0.07556704
vt -0.04999999 -0.05100795
vt -0.04999999 -0.07556704
vt -0.05 -0.07493456
vt -0.05 -0.0462371
vt 0.04999999 -0.07493456
vt 0.04999999 -0.0462371
vt 0.05 -0.04719103
vt 0.05 -0.07329533
vt -0.04999999 -0.04719103
vt -0.04999999 -0.07329533
vt 0.06449292 -0.05
vt 0.03411599 -0.05
vt 0.06449293 0.05
vt 0.03411599 0.05
vt -0.0349093 -0.05
vt -0.06269112 -0.05
vt -0.03490929 0.05000001
vt -0.06269112 0.05000001
vt 0.04781419 -0.05
vt 0.01605447 -0.05
vt 0.04781419 0.05000001
vt 0.01605447 0.05000001
vt -0.01692458 -0.05
vt -0.04608129 -0.05
vt -0.01692457 0.05
vt -0.04608129 0.05
vt 0.0272942 -0.05
vt -0.005237136 -0.05
vt 0.0272942 0.04999999
vt -0.005237136 0.04999999
vt 0.004099593 -0.05
vt -0.02582218 -0.05
vt 0.0040996 0.04999999
vt -0.02582217 0.04999999
vt 0.005237129 -0.05
vt -0.02729419 -0.05
vt 0.005237129 0.04999999
vt -0.02729419 0.04999999
vt 0.02582216 -0.05
vt -0.004099593 -0.05
vt 0.02582217 0.05
vt -0.004099585 0.05
vt -0.01605446 -0.05
vt -0.04781419 -0.05
vt -0.01605446 0.05000001
vt -0.04781419 0.05000001
vt 0.0460813 -0.05
vt 0.01692457 -0.05
vt 0.0460813 0.05
vt 0.01692457 0.05
vt -0.03411599 -0.05
vt -0.06449292 -0.05
vt -0.03411599 0.04999999
vt -0.06449292 0.04999999
vt 0.06269112 -0.05
vt 0.0349093 -0.05
vt 0.06269112 0.05
vt 0.03490931 0.05
vt 0.05 -0.04623711
vt 0.05 -0.07493456
vt -0.04999999 -0.04623711
vt -0.04999999 -0.07493456
vt -0.05 -0.07329533
vt -0.05 -0.04719104
vt 0.04999999 -0.07329533
vt 0.04999999 -0.04719104
vt 0.05 -0.04977384
vt 0.05 -0.07693303
vt -0.04999999 -0.04977384
vt -0.04999999 -0.07693303
vt -0.05 -0.07556705
vt -0.05 -0.05100795
vt 0.04999999 -0.07556705
vt 0.04999999 -0.05100795
vt 0.05 -0.04340405
vt 0.05 -0.06963409
vt -0.04999999 -0.04340405
vt -0.04999999 -0.06963409
vt -0.05 -0.06838474
vt -0.05 -0.04476371
vt 0.04999999 -0.06838474
vt 0.04999999 -0.04476371
vt 0.115 0.05
vt 0.125 0.05
vt 0.115 -0.05
vt 0.125 -0.05
vt -0.125 -0.05
vt -0.120742 -0.02411809
vt -0.1149961 -0.05
vt -0.1110815 -0.02670637
vt -0.1082519 3.72529E-09
vt -0.09959292 -0.004999984
vt -0.08838882 0.02071069
vt -0.08131728 0.01363955
vt -0.06249799 0.03660255
vt -0.0575 0.02794235
vt -0.03235041 0.04659259
vt -0.05750304 0.0279423
vt -0.02976419 0.0369333
vt 3.72529E-09 0.05
vt 3.72529E-09 0.04
vt 0.03235238 0.04659263
vt 3.72529E-09 0.04
vt 0.02976572 0.03693333
vt 0.06250001 0.03660249
vt 0.05750305 0.02794229
vt 0.062498 0.03660255
vt 0.08838835 0.02071075
vt 0.08131485 0.01363961
vt 0.1082532 -9.313226E-10
vt 0.09959494 -0.004999992
vt 0.1207407 -0.02411811
vt 0.1110823 -0.02670627
vt 0.125 -0.05
vt 0.1149961 -0.05
vt 0.01 -0.005
vt -0.01 -0.005
vt 0.01 0.005
vt -0.01 0.005
vt 0.075 -0.005
vt -0.075 -0.005
vt 0.075 0.005
vt -0.075 0.005
vt -0.01 0.075
vt 0.01 0.075
vt -0.01 -0.075
vt 0.01 -0.075
vt 0.005000003 -0.005
vt -0.005000003 -0.005
vt 0.005000003 0.005
vt -0.005000003 0.005
vt 0.04 -0.004999995
vt -0.04 -0.004999995
vt 0.04 0.004999995
vt -0.04 0.004999995
vt -0.009999998 0.04
vt 0.009999998 0.04
vt -0.009999998 -0.04
vt 0.009999998 -0.04
vt 0.009999998 -0.007499993
vt -0.009999998 -0.007499993
vt 0.009999998 0.007499993
vt -0.009999998 0.007499993
vt 0.004999999 -0.007499993
vt -0.004999999 -0.007499993
vt 0.004999999 0.007499993
vt -0.004999999 0.007499993
vt 0.009999998 -0.01999998
vt -0.009999998 -0.01999998
vt 0.009999998 0.01999998
vt -0.009999998 0.01999998
vt 0.005000003 -0.01999998
vt -0.004999995 -0.01999998
vt 0.005000003 0.01999998
vt -0.004999995 0.01999998
vt -0.009999998 0.005000003
vt 0.009999998 0.005000003
vt -0.009999998 -0.005000003
vt 0.009999998 -0.005000003
vt -0.005000003 -0.01999998
vt -0.005000003 0.01999998
vt 0.5245471 0.8324001
vt 0.5245989 0.9825036
vt 0.8245987 0.8322964
vt 0.8246505 0.9824
vt 0.4806321 0.6511794
vt 0.4806321 0.7511795
vt 0.880632 0.6511794
vt 0.880632 0.7511795
vt 0.005000003 -0.15
vt -0.005000003 -0.15
vt 0.005000003 0.15
vt -0.005000003 0.15
vt 0.004999995 -0.15
vt -0.004999995 -0.15
vt 0.004999995 0.15
vt -0.004999995 0.15
vt 0.14 -0.004999995
vt -0.14 -0.004999995
vt 0.14 0.004999995
vt -0.14 0.004999995
vt -0.005000003 0.14
vt 0.005000003 0.14
vt -0.005000003 -0.14
vt 0.005000003 -0.14
vt 0.03 -0.007499993
vt -0.03 -0.007499993
vt 0.03 0.007499993
vt -0.03 0.007499993
vt 0.005000003 -0.00999999
vt -0.005000003 -0.00999999
vt 0.005000003 0.00999999
vt -0.005000003 0.00999999

vn -1 0 0
vn -0.8660073 0 0.5000313
vn -0.4999812 0 0.8660363
vn 0 0 1
vn 0.4999812 0 0.8660363
vn 0.8660073 0 0.5000313
vn 1 0 0
vn 0.8660073 0 -0.5000313
vn 0.4999812 0 -0.8660363
vn 0 0 -1
vn -0.4999812 0 -0.8660363
vn -0.8660073 0 -0.5000313
vn 0 -1 0
vn 0 1 0
vn -0.8930414 0.4499746 5.304123E-05
vn -0.7741995 0.4482283 0.4468854
vn -0.7747055 0.4473736 0.4468648
vn -0.4471968 0.4472737 0.7745717
vn -0.448366 0.4433542 0.7761475
vn -0.0002421135 0.4358892 0.9000003
vn -0.001205481 0.4360382 0.8999273
vn 0.4483403 0.4435027 0.7760775
vn 0.4484197 0.4472735 0.7738644
vn 0.7745436 0.4473736 0.4471456
vn 0.7744701 0.4475547 0.4470916
vn 0.8940664 0.4479344 -1.086357E-05
vn 0.7744735 0.4475478 -0.4470926
vn 0.7745765 0.4473736 -0.4470885
vn 0.4471968 0.4472737 -0.7745717
vn 0.4460414 0.4511595 -0.7729826
vn -0.0002265805 0.4584056 -0.8887431
vn -0.001202773 0.4582541 -0.8888204
vn -0.4460577 0.4510076 -0.7730619
vn -0.4459607 0.447273 -0.7752845
vn -0.7745436 0.4473736 -0.4471456
vn -0.7741822 0.4482626 -0.4468809
vn -0.8660258 0 0.4999993
vn -0.5000123 0 0.8660183
vn 0.5000123 0 0.8660183
vn 0.8660258 0 0.4999993
vn 0.8660258 0 -0.4999993
vn 0.5000123 0 -0.8660183
vn -0.5000123 0 -0.8660183
vn -0.8660258 0 -0.4999993
vn -0.7525302 0.6585578 -5.411593E-06
vn -0.6516833 0.6585777 0.3762768
vn -0.3762933 0.6584784 0.6517742
vn 2.553791E-06 0.6584562 0.7526191
vn 0.3762909 0.6584572 0.6517969
vn 0.651702 0.6585638 0.3762688
vn 0.7525302 0.6585578 5.411593E-06
vn 0.6516833 0.6585777 -0.3762768
vn 0.3762933 0.6584784 -0.6517742
vn -2.553791E-06 0.6584562 -0.7526191
vn -0.3762909 0.6584572 -0.6517969
vn -0.651702 0.6585638 -0.3762688
vn -0.289784 0.9539373 0.07764597
vn -0.2121362 0.9539374 0.2121362
vn -0.07764597 0.9539373 0.289784
vn 0.07764597 0.9539373 0.289784
vn 0.2121362 0.9539374 0.2121362
vn 0.289784 0.9539373 0.07764597
vn 0.289784 0.9539373 -0.07764597
vn 0.2121362 0.9539374 -0.2121362
vn 0.07764597 0.9539373 -0.289784
vn -0.07764597 0.9539373 -0.289784
vn -0.2121362 0.9539374 -0.2121362
vn -0.289784 0.9539373 -0.07764597
vn 0 0.8660343 0.4999846
vn 0 0.5000178 0.8660151
vn 0 -0.5000178 0.8660151
vn 0 -0.8660343 0.4999846
vn 0 -0.866034 -0.4999851
vn -1.889326E-07 -0.5000177 -0.8660153
vn 2.580909E-07 0.5000178 -0.8660151
vn 1.090816E-07 0.8660342 -0.4999849
vn -0.7066531 -0.7075601 -9.156454E-05
vn -0.6122128 -0.70726 0.3535232
vn -0.3535817 -0.7070581 0.6124123
vn -0.3536199 -0.708717 0.6104696
vn -0.001044305 -0.7125332 0.7016375
vn -0.000123157 -0.712681 0.7014883
vn 0.3535981 -0.7088641 0.6103114
vn 0.354574 -0.7070553 0.6118415
vn 0.6124141 -0.7070718 0.3535511
vn 0.6125062 -0.7069989 0.3535374
vn 0.7074623 -0.7067511 -6.149947E-05
vn 0.612523 -0.7069904 -0.3535255
vn 0.6124459 -0.707074 -0.3534916
vn 0.3535817 -0.7070581 -0.6124123
vn 0.3535694 -0.7053035 -0.6144394
vn -0.001060963 -0.7014021 -0.712765
vn -0.0001401239 -0.7012531 -0.7129124
vn -0.3536296 -0.7051539 -0.6145763
vn -0.3525893 -0.7070556 -0.6129871
vn -0.6124141 -0.7070718 -0.3535511
vn -0.4040469 0.9083353 0.1080418
vn -0.2957266 0.9083455 0.2957266
vn -0.1082584 0.9083596 0.4039344
vn 0.1082584 0.9083596 0.4039344
vn 0.2957266 0.9083455 0.2957266
vn 0.4040469 0.9083353 0.1080418
vn 0.4040469 0.9083353 -0.1080418
vn 0.2957266 0.9083455 -0.2957266
vn 0.1082584 0.9083596 -0.4039344
vn -0.1082584 0.9083596 -0.4039344
vn -0.2957266 0.9083455 -0.2957266
vn -0.4040469 0.9083353 -0.1080418
vn 0 0.1623048 -0.9867406
vn 0 0.3149672 -0.9491026
vn 0 -0.3208748 0.9471216
vn 0 -0.165701 0.9861761
vn 0 0.5820218 -0.8131732
vn 0 -0.5901533 0.8072912
vn 0 0.7785879 -0.6275355
vn 0 -0.7850474 0.6194357
vn 0 0.9067591 -0.4216491
vn 0 -0.9101421 0.4142964
vn 0 0.977518 -0.2108521
vn 0 -0.9784351 0.2065543
vn 0 0.977518 0.2108521
vn 0 -0.9784351 -0.2065543
vn 0 0.9067591 0.4216491
vn 0 -0.9101421 -0.4142964
vn 0 0.7785879 0.6275355
vn 0 -0.7850474 -0.6194357
vn 0 0.5820218 0.8131732
vn 0 -0.5901542 -0.8072906
vn 0 0.3149672 0.9491026
vn 0 -0.4678349 -0.8838159
vn 0 0.1623048 0.9867406
vn 0 -0.1657001 -0.9861762

usemtl Metal036MatBlack
f 3/3/1 4/4/1 2/2/1 1/1/1
f 435/498/1 436/499/1 434/497/1 433/496/1
f 439/502/1 440/503/1 438/501/1 437/500/1

usemtl Metal036MatRed
f 5/9/13 29/10/13 7/11/13
f 7/11/13 29/10/13 9/14/13
f 9/14/13 29/10/13 11/17/13
f 11/17/13 29/10/13 13/18/13
f 13/16/13 29/10/13 15/15/13
f 15/15/13 29/10/13 17/21/13
f 17/21/13 29/10/13 19/23/13
f 19/23/13 29/10/13 21/25/13
f 21/25/13 29/10/13 23/28/13
f 23/28/13 29/10/13 25/27/13
f 25/27/13 29/10/13 27/26/13
f 27/26/13 29/10/13 5/9/13
f 8/13/14 30/10/14 6/12/14
f 10/16/14 30/10/14 8/15/14
f 12/17/14 30/10/14 10/16/14
f 14/20/14 30/10/14 12/19/14
f 16/11/14 30/10/14 14/14/14
f 18/22/14 30/10/14 16/11/14
f 20/24/14 30/10/14 18/9/14
f 22/27/14 30/10/14 20/26/14
f 24/28/14 30/10/14 22/27/14
f 26/25/14 30/10/14 24/29/14
f 28/23/14 30/10/14 26/25/14
f 6/12/14 30/10/14 28/23/14
f 93/75/13 117/10/13 95/76/13
f 95/76/13 117/10/13 97/77/13
f 97/78/13 117/10/13 99/79/13
f 99/79/13 117/10/13 101/80/13
f 101/80/13 117/10/13 103/81/13
f 103/81/13 117/10/13 105/82/13
f 105/83/13 117/10/13 107/84/13
f 107/84/13 117/10/13 109/85/13
f 109/86/13 117/10/13 111/87/13
f 111/87/13 117/10/13 113/88/13
f 113/89/13 117/10/13 115/90/13
f 115/90/13 117/10/13 93/75/13
f 118/95/13 142/10/13 120/96/13
f 120/97/13 142/10/13 122/98/13
f 122/99/13 142/10/13 124/100/13
f 124/101/13 142/10/13 126/102/13
f 126/102/13 142/10/13 128/103/13
f 128/104/13 142/10/13 130/105/13
f 130/105/13 142/10/13 132/106/13
f 132/106/13 142/10/13 134/107/13
f 134/108/13 142/10/13 136/109/13
f 136/110/13 142/10/13 138/111/13
f 138/112/13 142/10/13 140/113/13
f 140/114/13 142/10/13 118/95/13
f 146/120/14 167/10/14 144/119/14
f 148/122/14 167/10/14 146/121/14
f 150/124/14 167/10/14 148/123/14
f 152/125/14 167/10/14 150/124/14
f 154/127/14 167/10/14 152/126/14
f 156/129/14 167/10/14 154/128/14
f 158/130/14 167/10/14 156/129/14
f 160/132/14 167/10/14 158/131/14
f 162/133/14 167/10/14 160/132/14
f 164/134/14 167/10/14 162/133/14
f 166/135/14 167/10/14 164/134/14
f 144/119/14 167/10/14 166/136/14
f 168/129/13 192/10/13 170/128/13
f 170/127/13 192/10/13 172/126/13
f 172/125/13 192/10/13 174/124/13
f 174/124/13 192/10/13 176/123/13
f 176/122/13 192/10/13 178/121/13
f 178/120/13 192/10/13 180/119/13
f 180/119/13 192/10/13 182/135/13
f 182/135/13 192/10/13 184/134/13
f 184/134/13 192/10/13 186/133/13
f 186/133/13 192/10/13 188/132/13
f 188/132/13 192/10/13 190/131/13
f 190/130/13 192/10/13 168/129/13
f 171/141/57 193/140/57 169/139/57
f 173/144/58 193/143/58 171/142/58
f 175/147/59 193/146/59 173/145/59
f 177/150/60 193/149/60 175/148/60
f 179/153/61 193/152/61 177/151/61
f 181/156/62 193/155/62 179/154/62
f 183/159/63 193/158/63 181/157/63
f 185/162/64 193/161/64 183/160/64
f 187/165/65 193/164/65 185/163/65
f 189/168/66 193/167/66 187/166/66
f 191/171/67 193/170/67 189/169/67
f 169/174/68 193/173/68 191/172/68
f 226/192/1 250/10/1 228/193/1
f 228/194/1 250/10/1 230/195/1
f 230/196/1 250/10/1 232/197/1
f 232/197/1 250/10/1 234/198/1
f 234/199/1 250/10/1 236/200/1
f 236/201/1 250/10/1 238/202/1
f 238/202/1 250/10/1 240/203/1
f 240/204/1 250/10/1 242/205/1
f 242/206/1 250/10/1 244/207/1
f 244/207/1 250/10/1 246/208/1
f 246/209/1 250/10/1 248/210/1
f 248/211/1 250/10/1 226/192/1
f 255/259/97 276/258/97 253/257/97
f 257/262/98 276/261/98 255/260/98
f 259/265/99 276/264/99 257/263/99
f 261/268/100 276/267/100 259/266/100
f 263/271/101 276/270/101 261/269/101
f 265/274/102 276/273/102 263/272/102
f 267/277/103 276/276/103 265/275/103
f 269/280/104 276/279/104 267/278/104
f 271/283/105 276/282/105 269/281/105
f 273/286/106 276/285/106 271/284/106
f 275/289/107 276/288/107 273/287/107
f 253/292/108 276/291/108 275/290/108
f 8/8/2 6/6/1 5/5/1
f 5/5/1 7/7/2 8/8/2
f 10/8/3 8/6/2 7/5/2
f 7/5/2 9/7/3 10/8/3
f 12/8/4 10/6/3 9/5/3
f 9/5/3 11/7/4 12/8/4
f 14/8/5 12/6/4 11/5/4
f 11/5/4 13/7/5 14/8/5
f 16/8/6 14/6/5 13/5/5
f 13/5/5 15/7/6 16/8/6
f 18/8/7 16/6/6 15/5/6
f 15/5/6 17/7/7 18/8/7
f 20/8/8 18/6/7 17/5/7
f 17/5/7 19/7/8 20/8/8
f 22/8/9 20/6/8 19/5/8
f 19/5/8 21/7/9 22/8/9
f 24/8/10 22/6/9 21/5/9
f 21/5/9 23/7/10 24/8/10
f 26/8/11 24/6/10 23/5/10
f 23/5/10 25/7/11 26/8/11
f 28/8/12 26/6/11 25/5/11
f 25/5/11 27/7/12 28/8/12
f 6/8/1 28/6/12 27/5/12
f 27/5/12 5/7/1 6/8/1
f 34/33/17 32/31/15 31/30/15
f 31/30/15 33/32/16 34/33/17
f 36/37/19 34/35/17 33/34/16
f 33/34/16 35/36/18 36/37/19
f 38/37/21 36/35/19 35/34/18
f 35/34/18 37/36/20 38/37/21
f 40/41/23 38/39/21 37/38/20
f 37/38/20 39/40/22 40/41/23
f 42/37/25 40/35/23 39/34/22
f 39/34/22 41/36/24 42/37/25
f 44/42/26 42/35/25 41/34/24
f 41/34/24 43/36/26 44/42/26
f 46/37/28 44/35/26 43/34/26
f 43/34/26 45/36/27 46/37/28
f 48/37/30 46/35/28 45/34/27
f 45/34/27 47/36/29 48/37/30
f 50/42/32 48/35/30 47/34/29
f 47/34/29 49/36/31 50/42/32
f 52/46/34 50/44/32 49/43/31
f 49/43/31 51/45/33 52/46/34
f 54/37/36 52/35/34 51/34/33
f 51/34/33 53/36/35 54/37/36
f 32/42/15 54/35/36 53/34/35
f 53/34/35 31/36/15 32/42/15
f 58/50/37 56/48/1 55/47/1
f 55/47/1 57/49/37 58/50/37
f 60/50/38 58/48/37 57/47/37
f 57/47/37 59/49/38 60/50/38
f 62/50/4 60/48/38 59/47/38
f 59/47/38 61/49/4 62/50/4
f 64/50/39 62/48/4 61/47/4
f 61/47/4 63/49/39 64/50/39
f 66/50/40 64/48/39 63/47/39
f 63/47/39 65/49/40 66/50/40
f 68/50/7 66/48/40 65/47/40
f 65/47/40 67/49/7 68/50/7
f 70/50/41 68/48/7 67/47/7
f 67/47/7 69/49/41 70/50/41
f 72/50/42 70/48/41 69/47/41
f 69/47/41 71/49/42 72/50/42
f 74/50/10 72/48/42 71/47/42
f 71/47/42 73/49/10 74/50/10
f 76/50/43 74/48/10 73/47/10
f 73/47/10 75/49/43 76/50/43
f 78/50/44 76/48/43 75/47/43
f 75/47/43 77/49/44 78/50/44
f 56/50/1 78/48/44 77/47/44
f 77/47/44 55/49/1 56/50/1
f 81/54/37 80/52/1 79/51/1
f 79/51/1 34/53/37 81/54/37
f 82/54/3 81/52/37 34/51/37
f 34/51/37 36/53/3 82/54/3
f 83/54/4 82/52/3 36/51/3
f 36/51/3 38/53/4 83/54/4
f 84/54/5 83/52/4 38/51/4
f 38/51/4 40/53/5 84/54/5
f 85/54/40 84/52/5 40/51/5
f 40/51/5 42/53/40 85/54/40
f 86/54/7 85/52/40 42/51/40
f 42/51/40 44/53/7 86/54/7
f 87/54/41 86/52/7 44/51/7
f 44/51/7 46/53/41 87/54/41
f 88/54/9 87/52/41 46/51/41
f 46/51/41 48/53/9 88/54/9
f 90/54/10 88/52/9 48/51/9
f 48/51/9 89/53/10 90/54/10
f 91/54/11 90/52/10 89/51/10
f 89/51/10 52/53/11 91/54/11
f 92/54/44 91/52/11 52/51/11
f 52/51/11 54/53/44 92/54/44
f 80/54/1 92/52/44 54/51/44
f 54/51/44 79/53/1 80/54/1
f 96/58/46 94/56/45 93/55/45
f 93/55/45 95/57/46 96/58/46
f 98/62/47 96/60/46 95/59/46
f 95/59/46 97/61/47 98/62/47
f 100/58/48 98/56/47 97/55/47
f 97/55/47 99/57/48 100/58/48
f 102/58/49 100/56/48 99/55/48
f 99/55/48 101/57/49 102/58/49
f 104/66/50 102/64/49 101/63/49
f 101/63/49 103/65/50 104/66/50
f 106/58/51 104/56/50 103/55/50
f 103/55/50 105/57/51 106/58/51
f 108/58/52 106/56/51 105/55/51
f 105/55/51 107/57/52 108/58/52
f 110/70/53 108/68/52 107/67/52
f 107/67/52 109/69/53 110/70/53
f 112/58/54 110/56/53 109/55/53
f 109/55/53 111/57/54 112/58/54
f 114/58/55 112/56/54 111/55/54
f 111/55/54 113/57/55 114/58/55
f 116/74/56 114/72/55 113/71/55
f 113/71/55 115/73/56 116/74/56
f 94/58/45 116/56/56 115/55/56
f 115/55/56 93/57/45 94/58/45
f 121/94/37 119/92/1 118/91/1
f 118/91/1 120/93/37 121/94/37
f 123/94/38 121/92/37 120/91/37
f 120/91/37 122/93/38 123/94/38
f 125/94/4 123/92/38 122/91/38
f 122/91/38 124/93/4 125/94/4
f 127/94/39 125/92/4 124/91/4
f 124/91/4 126/93/39 127/94/39
f 129/94/40 127/92/39 126/91/39
f 126/91/39 128/93/40 129/94/40
f 131/94/7 129/92/40 128/91/40
f 128/91/40 130/93/7 131/94/7
f 133/94/41 131/92/7 130/91/7
f 130/91/7 132/93/41 133/94/41
f 135/94/42 133/92/41 132/91/41
f 132/91/41 134/93/42 135/94/42
f 137/94/10 135/92/42 134/91/42
f 134/91/42 136/93/10 137/94/10
f 139/94/43 137/92/10 136/91/10
f 136/91/10 138/93/43 139/94/43
f 141/94/44 139/92/43 138/91/43
f 138/91/43 140/93/44 141/94/44
f 119/94/1 141/92/44 140/91/44
f 140/91/44 118/93/1 119/94/1
f 146/118/37 144/116/1 143/115/1
f 143/115/1 145/117/37 146/118/37
f 148/118/3 146/116/37 145/115/37
f 145/115/37 147/117/3 148/118/3
f 150/118/4 148/116/3 147/115/3
f 147/115/3 149/117/4 150/118/4
f 152/118/5 150/116/4 149/115/4
f 149/115/4 151/117/5 152/118/5
f 154/118/40 152/116/5 151/115/5
f 151/115/5 153/117/40 154/118/40
f 156/118/7 154/116/40 153/115/40
f 153/115/40 155/117/7 156/118/7
f 158/118/41 156/116/7 155/115/7
f 155/115/7 157/117/41 158/118/41
f 160/118/9 158/116/41 157/115/41
f 157/115/41 159/117/9 160/118/9
f 162/118/10 160/116/9 159/115/9
f 159/115/9 161/117/10 162/118/10
f 164/118/11 162/116/10 161/115/10
f 161/115/10 163/117/11 164/118/11
f 166/118/44 164/116/11 163/115/11
f 163/115/11 165/117/44 166/118/44
f 144/118/1 166/116/44 165/115/44
f 165/115/44 143/117/1 144/118/1
f 171/138/37 169/137/1 168/115/1
f 168/115/1 170/117/37 171/138/37
f 173/138/3 171/137/37 170/115/37
f 170/115/37 172/117/3 173/138/3
f 175/138/4 173/137/3 172/115/3
f 172/115/3 174/117/4 175/138/4
f 177/138/5 175/137/4 174/115/4
f 174/115/4 176/117/5 177/138/5
f 179/138/40 177/137/5 176/115/5
f 176/115/5 178/117/40 179/138/40
f 181/138/7 179/137/40 178/115/40
f 178/115/40 180/117/7 181/138/7
f 183/138/41 181/137/7 180/115/7
f 180/115/7 182/117/41 183/138/41
f 185/138/9 183/137/41 182/115/41
f 182/115/41 184/117/9 185/138/9
f 187/138/10 185/137/9 184/115/9
f 184/115/9 186/117/10 187/138/10
f 189/138/11 187/137/10 186/115/10
f 186/115/10 188/117/11 189/138/11
f 191/138/44 189/137/11 188/115/11
f 188/115/11 190/117/44 191/138/44
f 169/138/1 191/137/44 190/115/44
f 190/115/44 168/117/1 169/138/1
f 197/178/2 195/176/1 194/175/1
f 194/175/1 196/177/2 197/178/2
f 199/178/3 197/176/2 196/175/2
f 196/175/2 198/177/3 199/178/3
f 201/178/4 199/176/3 198/175/3
f 198/175/3 200/177/4 201/178/4
f 203/178/5 201/176/4 200/175/4
f 200/175/4 202/177/5 203/178/5
f 205/178/6 203/176/5 202/175/5
f 202/175/5 204/177/6 205/178/6
f 207/178/7 205/176/6 204/175/6
f 204/175/6 206/177/7 207/178/7
f 209/178/8 207/176/7 206/175/7
f 206/175/7 208/177/8 209/178/8
f 211/178/9 209/176/8 208/175/8
f 208/175/8 210/177/9 211/178/9
f 213/178/10 211/176/9 210/175/9
f 210/175/9 212/177/10 213/178/10
f 215/178/11 213/176/10 212/175/10
f 212/175/10 214/177/11 215/178/11
f 217/178/12 215/176/11 214/175/11
f 214/175/11 216/177/12 217/178/12
f 195/178/1 217/176/12 216/175/12
f 216/175/12 194/177/1 195/178/1
f 221/182/4 219/180/4 218/179/4
f 218/179/4 220/181/4 221/182/4
f 223/182/1 222/180/1 219/179/1
f 219/179/1 221/181/1 223/182/1
f 225/182/10 224/180/10 222/179/10
f 222/179/10 223/181/10 225/182/10
f 223/184/14 221/181/14 220/182/14
f 220/182/14 225/183/14 223/184/14
f 219/182/13 222/183/13 224/184/13
f 224/184/13 218/181/13 219/182/13
f 229/188/69 227/186/14 226/185/14
f 226/185/14 228/187/69 229/188/69
f 231/188/70 229/186/69 228/189/69
f 228/189/69 230/190/70 231/188/70
f 233/188/4 231/186/70 230/185/70
f 230/185/70 232/187/4 233/188/4
f 235/188/71 233/186/4 232/189/4
f 232/189/4 234/190/71 235/188/71
f 237/188/72 235/186/71 234/189/71
f 234/189/71 236/190/72 237/188/72
f 239/188/13 237/186/72 236/185/72
f 236/185/72 238/187/13 239/188/13
f 241/188/73 239/186/13 238/185/13
f 238/185/13 240/187/73 241/188/73
f 243/188/74 241/186/73 240/189/73
f 240/189/73 242/190/74 243/188/74
f 245/191/10 243/186/74 242/185/74
f 242/185/74 244/187/10 245/191/10
f 247/188/75 245/186/10 244/185/10
f 244/185/10 246/187/75 247/188/75
f 249/188/76 247/186/75 246/185/75
f 246/185/75 248/187/76 249/188/76
f 227/188/14 249/186/76 248/185/76
f 248/185/76 226/187/14 227/188/14
f 145/215/78 143/213/77 119/212/77
f 119/212/77 121/214/78 145/215/78
f 147/219/80 145/217/78 121/216/78
f 121/216/78 123/218/79 147/219/80
f 149/223/82 147/221/80 123/220/79
f 123/220/79 125/222/81 149/223/82
f 151/227/84 149/225/82 125/224/81
f 125/224/81 127/226/83 151/227/84
f 153/231/86 151/229/84 127/228/83
f 127/228/83 129/230/85 153/231/86
f 155/235/87 153/233/86 129/232/85
f 129/232/85 131/234/87 155/235/87
f 157/236/89 155/221/87 131/220/87
f 131/220/87 133/222/88 157/236/89
f 159/240/91 157/238/89 133/237/88
f 133/237/88 135/239/90 159/240/91
f 251/236/93 159/221/91 135/220/90
f 135/220/90 137/222/92 251/236/93
f 163/244/95 251/242/93 137/241/92
f 137/241/92 139/243/94 163/244/95
f 165/248/96 163/246/95 139/245/94
f 139/245/94 141/247/96 165/248/96
f 143/252/77 165/250/96 141/249/96
f 141/249/96 119/251/77 143/252/77
f 255/256/37 253/254/1 252/253/1
f 252/253/1 254/255/37 255/256/37
f 257/256/38 255/254/37 254/253/37
f 254/253/37 256/255/38 257/256/38
f 259/256/4 257/254/38 256/253/38
f 256/253/38 258/255/4 259/256/4
f 261/256/39 259/254/4 258/253/4
f 258/253/4 260/255/39 261/256/39
f 263/256/40 261/254/39 260/253/39
f 260/253/39 262/255/40 263/256/40
f 265/256/7 263/254/40 262/253/40
f 262/253/40 264/255/7 265/256/7
f 267/256/41 265/254/7 264/253/7
f 264/253/7 266/255/41 267/256/41
f 269/256/42 267/254/41 266/253/41
f 266/253/41 268/255/42 269/256/42
f 271/256/10 269/254/42 268/253/42
f 268/253/42 270/255/10 271/256/10
f 273/256/43 271/254/10 270/253/10
f 270/253/10 272/255/43 273/256/43
f 275/256/44 273/254/43 272/253/43
f 272/253/43 274/255/44 275/256/44
f 253/256/1 275/254/44 274/253/44
f 274/253/44 252/255/1 253/256/1
f 280/296/13 278/294/13 277/293/13
f 277/293/13 279/295/13 280/296/13
f 282/300/110 281/298/110 279/297/109
f 279/297/109 277/299/109 282/300/110
f 278/304/112 280/302/112 283/301/111
f 283/301/111 284/303/111 278/304/112
f 286/308/113 285/306/113 281/305/110
f 281/305/110 282/307/110 286/308/113
f 284/312/111 283/310/111 287/309/114
f 287/309/114 288/311/114 284/312/111
f 290/316/115 289/314/115 285/313/113
f 285/313/113 286/315/113 290/316/115
f 288/320/114 287/318/114 291/317/116
f 291/317/116 292/319/116 288/320/114
f 294/324/117 293/322/117 289/321/115
f 289/321/115 290/323/115 294/324/117
f 292/328/116 291/326/116 295/325/118
f 295/325/118 296/327/118 292/328/116
f 298/332/119 297/330/119 293/329/117
f 293/329/117 294/331/117 298/332/119
f 296/336/118 295/334/118 299/333/120
f 299/333/120 300/335/120 296/336/118
f 302/340/14 301/338/14 297/337/119
f 297/337/119 298/339/119 302/340/14
f 300/344/120 299/342/120 303/341/13
f 303/341/13 304/343/13 300/344/120
f 306/348/121 305/346/121 301/345/14
f 301/345/14 302/347/14 306/348/121
f 304/352/13 303/350/13 307/349/122
f 307/349/122 308/351/122 304/352/13
f 310/356/123 309/354/123 305/353/121
f 305/353/121 306/355/121 310/356/123
f 308/360/122 307/358/122 311/357/124
f 311/357/124 312/359/124 308/360/122
f 314/364/125 313/362/125 309/361/123
f 309/361/123 310/363/123 314/364/125
f 312/368/124 311/366/124 315/365/126
f 315/365/126 316/367/126 312/368/124
f 318/372/127 317/370/127 313/369/125
f 313/369/125 314/371/125 318/372/127
f 316/376/126 315/374/126 319/373/128
f 319/373/128 320/375/128 316/376/126
f 322/380/129 321/378/129 317/377/127
f 317/377/127 318/379/127 322/380/129
f 320/384/128 319/382/128 323/381/130
f 323/381/130 324/383/130 320/384/128
f 326/388/131 325/386/131 321/385/129
f 321/385/129 322/387/129 326/388/131
f 324/392/132 323/390/132 327/389/132
f 327/389/132 328/391/132 324/392/132
f 325/396/13 326/394/13 328/393/13
f 328/393/13 327/395/13 325/396/13
f 284/400/1 282/398/1 277/397/1
f 277/397/1 278/399/1 284/400/1
f 288/402/1 286/401/1 282/398/1
f 282/398/1 284/400/1 288/402/1
f 292/404/1 290/403/1 286/401/1
f 286/401/1 288/402/1 292/404/1
f 296/406/1 294/405/1 290/403/1
f 290/403/1 292/404/1 296/406/1
f 300/409/1 298/407/1 294/405/1
f 294/405/1 296/408/1 300/409/1
f 304/411/1 302/410/1 298/407/1
f 298/407/1 300/409/1 304/411/1
f 308/414/1 306/412/1 302/410/1
f 302/410/1 304/413/1 308/414/1
f 312/416/1 310/415/1 306/412/1
f 306/412/1 308/414/1 312/416/1
f 316/419/1 314/418/1 310/417/1
f 310/417/1 312/416/1 316/419/1
f 320/421/1 318/420/1 314/418/1
f 314/418/1 316/419/1 320/421/1
f 324/423/1 322/422/1 318/420/1
f 318/420/1 320/421/1 324/423/1
f 328/425/1 326/424/1 322/422/1
f 322/422/1 324/423/1 328/425/1
f 412/483/4 410/481/4 409/480/4
f 409/480/4 411/482/4 412/483/4
f 414/487/1 413/485/1 410/484/1
f 410/484/1 412/486/1 414/487/1
f 223/483/10 222/481/10 413/480/10
f 413/480/10 414/482/10 223/483/10
f 414/438/14 412/440/14 411/441/14
f 411/441/14 223/439/14 414/438/14
f 410/441/13 413/439/13 222/438/13
f 222/438/13 409/440/13 410/441/13
f 416/483/4 415/481/4 219/480/4
f 219/480/4 221/482/4 416/483/4
f 418/487/1 417/485/1 415/484/1
f 415/484/1 416/486/1 418/487/1
f 420/483/10 419/481/10 417/480/10
f 417/480/10 418/482/10 420/483/10
f 418/438/14 416/440/14 221/441/14
f 221/441/14 420/439/14 418/438/14
f 415/441/13 417/439/13 419/438/13
f 419/438/13 219/440/13 415/441/13
f 412/491/1 422/489/1 421/488/1
f 421/488/1 423/490/1 412/491/1
f 412/495/14 423/493/14 424/492/14
f 424/492/14 411/494/14 412/495/14
f 421/492/13 422/494/13 425/495/13
f 425/495/13 426/493/13 421/492/13
f 429/491/1 410/489/1 427/488/1
f 427/488/1 428/490/1 429/491/1
f 429/495/14 428/493/14 430/492/14
f 430/492/14 431/494/14 429/495/14
f 427/492/13 410/494/13 409/495/13
f 409/495/13 432/493/13 427/492/13

usemtl Metal036Mat
f 331/428/4 332/429/4 330/427/4 329/426/4
f 332/432/1 334/433/1 333/431/1 330/430/1
f 334/428/10 336/429/10 335/427/10 333/426/10
f 336/436/14 334/437/14 332/435/14 331/434/14
f 329/435/13 330/434/13 333/436/13 335/437/13
f 339/428/4 340/429/4 338/427/4 337/426/4
f 340/440/1 333/441/1 341/439/1 338/438/1
f 333/428/10 335/429/10 342/427/10 341/426/10
f 345/428/4 346/429/4 344/427/4 343/426/4
f 346/432/1 341/433/1 347/431/1 344/430/1
f 341/428/10 342/429/10 348/427/10 347/426/10
f 342/436/14 341/437/14 346/435/14 345/434/14
f 343/435/13 344/434/13 347/436/13 348/437/13
f 329/428/4 330/429/4 346/427/4 345/426/4
f 330/440/1 350/441/1 349/439/1 346/438/1
f 350/428/10 352/429/10 351/427/10 349/426/10
f 355/428/4 356/429/4 354/427/4 353/426/4
f 356/444/1 358/445/1 357/443/1 354/442/1
f 358/428/10 360/429/10 359/427/10 357/426/10
f 360/448/14 358/449/14 356/447/14 355/446/14
f 353/447/13 354/446/13 357/448/13 359/449/13
f 353/452/4 354/453/4 362/451/4 361/450/4
f 354/456/1 364/457/1 363/455/1 362/454/1
f 364/452/10 366/453/10 365/451/10 363/450/10
f 361/428/4 362/429/4 368/427/4 367/426/4
f 362/444/1 370/445/1 369/443/1 368/442/1
f 370/428/10 372/429/10 371/427/10 369/426/10
f 372/448/14 370/449/14 362/447/14 361/446/14
f 367/447/13 368/446/13 369/448/13 371/449/13
f 375/452/4 376/453/4 374/451/4 373/450/4
f 376/456/1 357/457/1 370/455/1 374/454/1
f 357/452/10 359/453/10 372/451/10 370/450/10
f 379/460/4 380/461/4 378/459/4 377/458/4
f 380/464/1 382/465/1 381/463/1 378/462/1
f 382/460/10 384/461/10 383/459/10 381/458/10
f 384/427/14 382/426/14 380/467/14 379/466/14
f 377/467/13 378/466/13 381/427/13 383/426/13
f 386/440/1 387/441/1 378/439/1 385/438/1
f 389/468/14 387/469/14 386/467/14 388/466/14
f 390/467/13 385/466/13 378/468/13 377/469/13
f 393/460/4 394/461/4 392/459/4 391/458/4
f 394/464/1 395/471/1 385/470/1 392/462/1
f 395/460/10 396/461/10 390/459/10 385/458/10
f 396/468/14 395/469/14 394/467/14 393/466/14
f 391/467/13 392/466/13 385/468/13 390/469/13
f 395/440/1 380/441/1 398/439/1 397/438/1
f 379/468/14 380/469/14 395/467/14 396/466/14
f 400/467/13 397/466/13 398/468/13 399/469/13

usemtl YuubinPostTextsETCMat
f 403/474/1 404/475/1 402/473/1 401/472/1
f 407/478/1 408/479/1 406/477/1 405/476/1

