# ProBuilder 5.0.6
# https://unity3d.com/unity/features/worldbuilding/probuilder
# 2024-01-28 오후 11:36:13

mtllib ./YuubinPost01.mtl
o YuubinPost01

g YuubinPost01
v 0.02954633 0.09 0.007212086
v 0.02954633 -0.09 0.007212086
v -0.03028829 0.09 0.002760351
v -0.03028829 -0.09 0.002760351
v 0.03028829 -0.09 -0.002760351
v 0.03028829 0.09 -0.002760351
v -0.02954633 -0.09 -0.007212086
v -0.02954633 0.09 -0.007212086
v 0.5061435 -0.9714186 0.4171492
v 0.5061436 -0.4714186 0.4171492
v 0.6475286 -0.9714186 0.3876915
v 0.6475286 -0.4714186 0.3876915
v 0.7060266 -0.9714186 0.3169157
v 0.7060266 -0.4714187 0.3169157
v 0.6473677 -0.9714186 0.2462732
v 0.6473678 -0.4714187 0.2462731
v 0.505916 -0.9714186 0.2171371
v 0.505916 -0.4714187 0.2171371
v 0.3645309 -0.9714187 0.2465949
v 0.364531 -0.4714187 0.2465948
v 0.3060329 -0.9714187 0.3173707
v 0.3060329 -0.4714187 0.3173707
v 0.3646918 -0.9714187 0.3880132
v 0.3646919 -0.4714186 0.3880132
v 0.5060298 -0.9714186 0.3171432
v 1.003381 -0.4714189 -0.08022776
v 1.03418 -0.4714189 0.3147418
v 1.004279 -0.4714189 0.7097803
v 1.004279 -0.02141887 0.7097803
v 1.004279 0.4285811 0.7097803
v 1.03418 0.4285811 0.3147418
v 1.03418 -0.0214189 0.3147418
v 1.003381 0.4285811 -0.08022776
v 1.003381 -0.02141894 -0.08022776
v 0.9542765 -0.4714189 0.7098373
v 0.9542765 0.4285811 0.7098373
v 0.9533779 -0.4714189 -0.08017083
v 0.9533779 0.4285811 -0.08017083
v 0.05428302 -0.4714189 0.710861
v 0.004279989 -0.4714189 0.7109179
v 0.004280004 -0.02141893 0.7109179
v 0.004280023 0.4285811 0.7109179
v 0.05428305 0.4285811 0.710861
v -0.02600783 -0.4714189 0.3159478
v 0.003381427 -0.471419 -0.07909018
v 0.003381416 -0.021419 -0.07909021
v 0.003381431 0.428581 -0.07909023
v -0.02600783 0.428581 0.3159478
v -0.02600784 -0.02141896 0.3159478
v 0.05338446 -0.471419 -0.07914706
v 0.05338446 0.428581 -0.07914712
v 1.003375 0.4285811 -0.08521737
v 1.030815 0.4285811 0.3147456
v 1.004285 0.4285811 0.71477
v 1.004285 0.4785811 0.71477
v 1.004285 0.528581 0.71477
v 1.030815 0.5638512 0.3147456
v 1.030815 0.478581 0.3147456
v 1.003375 0.528581 -0.08521736
v 1.003375 0.478581 -0.08521737
v 0.004285699 0.4285811 0.7159075
v 0.004285699 0.478581 0.7159075
v 0.004285729 0.528581 0.7159075
v 0.5042855 0.528581 0.7153387
v -0.02442093 0.428581 0.315946
v 0.003375727 0.428581 -0.08407985
v 0.003375727 0.478581 -0.08407986
v 0.003375787 0.5285809 -0.08407985
v -0.02442093 0.5638511 0.315946
v -0.02442093 0.478581 0.315946
v 0.5033755 0.528581 -0.08464862
v 0.5038304 0.5638512 0.315345
v 0.9534859 -0.4714189 0.01481507
v 0.9542821 -0.4714189 0.7148269
v 0.9534859 -0.02141899 0.01481507
v 0.9542822 -0.02141893 0.7148269
v 0.05428869 -0.4714189 0.7158507
v 0.05428871 -0.02141898 0.7158507
v 0.05349249 -0.471419 0.01583885
v 0.05349249 -0.02141904 0.01583882
v 0.9941785 0.4385811 0.6227863
v 0.9942923 0.4385811 0.7227923
v 0.9942923 0.4785811 0.7227923
v 0.9942923 0.518581 0.7227923
v 0.9941785 0.518581 0.6227863
v 0.5043152 0.4385811 0.7414465
v 0.01429694 0.438581 0.7239069
v 0.01429694 0.478581 0.7239069
v 0.01429694 0.518581 0.7239069
v 0.5043151 0.518581 0.7414464
v 0.5043152 0.478581 0.7414465
v 0.0141832 0.438581 0.6239009
v 0.0141832 0.518581 0.6239009
v 0.9442876 -0.03000737 0.7148383
v 0.5142952 -0.03000739 0.7153274
v 0.9441097 0.3053266 0.5584663
v 0.5141174 0.3053266 0.5589554
v 0.9440067 0.2630647 0.4678291
v 0.5140142 0.2630647 0.4683182
v 0.4943062 -0.01141897 0.7153502
v 0.06431372 -0.01141899 0.7158393
v 0.4939604 0.292637 0.4113036
v 0.06396788 0.2926369 0.4117928
v 0.4938799 0.2219263 0.3405945
v 0.06388746 0.2219262 0.3410836
v 0.5043007 -0.02141896 0.7153388
v 0.4946449 -0.02141896 0.7179437
v 0.5043008 0.4285811 0.7153388
v 0.4946449 0.4285811 0.7179437
v 0.3975087 -0.02141899 0.3570005
v 0.3975088 0.4285811 0.3570004
v 0.4071646 0.4285811 0.3543954
v 0.5139941 -0.02141896 0.450618
v 0.5142952 -0.02141896 0.7153274
v 0.5139941 0.4285811 0.450618
v 0.5142952 0.4285811 0.7153274
v 0.9533722 -0.4714189 -0.08516044
v 0.9533722 0.4285811 -0.08516044
v 0.953486 0.4285811 0.01484562
v 0.05337875 -0.471419 -0.08413668
v 0.05349252 0.428581 0.01586931
v 0.05337876 0.428581 -0.08413673
v 0.1688042 -0.02141901 0.3252172
v 0.06395048 -0.02141898 0.7184337
v 0.1688042 0.428581 0.3252171
v 0.06395046 0.4285811 0.7184336
v 0.05428873 0.4285811 0.7158506
v 0.05820866 -0.02141898 0.7010604
v 0.05820866 0.4285811 0.7010604
v 0.4943062 -0.02141896 0.7153502
v 0.06431372 -0.02141898 0.7158393
v 0.4943062 0.4185811 0.7153502
v 0.06431374 0.4185811 0.7158392
v 0.4943062 0.4285811 0.7153502
v 0.06431374 0.4285811 0.7158392
v 0.0638395 0.418581 0.2989236
v 0.4938319 0.4185811 0.2984345
v 0.954194 -0.02141893 0.6373276
v 0.954194 0.4285811 0.6373276
v 0.9542822 0.4285811 0.7148269
v 0.9442876 -0.02141893 0.7148383
v 0.9442877 0.4285811 0.7148383
v 0.9438866 -0.02141896 0.3622689
v 0.9438866 0.4285811 0.3622689
v 0.9442876 -0.01141894 0.7148383
v 0.5142952 -0.01141897 0.7153274
v 0.9441726 -0.01141894 0.6137183
v 0.5141801 -0.01141897 0.6142074
v 0.9442877 0.4185811 0.7148383
v 0.5142952 0.4185811 0.7153274
v 0.5139022 0.4185811 0.3699144
v 0.9438947 0.4185811 0.3694254
v 0.9440609 0.2214847 0.5155282
v 0.5140685 0.2214846 0.5160173
v 0.944102 0.4300443 0.5516762
v 0.5141096 0.4300443 0.5521653
v 0.4202025 0.2302385 0.3805953
v 0.1345886 0.2302414 0.3809049
v 0.4202412 0.426037 0.4145918
v 0.1346273 0.4260399 0.4149014
v 0.3955525 -0.3409999 0.7164544
v 0.3955525 -0.04099993 0.7164544
v 0.6455524 -0.3409999 0.71617
v 0.6455524 -0.04099991 0.71617
v 0.494307 -0.01071182 0.716052
v 0.4939611 0.2933441 0.4120056
v 0.06431453 -0.01071185 0.7165411
v 0.06396868 0.2933441 0.4124947
v -0.02477693 0.09000004 0.06332168
v -0.02477693 -0.09000003 0.06332169
v -0.0347494 0.09000004 0.06258535
v -0.0347494 -0.09000003 0.06258535
v -0.03029322 -0.08999997 0.00275053
v -0.02032075 0.09000003 0.003486857
v -0.02032075 -0.09000003 0.003486868
v 0.02508543 -0.09000003 0.06703389
v 0.02508543 -0.1 0.06703389
v -0.0347494 -0.1 0.06258535
v 0.03028558 -0.1 -0.002765767
v -0.02954924 -0.1 -0.007214311
v 0.02508543 0.1 0.06703389
v 0.02508543 0.09000004 0.06703389
v -0.0347494 0.1 0.06258534
v 0.03028558 0.1 -0.002765782
v -0.02954925 0.1 -0.007214326

vt 0.09 -0.03
vt -0.09 -0.03
vt 0.09 0.03
vt -0.09 0.03
vt -0.09 0.005
vt 0.09 0.005
vt -0.09 -0.005
vt 0.09 -0.005
vt -0.0202803 -0.25
vt -0.02028024 0.25
vt 0.1241422 -0.25
vt 0.1241422 0.25
vt 0.03576738 -0.25
vt 0.03576744 0.25
vt 0.1275904 -0.25
vt 0.1275904 0.25
vt -0.1275904 -0.2500001
vt -0.1275903 0.2499999
vt -0.03576744 -0.2500001
vt -0.03576744 0.2499999
vt -0.1241422 -0.25
vt -0.1241422 0.25
vt 0.0202803 -0.25
vt 0.02028042 0.25
vt 0.1241422 -0.25
vt 0.03576744 -0.2499999
vt 0.1275904 -0.2499999
vt 0.1275904 0.25
vt -0.03576744 -0.2499999
vt -0.03576744 0.25
vt 0.02028024 -0.2499999
vt -0.09477177 0.001501918
vt 0.005228311 0.001501262
vt -0.06547734 0.142923
vt -0.07622272 0.1436751
vt -0.005512208 0.002254486
vt -0.005512059 0.2022545
vt 0.002400964 0.1975105
vt 0.002400652 -0.002489507
vt 0.07311141 0.138931
vt 0.07581481 0.1444779
vt 0.00511086 0.003057539
vt 0.1051109 0.003057063
vt 0.09477164 -0.001501918
vt -0.005228415 -0.001501262
vt 0.06547742 -0.1429229
vt 0.0762227 -0.1436751
vt 0.005512223 -0.002254456
vt 0.005512059 -0.2022544
vt -0.002400964 -0.1975105
vt -0.002400696 0.002489507
vt -0.07311139 -0.1389311
vt -0.07581496 -0.1444778
vt -0.0051108 -0.003057569
vt -0.1051109 -0.003057003
vt 0.3919238 -0.45
vt -0.004240617 -0.45
vt 1.490116E-08 -0.45
vt -0.3961644 -0.45
vt -0.3961644 2.980232E-08
vt -0.3961644 0.45
vt 1.490116E-08 0.45
vt 1.490116E-08 -2.980232E-08
vt -0.004240617 0.45
vt 0.3919238 0.45
vt 0.3919238 -2.980232E-08
vt -0.004240617 1.490116E-08
vt 0.02499997 -0.4499999
vt -0.02499998 -0.4499999
vt -0.02499997 0.45
vt 0.02499998 0.45
vt 0.02499998 0
vt 0.02500582 -0.45
vt -0.02500009 -0.4500003
vt -0.02500302 -1.788139E-07
vt -0.02500595 0.45
vt 0.02499997 0.4500003
vt -0.395019 0.03992409
vt -1.913309E-05 0.07027298
vt 0.3949808 0.03992319
vt 0.3949808 -0.01007915
vt -0.395019 -0.01007831
vt 0.3950188 -0.0100795
vt -0.3949809 -0.01007724
vt -0.3949805 0.03992426
vt 0.3950192 0.039922
vt -0.02500001 -0.45
vt -0.02499999 1.490116E-08
vt 0.02500001 0.45
vt 0.3962744 -0.4499982
vt 8.642673E-07 -0.4505593
vt 0.001274526 -0.4499982
vt -0.3949991 -0.4505594
vt -0.3956369 -0.0002806187
vt -0.3962746 0.4499982
vt -8.791685E-07 0.4505594
vt 0.0006368607 0.0002806038
vt -0.001274422 0.4499981
vt 0.3949991 0.4505594
vt 0.3956369 0.0002805591
vt -0.0006367862 -0.0002805591
vt 0.02500002 -3.72529E-09
vt -0.3949997 0.01008282
vt 0.395 0.01007996
vt 0.3949998 -0.03992292
vt -2.682209E-07 -0.06975993
vt -0.395 -0.03992005
vt 0.395 0.0100805
vt 0.4 -0.04999997
vt 0 -0.04999994
vt 5.960464E-08 -0.05000001
vt -0.4 -0.04999998
vt -0.4 -2.980232E-08
vt -0.4 0.04999992
vt 5.960464E-08 0.08527011
vt 0.4 0.04999985
vt 0.4 -4.470348E-08
vt 0.5 -0.04999995
vt -0.5 -0.05000001
vt -0.5 0
vt -0.5 0.04999992
vt 0 0.04999998
vt 0.5 0.04999998
vt 0.5 0
vt 0.3999999 -0.0500432
vt -0.4 -0.05004317
vt 0.5 -0.05000001
vt -0.5 -0.04999995
vt -0.5 0.0500001
vt 0 0.05000007
vt 0.4999999 0.04999992
vt -0.4020749 0.4859201
vt -0.00181222 0.5129956
vt -0.001934931 -0.01392221
vt -0.4021913 -0.01401603
vt 0.002042532 0.5401001
vt 0.4020743 0.513337
vt 0.4020747 0.01344329
vt 0.4020751 -0.4864504
vt 0.002043366 -0.5149123
vt 0.002042949 0.01322705
vt -0.002057925 -0.5421063
vt -0.4023078 -0.5139521
vt 0.3999991 -0.5006334
vt -4.470348E-07 -0.5288855
vt -0.3999999 -0.5006343
vt -0.3999991 0.4993668
vt 5.066395E-07 0.5263524
vt 0.3999999 0.4993677
vt 0.35 -0.225
vt -0.3500001 -0.2249999
vt 0.35 0.225
vt -0.3500001 0.225
vt 0.4499999 -0.225
vt -0.45 -0.225
vt 0.45 0.225
vt -0.45 0.225
vt 0.35 -0.225
vt -0.35 -0.225
vt 0.35 0.225
vt -0.35 0.225
vt -0.3500001 0.4499989
vt 0.3500018 0.4499999
vt -0.3500018 -0.4499999
vt 0.3500001 -0.449999
vt 0.04999998 -0.04000002
vt -0.04999995 -0.04000002
vt -0.04999995 0
vt -0.04999995 0.04000002
vt 0.04999998 0.04000002
vt 0.4900001 -0.0399999
vt 5.960464E-08 -0.03999996
vt -0.49 -0.04000002
vt -0.49 -2.980232E-08
vt -0.49 0.0399999
vt -1.192093E-07 0.03999996
vt 0.4900001 0.04000002
vt 0.4900001 0
vt 0.05000001 -0.04000002
vt -0.04999998 -0.03999996
vt 0.05000001 0.04000002
vt 0.05000001 0
vt -0.04095 0.4900001
vt 0.05905604 0.4899995
vt 0.07714981 -4.172325E-07
vt 0.05905002 -0.4900001
vt -0.04095614 -0.4899995
vt 0.04095662 -0.4899995
vt -0.0590499 -0.4900001
vt -0.07715011 -4.768372E-07
vt -0.0590564 0.4899995
vt 0.04095006 0.4900002
vt 0.215 -0.1850002
vt -0.2149999 -0.185
vt 0.2149997 0.185
vt -0.215 0.1850002
vt -0.05000007 0.2149994
vt 0.05000141 0.2149999
vt -0.05000144 -0.2149999
vt 0.05000004 -0.2149994
vt 0.215 -0.2150001
vt -0.215 -0.215
vt 0.2150001 0.215
vt -0.215 0.2150001
vt -0.04999998 0.215
vt 0.05000001 -0.215
vt 0.004999936 -0.225
vt -0.004999995 -0.225
vt 0.004999995 0.225
vt -0.004999965 0.225
vt 0.3500001 -0.225
vt -0.02378136 -0.225
vt 0.3500001 0.225
vt -0.02378136 0.225
vt -0.02378738 0.005011529
vt 0.3499943 0.005001605
vt -0.02378154 -0.004989564
vt 0.3500001 -0.004999578
vt -0.08529666 -0.225
vt -0.3500001 -0.225
vt -0.08529666 0.225
vt -0.3500001 0.225
vt 0.05000001 -0.45
vt -0.05000001 -0.45
vt 0.05000002 0.45
vt -0.05 0.45
vt 0.05 -0.45
vt -0.04999998 -0.45
vt 0.04999998 0.45
vt -0.05 0.45
vt 0.45 -0.45
vt -0.45 -0.4499999
vt 0.45 0.4499999
vt -0.45 0.45
vt 0.05695039 -0.225
vt 0.05695045 0.225
vt 0.3499932 -0.225
vt 0.3346914 -0.225
vt 0.3499922 0.225
vt 0.3346905 0.225
vt -0.05786121 0.004803851
vt 0.3490895 0.004828915
vt 0.3337831 -0.005196124
vt 0.3490837 -0.005172014
vt -0.333782 -0.005211547
vt -0.3490827 -0.005187646
vt 0.05786115 0.004788443
vt -0.3490905 0.004808292
vt 0.215 -0.004999965
vt -0.215 -0.004999995
vt 0.215 0.004999995
vt -0.215 0.004999965
vt 0.215 0.005000025
vt 0.06691414 -0.2149979
vt -0.3499997 -0.215001
vt 0.06690961 0.215001
vt -0.3500043 0.2149979
vt -0.272507 -0.225
vt -0.2725067 0.225
vt 0.004999995 -0.225
vt -0.005000055 -0.225
vt 0.004999995 0.225
vt -0.004999995 0.225
vt -0.002563477 -0.225
vt -0.002563417 0.225
vt 0.215 -0.004999995
vt 0.215 0.004999995
vt 0.2488858 0.2149941
vt 0.3499899 0.214999
vt 0.2488962 -0.2149989
vt 0.3500003 -0.2149941
vt -0.004588246 -0.2149978
vt -0.004593074 0.2150007
vt 0.2149964 -0.04564661
vt -0.2149963 -0.04564661
vt 0.2149964 0.1660224
vt -0.2149963 0.1660225
vt 0.1180371 -0.03675371
vt -0.1675769 -0.03675357
vt 0.1180371 0.1619743
vt -0.1675769 0.1619745
vt 0.05813974 0.6450944
vt 0.05813974 0.9450943
vt 0.3081397 0.6450944
vt 0.3081397 0.9450943
vt 0.0005000532 -0.2149999
vt -0.0004962981 -0.2150037
vt 0.0004963279 0.2150037
vt -0.0005000383 0.2149999
vt 0.4335597 0.1286055
vt -0.002801359 0.1289272
vt 0.4332381 0.5589634
vt -0.003122866 0.5592852
vt -0.0005000681 -0.215
vt 0.000500083 0.2149999
vt 0.0005000234 0.2150002
vt 0.9760168 0.1874481
vt 0.4708913 0.1897587
vt 0.9740287 0.5598904
vt 0.4689031 0.5622009
vt -0.09 0.005000001
vt -0.09 -0.03
vt 0.08999995 -0.02999999
vt 0.09 -0.03000003
vt -0.09 0.03000003
vt 0.005000003 -0.03
vt -0.005000003 -0.03
vt 0.005000003 0.03
vt -0.005000003 0.03
vt 0.0349968 -0.029993
vt -0.035 -0.03
vt 0.035 0.03
vt -0.0349968 0.029993
vt 0.004999995 -0.03
vt -0.00500001 -0.03
vt 0.00500001 0.02999999
vt -0.004999995 0.03
vt 0.035 -0.03000001
vt -0.03499682 -0.02999301
vt 0.03499681 0.02999301
vt -0.035 0.03000001
vt -0.005000003 0.03500001
vt 0.004999988 0.03500001
vt -0.004999995 -0.035
vt 0.004999995 -0.035
vt -0.005000003 0.03
vt -0.03499999 0.03000001
vt -0.005000003 0.03499999
vt 0.004999995 -0.035

vn -0.07419557 0 0.9972437
vn 0.07419557 0 -0.9972437
vn -0.9972438 0 -0.07419557
vn 0.001137409 9.479921E-08 0.9999994
vn 0.5164933 2.825342E-08 0.8562913
vn 0.9999994 4.673555E-08 -0.001137661
vn 0.5145443 -1.146048E-07 -0.8574638
vn -0.001137364 -1.22782E-07 -0.9999993
vn -0.5164936 -3.366335E-08 -0.8562911
vn -0.9999993 -2.336778E-08 0.001137305
vn -0.5145441 7.272811E-08 0.8574639
vn 0 -1 0
vn 0.9969736 0 -0.07774211
vn 0.9971478 0 0.07547383
vn -8.590124E-11 1 -7.544804E-08
vn -0.9970728 3.27379E-08 0.07645934
vn 0.9976549 0 -0.06844578
vn 0.997808 0 0.06617583
vn -0.9974343 0 0.07158932
vn -0.9975945 3.641954E-10 -0.06932002
vn -9.99167E-05 0.9961349 -0.08783616
vn 9.99167E-05 0.996135 0.087836
vn 0.03804403 0 0.999276
vn -0.03577071 0 0.99936
vn 0.001030793 0.4226256 0.9063038
vn -0.0004807135 0.9063193 -0.4225933
vn 0.0008043204 0.707096 0.7071171
vn -0.0008043533 0.7070994 -0.7071137
vn 0.2604682 -4.389349E-08 0.9654824
vn -0.9656433 0 0.2598714
vn 0.9662375 1.22688E-08 0.2576534
vn -0.258271 1.209136E-07 0.9660725
vn -0.9666263 8.209195E-09 -0.2561907
vn 0.001120688 -0.1707761 0.9853092
vn 0.001066477 -0.1710707 0.9852582
vn -0.0008073184 0.704481 -0.7097223
vn 0.0008073963 -0.7044535 0.7097497
vn -0.07363605 8.278419E-08 0.9972852
vn 0.9972383 4.571918E-12 0.074269

usemtl Metal036MatBlack
f 9/32/12 25/33/12 11/34/12
f 11/35/12 25/36/12 13/37/12
f 13/38/12 25/39/12 15/40/12
f 15/41/12 25/42/12 17/43/12
f 17/44/12 25/45/12 19/46/12
f 19/47/12 25/48/12 21/49/12
f 21/50/12 25/51/12 23/52/12
f 23/53/12 25/54/12 9/55/12
f 4/4/1 2/2/1 1/1/1
f 1/1/1 3/3/1 4/4/1
f 8/4/2 6/2/2 5/1/2
f 5/1/2 7/3/2 8/4/2
f 7/8/3 4/6/3 3/5/3
f 3/5/3 8/7/3 7/8/3
f 12/12/5 10/10/4 9/9/4
f 9/9/4 11/11/5 12/12/5
f 14/16/6 12/14/5 11/13/5
f 11/13/5 13/15/6 14/16/6
f 16/20/7 14/18/6 13/17/6
f 13/17/6 15/19/7 16/20/7
f 18/24/8 16/22/7 15/21/7
f 15/21/7 17/23/8 18/24/8
f 20/12/9 18/10/8 17/9/8
f 17/9/8 19/25/9 20/12/9
f 22/28/10 20/14/9 19/26/9
f 19/26/9 21/27/10 22/28/10
f 24/30/11 22/18/10 21/17/10
f 21/17/10 23/29/11 24/30/11
f 10/24/4 24/22/11 23/21/11
f 23/21/11 9/31/4 10/24/4
f 172/301/38 170/7/38 169/8/38
f 169/8/38 171/6/38 172/301/38
f 173/303/3 172/3/3 171/4/3
f 171/4/3 3/302/3 173/303/3
f 170/305/39 175/2/39 174/304/39
f 174/304/39 169/3/39 170/305/39
f 178/309/1 177/307/1 176/306/1
f 176/306/1 172/308/1 178/309/1
f 180/313/12 179/311/12 177/310/12
f 177/310/12 178/312/12 180/313/12
f 7/317/2 5/315/2 179/314/2
f 179/314/2 180/316/2 7/317/2
f 172/321/15 176/319/15 5/318/15
f 5/318/15 7/320/15 172/321/15
f 180/325/3 178/323/3 172/322/3
f 172/322/3 7/324/3 180/325/3
f 171/326/1 182/307/1 181/306/1
f 181/306/1 183/308/1 171/326/1
f 8/313/12 6/311/12 182/310/12
f 182/310/12 171/320/12 8/313/12
f 185/309/2 184/307/2 6/306/2
f 6/306/2 8/308/2 185/309/2
f 183/327/15 181/319/15 184/318/15
f 184/318/15 185/320/15 183/327/15
f 8/329/3 171/323/3 183/328/3
f 183/328/3 185/324/3 8/329/3

usemtl Metal036MatRed
f 35/69/4 28/68/4 29/72/4
f 36/70/4 35/69/4 29/72/4
f 36/70/4 29/72/4 30/71/4
f 33/76/8 34/75/8 38/77/8
f 34/75/8 37/73/8 38/77/8
f 34/75/8 26/74/8 37/73/8
f 31/79/15 36/81/15 30/80/15
f 36/81/15 31/79/15 38/82/15
f 31/79/15 33/78/15 38/82/15
f 37/83/12 26/86/12 27/79/12
f 37/83/12 27/79/12 35/84/12
f 28/85/12 35/84/12 27/79/12
f 30/61/14 29/60/14 32/63/14
f 30/61/14 32/63/14 31/62/14
f 29/60/14 28/59/14 27/58/14
f 29/60/14 27/58/14 32/63/14
f 31/64/13 32/67/13 34/66/13
f 31/64/13 34/66/13 33/65/13
f 32/67/13 27/57/13 26/56/13
f 32/67/13 26/56/13 34/66/13
f 41/88/4 40/87/4 39/68/4
f 43/89/4 41/88/4 39/68/4
f 43/89/4 42/70/4 41/88/4
f 46/102/8 47/89/8 51/76/8
f 50/87/8 46/102/8 51/76/8
f 50/87/8 45/68/8 46/102/8
f 51/103/15 47/107/15 48/106/15
f 48/106/15 42/105/15 43/104/15
f 51/103/15 48/106/15 43/104/15
f 39/103/12 44/106/12 50/108/12
f 39/103/12 40/107/12 44/106/12
f 44/106/12 45/105/12 50/108/12
f 48/98/16 49/101/16 42/99/16
f 49/101/16 41/100/16 42/99/16
f 49/101/16 44/91/16 41/100/16
f 44/91/16 40/90/16 41/100/16
f 47/95/3 46/94/3 48/96/3
f 46/94/3 49/97/3 48/96/3
f 46/94/3 45/93/3 49/97/3
f 45/93/3 44/92/3 49/97/3
f 64/122/4 55/124/4 56/123/4
f 64/122/4 54/118/4 55/124/4
f 54/118/4 64/122/4 61/119/4
f 61/119/4 64/122/4 62/120/4
f 64/122/4 63/121/4 62/120/4
f 67/124/8 68/131/8 71/130/8
f 67/124/8 71/130/8 66/127/8
f 66/127/8 71/130/8 52/128/8
f 60/120/8 52/128/8 71/130/8
f 59/129/8 60/120/8 71/130/8
f 66/144/12 52/149/12 53/148/12
f 65/145/12 66/144/12 53/148/12
f 65/145/12 53/148/12 54/147/12
f 61/146/12 65/145/12 54/147/12
f 62/117/19 63/116/19 69/115/19
f 70/63/19 62/117/19 69/115/19
f 61/125/19 62/117/19 70/63/19
f 65/110/19 61/125/19 70/63/19
f 70/63/20 69/115/20 68/114/20
f 67/113/20 70/63/20 68/114/20
f 65/110/20 70/63/20 67/113/20
f 66/126/20 65/110/20 67/113/20
f 57/115/18 55/113/18 58/63/18
f 57/115/18 56/114/18 55/113/18
f 58/63/18 54/112/18 53/111/18
f 58/63/18 55/113/18 54/112/18
f 59/116/17 58/63/17 60/117/17
f 59/116/17 57/115/17 58/63/17
f 60/117/17 53/110/17 52/109/17
f 60/117/17 58/63/17 53/110/17
f 59/132/21 71/135/21 72/134/21
f 59/132/21 72/134/21 57/133/21
f 71/135/21 68/143/21 69/142/21
f 71/135/21 69/142/21 72/134/21
f 72/141/22 69/140/22 63/139/22
f 72/141/22 63/139/22 64/138/22
f 57/136/22 72/141/22 64/138/22
f 57/136/22 64/138/22 56/137/22
f 83/168/6 82/167/6 81/166/6
f 85/170/6 83/168/6 81/166/6
f 85/170/6 84/169/6 83/168/6
f 88/182/10 89/181/10 93/169/10
f 92/180/10 88/182/10 93/169/10
f 92/180/10 87/179/10 88/182/10
f 93/187/15 89/186/15 90/185/15
f 85/183/15 93/187/15 90/185/15
f 85/183/15 90/185/15 84/184/15
f 82/191/12 86/190/12 81/192/12
f 86/190/12 92/188/12 81/192/12
f 86/190/12 87/189/12 92/188/12
f 89/175/24 88/174/24 91/63/24
f 89/175/24 91/63/24 90/176/24
f 88/174/24 87/173/24 86/172/24
f 88/174/24 86/172/24 91/63/24
f 90/176/23 91/63/23 83/178/23
f 90/176/23 83/178/23 84/177/23
f 91/63/23 86/172/23 82/171/23
f 91/63/23 82/171/23 83/178/23
f 76/153/6 74/151/6 73/150/6
f 73/150/6 75/152/6 76/153/6
f 78/157/4 77/155/4 74/154/4
f 74/154/4 76/156/4 78/157/4
f 80/161/10 79/159/10 77/158/10
f 77/158/10 78/160/10 80/161/10
f 78/165/15 76/163/15 75/162/15
f 75/162/15 80/164/15 78/165/15
f 74/162/12 77/164/12 79/165/12
f 79/165/12 73/163/12 74/162/12
f 119/226/6 73/224/6 117/223/6
f 117/223/6 118/225/6 119/226/6
f 122/230/10 120/228/10 79/227/10
f 79/227/10 121/229/10 122/230/10
f 118/234/8 117/232/8 120/231/8
f 120/231/8 122/233/8 118/234/8
f 73/230/12 79/224/12 120/223/12
f 120/223/12 117/225/12 73/230/12

usemtl Plastic013AMat
f 96/195/25 97/196/25 95/194/25 94/193/25
f 99/199/26 97/200/26 96/198/26 98/197/26
f 102/203/27 103/204/27 101/202/27 100/201/27
f 105/199/28 103/206/28 102/198/28 104/205/28
f 108/209/29 109/210/29 107/208/29 106/207/29
f 109/213/30 111/214/30 110/212/30 107/211/30
f 111/217/15 109/218/15 108/216/15 112/215/15
f 115/221/6 116/222/6 114/220/6 113/219/6
f 116/209/4 108/210/4 106/208/4 114/207/4
f 125/236/31 126/222/31 124/151/31 123/235/31
f 126/209/32 127/210/32 78/208/32 124/207/32
f 127/239/33 129/240/33 128/238/33 78/237/33
f 129/243/15 127/244/15 126/242/15 125/241/15
f 123/247/12 124/248/12 78/246/12 128/245/12
f 100/251/4 101/252/4 131/250/4 130/249/4
f 134/253/4 135/252/4 133/250/4 132/249/4
f 137/256/12 132/257/12 133/255/12 136/254/12
f 139/259/6 140/222/6 76/220/6 138/258/6
f 140/262/4 142/263/4 141/261/4 76/260/4
f 142/213/10 144/265/10 143/264/10 141/150/10
f 145/267/4 146/252/4 114/250/4 141/266/4
f 148/270/15 146/271/15 145/269/15 147/268/15
f 142/251/4 116/252/4 150/250/4 149/249/4
f 152/273/12 149/257/12 150/255/12 151/272/12

usemtl Metal001Mat
f 155/276/34 156/277/34 154/275/34 153/274/34
f 159/280/35 160/281/35 158/279/35 157/278/35

usemtl YuubinPostTextsETCMat
f 163/284/4 164/285/4 162/283/4 161/282/4

usemtl YuubinPostTextsETCMatPaper
f 102/288/6 166/289/6 165/287/6 100/286/6
f 166/292/27 168/293/27 167/291/27 165/290/27
f 168/295/10 103/288/10 101/294/10 167/287/10
f 103/287/36 168/287/36 166/288/36 102/288/36
f 100/296/37 165/288/37 167/287/37 101/287/37
f 96/299/25 97/300/25 95/298/25 94/297/25

